<svg width="24" height="24" viewBox="0 0 24 24" fill="none" xmlns="http://www.w3.org/2000/svg">
<path d="M5.44061 2.19727C6.44233 2.16776 7.32608 2.54974 8.05238 3.22183C8.26213 3.42401 8.42677 3.64274 8.57812 3.89063C8.59836 3.92326 8.61861 3.95589 8.63946 3.98951C8.76562 4.20079 8.76562 4.20079 8.76562 4.31251C8.83728 4.31225 8.83728 4.31225 8.91039 4.31198C10.0727 4.30782 11.235 4.30474 12.3973 4.30279C12.9594 4.30183 13.5215 4.30051 14.0836 4.29836C14.5735 4.29649 15.0634 4.29528 15.5533 4.29487C15.8127 4.29462 16.0721 4.29405 16.3315 4.29268C16.5757 4.29141 16.8199 4.29102 17.0641 4.2913C17.1537 4.29125 17.2433 4.29087 17.3329 4.29016C17.4553 4.28922 17.5777 4.28945 17.7002 4.28996C17.7532 4.28914 17.7532 4.28914 17.8072 4.2883C18.104 4.29165 18.2761 4.39043 18.5088 4.56538C18.6753 4.74257 18.7363 4.91731 18.796 5.15165C18.8039 5.1827 18.8119 5.21374 18.8201 5.24573C18.8984 5.55452 18.9686 5.86509 19.0366 6.17629C19.0502 6.23768 19.0637 6.29906 19.0773 6.36045C19.1139 6.52645 19.1504 6.6925 19.1868 6.85856C19.2261 7.03758 19.2656 7.21656 19.3051 7.39554C19.3729 7.7034 19.4407 8.01128 19.5084 8.31918C19.615 8.80432 19.7219 9.28941 19.8287 9.77449C19.8559 9.89789 19.8831 10.0213 19.9103 10.1447C19.9285 10.2274 19.9467 10.31 19.965 10.3927C20.0201 10.6428 20.0752 10.893 20.1302 11.1431C20.3791 12.2732 20.6286 13.4031 20.879 14.5329C20.8946 14.6036 20.9103 14.6743 20.9259 14.745C21.059 15.3457 21.1922 15.9464 21.3254 16.5471C21.4657 17.1797 21.6058 17.8124 21.7454 18.4451C21.8085 18.7313 21.8719 19.0174 21.9356 19.3035C21.972 19.4675 22.0082 19.6316 22.0442 19.7957C22.0604 19.869 22.0767 19.9423 22.0931 20.0155C22.115 20.1134 22.1365 20.2114 22.1579 20.3095C22.1698 20.363 22.1817 20.4166 22.1939 20.4718C22.2453 20.7884 22.2272 21.0454 22.0781 21.3281C21.8739 21.571 21.6454 21.7497 21.3281 21.7969C21.2359 21.8011 21.1435 21.8029 21.0511 21.803C20.9953 21.8032 20.9395 21.8034 20.882 21.8036C20.8208 21.8035 20.7597 21.8035 20.6967 21.8035C20.6309 21.8036 20.5652 21.8037 20.4994 21.8039C20.3187 21.8043 20.138 21.8043 19.9573 21.8044C19.7623 21.8045 19.5674 21.8048 19.3725 21.8051C18.9461 21.8058 18.5198 21.8061 18.0934 21.8063C17.827 21.8064 17.5606 21.8066 17.2941 21.8068C16.5559 21.8074 15.8177 21.8079 15.0795 21.808C15.0323 21.808 14.985 21.808 14.9363 21.808C14.889 21.8081 14.8416 21.8081 14.7928 21.8081C14.6969 21.8081 14.6009 21.8081 14.5049 21.8081C14.4335 21.8082 14.4335 21.8082 14.3607 21.8082C13.5904 21.8084 12.8201 21.8092 12.0498 21.8103C11.2583 21.8114 10.4668 21.812 9.67525 21.812C9.23113 21.8121 8.78701 21.8123 8.34288 21.8132C7.96445 21.8139 7.58602 21.8141 7.20759 21.8138C7.01477 21.8136 6.82195 21.8136 6.62913 21.8143C5.18612 21.8189 3.94029 21.7227 2.84948 20.6662C2.1572 19.9681 1.77491 18.9969 1.77606 18.0184C1.77638 17.9811 1.77669 17.9438 1.77702 17.9053C1.7772 17.8648 1.77738 17.8244 1.77756 17.7826C1.78057 17.2819 1.79129 16.7814 1.80202 16.2808C1.80426 16.1728 1.80649 16.0649 1.80872 15.957C1.81473 15.6667 1.82086 15.3765 1.82703 15.0862C1.83219 14.8427 1.83729 14.5991 1.84239 14.3556C1.85513 13.7477 1.86798 13.1398 1.88089 12.5319C1.89205 12.0066 1.90305 11.4813 1.91399 10.9559C1.92528 10.4136 1.93667 9.87128 1.94816 9.32894C1.95458 9.02565 1.96097 8.72235 1.96726 8.41905C1.97319 8.13363 1.97924 7.84822 1.98538 7.5628C1.9876 7.45892 1.98977 7.35504 1.9919 7.25116C2.00237 6.74076 2.01534 6.23051 2.03598 5.72041C2.03747 5.67887 2.03896 5.63734 2.0405 5.59454C2.08518 4.57755 2.53097 3.7651 3.24994 3.06354C3.86129 2.5238 4.63512 2.246 5.44061 2.19727ZM3.51562 3.84376C2.78742 4.74562 2.76525 5.71817 2.74309 6.82751C2.74125 6.91352 2.73939 6.99953 2.73753 7.08554C2.73254 7.31731 2.72775 7.54908 2.72301 7.78085C2.71799 8.02475 2.71279 8.26865 2.70762 8.51255C2.69896 8.92218 2.69043 9.3318 2.68198 9.74142C2.67225 10.213 2.66234 10.6845 2.65234 11.1561C2.64267 11.612 2.6331 12.0679 2.62358 12.5238C2.61955 12.7168 2.6155 12.9097 2.61141 13.1026C2.6066 13.3306 2.60187 13.5585 2.59721 13.7864C2.59551 13.8694 2.59377 13.9523 2.592 14.0353C2.58049 14.5757 2.57608 15.1157 2.57812 15.6563C2.61468 15.6197 2.65124 15.5831 2.68891 15.5454C3.42533 14.8092 4.3199 14.2945 5.38441 14.279C6.55925 14.2812 7.48322 14.6038 8.32324 15.4453C8.35327 15.4767 8.3833 15.5082 8.41424 15.5405C8.47357 15.6149 8.47357 15.6149 8.53125 15.6094C8.5452 13.9462 8.50817 12.2843 8.47127 10.6217C8.46382 10.2855 8.45663 9.94926 8.44948 9.61303C8.44248 9.28428 8.43536 8.95553 8.42822 8.62678C8.42601 8.52468 8.42382 8.42257 8.42162 8.32047C8.41407 7.97064 8.406 7.62084 8.39718 7.27105C8.39232 7.07254 8.38883 6.87405 8.38611 6.6755C8.38408 6.53741 8.38135 6.39935 8.3785 6.26127C8.37677 6.16591 8.37591 6.07052 8.3751 5.97514C8.35548 5.09821 8.11457 4.37177 7.49322 3.73737C6.93455 3.20315 6.22659 2.92179 5.45306 2.93867C4.72112 3.00645 4.01575 3.29123 3.51562 3.84376ZM9 5.01563C9.00743 5.07603 9.01487 5.13642 9.02253 5.19865C9.04783 5.4274 9.05688 5.6543 9.06141 5.88429C9.0624 5.92729 9.0634 5.97028 9.06443 6.01458C9.0677 6.15767 9.0707 6.30075 9.07371 6.44384C9.07601 6.54693 9.07833 6.65001 9.08066 6.7531C9.08693 7.0329 9.09297 7.31269 9.09895 7.5925C9.104 7.82755 9.10917 8.06259 9.11434 8.29764C9.12727 8.88604 9.13999 9.47444 9.15259 10.0628C9.16276 10.5376 9.17315 11.0124 9.18369 11.4872C9.19599 12.0415 9.20815 12.5958 9.2201 13.1502C9.2264 13.4424 9.23276 13.7346 9.23927 14.0269C9.25442 14.7084 9.26818 15.39 9.27891 16.0717C9.28048 16.1705 9.28211 16.2692 9.2838 16.3679C9.28865 16.6526 9.29254 16.9373 9.29483 17.2221C9.29564 17.3083 9.29678 17.3946 9.29824 17.4809C9.30016 17.598 9.3009 17.7151 9.3013 17.8323C9.30211 17.8665 9.30292 17.9008 9.30376 17.9361C9.30306 18.0875 9.30094 18.1665 9.19522 18.2793C9.01386 18.3666 8.85825 18.3434 8.67187 18.2813C8.66884 18.2549 8.66581 18.2285 8.66268 18.2013C8.53818 17.1525 8.28707 16.3205 7.45312 15.6094C6.71359 15.0732 5.92248 14.869 5.01562 15C4.19459 15.1793 3.48003 15.65 3.00732 16.346C2.58543 17.0262 2.41368 17.8194 2.58167 18.6086C2.76894 19.3842 3.17224 20.0603 3.8377 20.5173C4.50563 20.9242 5.17221 21.0761 5.94753 21.0707C6.01417 21.0709 6.08081 21.0712 6.14745 21.0716C6.32818 21.0724 6.5089 21.072 6.68963 21.0714C6.88543 21.071 7.08123 21.0716 7.27703 21.0721C7.6595 21.073 8.04196 21.0728 8.42443 21.0722C8.73517 21.0718 9.04591 21.0718 9.35665 21.072C9.40098 21.072 9.44532 21.072 9.491 21.0721C9.58108 21.0721 9.67116 21.0722 9.76124 21.0722C10.604 21.0728 11.4467 21.0722 12.2894 21.0712C13.0126 21.0703 13.7358 21.0705 14.459 21.0713C15.2997 21.0723 16.1405 21.0727 16.9812 21.0721C17.0707 21.0721 17.1603 21.072 17.2499 21.072C17.2939 21.0719 17.338 21.0719 17.3834 21.0719C17.6941 21.0717 18.0047 21.072 18.3154 21.0724C18.6935 21.073 19.0716 21.0728 19.4498 21.0718C19.6427 21.0713 19.8356 21.0711 20.0286 21.0718C20.205 21.0723 20.3815 21.072 20.558 21.071C20.6523 21.0707 20.7466 21.0713 20.841 21.072C20.8967 21.0715 20.9525 21.071 21.0099 21.0705C21.0822 21.0704 21.0822 21.0704 21.156 21.0704C21.316 21.0404 21.3728 20.9892 21.4687 20.8594C21.4662 20.7077 21.4514 20.5848 21.4219 20.4375C21.4126 20.3905 21.4033 20.3434 21.3937 20.2949C21.3585 20.1252 21.321 19.9562 21.2831 19.7871C21.2686 19.7219 21.2542 19.6567 21.2397 19.5914C21.2004 19.414 21.1609 19.2367 21.1212 19.0593C21.079 18.8699 21.037 18.6805 20.995 18.491C20.923 18.1669 20.8509 17.8428 20.7787 17.5187C20.6656 17.0111 20.5528 16.5035 20.4401 15.9959C20.4024 15.826 20.3647 15.6561 20.3269 15.4863C20.3176 15.4443 20.3083 15.4023 20.2987 15.3591C20.2327 15.0622 20.1667 14.7653 20.1007 14.4684C19.8261 13.2336 19.5524 11.9985 19.2796 10.7633C19.2037 10.4196 19.1276 10.0759 19.0515 9.7322C19.0105 9.5471 18.9695 9.36199 18.9285 9.17689C18.9188 9.13288 18.909 9.08887 18.899 9.04352C18.7804 8.5079 18.6627 7.97209 18.5462 7.43601C18.4913 7.18341 18.436 6.93087 18.3807 6.67834C18.3455 6.51753 18.3105 6.35669 18.276 6.19572C18.2399 6.02754 18.2031 5.8595 18.1663 5.69147C18.1561 5.64312 18.1459 5.59476 18.1354 5.54493C18.1257 5.50134 18.116 5.45774 18.106 5.41282C18.0938 5.35665 18.0938 5.35665 18.0814 5.29935C18.029 5.15327 17.9494 5.08408 17.8125 5.01563C17.6968 5.01116 17.5824 5.00953 17.4667 5.00999C17.4306 5.00995 17.3945 5.00991 17.3574 5.00987C17.2359 5.0098 17.1144 5.01005 16.9929 5.01031C16.9061 5.01032 16.8192 5.01032 16.7324 5.01029C16.4961 5.01028 16.2598 5.01055 16.0235 5.01088C15.7768 5.01117 15.53 5.0112 15.2833 5.01126C14.8158 5.0114 14.3483 5.01179 13.8808 5.01226C13.3487 5.01278 12.8166 5.01304 12.2845 5.01327C11.1897 5.01376 10.0948 5.01459 9 5.01563Z" fill="#D62828"/>
<path d="M6.97852 16.5996C7.42196 17.0745 7.52365 17.5838 7.51264 18.2083C7.49213 18.7007 7.26297 19.0912 6.93751 19.4531C6.52068 19.8151 5.98875 19.9889 5.44208 19.9815C4.88184 19.9321 4.42653 19.68 4.04004 19.2802C3.67388 18.837 3.56328 18.2786 3.60938 17.7187C3.71762 17.1645 3.96749 16.7173 4.42859 16.3844C5.26063 15.8783 6.24656 15.9274 6.97852 16.5996ZM4.59376 17.25C4.37134 17.5588 4.32193 17.8614 4.35938 18.2343C4.44176 18.5683 4.5943 18.8289 4.87501 19.0312C5.17315 19.2001 5.47198 19.2725 5.81251 19.2187C6.18011 19.1077 6.46201 18.9155 6.64747 18.5742C6.80992 18.2188 6.83676 17.9236 6.70991 17.5512C6.57052 17.2558 6.33221 17.0295 6.04688 16.875C5.49192 16.6768 4.98421 16.8108 4.59376 17.25Z" fill="#D62828"/>
</svg>
