<svg width="24" height="24" viewBox="0 0 24 24" fill="none" xmlns="http://www.w3.org/2000/svg">
<g clip-path="url(#clip0_247_2392)">
<path d="M10.5498 0.823242C10.7042 0.846244 10.7371 0.862033 10.8281 0.984375C10.845 1.0956 10.845 1.0956 10.8441 1.2284C10.8441 1.27813 10.8441 1.32785 10.8441 1.37909C10.8433 1.43271 10.8426 1.48632 10.8419 1.54156C10.8417 1.59651 10.8415 1.65145 10.8413 1.70806C10.8405 1.88384 10.8387 2.05959 10.8369 2.23535C10.8362 2.3544 10.8356 2.47345 10.835 2.5925C10.8336 2.8846 10.8308 3.17665 10.8281 3.46875C11.5861 3.46875 12.3441 3.46875 13.125 3.46875C13.1239 3.29835 13.1228 3.12795 13.1217 2.95239C13.121 2.78748 13.1204 2.62257 13.1199 2.45766C13.1194 2.34299 13.1187 2.22832 13.1179 2.11366C13.1168 1.9489 13.1163 1.78415 13.1158 1.61938C13.1154 1.56806 13.1149 1.51674 13.1144 1.46386C13.1144 1.41601 13.1144 1.36816 13.1144 1.31886C13.1142 1.27681 13.1139 1.23476 13.1137 1.19143C13.1259 1.06905 13.1529 0.993936 13.2188 0.890625C13.3499 0.82503 13.4487 0.831907 13.5938 0.84375C13.672 0.899544 13.672 0.899544 13.7344 0.984375C13.7513 1.0956 13.7513 1.0956 13.7503 1.2284C13.7503 1.27813 13.7503 1.32785 13.7503 1.37909C13.7496 1.43271 13.7489 1.48632 13.7481 1.54156C13.7479 1.59651 13.7477 1.65145 13.7475 1.70806C13.7467 1.88384 13.745 2.05959 13.7432 2.23535C13.7425 2.3544 13.7418 2.47345 13.7412 2.5925C13.7397 2.88459 13.7373 3.17667 13.7344 3.46875C13.7687 3.46801 13.8029 3.46728 13.8382 3.46652C13.994 3.46359 14.1498 3.46176 14.3057 3.45996C14.3866 3.45819 14.3866 3.45819 14.4691 3.45639C14.5473 3.45571 14.5473 3.45571 14.627 3.45502C14.6749 3.45428 14.7228 3.45354 14.7721 3.45279C14.931 3.4717 15.0167 3.50816 15.1406 3.60938C15.1723 3.71085 15.1723 3.71085 15.1754 3.83007C15.1771 3.87487 15.1787 3.91966 15.1804 3.96582C15.1808 4.0143 15.1812 4.06278 15.1816 4.11273C15.1825 4.163 15.1834 4.21327 15.1843 4.26505C15.1857 4.37179 15.1865 4.47854 15.1866 4.58529C15.1875 4.74677 15.1923 4.90779 15.1974 5.06918C15.2054 5.60175 15.1976 6.00744 14.8253 6.41241C14.7596 6.47911 14.6923 6.54431 14.625 6.60938C14.5732 6.6735 14.5224 6.73853 14.4738 6.80511C14.4367 6.85364 14.3996 6.90216 14.3613 6.95215C14.3417 6.97786 14.3221 7.00357 14.3018 7.03006C14.1608 7.21418 14.1608 7.21418 14.1094 7.26562C13.9742 7.26978 13.8401 7.27103 13.7049 7.2702C13.6441 7.2701 13.6441 7.2701 13.5821 7.27C13.4522 7.26974 13.3223 7.26915 13.1924 7.26855C13.1045 7.26832 13.0167 7.26811 12.9288 7.26791C12.713 7.2674 12.4971 7.26659 12.2813 7.26562C12.2168 7.94934 12.2168 7.94934 12.4417 8.56201C12.5347 8.65022 12.6357 8.72455 12.7401 8.79877C13.1565 9.09612 13.4794 9.59451 13.6406 10.0781C13.6818 10.5598 13.6273 10.9575 13.3154 11.3379C13.2012 11.4646 13.0709 11.566 12.9375 11.6719C13.844 12.0876 14.7514 12.5009 15.6619 12.9079C16.0538 13.0832 16.4454 13.2594 16.8369 13.4355C16.8956 13.462 16.8956 13.462 16.9555 13.4889C17.5872 13.7732 18.2185 14.0582 18.8496 14.3438C18.8891 14.3616 18.9286 14.3795 18.9693 14.3979C19.0466 14.4328 19.1239 14.4679 19.2012 14.5029C19.2776 14.5374 19.3542 14.5717 19.4309 14.6057C19.633 14.6957 19.8303 14.7904 20.0255 14.8946C20.7046 15.2474 21.2827 15.2964 22.04 15.2783C22.1989 15.2764 22.3576 15.2751 22.5165 15.2746C22.6141 15.274 22.7118 15.2726 22.8094 15.2702C22.853 15.2696 22.8966 15.269 22.9415 15.2684C22.9988 15.2671 22.9988 15.2671 23.0573 15.2657C23.1563 15.2812 23.1563 15.2812 23.2388 15.3375C23.3161 15.4497 23.3153 15.5235 23.3166 15.6594C23.3173 15.7077 23.3181 15.756 23.3188 15.8058C23.3188 15.8841 23.3188 15.8841 23.3189 15.9639C23.3192 16.0174 23.3196 16.071 23.3199 16.1262C23.3204 16.2395 23.3206 16.3528 23.3204 16.4662C23.3203 16.64 23.3223 16.8137 23.3243 16.9874C23.3246 17.0974 23.3247 17.2074 23.3247 17.3174C23.3255 17.3695 23.3262 17.4217 23.327 17.4754C23.3239 17.8286 23.3239 17.8286 23.2063 17.9627C23.0046 18.015 22.8165 18.0173 22.609 18.0137C22.5656 18.0135 22.5222 18.0133 22.4775 18.0131C22.3395 18.0123 22.2015 18.0106 22.0635 18.0088C21.9697 18.0081 21.8759 18.0074 21.7821 18.0069C21.5527 18.0054 21.3232 18.0027 21.0938 18C21.0938 18.5723 21.0938 19.1447 21.0938 19.7344C21.2371 19.7327 21.3804 19.7311 21.5281 19.7294C21.6669 19.7283 21.8058 19.7275 21.9446 19.7267C22.0411 19.7259 22.1376 19.725 22.2341 19.7238C22.3728 19.7221 22.5114 19.7213 22.6502 19.7206C22.7148 19.7196 22.7148 19.7196 22.7808 19.7184C22.8212 19.7184 22.8615 19.7184 22.9031 19.7184C22.9562 19.7179 22.9562 19.7179 23.0103 19.7175C23.1418 19.7399 23.2037 19.7798 23.2969 19.875C23.3207 19.9835 23.3207 19.9835 23.3211 20.1125C23.3217 20.1608 23.3223 20.2092 23.3229 20.259C23.3224 20.3372 23.3224 20.3372 23.3218 20.417C23.322 20.4706 23.3221 20.5241 23.3223 20.5793C23.3225 20.6926 23.3221 20.806 23.3213 20.9193C23.3203 21.0931 23.3213 21.2668 23.3225 21.4406C23.3224 21.5505 23.3221 21.6605 23.3218 21.7705C23.3222 21.8227 23.3225 21.8748 23.3229 21.9285C23.322 22.001 23.322 22.001 23.3211 22.075C23.321 22.1176 23.3208 22.1601 23.3207 22.204C23.2969 22.3125 23.2969 22.3125 23.2145 22.3967C23.0987 22.4589 23.0335 22.4702 22.9031 22.4691C22.8627 22.4691 22.8224 22.4691 22.7808 22.4691C22.7377 22.4683 22.6946 22.4676 22.6502 22.4669C22.6057 22.4667 22.5612 22.4665 22.5154 22.4663C22.3735 22.4655 22.2317 22.4637 22.0898 22.4619C21.9936 22.4612 21.8973 22.4606 21.8011 22.46C21.5653 22.4584 21.3295 22.456 21.0938 22.4531C21.095 22.5067 21.095 22.5067 21.0963 22.5614C21.097 22.6081 21.0977 22.6548 21.0983 22.7029C21.0992 22.7492 21.1 22.7956 21.1009 22.8434C21.0938 22.9688 21.0938 22.9688 21.0205 23.0977C20.856 23.182 20.7532 23.158 20.5781 23.1094C20.4844 22.9688 20.4844 22.9688 20.4844 22.4531C14.8692 22.4531 9.25407 22.4531 3.46875 22.4531C3.46875 22.6388 3.46875 22.8244 3.46875 23.0156C3.32813 23.1562 3.32813 23.1562 3.19043 23.1797C3.04688 23.1562 3.04688 23.1562 2.93555 23.0684C2.85512 22.9137 2.85103 22.8481 2.85462 22.6783C2.85531 22.6362 2.85599 22.594 2.8567 22.5505C2.85758 22.5184 2.85847 22.4862 2.85938 22.4531C2.80072 22.4539 2.74206 22.4546 2.68163 22.4554C2.46394 22.4579 2.24624 22.4595 2.02854 22.4608C1.93433 22.4616 1.84012 22.4625 1.74591 22.4637C1.61047 22.4654 1.47505 22.4662 1.3396 22.4669C1.27646 22.4679 1.27646 22.4679 1.21204 22.4691C1.15294 22.4691 1.15294 22.4691 1.09264 22.4691C1.0408 22.4696 1.0408 22.4696 0.987918 22.47C0.857511 22.4474 0.795729 22.4068 0.703129 22.3125C0.679319 22.204 0.679319 22.204 0.678867 22.075C0.678276 22.0267 0.677685 21.9783 0.677076 21.9285C0.677456 21.8764 0.677835 21.8242 0.678226 21.7705C0.678047 21.7169 0.677868 21.6634 0.677683 21.6082C0.677555 21.4949 0.677902 21.3815 0.678684 21.2682C0.679687 21.0944 0.678694 20.9207 0.677494 20.7469C0.677618 20.637 0.677858 20.527 0.678226 20.417C0.677847 20.3648 0.677467 20.3127 0.677076 20.259C0.677963 20.1865 0.677963 20.1865 0.678867 20.1125C0.679091 20.0486 0.679091 20.0486 0.679319 19.9835C0.703129 19.875 0.703129 19.875 0.785769 19.7908C0.900231 19.7292 0.963766 19.7172 1.09264 19.7184C1.15174 19.7184 1.15174 19.7184 1.21204 19.7184C1.25414 19.7192 1.29623 19.7199 1.3396 19.7206C1.38304 19.7208 1.42647 19.721 1.47122 19.7212C1.60973 19.722 1.74822 19.7238 1.88672 19.7256C1.98072 19.7263 2.07471 19.7269 2.1687 19.7275C2.39895 19.7289 2.62913 19.7317 2.85938 19.7344C2.85938 19.162 2.85938 18.5897 2.85938 18C2.72336 18.0016 2.58735 18.0033 2.44721 18.0049C2.31519 18.006 2.18316 18.0069 2.05114 18.0077C1.95952 18.0084 1.86791 18.0094 1.7763 18.0106C1.64446 18.0123 1.51265 18.0131 1.3808 18.0137C1.31956 18.0148 1.31956 18.0148 1.25708 18.0159C1.0936 18.016 0.952942 18.004 0.79435 17.9627C0.633074 17.78 0.671846 17.5515 0.675297 17.3174C0.675295 17.2638 0.675293 17.2102 0.675291 17.155C0.675543 17.0417 0.676369 16.9284 0.677723 16.8151C0.679684 16.6413 0.679648 16.4676 0.679325 16.2938C0.679817 16.1838 0.680423 16.0739 0.681156 15.9639C0.681166 15.9117 0.681175 15.8596 0.681185 15.8058C0.682304 15.7333 0.682304 15.7333 0.683445 15.6594C0.684037 15.5955 0.684037 15.5955 0.684641 15.5304C0.703129 15.4219 0.703129 15.4219 0.762449 15.3371C0.864819 15.2668 0.916163 15.2674 1.03932 15.2751C1.09887 15.278 1.09887 15.278 1.15962 15.2809C1.22451 15.2847 1.22451 15.2847 1.29071 15.2886C2.6823 15.3385 3.65039 15.1166 4.87301 14.4665C5.21756 14.2849 5.57385 14.13 5.9302 13.9733C6.12499 13.8874 6.31899 13.7997 6.51307 13.7122C6.5912 13.6771 6.66934 13.6419 6.74749 13.6067C7.23395 13.3877 7.72001 13.1677 8.20597 12.9475C8.594 12.7717 8.98216 12.5962 9.37081 12.4217C9.55454 12.3392 9.73821 12.2566 9.92187 12.1739C10.0099 12.1344 10.098 12.0949 10.1861 12.0555C10.3079 12.001 10.4296 11.9462 10.5513 11.8914C10.6058 11.8672 10.6058 11.8672 10.6614 11.8424C10.8533 11.7563 10.8533 11.7563 11.0156 11.625C10.9913 11.6057 10.9669 11.5863 10.9418 11.5664C10.499 11.1997 10.3261 10.8142 10.2422 10.248C10.2768 10.0661 10.3515 9.99716 10.5 9.89062C10.676 9.89408 10.7498 9.90602 10.875 10.0312C10.8994 10.1282 10.9204 10.2261 10.9395 10.3242C11.0245 10.7083 11.162 10.9241 11.4844 11.1562C11.7741 11.2914 12.0863 11.2951 12.3867 11.1914C12.6447 11.0809 12.8178 10.937 12.9501 10.6837C13.0232 10.4918 13.0168 10.3191 12.9551 10.1281C12.7176 9.60118 12.2602 9.15341 11.7938 8.82477C11.7188 8.76562 11.7188 8.76562 11.6719 8.67188C11.6679 8.56635 11.6669 8.4607 11.6673 8.3551C11.6674 8.30848 11.6674 8.30848 11.6675 8.26092C11.6678 8.16157 11.6684 8.06223 11.6689 7.96289C11.6692 7.89557 11.6694 7.82825 11.6696 7.76093C11.6701 7.59582 11.6709 7.43072 11.6719 7.26562C11.6191 7.26685 11.5664 7.26808 11.5121 7.26934C11.316 7.27359 11.1199 7.27628 10.9237 7.2785C10.8389 7.27968 10.7541 7.28127 10.6693 7.28331C10.5473 7.28616 10.4253 7.28748 10.3032 7.28851C10.2654 7.28972 10.2277 7.29093 10.1888 7.29218C9.99418 7.29228 9.91561 7.28542 9.75839 7.16084C9.72469 7.11808 9.69098 7.07531 9.65625 7.03125C9.62691 6.99505 9.59757 6.95885 9.56733 6.92156C9.54 6.8847 9.51266 6.84785 9.4845 6.80988C9.45417 6.76918 9.42383 6.72848 9.39258 6.68655C9.34618 6.6237 9.34618 6.6237 9.29883 6.55957C9.26753 6.51748 9.23623 6.4754 9.20398 6.43204C9.14587 6.35388 9.08784 6.27567 9.02992 6.19738C8.98183 6.13248 8.93182 6.0689 8.87925 6.00758C8.80061 5.88819 8.79426 5.82317 8.79282 5.6814C8.79207 5.63697 8.79133 5.59254 8.79056 5.54677C8.79055 5.49911 8.79054 5.45145 8.79053 5.40234C8.79017 5.35311 8.78982 5.30388 8.78945 5.25316C8.78894 5.14914 8.78881 5.04512 8.78902 4.9411C8.78907 4.78182 8.78711 4.62264 8.78504 4.46338C8.78479 4.3623 8.78467 4.26123 8.78467 4.16016C8.7839 4.1125 8.78314 4.06484 8.78234 4.01573C8.78278 3.9713 8.78322 3.92688 8.78366 3.8811C8.78357 3.84211 8.78347 3.80313 8.78337 3.76295C8.82714 3.60264 8.9073 3.5537 9.04688 3.46875C9.18106 3.44746 9.18106 3.44746 9.32611 3.45044C9.37823 3.45104 9.43035 3.45165 9.48404 3.45227C9.56494 3.45463 9.56494 3.45463 9.64746 3.45703C9.7023 3.45788 9.75714 3.45872 9.81363 3.45959C9.94871 3.4618 10.0837 3.46488 10.2188 3.46875C10.2183 3.43863 10.2179 3.40851 10.2175 3.37747C10.2133 3.0642 10.2105 2.75093 10.2085 2.43764C10.2075 2.32069 10.2062 2.20375 10.2046 2.08681C10.2023 1.91879 10.2013 1.7508 10.2004 1.58276C10.1995 1.53041 10.1985 1.47806 10.1975 1.42413C10.1975 1.37534 10.1975 1.32656 10.1975 1.27629C10.1971 1.23341 10.1966 1.19052 10.1962 1.14633C10.2365 0.940848 10.3476 0.852132 10.5498 0.823242ZM9.42188 4.07812C9.31612 5.43624 9.31612 5.43624 9.89022 6.48486C10.4095 6.86426 11.1425 6.79739 11.7545 6.77943C11.9644 6.77328 12.1731 6.77563 12.383 6.78029C13.299 6.82958 13.299 6.82958 14.0864 6.45135C14.2593 6.24039 14.3772 6.0149 14.4844 5.76562C14.4998 5.75016 14.5153 5.73469 14.5313 5.71875C14.5313 5.17734 14.5313 4.63594 14.5313 4.07812C12.8452 4.07812 11.1591 4.07812 9.42188 4.07812ZM11.6532 12.065C11.6015 12.0893 11.5498 12.1137 11.4965 12.1387C11.4689 12.1519 11.4412 12.165 11.4127 12.1786C11.2633 12.2496 11.1134 12.3197 10.9636 12.3898C10.9326 12.4044 10.9017 12.4189 10.8697 12.4339C10.5664 12.5759 10.261 12.7132 9.95508 12.8496C9.84149 12.9003 9.7279 12.951 9.61432 13.0018C9.58466 13.015 9.55499 13.0283 9.52443 13.0419C9.15165 13.2086 8.77974 13.3772 8.40776 13.5457C7.72964 13.8528 7.05134 14.1595 6.37256 14.4652C6.29369 14.5007 6.21482 14.5363 6.13596 14.5718C5.6389 14.7959 5.14062 15.0169 4.64063 15.2344C4.64063 15.2498 4.64063 15.2653 4.64063 15.2812C9.48235 15.2812 14.3241 15.2812 19.3125 15.2812C19.1359 15.1488 18.9655 15.0617 18.7658 14.9736C18.7298 14.9575 18.6938 14.9415 18.6568 14.9249C18.5786 14.89 18.5005 14.8551 18.4223 14.8204C18.2966 14.7646 18.1711 14.7086 18.0456 14.6525C17.9137 14.5935 17.7819 14.5346 17.65 14.4757C17.2304 14.2884 16.8116 14.0992 16.393 13.9095C16.2708 13.8542 16.1485 13.7988 16.0263 13.7435C15.6487 13.5727 15.2712 13.4017 14.8937 13.2306C14.403 13.0083 13.9123 12.7864 13.4213 12.5648C13.3162 12.5173 13.2111 12.4697 13.106 12.4221C12.9259 12.3407 12.7457 12.2597 12.5654 12.1787C12.5138 12.1553 12.4622 12.1319 12.409 12.1078C12.3625 12.087 12.3161 12.0662 12.2683 12.0449C12.2285 12.027 12.1887 12.0091 12.1478 11.9906C11.95 11.9171 11.8349 11.9787 11.6532 12.065ZM1.26563 15.8906C1.26563 16.3856 1.26563 16.8806 1.26563 17.3906C1.79157 17.3906 2.3175 17.3906 2.85938 17.3906C2.85938 16.8956 2.85938 16.4006 2.85938 15.8906C2.33344 15.8906 1.8075 15.8906 1.26563 15.8906ZM3.46875 15.8906C3.46875 16.3856 3.46875 16.8806 3.46875 17.3906C9.08391 17.3906 14.6991 17.3906 20.4844 17.3906C20.4844 16.8956 20.4844 16.4006 20.4844 15.8906C14.8692 15.8906 9.25407 15.8906 3.46875 15.8906ZM21.0938 15.8906C21.0938 16.3856 21.0938 16.8806 21.0938 17.3906C21.6352 17.3906 22.1766 17.3906 22.7344 17.3906C22.7344 16.8956 22.7344 16.4006 22.7344 15.8906C22.193 15.8906 21.6516 15.8906 21.0938 15.8906ZM3.46875 18C3.46875 18.5723 3.46875 19.1447 3.46875 19.7344C4.18374 19.8144 4.18374 19.8144 4.5 19.5C4.59298 19.3141 4.5576 19.0804 4.5586 18.876C4.55956 18.8269 4.56053 18.7779 4.56153 18.7274C4.56177 18.6799 4.56201 18.6325 4.56226 18.5836C4.5627 18.5402 4.56314 18.4969 4.56359 18.4522C4.54334 18.3018 4.4953 18.2158 4.40625 18.0938C4.18329 17.9263 4.18329 17.9263 3.46875 18ZM5.0625 18C5.07797 18.0773 5.09344 18.1547 5.10938 18.2344C5.11361 18.3315 5.1155 18.4287 5.1156 18.5259C5.11566 18.5812 5.11573 18.6365 5.11579 18.6934C5.11561 18.7508 5.11542 18.8081 5.11524 18.8672C5.11542 18.9245 5.1156 18.9819 5.11579 19.041C5.11573 19.0962 5.11567 19.1515 5.1156 19.2085C5.11555 19.2588 5.1155 19.3091 5.11544 19.3609C5.10938 19.5 5.10938 19.5 5.0625 19.7344C9.64125 19.7344 14.22 19.7344 18.9375 19.7344C18.922 19.657 18.9066 19.5797 18.8906 19.5C18.8864 19.4029 18.8845 19.3057 18.8844 19.2085C18.8843 19.1532 18.8843 19.0979 18.8842 19.041C18.8844 18.9836 18.8846 18.9263 18.8848 18.8672C18.8846 18.8098 18.8844 18.7525 18.8842 18.6934C18.8843 18.6105 18.8843 18.6105 18.8844 18.5259C18.8845 18.4756 18.8845 18.4253 18.8846 18.3734C18.8906 18.2344 18.8906 18.2344 18.9375 18C14.3588 18 9.78 18 5.0625 18ZM19.7344 18C19.421 18.3133 19.4412 18.4357 19.4356 18.8555C19.4338 18.9041 19.432 18.9528 19.4302 19.0029C19.4238 19.3129 19.4238 19.3129 19.5656 19.5784C19.8765 19.8566 19.898 19.7344 20.4844 19.7344C20.4844 19.162 20.4844 18.5897 20.4844 18C20.2369 18 19.9894 18 19.7344 18ZM1.26563 20.3438C1.26563 20.8388 1.26563 21.3337 1.26563 21.8438C1.79157 21.8438 2.3175 21.8438 2.85938 21.8438C2.85938 21.3487 2.85938 20.8538 2.85938 20.3438C2.33344 20.3438 1.8075 20.3438 1.26563 20.3438ZM3.46875 20.3438C3.46875 20.8388 3.46875 21.3337 3.46875 21.8438C9.08391 21.8438 14.6991 21.8438 20.4844 21.8438C20.4844 21.3487 20.4844 20.8538 20.4844 20.3438C14.8692 20.3438 9.25407 20.3438 3.46875 20.3438ZM21.0938 20.3438C21.0938 20.8388 21.0938 21.3337 21.0938 21.8438C21.6352 21.8438 22.1766 21.8438 22.7344 21.8438C22.7344 21.3487 22.7344 20.8538 22.7344 20.3438C22.193 20.3438 21.6516 20.3438 21.0938 20.3438Z" fill="#D62828"/>
</g>
<defs>
<clipPath id="clip0_247_2392">
<rect width="24" height="24" fill="white"/>
</clipPath>
</defs>
</svg>
