<svg width="24" height="24" viewBox="0 0 24 24" fill="none" xmlns="http://www.w3.org/2000/svg">
<path d="M20.678 1.37437C20.6734 1.37419 20.6694 1.37163 20.6648 1.37163H6.62619C5.65977 1.37163 4.87316 2.15805 4.87316 3.12466V19.0659H1.43957C1.22881 19.0659 1.05743 19.2377 1.05743 19.4484V20.3328C1.05743 21.5757 2.0546 22.5863 3.2906 22.6174C3.30983 22.6203 3.32704 22.6288 3.347 22.6288H17.3725C18.3352 22.6288 19.1189 21.8396 19.1189 20.8693V4.92711H22.5596C22.7704 4.92711 22.9422 4.75591 22.9422 4.54498V3.66021C22.9422 2.41765 21.9292 1.39502 20.6781 1.37449L20.678 1.37437ZM1.82156 20.333V19.8309H4.87322V20.3328C4.87322 21.1743 4.18894 21.858 3.34739 21.858C2.50603 21.8582 1.82156 21.1743 1.82156 20.333ZM18.3539 20.8693C18.3539 21.4272 17.9229 21.8637 17.3724 21.8637L5.03822 21.8639C5.40663 21.4572 5.63733 20.9233 5.63733 20.333V3.12468C5.63733 2.57939 6.08099 2.13571 6.6263 2.13571H18.9521C18.5844 2.54129 18.354 3.07228 18.354 3.66009L18.3539 20.8693ZM22.1771 4.16302H19.1189V3.66019C19.1189 2.82047 19.8074 2.13712 20.6544 2.13712V2.13566H20.6619V2.13712C21.4978 2.14683 22.1771 2.83036 22.1771 3.66019L22.1771 4.16302Z" fill="#D62828"/>
<path d="M16.5403 3.9675H11.7956C11.5849 3.9675 11.4135 4.1387 11.4135 4.34964C11.4135 4.56039 11.5847 4.73178 11.7956 4.73178H16.5408C16.7515 4.73178 16.9233 4.56058 16.9233 4.34964C16.9231 4.1387 16.7515 3.9675 16.5406 3.9675H16.5403Z" fill="#D62828"/>
<path d="M7.77891 5.74922C7.85179 5.83454 7.95798 5.88362 8.07004 5.88362C8.15299 5.88545 8.29014 5.83363 8.36301 5.74702L10.2918 3.44227C10.4275 3.2804 10.4061 3.03925 10.2442 2.90396C10.082 2.76828 9.84157 2.7897 9.70591 2.95156L8.06767 4.90934L7.75053 4.53709C7.61394 4.37614 7.37224 4.35801 7.21185 4.49369C7.0509 4.63084 7.03186 4.87199 7.16845 5.03238L7.77891 5.74922Z" fill="#D62828"/>
<path d="M16.5403 7.7925H11.4788C11.268 7.7925 11.0966 7.9637 11.0966 8.17464C11.0966 8.38539 11.2678 8.55678 11.4788 8.55678H16.5403C16.7511 8.55678 16.9228 8.38558 16.9228 8.17464C16.9226 7.9637 16.7511 7.7925 16.5401 7.7925H16.5403Z" fill="#D62828"/>
<path d="M7.77891 9.57422C7.85179 9.65954 7.95798 9.70862 8.07004 9.70862C8.18851 9.66156 8.29014 9.65863 8.36301 9.57202L10.2918 7.26764C10.4275 7.10578 10.4061 6.86463 10.2442 6.72933C10.082 6.59402 9.84157 6.61507 9.70591 6.77694L8.06767 8.73434L7.75053 8.36209C7.61394 8.20261 7.37224 8.18247 7.21185 8.31869C7.0509 8.45584 7.03186 8.69699 7.16845 8.85738L7.77891 9.57422Z" fill="#D62828"/>
<path d="M16.5403 11.6175H11.7956C11.5849 11.6175 11.4135 11.7887 11.4135 11.9996C11.4135 12.2104 11.5847 12.3818 11.7956 12.3818H16.5408C16.7515 12.3818 16.9233 12.2106 16.9233 11.9996C16.9231 11.7887 16.7515 11.6175 16.5406 11.6175H16.5403Z" fill="#D62828"/>
<path d="M7.77891 13.3997C7.85179 13.4846 7.95798 13.5341 8.07004 13.5341H8.07151C8.1843 13.5332 8.29069 13.4828 8.36302 13.3969L10.2918 11.0926C10.4275 10.9307 10.4061 10.6895 10.2442 10.5543C10.082 10.4186 9.84158 10.4404 9.70591 10.6019L8.06768 12.5593L7.75054 12.187C7.61394 12.0266 7.37224 12.0083 7.21185 12.1436C7.0509 12.2808 7.03186 12.5219 7.16845 12.6823L7.77891 13.3997Z" fill="#D62828"/>
<path d="M16.5403 15.442H11.4788C11.268 15.442 11.0966 15.6138 11.0966 15.8245C11.0966 16.0353 11.2678 16.207 11.4788 16.207H16.5403C16.7511 16.207 16.9228 16.0353 16.9228 15.8245C16.9226 15.6138 16.7511 15.442 16.5401 15.442H16.5403Z" fill="#D62828"/>
<path d="M9.70594 14.4272L8.06677 16.3846L7.74963 16.0123C7.6134 15.8519 7.3717 15.8342 7.21132 15.9695C7.05037 16.1066 7.03132 16.3483 7.16847 16.5087L7.77911 17.2252C7.85144 17.3102 7.95782 17.3596 8.0697 17.3596C8.15594 17.3952 8.28979 17.3093 8.36267 17.2225L10.292 14.9181C10.4277 14.7559 10.4063 14.5151 10.2444 14.3798C10.0837 14.2443 9.84216 14.2648 9.70594 14.4272Z" fill="#D62828"/>
<path d="M16.5403 19.267H11.4788C11.268 19.267 11.0966 19.4388 11.0966 19.6495C11.0966 19.8603 11.2678 20.0321 11.4788 20.0321H16.5403C16.7511 20.0321 16.9228 19.8603 16.9228 19.6495C16.9226 19.4388 16.7511 19.267 16.5401 19.267H16.5403Z" fill="#D62828"/>
<path d="M9.70594 18.2522L8.06677 20.2096L7.74963 19.8373C7.6134 19.6779 7.3717 19.6601 7.21132 19.7945C7.05037 19.9316 7.03132 20.1733 7.16847 20.3337L7.77911 21.0502C7.85144 21.1352 7.95782 21.1846 8.0697 21.1846C8.15594 21.1921 8.28979 21.1343 8.36267 21.0475L10.292 18.7431C10.4277 18.5809 10.4063 18.3401 10.2444 18.2048C10.0837 18.0702 9.84216 18.0898 9.70594 18.2522Z" fill="#D62828"/>
</svg>
