<svg width="24" height="24" viewBox="0 0 24 24" fill="none" xmlns="http://www.w3.org/2000/svg">
<g clip-path="url(#clip0_100_166)">
<path d="M12.1875 0.750001C12.3437 0.815774 12.482 0.904248 12.624 0.996095C12.665 1.02161 12.7059 1.04712 12.7481 1.07341C12.8742 1.15231 12.9996 1.23231 13.125 1.3125C13.197 1.35797 13.2691 1.40339 13.3412 1.44873C13.4481 1.51598 13.5548 1.58335 13.6613 1.65105C13.9758 1.85086 14.2928 2.04635 14.6104 2.24121C15.0589 2.51654 15.506 2.79402 15.9521 3.07339C16.2514 3.26078 16.5512 3.44722 16.8516 3.63281C17.199 3.84747 17.5455 4.06351 17.8916 4.28027C18.3371 4.55921 18.7843 4.83523 19.2322 5.11026C19.619 5.34794 20.0041 5.58812 20.3888 5.82916C20.7321 6.04407 21.0767 6.25678 21.4219 6.46875C21.5736 6.56207 21.7252 6.65542 21.8769 6.74879C21.9822 6.81357 22.0875 6.87829 22.1929 6.94293C22.3502 7.0394 22.5071 7.13638 22.6641 7.2334C22.7122 7.26286 22.7604 7.29231 22.81 7.32266C22.8542 7.35007 22.8983 7.37747 22.9438 7.4057C22.9827 7.42965 23.0216 7.4536 23.0617 7.47827C23.1562 7.54688 23.1562 7.54688 23.25 7.6875C23.2619 7.80334 23.2619 7.80334 23.2621 7.9444C23.2624 7.99812 23.2627 8.05184 23.263 8.10719C23.2628 8.19612 23.2628 8.19612 23.2625 8.28684C23.2627 8.35025 23.2629 8.41366 23.2632 8.47706C23.2638 8.65168 23.2637 8.8263 23.2636 9.00092C23.2636 9.1891 23.2641 9.37727 23.2646 9.56544C23.2654 9.93424 23.2656 10.303 23.2657 10.6718C23.2657 10.9715 23.2659 11.2712 23.2662 11.5708C23.267 12.4199 23.2675 13.2689 23.2674 14.1179C23.2674 14.1637 23.2674 14.2095 23.2674 14.2567C23.2674 14.3026 23.2674 14.3484 23.2674 14.3957C23.2673 15.1391 23.2682 15.8825 23.2695 16.6259C23.2709 17.3887 23.2715 18.1514 23.2715 18.9142C23.2714 19.3427 23.2717 19.7711 23.2727 20.1996C23.2735 20.5643 23.2738 20.9291 23.2731 21.2938C23.2728 21.48 23.2728 21.6662 23.2736 21.8524C23.2743 22.0227 23.2742 22.193 23.2734 22.3634C23.2732 22.4544 23.2739 22.5455 23.2746 22.6365C23.2742 22.6904 23.2738 22.7442 23.2733 22.7997C23.2734 22.8695 23.2734 22.8695 23.2734 22.9408C23.242 23.1041 23.1998 23.1561 23.0625 23.25C22.9335 23.2684 22.8233 23.2752 22.6944 23.2736C22.6381 23.274 22.6381 23.274 22.5807 23.2744C22.4542 23.2751 22.3278 23.2745 22.2013 23.2738C22.11 23.274 22.0187 23.2743 21.9274 23.2747C21.6759 23.2755 21.4244 23.2751 21.173 23.2745C20.902 23.2741 20.631 23.2747 20.3601 23.2753C19.829 23.2761 19.298 23.2759 18.7669 23.2754C18.3354 23.2749 17.904 23.2749 17.4725 23.2751C17.4112 23.2751 17.3498 23.2751 17.2866 23.2752C17.1621 23.2752 17.0375 23.2753 16.9129 23.2754C15.7772 23.2759 14.6415 23.2753 13.5058 23.2744C12.4686 23.2735 11.4314 23.2735 10.3942 23.2744C9.2294 23.2754 8.06464 23.2758 6.89987 23.2753C6.77575 23.2752 6.65163 23.2751 6.52752 23.2751C6.4359 23.275 6.4359 23.275 6.34244 23.275C5.91131 23.2748 5.48018 23.2751 5.04905 23.2756C4.52391 23.2761 3.99876 23.2759 3.47362 23.2749C3.20549 23.2744 2.93738 23.2743 2.66926 23.2749C2.42407 23.2754 2.1789 23.2751 1.93371 23.2741C1.84476 23.2739 1.7558 23.274 1.66685 23.2745C1.54641 23.275 1.42602 23.2745 1.30558 23.2736C1.25316 23.2743 1.25316 23.2743 1.19967 23.2749C1.0444 23.2727 0.951661 23.2597 0.822228 23.1712C0.733045 23.037 0.726466 22.9605 0.726274 22.8C0.725756 22.7462 0.725238 22.6924 0.724704 22.637C0.725091 22.5779 0.725477 22.5187 0.725875 22.4578C0.725626 22.3944 0.725295 22.331 0.724889 22.2676C0.724013 22.0932 0.724312 21.9188 0.724802 21.7443C0.725129 21.5563 0.72438 21.3682 0.723771 21.1802C0.722755 20.8117 0.722762 20.4433 0.723144 20.0748C0.723439 19.7754 0.723386 19.476 0.723084 19.1765C0.723042 19.134 0.723 19.0914 0.722956 19.0475C0.722869 18.961 0.722782 18.8745 0.722694 18.788C0.721917 17.9765 0.722326 17.165 0.723116 16.3535C0.723805 15.6107 0.723119 14.8679 0.721767 14.1252C0.72039 13.3629 0.719875 12.6006 0.720323 11.8383C0.720371 11.7521 0.720417 11.6659 0.720462 11.5797C0.720484 11.5373 0.720507 11.4949 0.72053 11.4512C0.720632 11.1521 0.720171 10.853 0.719489 10.5539C0.718668 10.1895 0.718671 9.82504 0.71974 9.46058C0.720263 9.27457 0.720408 9.08858 0.719538 8.90256C0.718752 8.73234 0.719045 8.56214 0.720204 8.39192C0.720542 8.30104 0.719726 8.21016 0.718872 8.11929C0.723621 7.67965 0.723621 7.67965 0.86287 7.53648C0.902966 7.50897 0.943063 7.48147 0.984375 7.45313C1.01689 7.43025 1.04941 7.40738 1.08291 7.38381C1.13148 7.35567 1.13148 7.35567 1.18103 7.32697C1.21798 7.30525 1.25492 7.28353 1.29299 7.26115C1.35195 7.22711 1.35195 7.22711 1.41211 7.19238C1.49682 7.14255 1.58147 7.09262 1.66608 7.0426C1.73028 7.00469 1.73028 7.00469 1.79578 6.96602C1.98741 6.85144 2.17594 6.73222 2.36426 6.61231C2.67163 6.41693 2.98013 6.22356 3.29004 6.03223C3.64237 5.81468 3.99381 5.59579 4.34473 5.37598C4.79022 5.09704 5.23745 4.82102 5.68537 4.54599C6.0256 4.3369 6.36473 4.12612 6.70312 3.91406C7.09261 3.66999 7.48331 3.42801 7.875 3.1875C8.31867 2.91506 8.7609 2.64043 9.20215 2.36408C9.54071 2.15208 9.88012 1.94148 10.22 1.73155C10.6011 1.49589 10.981 1.25817 11.3606 1.01999C11.4287 0.977345 11.4287 0.977345 11.4981 0.933839C11.5587 0.895839 11.5587 0.895839 11.6205 0.857072C11.8095 0.74128 11.9681 0.715715 12.1875 0.750001ZM11.7612 1.71094C11.7213 1.73668 11.6814 1.76241 11.6402 1.78893C11.5965 1.81733 11.5528 1.84574 11.5078 1.875C11.114 2.12845 10.7177 2.37741 10.3184 2.62207C9.92465 2.86346 9.53192 3.10628 9.14062 3.35156C8.75115 3.59564 8.36044 3.83762 7.96875 4.07813C7.38867 4.43439 6.8112 4.79474 6.23438 5.15625C5.60645 5.54979 4.97736 5.94126 4.34585 6.32903C3.95989 6.56622 3.57551 6.80584 3.1917 7.04647C2.9371 7.20591 2.68193 7.36437 2.42596 7.52161C2.39772 7.53896 2.36949 7.5563 2.34039 7.57418C2.20269 7.65873 2.06493 7.74317 1.92709 7.82749C1.87806 7.85755 1.82902 7.88761 1.7785 7.91858C1.71302 7.95863 1.71302 7.95863 1.64622 7.99949C1.55141 8.05455 1.55141 8.05455 1.5 8.10938C1.49545 8.1861 1.4942 8.26303 1.49423 8.33989C1.49414 8.39011 1.49405 8.44033 1.49395 8.49207C1.49409 8.54793 1.49422 8.60379 1.49436 8.66134C1.49432 8.72014 1.49428 8.77895 1.49424 8.83953C1.49414 9.0035 1.49433 9.16747 1.49456 9.33144C1.49476 9.50798 1.49469 9.68452 1.49466 9.86107C1.49463 10.1672 1.49478 10.4733 1.49504 10.7794C1.49542 11.222 1.49555 11.6646 1.49561 12.1072C1.49571 12.8252 1.49602 13.5432 1.49646 14.2613C1.49689 14.9589 1.49723 15.6566 1.49743 16.3542C1.49744 16.3972 1.49745 16.4402 1.49746 16.4845C1.49752 16.7 1.49758 16.9156 1.49764 17.1312C1.49813 18.9208 1.49897 20.7104 1.5 22.5C1.995 22.5 2.49 22.5 3 22.5C3 18.54 3 14.58 3 10.5C2.81437 10.4845 2.62875 10.4691 2.4375 10.4531C2.27716 10.2928 2.27994 10.2322 2.27734 10.0143C2.27776 9.95453 2.27776 9.95453 2.2782 9.89356C2.27806 9.85247 2.27793 9.81139 2.27779 9.76906C2.27769 9.68221 2.27795 9.59537 2.27854 9.50853C2.27929 9.3755 2.27855 9.24253 2.27765 9.1095C2.27774 9.02515 2.27792 8.9408 2.2782 8.85645C2.27791 8.8166 2.27763 8.77675 2.27734 8.7357C2.2806 8.46294 2.2806 8.46294 2.3486 8.35668C2.48249 8.26661 2.59279 8.27924 2.75309 8.27918C2.7855 8.27898 2.81791 8.27877 2.85131 8.27856C2.96072 8.27804 3.07011 8.27854 3.17952 8.27902C3.25843 8.27886 3.33734 8.27863 3.41625 8.27835C3.63372 8.27777 3.85118 8.27806 4.06865 8.27849C4.30293 8.27881 4.53721 8.27832 4.77149 8.27793C5.2307 8.27731 5.6899 8.27744 6.14911 8.27785C6.52219 8.27817 6.89527 8.27821 7.26835 8.27806C7.32137 8.27804 7.37438 8.27801 7.42901 8.27799C7.53671 8.27795 7.6444 8.2779 7.75209 8.27786C8.76287 8.27745 9.77365 8.27792 10.7844 8.27867C11.6525 8.2793 12.5205 8.27919 13.3885 8.27854C14.3956 8.27779 15.4027 8.27749 16.4097 8.27793C16.517 8.27797 16.6243 8.27801 16.7317 8.27806C16.7845 8.27808 16.8373 8.2781 16.8917 8.27812C17.2645 8.27825 17.6373 8.27804 18.0101 8.27771C18.4641 8.27732 18.9182 8.27742 19.3723 8.27817C19.6041 8.27854 19.836 8.27868 20.0678 8.27822C20.2798 8.2778 20.4918 8.27803 20.7038 8.27878C20.7807 8.27894 20.8577 8.27885 20.9346 8.27852C21.0387 8.27809 21.1428 8.27852 21.2469 8.27918C21.3339 8.27921 21.3339 8.27921 21.4226 8.27925C21.5625 8.29688 21.5625 8.29688 21.6514 8.35668C21.7465 8.50532 21.723 8.68529 21.7218 8.85645C21.7219 8.89753 21.7221 8.93862 21.7222 8.98095C21.7223 9.06779 21.722 9.15463 21.7215 9.24147C21.7207 9.37451 21.7215 9.50747 21.7224 9.6405C21.7223 9.72485 21.7221 9.80921 21.7218 9.89356C21.7221 9.9334 21.7224 9.97325 21.7227 10.0143C21.7193 10.2963 21.7193 10.2963 21.5625 10.4531C21.3769 10.4686 21.1912 10.4841 21 10.5C21 14.46 21 18.42 21 22.5C21.495 22.5 21.99 22.5 22.5 22.5C22.5233 20.6779 22.5418 18.8559 22.5527 17.0337C22.554 16.8183 22.5553 16.603 22.5566 16.3877C22.5569 16.3448 22.5572 16.302 22.5575 16.2578C22.562 15.5645 22.5701 14.8713 22.5796 14.1781C22.5892 13.4663 22.5949 12.7545 22.597 12.0427C22.5984 11.6037 22.6029 11.1649 22.6113 10.726C22.6168 10.4246 22.6184 10.1234 22.617 9.82195C22.6164 9.64816 22.6174 9.4748 22.6229 9.30108C22.6664 8.603 22.6664 8.603 22.3985 7.99013C22.1529 7.78228 21.8827 7.63897 21.59 7.50862C21.4299 7.43537 21.2882 7.34594 21.141 7.2497C21.0491 7.19341 20.9572 7.13719 20.8652 7.08106C20.4715 6.83973 20.0788 6.59684 19.6875 6.35156C19.298 6.10749 18.9073 5.86551 18.5156 5.625C18.072 5.35256 17.6297 5.07793 17.1885 4.80158C16.8892 4.6142 16.5894 4.42777 16.2891 4.24219C15.9416 4.02753 15.5951 3.81149 15.249 3.59473C14.8546 3.34778 14.459 3.10288 14.0625 2.85938C13.6514 2.6069 13.2412 2.35319 12.832 2.09766C12.7854 2.06859 12.7389 2.03953 12.6909 2.00958C12.5127 1.89812 12.335 1.78696 12.1619 1.66773C11.9825 1.55232 11.9293 1.60172 11.7612 1.71094ZM3 9C3 9.2475 3 9.495 3 9.75C8.94 9.75 14.88 9.75 21 9.75C21 9.5025 21 9.255 21 9C15.06 9 9.12 9 3 9ZM3.75 10.5C3.75 14.46 3.75 18.42 3.75 22.5C9.195 22.5 14.64 22.5 20.25 22.5C20.25 18.54 20.25 14.58 20.25 10.5C14.805 10.5 9.36 10.5 3.75 10.5Z" fill="#D62828"/>
<path d="M8.85938 11.3438C9.00203 11.4074 9.09952 11.479 9.20874 11.5902C9.23774 11.6195 9.26675 11.6488 9.29663 11.679C9.32636 11.7095 9.35609 11.74 9.38672 11.7715C9.4324 11.8178 9.4324 11.8178 9.479 11.8651C9.55393 11.9411 9.62862 12.0173 9.70312 12.0938C9.84578 12.0301 9.94327 11.9585 10.0525 11.8473C10.0815 11.818 10.1105 11.7887 10.1404 11.7585C10.185 11.7127 10.185 11.7127 10.2305 11.666C10.2609 11.6351 10.2914 11.6043 10.3228 11.5724C10.3977 11.4964 10.4724 11.4202 10.5469 11.3438C10.7172 11.4232 10.8256 11.519 10.957 11.6543C11.0132 11.7118 11.0132 11.7118 11.0706 11.7704C11.0988 11.7998 11.1271 11.8291 11.1562 11.8594C11.0866 12.0255 10.9935 12.1207 10.8602 12.2402C10.8205 12.2773 10.7808 12.3143 10.74 12.3525C10.6568 12.4294 10.5728 12.5055 10.488 12.5806C10.2635 12.7933 10.1471 12.9332 10.1208 13.248C10.1202 13.332 10.1208 13.4161 10.125 13.5C10.2488 13.5 10.3725 13.5 10.5 13.5C10.5 13.7475 10.5 13.995 10.5 14.25C10.3762 14.25 10.2525 14.25 10.125 14.25C10.125 14.513 10.125 14.7759 10.125 15.0469C10.2178 15.0623 10.3106 15.0778 10.4062 15.0938C10.4759 15.117 10.4759 15.117 10.5469 15.1406C10.6861 15.0014 10.8253 14.8622 10.9688 14.7188C10.9378 14.6569 10.9069 14.595 10.875 14.5312C10.8441 14.4694 10.8131 14.4075 10.7812 14.3438C10.9514 14.1736 11.1216 14.0034 11.2969 13.8281C11.4219 13.8906 11.5469 13.9531 11.6719 14.0156C11.8556 13.8865 11.9395 13.8087 11.9807 13.5837C11.9913 13.4013 11.9946 13.2198 11.9941 13.0371C11.995 12.9729 11.996 12.9087 11.9971 12.8445C11.9993 12.688 11.9998 12.5315 12 12.375C12.2475 12.375 12.495 12.375 12.75 12.375C12.75 12.7463 12.75 13.1175 12.75 13.5C13.1213 13.5 13.4925 13.5 13.875 13.5C13.875 13.7475 13.875 13.995 13.875 14.25C13.7841 14.2496 13.6931 14.2492 13.5994 14.2487C13.4794 14.25 13.3593 14.2514 13.2393 14.2529C13.1495 14.2522 13.1495 14.2522 13.0579 14.2514C12.6687 14.2548 12.6687 14.2548 12.3561 14.4637C12.2845 14.5497 12.2845 14.5497 12.2344 14.625C12.2962 14.7023 12.3581 14.7797 12.4219 14.8594C12.3499 15.0319 12.2446 15.1401 12.1113 15.2695C12.073 15.307 12.0347 15.3445 11.9952 15.3831C11.9659 15.4113 11.9365 15.4396 11.9062 15.4688C11.7894 15.4123 11.6868 15.3537 11.5781 15.2812C11.2847 15.5057 11.2847 15.5057 11.1387 15.8251C11.1523 15.9533 11.1523 15.9533 11.2031 16.125C11.4661 16.125 11.7291 16.125 12 16.125C12 16.0012 12 15.8775 12 15.75C12.2475 15.75 12.495 15.75 12.75 15.75C12.75 15.8738 12.75 15.9975 12.75 16.125C13.0139 16.1431 13.2291 16.136 13.4512 15.982C13.5871 15.8542 13.7147 15.7211 13.8398 15.583C13.8846 15.5357 13.9294 15.4885 13.9744 15.4414C14.0832 15.3266 14.1905 15.2108 14.2969 15.0938C14.4672 15.1732 14.5756 15.269 14.707 15.4043C14.7445 15.4426 14.782 15.4809 14.8206 15.5204C14.8488 15.5498 14.8771 15.5791 14.9062 15.6094C14.8426 15.752 14.771 15.8495 14.6598 15.9587C14.6305 15.9877 14.6012 16.0167 14.571 16.0466C14.5252 16.0912 14.5252 16.0912 14.4785 16.1367C14.4476 16.1672 14.4168 16.1976 14.3849 16.229C14.3089 16.3039 14.2327 16.3786 14.1562 16.4531C14.2199 16.5958 14.2915 16.6933 14.4027 16.8025C14.432 16.8315 14.4613 16.8605 14.4915 16.8904C14.522 16.9201 14.5525 16.9498 14.584 16.9805C14.6149 17.0109 14.6457 17.0414 14.6776 17.0728C14.7536 17.1477 14.8298 17.2224 14.9062 17.2969C14.8268 17.4672 14.731 17.5756 14.5957 17.707C14.5382 17.7632 14.5382 17.7632 14.4796 17.8206C14.4502 17.8488 14.4209 17.8771 14.3906 17.9062C14.2245 17.8366 14.1293 17.7435 14.0098 17.6102C13.9727 17.5705 13.9357 17.5308 13.8975 17.49C13.8206 17.4068 13.7445 17.3228 13.6694 17.238C13.4567 17.0135 13.3168 16.8971 13.002 16.8708C12.918 16.8702 12.8339 16.8708 12.75 16.875C12.75 16.9988 12.75 17.1225 12.75 17.25C12.5025 17.25 12.255 17.25 12 17.25C12 17.1262 12 17.0025 12 16.875C11.737 16.875 11.4741 16.875 11.2031 16.875C11.1877 16.9678 11.1722 17.0606 11.1562 17.1562C11.1408 17.2027 11.1253 17.2491 11.1094 17.2969C11.2486 17.4361 11.3878 17.5753 11.5312 17.7188C11.5931 17.6878 11.655 17.6569 11.7188 17.625C11.7806 17.5941 11.8425 17.5631 11.9062 17.5312C12.0764 17.7014 12.2466 17.8716 12.4219 18.0469C12.3594 18.1719 12.2969 18.2969 12.2344 18.4219C12.3635 18.6056 12.4413 18.6895 12.6663 18.7307C12.8487 18.7413 13.0302 18.7446 13.2129 18.7441C13.2771 18.745 13.3413 18.746 13.4055 18.7471C13.562 18.7493 13.7185 18.7498 13.875 18.75C13.875 18.9975 13.875 19.245 13.875 19.5C13.5037 19.5 13.1325 19.5 12.75 19.5C12.75 19.8713 12.75 20.2425 12.75 20.625C12.5025 20.625 12.255 20.625 12 20.625C12.0004 20.5341 12.0008 20.4431 12.0013 20.3494C12 20.2294 11.9986 20.1093 11.9971 19.9893C11.9978 19.8995 11.9978 19.8995 11.9986 19.8079C11.9952 19.4187 11.9952 19.4187 11.7863 19.1061C11.7003 19.0345 11.7003 19.0345 11.625 18.9844C11.509 19.0772 11.509 19.0772 11.3906 19.1719C11.2181 19.0999 11.1099 18.9946 10.9805 18.8613C10.9243 18.8039 10.9243 18.8039 10.8669 18.7452C10.8387 18.7159 10.8104 18.6865 10.7812 18.6562C10.8377 18.5394 10.8963 18.4368 10.9688 18.3281C10.7443 18.0347 10.7443 18.0347 10.4249 17.8887C10.2967 17.9023 10.2967 17.9023 10.125 17.9531C10.125 18.2161 10.125 18.4791 10.125 18.75C10.2488 18.75 10.3725 18.75 10.5 18.75C10.5 18.9975 10.5 19.245 10.5 19.5C10.3762 19.5 10.2525 19.5 10.125 19.5C10.1069 19.7639 10.114 19.9791 10.268 20.2012C10.3958 20.3371 10.5289 20.4647 10.667 20.5898C10.7143 20.6346 10.7615 20.6794 10.8086 20.7244C10.9234 20.8332 11.0392 20.9405 11.1562 21.0469C11.0768 21.2172 10.981 21.3256 10.8457 21.457C10.7882 21.5132 10.7882 21.5132 10.7296 21.5706C10.7002 21.5988 10.6709 21.6271 10.6406 21.6562C10.498 21.5926 10.4005 21.521 10.2913 21.4098C10.2623 21.3805 10.2333 21.3512 10.2034 21.321C10.1588 21.2752 10.1588 21.2752 10.1133 21.2285C10.0828 21.1976 10.0524 21.1668 10.021 21.1349C9.94607 21.0589 9.87138 20.9827 9.79688 20.9062C9.65422 20.9699 9.55673 21.0415 9.44751 21.1527C9.41851 21.182 9.3895 21.2113 9.35962 21.2415C9.32989 21.272 9.30016 21.3025 9.26953 21.334C9.23908 21.3649 9.20862 21.3957 9.17725 21.4276C9.10232 21.5036 9.02763 21.5798 8.95312 21.6562C8.78283 21.5768 8.67443 21.481 8.54297 21.3457C8.50551 21.3074 8.46804 21.2691 8.42944 21.2296C8.40116 21.2002 8.37289 21.1709 8.34375 21.1406C8.41337 20.9745 8.50648 20.8793 8.63983 20.7598C8.6795 20.7227 8.71917 20.6857 8.76004 20.6475C8.84321 20.5706 8.9272 20.4945 9.01199 20.4194C9.23649 20.2067 9.3529 20.0668 9.37921 19.752C9.37984 19.668 9.37917 19.5839 9.375 19.5C9.25125 19.5 9.1275 19.5 9 19.5C9 19.2525 9 19.005 9 18.75C9.12375 18.75 9.2475 18.75 9.375 18.75C9.375 18.487 9.375 18.2241 9.375 17.9531C9.28219 17.9377 9.18937 17.9222 9.09375 17.9062C9.04734 17.8908 9.00094 17.8753 8.95312 17.8594C8.81391 17.9986 8.67469 18.1378 8.53125 18.2812C8.56219 18.3431 8.59313 18.405 8.625 18.4688C8.65594 18.5306 8.68687 18.5925 8.71875 18.6562C8.54859 18.8264 8.37844 18.9966 8.20312 19.1719C8.07812 19.1094 7.95312 19.0469 7.82812 18.9844C7.64436 19.1135 7.5605 19.1913 7.51927 19.4163C7.50868 19.5987 7.50542 19.7802 7.50586 19.9629C7.50501 20.0271 7.50403 20.0913 7.50293 20.1555C7.50073 20.312 7.5002 20.4685 7.5 20.625C7.2525 20.625 7.005 20.625 6.75 20.625C6.75 20.2537 6.75 19.8825 6.75 19.5C6.37875 19.5 6.0075 19.5 5.625 19.5C5.625 19.2525 5.625 19.005 5.625 18.75C5.71594 18.7504 5.80688 18.7508 5.90057 18.7513C6.02063 18.75 6.14069 18.7486 6.26074 18.7471C6.32059 18.7476 6.38044 18.7481 6.44211 18.7486C6.83129 18.7452 6.83129 18.7452 7.14386 18.5363C7.21554 18.4503 7.21554 18.4503 7.26562 18.375C7.17281 18.259 7.17281 18.259 7.07812 18.1406C7.15015 17.9681 7.25538 17.8599 7.38867 17.7305C7.44614 17.6743 7.44614 17.6743 7.50476 17.6169C7.53413 17.5887 7.56349 17.5604 7.59375 17.5312C7.71064 17.5877 7.81319 17.6463 7.92188 17.7188C8.21535 17.4943 8.21535 17.4943 8.36133 17.1749C8.34771 17.0467 8.34771 17.0467 8.29688 16.875C8.03391 16.875 7.77094 16.875 7.5 16.875C7.5 16.9988 7.5 17.1225 7.5 17.25C7.2525 17.25 7.005 17.25 6.75 17.25C6.75 17.1262 6.75 17.0025 6.75 16.875C6.48613 16.8569 6.27093 16.864 6.0488 17.018C5.91293 17.1458 5.78529 17.2789 5.66016 17.417C5.61542 17.4643 5.57056 17.5115 5.52557 17.5586C5.41682 17.6734 5.30946 17.7892 5.20312 17.9062C5.03283 17.8268 4.92443 17.731 4.79297 17.5957C4.73677 17.5382 4.73677 17.5382 4.67944 17.4796C4.65116 17.4502 4.62289 17.4209 4.59375 17.3906C4.65743 17.248 4.72897 17.1505 4.84021 17.0413C4.86952 17.0123 4.89882 16.9833 4.92902 16.9534C4.95953 16.9236 4.99005 16.8939 5.02148 16.8633C5.0678 16.8176 5.0678 16.8176 5.11505 16.771C5.19108 16.6961 5.26731 16.6214 5.34375 16.5469C5.28007 16.4042 5.20853 16.3067 5.09729 16.1975C5.06798 16.1685 5.03868 16.1395 5.00848 16.1096C4.96271 16.065 4.96271 16.065 4.91602 16.0195C4.88514 15.9891 4.85426 15.9586 4.82245 15.9272C4.74642 15.8523 4.67019 15.7776 4.59375 15.7031C4.67324 15.5328 4.76897 15.4244 4.9043 15.293C4.94261 15.2555 4.98092 15.218 5.02039 15.1794C5.04975 15.1512 5.07912 15.1229 5.10938 15.0938C5.27547 15.1634 5.37066 15.2565 5.49023 15.3898C5.54579 15.4493 5.54579 15.4493 5.60248 15.51C5.67941 15.5932 5.75548 15.6772 5.83063 15.762C6.0433 15.9865 6.18322 16.1029 6.49805 16.1292C6.58204 16.1298 6.66611 16.1292 6.75 16.125C6.75 16.0012 6.75 15.8775 6.75 15.75C6.9975 15.75 7.245 15.75 7.5 15.75C7.5 15.8738 7.5 15.9975 7.5 16.125C7.76297 16.125 8.02594 16.125 8.29688 16.125C8.31234 16.0322 8.32781 15.9394 8.34375 15.8438C8.36695 15.7741 8.36695 15.7741 8.39062 15.7031C8.25141 15.5639 8.11219 15.4247 7.96875 15.2812C7.87594 15.3277 7.87594 15.3277 7.78125 15.375C7.68844 15.4214 7.68844 15.4214 7.59375 15.4688C7.42359 15.2986 7.25344 15.1284 7.07812 14.9531C7.14062 14.8281 7.20312 14.7031 7.26562 14.5781C7.13646 14.3944 7.05875 14.3105 6.83372 14.2693C6.65128 14.2587 6.46977 14.2554 6.28711 14.2559C6.2229 14.255 6.15869 14.254 6.09448 14.2529C5.938 14.2507 5.7815 14.2502 5.625 14.25C5.625 14.0025 5.625 13.755 5.625 13.5C5.99625 13.5 6.3675 13.5 6.75 13.5C6.75 13.1287 6.75 12.7575 6.75 12.375C6.9975 12.375 7.245 12.375 7.5 12.375C7.49958 12.4659 7.49915 12.5569 7.49872 12.6506C7.50004 12.7706 7.50145 12.8907 7.50293 13.0107C7.50216 13.1005 7.50216 13.1005 7.50137 13.1921C7.50483 13.5813 7.50483 13.5813 7.71368 13.8939C7.79965 13.9655 7.79965 13.9655 7.875 14.0156C7.95234 13.9537 8.02969 13.8919 8.10938 13.8281C8.28191 13.9001 8.39005 14.0054 8.51953 14.1387C8.55699 14.177 8.59446 14.2153 8.63306 14.2548C8.66134 14.2841 8.68961 14.3135 8.71875 14.3438C8.66232 14.4606 8.60371 14.5632 8.53125 14.6719C8.75567 14.9653 8.75567 14.9653 9.07507 15.1113C9.20333 15.0977 9.20333 15.0977 9.375 15.0469C9.375 14.7839 9.375 14.5209 9.375 14.25C9.25125 14.25 9.1275 14.25 9 14.25C9 14.0025 9 13.755 9 13.5C9.12375 13.5 9.2475 13.5 9.375 13.5C9.39306 13.2361 9.38596 13.0209 9.23197 12.7988C9.10416 12.6629 8.97112 12.5353 8.83301 12.4102C8.78568 12.3654 8.73847 12.3206 8.69138 12.2756C8.57658 12.1668 8.46077 12.0595 8.34375 11.9531C8.42324 11.7828 8.51897 11.6744 8.6543 11.543C8.69261 11.5055 8.73092 11.468 8.77039 11.4294C8.79975 11.4012 8.82912 11.3729 8.85938 11.3438ZM9.12305 16.1074C9.01973 16.322 9.00951 16.5003 9.04688 16.7344C9.15608 16.9612 9.28882 17.0939 9.51562 17.2031C9.74974 17.2405 9.928 17.2303 10.1426 17.127C10.3106 16.9749 10.4342 16.8532 10.4711 16.6219C10.4831 16.3555 10.4501 16.1883 10.2656 15.9844C10.0617 15.7999 9.89448 15.7669 9.62805 15.7789C9.39679 15.8158 9.27505 15.9394 9.12305 16.1074Z" fill="#D62828"/>
<path d="M17.4111 11.3203C17.6885 11.4879 17.897 11.7412 18 12.0469C18.0114 12.1796 18.0114 12.1796 18.0108 12.3276C18.0109 12.384 18.0109 12.4403 18.011 12.4983C18.0106 12.5597 18.0102 12.6211 18.0097 12.6843C18.0096 12.75 18.0096 12.8156 18.0096 12.8812C18.0095 13.0223 18.0091 13.1634 18.0086 13.3045C18.0078 13.5276 18.0079 13.7508 18.0083 13.974C18.0092 14.6086 18.0095 15.2432 18.0072 15.8778C18.006 16.2284 18.006 16.5791 18.0072 16.9297C18.0078 17.1152 18.0078 17.3006 18.0064 17.486C18.005 17.6605 18.0052 17.8348 18.0065 18.0093C18.0068 18.1036 18.0055 18.1979 18.0041 18.2922C18 18.5885 18 18.5885 18.1198 18.8487C18.2016 18.919 18.2835 18.9748 18.375 19.0313C18.4716 19.1479 18.5408 19.2714 18.6094 19.4062C18.6244 19.4353 18.6395 19.4644 18.655 19.4943C18.835 19.9222 18.8195 20.5199 18.6768 20.9561C18.4602 21.4505 18.0755 21.8352 17.5811 22.0518C17.1053 22.2063 16.509 22.2007 16.0494 21.9994C15.5751 21.737 15.2005 21.3477 15.0309 20.8259C14.9182 20.2647 14.9463 19.6791 15.2664 19.1926C15.471 18.9176 15.471 18.9176 15.6132 18.8316C15.7145 18.7561 15.7145 18.7561 15.7264 18.6291C15.7263 18.5802 15.7263 18.5314 15.7262 18.4811C15.7266 18.4251 15.727 18.369 15.7273 18.3113C15.7268 18.2497 15.7263 18.1881 15.7257 18.1247C15.7258 18.0592 15.726 17.9938 15.7263 17.9283C15.7267 17.7873 15.7265 17.6462 15.7259 17.5052C15.7249 17.282 15.7254 17.0588 15.7261 16.8356C15.7275 16.3212 15.727 15.8067 15.7264 15.2923C15.726 14.8215 15.7259 14.3506 15.7274 13.8798C15.728 13.6581 15.7277 13.4365 15.7267 13.2148C15.7263 13.0765 15.7267 12.9382 15.7272 12.7999C15.7274 12.7057 15.7266 12.6116 15.7258 12.5174C15.7284 12.1301 15.7671 11.8663 16.0296 11.5668C16.0601 11.5415 16.0906 11.5163 16.1221 11.4902C16.1525 11.4643 16.1829 11.4383 16.2142 11.4115C16.5453 11.1833 17.0434 11.1574 17.4111 11.3203ZM16.626 12.1318C16.4949 12.3017 16.4945 12.4391 16.4961 12.6468C16.4963 12.7035 16.4966 12.7602 16.4969 12.8186C16.4975 12.8816 16.498 12.9445 16.4986 13.0075C16.499 13.0737 16.4993 13.1399 16.4997 13.2061C16.5002 13.312 16.5008 13.4179 16.5014 13.5238C16.5031 13.7866 16.5038 14.0494 16.504 14.3123C16.5041 14.3504 16.5041 14.3886 16.5042 14.4279C16.5043 14.5854 16.5044 14.7428 16.5045 14.9003C16.5047 15.347 16.5058 15.7936 16.5095 16.2403C16.5124 16.5952 16.5134 16.95 16.5123 17.3049C16.5118 17.4926 16.5123 17.6802 16.5149 17.8679C16.5174 18.0447 16.5174 18.2214 16.5156 18.3982C16.5152 18.4934 16.5174 18.5886 16.5197 18.6838C16.5151 18.9436 16.5063 19.1072 16.3378 19.3122C16.2482 19.3975 16.1566 19.4704 16.0581 19.5464C15.8853 19.6814 15.8448 19.7548 15.7969 19.9688C15.7596 20.3225 15.7747 20.6113 15.9844 20.9062C16.1848 21.1512 16.4146 21.3043 16.7298 21.3463C17.0357 21.3574 17.2849 21.3308 17.5312 21.1406C17.7594 20.9242 17.9308 20.7192 17.9689 20.3985C17.973 20.0866 17.9612 19.8447 17.7656 19.5938C17.6865 19.5331 17.6069 19.473 17.527 19.4134C17.3312 19.2386 17.2626 19.1272 17.2397 18.865C17.2379 18.7448 17.2387 18.6246 17.2416 18.5045C17.2415 18.4379 17.2412 18.3714 17.2407 18.3048C17.2399 18.1251 17.242 17.9455 17.2445 17.7659C17.2467 17.5774 17.246 17.3889 17.2457 17.2004C17.2454 16.8437 17.2473 16.4869 17.2502 16.1302C17.2553 15.4911 17.2563 14.852 17.2568 14.2129C17.257 13.9888 17.2582 13.7647 17.2602 13.5406C17.2613 13.4011 17.2619 13.2617 17.2623 13.1223C17.2627 13.0578 17.2632 12.9933 17.2641 12.9288C17.2652 12.8405 17.2654 12.7523 17.2655 12.664C17.2659 12.6147 17.2663 12.5654 17.2667 12.5146C17.2469 12.3489 17.1948 12.2363 17.1094 12.0938C16.9315 12.0048 16.7825 12.0092 16.626 12.1318Z" fill="#D62828"/>
<path d="M9.42233 4.47619C9.46965 4.47566 9.51696 4.47513 9.56571 4.47459C9.61734 4.47497 9.66897 4.47535 9.72217 4.47574C9.77676 4.47541 9.83135 4.47508 9.88759 4.47474C10.0683 4.47392 10.249 4.47447 10.4297 4.4751C10.5551 4.47497 10.6805 4.47479 10.8059 4.47455C11.0688 4.47421 11.3317 4.47466 11.5946 4.47556C11.8985 4.47658 12.2023 4.47625 12.5062 4.47521C12.7672 4.47436 13.0282 4.47424 13.2892 4.47473C13.445 4.47503 13.6008 4.47499 13.7567 4.47445C13.9304 4.47397 14.1041 4.47469 14.2778 4.47574C14.3295 4.47536 14.3811 4.47498 14.4343 4.47459C14.5053 4.47538 14.5053 4.47538 14.5777 4.47619C14.6187 4.47626 14.6598 4.47633 14.7021 4.47641C14.849 4.5078 14.906 4.57312 15 4.6875C15.0238 4.77997 15.0238 4.77997 15.0243 4.87793C15.0249 4.91485 15.0254 4.95177 15.0261 4.98981C15.0257 5.02927 15.0253 5.06872 15.0249 5.10938C15.0251 5.15028 15.0253 5.19119 15.0254 5.23334C15.0256 5.3197 15.0252 5.40607 15.0244 5.49243C15.0234 5.62455 15.0244 5.75656 15.0256 5.88867C15.0255 5.97266 15.0253 6.05664 15.0249 6.14063C15.0253 6.18008 15.0257 6.21954 15.0261 6.26019C15.0252 6.31557 15.0252 6.31557 15.0243 6.37207C15.0241 6.4044 15.024 6.43673 15.0238 6.47003C14.9889 6.60567 14.9188 6.66105 14.8125 6.75C14.7021 6.7736 14.7021 6.7736 14.5777 6.77381C14.5303 6.77434 14.483 6.77487 14.4343 6.77541C14.3827 6.77503 14.331 6.77465 14.2778 6.77426C14.2232 6.77459 14.1687 6.77492 14.1124 6.77526C13.9317 6.77608 13.751 6.77554 13.5703 6.7749C13.4449 6.77503 13.3195 6.77521 13.1941 6.77545C12.9312 6.77579 12.6683 6.77534 12.4054 6.77445C12.1015 6.77343 11.7977 6.77376 11.4938 6.77479C11.2328 6.77564 10.9718 6.77576 10.7108 6.77527C10.555 6.77498 10.3992 6.77501 10.2433 6.77556C10.0696 6.77603 9.8959 6.77531 9.72217 6.77426C9.67054 6.77464 9.61891 6.77502 9.56571 6.77541C9.5184 6.77488 9.47108 6.77436 9.42233 6.77381C9.38127 6.77374 9.3402 6.77367 9.29789 6.7736C9.15101 6.7422 9.09399 6.67688 9 6.5625C8.97619 6.47003 8.97619 6.47003 8.97574 6.37207C8.97515 6.33515 8.97455 6.29823 8.97395 6.26019C8.97433 6.22074 8.9747 6.18128 8.9751 6.14063C8.97492 6.09972 8.97474 6.05881 8.97455 6.01666C8.97442 5.9303 8.97477 5.84393 8.97555 5.75757C8.97656 5.62545 8.97556 5.49345 8.97436 5.36133C8.97449 5.27734 8.97473 5.19336 8.9751 5.10938C8.97472 5.06992 8.97434 5.03046 8.97395 4.98981C8.97454 4.95289 8.97513 4.91597 8.97574 4.87793C8.97589 4.8456 8.97603 4.81328 8.97619 4.77997C9.03542 4.54995 9.2015 4.47657 9.42233 4.47619ZM9.75 5.25C9.75 5.4975 9.75 5.745 9.75 6C11.235 6 12.72 6 14.25 6C14.25 5.7525 14.25 5.505 14.25 5.25C12.765 5.25 11.28 5.25 9.75 5.25Z" fill="#D62828"/>
<path d="M10.875 3C11.6175 3 12.36 3 13.125 3C13.125 3.2475 13.125 3.495 13.125 3.75C12.3825 3.75 11.64 3.75 10.875 3.75C10.875 3.5025 10.875 3.255 10.875 3Z" fill="#D62828"/>
<path d="M16.5 19.875C16.7475 19.875 16.995 19.875 17.25 19.875C17.25 20.1225 17.25 20.37 17.25 20.625C17.0025 20.625 16.755 20.625 16.5 20.625C16.5 20.3775 16.5 20.13 16.5 19.875Z" fill="#D62828"/>
<path d="M18.75 16.875C18.9975 16.875 19.245 16.875 19.5 16.875C19.5 17.1225 19.5 17.37 19.5 17.625C19.2525 17.625 19.005 17.625 18.75 17.625C18.75 17.3775 18.75 17.13 18.75 16.875Z" fill="#D62828"/>
<path d="M18.75 15.375C18.9975 15.375 19.245 15.375 19.5 15.375C19.5 15.6225 19.5 15.87 19.5 16.125C19.2525 16.125 19.005 16.125 18.75 16.125C18.75 15.8775 18.75 15.63 18.75 15.375Z" fill="#D62828"/>
<path d="M18.75 13.875C18.9975 13.875 19.245 13.875 19.5 13.875C19.5 14.1225 19.5 14.37 19.5 14.625C19.2525 14.625 19.005 14.625 18.75 14.625C18.75 14.3775 18.75 14.13 18.75 13.875Z" fill="#D62828"/>
<path d="M18.75 12.375C18.9975 12.375 19.245 12.375 19.5 12.375C19.5 12.6225 19.5 12.87 19.5 13.125C19.2525 13.125 19.005 13.125 18.75 13.125C18.75 12.8775 18.75 12.63 18.75 12.375Z" fill="#D62828"/>
</g>
<defs>
<clipPath id="clip0_100_166">
<rect width="24" height="24" fill="white"/>
</clipPath>
</defs>
</svg>
