<svg width="24" height="23" viewBox="0 0 24 23" fill="none" xmlns="http://www.w3.org/2000/svg">
<g clip-path="url(#clip0_100_163)">
<path d="M10.8228 -0.0121209C10.9096 -0.0125638 10.9096 -0.0125638 10.9982 -0.0130157C11.0616 -0.0128481 11.125 -0.0126559 11.1885 -0.0124411C11.2533 -0.0125042 11.3181 -0.0125951 11.3829 -0.0127127C11.5187 -0.0128509 11.6546 -0.0126497 11.7905 -0.0122123C11.9648 -0.0116786 12.1392 -0.0119859 12.3135 -0.012547C12.4473 -0.0128852 12.5812 -0.012778 12.715 -0.0125351C12.7793 -0.0124725 12.8436 -0.0125496 12.9079 -0.0127674C12.9976 -0.0130047 13.0874 -0.0125789 13.1772 -0.0121209C13.2283 -0.0120463 13.2795 -0.0119718 13.3321 -0.011895C13.4531 1.64751e-06 13.4531 1.64751e-06 13.5469 0.093688C13.5575 0.216125 13.5575 0.216125 13.556 0.369258C13.5557 0.423905 13.5554 0.478552 13.5551 0.534856C13.5543 0.59216 13.5535 0.649464 13.5527 0.708505C13.5523 0.766171 13.5519 0.823838 13.5515 0.883252C13.5503 1.02605 13.5488 1.16882 13.5469 1.31161C13.6058 1.31063 13.6647 1.30965 13.7254 1.30864C13.9437 1.30525 14.162 1.3031 14.3803 1.30132C14.4748 1.30037 14.5694 1.2991 14.6639 1.29748C14.7997 1.29521 14.9354 1.29414 15.0712 1.29331C15.1347 1.29186 15.1347 1.29186 15.1995 1.29038C15.4889 1.29028 15.4889 1.29028 15.6129 1.38929C15.6664 1.52465 15.6722 1.62783 15.67 1.77346C15.6695 1.82569 15.6691 1.87792 15.6686 1.93173C15.6674 1.98602 15.6663 2.0403 15.665 2.09623C15.6644 2.15124 15.6638 2.20625 15.6631 2.26293C15.6615 2.39866 15.6591 2.53435 15.6562 2.67006C15.7171 2.66982 15.7779 2.66957 15.8405 2.66932C16.0653 2.66847 16.2901 2.66793 16.5148 2.66749C16.6123 2.66725 16.7097 2.66693 16.8072 2.66653C16.9469 2.66596 17.0866 2.6657 17.2264 2.66549C17.2922 2.66513 17.2922 2.66513 17.3593 2.66476C17.3996 2.66475 17.44 2.66475 17.4815 2.66474C17.5172 2.66464 17.5529 2.66454 17.5897 2.66443C17.6719 2.67006 17.6719 2.67006 17.7188 2.71691C17.7211 2.78031 17.7202 2.84383 17.718 2.90723C17.7168 2.94786 17.7157 2.9885 17.7145 3.03037C17.7132 3.07486 17.7119 3.11936 17.7105 3.16521C17.6656 4.62477 17.6656 4.62477 18.33 5.87937C18.4915 6.08426 18.6179 6.31018 18.75 6.53463C18.8038 6.62328 18.8578 6.71184 18.9119 6.80031C19.0286 6.99203 19.1453 7.1838 19.262 7.37561C19.292 7.42497 19.322 7.47433 19.353 7.52519C19.4107 7.62015 19.4685 7.71511 19.5262 7.8101C19.5521 7.8527 19.578 7.8953 19.6047 7.93919C19.6276 7.97673 19.6504 8.01428 19.6739 8.05296C19.7237 8.13342 19.7756 8.21254 19.8281 8.29124C19.8398 8.38018 19.8398 8.38018 19.8397 8.48265C19.8398 8.52176 19.84 8.56088 19.8402 8.60118C19.84 8.64415 19.8397 8.68712 19.8394 8.73139C19.8395 8.79986 19.8395 8.79986 19.8396 8.86971C19.8398 9.02335 19.8393 9.17698 19.8388 9.33061C19.8387 9.44047 19.8388 9.55033 19.8388 9.66019C19.8388 9.95904 19.8383 10.2579 19.8376 10.5567C19.8371 10.8372 19.837 11.1177 19.8369 11.3982C19.8367 11.9538 19.8361 12.5095 19.8352 13.0651C19.8343 13.6049 19.8337 14.1446 19.8333 14.6844C19.8333 14.7177 19.8332 14.7509 19.8332 14.7852C19.8331 14.9521 19.833 15.119 19.8328 15.2858C19.8319 16.6705 19.8302 18.0552 19.8281 19.4399C19.8568 19.4398 19.8855 19.4397 19.915 19.4396C20.2123 19.4386 20.5096 19.4379 20.8069 19.4373C20.918 19.4371 21.029 19.4368 21.1401 19.4364C21.2994 19.4358 21.4587 19.4356 21.618 19.4353C21.668 19.4351 21.718 19.4349 21.7695 19.4346C21.8385 19.4346 21.8385 19.4346 21.9088 19.4346C21.9495 19.4345 21.9902 19.4344 22.0322 19.4343C22.125 19.4399 22.125 19.4399 22.1719 19.4868C22.1759 19.5599 22.1769 19.6333 22.1765 19.7065C22.1763 19.7508 22.1762 19.795 22.176 19.8406C22.1756 19.8871 22.1752 19.9336 22.1748 19.9815C22.1746 20.0283 22.1744 20.075 22.1742 20.1231C22.1736 20.2389 22.1728 20.3547 22.1719 20.4705C22.2215 20.4694 22.2712 20.4683 22.3224 20.4672C22.3875 20.4663 22.4525 20.4654 22.5176 20.4646C22.5503 20.4638 22.5831 20.463 22.6168 20.4622C22.7029 20.4614 22.789 20.4656 22.875 20.4705C22.9688 20.5642 22.9688 20.5642 22.9794 20.6608C22.9789 20.6996 22.9784 20.7383 22.9779 20.7782C22.9776 20.8202 22.9773 20.8622 22.977 20.9054C22.9762 20.9493 22.9754 20.9932 22.9746 21.0384C22.9742 21.0827 22.9738 21.127 22.9733 21.1726C22.9722 21.2821 22.9707 21.3915 22.9688 21.501C22.995 21.5005 23.0212 21.5 23.0483 21.4995C23.1673 21.4976 23.2863 21.4964 23.4053 21.4952C23.4466 21.4944 23.4879 21.4936 23.5304 21.4928C23.5702 21.4925 23.6099 21.4922 23.6508 21.4919C23.6874 21.4914 23.724 21.4909 23.7617 21.4904C23.8594 21.501 23.8594 21.501 24 21.5947C24.0167 21.7293 24.0167 21.7293 24.0154 21.8994C24.015 21.9905 24.015 21.9905 24.0146 22.0835C24.0142 22.1152 24.0137 22.1469 24.0132 22.1796C24.0117 22.2766 24.0113 22.3737 24.011 22.4707C24.0072 22.946 24.0072 22.946 23.9531 23C23.8264 23.0047 23.7009 23.0063 23.5741 23.0059C23.5337 23.006 23.4933 23.006 23.4517 23.0061C23.3145 23.0063 23.1774 23.0061 23.0402 23.006C22.9416 23.006 22.843 23.0061 22.7444 23.0062C22.472 23.0064 22.1996 23.0063 21.9273 23.0061C21.6341 23.006 21.3409 23.0062 21.0477 23.0063C20.506 23.0065 19.9644 23.0065 19.4227 23.0064C18.9224 23.0062 18.4221 23.0062 17.9218 23.0063C17.8721 23.0063 17.8721 23.0063 17.8214 23.0063C17.6869 23.0063 17.5524 23.0063 17.4179 23.0063C16.1553 23.0065 14.8927 23.0063 13.6301 23.0061C12.5073 23.0059 11.3845 23.0059 10.2617 23.0061C9.00144 23.0064 7.74119 23.0065 6.48095 23.0063C6.34671 23.0063 6.21246 23.0063 6.07822 23.0063C6.04517 23.0063 6.01211 23.0063 5.97805 23.0063C5.47795 23.0062 4.97784 23.0063 4.47774 23.0064C3.90934 23.0065 3.34094 23.0065 2.77253 23.0062C2.48222 23.0061 2.1919 23.0061 1.90159 23.0062C1.63628 23.0064 1.37098 23.0063 1.10567 23.006C1.00924 23.006 0.912813 23.006 0.816383 23.0061C0.686209 23.0063 0.556038 23.0061 0.425865 23.0059C0.368539 23.0061 0.368539 23.0061 0.310055 23.0062C0.052226 23.0054 0.0522258 23.0054 0 22.9532C-0.0113281 22.7604 -0.0107106 22.5675 -0.011261 22.3744C-0.0117162 22.2774 -0.0131699 22.1805 -0.0146484 22.0835C-0.0148901 22.0228 -0.0151318 21.962 -0.0153809 21.8994C-0.0158189 21.8432 -0.016257 21.7871 -0.0167084 21.7293C-0.0111946 21.6849 -0.00568085 21.6405 0 21.5947C0.147804 21.4962 0.180986 21.4896 0.349182 21.4919C0.388911 21.4922 0.428641 21.4925 0.469574 21.4928C0.510874 21.4936 0.552175 21.4944 0.594727 21.4952C0.636571 21.4956 0.678415 21.496 0.721527 21.4964C0.824781 21.4975 0.928009 21.4991 1.03125 21.501C1.03076 21.4731 1.03027 21.4452 1.02976 21.4165C1.02782 21.2905 1.02659 21.1645 1.02539 21.0384C1.02461 20.9945 1.02382 20.9506 1.02301 20.9054C1.02271 20.8635 1.02241 20.8215 1.02209 20.7782C1.0216 20.7395 1.02111 20.7007 1.02061 20.6608C1.03125 20.5642 1.03125 20.5642 1.125 20.4705C1.24597 20.4637 1.36169 20.4617 1.48242 20.4646C1.51553 20.465 1.54865 20.4655 1.58276 20.4659C1.66456 20.467 1.74634 20.4687 1.82812 20.4705C1.82788 20.4409 1.82763 20.4114 1.82738 20.3809C1.82641 20.2478 1.8258 20.1147 1.8252 19.9815C1.8248 19.935 1.82441 19.8885 1.82401 19.8406C1.82385 19.7963 1.8237 19.7521 1.82355 19.7065C1.8233 19.6656 1.82306 19.6246 1.8228 19.5824C1.82812 19.4868 1.82812 19.4868 1.875 19.4399C1.94695 19.4356 2.01909 19.4344 2.09117 19.4346C2.13715 19.4346 2.18313 19.4346 2.23051 19.4346C2.28051 19.4349 2.3305 19.4351 2.38202 19.4353C2.45839 19.4354 2.45839 19.4354 2.53631 19.4355C2.69966 19.4358 2.86301 19.4364 3.02637 19.437C3.13681 19.4372 3.24725 19.4374 3.3577 19.4376C3.62909 19.4382 3.90048 19.4389 4.17188 19.4399C4.17149 19.3996 4.1711 19.3593 4.1707 19.3177C4.16137 18.3352 4.15439 17.3526 4.15002 16.3701C4.14784 15.8949 4.14488 15.4197 4.14005 14.9446C4.13584 14.5303 4.13312 14.116 4.13218 13.7017C4.13163 13.4824 4.13035 13.2632 4.12727 13.044C4.12439 12.8373 4.12353 12.6307 4.12416 12.424C4.12404 12.3485 4.12321 12.2729 4.12159 12.1974C4.11231 11.7445 4.15962 11.4546 4.48788 11.1111C4.52282 11.0771 4.55775 11.0431 4.59375 11.0081C4.64648 10.9478 4.69875 10.887 4.75012 10.8255C4.79754 10.7712 4.84503 10.7169 4.89258 10.6627C5.2413 10.263 5.2413 10.263 5.58037 9.8551C5.66769 9.75073 5.74755 9.67284 5.85407 9.58519C6.17478 9.29658 6.26506 9.04632 6.2915 8.61621C6.29948 8.32425 6.29897 8.03297 6.29458 7.74095C6.29248 7.56417 6.29337 7.38741 6.29394 7.21062C6.29458 6.87672 6.29265 6.54288 6.28974 6.20898C6.28621 5.79128 6.28588 5.37358 6.28564 4.95586C6.28555 4.80977 6.28544 4.66367 6.2853 4.51758C6.28527 4.48223 6.28523 4.44688 6.2852 4.41047C6.28488 4.16627 6.28364 3.92209 6.28202 3.6779C6.28164 3.61284 6.28127 3.54778 6.28091 3.48272C6.28019 3.3619 6.27929 3.24108 6.27817 3.12026C6.27788 3.06747 6.2776 3.01468 6.2773 2.9603C6.27694 2.91415 6.27657 2.86801 6.27619 2.82046C6.28125 2.71691 6.28125 2.71691 6.32812 2.67006C6.39145 2.66572 6.455 2.66456 6.51847 2.66474C6.55883 2.66475 6.59918 2.66475 6.64075 2.66476C6.6846 2.665 6.72844 2.66524 6.77362 2.66549C6.81829 2.66555 6.86297 2.66562 6.90899 2.66569C7.05229 2.66595 7.19558 2.66654 7.33887 2.66714C7.43576 2.66737 7.53265 2.66758 7.62955 2.66778C7.86762 2.66829 8.10568 2.6691 8.34375 2.67006C8.34265 2.61832 8.34265 2.61832 8.34152 2.56553C8.33859 2.4091 8.33677 2.25268 8.33496 2.09623C8.33378 2.04195 8.3326 1.98766 8.33139 1.93173C8.33071 1.85339 8.33071 1.85339 8.33002 1.77346C8.32891 1.70133 8.32891 1.70133 8.32779 1.62776C8.34733 1.47012 8.35902 1.41176 8.48438 1.31161C8.63262 1.28548 8.77867 1.28988 8.92877 1.29331C8.99402 1.29371 8.99402 1.29371 9.06059 1.29412C9.1996 1.29517 9.33855 1.29752 9.47754 1.2999C9.57175 1.30084 9.66595 1.30169 9.76016 1.30246C9.99117 1.30453 10.2221 1.30776 10.4531 1.31161C10.4526 1.27521 10.4521 1.2388 10.4516 1.2013C10.4497 1.03703 10.4485 0.872774 10.4473 0.708505C10.4465 0.651201 10.4457 0.593896 10.4449 0.534856C10.4446 0.480208 10.4443 0.425561 10.444 0.369258C10.4435 0.318724 10.443 0.26819 10.4425 0.216125C10.4641 -0.032246 10.6109 -0.011812 10.8228 -0.0121209ZM10.9219 0.42159C10.9219 0.715297 10.9219 1.009 10.9219 1.31161C11.6334 1.31161 12.345 1.31161 13.0781 1.31161C13.0781 1.0179 13.0781 0.724197 13.0781 0.42159C12.3666 0.42159 11.655 0.42159 10.9219 0.42159ZM8.8125 1.78004C8.8125 2.07375 8.8125 2.36746 8.8125 2.67006C10.9163 2.67006 13.02 2.67006 15.1875 2.67006C15.1875 2.37636 15.1875 2.08265 15.1875 1.78004C13.0837 1.78004 10.98 1.78004 8.8125 1.78004ZM6.70312 3.09165C6.70312 3.46265 6.70312 3.83365 6.70312 4.21589C10.0676 4.23908 10.0676 4.23908 13.5 4.26273C13.5 4.78831 13.5 5.31389 13.5 5.8554C13.375 5.98027 13.3152 5.96121 13.1405 5.96213C13.084 5.96265 13.0274 5.96318 12.9692 5.96371C12.9062 5.96383 12.8433 5.96393 12.7803 5.96402C12.7142 5.96446 12.6482 5.96493 12.5821 5.96545C12.4025 5.96673 12.2228 5.96744 12.0432 5.96804C11.8556 5.96877 11.6679 5.97003 11.4803 5.97123C11.1249 5.97342 10.7695 5.97514 10.414 5.9767C10.0095 5.97848 9.60488 5.9808 9.2003 5.98316C8.36791 5.988 7.53552 5.99218 6.70312 5.99593C6.70312 6.10414 6.70312 6.21234 6.70312 6.32383C10.0444 6.34702 10.0444 6.34702 13.4531 6.37067C13.5589 6.58202 13.5107 6.87152 13.5113 7.10672C13.5117 7.21344 13.5132 7.32013 13.5146 7.42684C13.515 7.49442 13.5152 7.562 13.5154 7.62958C13.5158 7.6913 13.5163 7.75301 13.5167 7.81659C13.5112 7.86502 13.5057 7.91345 13.5 7.96334C13.3389 8.07064 13.2794 8.06907 13.0898 8.07007C13.0336 8.0706 12.9774 8.07112 12.9195 8.07166C12.8577 8.07176 12.796 8.07186 12.7324 8.07196C12.6668 8.0724 12.6012 8.07288 12.5356 8.07339C12.3574 8.07467 12.1792 8.07538 12.001 8.07599C11.8148 8.07672 11.6287 8.07797 11.4425 8.07917C11.0899 8.08137 10.7373 8.08309 10.3847 8.08464C9.98326 8.08643 9.58185 8.08874 9.18044 8.0911C8.35467 8.09594 7.5289 8.10013 6.70312 8.10387C6.70312 8.21208 6.70312 8.32029 6.70312 8.43177C6.75524 8.43207 6.75524 8.43207 6.80841 8.43237C7.6526 8.43721 8.49678 8.4423 9.34097 8.44767C9.7492 8.45026 10.1574 8.45277 10.5657 8.45507C10.9214 8.45708 11.2771 8.45924 11.6327 8.46161C11.8212 8.46285 12.0096 8.46402 12.1981 8.46499C12.3753 8.4659 12.5524 8.46703 12.7296 8.46833C12.7948 8.46877 12.86 8.46913 12.9253 8.46941C13.0139 8.46979 13.1026 8.47049 13.1912 8.47121C13.241 8.47151 13.2907 8.47181 13.3419 8.47212C13.4531 8.47862 13.4531 8.47862 13.5 8.52546C13.5047 8.63565 13.5065 8.74443 13.5062 8.85464C13.5063 8.88763 13.5063 8.92061 13.5064 8.95459C13.5064 9.02449 13.5063 9.09439 13.5061 9.16428C13.5059 9.27141 13.5061 9.37853 13.5064 9.48565C13.5064 9.55345 13.5063 9.62124 13.5062 9.68904C13.5063 9.7212 13.5064 9.75335 13.5065 9.78649C13.5054 10.0137 13.5054 10.0137 13.4531 10.1181C10.1119 10.1413 10.1119 10.1413 6.70312 10.165C6.70312 10.2732 6.70312 10.3814 6.70312 10.4929C6.75439 10.4931 6.75439 10.4931 6.80669 10.4933C7.63761 10.4971 8.46852 10.5015 9.29944 10.5063C9.70126 10.5087 10.1031 10.5109 10.5049 10.5126C10.8551 10.5142 11.2052 10.516 11.5554 10.5183C11.7409 10.5195 11.9263 10.5205 12.1118 10.5211C12.2863 10.5217 12.4608 10.5228 12.6352 10.5241C12.73 10.5248 12.8247 10.5249 12.9195 10.5251C12.9757 10.5256 13.0319 10.5261 13.0898 10.5267C13.1387 10.5269 13.1877 10.5272 13.2381 10.5275C13.3594 10.5397 13.3594 10.5397 13.5 10.6334C13.5 11.159 13.5 11.6846 13.5 12.2261C11.257 12.2415 9.01406 12.257 6.70312 12.2729C6.70312 12.3811 6.70312 12.4893 6.70312 12.6008C10.0676 12.624 10.0676 12.624 13.5 12.6477C13.5 13.2042 13.5 13.7607 13.5 14.334C11.257 14.3495 9.01406 14.3649 6.70312 14.3809C6.70312 14.4891 6.70312 14.5973 6.70312 14.7088C10.0444 14.7319 10.0444 14.7319 13.4531 14.7556C13.5589 14.9669 13.5107 15.2564 13.5113 15.4916C13.5117 15.5984 13.5132 15.7051 13.5146 15.8118C13.515 15.8794 13.5152 15.9469 13.5154 16.0145C13.5158 16.0762 13.5163 16.1379 13.5167 16.2015C13.5112 16.2499 13.5057 16.2984 13.5 16.3483C13.3389 16.4556 13.2794 16.454 13.0898 16.455C13.0055 16.4558 13.0055 16.4558 12.9195 16.4566C12.8577 16.4567 12.796 16.4568 12.7324 16.4569C12.6668 16.4573 12.6012 16.4578 12.5356 16.4583C12.3574 16.4596 12.1792 16.4603 12.001 16.4609C11.8148 16.4616 11.6287 16.4629 11.4425 16.4641C11.0899 16.4663 10.7373 16.468 10.3847 16.4696C9.98326 16.4714 9.58185 16.4737 9.18044 16.476C8.35467 16.4809 7.5289 16.4851 6.70312 16.4888C6.70312 16.597 6.70312 16.7052 6.70312 16.8167C10.0444 16.8399 10.0444 16.8399 13.4531 16.8635C13.5222 17.0016 13.5067 17.1413 13.5062 17.2926C13.5063 17.3257 13.5063 17.3587 13.5064 17.3927C13.5064 17.4625 13.5063 17.5323 13.5061 17.6022C13.5059 17.7094 13.5061 17.8166 13.5064 17.9238C13.5064 17.9916 13.5063 18.0593 13.5062 18.127C13.5063 18.1593 13.5064 18.1915 13.5065 18.2248C13.5054 18.4508 13.5054 18.4508 13.4531 18.5031C13.3659 18.5082 13.2786 18.5099 13.1912 18.5105C13.1344 18.5109 13.0775 18.5114 13.0189 18.5119C12.9553 18.5121 12.8918 18.5124 12.8282 18.5127C12.7617 18.5131 12.6952 18.5136 12.6286 18.5141C12.4476 18.5154 12.2665 18.5163 12.0854 18.5173C11.8963 18.5183 11.7072 18.5196 11.5182 18.5208C11.1599 18.5232 10.8017 18.5253 10.4434 18.5273C10.0357 18.5296 9.62791 18.5322 9.22015 18.5348C8.38114 18.5401 7.54214 18.5451 6.70312 18.5499C6.70312 18.8436 6.70312 19.1373 6.70312 19.4399C10.1991 19.4399 13.695 19.4399 17.2969 19.4399C17.2969 14.045 17.2969 8.65006 17.2969 3.09165C13.8009 3.09165 10.305 3.09165 6.70312 3.09165ZM6.70312 4.68432C6.70312 4.96257 6.70312 5.24082 6.70312 5.5275C8.80688 5.5275 10.9106 5.5275 13.0781 5.5275C13.0781 5.24925 13.0781 4.971 13.0781 4.68432C10.9744 4.68432 8.87063 4.68432 6.70312 4.68432ZM17.7188 5.80856C17.7188 10.3069 17.7188 14.8053 17.7188 19.4399C18.2602 19.4399 18.8016 19.4399 19.3594 19.4399C19.3721 18.0535 19.3822 16.6671 19.3881 15.2806C19.3888 15.1165 19.3895 14.9523 19.3903 14.7882C19.3904 14.7555 19.3906 14.7228 19.3907 14.6892C19.3932 14.162 19.3976 13.6348 19.4028 13.1076C19.4081 12.5656 19.4111 12.0235 19.4123 11.4815C19.413 11.1774 19.4147 10.8735 19.4188 10.5695C19.4227 10.2826 19.4238 9.9959 19.423 9.70902C19.4232 9.60441 19.4243 9.4998 19.4264 9.39521C19.441 8.65977 19.2927 8.18952 18.8636 7.58947C18.7722 7.45993 18.6921 7.32566 18.6116 7.18915C18.5601 7.10465 18.5086 7.02017 18.457 6.93572C18.4297 6.89091 18.4023 6.8461 18.3741 6.79994C18.3206 6.71228 18.2671 6.62464 18.2135 6.537C18.1479 6.42948 18.0826 6.3218 18.0174 6.21404C17.9833 6.15793 17.9492 6.10181 17.915 6.0457C17.8867 5.9989 17.8584 5.9521 17.8292 5.90389C17.8082 5.87243 17.7872 5.84097 17.7656 5.80856C17.7502 5.80856 17.7347 5.80856 17.7188 5.80856ZM6.70312 6.79226C6.70312 7.07051 6.70312 7.34876 6.70312 7.63544C8.80688 7.63544 10.9106 7.63544 13.0781 7.63544C13.0781 7.35719 13.0781 7.07894 13.0781 6.79226C10.9744 6.79226 8.87063 6.79226 6.70312 6.79226ZM6.70312 8.85336C6.70312 9.14707 6.70312 9.44078 6.70312 9.74338C8.80688 9.74338 10.9106 9.74338 13.0781 9.74338C13.0781 9.44968 13.0781 9.15597 13.0781 8.85336C10.9744 8.85336 8.87063 8.85336 6.70312 8.85336ZM6.23438 9.79023C6.17049 9.86519 6.10832 9.94162 6.04688 10.0186C5.90276 10.1968 5.75617 10.3705 5.60156 10.5397C5.41946 10.7394 5.24753 10.9457 5.07825 11.1564C4.96875 11.2892 4.96875 11.2892 4.88759 11.3576C4.67178 11.5552 4.61656 11.713 4.60117 12.0042C4.59903 12.143 4.60102 12.2815 4.60337 12.4203C4.60347 12.497 4.60342 12.5736 4.60323 12.6503C4.60314 12.8576 4.60506 13.0649 4.60736 13.2721C4.60941 13.4891 4.6096 13.706 4.60999 13.923C4.61101 14.3334 4.6137 14.7438 4.61699 15.1542C4.62067 15.6216 4.62247 16.089 4.62411 16.5565C4.62754 17.5176 4.63355 18.4788 4.64062 19.4399C5.18203 19.4399 5.72344 19.4399 6.28125 19.4399C6.28125 16.2555 6.28125 13.0711 6.28125 9.79023C6.26578 9.79023 6.25031 9.79023 6.23438 9.79023ZM6.70312 10.9613C6.70312 11.2396 6.70312 11.5178 6.70312 11.8045C8.80688 11.8045 10.9106 11.8045 13.0781 11.8045C13.0781 11.5262 13.0781 11.248 13.0781 10.9613C10.9744 10.9613 8.87063 10.9613 6.70312 10.9613ZM6.70312 13.0692C6.70312 13.3475 6.70312 13.6257 6.70312 13.9124C8.80688 13.9124 10.9106 13.9124 13.0781 13.9124C13.0781 13.6342 13.0781 13.3559 13.0781 13.0692C10.9744 13.0692 8.87063 13.0692 6.70312 13.0692ZM6.70312 15.1772C6.70312 15.4554 6.70312 15.7337 6.70312 16.0204C8.80688 16.0204 10.9106 16.0204 13.0781 16.0204C13.0781 15.7421 13.0781 15.4639 13.0781 15.1772C10.9744 15.1772 8.87063 15.1772 6.70312 15.1772ZM6.70312 17.2383C6.70312 17.532 6.70312 17.8257 6.70312 18.1283C8.80688 18.1283 10.9106 18.1283 13.0781 18.1283C13.0781 17.8346 13.0781 17.5409 13.0781 17.2383C10.9744 17.2383 8.87063 17.2383 6.70312 17.2383ZM2.25 19.8615C2.25 20.0625 2.25 20.2634 2.25 20.4705C8.685 20.4705 15.12 20.4705 21.75 20.4705C21.75 20.2695 21.75 20.0686 21.75 19.8615C15.315 19.8615 8.88 19.8615 2.25 19.8615ZM1.5 20.9389C1.5 21.1244 1.5 21.3099 1.5 21.501C8.43 21.501 15.36 21.501 22.5 21.501C22.5 21.3155 22.5 21.13 22.5 20.9389C15.57 20.9389 8.64 20.9389 1.5 20.9389ZM0.421875 21.9695C0.421875 22.1704 0.421875 22.3714 0.421875 22.5784C8.06344 22.5784 15.705 22.5784 23.5781 22.5784C23.5781 22.3775 23.5781 22.1765 23.5781 21.9695C15.9366 21.9695 8.295 21.9695 0.421875 21.9695Z" fill="#D62828"/>
<path d="M15.0442 12.5866C15.1013 12.5867 15.1013 12.5867 15.1595 12.5867C15.1986 12.5865 15.2376 12.5863 15.2779 12.5861C15.3606 12.5858 15.4433 12.5858 15.526 12.586C15.6527 12.5862 15.7793 12.5851 15.9059 12.5839C15.9862 12.5838 16.0665 12.5837 16.1468 12.5838C16.1847 12.5834 16.2227 12.5829 16.2618 12.5825C16.5259 12.5847 16.5259 12.5847 16.6272 12.6627C16.7261 12.7916 16.7058 12.9188 16.7062 13.078C16.7063 13.1108 16.7064 13.1435 16.7066 13.1772C16.7067 13.2464 16.7064 13.3155 16.7058 13.3847C16.7051 13.4905 16.7058 13.5962 16.7067 13.702C16.7066 13.7692 16.7065 13.8364 16.7062 13.9036C16.706 13.9648 16.7059 14.026 16.7057 14.089C16.6875 14.2403 16.6875 14.2403 16.6272 14.319C16.4878 14.4264 16.3157 14.3998 16.1468 14.3979C16.0881 14.3979 16.0881 14.3979 16.0283 14.3979C15.9456 14.3978 15.863 14.3974 15.7804 14.3966C15.6536 14.3955 15.5269 14.3956 15.4002 14.396C15.3199 14.3957 15.2397 14.3954 15.1595 14.3949C15.1214 14.395 15.0834 14.395 15.0442 14.3951C14.7765 14.3917 14.7765 14.3917 14.6719 14.2872C14.6625 14.1674 14.6588 14.0527 14.6594 13.9329C14.6593 13.8979 14.6592 13.8629 14.6592 13.8269C14.6591 13.7528 14.6593 13.6788 14.6597 13.6048C14.6602 13.4913 14.6597 13.3778 14.6591 13.2643C14.6591 13.1925 14.6592 13.1206 14.6594 13.0488C14.6592 13.0147 14.659 12.9806 14.6588 12.9455C14.6618 12.63 14.7345 12.5905 15.0442 12.5866ZM15.0937 13.0692C15.0937 13.3475 15.0937 13.6257 15.0937 13.9124C15.465 13.9124 15.8362 13.9124 16.2187 13.9124C16.2187 13.6342 16.2187 13.3559 16.2187 13.0692C15.8475 13.0692 15.4762 13.0692 15.0937 13.0692Z" fill="#D62828"/>
<path d="M15.0526 14.6957C15.1114 14.696 15.1114 14.696 15.1714 14.6963C15.2116 14.6962 15.2518 14.6961 15.2933 14.696C15.3784 14.696 15.4635 14.6962 15.5486 14.6965C15.6792 14.697 15.8097 14.6965 15.9402 14.6959C16.0228 14.696 16.1054 14.6961 16.188 14.6963C16.2272 14.6961 16.2664 14.6959 16.3068 14.6957C16.583 14.698 16.583 14.698 16.6875 14.8024C16.698 14.9183 16.7029 15.0288 16.7032 15.1448C16.7036 15.1786 16.7039 15.2125 16.7042 15.2474C16.7047 15.319 16.7049 15.3906 16.7049 15.4622C16.7051 15.5719 16.7068 15.6814 16.7086 15.791C16.7088 15.8606 16.709 15.9301 16.7091 15.9997C16.7098 16.0325 16.7105 16.0653 16.7111 16.0991C16.7098 16.239 16.7039 16.3273 16.6163 16.4393C16.451 16.5097 16.294 16.508 16.1175 16.5058C16.0806 16.5058 16.0438 16.5059 16.0058 16.5059C15.9281 16.5058 15.8503 16.5053 15.7726 16.5045C15.6536 16.5034 15.5346 16.5036 15.4156 16.5039C15.34 16.5036 15.2644 16.5033 15.1888 16.5029C15.1532 16.5029 15.1176 16.503 15.0809 16.503C14.9041 16.5006 14.8226 16.4955 14.6719 16.3951C14.6582 16.2733 14.6533 16.1627 14.6548 16.0409C14.6548 16.0059 14.6548 15.9709 14.6548 15.9348C14.6549 15.8608 14.6553 15.7868 14.6561 15.7127C14.6572 15.5992 14.6571 15.4858 14.6568 15.3722C14.657 15.3004 14.6574 15.2285 14.6578 15.1567C14.6577 15.1226 14.6577 15.0886 14.6576 15.0535C14.6622 14.7329 14.7392 14.6983 15.0526 14.6957ZM15.0937 15.1772C15.0937 15.4554 15.0937 15.7337 15.0937 16.0204C15.465 16.0204 15.8362 16.0204 16.2187 16.0204C16.2187 15.7421 16.2187 15.4639 16.2187 15.1772C15.8475 15.1772 15.4762 15.1772 15.0937 15.1772Z" fill="#D62828"/>
<path d="M15.0442 4.20167C15.1013 4.20173 15.1013 4.20173 15.1595 4.2018C15.1986 4.2016 15.2376 4.2014 15.2779 4.20119C15.3606 4.20092 15.4433 4.2009 15.526 4.2011C15.6527 4.20125 15.7793 4.20015 15.9059 4.19896C15.9862 4.19886 16.0665 4.19882 16.1468 4.19887C16.1847 4.19844 16.2227 4.19801 16.2618 4.19756C16.5259 4.19974 16.5259 4.19974 16.6272 4.27778C16.7261 4.40672 16.7058 4.53384 16.7062 4.6931C16.7063 4.72584 16.7064 4.75858 16.7066 4.79231C16.7067 4.86145 16.7064 4.9306 16.7058 4.99973C16.7051 5.10554 16.7058 5.21126 16.7067 5.31707C16.7066 5.38428 16.7065 5.4515 16.7062 5.51871C16.706 5.57988 16.7059 5.64105 16.7057 5.70407C16.6875 5.8554 16.6875 5.8554 16.6403 5.94564C16.4876 6.02786 16.3278 6.01493 16.1587 6.01295C16.1207 6.01297 16.0828 6.01299 16.0436 6.01302C15.9634 6.01291 15.8832 6.01245 15.803 6.01168C15.6801 6.01057 15.5574 6.01071 15.4345 6.01102C15.3566 6.01076 15.2786 6.01043 15.2007 6.01002C15.1639 6.01006 15.1271 6.0101 15.0893 6.01015C14.9101 6.00781 14.8245 6.0039 14.6719 5.90224C14.6582 5.7804 14.6533 5.66986 14.6548 5.54799C14.6548 5.51299 14.6548 5.478 14.6548 5.44194C14.6549 5.36791 14.6553 5.29388 14.6561 5.21986C14.6572 5.10635 14.6571 4.99289 14.6568 4.87938C14.657 4.80753 14.6574 4.73568 14.6578 4.66383C14.6577 4.62977 14.6577 4.59571 14.6576 4.56061C14.6621 4.24531 14.7345 4.2056 15.0442 4.20167ZM15.0937 4.68432C15.0937 4.96257 15.0937 5.24082 15.0937 5.5275C15.465 5.5275 15.8362 5.5275 16.2187 5.5275C16.2187 5.24925 16.2187 4.971 16.2187 4.68432C15.8475 4.68432 15.4762 4.68432 15.0937 4.68432Z" fill="#D62828"/>
<path d="M15.1888 10.4788C15.2256 10.4786 15.2624 10.4784 15.3003 10.4782C15.3782 10.4779 15.456 10.4779 15.5338 10.4781C15.6527 10.4782 15.7716 10.4771 15.8905 10.4759C15.9662 10.4758 16.0418 10.4758 16.1175 10.4759C16.153 10.4754 16.1885 10.475 16.2251 10.4745C16.3684 10.4758 16.4842 10.486 16.6163 10.5432C16.7255 10.6816 16.7102 10.796 16.7091 10.9701C16.709 11.0192 16.709 11.0192 16.709 11.0693C16.7087 11.1384 16.708 11.2076 16.7068 11.2767C16.7051 11.3825 16.7049 11.4882 16.7049 11.5941C16.7013 12.1116 16.7013 12.1116 16.5937 12.2729C16.4552 12.2866 16.3266 12.2915 16.188 12.2899C16.1277 12.29 16.1277 12.29 16.0661 12.29C15.981 12.2899 15.8959 12.2894 15.8108 12.2887C15.6802 12.2876 15.5497 12.2877 15.4191 12.288C15.3365 12.2877 15.254 12.2874 15.1714 12.287C15.1322 12.287 15.093 12.2871 15.0526 12.2871C14.7765 12.2837 14.7765 12.2837 14.6719 12.1792C14.6619 12.0594 14.6576 11.9448 14.6578 11.825C14.6576 11.79 14.6574 11.755 14.6572 11.7189C14.6569 11.6449 14.6569 11.5709 14.6571 11.4968C14.6572 11.3833 14.6561 11.2699 14.6549 11.1564C14.6548 11.0845 14.6548 11.0127 14.6548 10.9408C14.6544 10.9068 14.654 10.8727 14.6535 10.8376C14.6544 10.7419 14.6544 10.7419 14.6719 10.5866C14.8473 10.4697 14.9857 10.4785 15.1888 10.4788ZM15.0937 10.9613C15.0937 11.2396 15.0937 11.5178 15.0937 11.8045C15.465 11.8045 15.8362 11.8045 16.2187 11.8045C16.2187 11.5262 16.2187 11.248 16.2187 10.9613C15.8475 10.9613 15.4762 10.9613 15.0937 10.9613Z" fill="#D62828"/>
<path d="M15.0526 6.31081C15.1114 6.3111 15.1114 6.3111 15.1714 6.31139C15.2116 6.3113 15.2518 6.31121 15.2933 6.31112C15.3784 6.31105 15.4635 6.31123 15.5486 6.31162C15.6792 6.31212 15.8097 6.31162 15.9402 6.31102C16.0228 6.31108 16.1054 6.3112 16.188 6.31139C16.2272 6.3112 16.2664 6.31101 16.3068 6.31081C16.583 6.31306 16.583 6.31306 16.6875 6.41752C16.698 6.53339 16.7029 6.64388 16.7032 6.75988C16.7036 6.79372 16.7039 6.82757 16.7042 6.86244C16.7047 6.93406 16.7049 7.00569 16.7049 7.07731C16.7051 7.18693 16.7068 7.29647 16.7086 7.40607C16.7088 7.47564 16.709 7.5452 16.7091 7.61476C16.7098 7.64756 16.7105 7.68035 16.7111 7.71414C16.7098 7.85459 16.704 7.94243 16.6156 8.05433C16.454 8.12357 16.3021 8.12306 16.1294 8.12089C16.0937 8.12091 16.058 8.12094 16.0212 8.12096C15.9459 8.12085 15.8705 8.1204 15.7952 8.11962C15.6801 8.11851 15.565 8.11866 15.4499 8.11897C15.3766 8.11871 15.3033 8.11837 15.23 8.11796C15.1957 8.118 15.1613 8.11805 15.1259 8.11809C14.9519 8.11568 14.8198 8.1065 14.6719 8.01019C14.6696 7.78508 14.6679 7.55998 14.6667 7.33487C14.6663 7.25826 14.6656 7.18165 14.6648 7.10505C14.6637 6.99505 14.6631 6.88506 14.6627 6.77506C14.662 6.72353 14.662 6.72353 14.6613 6.67096C14.6612 6.5864 14.6662 6.50188 14.6719 6.41752C14.7952 6.29423 14.8846 6.31218 15.0526 6.31081ZM15.0938 6.79226C15.0938 7.07051 15.0938 7.34876 15.0938 7.63544C15.465 7.63544 15.8363 7.63544 16.2188 7.63544C16.2188 7.35719 16.2188 7.07894 16.2188 6.79226C15.8475 6.79226 15.4763 6.79226 15.0938 6.79226Z" fill="#D62828"/>
<path d="M15.0526 16.8037C15.1114 16.804 15.1114 16.804 15.1714 16.8043C15.2116 16.8042 15.2518 16.8041 15.2933 16.804C15.3784 16.8039 15.4635 16.8041 15.5486 16.8045C15.6792 16.805 15.8097 16.8045 15.9402 16.8039C16.0228 16.804 16.1054 16.8041 16.188 16.8043C16.2272 16.8041 16.2664 16.8039 16.3068 16.8037C16.583 16.8059 16.583 16.8059 16.6875 16.9104C16.6968 17.0268 16.7006 17.1379 16.6999 17.2544C16.7001 17.3053 16.7001 17.3053 16.7002 17.3573C16.7003 17.4291 16.7001 17.5009 16.6997 17.5728C16.6992 17.6829 16.6997 17.7929 16.7003 17.9031C16.7003 17.9728 16.7001 18.0425 16.6999 18.1122C16.7001 18.1452 16.7003 18.1783 16.7005 18.2123C16.6983 18.4454 16.6983 18.4454 16.5937 18.5499C16.4531 18.5587 16.3168 18.5619 16.1761 18.5607C16.1347 18.5607 16.0933 18.5606 16.0507 18.5606C15.9632 18.5605 15.8757 18.5601 15.7882 18.5595C15.6537 18.5587 15.5193 18.5586 15.3848 18.5586C15.2999 18.5584 15.2151 18.5581 15.1302 18.5578C15.0897 18.5577 15.0492 18.5577 15.0075 18.5576C14.7242 18.5553 14.7242 18.5553 14.6719 18.5031C14.6666 18.3861 14.6642 18.2704 14.664 18.1534C14.6638 18.1183 14.6637 18.0833 14.6635 18.0471C14.6633 17.9728 14.6632 17.8985 14.6632 17.8242C14.6631 17.7103 14.6622 17.5964 14.6613 17.4825C14.6612 17.4104 14.6611 17.3383 14.6611 17.2663C14.6607 17.2321 14.6604 17.1979 14.66 17.1626C14.6615 16.841 14.7382 16.8062 15.0526 16.8037ZM15.0937 17.2383C15.0937 17.532 15.0937 17.8257 15.0937 18.1283C15.465 18.1283 15.8362 18.1283 16.2187 18.1283C16.2187 17.8346 16.2187 17.5409 16.2187 17.2383C15.8475 17.2383 15.4762 17.2383 15.0937 17.2383Z" fill="#D62828"/>
<path d="M15.1302 8.4239C15.1715 8.42375 15.2128 8.42359 15.2554 8.42343C15.343 8.42319 15.4306 8.42308 15.5182 8.42309C15.6526 8.42299 15.7869 8.42214 15.9213 8.42125C16.0062 8.42111 16.0912 8.42102 16.1761 8.42097C16.2367 8.42047 16.2367 8.42047 16.2985 8.41995C16.583 8.42105 16.583 8.42105 16.6875 8.52546C16.6969 8.64189 16.7006 8.753 16.7 8.86946C16.7001 8.9204 16.7001 8.9204 16.7002 8.97236C16.7003 9.04418 16.7001 9.116 16.6997 9.18783C16.6992 9.29794 16.6997 9.40802 16.7003 9.51813C16.7003 9.58785 16.7001 9.65756 16.7 9.72728C16.7001 9.76031 16.7003 9.79335 16.7005 9.82738C16.6983 10.0605 16.6983 10.0605 16.5938 10.165C16.457 10.1743 16.3248 10.1781 16.188 10.1774C16.1478 10.1775 16.1075 10.1776 16.0661 10.1777C15.981 10.1777 15.8959 10.1776 15.8108 10.1772C15.6802 10.1767 15.5497 10.1772 15.4191 10.1778C15.3365 10.1777 15.254 10.1776 15.1714 10.1774C15.1322 10.1776 15.093 10.1778 15.0526 10.178C14.7764 10.1757 14.7764 10.1757 14.6719 10.0713C14.6631 9.95093 14.6599 9.83572 14.6611 9.71538C14.6611 9.66272 14.6611 9.66272 14.6611 9.609C14.6613 9.53477 14.6616 9.46055 14.6622 9.38633C14.6631 9.27231 14.6632 9.15832 14.6632 9.0443C14.6634 8.9723 14.6637 8.90029 14.664 8.82829C14.6641 8.79399 14.6641 8.75969 14.6642 8.72435C14.6676 8.35887 14.8058 8.42432 15.1302 8.4239ZM15.0938 8.85336C15.0938 9.14707 15.0938 9.44077 15.0938 9.74338C15.465 9.74338 15.8363 9.74338 16.2188 9.74338C16.2188 9.44967 16.2188 9.15597 16.2188 8.85336C15.8475 8.85336 15.4763 8.85336 15.0938 8.85336Z" fill="#D62828"/>
</g>
<defs>
<clipPath id="clip0_100_163">
<rect width="24" height="23" fill="white"/>
</clipPath>
</defs>
</svg>
