<svg width="24" height="24" viewBox="0 0 24 24" fill="none" xmlns="http://www.w3.org/2000/svg">
<g clip-path="url(#clip0_128_346)">
<path d="M12.0469 0.796875C12.1492 0.872181 12.2284 0.939752 12.3157 1.02935C12.3404 1.05352 12.3651 1.07769 12.3905 1.10259C12.4714 1.18224 12.5512 1.26288 12.631 1.34363C12.6871 1.39957 12.7433 1.45546 12.7995 1.51132C12.917 1.62838 13.0339 1.74593 13.1505 1.86385C13.2998 2.01472 13.4503 2.16428 13.6012 2.3135C13.7173 2.42865 13.8328 2.54446 13.9481 2.66048C14.0033 2.71589 14.0588 2.7711 14.1144 2.82609C14.1922 2.90315 14.269 2.98106 14.3456 3.05926C14.3686 3.08167 14.3916 3.10409 14.4153 3.12718C14.576 3.29394 14.617 3.42674 14.625 3.65625C14.5693 3.78223 14.5693 3.78223 14.4375 3.89062C14.3 3.94217 14.1609 3.98451 14.0206 4.02759C13.6204 4.16651 13.3623 4.40536 13.1719 4.78125C13.0092 5.1494 12.9966 5.49337 13.112 5.87878C13.2588 6.24872 13.4839 6.52329 13.8428 6.7002C14.2281 6.85624 14.6055 6.89585 15 6.75C15.4084 6.56098 15.6644 6.32926 15.8229 5.90625C15.8601 5.80452 15.896 5.7028 15.9291 5.59966C16.0082 5.36413 16.0082 5.36413 16.1129 5.27161C16.271 5.23934 16.3896 5.26138 16.5469 5.29688C16.6492 5.37218 16.7284 5.43975 16.8157 5.52935C16.8404 5.55352 16.8651 5.57769 16.8905 5.60259C16.9714 5.68224 17.0512 5.76288 17.131 5.84363C17.1871 5.89957 17.2433 5.95546 17.2995 6.01132C17.417 6.12838 17.5339 6.24593 17.6505 6.36385C17.7998 6.51472 17.9503 6.66428 18.1012 6.8135C18.2173 6.92865 18.3328 7.04446 18.4481 7.16048C18.5033 7.21589 18.5588 7.2711 18.6144 7.32609C18.6922 7.40315 18.769 7.48106 18.8456 7.55926C18.8686 7.58167 18.8916 7.60409 18.9153 7.62718C19.0761 7.79409 19.1248 7.92524 19.125 8.15625C19.0465 8.33348 18.9296 8.45675 18.7927 8.59217C18.7544 8.63032 18.7161 8.66848 18.6766 8.70779C18.6355 8.74833 18.5943 8.78886 18.5519 8.83063C18.5095 8.87273 18.4672 8.91483 18.4236 8.95822C18.3114 9.0697 18.199 9.18098 18.0865 9.29216C17.9277 9.44923 17.7691 9.60655 17.6106 9.76399C17.5263 9.84775 17.4418 9.93138 17.3572 10.0149C17.3192 10.0526 17.2812 10.0903 17.242 10.1292C17.1916 10.179 17.1916 10.179 17.1402 10.2298C17.059 10.3083 17.059 10.3083 17.0156 10.4062C17.0675 10.4149 17.0675 10.4149 17.1204 10.4236C17.6048 10.5338 18.0078 10.9155 18.2754 11.3174C18.6093 11.8746 18.6975 12.4951 18.5566 13.1309C18.3761 13.7726 18.007 14.2417 17.4375 14.5781C17.0426 14.7656 17.0426 14.7656 16.875 14.7656C16.8754 14.7953 16.8758 14.825 16.8763 14.8556C16.8804 15.1659 16.8832 15.4762 16.8853 15.7864C16.8862 15.9021 16.8875 16.0178 16.8891 16.1334C16.8914 16.3001 16.8925 16.4667 16.8933 16.6333C16.8943 16.6847 16.8952 16.7361 16.8962 16.789C16.8963 17.1526 16.8416 17.4022 16.5954 17.6832C16.5649 17.7085 16.5344 17.7337 16.5029 17.7598C16.4725 17.7857 16.4421 17.8117 16.4108 17.8385C16.0548 18.0838 15.5476 18.0566 15.134 17.9819C14.7246 17.883 14.3922 17.6957 14.0625 17.4375C14.0316 17.422 14.0006 17.4066 13.9688 17.3906C14.0608 17.7295 14.1696 18.0425 14.3232 18.3574C14.7387 19.2132 14.7901 20.1486 14.4813 21.0526C14.3528 21.3718 14.1951 21.6775 14.0369 21.9829C13.9099 22.2478 13.9098 22.4987 13.9059 22.7886C13.8994 22.9494 13.8866 23.0466 13.791 23.1782C13.6816 23.2541 13.6313 23.2755 13.5 23.2734C13.4536 23.2742 13.4536 23.2742 13.4062 23.2749C13.2594 23.2359 13.2126 23.1882 13.125 23.0625C12.9442 22.3271 13.2148 21.6931 13.5507 21.0538C13.8563 20.4548 13.9078 19.8087 13.7463 19.1603C13.6584 18.8972 13.5426 18.6478 13.4209 18.3987C13.0939 17.7156 13.1043 17.0708 13.1043 16.3266C13.1038 16.2139 13.1031 16.1011 13.1024 15.9884C13.1007 15.6929 13.0998 15.3974 13.0991 15.1018C13.0979 14.6284 13.096 14.155 13.0934 13.6816C13.0926 13.5169 13.0924 13.3521 13.0923 13.1874C13.0918 13.0859 13.0913 12.9845 13.0908 12.883C13.091 12.8376 13.0911 12.7922 13.0912 12.7455C13.0881 12.3327 13.0428 12.008 12.7969 11.6719C12.7969 11.6409 12.7969 11.61 12.7969 11.5781C12.7717 11.5656 12.7466 11.553 12.7207 11.54C12.6399 11.4997 12.5605 11.4566 12.4819 11.412C12.219 11.2953 11.9539 11.3078 11.6719 11.3438C11.5547 11.3941 11.4651 11.4485 11.365 11.5269C11.2969 11.5781 11.2969 11.5781 11.2031 11.5781C10.9676 12.031 10.915 12.4006 10.9152 12.9031C10.9151 12.9559 10.9149 13.0086 10.9147 13.063C10.9144 13.1774 10.9141 13.2917 10.914 13.406C10.9136 13.5868 10.9129 13.7677 10.912 13.9485C10.9096 14.4626 10.9073 14.9766 10.9066 15.4907C10.9062 15.8053 10.9048 16.1198 10.9028 16.4344C10.9022 16.5544 10.902 16.6743 10.9021 16.7943C10.9022 16.9617 10.9011 17.1291 10.8998 17.2965C10.9002 17.3463 10.9005 17.396 10.9008 17.4472C10.8965 17.7826 10.8965 17.7826 10.7856 17.9369C10.6799 18.0049 10.6247 18.0254 10.5 18.0234C10.4536 18.0242 10.4536 18.0242 10.4062 18.0249C10.2646 17.9873 10.2141 17.9288 10.125 17.8125C10.1088 17.6784 10.1037 17.563 10.1076 17.4293C10.1079 17.3908 10.1083 17.3523 10.1086 17.3126C10.1095 17.229 10.1107 17.1454 10.1123 17.0619C10.1146 16.9292 10.1155 16.7966 10.1159 16.6638C10.1173 16.2866 10.1203 15.9094 10.1268 15.5322C10.1306 15.3013 10.1319 15.0704 10.1316 14.8395C10.1319 14.7518 10.1333 14.6642 10.1356 14.5766C10.1589 14.0124 10.1589 14.0124 9.89446 13.5365C9.7634 13.4122 9.63074 13.2997 9.46875 13.2188C9.46398 13.26 9.4592 13.3012 9.45428 13.3436C9.3547 13.8241 8.93924 14.2468 8.5459 14.5195C8.12926 14.7605 7.69368 14.8401 7.21875 14.8125C7.21048 14.8442 7.20222 14.8759 7.1937 14.9085C7.11296 15.2121 7.02044 15.5085 6.91553 15.8046C6.90045 15.8476 6.88538 15.8906 6.86985 15.9349C6.82225 16.0706 6.77442 16.2062 6.72656 16.3418C6.67876 16.4778 6.63101 16.6137 6.58328 16.7497C6.55375 16.8338 6.52417 16.9178 6.49453 17.0019C6.42746 17.1923 6.36099 17.383 6.29599 17.5742C6.27902 17.624 6.27902 17.624 6.26171 17.6748C6.07679 18.2894 6.68664 19.222 6.92578 19.7812C6.96632 19.8763 7.00685 19.9713 7.04736 20.0663C7.28702 20.6283 7.28702 20.6283 7.52866 21.1893C7.54812 21.2344 7.56758 21.2795 7.58763 21.3259C7.62445 21.4111 7.66138 21.4963 7.69845 21.5814C7.71485 21.6194 7.73125 21.6574 7.74815 21.6965C7.76252 21.7296 7.7769 21.7627 7.7917 21.7968C7.89085 22.0521 7.88689 22.2995 7.88965 22.5703C7.89101 22.6148 7.89237 22.6594 7.89377 22.7053C7.89674 23.0303 7.89674 23.0303 7.79205 23.1855C7.683 23.2528 7.62687 23.2754 7.5 23.2734C7.45359 23.2742 7.45359 23.2742 7.40625 23.2749C7.26503 23.2374 7.21469 23.1778 7.125 23.0625C7.10457 22.9318 7.09319 22.8118 7.0871 22.6805C7.04888 22.206 6.89449 21.8227 6.7002 21.3926C6.66692 21.3165 6.63378 21.2404 6.60075 21.1642C6.53128 21.0044 6.46123 20.8448 6.39068 20.6855C6.22253 20.3052 6.05821 19.9233 5.89469 19.5411C5.8429 19.4205 5.79047 19.3003 5.73796 19.18C5.32404 18.2234 5.37062 17.5879 5.716 16.6071C5.73327 16.5575 5.75054 16.5079 5.76833 16.4567C5.82286 16.3002 5.87774 16.1437 5.93262 15.9873C5.9696 15.8812 6.00655 15.7751 6.04349 15.669C6.07884 15.5676 6.11421 15.4663 6.1496 15.3649C6.1661 15.3177 6.18261 15.2704 6.19961 15.2217C6.21511 15.1775 6.2306 15.1334 6.24656 15.0879C6.26009 15.0493 6.27361 15.0107 6.28754 14.971C6.32987 14.8546 6.37529 14.7397 6.42188 14.625C6.38417 14.6163 6.34646 14.6076 6.30762 14.5986C5.8031 14.3951 5.44128 13.9625 5.20514 13.4854C4.98293 12.9128 4.98126 12.2444 5.18774 11.6671C5.43462 11.1284 5.84334 10.7115 6.375 10.4531C6.54492 10.4121 6.54492 10.4121 6.65625 10.4062C6.42223 10.1308 6.1752 9.87263 5.91833 9.61853C5.88041 9.58079 5.84249 9.54304 5.80342 9.50416C5.68352 9.38482 5.56346 9.26563 5.44336 9.14648C5.28417 8.98854 5.12513 8.83044 4.96619 8.67224C4.92952 8.63596 4.89285 8.59969 4.85508 8.56231C4.80459 8.51205 4.80459 8.51205 4.75307 8.46078C4.72336 8.43131 4.69364 8.40183 4.66302 8.37147C4.56354 8.26435 4.54695 8.20358 4.52344 8.05664C4.54807 7.86571 4.56402 7.83628 4.68669 7.70215C4.71659 7.66939 4.74649 7.63663 4.7773 7.60288C4.94425 7.42707 5.11443 7.25484 5.28644 7.08398C5.32447 7.04602 5.3625 7.00805 5.40169 6.96894C5.52191 6.84897 5.6423 6.72917 5.7627 6.60938C5.84477 6.52754 5.92683 6.44569 6.00888 6.36383C6.20892 6.1643 6.4091 5.96491 6.60938 5.76562C6.56442 5.74036 6.51946 5.71509 6.47313 5.68905C6.4135 5.65532 6.35387 5.62158 6.29425 5.58783C6.24991 5.56295 6.24991 5.56295 6.20468 5.53757C5.64748 5.22143 5.28016 4.76919 5.09344 4.14844C4.95582 3.41877 5.06624 2.75231 5.48584 2.13446C5.82404 1.69897 6.31981 1.37361 6.86865 1.27716C7.55635 1.20861 8.18678 1.31277 8.7486 1.73309C9.02377 1.96632 9.21126 2.21097 9.375 2.53125C9.39289 2.56382 9.41077 2.59639 9.4292 2.62994C9.46875 2.71875 9.46875 2.71875 9.46875 2.85938C9.74405 2.62566 10.0015 2.37863 10.2548 2.12146C10.332 2.0437 10.4092 1.96594 10.4864 1.88818C10.6067 1.76667 10.727 1.64509 10.8471 1.52339C10.9639 1.40516 11.081 1.28722 11.1982 1.16931C11.2342 1.13265 11.2703 1.09598 11.3074 1.0582C11.3409 1.02454 11.3744 0.990881 11.4089 0.9562C11.4383 0.926482 11.4676 0.896765 11.4979 0.866148C11.6739 0.714161 11.833 0.746044 12.0469 0.796875ZM11.7191 1.82272C11.6782 1.86408 11.6372 1.90543 11.595 1.94804C11.5612 1.9821 11.5612 1.9821 11.5266 2.01685C11.4774 2.06637 11.4283 2.11595 11.3792 2.16556C11.3015 2.24408 11.2236 2.32244 11.1457 2.40074C10.9241 2.62349 10.7028 2.84648 10.4817 3.06969C10.3466 3.20606 10.2112 3.34219 10.0758 3.47818C10.0242 3.53008 9.97263 3.58208 9.92119 3.63416C9.84916 3.7071 9.77683 3.77975 9.70444 3.85233C9.66336 3.89376 9.62228 3.93519 9.57996 3.97787C9.41621 4.12549 9.33637 4.17381 9.11426 4.16602C8.95312 4.125 8.95312 4.125 8.87274 4.04187C8.80276 3.92062 8.80147 3.86442 8.8125 3.72656C8.8248 3.26344 8.71035 2.86996 8.39062 2.53125C8.35609 2.49228 8.35609 2.49228 8.32086 2.45251C8.05456 2.18687 7.68742 2.08136 7.31891 2.0517C6.89154 2.0684 6.48203 2.25614 6.1875 2.56641C5.88594 2.95644 5.80174 3.35627 5.85938 3.84375C5.9517 4.24767 6.19226 4.58992 6.54382 4.8111C6.8804 4.98435 7.14892 5.02559 7.52811 5.03577C7.66175 5.04214 7.75924 5.04754 7.87152 5.12384C7.9435 5.23718 7.9525 5.34502 7.94684 5.47725C7.91652 5.59975 7.87129 5.65505 7.78618 5.74777C7.75631 5.78037 7.72643 5.81297 7.69565 5.84656C7.50344 6.04757 7.30774 6.24482 7.11053 6.44092C7.06475 6.48661 7.01898 6.53232 6.97322 6.57804C6.85396 6.69712 6.73456 6.81606 6.61512 6.93497C6.49279 7.05682 6.37059 7.17881 6.24838 7.30078C6.00947 7.53919 5.77041 7.77746 5.53125 8.01562C5.60376 8.18872 5.70885 8.29805 5.84144 8.42947C5.87427 8.4622 5.87427 8.4622 5.90776 8.49559C5.97986 8.56739 6.05228 8.63885 6.12469 8.71033C6.17492 8.76026 6.22512 8.81021 6.27529 8.86019C6.40724 8.99151 6.53944 9.12257 6.67172 9.25355C6.88367 9.46348 7.09531 9.67372 7.30679 9.88412C7.38077 9.95761 7.4549 10.0309 7.52905 10.1043C7.57424 10.1491 7.61944 10.194 7.66462 10.2389C7.70421 10.2781 7.74379 10.3173 7.78458 10.3577C7.90669 10.4866 7.92045 10.5273 7.93359 10.708C7.92188 10.875 7.92188 10.875 7.85742 10.9629C7.71185 11.0637 7.6281 11.0641 7.45312 11.0566C7.00098 11.0543 6.62705 11.1909 6.28125 11.4844C5.92819 11.8567 5.83059 12.2203 5.84308 12.7278C5.88147 13.1114 6.04129 13.4296 6.32812 13.6875C6.73819 13.9959 7.13287 14.0604 7.64062 14.0156C8.06205 13.9153 8.35554 13.6868 8.59277 13.3301C8.77337 13.0103 8.82287 12.6685 8.80664 12.3047C8.8125 12.1406 8.8125 12.1406 8.88574 12.0234C9.05185 11.9212 9.13552 11.9178 9.32812 11.9531C9.46921 12.0467 9.58449 12.161 9.70312 12.2812C9.73793 12.316 9.77273 12.3507 9.80859 12.3865C9.87442 12.4525 9.93983 12.5189 10.0047 12.5858C10.0668 12.6617 10.0668 12.6617 10.125 12.6562C10.1262 12.6115 10.1274 12.5667 10.1287 12.5206C10.1567 11.8822 10.2921 11.3839 10.7756 10.9336C11.1611 10.622 11.5998 10.4856 12.0938 10.5C12.6547 10.5647 13.1158 10.7476 13.4751 11.1942C13.7143 11.5365 13.8224 11.8686 13.875 12.2812C13.8976 12.2615 13.9202 12.2417 13.9435 12.2214C13.9731 12.1957 14.0027 12.17 14.0332 12.1436C14.0626 12.118 14.0919 12.0924 14.1222 12.0661C14.2708 11.9447 14.3897 11.9448 14.5794 11.9377C14.6719 11.9531 14.6719 11.9531 14.7528 12.0037C14.843 12.1397 14.8302 12.2602 14.833 12.4219C14.8563 12.9471 14.9899 13.301 15.3571 13.6827C15.692 13.9782 16.0643 14.0455 16.5 14.0343C16.8856 14.0083 17.1958 13.8096 17.4609 13.5381C17.7154 13.2221 17.8512 12.8544 17.8299 12.4468C17.7617 11.9818 17.5514 11.655 17.2031 11.3438C16.8882 11.1099 16.4646 11.053 16.0811 11.0713C15.9375 11.0625 15.9375 11.0625 15.7969 10.9658C15.7031 10.8281 15.7031 10.8281 15.6914 10.6729C15.832 10.2581 16.2574 9.9395 16.5613 9.63721C16.6071 9.59151 16.6529 9.5458 16.6987 9.50009C16.8179 9.38101 16.9373 9.26206 17.0568 9.14315C17.1791 9.0213 17.3013 8.89932 17.4235 8.77734C17.6624 8.53893 17.9015 8.30067 18.1406 8.0625C17.9518 7.83595 17.7542 7.62276 17.5448 7.41522C17.5161 7.38655 17.4873 7.35789 17.4577 7.32835C17.3671 7.23799 17.2763 7.1478 17.1855 7.05762C17.1236 6.99589 17.0616 6.93415 16.9997 6.87241C16.8489 6.7221 16.6979 6.57195 16.5469 6.42188C16.4449 6.52168 16.362 6.62125 16.2803 6.73828C15.9001 7.24738 15.4154 7.50227 14.7962 7.61993C14.1348 7.69987 13.554 7.53112 13.0312 7.125C12.5272 6.67956 12.2842 6.14247 12.2256 5.47852C12.2058 4.86497 12.4325 4.29159 12.8438 3.84375C13.0362 3.65858 13.2447 3.4948 13.4531 3.32812C13.2272 3.10099 13.001 2.87403 12.7748 2.6472C12.6978 2.56994 12.6208 2.49264 12.5438 2.4153C12.4335 2.30443 12.3231 2.1937 12.2126 2.08301C12.1607 2.03072 12.1607 2.03072 12.1077 1.97737C12.0598 1.92951 12.0598 1.92951 12.011 1.88068C11.9828 1.85236 11.9546 1.82405 11.9255 1.79488C11.8215 1.69977 11.8265 1.72111 11.7191 1.82272ZM13.9909 13.3095C13.8346 13.5032 13.8432 13.6352 13.8488 13.8766C13.8489 13.9176 13.849 13.9586 13.8491 14.0009C13.8496 14.0876 13.8506 14.1743 13.8522 14.261C13.8545 14.392 13.8551 14.5229 13.8553 14.6538C13.8603 15.4483 13.9046 16.1264 14.473 16.7324C14.8512 17.0769 15.2664 17.2274 15.7751 17.2183C15.8994 17.2109 15.8994 17.2109 16.0137 17.1182C16.1095 16.9657 16.1308 16.8457 16.1303 16.6697C16.1303 16.6284 16.1303 16.5871 16.1303 16.5446C16.1301 16.5002 16.1298 16.4558 16.1296 16.4101C16.1295 16.3645 16.1294 16.3189 16.1294 16.272C16.1291 16.1263 16.1285 15.9806 16.1279 15.835C16.1277 15.7362 16.1275 15.6375 16.1273 15.5388C16.1268 15.2967 16.126 15.0546 16.125 14.8125C16.0534 14.7945 16.0534 14.7945 15.9803 14.7762C15.9167 14.7599 15.8531 14.7435 15.7896 14.7272C15.7582 14.7194 15.7268 14.7115 15.6945 14.7035C15.4116 14.63 15.1882 14.5144 14.9531 14.3438C14.9235 14.3231 14.8938 14.3025 14.8632 14.2813C14.5211 14.0192 14.3064 13.6161 14.1562 13.2188C14.0907 13.214 14.0907 13.214 13.9909 13.3095Z" fill="#D62828"/>
<path d="M3.98437 12.1875C4.10449 12.2578 4.10449 12.2578 4.17187 12.375C4.21265 12.6048 4.21265 12.6048 4.17187 12.75C3.91168 13.0138 3.60188 13.1778 3.27832 13.3535C3.17331 13.4111 3.06833 13.4687 2.96338 13.5264C2.9131 13.5539 2.86283 13.5815 2.81103 13.6099C2.69326 13.6756 2.57744 13.7431 2.4624 13.8135C2.43316 13.8312 2.40392 13.8489 2.37379 13.8671C2.30039 13.9121 2.22747 13.9578 2.1546 14.0035C1.96843 14.0825 1.84213 14.0779 1.64062 14.0625C1.52343 13.9922 1.52343 13.9922 1.45312 13.875C1.42749 13.7447 1.41891 13.6288 1.45312 13.5C1.586 13.3491 1.72649 13.2538 1.90082 13.1552C1.95164 13.1262 2.00246 13.0972 2.05482 13.0673C2.10859 13.0371 2.16237 13.0068 2.21777 12.9756C2.54078 12.7928 2.86262 12.6102 3.17484 12.4093C3.44815 12.2349 3.65271 12.1168 3.98437 12.1875Z" fill="#D62828"/>
<path d="M22.3594 2.4375C22.4766 2.50781 22.4766 2.50781 22.5469 2.625C22.5832 2.87898 22.5832 2.87898 22.5469 3C22.3444 3.26341 22.0431 3.39549 21.7559 3.55078C21.4417 3.72248 21.1298 3.89364 20.8286 4.08729C20.554 4.26304 20.3493 4.38361 20.0156 4.3125C19.8955 4.24219 19.8955 4.24219 19.8281 4.125C19.7873 3.86785 19.7873 3.86785 19.8281 3.75C20.074 3.49989 20.3924 3.34413 20.6953 3.17285C20.7779 3.12596 20.8604 3.07902 20.943 3.03208C21.0232 2.9865 21.1034 2.941 21.1836 2.89549C21.3039 2.82642 21.4228 2.75586 21.5409 2.68323C21.5702 2.66548 21.5994 2.64774 21.6296 2.62945C21.7024 2.58507 21.7747 2.53998 21.8471 2.49481C22.032 2.41762 22.1596 2.42246 22.3594 2.4375Z" fill="#D62828"/>
<path d="M20.4375 12.1875C20.6257 12.2671 20.7949 12.3721 20.9678 12.4805C21.0406 12.5246 21.0406 12.5246 21.1149 12.5697C21.2151 12.6305 21.315 12.6916 21.4147 12.7531C21.5565 12.8401 21.6992 12.925 21.8427 13.0093C21.928 13.0596 22.0133 13.1099 22.0986 13.1602C22.1386 13.1836 22.1785 13.2071 22.2196 13.2312C22.2742 13.2639 22.2742 13.2639 22.3299 13.2971C22.3618 13.316 22.3936 13.3349 22.4265 13.3544C22.5 13.4062 22.5 13.4062 22.5469 13.5C22.5735 13.8306 22.5735 13.8306 22.4766 13.9922C22.3141 14.0896 22.1673 14.0876 21.9844 14.0625C21.8509 14.0141 21.7337 13.9453 21.6123 13.8721C21.5598 13.8416 21.5598 13.8416 21.5062 13.8105C21.3838 13.7391 21.2622 13.6664 21.1406 13.5937C21.0371 13.5328 20.9336 13.4719 20.8301 13.411C20.7236 13.348 20.6171 13.2849 20.5107 13.2217C20.4594 13.1912 20.408 13.1607 20.355 13.1293C20.3069 13.1004 20.2588 13.0715 20.2092 13.0417C20.1662 13.0159 20.1232 12.9902 20.0789 12.9637C19.9795 12.8978 19.9014 12.8438 19.8281 12.75C19.8056 12.5475 19.7941 12.4342 19.8955 12.2578C20.0744 12.1531 20.2381 12.1541 20.4375 12.1875Z" fill="#D62828"/>
<path d="M2.01563 2.4375C2.2108 2.51986 2.3902 2.62555 2.57227 2.7334C2.62355 2.763 2.67482 2.79259 2.72766 2.82309C2.88153 2.91234 3.03461 3.00282 3.1875 3.09375C3.23185 3.11996 3.27621 3.14617 3.3219 3.17317C3.50678 3.28276 3.69115 3.39321 3.87415 3.50592C3.9013 3.52261 3.92846 3.5393 3.95643 3.55649C4.03956 3.61524 4.1064 3.67184 4.17188 3.75C4.19612 3.93703 4.18766 4.04588 4.1045 4.21582C3.96206 4.33046 3.86533 4.33855 3.6851 4.33393C3.43956 4.29101 3.24065 4.15012 3.03223 4.01953C2.98367 3.99009 2.93512 3.96065 2.88509 3.93031C2.78495 3.86953 2.68502 3.80839 2.58531 3.74689C2.44352 3.65994 2.30076 3.57496 2.15735 3.49072C2.07202 3.44044 1.98669 3.39014 1.90137 3.33984C1.86144 3.31638 1.82151 3.29292 1.78037 3.26875C1.74398 3.24701 1.7076 3.22528 1.67011 3.20288C1.63824 3.18398 1.60637 3.16508 1.57353 3.14561C1.5 3.09375 1.5 3.09375 1.45313 3C1.42647 2.66943 1.42647 2.66943 1.52344 2.50781C1.68984 2.40797 1.82915 2.4036 2.01563 2.4375Z" fill="#D62828"/>
<path d="M20.6968 7.85074C20.7487 7.85015 20.8006 7.84956 20.8542 7.84895C20.91 7.84933 20.9659 7.84971 21.0234 7.8501C21.081 7.84992 21.1385 7.84974 21.1978 7.84955C21.3195 7.84943 21.4412 7.84977 21.5629 7.85056C21.7493 7.85156 21.9356 7.85057 22.1221 7.84937C22.2402 7.84949 22.3584 7.84973 22.4766 7.8501C22.5324 7.84972 22.5883 7.84934 22.6458 7.84895C22.7237 7.84983 22.7237 7.84983 22.8032 7.85074C22.8489 7.85089 22.8945 7.85104 22.9416 7.85119C23.0963 7.88166 23.1523 7.94135 23.25 8.0625C23.2749 8.15625 23.2749 8.15625 23.2734 8.25C23.2742 8.29641 23.2742 8.29641 23.2749 8.34375C23.2386 8.48059 23.1708 8.53564 23.0625 8.625C22.9416 8.64881 22.9416 8.64881 22.8032 8.64926C22.7513 8.64985 22.6994 8.65044 22.6458 8.65105C22.59 8.65067 22.5341 8.65029 22.4766 8.6499C22.3902 8.65017 22.3902 8.65017 22.3022 8.65045C22.1805 8.65057 22.0588 8.65023 21.9371 8.64944C21.7507 8.64844 21.5644 8.64943 21.3779 8.65063C21.2598 8.65051 21.1416 8.65027 21.0234 8.6499C20.9676 8.65028 20.9117 8.65066 20.8542 8.65105C20.7763 8.65017 20.7763 8.65017 20.6968 8.64926C20.6511 8.64911 20.6055 8.64896 20.5584 8.64881C20.4037 8.61834 20.3477 8.55865 20.25 8.4375C20.2251 8.34375 20.2251 8.34375 20.2266 8.25C20.2258 8.20359 20.2258 8.20359 20.2251 8.15625C20.2901 7.91169 20.4644 7.8515 20.6968 7.85074Z" fill="#D62828"/>
<path d="M1.19678 7.85074C1.24871 7.85015 1.30065 7.84956 1.35416 7.84895C1.41002 7.84933 1.46588 7.84971 1.52344 7.8501C1.58099 7.84992 1.63855 7.84974 1.69785 7.84955C1.81952 7.84943 1.94119 7.84977 2.06287 7.85056C2.2493 7.85156 2.43564 7.85057 2.62207 7.84937C2.74023 7.84949 2.8584 7.84973 2.97656 7.8501C3.03243 7.84972 3.08829 7.84934 3.14584 7.84895C3.22375 7.84983 3.22375 7.84983 3.30322 7.85074C3.34887 7.85089 3.39452 7.85104 3.44156 7.85119C3.59632 7.88166 3.6523 7.94135 3.75 8.0625C3.7749 8.15625 3.7749 8.15625 3.77344 8.25C3.77416 8.29641 3.77416 8.29641 3.7749 8.34375C3.73855 8.48059 3.67084 8.53564 3.5625 8.625C3.44156 8.64881 3.44156 8.64881 3.30322 8.64926C3.25129 8.64985 3.19935 8.65044 3.14584 8.65105C3.08998 8.65067 3.03412 8.65029 2.97656 8.6499C2.89023 8.65017 2.89023 8.65017 2.80215 8.65045C2.68048 8.65057 2.55881 8.65023 2.43713 8.64944C2.2507 8.64844 2.06436 8.64943 1.87793 8.65063C1.75977 8.65051 1.6416 8.65027 1.52344 8.6499C1.46757 8.65028 1.41171 8.65066 1.35416 8.65105C1.27625 8.65017 1.27625 8.65017 1.19678 8.64926C1.15113 8.64911 1.10548 8.64896 1.05844 8.64881C0.903681 8.61834 0.847698 8.55865 0.75 8.4375C0.725098 8.34375 0.725098 8.34375 0.726562 8.25C0.725837 8.20359 0.725837 8.20359 0.725098 8.15625C0.79006 7.91169 0.964434 7.8515 1.19678 7.85074Z" fill="#D62828"/>
</g>
<defs>
<clipPath id="clip0_128_346">
<rect width="24" height="24" fill="white"/>
</clipPath>
</defs>
</svg>
