<svg width="24" height="24" viewBox="0 0 24 24" fill="none" xmlns="http://www.w3.org/2000/svg">
<path d="M20.4844 4.78125C22.4004 6.56877 23.5747 8.99007 23.6719 11.625C23.7504 13.9116 23.0296 16.2016 21.6094 18C21.5795 18.0395 21.5496 18.079 21.5187 18.1198C19.9828 20.0898 17.6453 21.3417 15.1852 21.6757C13.1399 21.9205 11.0959 21.5484 9.28125 20.5781C9.23865 20.5555 9.23865 20.5555 9.19519 20.5323C8.52455 20.1721 7.92603 19.7252 7.35938 19.2188C7.3341 19.1967 7.30883 19.1746 7.28279 19.1518C6.81354 18.7382 6.81354 18.7382 6.79688 18.498C6.85374 18.2919 6.89977 18.2127 7.07812 18.0938C7.30347 18.0457 7.30347 18.0457 7.45312 18.0938C7.55588 18.1738 7.63823 18.262 7.7254 18.3587C7.87482 18.5188 8.04353 18.6505 8.21429 18.787C8.29424 18.851 8.37341 18.916 8.45123 18.9825C10.1482 20.4137 12.5023 21.0046 14.685 20.8376C16.8597 20.6414 18.7659 19.6766 20.2969 18.1406C20.3261 18.1131 20.3552 18.0855 20.3853 18.0571C20.8864 17.5789 21.2601 17 21.6094 16.4062C21.6262 16.3779 21.643 16.3495 21.6603 16.3203C22.8001 14.3689 23.0646 11.9238 22.5 9.75C22.1009 8.3357 21.4386 7.08856 20.4379 6.01025C20.372 5.93751 20.309 5.86221 20.2482 5.78522C20.1106 5.61559 19.9476 5.48435 19.7812 5.34375C19.7412 5.3084 19.7011 5.27305 19.6599 5.23663C18.3175 4.07475 16.6515 3.42772 14.9062 3.1875C14.8614 3.18128 14.8165 3.17505 14.7702 3.16864C12.5089 2.91429 10.2237 3.66099 8.43713 5.02991C7.98411 5.39258 7.53558 5.78055 7.17188 6.23438C7.13586 6.27909 7.09985 6.3238 7.06274 6.36987C6.66709 6.86878 6.31693 7.39043 6.04482 7.96763C5.98753 8.08891 5.92948 8.20982 5.87146 8.33075C5.7599 8.56342 5.64876 8.79629 5.53789 9.0293C5.52023 9.06604 5.50257 9.10277 5.48438 9.14063C5.4695 9.17446 5.45462 9.2083 5.43929 9.24316C5.39062 9.32813 5.39062 9.32813 5.25 9.42188C4.91631 9.45366 4.91631 9.45366 4.76074 9.33398C4.63779 9.16677 4.62692 9.06701 4.64062 8.85938C4.68796 8.72848 4.68796 8.72848 4.75342 8.59607C4.77668 8.54833 4.79995 8.5006 4.82391 8.45142C4.84851 8.40235 4.8731 8.35329 4.89844 8.30273C4.92303 8.25258 4.94762 8.20243 4.97296 8.15076C5.03357 8.02734 5.09468 7.90419 5.15625 7.78125C5.10666 7.78188 5.10666 7.78188 5.05608 7.78251C4.74434 7.78627 4.43261 7.78912 4.12086 7.79097C3.96058 7.79194 3.80033 7.79327 3.64007 7.7954C3.45577 7.79782 3.27147 7.79873 3.08716 7.79956C3.00094 7.80101 3.00094 7.80101 2.91299 7.80249C2.85951 7.80251 2.80603 7.80252 2.75093 7.80254C2.70388 7.80295 2.65683 7.80337 2.60836 7.8038C2.45044 7.77508 2.39545 7.71774 2.29688 7.59375C2.27197 7.48975 2.27197 7.48975 2.27344 7.38281C2.27295 7.34753 2.27247 7.31224 2.27197 7.27588C2.30696 7.12974 2.36736 7.07739 2.48438 6.98438C2.61912 6.96687 2.61912 6.96687 2.77717 6.97499C2.83649 6.97743 2.89582 6.97986 2.95694 6.98237C2.98854 6.98405 3.02015 6.98574 3.05271 6.98747C3.1523 6.99249 3.25181 6.99583 3.35149 6.99863C3.63477 7.00662 3.91789 7.01548 4.20089 7.03066C4.94964 7.10373 4.94964 7.10373 5.64526 6.91301C5.81878 6.7422 5.91932 6.54914 6.00781 6.32448C6.06465 6.19338 6.14865 6.09108 6.24023 5.98242C6.27027 5.94599 6.3003 5.90955 6.33124 5.87201C6.49807 5.67619 6.66748 5.4843 6.84375 5.29688C6.86834 5.2707 6.89292 5.24452 6.91825 5.21754C9.86041 2.11077 14.6356 1.40922 20.4844 4.78125Z" fill="#D62828"/>
<path d="M14.1562 5.15625C14.2745 5.27458 14.3371 5.35244 14.3661 5.51858C14.3654 5.58847 14.3654 5.58847 14.3646 5.65977C14.3645 5.74039 14.3645 5.74039 14.3643 5.82264C14.3633 5.88118 14.3622 5.93973 14.3612 6.00004C14.3607 6.06266 14.3604 6.12528 14.3601 6.1879C14.3594 6.32255 14.3581 6.45718 14.3565 6.59181C14.354 6.805 14.3532 7.01817 14.3528 7.23137C14.3515 7.83754 14.3484 8.44368 14.342 9.04983C14.3385 9.38477 14.3368 9.71968 14.3371 10.0546C14.3372 10.2663 14.3351 10.4778 14.3313 10.6895C14.3295 10.8216 14.3298 10.9536 14.3307 11.0858C14.3308 11.1756 14.3282 11.2653 14.3256 11.3551C14.3293 11.6002 14.337 11.7515 14.5027 11.9399C14.6329 12.0472 14.7655 12.1416 14.9062 12.2344C14.9707 12.2857 15.0346 12.3376 15.0976 12.3907C15.394 12.6324 15.6914 12.8724 15.9932 13.1074C16.2644 13.3188 16.5276 13.5384 16.7888 13.762C16.8746 13.8349 16.9623 13.9057 17.0521 13.9737C17.1994 14.0993 17.2238 14.201 17.25 14.3906C17.1979 14.5441 17.1529 14.6362 17.0273 14.7393C16.8692 14.7788 16.7527 14.7538 16.5937 14.7187C16.4842 14.6487 16.3929 14.5823 16.2949 14.499C16.2673 14.4764 16.2397 14.4538 16.2112 14.4306C16.1195 14.3554 16.0285 14.2792 15.9375 14.2031C15.8698 14.1474 15.8021 14.0917 15.7343 14.0361C15.597 13.9235 15.46 13.8106 15.3232 13.6974C15.1491 13.5536 14.9733 13.4121 14.7966 13.2715C13.5792 12.299 13.5792 12.299 13.5 12.1406C13.4952 12.0521 13.4935 11.9634 13.4931 11.8747C13.4928 11.8181 13.4924 11.7615 13.4921 11.7032C13.492 11.6402 13.4918 11.5771 13.4917 11.5141C13.4914 11.4479 13.4911 11.3818 13.4908 11.3157C13.49 11.1357 13.4895 10.9558 13.4891 10.7758C13.4888 10.6634 13.4885 10.551 13.4883 10.4386C13.4874 10.0871 13.4867 9.73548 13.4863 9.38391C13.4858 8.97791 13.4846 8.57192 13.4827 8.16593C13.4813 7.85223 13.4806 7.53854 13.4805 7.22484C13.4803 7.03742 13.4799 6.85002 13.4787 6.66261C13.4777 6.48628 13.4775 6.30996 13.4779 6.13363C13.478 6.06895 13.4777 6.00426 13.477 5.93959C13.4762 5.85121 13.4766 5.76282 13.4771 5.67443C13.477 5.62499 13.4769 5.57556 13.4768 5.52462C13.5061 5.3555 13.5679 5.27735 13.6875 5.15625C13.8672 5.09635 13.9728 5.1112 14.1562 5.15625Z" fill="#D62828"/>
<path d="M0.910922 11.2431C0.942229 11.2429 0.973536 11.2428 1.00579 11.2426C1.11119 11.2421 1.21659 11.2419 1.32199 11.2417C1.39736 11.2414 1.47273 11.2411 1.54811 11.2408C1.75323 11.24 1.95836 11.2395 2.1635 11.2391C2.2916 11.2388 2.4197 11.2385 2.5478 11.2383C2.94842 11.2374 3.34905 11.2367 3.74968 11.2363C4.21245 11.2358 4.67522 11.2346 5.13799 11.2327C5.49547 11.2313 5.85296 11.2306 6.21045 11.2305C6.42406 11.2303 6.63766 11.2299 6.85127 11.2287C7.05223 11.2277 7.25316 11.2275 7.45412 11.2279C7.52787 11.228 7.60163 11.2277 7.67538 11.227C7.7761 11.2262 7.87675 11.2265 7.97748 11.2271C8.03383 11.227 8.09018 11.2269 8.14824 11.2268C8.32644 11.2546 8.40373 11.3125 8.53125 11.4375C8.59641 11.5678 8.58679 11.6681 8.57813 11.8125C8.53884 11.9304 8.51063 11.9826 8.40712 12.0513C8.25873 12.1084 8.13335 12.105 7.97438 12.1044C7.94235 12.1044 7.91032 12.1044 7.87732 12.1044C7.7718 12.1044 7.66631 12.1036 7.56079 12.1029C7.4875 12.1027 7.4142 12.1026 7.3409 12.1025C7.14824 12.1021 6.95559 12.1012 6.76294 12.1002C6.56625 12.0992 6.36955 12.0988 6.17285 12.0983C5.78711 12.0973 5.40137 12.0957 5.01563 12.0937C5.02677 12.1357 5.02677 12.1357 5.03814 12.1785C5.09661 12.4251 5.09522 12.6853 5.10938 12.9375C5.11306 12.9868 5.11675 13.0361 5.12055 13.0869C5.13079 13.3024 5.13238 13.4165 5.01563 13.6025C4.82027 13.7206 4.72618 13.7198 4.5 13.6875C4.36708 13.614 4.32802 13.5467 4.28064 13.4041C4.21408 13.1105 4.21435 12.8194 4.21656 12.5202C4.21671 12.4791 4.21687 12.438 4.21704 12.3956C4.21745 12.295 4.21808 12.1944 4.21875 12.0937C4.17347 12.0943 4.12818 12.0948 4.08152 12.0953C3.6546 12.1001 3.22769 12.1036 2.80075 12.1059C2.58126 12.1071 2.36178 12.1088 2.1423 12.1114C1.93046 12.114 1.71864 12.1154 1.50678 12.116C1.42599 12.1164 1.34519 12.1173 1.26441 12.1185C1.15116 12.1202 1.038 12.1205 0.924743 12.1204C0.874724 12.1216 0.874724 12.1216 0.823695 12.1229C0.640997 12.121 0.568007 12.0982 0.424518 11.981C0.329763 11.8614 0.296733 11.8177 0.301761 11.6689C0.328128 11.4844 0.328128 11.4844 0.416019 11.3701C0.589635 11.2425 0.695845 11.2439 0.910922 11.2431Z" fill="#D62828"/>
<path d="M5.80554 15.48C5.87498 15.4793 5.87498 15.4793 5.94582 15.4787C6.09868 15.4777 6.25144 15.4788 6.4043 15.4799C6.5106 15.4798 6.6169 15.4797 6.7232 15.4794C6.94592 15.4792 7.16861 15.48 7.39133 15.4815C7.6768 15.4834 7.96222 15.483 8.2477 15.4818C8.46719 15.4811 8.68666 15.4816 8.90614 15.4824C9.0114 15.4827 9.11666 15.4826 9.22192 15.4822C9.36905 15.4819 9.51609 15.483 9.66321 15.4846C9.70671 15.4842 9.7502 15.4838 9.79502 15.4833C10.0078 15.4872 10.0967 15.4935 10.2692 15.6286C10.4078 15.8152 10.3919 15.8973 10.3594 16.125C10.2559 16.2642 10.196 16.3045 10.0312 16.3594C9.96823 16.3639 9.90501 16.3659 9.84184 16.3663C9.8034 16.3666 9.76496 16.3669 9.72535 16.3673C9.68334 16.3674 9.64134 16.3675 9.59806 16.3677C9.5315 16.3681 9.5315 16.3681 9.46359 16.3686C9.31657 16.3695 9.16955 16.3701 9.02252 16.3705C8.97232 16.3707 8.92212 16.3709 8.8704 16.3711C8.60474 16.3721 8.33909 16.3728 8.07343 16.3732C7.799 16.3737 7.52459 16.3753 7.25016 16.3772C7.03917 16.3784 6.82817 16.3788 6.61717 16.379C6.51601 16.3792 6.41484 16.3798 6.31368 16.3806C6.17207 16.3818 6.0305 16.3817 5.88889 16.3814C5.82631 16.3823 5.82631 16.3823 5.76246 16.3832C5.50022 16.381 5.35773 16.3432 5.15625 16.1719C5.11029 16.0814 5.11029 16.0814 5.10059 15.9902C5.09605 15.9604 5.09152 15.9305 5.08685 15.8998C5.17443 15.4996 5.45714 15.4748 5.80554 15.48Z" fill="#D62828"/>
<path d="M2.63653 15.4907C2.68352 15.4905 2.7305 15.4902 2.7789 15.49C2.82769 15.4907 2.87649 15.4914 2.92676 15.4922C2.99967 15.4911 2.99967 15.4911 3.07407 15.49C3.28655 15.4911 3.42973 15.4942 3.61816 15.5977C3.73908 15.7478 3.73367 15.8394 3.72327 16.0254C3.69415 16.1694 3.63519 16.2305 3.51562 16.3125C3.3215 16.3772 3.13889 16.3699 2.93555 16.3711C2.89567 16.3721 2.85579 16.373 2.8147 16.374C2.58721 16.3754 2.43467 16.3671 2.25 16.2188C2.15151 16.0934 2.15632 16.0292 2.16211 15.8672C2.23029 15.5944 2.35752 15.4921 2.63653 15.4907Z" fill="#D62828"/>
<path d="M14.1562 18.6562C14.2741 18.756 14.3315 18.8282 14.3615 18.9813C14.3721 19.1618 14.3552 19.2477 14.2559 19.4033C14.1379 19.5178 14.0938 19.5434 13.9307 19.5615C13.747 19.5435 13.6775 19.4863 13.5469 19.3594C13.4718 19.2092 13.4769 19.0536 13.5 18.8906C13.6749 18.6071 13.8396 18.5785 14.1562 18.6562Z" fill="#D62828"/>
<path d="M21.5303 11.6162C21.6094 11.6719 21.6094 11.6719 21.7031 11.8125C21.7349 12.1462 21.7349 12.1462 21.6152 12.3018C21.4357 12.4338 21.3169 12.437 21.0937 12.4219C20.8781 12.3187 20.8781 12.3187 20.8125 12.1875C20.7909 11.8526 20.7909 11.8526 20.874 11.6982C21.0515 11.5339 21.3108 11.5391 21.5303 11.6162Z" fill="#D62828"/>
</svg>
