<svg width="24" height="24" viewBox="0 0 24 24" fill="none" xmlns="http://www.w3.org/2000/svg">
<g clip-path="url(#clip0_128_347)">
<path d="M7.83736 7.16403C7.87757 7.16376 7.91777 7.16349 7.95919 7.16321C8.09471 7.16236 8.23023 7.16185 8.36575 7.16135C8.4626 7.16082 8.55944 7.16028 8.65629 7.15973C8.97508 7.15801 9.29388 7.15683 9.61267 7.15576C9.66688 7.15558 9.72108 7.15539 9.77693 7.1552C10.288 7.15349 10.7991 7.15202 11.3101 7.15102C11.9642 7.14973 12.6183 7.14735 13.2723 7.1435C13.732 7.14089 14.1917 7.13953 14.6514 7.13909C14.926 7.1388 15.2006 7.13795 15.4753 7.13575C15.7337 7.1337 15.9922 7.13321 16.2507 7.1339C16.3455 7.13389 16.4402 7.13331 16.535 7.13213C17.3411 7.1226 17.3411 7.1226 17.5519 7.30989C17.5778 7.33977 17.6038 7.36964 17.6306 7.40042C17.7417 7.52594 17.8658 7.61312 18.0023 7.71042C18.0563 7.74952 18.1102 7.7887 18.164 7.82794C18.1922 7.84843 18.2204 7.86893 18.2495 7.89004C19.1653 8.55914 20.0346 9.28169 20.8828 10.0342C20.9199 10.067 20.957 10.0997 20.9951 10.1335C22.8993 11.8229 24.2227 13.4663 24.4033 16.0789C24.4643 17.1136 24.451 18.1429 24.4043 19.1777C24.4006 19.2634 24.4006 19.2634 24.3968 19.3507C24.3438 20.5605 24.2579 21.7668 24.121 22.9701C24.1163 23.0125 24.1117 23.0549 24.1069 23.0986C24.0938 23.2163 24.0796 23.3338 24.0648 23.4514C24.0611 23.4856 24.0573 23.5198 24.0535 23.555C24.0344 23.696 24.0102 23.7981 23.9274 23.9149C23.7678 24.0331 23.6244 24.0259 23.4334 24.0236C23.3947 24.0239 23.356 24.0241 23.3162 24.0244C23.1856 24.0251 23.0551 24.0245 22.9246 24.0238C22.8304 24.024 22.7362 24.0243 22.642 24.0247C22.3825 24.0255 22.123 24.0251 21.8635 24.0245C21.5839 24.0241 21.3043 24.0247 21.0248 24.0253C20.5085 24.026 19.9922 24.026 19.4759 24.0255C18.999 24.025 18.5221 24.0249 18.0452 24.0251C18.0136 24.0251 17.982 24.0251 17.9494 24.0251C17.8211 24.0252 17.6928 24.0253 17.5645 24.0253C16.3604 24.0259 15.1563 24.0254 13.9523 24.0244C12.882 24.0235 11.8117 24.0235 10.7414 24.0244C9.5396 24.0254 8.33776 24.0258 7.13591 24.0253C7.00784 24.0252 6.87977 24.0251 6.75171 24.0251C6.72017 24.0251 6.68864 24.0251 6.65615 24.025C6.17948 24.0248 5.70281 24.0251 5.22614 24.0256C4.68427 24.0261 4.1424 24.0259 3.60053 24.0249C3.32386 24.0244 3.04721 24.0243 2.77054 24.0249C2.51754 24.0254 2.26456 24.0251 2.01157 24.0241C1.91978 24.0239 1.82799 24.024 1.7362 24.0245C1.61192 24.025 1.48771 24.0245 1.36344 24.0236C1.32736 24.024 1.29128 24.0245 1.25411 24.0249C1.09291 24.0226 1.0005 24.0117 0.868434 23.9159C0.759104 23.7579 0.77055 23.5987 0.77212 23.4134C0.771729 23.3728 0.771337 23.3321 0.770933 23.2902C0.769854 23.1537 0.77012 23.0172 0.770383 22.8806C0.769899 22.7828 0.769337 22.6851 0.768703 22.5873C0.767245 22.3214 0.767 22.0556 0.767059 21.7897C0.76702 21.5678 0.766447 21.3459 0.76589 21.124C0.764605 20.6004 0.764357 20.0768 0.764707 19.5532C0.765046 19.0131 0.763481 18.473 0.761001 17.9329C0.758949 17.4692 0.758165 17.0056 0.758377 16.5419C0.758486 16.265 0.758096 15.988 0.756453 15.7111C0.754955 15.4505 0.755039 15.19 0.756332 14.9295C0.756541 14.8339 0.756192 14.7384 0.755238 14.6428C0.747683 13.831 0.747683 13.831 0.925449 13.6192C0.99085 13.5626 1.05755 13.5074 1.125 13.4531C1.19221 13.3855 1.25934 13.3177 1.32557 13.2491C1.40306 13.169 1.48157 13.0901 1.56043 13.0113C1.58842 12.9834 1.6164 12.9555 1.64524 12.9267C1.67422 12.8977 1.7032 12.8688 1.73306 12.839C1.79439 12.7776 1.85571 12.7162 1.91701 12.6548C2.0826 12.489 2.24832 12.3234 2.41409 12.1577C2.58772 11.9842 2.76123 11.8106 2.93477 11.637C3.22583 11.3458 3.517 11.0548 3.80822 10.7638C4.14517 10.4271 4.48194 10.0902 4.81864 9.75329C5.10789 9.46383 5.39723 9.17446 5.68665 8.88516C5.85945 8.71243 6.03222 8.53967 6.20491 8.36682C6.36698 8.20462 6.52916 8.04254 6.69143 7.88054C6.75107 7.82096 6.81067 7.76134 6.87023 7.70168C6.95125 7.62052 7.03242 7.53952 7.11363 7.45854C7.13739 7.43468 7.16115 7.41081 7.18563 7.38622C7.40306 7.17002 7.53908 7.16471 7.83736 7.16403ZM7.07813 8.71875C7.07813 8.73422 7.07813 8.74969 7.07813 8.76562C7.81865 8.86919 7.81865 8.86919 8.48438 8.61072C8.65923 8.44504 8.82054 8.2641 8.95313 8.0625C8.95313 8.04703 8.95313 8.03156 8.95313 8.01562C8.10786 7.9178 7.56912 7.97216 7.07813 8.71875ZM9.46875 8.71875C9.46875 8.73422 9.46875 8.74969 9.46875 8.76562C10.2093 8.86919 10.2093 8.86919 10.875 8.61072C11.0499 8.44504 11.2112 8.2641 11.3438 8.0625C11.3438 8.04703 11.3438 8.03156 11.3438 8.01562C10.4985 7.9178 9.95975 7.97216 9.46875 8.71875ZM11.8594 8.71875C11.8594 8.73422 11.8594 8.74969 11.8594 8.76562C12.5999 8.86919 12.5999 8.86919 13.2656 8.61072C13.4405 8.44504 13.6018 8.2641 13.7344 8.0625C13.7344 8.04703 13.7344 8.03156 13.7344 8.01562C12.8891 7.9178 12.3504 7.97216 11.8594 8.71875ZM14.25 8.71875C14.25 8.73422 14.25 8.74969 14.25 8.76562C15.0159 8.87174 15.0159 8.87174 15.7062 8.61072C15.8808 8.44557 16.0411 8.26464 16.1719 8.0625C16.1719 8.04703 16.1719 8.03156 16.1719 8.01562C15.3148 7.92068 14.7456 7.95279 14.25 8.71875ZM16.5991 8.6544C16.5705 8.67601 16.5418 8.69763 16.5123 8.7199C15.7024 9.33312 14.9304 9.98952 14.1738 10.667C14.1385 10.6985 14.1031 10.73 14.0667 10.7625C12.2547 12.3835 10.9645 13.934 10.8161 16.4371C10.7715 17.3106 10.7866 18.1787 10.8311 19.0518C10.8336 19.1027 10.8361 19.1537 10.8387 19.2062C10.9054 20.5304 11.0324 21.8415 11.2031 23.1562C11.7291 23.1562 12.255 23.1562 12.7969 23.1562C12.7973 22.9471 12.7978 22.7379 12.7982 22.5224C12.7998 21.8324 12.8024 21.1424 12.8055 20.4524C12.8074 20.0339 12.8089 19.6154 12.8096 19.1969C12.8102 18.8322 12.8115 18.4675 12.8135 18.1028C12.8146 17.9097 12.8153 17.7165 12.8152 17.5234C12.8152 17.3416 12.816 17.1599 12.8176 16.9781C12.818 16.9114 12.818 16.8446 12.8178 16.7779C12.8175 16.6868 12.8184 16.5957 12.8194 16.5047C12.8197 16.4282 12.8197 16.4282 12.8199 16.3502C12.8438 16.2187 12.8438 16.2187 12.9179 16.1086C13.0737 16.0023 13.1812 16.0077 13.3693 16.0074C13.4034 16.0071 13.4375 16.0069 13.4726 16.0066C13.5869 16.0058 13.7012 16.0064 13.8155 16.007C13.8974 16.0067 13.9793 16.0064 14.0613 16.006C14.2838 16.0051 14.5064 16.0055 14.7289 16.0061C14.9617 16.0065 15.1945 16.0061 15.4272 16.0058C15.8181 16.0055 16.209 16.0059 16.5999 16.0068C17.0521 16.0078 17.5042 16.0075 17.9563 16.0065C18.3443 16.0056 18.7323 16.0055 19.1202 16.006C19.3521 16.0063 19.5839 16.0063 19.8157 16.0057C20.0336 16.0052 20.2515 16.0055 20.4694 16.0066C20.5495 16.0069 20.6295 16.0068 20.7096 16.0064C20.8187 16.0059 20.9278 16.0065 21.037 16.0074C21.0981 16.0075 21.1592 16.0076 21.2221 16.0077C21.375 16.0312 21.375 16.0312 21.4884 16.1086C21.5833 16.2496 21.5863 16.3352 21.5868 16.5047C21.5875 16.5633 21.5881 16.6219 21.5888 16.6823C21.5886 16.7472 21.5883 16.812 21.5881 16.8769C21.5885 16.9453 21.589 17.0136 21.5896 17.082C21.5909 17.2676 21.591 17.4531 21.591 17.6386C21.5911 17.8326 21.5923 18.0265 21.5934 18.2205C21.5953 18.5877 21.5963 18.9549 21.5969 19.3221C21.5976 19.7402 21.5994 20.1582 21.6013 20.5763C21.6052 21.4363 21.6076 22.2963 21.6094 23.1562C22.1198 23.1562 22.6303 23.1562 23.1562 23.1562C23.3322 21.7811 23.4578 20.4102 23.5254 19.0254C23.528 18.9744 23.5305 18.9234 23.5331 18.8709C23.6594 16.2851 23.5369 14.1284 21.7477 12.1357C21.2641 11.6057 20.7444 11.1175 20.209 10.6406C20.1562 10.5934 20.1562 10.5934 20.1023 10.5453C19.3602 9.88283 18.5985 9.24663 17.8028 8.64935C17.7749 8.62838 17.747 8.60741 17.7182 8.5858C17.1843 8.18698 17.1015 8.27555 16.5991 8.6544ZM5.48438 10.3125C5.48438 10.328 5.48438 10.3434 5.48438 10.3594C6.2249 10.4629 6.2249 10.4629 6.89063 10.2045C7.06548 10.0388 7.22679 9.85785 7.35938 9.65625C7.35938 9.64078 7.35938 9.62531 7.35938 9.60937C6.51411 9.51155 5.97537 9.56591 5.48438 10.3125ZM7.875 10.3125C7.875 10.328 7.875 10.3434 7.875 10.3594C8.61553 10.4629 8.61553 10.4629 9.28125 10.2045C9.4561 10.0388 9.61741 9.85785 9.75 9.65625C9.75 9.64078 9.75 9.62531 9.75 9.60937C8.90473 9.51155 8.366 9.56591 7.875 10.3125ZM10.2656 10.3125C10.2656 10.328 10.2656 10.3434 10.2656 10.3594C11.0062 10.4629 11.0062 10.4629 11.6719 10.2045C11.8467 10.0388 12.008 9.85785 12.1406 9.65625C12.1406 9.64078 12.1406 9.62531 12.1406 9.60937C11.2954 9.51155 10.7566 9.56591 10.2656 10.3125ZM12.6563 10.3125C12.6563 10.328 12.6563 10.3434 12.6563 10.3594C13.4222 10.4655 13.4222 10.4655 14.1125 10.2045C14.2871 10.0393 14.4473 9.85839 14.5781 9.65625C14.5781 9.64078 14.5781 9.62531 14.5781 9.60937C13.7211 9.51443 13.1518 9.54654 12.6563 10.3125ZM3.84375 11.9531C3.84375 11.9686 3.84375 11.9841 3.84375 12C4.51257 12.0961 4.51257 12.0961 5.14474 11.9271C5.38461 11.7354 5.59326 11.5044 5.76563 11.25C5.76563 11.2345 5.76563 11.2191 5.76563 11.2031C4.88422 11.0935 4.36013 11.191 3.84375 11.9531ZM6.23438 11.9531C6.23438 11.9686 6.23438 11.9841 6.23438 12C6.9032 12.0961 6.9032 12.0961 7.53536 11.9271C7.77524 11.7354 7.98388 11.5044 8.15625 11.25C8.15625 11.2345 8.15625 11.2191 8.15625 11.2031C7.27484 11.0935 6.75076 11.191 6.23438 11.9531ZM8.625 11.9531C8.625 11.9686 8.625 11.9841 8.625 12C9.29382 12.0961 9.29382 12.0961 9.92599 11.9271C10.1659 11.7354 10.3745 11.5044 10.5469 11.25C10.5469 11.2345 10.5469 11.2191 10.5469 11.2031C9.66547 11.0935 9.14138 11.191 8.625 11.9531ZM11.0156 11.9531C11.0156 11.9686 11.0156 11.9841 11.0156 12C11.7091 12.0978 11.7091 12.0978 12.3657 11.9271C12.6061 11.7364 12.8139 11.5054 12.9844 11.25C12.9844 11.2345 12.9844 11.2191 12.9844 11.2031C12.0897 11.0966 11.5378 11.1708 11.0156 11.9531ZM2.25 13.5469C2.25 13.5623 2.25 13.5778 2.25 13.5937C2.99053 13.6973 2.99053 13.6973 3.65625 13.4388C3.8311 13.2732 3.99241 13.0922 4.125 12.8906C4.125 12.8752 4.125 12.8597 4.125 12.8437C3.27973 12.7459 2.741 12.8003 2.25 13.5469ZM4.64063 13.5469C4.64063 13.5623 4.64063 13.5778 4.64063 13.5937C5.38115 13.6973 5.38115 13.6973 6.04688 13.4388C6.22173 13.2732 6.38304 13.0922 6.51563 12.8906C6.51563 12.8752 6.51563 12.8597 6.51563 12.8437C5.67036 12.7459 5.13162 12.8003 4.64063 13.5469ZM7.03125 13.5469C7.03125 13.5623 7.03125 13.5778 7.03125 13.5937C7.77178 13.6973 7.77178 13.6973 8.4375 13.4388C8.61235 13.2732 8.77366 13.0922 8.90625 12.8906C8.90625 12.8752 8.90625 12.8597 8.90625 12.8437C8.06098 12.7459 7.52225 12.8003 7.03125 13.5469ZM9.42188 13.5469C9.42188 13.5623 9.42188 13.5778 9.42188 13.5937C10.1878 13.6999 10.1878 13.6999 10.8781 13.4388C11.0527 13.2737 11.213 13.0928 11.3438 12.8906C11.3438 12.8752 11.3438 12.8597 11.3438 12.8437C10.4867 12.7488 9.91746 12.7809 9.42188 13.5469ZM1.64063 14.4375C1.64063 17.3147 1.64063 20.1919 1.64063 23.1562C4.51781 23.1562 7.395 23.1562 10.3594 23.1562C10.3594 20.2791 10.3594 17.4019 10.3594 14.4375C7.48219 14.4375 4.605 14.4375 1.64063 14.4375ZM13.6406 16.8281C13.6406 18.9164 13.6406 21.0047 13.6406 23.1562C14.677 23.1562 15.7134 23.1562 16.7812 23.1562C16.7812 21.068 16.7812 18.9797 16.7812 16.8281C15.7448 16.8281 14.7084 16.8281 13.6406 16.8281ZM17.625 16.8281C17.625 18.9164 17.625 21.0047 17.625 23.1562C18.6614 23.1562 19.6978 23.1562 20.7656 23.1562C20.7656 21.068 20.7656 18.9797 20.7656 16.8281C19.7292 16.8281 18.6928 16.8281 17.625 16.8281Z" fill="#D62828"/>
<path d="M3.26751 16.7509C3.33367 16.7506 3.39983 16.7502 3.46598 16.7497C3.64535 16.7486 3.82469 16.749 4.00407 16.7498C4.19189 16.7504 4.37971 16.7498 4.56753 16.7494C4.88293 16.749 5.19832 16.7496 5.51372 16.7507C5.87822 16.752 6.24269 16.7516 6.6072 16.7503C6.9203 16.7492 7.2334 16.7491 7.54651 16.7497C7.73345 16.75 7.92037 16.7501 8.10731 16.7493C8.28308 16.7486 8.4588 16.7491 8.63457 16.7505C8.69902 16.7508 8.76348 16.7507 8.82793 16.7502C9.31817 16.7466 9.31817 16.7466 9.5304 16.876C9.63126 17.0543 9.64266 17.2045 9.64044 17.4043C9.64093 17.4428 9.64142 17.4813 9.64192 17.521C9.64318 17.648 9.64273 17.7749 9.64215 17.9019C9.64243 17.9903 9.64277 18.0787 9.64317 18.1672C9.64372 18.3524 9.64341 18.5375 9.6425 18.7227C9.64143 18.96 9.64269 19.1972 9.64462 19.4344C9.64581 19.617 9.64569 19.7995 9.64518 19.9821C9.64511 20.0696 9.64547 20.157 9.64627 20.2445C9.64721 20.3668 9.64635 20.489 9.64502 20.6114C9.64599 20.6654 9.64599 20.6654 9.64697 20.7206C9.64308 20.9005 9.61366 20.9942 9.50643 21.1396C9.26944 21.3049 8.96588 21.2669 8.68963 21.2647C8.62447 21.265 8.55931 21.2654 8.49414 21.2659C8.31768 21.267 8.14124 21.2666 7.96478 21.2659C7.77986 21.2653 7.59494 21.2658 7.41001 21.2662C7.0995 21.2666 6.78901 21.266 6.4785 21.2649C6.11982 21.2637 5.76118 21.2641 5.40251 21.2654C5.09422 21.2664 4.78594 21.2666 4.47765 21.266C4.29367 21.2656 4.1097 21.2655 3.92572 21.2663C3.75273 21.267 3.57977 21.2665 3.40677 21.2652C3.31324 21.2647 3.21969 21.2654 3.12616 21.2661C2.66726 21.2607 2.66726 21.2607 2.49357 21.1396C2.36296 20.9625 2.35119 20.8237 2.35497 20.6114C2.35456 20.5728 2.35414 20.5343 2.35371 20.4946C2.35271 20.3676 2.35376 20.2408 2.35492 20.1138C2.35485 20.0253 2.35469 19.9369 2.35444 19.8485C2.35424 19.6633 2.35502 19.4781 2.35653 19.2929C2.3584 19.0556 2.35796 18.8185 2.3568 18.5812C2.35614 18.3987 2.35661 18.2161 2.35743 18.0335C2.35771 17.9461 2.35765 17.8586 2.35725 17.7711C2.35687 17.6488 2.35801 17.5266 2.35955 17.4043C2.35895 17.3502 2.35895 17.3502 2.35834 17.295C2.36193 17.1296 2.38798 17.0203 2.46959 16.876C2.72049 16.723 2.98068 16.7486 3.26751 16.7509ZM3.23437 17.625C3.23437 18.5377 3.23437 19.4503 3.23437 20.3906C4.00781 20.3906 4.78125 20.3906 5.57812 20.3906C5.57812 19.478 5.57812 18.5653 5.57812 17.625C4.80469 17.625 4.03125 17.625 3.23437 17.625ZM6.42187 17.625C6.42187 18.5377 6.42187 19.4503 6.42187 20.3906C7.19531 20.3906 7.96875 20.3906 8.76562 20.3906C8.76562 19.478 8.76562 18.5653 8.76562 17.625C7.99219 17.625 7.21875 17.625 6.42187 17.625Z" fill="#D62828"/>
<path d="M11.6565 -0.013618C11.74 -0.0145152 11.74 -0.0145152 11.8252 -0.0154305C11.8857 -0.0155348 11.9461 -0.0156391 12.0084 -0.0157466C12.1012 -0.0162146 12.1012 -0.0162146 12.1958 -0.0166922C12.3269 -0.017254 12.458 -0.0174271 12.589 -0.0173717C12.7569 -0.0173621 12.9246 -0.0186411 13.0925 -0.0202565C13.2216 -0.0212998 13.3506 -0.0214891 13.4797 -0.0214395C13.5716 -0.0216038 13.6636 -0.0226198 13.7555 -0.0236473C13.8395 -0.0232147 13.8395 -0.0232147 13.9251 -0.0227733C13.9744 -0.0229069 14.0237 -0.0230405 14.0744 -0.0231781C14.2366 0.0060315 14.2908 0.0586752 14.3906 0.1875C14.4607 0.442071 14.4209 0.619361 14.319 0.855286C14.3002 0.90141 14.3002 0.90141 14.281 0.948465C14.2411 1.04571 14.2002 1.14247 14.1592 1.23926C14.1318 1.30548 14.1045 1.37174 14.0772 1.43802C14.0106 1.59965 13.9431 1.76086 13.875 1.92188C13.905 1.92256 13.935 1.92324 13.9659 1.92395C14.1026 1.92745 14.2393 1.93198 14.376 1.93652C14.4232 1.93758 14.4704 1.93864 14.5191 1.93973C14.9562 1.9556 14.9562 1.9556 15.1406 2.10938C15.2367 2.2317 15.2348 2.29099 15.2235 2.4479C15.1838 2.64296 15.1191 2.76919 15.0161 2.93903C14.9986 2.96828 14.9811 2.99753 14.963 3.02766C14.9055 3.12326 14.8473 3.21836 14.7891 3.31348C14.7485 3.38066 14.7079 3.44788 14.6674 3.51512C14.5642 3.68626 14.4603 3.857 14.3562 4.02764C14.2666 4.17469 14.1776 4.32205 14.0885 4.46942C13.9589 4.68378 13.8285 4.8976 13.6978 5.11121C13.5759 5.31089 13.4563 5.51158 13.339 5.71401C13.2678 5.83676 13.1959 5.95907 13.124 6.08136C13.0899 6.13976 13.0561 6.19837 13.0228 6.2572C12.9766 6.33862 12.9291 6.41927 12.8815 6.49988C12.8549 6.54602 12.8283 6.59216 12.8009 6.6397C12.672 6.78514 12.5637 6.8095 12.375 6.84375C12.2099 6.80249 12.1063 6.74154 12 6.60938C11.9074 6.10912 12.0658 5.52457 12.1406 5.02734C12.1542 4.93506 12.1678 4.84278 12.1813 4.75049C12.2142 4.5263 12.2476 4.3022 12.2812 4.07813C12.2456 4.07769 12.2099 4.07725 12.1731 4.0768C12.0109 4.07428 11.8487 4.07036 11.6865 4.06641C11.6304 4.06574 11.5742 4.06508 11.5163 4.06439C11.435 4.06213 11.435 4.06213 11.352 4.05981C11.2772 4.05834 11.2772 4.05834 11.201 4.05684C11.0312 4.02546 10.9516 3.96216 10.8281 3.84375C10.665 3.51741 10.8152 2.98678 10.8583 2.63892C10.8664 2.57282 10.8745 2.50672 10.8825 2.44063C10.8994 2.30287 10.9165 2.16515 10.9337 2.02744C10.9557 1.85135 10.977 1.67517 10.998 1.49897C11.0144 1.36276 11.0313 1.22661 11.0483 1.09048C11.0564 1.02554 11.0642 0.960582 11.0719 0.895599C11.0827 0.804812 11.0943 0.714117 11.1059 0.623429C11.1122 0.571927 11.1186 0.520425 11.1251 0.467363C11.1974 0.144322 11.3276 -0.011229 11.6565 -0.013618ZM11.9531 0.84375C11.913 1.15492 11.8729 1.4661 11.833 1.7773C11.8194 1.8832 11.8057 1.9891 11.792 2.09499C11.7724 2.24705 11.7529 2.39913 11.7334 2.55121C11.7272 2.59867 11.7211 2.64614 11.7148 2.69504C11.7091 2.73914 11.7035 2.78324 11.6977 2.82867C11.6927 2.8675 11.6877 2.90632 11.6826 2.94633C11.6694 3.05333 11.6694 3.05333 11.6719 3.1875C11.73 3.18816 11.73 3.18816 11.7894 3.18883C11.9651 3.19134 12.1407 3.19527 12.3164 3.19922C12.3774 3.19988 12.4385 3.20055 12.5013 3.20123C12.56 3.20274 12.6186 3.20425 12.679 3.20581C12.733 3.20679 12.787 3.20777 12.8426 3.20879C13.0117 3.23931 13.0678 3.28777 13.1719 3.42188C13.1918 3.51599 13.1918 3.51599 13.1865 3.61523C13.1849 3.65155 13.1833 3.68787 13.1816 3.72528C13.1655 3.92139 13.1478 4.11705 13.125 4.3125C13.3194 4.07834 13.4713 3.82575 13.6271 3.56492C13.676 3.48298 13.7254 3.40129 13.7748 3.31961C13.8057 3.2681 13.8366 3.21659 13.8684 3.16351C13.9108 3.09284 13.9108 3.09284 13.9541 3.02075C14.023 2.91416 14.023 2.91416 14.0156 2.8125C13.9724 2.81184 13.9724 2.81184 13.9282 2.81117C13.7972 2.80865 13.6662 2.80473 13.5352 2.80078C13.4898 2.80012 13.4444 2.79945 13.3976 2.79877C13.0689 2.78743 13.0689 2.78743 12.906 2.69312C12.8132 2.52167 12.8082 2.39005 12.8437 2.20313C12.9179 1.97254 13.0087 1.74984 13.1016 1.52637C13.1385 1.4358 13.1752 1.34517 13.2119 1.25451C13.245 1.17305 13.2785 1.09176 13.312 1.01048C13.3622 0.904836 13.3622 0.904836 13.3594 0.84375C12.8953 0.84375 12.4312 0.84375 11.9531 0.84375Z" fill="#D62828"/>
<path d="M16.8649 -0.013618C16.9206 -0.0142161 16.9763 -0.0148142 17.0337 -0.0154305C17.0939 -0.0155348 17.1541 -0.0156391 17.2161 -0.0157466C17.2779 -0.0160586 17.3397 -0.0163707 17.4033 -0.0166922C17.5341 -0.0172534 17.6649 -0.0174272 17.7957 -0.0173717C17.9632 -0.0173621 18.1306 -0.0186423 18.298 -0.0202565C18.4579 -0.0215505 18.6178 -0.0214949 18.7777 -0.021606C18.8378 -0.0222796 18.8979 -0.0229533 18.9598 -0.0236473C19.0156 -0.0233589 19.0715 -0.0230704 19.129 -0.0227733C19.1781 -0.0229069 19.2273 -0.0230405 19.2779 -0.0231781C19.4393 0.00597002 19.4935 0.0601315 19.5938 0.1875C19.6706 0.423455 19.6135 0.593226 19.5222 0.814087C19.5033 0.861871 19.5033 0.861871 19.4841 0.91062C19.4442 1.01164 19.4032 1.11226 19.3623 1.21289C19.3349 1.28159 19.3076 1.35032 19.2804 1.41907C19.2137 1.58696 19.1461 1.7545 19.0781 1.92188C19.1081 1.92256 19.1382 1.92324 19.1691 1.92395C19.3058 1.92745 19.4424 1.93198 19.5791 1.93652C19.6263 1.93758 19.6735 1.93864 19.7222 1.93973C20.1593 1.9556 20.1593 1.9556 20.3438 2.10938C20.4399 2.2317 20.4379 2.29099 20.4266 2.4479C20.387 2.64296 20.3222 2.76919 20.2192 2.93903C20.2017 2.96828 20.1842 2.99754 20.1661 3.02768C20.1087 3.12327 20.0504 3.21837 19.9922 3.31348C19.9517 3.38056 19.9112 3.44767 19.8707 3.51481C19.7675 3.68591 19.6637 3.85661 19.5596 4.02719C19.4689 4.17606 19.3786 4.32522 19.2883 4.47437C19.1898 4.63705 19.0912 4.79966 18.9921 4.96201C18.8278 5.23148 18.6646 5.50156 18.5037 5.77313C18.4714 5.82758 18.4391 5.88203 18.4067 5.93647C18.3462 6.03853 18.2859 6.14072 18.2259 6.24306C18.1989 6.28854 18.1719 6.33401 18.1441 6.38086C18.1207 6.42062 18.0973 6.46038 18.0732 6.50134C17.9713 6.65169 17.8743 6.77181 17.7041 6.84082C17.5218 6.84506 17.4075 6.7923 17.25 6.70313C17.1022 6.47667 17.1723 6.22597 17.209 5.97363C17.2155 5.92523 17.2221 5.87683 17.2288 5.82697C17.2508 5.66579 17.2738 5.50477 17.2969 5.34375C17.314 5.22174 17.3312 5.09973 17.3483 4.97772C17.3929 4.66212 17.4383 4.34664 17.4844 4.03125C17.4487 4.03223 17.413 4.03321 17.3762 4.03423C17.214 4.03813 17.0519 4.04057 16.8897 4.04297C16.8335 4.04454 16.7773 4.04611 16.7195 4.04773C16.6652 4.04833 16.611 4.04894 16.5551 4.04956C16.5053 4.05054 16.4555 4.05152 16.4041 4.05254C16.2318 4.02606 16.1553 3.96351 16.0313 3.84375C15.8678 3.51685 16.0191 2.98703 16.0631 2.63892C16.0713 2.57282 16.0795 2.50673 16.0877 2.44063C16.1048 2.30287 16.122 2.16515 16.1394 2.02744C16.1617 1.85133 16.1834 1.67516 16.205 1.49897C16.2217 1.36278 16.2388 1.22663 16.2559 1.09048C16.264 1.02553 16.2721 0.960572 16.28 0.895599C16.2911 0.804838 16.3027 0.714132 16.3143 0.623429C16.3208 0.571927 16.3272 0.520425 16.3339 0.467363C16.359 0.33001 16.3902 0.218326 16.4531 0.0937505C16.6142 -0.0136399 16.6752 -0.0122368 16.8649 -0.013618ZM17.1563 0.84375C17.1161 1.15492 17.076 1.4661 17.0361 1.7773C17.0225 1.8832 17.0088 1.9891 16.9952 2.09499C16.9755 2.24705 16.956 2.39913 16.9365 2.55121C16.9304 2.59867 16.9242 2.64614 16.9179 2.69504C16.9123 2.73914 16.9066 2.78324 16.9008 2.82867C16.8958 2.8675 16.8908 2.90632 16.8857 2.94633C16.8725 3.05333 16.8725 3.05333 16.875 3.1875C16.914 3.18818 16.953 3.18887 16.9933 3.18957C17.1382 3.19244 17.2831 3.19591 17.428 3.1998C17.5215 3.20213 17.6151 3.20374 17.7086 3.20535C17.7674 3.20702 17.8261 3.20868 17.8867 3.21039C17.9409 3.21162 17.9952 3.21284 18.0511 3.21411C18.1875 3.23438 18.1875 3.23438 18.2737 3.30033C18.3688 3.43077 18.3794 3.50401 18.3693 3.66248C18.3671 3.70024 18.3648 3.73801 18.3625 3.77692C18.3598 3.81637 18.3572 3.85583 18.3545 3.89648C18.352 3.9363 18.3496 3.97612 18.3471 4.01715C18.341 4.11562 18.3346 4.21406 18.3281 4.3125C18.5226 4.07834 18.6745 3.82575 18.8302 3.56492C18.8792 3.48298 18.9285 3.40129 18.978 3.31961C19.0088 3.2681 19.0397 3.21659 19.0715 3.16351C19.1139 3.09284 19.1139 3.09284 19.1572 3.02075C19.2262 2.91416 19.2262 2.91416 19.2188 2.8125C19.1755 2.81184 19.1755 2.81184 19.1314 2.81117C19.0003 2.80865 18.8693 2.80473 18.7383 2.80078C18.6929 2.80012 18.6475 2.79945 18.6008 2.79877C18.272 2.78743 18.272 2.78743 18.1091 2.69312C18.0163 2.52167 18.0113 2.39005 18.0469 2.20313C18.1211 1.97254 18.2118 1.74984 18.3047 1.52637C18.3416 1.4358 18.3783 1.34517 18.415 1.25451C18.4481 1.17305 18.4816 1.09176 18.5152 1.01048C18.5654 0.904836 18.5654 0.904836 18.5625 0.84375C18.0984 0.84375 17.6344 0.84375 17.1563 0.84375Z" fill="#D62828"/>
<path d="M15.9375 10.7812C16.4546 10.8765 16.9278 11.1618 17.25 11.5781C17.3557 11.7608 17.4449 11.9482 17.5313 12.1406C17.5622 12.2033 17.5933 12.2659 17.625 12.3281C17.6634 12.3084 17.7019 12.2886 17.7415 12.2682C17.792 12.2426 17.8425 12.2169 17.8945 12.1904C17.9446 12.1649 17.9946 12.1393 18.0461 12.113C18.3489 11.9714 18.6467 11.9865 18.9771 11.9836C19.0424 11.9828 19.1077 11.9815 19.1731 11.9797C19.2678 11.9772 19.3626 11.9763 19.4573 11.9755C19.5138 11.9745 19.5703 11.9736 19.6285 11.9726C19.8245 12.0077 19.8928 12.0812 20.0156 12.2344C20.1138 12.6549 19.951 13.0992 19.7461 13.4619C19.4459 13.9321 19.0427 14.2453 18.498 14.3848C18.2032 14.4447 17.9251 14.4483 17.625 14.4375C17.625 14.7005 17.625 14.9634 17.625 15.2344C17.3466 15.2344 17.0681 15.2344 16.7813 15.2344C16.758 14.8167 16.758 14.8167 16.7344 14.3906C16.657 14.3655 16.5797 14.3404 16.5 14.3145C15.9727 14.1207 15.568 13.7383 15.3311 13.2275C15.1636 12.8342 15.174 12.4557 15.1711 12.0346C15.1703 11.9511 15.169 11.8675 15.1672 11.784C15.1647 11.6632 15.1637 11.5424 15.163 11.4216C15.1619 11.3844 15.1608 11.3472 15.1597 11.3089C15.1605 11.1095 15.1705 11.0371 15.2988 10.8748C15.504 10.7188 15.6906 10.7513 15.9375 10.7812ZM16.0313 11.7187C15.9721 12.4654 15.9721 12.4654 16.2656 13.125C16.4224 13.2897 16.5635 13.4274 16.7813 13.5C16.8292 12.7268 16.8292 12.7268 16.5165 12.0432C16.3664 11.882 16.2402 11.7933 16.0313 11.7187ZM17.8799 13.2451C17.7876 13.3583 17.7467 13.4504 17.7188 13.5937C18.1376 13.617 18.4714 13.5484 18.7969 13.2715C18.9419 13.1394 19.0158 13.0301 19.0781 12.8437C18.5938 12.8063 18.217 12.8736 17.8799 13.2451Z" fill="#D62828"/>
<path d="M3.73535 0.333983C4.27097 0.698511 4.65319 1.2434 4.80176 1.87793C4.90395 2.57169 4.8001 3.21082 4.40625 3.79687C4.00836 4.31465 3.48496 4.68804 2.83612 4.81329C2.118 4.90404 1.44234 4.74235 0.856384 4.31232C0.400183 3.92651 0.0462008 3.40061 -0.0104605 2.79433C-0.0401898 2.29424 -0.036412 1.81769 0.187499 1.35937C0.206835 1.31931 0.226171 1.27925 0.246093 1.23797C0.584131 0.614719 1.09465 0.270391 1.74792 0.0391835C2.43747 -0.116145 3.12825 -0.0192531 3.73535 0.333983ZM1.11328 1.46777C0.844245 1.88093 0.791047 2.27624 0.843749 2.76562C0.88474 2.9236 0.944305 3.0499 1.03125 3.1875C1.05113 3.22013 1.07101 3.25276 1.09149 3.28638C1.35793 3.68121 1.74056 3.89412 2.20312 3.98437C2.60255 4.03894 3.00429 3.90287 3.3338 3.67987C3.66469 3.41502 3.8546 3.09572 3.97266 2.69238C4.02204 2.21089 3.93101 1.80877 3.64673 1.41119C3.36548 1.08164 3.03419 0.867836 2.60229 0.8291C1.9342 0.807635 1.56855 0.999861 1.11328 1.46777Z" fill="#D62828"/>
<path d="M5.09956 4.5027C5.25238 4.56788 5.35369 4.68021 5.46753 4.79755C5.50459 4.8349 5.50459 4.8349 5.54239 4.87301C5.62105 4.95245 5.6992 5.03237 5.77734 5.1123C5.83066 5.16632 5.884 5.22031 5.93738 5.27426C6.068 5.40643 6.19818 5.53903 6.32812 5.67187C6.14821 5.88443 5.96495 6.08667 5.76562 6.28125C5.58241 6.20698 5.45983 6.08126 5.32397 5.9425C5.30031 5.91871 5.27665 5.89491 5.25226 5.87039C5.17707 5.79467 5.1022 5.71863 5.02734 5.64258C4.97628 5.59104 4.92519 5.53953 4.87408 5.48804C4.74914 5.36206 4.62449 5.2358 4.5 5.10937C4.57834 4.94343 4.67032 4.82843 4.79883 4.69629C4.83496 4.65828 4.8711 4.62027 4.90833 4.58111C5.01562 4.5 5.01562 4.5 5.09956 4.5027Z" fill="#D62828"/>
<path d="M1.96875 5.57812C2.24719 5.57812 2.52562 5.57812 2.8125 5.57812C2.8125 6.11953 2.8125 6.66094 2.8125 7.21875C2.53406 7.21875 2.25563 7.21875 1.96875 7.21875C1.96875 6.67734 1.96875 6.13594 1.96875 5.57812Z" fill="#D62828"/>
<path d="M5.57812 1.96875C6.11953 1.96875 6.66094 1.96875 7.21875 1.96875C7.21875 2.24719 7.21875 2.52562 7.21875 2.8125C6.67734 2.8125 6.13594 2.8125 5.57812 2.8125C5.57812 2.53406 5.57812 2.25563 5.57812 1.96875Z" fill="#D62828"/>
<path d="M18.375 19.9688C18.6534 19.9688 18.9319 19.9688 19.2188 19.9688C19.2188 20.2472 19.2188 20.5256 19.2188 20.8125C18.9403 20.8125 18.6619 20.8125 18.375 20.8125C18.375 20.5341 18.375 20.2556 18.375 19.9688Z" fill="#D62828"/>
<path d="M15.1875 19.9688C15.4659 19.9688 15.7444 19.9688 16.0312 19.9688C16.0312 20.2472 16.0312 20.5256 16.0312 20.8125C15.7528 20.8125 15.4744 20.8125 15.1875 20.8125C15.1875 20.5341 15.1875 20.2556 15.1875 19.9688Z" fill="#D62828"/>
</g>
<defs>
<clipPath id="clip0_128_347">
<rect width="24" height="24" fill="white"/>
</clipPath>
</defs>
</svg>
