<svg width="24" height="24" viewBox="0 0 24 24" fill="none" xmlns="http://www.w3.org/2000/svg">
<g clip-path="url(#clip0_128_348)">
<path d="M14.2881 9.90527C14.3547 9.96156 14.42 10.0193 14.4844 10.0781C14.5471 10.1344 14.5471 10.1344 14.6111 10.1918C15.0809 10.6354 15.3981 11.1543 15.6094 11.7656C15.6244 11.8089 15.6393 11.8522 15.6548 11.8967C15.9368 12.8838 15.7667 13.9449 15.2842 14.8334C15.1621 15.0484 15.0264 15.2392 14.8594 15.4219C14.8218 15.4637 14.7843 15.5055 14.7457 15.5486C14.1896 16.1376 13.5128 16.4459 12.75 16.6875C12.8299 16.7037 12.8299 16.7037 12.9115 16.7203C14.3307 17.0164 15.5323 17.6653 16.4531 18.7969C16.6055 18.7288 16.717 18.6423 16.8428 18.5332C17.4682 18.0307 18.2386 17.7368 19.0312 17.625C18.9922 17.6108 18.9531 17.5966 18.9128 17.582C18.0815 17.2725 17.4404 16.8249 17.0478 16.0049C16.747 15.3446 16.7012 14.5034 16.9568 13.8193C17.3056 13.0371 17.815 12.5083 18.5949 12.1529C19.3411 11.8683 20.1794 11.9254 20.9004 12.2477C21.6082 12.6006 22.0811 13.1921 22.3594 13.9219C22.5931 14.6845 22.4912 15.4991 22.1396 16.2041C21.7103 16.9452 21.0516 17.369 20.25 17.625C20.301 17.6358 20.352 17.6466 20.4045 17.6578C21.5641 17.9116 22.6308 18.4952 23.3066 19.502C23.798 20.3125 24.0097 21.0872 24.0164 22.0306C24.0172 22.1112 24.0185 22.1918 24.0203 22.2724C24.0228 22.3894 24.0238 22.5062 24.0245 22.6232C24.0256 22.6591 24.0267 22.6949 24.0278 22.7318C24.0271 22.9061 24.0107 23.0013 23.9058 23.1423C23.7269 23.2797 23.5867 23.2827 23.3699 23.2795C23.31 23.28 23.31 23.28 23.2489 23.2805C23.1145 23.2814 22.9801 23.2806 22.8457 23.2798C22.7486 23.28 22.6515 23.2804 22.5544 23.2809C22.2871 23.2818 22.0198 23.2814 21.7525 23.2806C21.4644 23.2801 21.1763 23.2809 20.8882 23.2816C20.3563 23.2826 19.8244 23.2825 19.2924 23.2818C18.8011 23.2812 18.3097 23.2811 17.8184 23.2814C17.7695 23.2814 17.7695 23.2814 17.7197 23.2814C17.5874 23.2815 17.4552 23.2816 17.323 23.2816C16.0823 23.2824 14.8416 23.2817 13.6009 23.2804C12.4982 23.2793 11.3955 23.2794 10.2928 23.2806C9.0544 23.2818 7.81599 23.2823 6.57757 23.2816C6.4456 23.2815 6.31362 23.2814 6.18164 23.2814C6.13289 23.2813 6.13289 23.2813 6.08316 23.2813C5.59207 23.281 5.10098 23.2814 4.60988 23.2819C4.05157 23.2826 3.49327 23.2824 2.93497 23.2812C2.64994 23.2806 2.36492 23.2803 2.0799 23.2811C1.81921 23.2818 1.55854 23.2814 1.29785 23.2802C1.20332 23.2799 1.10878 23.28 1.01425 23.2806C0.886152 23.2813 0.758144 23.2806 0.630053 23.2795C0.592984 23.28 0.555914 23.2806 0.517721 23.2812C0.33123 23.278 0.243611 23.2571 0.0943037 23.1418C-0.0290613 22.9767 -0.0330855 22.8398 -0.0294828 22.6414C-0.0295959 22.6051 -0.0297096 22.5688 -0.0298261 22.5314C-0.0297803 22.4545 -0.0291524 22.3776 -0.0279836 22.3007C-0.0264014 22.1859 -0.0270087 22.0712 -0.0279264 21.9564C-0.0274214 21.3122 0.0514483 20.6583 0.369138 20.0859C0.393661 20.0396 0.393661 20.0396 0.418679 19.9923C0.97317 18.9607 1.85598 18.1678 2.98059 17.8052C3.23598 17.7302 3.48662 17.6648 3.75 17.625C3.7109 17.6108 3.67181 17.5966 3.63153 17.582C2.80022 17.2725 2.15912 16.8249 1.7666 16.0049C1.46572 15.3446 1.41997 14.5034 1.6756 13.8193C2.02433 13.0371 2.5337 12.5083 3.31366 12.1529C4.05985 11.8683 4.89814 11.9254 5.61914 12.2477C6.32691 12.6006 6.79981 13.1921 7.07812 13.9219C7.31186 14.6845 7.20992 15.4991 6.8584 16.2041C6.42903 16.9452 5.77033 17.369 4.96875 17.625C5.0192 17.6358 5.06966 17.6466 5.12164 17.6578C5.92361 17.8346 6.6282 18.1037 7.26855 18.6337C7.35799 18.7021 7.44585 18.7481 7.54687 18.7969C7.58554 18.7526 7.62422 18.7084 7.66406 18.6628C8.64409 17.5647 9.84244 16.9135 11.2969 16.6875C11.2436 16.6715 11.1903 16.6556 11.1354 16.6392C10.4263 16.4197 9.86403 16.1376 9.32812 15.6094C9.29894 15.5836 9.26975 15.5578 9.23968 15.5312C8.82955 15.1579 8.56953 14.6271 8.39062 14.1094C8.37564 14.0661 8.36065 14.0228 8.34521 13.9783C8.06319 12.9912 8.23327 11.9301 8.71582 11.0416C8.83793 10.8266 8.97362 10.6358 9.14062 10.4531C9.17815 10.4113 9.21567 10.3695 9.25433 10.3264C9.69787 9.85656 10.2168 9.53935 10.8281 9.32812C10.8714 9.31314 10.9147 9.29815 10.9592 9.28271C12.0873 8.9604 13.3517 9.21214 14.2881 9.90527ZM9.84338 11.1669C9.3002 11.8323 9.16055 12.5666 9.23437 13.4062C9.3413 14.1369 9.77094 14.7199 10.333 15.1787C10.9979 15.6684 11.7572 15.8073 12.5677 15.6886C13.2949 15.5452 13.8851 15.0879 14.319 14.4988C14.7585 13.8346 14.8873 13.0602 14.7332 12.2789C14.5324 11.51 14.0203 10.8853 13.3405 10.4797C12.1168 9.8282 10.7518 10.1595 9.84338 11.1669ZM2.86816 13.6992C2.53562 14.1594 2.47717 14.6351 2.53125 15.1875C2.63707 15.6928 2.94115 16.0833 3.35504 16.3824C3.82266 16.6731 4.34869 16.7214 4.88214 16.6097C5.40642 16.4398 5.80324 16.0693 6.06189 15.5879C6.25178 15.1451 6.26251 14.6168 6.11425 14.1592C5.89973 13.6589 5.51301 13.2721 5.01269 13.0576C4.19628 12.7931 3.41221 13.0535 2.86816 13.6992ZM18.1494 13.6992C17.8169 14.1594 17.7584 14.6351 17.8125 15.1875C17.9183 15.6928 18.2224 16.0833 18.6363 16.3824C19.1039 16.6731 19.6299 16.7214 20.1634 16.6097C20.6877 16.4398 21.0845 16.0693 21.3431 15.5879C21.533 15.1451 21.5438 14.6168 21.3955 14.1592C21.181 13.6589 20.7943 13.2721 20.2939 13.0576C19.4775 12.7931 18.6935 13.0535 18.1494 13.6992ZM10.7344 17.8125C10.7051 17.8218 10.6758 17.8311 10.6456 17.8407C9.38426 18.2508 8.43427 19.0738 7.80468 20.2396C7.47872 20.917 7.35937 21.5594 7.35937 22.3125C10.4222 22.3125 13.485 22.3125 16.6406 22.3125C16.6406 20.9676 16.1453 19.8694 15.214 18.9142C14.173 17.9279 12.9289 17.633 11.5327 17.6657C11.2542 17.6778 11.0004 17.7267 10.7344 17.8125ZM2.01562 19.5C1.97266 19.5364 1.97266 19.5364 1.92883 19.5736C1.2889 20.1551 0.996056 21.0012 0.937497 21.8437C0.937497 21.9984 0.937497 22.1531 0.937497 22.3125C2.73187 22.3125 4.52625 22.3125 6.375 22.3125C6.40593 21.9877 6.43687 21.6628 6.46875 21.3281C6.56001 20.9001 6.67234 20.5061 6.84137 20.1031C6.89331 19.9614 6.92713 19.8383 6.9375 19.6875C6.69208 19.218 5.93446 18.9089 5.45855 18.7487C4.22362 18.4005 2.98191 18.6314 2.01562 19.5ZM17.25 19.5C17.1958 19.5432 17.1958 19.5432 17.1405 19.5873C17.0485 19.6836 17.0485 19.6836 17.066 19.8188C17.1143 19.9858 17.1754 20.145 17.2412 20.3057C17.3515 20.5885 17.4355 20.8701 17.499 21.167C17.5065 21.2006 17.5139 21.2343 17.5216 21.2689C17.5923 21.6197 17.6006 21.9467 17.625 22.3125C19.4194 22.3125 21.2137 22.3125 23.0625 22.3125C23.0625 21.2509 22.8325 20.3942 22.0953 19.6099C21.4211 18.9423 20.5896 18.5956 19.6436 18.5859C18.7317 18.5953 17.9311 18.8814 17.25 19.5Z" fill="#D62828"/>
<path d="M11.9736 0.729492C12.0084 0.728586 12.0431 0.727679 12.0789 0.726746C12.2428 0.761854 12.304 0.815115 12.4219 0.9375C12.5251 1.10886 12.6111 1.2874 12.6973 1.46777C12.734 1.54315 12.734 1.54315 12.7716 1.62005C12.8431 1.76724 12.9139 1.9148 12.9844 2.0625C13.0035 2.10209 13.0225 2.14167 13.0422 2.18246C13.3125 2.74355 13.3125 2.74355 13.3125 2.85938C13.3472 2.8615 13.382 2.86363 13.4178 2.86582C13.8201 2.8933 14.2172 2.94063 14.6159 2.99962C14.7198 3.01481 14.8239 3.02896 14.928 3.04312C14.995 3.05292 15.062 3.06277 15.1289 3.07269C15.2185 3.0855 15.2185 3.0855 15.3098 3.09857C15.4849 3.14489 15.5754 3.20116 15.7031 3.32812C15.762 3.50461 15.7744 3.61079 15.75 3.79688C15.5858 4.04946 15.3432 4.24389 15.1183 4.44049C14.4727 4.95289 14.4727 4.95289 14.1498 5.66125C14.1691 5.8719 14.2291 6.0653 14.3036 6.26255C14.3665 6.43875 14.3938 6.6185 14.4229 6.80273C14.4315 6.85148 14.4315 6.85148 14.4404 6.90121C14.5345 7.43327 14.5345 7.43327 14.4844 7.6875C14.3812 7.82329 14.3069 7.89342 14.1562 7.96875C13.7669 7.96362 13.4913 7.81639 13.1543 7.63184C13.1046 7.60534 13.055 7.57884 13.0038 7.55154C12.8072 7.44638 12.6112 7.34109 12.4189 7.22816C12.3738 7.20203 12.3288 7.1759 12.2823 7.14899C12.2426 7.12522 12.2028 7.10146 12.1618 7.07697C12.0207 7.02083 11.9557 7.03233 11.8125 7.07812C11.7158 7.11863 11.7158 7.11863 11.6228 7.17041C11.5874 7.18927 11.5521 7.20813 11.5156 7.22756C11.4783 7.24786 11.4409 7.26815 11.4023 7.28906C11.3634 7.30978 11.3244 7.3305 11.2843 7.35184C11.0877 7.45656 10.8922 7.56311 10.6978 7.67175C10.6625 7.69118 10.6271 7.71061 10.5908 7.73062C10.5242 7.76732 10.4579 7.80458 10.392 7.8425C10.1863 7.95534 10.0371 7.99286 9.79688 7.96875C9.66614 7.91065 9.58859 7.86166 9.50098 7.74902C9.41718 7.46717 9.4776 7.16314 9.53027 6.88C9.53964 6.82718 9.53964 6.82718 9.54919 6.77328C9.56895 6.66195 9.58912 6.5507 9.60938 6.43945C9.6296 6.32787 9.64973 6.21627 9.66956 6.10462C9.68184 6.0355 9.69435 5.96642 9.70712 5.89739C9.78094 5.57073 9.78094 5.57073 9.6981 5.26423C9.66152 5.2328 9.66152 5.2328 9.62421 5.20074C9.59654 5.17613 9.56887 5.15151 9.54037 5.12615C9.50997 5.10031 9.47956 5.07447 9.44824 5.04785C9.38411 4.99041 9.32009 4.93285 9.25616 4.87518C9.22226 4.84492 9.18835 4.81465 9.15342 4.78347C8.96791 4.61637 8.78686 4.44507 8.60742 4.27148C8.57259 4.2392 8.53776 4.20691 8.50187 4.17365C8.34614 4.02197 8.2335 3.90933 8.20148 3.68903C8.20339 3.48777 8.22092 3.39443 8.34375 3.23438C8.59574 3.12414 8.8329 3.06488 9.10437 3.02875C9.13959 3.02374 9.17481 3.01874 9.21109 3.01359C9.28488 3.00319 9.3587 2.993 9.43254 2.98301C9.54503 2.96776 9.6574 2.95184 9.76978 2.93582C9.84191 2.92574 9.91406 2.9157 9.98621 2.9057C10.0195 2.90102 10.0527 2.89633 10.087 2.8915C10.2729 2.86657 10.4531 2.85475 10.6406 2.85938C10.6522 2.82105 10.6638 2.78272 10.6758 2.74323C10.7444 2.54975 10.8303 2.37013 10.9215 2.18646C10.9397 2.14974 10.9578 2.11301 10.9765 2.07518C11.0148 1.99795 11.0532 1.92078 11.0916 1.84365C11.1503 1.7257 11.2083 1.60741 11.2663 1.48911C11.3037 1.41392 11.3411 1.33875 11.3785 1.26361C11.3957 1.22831 11.4129 1.193 11.4306 1.15663C11.5575 0.905117 11.6686 0.730021 11.9736 0.729492ZM11.9531 2.34375C11.929 2.39553 11.929 2.39553 11.9045 2.44835C11.8313 2.60509 11.7574 2.76153 11.6836 2.91797C11.6583 2.97229 11.6331 3.02661 11.6071 3.08258C11.5823 3.13485 11.5575 3.18712 11.532 3.24097C11.5094 3.28908 11.4868 3.33719 11.4635 3.38676C11.3518 3.58431 11.2639 3.68567 11.0438 3.7489C10.9818 3.75982 10.9197 3.76992 10.8574 3.7793C10.8247 3.78481 10.792 3.79033 10.7584 3.79602C10.6567 3.81287 10.555 3.8285 10.4531 3.84375C10.4041 3.85119 10.4041 3.85119 10.354 3.85879C10.1685 3.88667 9.98283 3.9128 9.79688 3.9375C9.87304 4.14241 10.0275 4.26195 10.1865 4.40332C10.7223 4.88572 10.7223 4.88572 10.7812 5.0625C10.7932 5.33975 10.7619 5.59322 10.7109 5.86523C10.6673 6.10084 10.6314 6.32153 10.6406 6.5625C10.7588 6.50403 10.877 6.44541 10.9951 6.38672C11.0281 6.3704 11.0612 6.35409 11.0952 6.33728C11.2534 6.25853 11.4063 6.17827 11.556 6.08423C11.7656 5.97578 11.9525 5.90962 12.1854 5.98137C12.2801 6.02407 12.3696 6.07172 12.46 6.12305C12.5207 6.156 12.5816 6.18884 12.6425 6.22156C12.6737 6.23849 12.7048 6.25543 12.7369 6.27287C12.9403 6.37807 13.1501 6.46966 13.3594 6.5625C13.3534 6.52921 13.3475 6.49592 13.3414 6.46162C13.3146 6.30882 13.2886 6.15588 13.2627 6.00293C13.2534 5.95057 13.244 5.89821 13.2344 5.84427C13.1328 5.23662 13.1328 5.23662 13.2188 4.96875C13.316 4.84772 13.316 4.84772 13.4531 4.73438C13.5125 4.67707 13.5714 4.61922 13.6298 4.56097C13.6608 4.53043 13.6918 4.49988 13.7237 4.46841C13.7552 4.43727 13.7868 4.40612 13.8193 4.37402C13.8518 4.34233 13.8843 4.31064 13.9178 4.27798C13.9484 4.24762 13.9791 4.21726 14.0107 4.18597C14.0386 4.1585 14.0666 4.13103 14.0954 4.10272C14.1664 4.03499 14.1664 4.03499 14.1562 3.9375C14.1191 3.93256 14.082 3.92761 14.0438 3.92252C13.8751 3.89974 13.7066 3.87615 13.5381 3.85254C13.4797 3.84477 13.4213 3.83701 13.3611 3.82901C13.3048 3.821 13.2484 3.813 13.1904 3.80475C13.1386 3.79763 13.0868 3.79051 13.0334 3.78318C12.8416 3.73861 12.707 3.67923 12.5896 3.5176C12.5638 3.46632 12.5638 3.46632 12.5374 3.414C12.5179 3.37596 12.4983 3.33793 12.4782 3.29874C12.4586 3.25913 12.4391 3.21952 12.4189 3.17871C12.3992 3.14001 12.3795 3.10131 12.3592 3.06143C12.3013 2.94753 12.2443 2.83321 12.1875 2.71875C12.1514 2.64666 12.1154 2.57457 12.0793 2.5025C12.0531 2.45011 12.027 2.39773 12 2.34375C11.9845 2.34375 11.9691 2.34375 11.9531 2.34375Z" fill="#D62828"/>
<path d="M19.9453 4.94238C19.9796 4.94136 20.014 4.94033 20.0493 4.93927C20.2129 4.98437 20.2999 5.0645 20.3906 5.20312C20.428 5.29596 20.4628 5.38988 20.4957 5.48438C20.6203 5.82757 20.7403 6.15736 21 6.42188C21.3596 6.58643 21.7393 6.60257 22.1292 6.62494C22.4819 6.64548 22.4819 6.64548 22.6348 6.76849C22.7533 6.91383 22.785 6.98433 22.7812 7.17188C22.686 7.45886 22.538 7.62745 22.3213 7.83398C22.293 7.86184 22.2647 7.8897 22.2355 7.9184C22.1031 8.04753 21.9718 8.16619 21.8227 8.27563C21.6904 8.3794 21.6904 8.3794 21.6826 8.52869C21.6928 8.60247 21.6928 8.60247 21.7031 8.67773C21.7098 8.73151 21.7165 8.78529 21.7234 8.8407C21.7467 8.9803 21.7723 9.11899 21.7998 9.25781C21.9331 9.96243 21.9331 9.96243 21.7939 10.2156C21.6752 10.3296 21.5615 10.3595 21.4019 10.3835C21.1006 10.3771 20.8479 10.1962 20.5928 10.0518C20.4894 9.99347 20.3857 9.93577 20.2817 9.87872C20.2362 9.85295 20.1907 9.82717 20.1439 9.80062C19.9933 9.74119 19.933 9.74584 19.7812 9.79688C19.7022 9.83265 19.6244 9.87145 19.548 9.9126C19.505 9.9355 19.4619 9.9584 19.4176 9.98199C19.3733 10.006 19.3289 10.03 19.2832 10.0547C19.1948 10.1021 19.1063 10.1495 19.0177 10.1968C18.9787 10.2178 18.9397 10.2389 18.8995 10.2606C18.6995 10.3618 18.5028 10.3991 18.2812 10.3594C18.1551 10.2574 18.0724 10.1761 18 10.0312C18.0006 9.94815 18.0053 9.86508 18.0117 9.78223C18.0149 9.72724 18.0181 9.67225 18.0214 9.6156C18.0355 9.46812 18.0711 9.33931 18.1177 9.19885C18.1943 8.93915 18.2579 8.70516 18.1875 8.4375C17.9446 8.06638 17.5972 7.77747 17.2585 7.49594C17.1242 7.37817 17.112 7.33952 17.0947 7.16016C17.1123 6.94887 17.1548 6.85973 17.2969 6.70312C17.5643 6.60781 17.8397 6.57188 18.1201 6.5332C18.1848 6.52378 18.1848 6.52378 18.2508 6.51416C18.4658 6.48386 18.6728 6.46078 18.8906 6.46875C18.9061 6.41527 18.9061 6.41527 18.9219 6.36072C19.0086 6.12031 19.1202 5.89488 19.2334 5.66602C19.2556 5.61967 19.2778 5.57332 19.3007 5.52557C19.5894 4.94176 19.5894 4.94176 19.9453 4.94238ZM19.9219 6.5625C19.8669 6.66198 19.8123 6.76161 19.7578 6.86133C19.7422 6.88961 19.7265 6.91789 19.7104 6.94702C19.6224 7.09754 19.6224 7.09754 19.5938 7.26562C19.3852 7.34197 19.1868 7.38306 18.9668 7.41211C18.9084 7.41996 18.8501 7.42782 18.7899 7.43591C18.7458 7.44159 18.7017 7.44727 18.6562 7.45312C18.6981 7.50304 18.7401 7.55282 18.7822 7.60254C18.8077 7.63281 18.8332 7.66308 18.8595 7.69427C18.9418 7.7901 18.9418 7.7901 19.0693 7.89258C19.2701 8.13352 19.224 8.42332 19.1982 8.72168C19.1899 8.79888 19.1812 8.87604 19.1719 8.95312C19.2305 8.92186 19.2305 8.92186 19.2903 8.88995C19.8161 8.62559 19.8161 8.62559 20.103 8.68286C20.2589 8.73873 20.398 8.81613 20.5384 8.9035C20.6219 8.96089 20.6219 8.96089 20.7188 8.95312C20.711 8.89318 20.7033 8.83324 20.6953 8.77148C20.6873 8.69143 20.6795 8.61135 20.6719 8.53125C20.6646 8.47225 20.6646 8.47225 20.6572 8.41205C20.6439 8.2336 20.6405 8.11177 20.7385 7.95776C20.8219 7.86294 20.9099 7.77594 21 7.6875C21.0634 7.61007 21.1261 7.53209 21.1875 7.45312C21.1361 7.44569 21.0847 7.43826 21.0317 7.4306C20.9635 7.41961 20.8953 7.40856 20.8271 7.39746C20.7933 7.39272 20.7595 7.38797 20.7247 7.38309C20.4832 7.34228 20.3595 7.2775 20.2031 7.07812C20.129 6.94244 20.129 6.94244 20.0713 6.80566C20.0517 6.75992 20.032 6.71418 20.0118 6.66705C19.9976 6.63255 19.9834 6.59805 19.9688 6.5625C19.9533 6.5625 19.9378 6.5625 19.9219 6.5625Z" fill="#D62828"/>
<path d="M4.00781 4.94238C4.04213 4.94136 4.07646 4.94033 4.11182 4.93927C4.27542 4.98437 4.36243 5.0645 4.45312 5.20312C4.49051 5.29596 4.52526 5.38988 4.55823 5.48438C4.68278 5.82757 4.80279 6.15736 5.0625 6.42188C5.42213 6.58643 5.80177 6.60257 6.19171 6.62494C6.54439 6.64548 6.54439 6.64548 6.69727 6.76849C6.8158 6.91383 6.8475 6.98433 6.84375 7.17188C6.74855 7.45886 6.60053 7.62745 6.38379 7.83398C6.35548 7.86184 6.32717 7.8897 6.298 7.9184C6.16559 8.04753 6.03431 8.16619 5.88519 8.27563C5.75292 8.3794 5.75292 8.3794 5.74512 8.52869C5.75527 8.60247 5.75527 8.60247 5.76562 8.67773C5.77233 8.73151 5.77904 8.78529 5.78595 8.8407C5.80922 8.9803 5.83483 9.11899 5.8623 9.25781C5.99558 9.96243 5.99558 9.96243 5.85645 10.2156C5.73767 10.3296 5.62397 10.3595 5.46442 10.3835C5.16313 10.3771 4.91038 10.1962 4.65527 10.0518C4.55191 9.99347 4.44823 9.93577 4.34418 9.87872C4.2987 9.85295 4.25322 9.82717 4.20636 9.80062C4.0558 9.74119 3.99554 9.74584 3.84375 9.79688C3.76467 9.83265 3.6869 9.87145 3.61047 9.9126C3.56745 9.9355 3.52443 9.9584 3.4801 9.98199C3.43575 10.006 3.3914 10.03 3.3457 10.0547C3.25725 10.1021 3.16875 10.1495 3.0802 10.1968C3.04119 10.2178 3.00218 10.2389 2.96198 10.2606C2.76199 10.3618 2.56528 10.3991 2.34375 10.3594C2.21761 10.2574 2.13491 10.1761 2.0625 10.0312C2.06306 9.94815 2.06777 9.86508 2.07422 9.78223C2.07742 9.72724 2.08062 9.67225 2.08392 9.6156C2.09799 9.46812 2.13363 9.33931 2.18024 9.19885C2.25681 8.93915 2.32045 8.70516 2.25 8.4375C2.00714 8.06638 1.6597 7.77747 1.32097 7.49594C1.18674 7.37817 1.17447 7.33952 1.15723 7.16016C1.17483 6.94887 1.21733 6.85973 1.35938 6.70312C1.62682 6.60781 1.90223 6.57188 2.18262 6.5332C2.24729 6.52378 2.24729 6.52378 2.31326 6.51416C2.52829 6.48386 2.73533 6.46078 2.95312 6.46875C2.96862 6.41527 2.96862 6.41527 2.98444 6.36072C3.0711 6.12031 3.18267 5.89488 3.2959 5.66602C3.3181 5.61967 3.34031 5.57332 3.36319 5.52557C3.65194 4.94176 3.65194 4.94176 4.00781 4.94238ZM3.98438 6.5625C3.92945 6.66198 3.8748 6.76161 3.82031 6.86133C3.80466 6.88961 3.78901 6.91789 3.77289 6.94702C3.68495 7.09754 3.68495 7.09754 3.65625 7.26562C3.44774 7.34197 3.24925 7.38306 3.0293 7.41211C2.97093 7.41996 2.91256 7.42782 2.85242 7.43591C2.80831 7.44159 2.7642 7.44727 2.71875 7.45312C2.76061 7.50304 2.80264 7.55282 2.84473 7.60254C2.87023 7.63281 2.89573 7.66308 2.922 7.69427C3.00432 7.7901 3.00432 7.7901 3.13184 7.89258C3.33262 8.13352 3.28647 8.42332 3.26074 8.72168C3.25238 8.79888 3.24374 8.87604 3.23438 8.95312C3.29302 8.92186 3.29302 8.92186 3.35284 8.88995C3.87857 8.62559 3.87857 8.62559 4.16547 8.68286C4.32138 8.73873 4.46055 8.81613 4.60089 8.9035C4.68442 8.96089 4.68442 8.96089 4.78125 8.95312C4.77352 8.89318 4.76578 8.83324 4.75781 8.77148C4.74977 8.69143 4.74197 8.61135 4.73438 8.53125C4.72712 8.47225 4.72712 8.47225 4.71973 8.41205C4.70645 8.2336 4.70302 8.11177 4.80103 7.95776C4.88444 7.86294 4.97241 7.77594 5.0625 7.6875C5.12586 7.61007 5.18857 7.53209 5.25 7.45312C5.19858 7.44569 5.14716 7.43826 5.09418 7.4306C5.02599 7.41961 4.95782 7.40856 4.88965 7.39746C4.85584 7.39272 4.82203 7.38797 4.7872 7.38309C4.54567 7.34228 4.42195 7.2775 4.26562 7.07812C4.19147 6.94244 4.19147 6.94244 4.13379 6.80566C4.11415 6.75992 4.09451 6.71418 4.07428 6.66705C4.06008 6.63255 4.04588 6.59805 4.03125 6.5625C4.01578 6.5625 4.00031 6.5625 3.98438 6.5625Z" fill="#D62828"/>
<path d="M14.0625 19.125C14.2362 19.2317 14.382 19.3618 14.5312 19.5C14.5671 19.5315 14.6029 19.5631 14.6398 19.5956C14.9794 19.9109 15.3341 20.3618 15.4688 20.8125C15.4605 21.0035 15.4177 21.178 15.3018 21.3311C15.1216 21.4003 14.9557 21.4041 14.7656 21.375C14.5402 21.2597 14.4526 21.0579 14.3306 20.846C14.0999 20.4817 13.7756 20.193 13.4517 19.9131C13.3269 19.7982 13.3146 19.7528 13.2949 19.582C13.3181 19.3503 13.3846 19.2873 13.5469 19.125C13.7174 19.0398 13.8839 19.0724 14.0625 19.125Z" fill="#D62828"/>
<path d="M12.2344 18.5625C12.3809 18.6504 12.3809 18.6504 12.4688 18.7969C12.5151 19.0325 12.5052 19.2049 12.3809 19.4121C12.1737 19.5364 12.0012 19.5463 11.7656 19.5C11.6191 19.4121 11.6191 19.4121 11.5313 19.2656C11.4849 19.03 11.4948 18.8576 11.6191 18.6504C11.8263 18.5261 11.9988 18.5161 12.2344 18.5625Z" fill="#D62828"/>
</g>
<defs>
<clipPath id="clip0_128_348">
<rect width="24" height="24" fill="white"/>
</clipPath>
</defs>
</svg>
