<svg width="24" height="24" viewBox="0 0 24 24" fill="none" xmlns="http://www.w3.org/2000/svg">
<path d="M5.01469 17.8341C5.13645 17.8894 5.25822 17.941 5.38365 17.989C6.23105 18.3118 7.13011 18.4783 8.03686 18.4797C8.26117 18.4808 8.48529 18.4696 8.70849 18.4466C8.80444 18.4466 8.91137 18.4171 9.02215 18.3949L9.15124 18.3654L9.36163 18.3101L9.47241 18.277C9.55737 18.2512 9.64215 18.2254 9.72711 18.192L9.78991 18.1699C9.89318 18.1292 9.99664 18.0888 10.1036 18.0408C11.5796 17.3876 13.266 16.0113 13.4798 14.0852L13.4797 14.085C13.5381 13.0684 13.413 12.0498 13.1105 11.0777C12.8005 9.81569 12.5054 8.62751 13.1105 7.48366V7.48348C13.1764 7.36941 13.1764 7.2286 13.1105 7.11452C13.0494 7.00503 12.9369 6.93416 12.8117 6.92629C12.0049 6.90798 11.2269 7.22603 10.6641 7.80445C10.524 6.30628 9.52021 4.42453 6.62367 3.32479C6.4726 3.26803 6.30232 3.31582 6.20289 3.44289C6.10639 3.57345 6.10639 3.75161 6.20289 3.88198C6.25086 3.94845 7.36891 5.57571 5.87074 6.97793H5.87092C4.78801 7.96671 4.1043 9.31709 3.9483 10.775C3.79357 10.2187 3.7141 9.64395 3.71209 9.06645C3.70916 8.92308 3.6231 8.79435 3.49181 8.73649C3.36034 8.67881 3.20745 8.70243 3.0996 8.7971C3.01848 8.87089 1.11435 10.6421 2.15132 14.4244V14.4246C2.54115 15.9371 3.59751 17.1903 5.02204 17.8304L5.01469 17.8341ZM7.28409 14.6938C7.27457 14.6524 7.26212 14.6118 7.24711 14.572C7.10319 14.096 6.8007 12.7271 7.66404 11.8156H7.66422C7.64097 12.3484 7.82773 12.8692 8.18444 13.2658C8.80188 13.9929 9.08331 14.9472 8.95933 15.893C8.93846 16.0347 9.00126 16.1757 9.12065 16.2546C9.24003 16.3337 9.39438 16.3366 9.51652 16.2621C9.90086 15.9952 10.1955 15.6183 10.3615 15.1809C10.4408 15.804 10.2755 16.4335 9.90029 16.9374C9.80105 17.0979 9.72872 17.2736 9.68624 17.4577C9.49801 17.5315 9.31729 17.5943 9.1439 17.6422C9.06278 17.6644 8.98149 17.6866 8.90403 17.7012C8.82658 17.716 8.74162 17.7307 8.66782 17.7382C7.58182 17.829 6.48978 17.6582 5.48342 17.24C5.45485 17.1449 5.43636 17.0473 5.42794 16.9484C5.40157 16.6339 5.4457 16.3175 5.55721 16.0223C5.73427 15.4614 5.8044 15.026 5.23989 14.2621C5.74909 14.2621 6.38373 14.3729 6.56101 14.8341L6.58683 14.9191L6.58665 14.9189C6.65146 15.1071 6.85398 15.21 7.04423 15.1514C7.23539 15.0895 7.34196 14.8863 7.28409 14.6938ZM2.85239 14.2141C2.30255 12.1994 2.66049 10.8561 3.04429 10.0997C3.29514 11.8524 4.04788 12.5055 4.08487 12.5389C4.20187 12.6376 4.36777 12.6537 4.5018 12.5795C4.63418 12.5066 4.70871 12.3603 4.69003 12.2104C4.43606 10.4628 5.06319 8.70263 6.36525 7.50929C6.79829 7.13173 7.11178 6.63587 7.26703 6.08251C7.42248 5.52934 7.41296 4.94289 7.23974 4.39501C10.6604 6.14401 9.98503 9.01862 9.91124 9.28782V9.30998C9.88433 9.40428 9.89605 9.50554 9.94384 9.59141C9.99163 9.67729 10.0715 9.74046 10.1659 9.76737C10.3626 9.8234 10.5675 9.70951 10.6235 9.51286V9.45756C10.714 9.05253 10.9134 8.68009 11.2001 8.38037C11.4871 8.08045 11.8503 7.86475 12.2508 7.75637C11.8597 8.94456 12.1512 10.1181 12.4315 11.2619C12.7084 12.1507 12.8259 13.0814 12.7785 14.011C12.6419 15.2435 11.7489 16.2249 10.7638 16.8708C11.5017 15.3948 10.9226 14.2066 10.4723 13.749C10.3685 13.6432 10.2116 13.6099 10.0737 13.6641C9.93452 13.7195 9.8426 13.8538 9.84114 14.0035C9.84151 14.3029 9.78511 14.5997 9.67525 14.878C9.58095 14.0945 9.25026 13.3582 8.72678 12.7674C8.5391 12.5405 8.42502 12.2618 8.40012 11.9683C8.37503 11.675 8.44003 11.3809 8.5867 11.1255C8.66983 10.9863 8.65262 10.8093 8.54404 10.689C8.43564 10.5685 8.26133 10.5332 8.11429 10.6014C6.54234 11.3174 6.29146 12.69 6.35043 13.6974C5.72329 13.4991 5.05752 13.4548 4.40952 13.5681C4.27677 13.5925 4.16783 13.6873 4.12534 13.8155C4.08268 13.944 4.11381 14.0856 4.20664 14.1845C5.05902 15.0884 4.98153 15.3358 4.83763 15.7786C4.72539 16.1062 4.67173 16.4508 4.67888 16.797C3.77086 16.1923 3.11972 15.2718 2.85239 14.214L2.85239 14.2141Z" fill="#D62828"/>
<path d="M20.9667 16.7714C20.7638 15.9449 20.5978 15.2364 20.9667 14.5575V14.5573C21.0279 14.4458 21.0273 14.3105 20.9651 14.1993C20.9028 14.0882 20.7876 14.0172 20.6604 14.0113C20.1801 14.0005 19.7117 14.1614 19.3394 14.465C19.166 13.5499 18.5387 12.3839 16.6568 11.6718C16.5065 11.6172 16.3382 11.6655 16.2397 11.7917C16.1413 11.9177 16.1355 12.0927 16.225 12.2253C16.4259 12.5027 16.5171 12.8447 16.481 13.1853C16.4449 13.5258 16.284 13.8412 16.0295 14.0702C15.4787 14.5719 15.0788 15.2172 14.8744 15.9337C14.8744 15.8046 14.8523 15.6644 14.8486 15.5168C14.8457 15.3732 14.7596 15.2445 14.6283 15.1868C14.4969 15.129 14.344 15.1526 14.2361 15.2474C14.1808 15.2954 12.8892 16.4872 13.583 19.0187V19.0185C13.8452 20.0347 14.5554 20.8766 15.5129 21.3064C16.1501 21.5858 16.8391 21.7279 17.5349 21.7233C17.6842 21.7241 17.8332 21.7165 17.9815 21.7012H18.0147L18.1881 21.6717L18.4058 21.6201C18.5825 21.5715 18.7552 21.51 18.9224 21.4355C19.915 20.9964 21.033 20.0702 21.1769 18.7786L21.1771 18.7788C21.2284 18.1024 21.1571 17.4223 20.9667 16.7714ZM15.9628 20.5758C15.9526 20.3875 15.9855 20.1995 16.0588 20.0259C16.1888 19.6916 16.1532 19.3153 15.9628 19.0112C16.1569 19.0116 16.3374 19.1102 16.4425 19.2732V19.3285C16.5057 19.5283 16.7188 19.6389 16.9186 19.5757C17.0145 19.5455 17.0944 19.4783 17.1407 19.3889C17.187 19.2998 17.1962 19.1958 17.1658 19.0998C17.1575 19.0698 17.1478 19.0401 17.1363 19.0112C16.9885 18.565 17.0056 18.0806 17.1843 17.6459C17.2418 17.8895 17.3628 18.1136 17.5347 18.2954C17.9081 18.7387 18.0782 19.3184 18.0035 19.8932C17.9804 20.0382 18.0456 20.183 18.1694 20.2621C18.2891 20.3368 18.4409 20.3368 18.5607 20.2621C18.6863 20.1819 18.7974 20.0809 18.889 19.9631C18.8361 20.1607 18.75 20.348 18.6345 20.5167C18.573 20.6141 18.5257 20.7197 18.4942 20.8303C18.3909 20.8673 18.2913 20.9005 18.1954 20.9263H18.1952C18.1084 20.951 18.0194 20.9684 17.9295 20.9779H17.8594H17.8596C17.2231 21.009 16.5872 20.9072 15.9923 20.6791C15.9785 20.6459 15.9686 20.6112 15.9628 20.5758L15.9628 20.5758ZM20.4868 18.6828C20.3912 19.2797 20.0702 19.8172 19.5901 20.1847C19.7767 19.5769 19.6372 18.9161 19.2212 18.4355C19.1174 18.3298 18.9604 18.2965 18.8226 18.3507C18.7015 18.3985 18.6147 18.5063 18.5939 18.6349C18.4827 18.3285 18.3135 18.0467 18.0956 17.8045C17.9913 17.6785 17.9283 17.5236 17.9151 17.3604C17.9019 17.1975 17.9393 17.0342 18.0218 16.8932C18.1136 16.7513 18.0973 16.5652 17.9823 16.4416C17.8673 16.3178 17.6829 16.288 17.5348 16.3691C17.1585 16.5317 16.8397 16.8038 16.6198 17.1499C16.4 17.4959 16.2894 17.9002 16.3023 18.31C15.9278 18.2183 15.5382 18.2056 15.1584 18.2732C15.0215 18.2943 14.9079 18.3902 14.8644 18.5217C14.8208 18.6533 14.8547 18.798 14.9519 18.8967C15.4501 19.4281 15.4131 19.5461 15.3208 19.8007V19.8009C15.2741 19.9451 15.2408 20.0933 15.2212 20.2436C14.7565 19.8785 14.4258 19.3698 14.2803 18.7971C14.0583 18.0943 14.043 17.3425 14.236 16.6311C14.3211 17.0913 14.5423 17.5153 14.8706 17.8488C14.988 17.9466 15.1533 17.962 15.2866 17.8874C15.4201 17.8131 15.4937 17.6642 15.4721 17.513C15.3166 16.4211 15.7136 15.3234 16.5312 14.5831C17.056 14.1239 17.3083 13.427 17.199 12.7382C19.0439 13.8452 18.6528 15.4725 18.6122 15.62H18.6123C18.5667 15.8097 18.6766 16.0022 18.8632 16.0591C19.0577 16.1139 19.26 16.002 19.3171 15.8083C19.4032 15.3915 19.6751 15.0368 20.055 14.8451C19.9512 15.5486 20.0146 16.2666 20.2396 16.9411C20.4232 17.5027 20.507 18.0922 20.4868 18.6828Z" fill="#D62828"/>
</svg>
