<svg width="317" height="152" viewBox="0 0 317 152" fill="none" xmlns="http://www.w3.org/2000/svg">
<path d="M317 140.781V141.373H250.835L247.262 140.806C241.57 139.919 235.236 140.288 231.121 136.097C235.409 138.292 239.13 139.401 244.058 140.165H314.782C315.571 140.19 316.803 140.683 316.975 140.781H317Z" fill="black"/>
<path d="M268.528 119.95C265.029 118.471 252.486 118.742 248.445 119.062L242.481 119.531L224.69 121.306L223.802 118.298C223.531 122.662 223.728 127.346 220.796 131.413L222.891 121.873C220.032 127.863 215.35 124.289 207.81 125.817C206.134 129.589 205.468 133.287 205.468 137.256C202.758 135.604 206.873 128.233 206.208 126.162C206.208 123.475 203.941 120.64 208.154 118.693V124.806C211.777 124.806 215.695 125.004 219.219 124.535C221.609 124.239 222.349 120.492 222.176 118.446C218.332 118.274 213.847 118.224 210.274 118.495C209.411 118.569 206.725 119.432 206.848 118.545L207.686 112.924L210.643 115.537L226.957 110.976L236.173 108.388L233.561 104.172C230.407 103.211 226.957 101.929 225.774 99.069L227.942 97.3926C228.411 97.0228 228.016 95.6423 228.139 94.9273C229.47 93.5468 232.279 94.0891 234.226 93.9412L244.157 93.1523C242.284 91.0075 240.313 93.4235 238.908 91.2048H242.9C243.393 91.2048 244.354 92.0923 244.477 92.5607C244.625 93.1277 243.615 94.4836 242.876 94.5082L228.731 94.8287L230.037 97.368L226.341 99.3402C233.93 105.799 230.899 99.5374 237.799 107.969L236.592 109.522C240.461 108.388 243.738 107.919 247.287 108.437C245.266 110.212 242.802 108.856 240.707 109.472L230.185 112.505C226.415 113.589 224.295 116.622 225.38 120.443L241.989 118.841L251.377 118.126C255.566 117.805 265.399 117.608 268.676 119.309C269.859 121.873 268.898 125.62 266.951 127.642L249.578 127.987C246.03 128.061 242.605 128.504 238.982 128.406C234.892 128.307 231.047 128.529 227.178 129.54L227.647 132.498L226.316 131.241C224.813 129.811 228.312 127.494 234.226 127.789C236.444 127.888 238.711 127.37 240.806 127.346L263.896 127.222C264.807 127.222 266.409 126.951 266.902 126.434C267.493 125.817 267.986 124.264 268.134 123.253L268.602 119.975L268.528 119.95ZM226.119 113.318L232.501 110.582L224.172 112.455L224.271 117.066L226.119 113.294V113.318ZM213.182 117.485C216.656 117.041 219.367 117.213 222.94 117.657L223.581 112.801L211.703 115.981C210.791 116.227 208.992 115.34 208.327 114.847L207.514 118.2L213.182 117.485Z" fill="black"/>
<path d="M244.256 23.0398L246.153 20.5253C245.734 19.0461 244.058 16.2603 242.432 16.211C240.288 16.1617 237.947 17.493 236 17.5916L228.953 17.9367C223.679 18.1832 218.332 18.6763 213.428 21.3388C212.738 24.0999 212.91 27.428 213.502 30.1398C211.875 28.8086 212.319 26.22 212.294 24.2725L210.224 25.5791C209.732 25.8749 208.253 24.8641 208.105 24.2232C207.809 22.6947 208.598 20.895 209.879 20.0815L211.185 16.9999C210.077 15.3235 210.742 13.869 211.284 12.1926C212.023 9.87525 212.344 7.48393 213.872 5.73359L212.639 11.6749C212.467 12.4638 211.654 13.9183 211.013 15.1509L218.43 13.2773C227.006 11.1079 216.952 3.36692 228.928 0.80303C223.753 -0.232387 219.736 2.7506 215.153 4.69817C221.116 -1.19385 229.495 -1.46503 236.05 3.44088C231.885 1.96171 227.794 0.852335 224.073 3.6874C222.127 8.1249 224.073 10.9353 221.19 13.6471L228.09 12.3652C235.877 14.1648 236.099 11.9461 241.693 12.1187L241.471 9.92455C242.555 11.4777 243.196 12.7843 243.664 15.077C240.83 12.8089 239.5 12.3652 236.616 13.7704C234.251 14.9291 230.949 13.6964 228.238 13.7211C224.517 13.7211 220.821 15.077 217.395 16.285C215.079 17.0985 212.565 16.6794 210.84 19.6131C221.437 18.5037 221.782 15.8412 233.043 17.0492C235.877 17.345 239.007 15.5207 241.939 15.2249C244.009 15.0277 246.301 18.1093 246.597 20.0568C246.843 21.7825 245.512 23.1138 244.206 23.0645L244.256 23.0398Z" fill="black"/>
<path d="M244.256 23.0398C243.516 24.0013 241.644 32.6051 241.742 31.0766C241.496 34.9718 241.989 39.7298 242.136 43.8961C240.387 40.1242 240.756 36.6235 241.052 32.2353L238.366 32.5558C238.292 31.8655 237.947 30.6082 237.651 29.3263L240.116 28.3895C240.362 28.2909 240.707 27.4034 240.51 27.2062C240.313 27.0089 239.771 26.6638 239.574 26.8364L238.539 27.7732C238.07 25.727 238.095 22.5468 240.633 23.0891L238.785 25.5791C240.264 26.294 241.323 26.7871 241.422 27.502C241.52 28.2909 240.387 29.3263 239.623 29.5728L238.539 29.9426C238.366 29.9919 238.834 30.8301 239.031 30.8301C239.992 30.8794 241.791 29.7947 242.136 28.9072C242.58 27.7732 242.605 25.8009 241.791 25.2586L240.732 24.5683C240.559 24.4697 240.756 23.6069 240.929 23.7301L242.407 24.7655C242.457 24.0506 241.668 22.2509 240.855 21.9058C237.454 20.4513 237.725 27.2555 235.557 26.7624L237.454 22.5961C238.095 21.1909 240.682 20.6978 241.89 21.8318C242.703 22.5961 243.442 23.0645 244.256 23.0645V23.0398Z" fill="black"/>
<path d="M238.366 32.5311C238.884 41.6773 232.674 44.4631 225.306 48.0871C225.601 50.5277 226.217 53.0669 227.302 55.4336C228.066 57.0607 230.727 57.2825 232.403 56.7648C239.771 54.4475 240.264 47.6186 243.541 50.2565L237.701 56.7895C235.581 59.1561 231.984 61.3749 228.632 59.8464C226.809 59.0082 225.306 56.8634 223.778 55.0145C219.687 56.3211 215.695 58.0221 212.196 60.5367L219.515 57.4798C220.303 57.1593 221.19 59.3534 221.289 60.2162L223.162 76.0186C223.26 76.9555 223.975 79.5193 223.211 80.0371L220.007 82.2311L230.037 79.5933C230.825 79.3961 232.255 79.3468 232.945 79.544C233.733 79.7905 234.399 81.245 234.128 81.9846C233.413 80.752 231.836 79.8645 230.136 80.3575L209.879 86.003C207.415 82.5516 219.909 82.0832 222.817 79.47L221.24 66.7492L220.155 57.9235L212.22 61.9419C211.752 62.1884 210.151 61.6707 210.348 61.227C211.728 57.9728 219.909 55.6308 223.507 54.1023L228.411 58.6877C231.417 60.019 234.744 58.737 236.222 56.4197C233.265 57.3072 230.086 59.0082 227.647 56.6909C225.774 54.8912 225.133 51.711 224.813 48.7527C216.459 43.9207 215.523 38.5957 213.551 30.0659C214.635 30.9534 215.128 31.8409 215.375 33.6898C216.114 38.9655 219.145 44.8822 224.197 47.2735C229.15 46.2134 234.349 42.343 237.011 38.2999C237.356 36.2291 237.134 33.9117 238.415 32.4572L238.366 32.5311Z" fill="black"/>
<path d="M194.429 90.7364L199.875 101.115C197.115 98.0089 195.39 94.6315 193.763 91.1308C194.552 88.5423 204.902 87.3343 208.302 85.2388C207.169 82.4284 207.046 71.6058 206.109 72.1728L204.754 72.9864C202.536 74.3176 199.012 75.7228 196.844 73.4301C191.619 67.9325 193.418 55.8773 199.061 52.1055L197.164 46.1395C200.441 45.8683 199.825 49.2704 201.6 50.1825C202.733 50.7742 203.916 51.6371 204.68 52.3766C209.337 56.8388 205.148 53.8558 207.957 58.7124C211.949 65.5905 207.169 70.1759 207.809 77.8923C208.031 80.5794 208.992 82.9707 208.746 85.7811C204.261 88.3943 200.712 88.0739 194.453 90.7364H194.429ZM196.178 62.7555C199.825 63.0513 203.226 63.9634 205.345 67.193C204.236 68.0065 202.24 68.1298 200.565 67.9079L194.503 67.119L196.104 71.31C196.449 72.1975 197.903 73.4794 198.766 73.7506C199.628 74.0218 201.55 73.5534 202.561 73.1096L207.317 70.9895C209.313 66.6752 209.337 62.0159 206.725 58.1454L205.197 53.7325L203.103 54.2749C202.955 54.3242 203.522 54.5707 203.596 54.7187L204.015 55.7294C201.476 55.3103 199.135 54.3982 196.449 55.7787C198.642 57.7756 201.6 57.6523 204.138 57.6523L204.212 55.3843C204.803 55.335 205.764 57.9975 205.05 58.1947C204.335 58.3919 203.152 58.5891 201.649 58.8357C203.275 59.9697 205.616 60.7586 205.197 63.4211C203.522 63.1992 201.452 62.7555 199.677 62.4843L194.626 61.6954C194.65 62.5089 194.626 63.4211 194.823 63.3471L196.203 62.7801L196.178 62.7555ZM204.557 62.7801C203.152 59.7725 200.121 58.5398 196.918 58.6384C196.178 58.6384 195.488 60.3148 195.759 60.9805C195.956 61.4735 197.287 61.153 197.879 61.2763L204.557 62.7801ZM204.31 67.4148C203.201 64.5551 196.4 62.3364 194.527 64.7277C193.049 66.6259 202.635 67.6614 204.31 67.4148Z" fill="black"/>
<path d="M249.11 95.6916C253.053 96.4065 250.145 106.07 252.092 107.969C256.084 111.864 261.481 112.554 266.705 112.455C272.767 112.332 278.952 111.913 283.659 108.067C286.074 106.12 288.661 103.235 288.07 99.9812C286.394 90.8103 284.078 82.1819 281.564 73.3069C280.357 68.9926 278.41 65.1714 277.547 60.7586C283.141 72.8878 286.148 86.0523 288.711 99.2416C289.45 103.063 287.281 106.144 284.595 108.437C280.554 111.888 275.256 112.628 269.908 113.294C263.723 114.058 256.873 112.924 251.821 108.93C250.022 107.525 251.057 103.876 250.589 101.732L248.79 107.254L249.135 95.7162L249.11 95.6916Z" fill="black"/>
<path d="M268.652 66.8478C262.54 79.5687 279.149 91.7718 265.103 95.1985C265.448 94.4343 267.272 92.4374 266.754 91.6732L263.058 85.9291C261.037 82.7982 261.481 78.7305 261.382 75.1065C261.234 69.7815 261.604 64.6537 263.97 59.9204L268.578 50.7249C263.329 48.5062 257.932 47.3721 252.56 46.8051L254.704 47.7912C255.221 48.0377 255.394 49.2704 255.246 49.8867C251.254 66.6259 250.367 71.9263 254.926 89.4051C251.18 82.9461 251.451 75.5009 251.254 68.0065C250.465 64.8509 255.148 48.7773 254.113 48.4815L252.609 48.0378L248.1 46.7312C249.159 45.819 250.761 45.178 251.845 45.4246L263.625 48.0871C265.67 48.5555 267.691 49.4676 269.465 50.6756L264.438 60.9805C261.456 67.0944 260.372 81.8121 265.226 87.8766C266.434 89.3805 267.272 90.8103 268.282 92.8565C273.161 90.194 267.124 83.3898 266.409 72.8384C266.212 69.9541 268.257 66.9957 268.75 64.21L270.179 56.2718C270.303 55.6062 271.757 54.1763 272.348 54.3489C273.038 54.5461 274.098 55.5815 274.393 56.0992L271.88 55.6555C269.736 55.2857 271.14 61.6707 268.652 66.8725V66.8478Z" fill="black"/>
<path d="M239.623 86.9645C237.331 86.4961 236.616 80.9246 234.793 78.8044C226.833 80.7273 234.891 65.911 236.543 64.3579C234.67 68.9926 232.822 72.9864 231.713 77.6457L235.631 78.3607L239.623 86.9645Z" fill="black"/>
<path d="M247.114 93.1523L251.87 93.5961L259.14 94.0645L256.577 91.6485C258.253 91.895 259.337 92.6593 260.544 94.4096C255.838 94.6561 251.525 95.3464 247.114 93.1523Z" fill="black"/>
<path d="M213.181 117.485L207.514 118.2L208.327 114.847C208.968 115.34 210.767 116.227 211.703 115.981L223.581 112.801L222.94 117.657C219.367 117.213 216.656 117.066 213.181 117.485Z" fill="white"/>
<path d="M226.119 113.318L224.271 117.09L224.172 112.455L232.501 110.582L226.119 113.318Z" fill="white"/>
<path d="M196.178 62.7555L194.798 63.3225C194.576 63.4211 194.626 62.4843 194.601 61.6707L199.653 62.4596C201.427 62.7308 203.522 63.1992 205.173 63.3964C205.616 60.7339 203.275 59.945 201.624 58.811C203.127 58.5398 204.335 58.3673 205.025 58.17C205.715 57.9728 204.754 55.2857 204.187 55.3596L204.113 57.6277C201.575 57.6277 198.642 57.7509 196.425 55.7541C199.135 54.3735 201.452 55.2857 203.99 55.7048L203.571 54.694C203.522 54.5461 202.93 54.2996 203.078 54.2502L205.173 53.7079L206.701 58.1207C209.313 61.9912 209.288 66.6506 207.292 70.9648L202.536 73.085C201.526 73.5287 199.653 74.0218 198.741 73.7259C197.829 73.4301 196.4 72.1728 196.08 71.2853L194.478 67.0943L200.54 67.8832C202.216 68.1051 204.187 67.9818 205.321 67.1683C203.201 63.9141 199.801 63.0266 196.154 62.7308L196.178 62.7555Z" fill="white"/>
<path d="M204.31 67.4148C202.635 67.6613 193.049 66.6259 194.527 64.7277C196.4 62.3363 203.201 64.5551 204.31 67.4148Z" fill="white"/>
<path d="M204.557 62.7801L197.879 61.2763C197.287 61.153 195.956 61.4735 195.759 60.9805C195.488 60.2902 196.178 58.6384 196.918 58.6384C200.121 58.5645 203.152 59.7971 204.557 62.7801Z" fill="white"/>
<path d="M0 142.556V141.373H140.807C133.242 128.554 131.467 126.853 133.02 111.814C133.71 105.158 136.667 82.1079 141.226 78.8291C142.68 77.769 143.591 77.2266 144.848 76.1419C147.534 73.8739 152.142 71.6305 155.715 73.1836C158.697 74.4902 160.57 78.2374 161.876 81.1957C166.41 91.4759 169.811 101.781 173.113 112.554C173.926 115.192 174.197 118.249 173.483 120.887C173.236 121.799 170.649 121.676 169.589 121.799L152.019 123.771C152.586 127.987 156.282 130.008 160.25 129.589L173.507 128.159C173.975 131.315 173.951 134.199 173.458 137.281L172.152 145.342C170.033 145.515 167.766 145.737 166.484 146.033C166.213 146.106 166.533 147.388 166.607 147.66C166.681 147.931 165.967 147.388 165.745 147.216C165.597 147.093 165.375 145.761 165.548 145.663C166.804 145.022 169.195 144.825 171.462 144.849L173.458 129.515C170.87 129.515 168.899 129.367 166.805 129.638L160.964 130.353C158.426 130.674 156.233 130.822 154.459 129.121L156.603 133.829C153.867 130.452 151.723 127.321 149.604 123.944L150.959 124.412C151.181 124.486 151.723 123.5 151.97 123.426C153.645 122.908 156.824 122.341 158.845 122.144L169.17 121.158C170.353 121.035 172.029 120.887 172.719 120.369C173.31 119.925 173.532 117.879 173.335 117.066C170.082 104.419 166.041 92.4374 160.718 80.5794C159.56 77.9662 157.859 74.7121 154.976 73.8246C151.157 72.6659 146.105 75.1065 143.912 78.4346C144.75 82.0832 152.635 118.914 145.858 117.238L145.785 118.914C145.144 118.421 144.503 116.277 145.119 116.104L147.041 115.981C150.22 115.784 144.552 83.3405 143.468 80.2343C139.698 86.5454 137.209 106.194 136.593 113.466C135.73 123.697 138.934 132.424 143.838 141.373C136.1 132.597 135.016 119.358 136.273 108.363C137.332 99.2169 139.008 90.5145 141.571 81.8121C141.916 80.6534 142.236 79.7412 142.409 78.4839C135.928 83.9568 133.513 113.195 133.414 121.232C133.291 133.558 146.006 142.483 139.451 142.483H0V142.556Z" fill="black"/>
<path d="M177.056 60.093C174.419 72.7645 178.534 70.3238 175.676 79.9384C175.282 81.245 173.433 83.2912 172.152 83.1926C169.343 82.9954 167.125 79.9631 165.252 78.7058C160.077 75.2544 161.408 69.7322 159.634 65.344C157.687 60.5614 155.37 57.3072 155.715 51.3166C155.937 47.6433 154.902 43.5016 160.348 41.628C164.858 40.0749 171.265 40.4447 175.528 43.9207C177.351 45.3999 177.696 48.5061 178.165 50.7989L179.964 49.5169C182.206 50.3305 183.266 52.8204 183.586 55.6308C185.878 48.728 179.003 41.6773 173.064 39.1874C168.505 37.2645 157.12 37.4617 155.124 40.0995C154.015 41.5541 153.473 43.6002 153.892 45.3506L155.789 53.4614C152.586 52.6725 152.364 49.6402 151.378 47.5447C149.382 43.3537 152.019 41.0857 154.188 38.2999C155.888 36.0811 155.937 31.7916 159.929 31.3478C157.884 33.5666 155.814 34.8485 155.247 38.2506C158.525 37.8068 161.753 36.9193 165.03 36.7468C172.94 36.3277 179.52 41.3075 183.956 47.3228C183.34 43.6002 182.255 39.8284 180.506 36.6975C176.514 29.5728 169.072 26.9103 161.383 30.2877C162.665 28.1183 165.178 28.5127 167.396 28.3155C177.425 27.4773 181.787 35.8839 184.251 44.0933C186.716 52.3027 183.167 61.9912 181.023 57.3318C180.875 57.036 179.742 59.4273 177.746 59.1315C177.154 59.0575 176.588 57.5537 176.711 56.962C176.834 56.2471 178.017 55.7541 179.224 55.261L177.524 54.3735C177.696 53.9051 178.436 52.4259 178.929 51.8343C179.372 51.2919 180.727 51.6864 181.861 51.637C181.294 51.1686 180.333 50.4537 180.21 50.4044L178.362 51.7603C176.095 53.412 179.323 44.118 171.092 42.3676C166.829 41.4555 163.059 40.6173 159.018 43.1565C155.272 45.4985 156.8 48.5554 156.898 55.5815C156.948 59.7232 158.919 63.0266 162.443 65.4919C164.34 66.8232 167.174 66.1329 170.254 65.7138C167.519 68.0065 164.02 67.9818 160.89 65.5412C160.693 73.7999 163.823 76.3884 169.417 81.3436C170.107 81.9353 172.078 82.453 172.817 82.1818C176.933 80.6534 175.405 70.8662 175.331 68.4502C175.282 66.4534 175.75 63.7169 175.848 61.7693C175.405 61.0051 175.208 60.7832 175.306 60.3888C175.429 59.8957 177.154 59.6739 177.056 60.093Z" fill="black"/>
<path d="M178.362 126.187C175.799 127.42 174.37 142.137 173.877 145.515L180.555 147.142C181.368 147.339 182.551 148.596 182.6 149.361C182.65 150.224 181.023 151.727 180.161 151.678L175.232 151.358C174.641 151.308 173.285 150.445 172.891 150.174C172.275 150.544 170.501 151.086 169.786 150.692C168.948 150.248 167.864 149.163 167.396 148.449L171.511 150.347C173.606 144.405 174.296 137.7 174.937 131.364L176.169 119.457L179.298 98.7732C180.826 88.6902 178.608 86.1016 178.51 76.0433L182.6 77.5718C184.72 78.3607 186.765 79.2975 188.194 80.9985C184.941 79.544 182.502 78.3607 178.855 77.202C183.044 96.5051 177.598 108.191 176.045 127.198L178.017 125.595C179.347 124.511 186.321 128.406 187.824 129.441C189.303 114.477 191.57 112.924 191.151 97.0475C191.003 91.5746 190.683 86.6933 188.761 81.5162C190.387 83.1187 190.856 85.3621 191.348 87.6055L194.724 77.5718L195.439 75.5996C196.104 73.7506 199.332 77.6457 204.754 75.7721C201.797 79.618 196.819 75.0325 196.301 75.9693C194.503 79.1989 191.619 88.5669 191.89 93.2756L192.112 96.9489C192.309 100.326 192.605 103.063 193.344 106.44L192.235 105.208L189.968 119.555L187.997 134.742L184.522 148.818C187.529 149.854 191.669 150.445 194.256 150.1C194.971 149.804 196.301 147.955 196.449 147.117L200.072 126.014C200.86 121.404 200.614 117.411 199.431 112.801C204.088 115.685 198.15 142.384 196.967 147.734C196.277 150.889 193.566 151.703 190.856 151.136L184.966 149.878C184.202 149.706 183.734 147.487 183.956 146.698L186.888 136.886C183.611 136.344 180.604 135.826 177.943 134.372C180.851 134.569 183.906 136.122 186.494 135.654C187.8 134.963 188.145 130.92 186.987 129.91C184.818 128.036 181.615 126.853 178.337 126.138L178.362 126.187ZM181.738 149.361C181.615 148.917 180.851 147.931 180.309 147.832L174 146.575C173.778 147.61 173.729 149.903 174.468 150.174C177.204 151.259 182.255 151.234 181.738 149.361Z" fill="black"/>
<path d="M151.551 150.445C152.783 150.223 155.395 150.544 156.479 150.002L163.355 146.673L162.147 141.891C163.502 142.976 164.069 145.416 163.823 147.241L156.676 150.84C155.075 151.653 152.98 151.604 151.551 150.421V150.445Z" fill="black"/>
<path d="M181.738 149.361C182.255 151.234 177.204 151.259 174.468 150.174C173.729 149.878 173.754 147.61 174 146.575L180.309 147.832C180.851 147.931 181.615 148.917 181.738 149.361Z" fill="white"/>
</svg>
