<svg width="24" height="24" viewBox="0 0 24 24" fill="none" xmlns="http://www.w3.org/2000/svg">
<path d="M11.8116 8.0083C13.168 7.97084 14.3704 8.46234 15.3721 9.35742C16.2279 10.1752 16.8034 11.3323 16.8393 12.5239C16.8544 13.4923 16.7493 14.2746 16.3125 15.1406C16.288 15.1897 16.2634 15.2388 16.2382 15.2893C15.6486 16.3764 14.5863 17.191 13.4075 17.5417C12.1444 17.8964 10.8281 17.7684 9.66504 17.1621C8.5038 16.4921 7.72106 15.5049 7.31122 14.2386C7.07479 13.3252 7.05483 12.29 7.35938 11.3906C7.36917 11.3611 7.37897 11.3316 7.38906 11.3012C7.64547 10.546 8.05885 9.9318 8.625 9.375C8.66416 9.3359 8.70331 9.29681 8.74365 9.25653C9.56827 8.47341 10.6879 8.06721 11.8116 8.0083ZM12.2813 8.67187C12.2813 9.22875 12.2813 9.78562 12.2813 10.3594C12.7677 10.3648 12.7677 10.3648 13.2334 10.3125C13.2845 10.3038 13.3355 10.2951 13.3881 10.2861C13.425 10.2794 13.462 10.2726 13.5 10.2656C13.557 10.1307 13.5483 10.0816 13.4929 9.94299C13.2013 9.41351 12.8863 8.87357 12.2813 8.67187ZM11.1123 9.03222C10.934 9.22369 10.801 9.44 10.6699 9.66504C10.6537 9.69289 10.6375 9.72075 10.6207 9.74945C10.534 9.90462 10.4764 10.0421 10.4531 10.2187C10.8793 10.3786 11.2578 10.3594 11.7188 10.3594C11.7188 9.8025 11.7188 9.24562 11.7188 8.67187C11.5203 8.67187 11.2549 8.90798 11.1123 9.03222ZM9.1875 9.70312C9.17203 9.74953 9.15656 9.79593 9.14063 9.84375C9.24016 9.883 9.33979 9.92202 9.43945 9.96093C9.52266 9.99356 9.52266 9.99356 9.60755 10.0269C9.73947 10.0834 9.73947 10.0834 9.84375 10.0781C9.86133 10.0356 9.87892 9.99316 9.89703 9.9494C10.0341 9.62189 10.1768 9.30541 10.3594 9C9.98181 9 9.4401 9.45484 9.1875 9.70312ZM13.6406 9C13.6582 9.03069 13.6758 9.06139 13.6939 9.09301C13.8732 9.41275 14.0218 9.73723 14.1563 10.0781C14.2383 10.0569 14.3204 10.0353 14.4023 10.0137C14.448 10.0017 14.4937 9.98974 14.5408 9.97741C14.6559 9.94237 14.7542 9.90134 14.8594 9.84375C14.7129 9.45915 14.1769 9.20494 13.8263 9.03643C13.7363 8.99424 13.7363 8.99424 13.6406 9ZM8.625 10.3125C8.10291 10.9968 7.8524 11.7087 7.78125 12.5625C8.29172 12.5625 8.80219 12.5625 9.32813 12.5625C9.35906 12.315 9.39 12.0675 9.42188 11.8125C9.45349 11.6273 9.48591 11.4431 9.52149 11.2588C9.53832 11.1706 9.55505 11.0824 9.57166 10.9942C9.57891 10.9565 9.58617 10.9188 9.59365 10.88C9.61306 10.7748 9.61306 10.7748 9.60938 10.6406C9.48934 10.5945 9.36922 10.5486 9.24902 10.5029C9.21522 10.4899 9.18141 10.4769 9.14658 10.4635C8.97362 10.3979 8.8087 10.3411 8.625 10.3125ZM14.8828 10.4502C14.541 10.5905 14.541 10.5905 14.3906 10.6406C14.3963 10.6742 14.402 10.7077 14.4078 10.7422C14.5097 11.3479 14.5956 11.9526 14.6719 12.5625C15.1823 12.5625 15.6928 12.5625 16.2188 12.5625C16.1777 12.0548 16.1777 12.0548 16.0488 11.5811C16.0365 11.5454 16.0243 11.5097 16.0116 11.4729C15.8637 11.0589 15.6756 10.6386 15.375 10.3125C15.1918 10.3125 15.0491 10.381 14.8828 10.4502ZM10.2188 10.8281C10.0505 11.4056 9.98488 11.9624 9.9375 12.5625C10.5253 12.5625 11.1131 12.5625 11.7188 12.5625C11.7188 12.0366 11.7188 11.5106 11.7188 10.9687C11.4005 10.94 11.4005 10.94 11.0822 10.9113C10.7942 10.8852 10.5064 10.8575 10.2188 10.8281ZM13.1386 10.8968C12.854 10.9323 12.5673 10.9483 12.2813 10.9687C12.2813 11.4947 12.2813 12.0206 12.2813 12.5625C12.8691 12.5625 13.4569 12.5625 14.0625 12.5625C14.0151 11.9624 13.9495 11.4056 13.7813 10.8281C13.5614 10.8281 13.3553 10.8625 13.1386 10.8968ZM7.78125 13.1719C7.78125 13.4542 7.80486 13.6537 7.875 13.9189C7.89032 13.9769 7.89032 13.9769 7.90595 14.0361C8.05442 14.5645 8.30011 15.0288 8.625 15.4687C8.96171 15.3621 9.28455 15.2321 9.60938 15.0937C9.60096 15.0453 9.60096 15.0453 9.59237 14.9958C9.52551 14.6037 9.4695 14.2105 9.41602 13.8164C9.38701 13.6037 9.35801 13.391 9.32813 13.1719C8.81766 13.1719 8.30719 13.1719 7.78125 13.1719ZM9.9375 13.1719C9.98373 13.7882 10.0439 14.3607 10.2188 14.9531C10.2492 14.9491 10.2797 14.9451 10.311 14.941C10.4512 14.9225 10.5913 14.9041 10.7314 14.8857C10.7793 14.8794 10.8272 14.8731 10.8766 14.8666C10.9238 14.8604 10.9711 14.8542 11.0198 14.8478C11.0628 14.8422 11.1058 14.8365 11.15 14.8307C11.3394 14.8072 11.5291 14.7867 11.7188 14.7656C11.7188 14.2397 11.7188 13.7137 11.7188 13.1719C11.1309 13.1719 10.5431 13.1719 9.9375 13.1719ZM12.2813 13.1719C12.2813 13.6978 12.2813 14.2237 12.2813 14.7656C12.6697 14.8099 12.6697 14.8099 13.0581 14.854C13.1069 14.8596 13.1557 14.8651 13.2059 14.8709C13.2555 14.8766 13.3051 14.8822 13.3562 14.888C13.4987 14.9061 13.6398 14.9286 13.7813 14.9531C13.8921 14.588 13.958 14.2303 14.001 13.8516C14.0071 13.8014 14.0131 13.7513 14.0194 13.6996C14.0515 13.4364 14.0515 13.4364 14.0625 13.1719C13.4747 13.1719 12.8869 13.1719 12.2813 13.1719ZM14.6719 13.1719C14.6143 13.5939 14.6143 13.5939 14.5569 14.0159C14.5075 14.3763 14.4529 14.7353 14.3906 15.0937C14.7155 15.2321 15.0383 15.3621 15.375 15.4687C15.8712 14.723 16.1436 14.0735 16.2188 13.1719C15.7083 13.1719 15.1978 13.1719 14.6719 13.1719ZM11.0609 15.4058C11.0026 15.4153 11.0026 15.4153 10.9432 15.425C10.8848 15.435 10.8848 15.435 10.8252 15.4453C10.7643 15.4554 10.7643 15.4554 10.7022 15.4656C10.6035 15.482 10.5049 15.4988 10.4063 15.5156C10.6587 16.1214 10.9983 16.7811 11.625 17.0625C11.6559 17.0625 11.6869 17.0625 11.7188 17.0625C11.7188 16.5056 11.7188 15.9487 11.7188 15.375C11.383 15.3714 11.383 15.3714 11.0609 15.4058ZM12.2813 15.375C12.2813 15.9319 12.2813 16.4887 12.2813 17.0625C12.801 16.8892 13.1053 16.5039 13.3594 16.0312C13.4425 15.8613 13.5205 15.69 13.5938 15.5156C13.4542 15.4918 13.3145 15.4684 13.1748 15.4453C13.1359 15.4386 13.0969 15.4319 13.0568 15.425C13.018 15.4186 12.9791 15.4123 12.9391 15.4058C12.904 15.3999 12.8689 15.394 12.8328 15.3879C12.6498 15.3697 12.4651 15.375 12.2813 15.375ZM9.36328 15.8203C9.28751 15.8529 9.28751 15.8529 9.21021 15.8862C9.17178 15.9031 9.13335 15.9201 9.09375 15.9375C9.46058 16.3272 9.88136 16.5543 10.3594 16.7812C10.2792 16.5675 10.1781 16.3665 10.0752 16.1631C10.0581 16.1292 10.0411 16.0952 10.0235 16.0603C9.97926 15.9724 9.93495 15.8846 9.89063 15.7969C9.87516 15.7659 9.85969 15.735 9.84375 15.7031C9.64487 15.7031 9.5435 15.742 9.36328 15.8203ZM14.1563 15.7031C14.1308 15.7585 14.1054 15.8138 14.0792 15.8708C14.0453 15.9438 14.0114 16.0168 13.9775 16.0898C13.9608 16.1263 13.9441 16.1627 13.9269 16.2003C13.845 16.3761 13.7675 16.5386 13.6406 16.6875C13.6561 16.7184 13.6716 16.7494 13.6875 16.7812C14.1397 16.5573 14.5287 16.3235 14.9063 15.9844C14.7856 15.8882 14.676 15.8181 14.5313 15.7646C14.5003 15.7529 14.4694 15.7411 14.4375 15.7289C14.3298 15.6948 14.3298 15.6948 14.1563 15.7031Z" fill="#D62828"/>
<path d="M4.58264 14.7729C4.62673 14.7982 4.67082 14.8234 4.71625 14.8495C4.76643 14.8778 4.81662 14.9062 4.86832 14.9354C4.92176 14.9664 4.97521 14.9974 5.03028 15.0293C5.08661 15.0614 5.14297 15.0934 5.19937 15.1254C5.31557 15.1913 5.43158 15.2576 5.54748 15.3241C5.75777 15.4445 5.96952 15.5622 6.18129 15.68C6.58901 15.907 6.99551 16.1362 7.40039 16.3682C7.43719 16.3891 7.47399 16.41 7.5119 16.4315C7.54556 16.4509 7.57922 16.4703 7.61389 16.4903C7.64301 16.507 7.67213 16.5237 7.70213 16.5409C7.79501 16.6029 7.85402 16.644 7.92188 16.7344C7.93648 16.8541 7.94253 16.9625 7.94231 17.0823C7.94278 17.1176 7.94325 17.1529 7.94374 17.1892C7.94507 17.3061 7.94535 17.4229 7.9455 17.5397C7.94595 17.6209 7.94642 17.7021 7.94692 17.7833C7.94776 17.9536 7.94802 18.1239 7.94794 18.2942C7.94792 18.5124 7.94984 18.7304 7.95226 18.9485C7.95383 19.1163 7.95411 19.284 7.95404 19.4518C7.9542 19.5322 7.95482 19.6126 7.95591 19.693C7.95729 19.8056 7.95689 19.918 7.95604 20.0306C7.95722 20.0803 7.95722 20.0803 7.95843 20.131C7.95596 20.2602 7.94678 20.3611 7.86178 20.462C7.70858 20.5923 7.53656 20.6916 7.36029 20.7872C7.27935 20.8315 7.27935 20.8315 7.19677 20.8766C7.13867 20.908 7.08057 20.9393 7.02246 20.9707C6.96211 21.0036 6.90179 21.0365 6.84148 21.0695C6.71691 21.1375 6.59228 21.2055 6.46761 21.2733C6.17708 21.4316 5.88786 21.5923 5.59864 21.7529C5.54832 21.7808 5.49801 21.8086 5.44617 21.8373C5.39781 21.8642 5.34945 21.891 5.29962 21.9186C5.25279 21.9446 5.20595 21.9705 5.15769 21.9972C5.05886 22.0535 4.96109 22.1117 4.86422 22.1713C4.81515 22.2014 4.76608 22.2315 4.71552 22.2625C4.67183 22.29 4.62815 22.3176 4.58314 22.3459C4.4307 22.4167 4.33826 22.4254 4.17188 22.4063C4.05379 22.36 4.05379 22.36 3.93622 22.2944C3.89193 22.27 3.84765 22.2457 3.80202 22.2206C3.75488 22.1939 3.70775 22.1672 3.65918 22.1397C3.60954 22.1121 3.5599 22.0846 3.50875 22.0562C3.35442 21.9704 3.20061 21.8838 3.04688 21.7969C2.95606 21.7458 2.86524 21.6948 2.77442 21.6438C2.59827 21.5446 2.42241 21.4449 2.24671 21.345C2.04636 21.2311 1.84535 21.1185 1.64392 21.0066C1.59011 20.9767 1.5363 20.9467 1.48086 20.9159C1.37629 20.8577 1.27165 20.7997 1.16695 20.7418C1.11993 20.7157 1.07292 20.6895 1.02448 20.6625C0.982735 20.6394 0.940993 20.6163 0.897986 20.5925C0.796878 20.5313 0.796878 20.5313 0.703128 20.4375C0.692116 20.3191 0.686916 20.2057 0.68579 20.0871C0.685098 20.0509 0.684407 20.0148 0.683695 19.9776C0.681604 19.8577 0.680284 19.7378 0.679141 19.6179C0.6787 19.577 0.67826 19.5361 0.677806 19.4939C0.675574 19.2772 0.673996 19.0604 0.672881 18.8437C0.671582 18.6199 0.667872 18.3963 0.663621 18.1726C0.660816 18.0004 0.659884 17.8284 0.659451 17.6562C0.658908 17.5738 0.657649 17.4913 0.655657 17.4089C0.641035 16.7656 0.641035 16.7656 0.789493 16.5789C0.898709 16.5043 1.00212 16.4544 1.125 16.4063C1.17634 16.3762 1.22768 16.3461 1.28057 16.3151C1.32845 16.2891 1.37633 16.263 1.42566 16.2361C1.45232 16.2215 1.47899 16.2069 1.50646 16.1919C1.563 16.161 1.61959 16.1301 1.67623 16.0993C1.82681 16.0174 1.97705 15.935 2.12732 15.8525C2.15753 15.836 2.18773 15.8195 2.21885 15.8024C2.50414 15.6459 2.78739 15.4859 3.07031 15.3252C3.15716 15.2761 3.24401 15.227 3.33087 15.178C3.47246 15.098 3.61367 15.0174 3.75458 14.9363C3.80818 14.9061 3.86177 14.8759 3.91699 14.8447C3.98234 14.8073 3.98234 14.8073 4.04901 14.7691C4.24053 14.6906 4.39127 14.6929 4.58264 14.7729ZM4.15045 15.4171C4.11402 15.44 4.07758 15.4628 4.04004 15.4863C3.98448 15.5202 3.98448 15.5202 3.9278 15.5548C3.90006 15.5728 3.87233 15.5908 3.84375 15.6094C3.96227 15.7414 4.09575 15.8239 4.24732 15.915C4.27334 15.9307 4.29936 15.9465 4.32617 15.9627C4.47028 16.0497 4.61497 16.1358 4.75963 16.222C4.81977 16.2579 4.8799 16.2938 4.94001 16.3297C4.97006 16.3477 5.00012 16.3656 5.03108 16.3841C5.22691 16.5021 5.41675 16.6261 5.60541 16.7553C5.65289 16.7869 5.70037 16.8185 5.74929 16.8511C5.83831 16.9106 5.92625 16.9719 6.01287 17.0349C6.13709 17.1165 6.22942 17.1724 6.375 17.2031C6.57211 17.1432 6.72992 17.05 6.89063 16.9219C6.91383 16.8755 6.91383 16.8755 6.9375 16.8281C6.60498 16.6416 6.27232 16.4553 5.93956 16.2692C5.8229 16.2039 5.70628 16.1386 5.58969 16.0733C5.44571 15.9926 5.30165 15.9121 5.15753 15.8317C5.0754 15.7858 4.99334 15.7398 4.91129 15.6938C4.83568 15.6516 4.83568 15.6516 4.75855 15.6086C4.71421 15.5839 4.66987 15.5591 4.62419 15.5335C4.39586 15.3983 4.39586 15.3983 4.15045 15.4171ZM3.14063 15.9844C3.14063 16.0308 3.14063 16.0772 3.14063 16.125C3.24628 16.209 3.24628 16.209 3.38654 16.2883C3.41252 16.3039 3.4385 16.3195 3.46528 16.3356C3.55111 16.387 3.63736 16.4377 3.72364 16.4883C3.78295 16.5235 3.84224 16.5588 3.9015 16.5942C4.02394 16.6672 4.14654 16.7399 4.26922 16.8124C4.44643 16.9175 4.62229 17.0247 4.79792 17.1325C4.85193 17.1654 4.90595 17.1984 4.95998 17.2314C5.06231 17.2939 5.16451 17.3566 5.26656 17.4195C5.33541 17.4612 5.33541 17.4612 5.40564 17.5038C5.46602 17.5407 5.46602 17.5407 5.52761 17.5784C5.55975 17.5938 5.59189 17.6092 5.625 17.625C5.65594 17.6095 5.68688 17.5941 5.71875 17.5781C5.71875 17.5472 5.71875 17.5163 5.71875 17.4844C5.62417 17.4146 5.62417 17.4146 5.50031 17.3445C5.45292 17.3164 5.40553 17.2883 5.35671 17.2594C5.30506 17.2292 5.25341 17.1991 5.2002 17.168C5.12024 17.1207 5.04029 17.0734 4.96037 17.026C4.90539 16.9935 4.85038 16.961 4.79534 16.9285C4.51168 16.761 4.23034 16.5897 3.94922 16.418C3.86158 16.3645 3.77393 16.311 3.68628 16.2576C3.6498 16.2353 3.61332 16.213 3.57573 16.1901C3.52278 16.1579 3.52278 16.1579 3.46875 16.125C3.42753 16.0991 3.3863 16.0731 3.34383 16.0464C3.24175 15.9767 3.24175 15.9767 3.14063 15.9844ZM2.22199 16.4985C2.1883 16.5176 2.15461 16.5366 2.11991 16.5562C2.06684 16.5864 2.06684 16.5864 2.0127 16.6172C1.97714 16.6373 1.94158 16.6574 1.90494 16.6782C1.81679 16.7281 1.7287 16.7781 1.64063 16.8281C1.7562 16.9578 1.88208 17.0318 2.03394 17.1149C2.08511 17.1431 2.13627 17.1712 2.18899 17.2003C2.24448 17.2305 2.29997 17.2608 2.35547 17.291C2.47021 17.3539 2.58487 17.4169 2.69953 17.48C2.74304 17.5039 2.74304 17.5039 2.78743 17.5282C2.97972 17.6341 3.17049 17.7422 3.36054 17.8521C3.43325 17.8939 3.43325 17.8939 3.50743 17.9367C3.59884 17.9895 3.69007 18.0426 3.78108 18.0961C4.07489 18.2729 4.07489 18.2729 4.40625 18.3281C4.56029 18.2672 4.56029 18.2672 4.70508 18.1729C4.75475 18.1431 4.80442 18.1133 4.85559 18.0826C4.89294 18.0553 4.93028 18.0281 4.96875 18C4.96875 17.9691 4.96875 17.9381 4.96875 17.9063C4.87271 17.8408 4.77735 17.7817 4.67688 17.7237C4.64634 17.7057 4.6158 17.6877 4.58434 17.6691C4.48415 17.6101 4.38368 17.5517 4.28321 17.4932C4.21467 17.453 4.14616 17.4127 4.07766 17.3724C3.94007 17.2916 3.80238 17.2109 3.66461 17.1304C3.48969 17.028 3.31533 16.9248 3.14118 16.8212C3.09351 16.7928 3.04584 16.7645 2.99673 16.7353C2.90856 16.6828 2.82041 16.6303 2.73228 16.5778C2.69355 16.5548 2.65483 16.5319 2.61493 16.5082C2.58152 16.4884 2.54811 16.4685 2.51369 16.4481C2.38611 16.3781 2.34473 16.429 2.22199 16.4985ZM1.26563 17.3906C1.24707 17.7308 1.23296 18.0709 1.22434 18.4115C1.2202 18.5697 1.2146 18.7276 1.20551 18.8856C1.13924 19.5519 1.13924 19.5519 1.33815 20.1629C1.52272 20.3255 1.73279 20.4146 1.96309 20.4952C2.09645 20.5436 2.21428 20.6116 2.33625 20.6836C2.41582 20.7267 2.49547 20.7697 2.5752 20.8125C2.66225 20.8596 2.74929 20.9067 2.83631 20.9539C2.87898 20.977 2.92166 21.0001 2.96562 21.0239C3.20681 21.1554 3.44643 21.2897 3.68581 21.4244C3.82735 21.5195 3.82735 21.5195 3.98438 21.5625C4.00294 21.2223 4.01704 20.8823 4.02567 20.5417C4.02981 20.3835 4.0354 20.2256 4.04449 20.0675C4.10986 19.4033 4.10986 19.4033 3.91478 18.7919C3.73278 18.6294 3.52251 18.5439 3.29487 18.4626C3.13007 18.4001 2.98348 18.3113 2.83209 18.2219C2.77542 18.1903 2.71862 18.159 2.66172 18.1278C2.54833 18.0655 2.43505 18.003 2.32187 17.9403C2.26539 17.9092 2.2089 17.878 2.15241 17.8469C2.10347 17.82 2.05454 17.793 2.00413 17.7652C1.76118 17.6342 1.5129 17.5133 1.26563 17.3906ZM6.70313 17.7188C6.62793 17.9641 6.63881 18.201 6.65039 18.4541C6.65243 18.5536 6.65367 18.6531 6.65459 18.7527C6.65582 18.8426 6.659 18.9325 6.66227 19.0224C6.65636 19.1691 6.64645 19.241 6.5625 19.3594C6.4518 19.4488 6.3265 19.5132 6.20215 19.582C6.16955 19.6013 6.13695 19.6206 6.10337 19.6404C5.89091 19.7599 5.73418 19.8127 5.48438 19.7813C5.36063 19.6575 5.37645 19.5947 5.37122 19.422C5.36941 19.3694 5.36759 19.3169 5.36573 19.2627C5.36427 19.2076 5.36282 19.1525 5.36133 19.0957C5.35952 19.0402 5.35771 18.9848 5.35584 18.9276C5.35141 18.7903 5.3474 18.653 5.34375 18.5156C5.06986 18.5877 4.79923 18.692 4.59375 18.8906C4.52826 19.0949 4.53895 19.2899 4.54798 19.5026C4.54864 19.5615 4.5493 19.6204 4.54999 19.6811C4.55216 19.837 4.55636 19.9927 4.56157 20.1485C4.56638 20.3078 4.56851 20.4671 4.57086 20.6265C4.57603 20.9386 4.58387 21.2505 4.59375 21.5625C4.76329 21.4959 4.9225 21.4221 5.08301 21.3358C5.13224 21.3094 5.18147 21.2829 5.2322 21.2557C5.28448 21.2274 5.33676 21.1991 5.39063 21.1699C5.44448 21.1408 5.49833 21.1118 5.55382 21.0818C5.90387 20.8922 6.25186 20.6992 6.59766 20.502C6.63748 20.4793 6.6773 20.4566 6.71833 20.4332C6.82321 20.3729 6.92785 20.3128 7.03125 20.25C7.1062 20.2186 7.1062 20.2186 7.18266 20.1865C7.33645 20.0396 7.33382 20.0014 7.34443 19.7959C7.34439 19.6839 7.3428 19.5718 7.33997 19.4597C7.33937 19.3712 7.33937 19.3712 7.33876 19.2808C7.33745 19.1242 7.33493 18.9677 7.33181 18.811C7.32893 18.6511 7.32765 18.4912 7.32624 18.3312C7.32313 18.0177 7.31843 17.7042 7.3125 17.3906C7.09109 17.3906 6.85503 17.5765 6.70313 17.7188ZM6 18.0938C5.94406 18.1394 5.94406 18.1394 5.94781 18.2234C5.94805 18.2585 5.9483 18.2936 5.94855 18.3298C5.9487 18.3677 5.94885 18.4056 5.94901 18.4447C5.9494 18.4845 5.94979 18.5244 5.9502 18.5654C5.95041 18.6055 5.95062 18.6455 5.95084 18.6867C5.95139 18.786 5.95223 18.8852 5.95313 18.9844C5.99953 18.9689 6.04594 18.9534 6.09375 18.9375C6.09375 18.6591 6.09375 18.3806 6.09375 18.0938C6.06282 18.0938 6.03188 18.0938 6 18.0938Z" fill="#D62828"/>
<path d="M8.9769 1.53932C9.01761 1.53909 9.05833 1.53885 9.10028 1.53861C9.23513 1.53793 9.36998 1.53761 9.50483 1.53735C9.59854 1.53708 9.69225 1.53681 9.78596 1.53654C9.98255 1.53605 10.1791 1.53577 10.3757 1.53561C10.6275 1.53535 10.8792 1.53423 11.1309 1.53289C11.3245 1.53202 11.5181 1.53178 11.7118 1.5317C11.8046 1.53156 11.8974 1.53119 11.9901 1.53057C12.1201 1.52977 12.25 1.52986 12.3799 1.53016C12.4181 1.52973 12.4563 1.5293 12.4957 1.52885C12.7245 1.53053 12.879 1.56272 13.0781 1.6875C13.2607 1.88895 13.2712 2.0641 13.2686 2.3291C13.2681 2.38439 13.2677 2.43968 13.2673 2.49664C13.2667 2.539 13.2662 2.58136 13.2656 2.625C13.3252 2.62242 13.3252 2.62242 13.386 2.61979C13.5343 2.61417 13.6826 2.61007 13.831 2.60697C13.895 2.60533 13.959 2.60309 14.023 2.60024C14.5478 2.57745 14.5478 2.57745 14.7218 2.68456C14.7974 2.76962 14.8509 2.8538 14.9063 2.95312C14.9514 3.02109 14.9967 3.08902 15.0419 3.15692C15.0878 3.23042 15.1334 3.30409 15.1787 3.37793C15.2239 3.45076 15.2691 3.52358 15.3144 3.59637C15.338 3.63572 15.3616 3.67507 15.3859 3.71561C15.4688 3.84863 15.4688 3.84863 15.5794 3.98113C15.9377 4.43898 15.9506 4.86975 15.9353 5.43785C15.9316 5.58232 15.9315 5.72649 15.9318 5.871C15.9309 5.96338 15.9297 6.05576 15.9283 6.14813C15.9282 6.191 15.9281 6.23387 15.928 6.27804C15.921 6.48828 15.9113 6.5823 15.7802 6.75396C15.6276 6.86448 15.5466 6.86863 15.3604 6.8584C15.3103 6.85628 15.2602 6.85417 15.2086 6.85199C15.1707 6.84927 15.1328 6.84655 15.0938 6.84375C15.0811 6.87982 15.0684 6.91589 15.0553 6.95306C14.9572 7.17482 14.7524 7.31586 14.5313 7.40625C14.2406 7.44006 13.9812 7.43602 13.7344 7.26562C13.5671 7.12068 13.5076 7.06163 13.4531 6.84375C12.4941 6.84375 11.535 6.84375 10.5469 6.84375C10.5159 6.92109 10.485 6.99843 10.4531 7.07812C10.3771 7.16089 10.3771 7.16089 10.292 7.23047C10.25 7.26563 10.25 7.26563 10.2072 7.30151C9.99012 7.4543 9.72216 7.42554 9.46875 7.40625C9.21552 7.32502 9.05358 7.15431 8.90625 6.9375C8.90625 6.90656 8.90625 6.87562 8.90625 6.84375C8.86837 6.84647 8.83048 6.84918 8.79145 6.85199C8.71631 6.85516 8.71631 6.85516 8.63965 6.8584C8.59016 6.86111 8.54068 6.86383 8.48969 6.86663C8.28825 6.83504 8.23282 6.77059 8.10938 6.60937C8.07563 6.46131 8.07828 6.31687 8.08054 6.16554C8.08028 6.12115 8.08002 6.07676 8.07975 6.03103C8.0792 5.88449 8.08034 5.73802 8.08155 5.59149C8.08163 5.4895 8.08162 5.38752 8.08154 5.28554C8.08162 5.07184 8.0825 4.85817 8.08397 4.64448C8.08583 4.37079 8.08604 4.09713 8.08569 3.82343C8.08554 3.61283 8.08611 3.40224 8.08691 3.19164C8.08724 3.09074 8.08739 2.98984 8.08735 2.88894C8.08743 2.74779 8.08843 2.60667 8.0897 2.46552C8.08956 2.42395 8.08942 2.38237 8.08928 2.33954C8.09253 2.10297 8.11944 1.93964 8.25 1.73437C8.4714 1.53373 8.69132 1.53971 8.9769 1.53932ZM8.71875 2.15625C8.71875 3.0225 8.71875 3.88875 8.71875 4.78125C10.0181 4.78125 11.3175 4.78125 12.6563 4.78125C12.6563 3.915 12.6563 3.04875 12.6563 2.15625C11.3569 2.15625 10.0575 2.15625 8.71875 2.15625ZM13.2656 3.23437C13.2656 4.22437 13.2656 5.21437 13.2656 6.23437C13.4609 6.20789 13.4609 6.20789 13.541 6.05566C13.6772 5.85145 13.8311 5.74902 14.0625 5.67187C14.3247 5.64032 14.543 5.66519 14.7759 5.79272C14.9017 5.89315 14.9673 6.01573 15.0374 6.15893C15.0653 6.19627 15.0653 6.19627 15.0938 6.23437C15.1556 6.23437 15.2175 6.23437 15.2813 6.23437C15.2813 5.80125 15.2813 5.36812 15.2813 4.92187C15.1853 4.92066 15.0893 4.91945 14.9905 4.91821C14.8972 4.91625 14.804 4.91429 14.7108 4.91214C14.6461 4.91082 14.5815 4.90983 14.5168 4.90917C14.4237 4.90816 14.3306 4.90588 14.2376 4.90356C14.1816 4.90258 14.1256 4.9016 14.068 4.90059C13.893 4.86994 13.8363 4.83166 13.7344 4.6875C13.7109 4.57452 13.7109 4.57452 13.7111 4.45019C13.7111 4.40512 13.7111 4.36004 13.711 4.3136C13.712 4.26683 13.7129 4.22006 13.7139 4.17187C13.7135 4.1251 13.7132 4.07833 13.7129 4.03015C13.7163 3.6338 13.7163 3.6338 13.875 3.46875C14.0118 3.44018 14.0118 3.44018 14.165 3.43359C14.2414 3.4296 14.2414 3.4296 14.3194 3.42553C14.3584 3.42433 14.3973 3.42312 14.4375 3.42187C14.4066 3.36 14.3756 3.29812 14.3438 3.23437C13.988 3.23437 13.6322 3.23437 13.2656 3.23437ZM14.2969 4.03125C14.2969 4.12406 14.2969 4.21687 14.2969 4.3125C14.5289 4.3125 14.7609 4.3125 15 4.3125C14.9304 4.17328 14.9304 4.17328 14.8594 4.03125C14.6738 4.03125 14.4881 4.03125 14.2969 4.03125ZM8.71875 5.39062C8.71875 5.66906 8.71875 5.9475 8.71875 6.23437C8.91401 6.20789 8.91401 6.20789 8.99414 6.05566C9.13028 5.85145 9.28418 5.74902 9.51563 5.67187C9.82097 5.63513 10.0593 5.68178 10.3125 5.85937C10.4333 5.98635 10.4916 6.06858 10.5469 6.23437C11.243 6.23437 11.9391 6.23437 12.6563 6.23437C12.6563 5.95593 12.6563 5.6775 12.6563 5.39062C11.3569 5.39062 10.0575 5.39062 8.71875 5.39062ZM9.49512 6.33398C9.40356 6.46713 9.40356 6.46713 9.45704 6.62402C9.47637 6.66559 9.49571 6.70716 9.51563 6.75C9.67029 6.79389 9.67029 6.79389 9.84375 6.79687C9.96057 6.68903 9.96057 6.68903 10.0313 6.5625C9.98091 6.42585 9.94791 6.33852 9.84375 6.23437C9.67456 6.2032 9.62648 6.21947 9.49512 6.33398ZM14.0479 6.31054C13.9542 6.41902 13.9542 6.41902 13.9717 6.56836C14.0047 6.7168 14.0047 6.7168 14.1563 6.79687C14.2889 6.81346 14.361 6.81525 14.4756 6.74414C14.558 6.61406 14.5532 6.5255 14.5313 6.375C14.4537 6.2817 14.4537 6.2817 14.3438 6.23437C14.1597 6.2164 14.1597 6.2164 14.0479 6.31054Z" fill="#D62828"/>
<path d="M21.0879 14.9883C21.5134 15.3 21.7959 15.7193 21.9082 16.2363C21.9935 16.8251 21.8626 17.3576 21.5098 17.8389C21.4241 17.9466 21.333 18.0447 21.2344 18.1406C21.2721 18.1445 21.3098 18.1484 21.3486 18.1523C21.9675 18.2826 22.5602 18.6932 22.9191 19.2089C23.2087 19.6768 23.3189 20.126 23.3172 20.6733C23.3174 20.7201 23.3177 20.7669 23.3179 20.8151C23.3182 20.913 23.3182 21.0108 23.3178 21.1087C23.3174 21.2588 23.3187 21.4088 23.3202 21.5588C23.3203 21.6543 23.3203 21.7498 23.3201 21.8452C23.3206 21.89 23.3212 21.9349 23.3217 21.981C23.3213 22.0225 23.3208 22.064 23.3204 22.1068C23.3204 22.1432 23.3204 22.1797 23.3204 22.2172C23.2969 22.3125 23.2969 22.3125 23.2178 22.3877C23.0853 22.4677 23.0056 22.4708 22.8514 22.471C22.799 22.4714 22.7465 22.4718 22.6925 22.4722C22.6352 22.4719 22.5778 22.4716 22.5188 22.4713C22.4582 22.4716 22.3977 22.4718 22.3353 22.4721C22.1694 22.4727 22.0035 22.4725 21.8376 22.472C21.664 22.4717 21.4903 22.472 21.3167 22.4722C21.0251 22.4725 20.7335 22.4721 20.4419 22.4715C20.1048 22.4707 19.7677 22.4709 19.4306 22.4717C19.1412 22.4724 18.8517 22.4724 18.5623 22.4721C18.3894 22.4719 18.2165 22.4718 18.0437 22.4723C17.851 22.4728 17.6583 22.4721 17.4656 22.4713C17.4083 22.4716 17.3509 22.4719 17.2919 22.4722C17.2132 22.4716 17.2132 22.4716 17.133 22.471C17.0874 22.4709 17.0418 22.4709 16.9949 22.4708C16.8544 22.4501 16.7897 22.4096 16.6875 22.3125C16.6637 22.2178 16.6637 22.2178 16.6632 22.1083C16.6626 22.0671 16.662 22.0259 16.6614 21.9834C16.6618 21.9389 16.6622 21.8944 16.6626 21.8485C16.6624 21.8023 16.6622 21.7561 16.662 21.7085C16.6619 21.6103 16.6623 21.5122 16.663 21.4141C16.664 21.2658 16.6631 21.1177 16.6619 20.9694C16.6606 20.1304 16.7862 19.4777 17.3701 18.835C17.6996 18.5228 18.2842 18.1406 18.75 18.1406C18.7084 18.0946 18.7084 18.0946 18.6659 18.0476C18.2506 17.5679 18.0121 17.087 18.0573 16.4456C18.1239 15.8924 18.3383 15.4714 18.75 15.0937C19.4415 14.5596 20.3487 14.5274 21.0879 14.9883ZM18.9756 15.7646C18.6839 16.129 18.6561 16.4612 18.7031 16.9219C18.7909 17.2474 18.9634 17.5166 19.2436 17.7047C19.5923 17.9014 19.8997 17.9766 20.2969 17.9062C20.6979 17.7772 20.9755 17.5681 21.1875 17.2031C21.3507 16.8439 21.3611 16.5082 21.2316 16.1367C21.0712 15.7534 20.7717 15.4855 20.3906 15.3281C19.8577 15.1778 19.3421 15.3631 18.9756 15.7646ZM17.7012 19.4238C17.3953 19.7853 17.289 20.1509 17.2923 20.6169C17.2924 20.6521 17.2924 20.6872 17.2925 20.7233C17.2928 20.8351 17.2933 20.9468 17.2939 21.0586C17.2942 21.1345 17.2944 21.2104 17.2946 21.2864C17.2951 21.4722 17.296 21.658 17.2969 21.8438C17.5753 21.8438 17.8537 21.8438 18.1406 21.8438C18.1429 21.7636 18.1452 21.6835 18.1476 21.601C18.1511 21.4963 18.1546 21.3917 18.1582 21.2871C18.1604 21.2078 18.1604 21.2078 18.1626 21.1269C18.1644 21.0764 18.1662 21.026 18.1681 20.974C18.1696 20.9274 18.171 20.8807 18.1725 20.8327C18.1875 20.7188 18.1875 20.7187 18.2812 20.625C18.4189 20.6104 18.4189 20.6104 18.5625 20.625C18.7031 20.7656 18.7031 20.7656 18.75 21.8438C19.5698 21.8438 20.3897 21.8438 21.2344 21.8438C21.2498 21.5034 21.2653 21.1631 21.2812 20.8125C21.2967 20.7661 21.3122 20.7197 21.3281 20.6719C21.4576 20.6071 21.56 20.6161 21.7031 20.625C21.825 20.7469 21.8109 20.8041 21.8163 20.974C21.8181 21.0245 21.8199 21.0749 21.8218 21.1269C21.8232 21.1798 21.8247 21.2326 21.8262 21.2871C21.828 21.3403 21.8298 21.3936 21.8317 21.4484C21.8361 21.5802 21.84 21.712 21.8437 21.8438C22.1376 21.8438 22.4316 21.8438 22.7344 21.8438C22.7369 21.6523 22.7388 21.461 22.7402 21.2695C22.7414 21.1894 22.7414 21.1894 22.7426 21.1077C22.7463 20.4511 22.6814 19.8498 22.2173 19.3552C21.7927 18.9433 21.3045 18.7018 20.7187 18.6094C20.6701 18.6016 20.6701 18.6016 20.6204 18.5936C19.5691 18.4524 18.4539 18.6296 17.7012 19.4238Z" fill="#D62828"/>
<path d="M7.18652 5.56347C7.31249 5.625 7.31249 5.625 7.35937 5.71875C7.38558 5.9667 7.38558 5.9667 7.28356 6.09631C7.24864 6.12447 7.21371 6.15263 7.17773 6.18164C7.13881 6.21384 7.0999 6.24605 7.05981 6.27923C6.98343 6.33903 6.9068 6.39854 6.82983 6.45758C5.14005 7.76461 4.08795 9.75522 3.80836 11.86C3.74573 12.3676 3.72227 12.8796 3.76885 13.3896C3.77197 13.4272 3.77509 13.4649 3.77831 13.5037C3.7847 13.5779 3.79215 13.652 3.80078 13.726C3.81709 13.9197 3.80835 14.0004 3.68957 14.1579C3.56249 14.25 3.56249 14.25 3.41308 14.2471C3.28124 14.2031 3.28124 14.2031 3.18749 14.1094C2.68958 12.2331 3.41704 9.96094 4.32488 8.33111C4.43642 8.14093 4.55847 7.96014 4.68749 7.78125C4.70571 7.75594 4.72393 7.73064 4.7427 7.70457C5.02601 7.31474 5.33959 6.95787 5.67187 6.60937C5.70595 6.57281 5.74003 6.53626 5.77514 6.49859C5.97997 6.28504 6.19927 6.09586 6.43066 5.91211C6.47161 5.87942 6.47161 5.87942 6.51339 5.84608C6.94215 5.51275 6.94215 5.51275 7.18652 5.56347Z" fill="#D62828"/>
<path d="M17.101 5.5761C17.3356 5.68839 17.5251 5.87621 17.7188 6.04687C17.7581 6.08101 17.7974 6.11515 17.838 6.15032C19.6473 7.7468 20.7235 9.92554 20.8934 12.3362C20.9094 12.5999 20.9177 12.8609 20.9063 13.125C20.9043 13.1855 20.9024 13.246 20.9004 13.3083C20.8976 13.3722 20.8946 13.4361 20.8916 13.5C20.8889 13.558 20.8862 13.616 20.8834 13.6758C20.8584 13.8344 20.8345 13.9058 20.7188 14.0156C20.4412 14.0503 20.4412 14.0503 20.3107 13.9608C20.2249 13.8395 20.2355 13.7547 20.2396 13.6071C20.2405 13.5532 20.2415 13.4992 20.2425 13.4436C20.244 13.3859 20.2455 13.3281 20.2471 13.2685C20.262 12.0121 20.084 10.8201 19.5938 9.65624C19.5796 9.62231 19.5654 9.58839 19.5507 9.55343C19.2469 8.83997 18.8363 8.18028 18.3281 7.59374C18.2956 7.55604 18.263 7.51833 18.2294 7.47948C17.8227 7.0188 17.4037 6.60363 16.9102 6.23876C16.7131 6.08872 16.7131 6.08872 16.6406 5.99999C16.6104 5.75853 16.6104 5.75853 16.7051 5.63378C16.8497 5.52809 16.9281 5.52266 17.101 5.5761Z" fill="#D62828"/>
<path d="M15.7969 20.3437C15.9111 20.4199 15.9111 20.4199 15.9844 20.5312C15.9814 20.6787 15.9719 20.7715 15.8757 20.886C15.3582 21.3262 14.4267 21.4667 13.7813 21.6094C13.7444 21.6178 13.7075 21.6262 13.6695 21.6348C12.5889 21.8707 11.2953 21.8576 10.2188 21.6094C10.1739 21.5991 10.129 21.5887 10.0827 21.5781C8.87079 21.2927 8.87079 21.2927 8.67188 21.0937C8.65505 20.7909 8.65505 20.7909 8.76563 20.625C9.06468 20.5942 9.30407 20.663 9.58594 20.7568C9.99709 20.887 10.4016 20.9821 10.8281 21.0469C10.8815 21.0554 10.935 21.064 10.99 21.0729C12.4671 21.2494 14.0344 21.0389 15.3776 20.3954C15.529 20.3388 15.6365 20.3284 15.7969 20.3437Z" fill="#D62828"/>
</svg>
