<svg width="24" height="24" viewBox="0 0 24 24" fill="none" xmlns="http://www.w3.org/2000/svg">
<path d="M12.4398 1.65564C12.602 1.73079 12.7578 1.81636 12.9137 1.90354C13.0457 1.97679 13.1789 2.04765 13.3123 2.11835C13.8498 2.40393 14.3825 2.69752 14.9115 2.9985C15.2715 3.20309 15.6334 3.40388 15.9961 3.60352C16.1119 3.66729 16.2278 3.73108 16.3436 3.79486C16.3723 3.81066 16.401 3.82645 16.4306 3.84272C16.8866 4.09391 17.3414 4.3473 17.7964 4.60036C18.0596 4.74668 18.3228 4.89287 18.5859 5.03906C18.6914 5.09766 18.7969 5.15625 18.9023 5.21484C18.9546 5.24385 19.0068 5.27285 19.0605 5.30273C19.2188 5.39062 19.377 5.47852 19.5352 5.56641C19.5874 5.59544 19.6397 5.62448 19.6936 5.6544C19.7984 5.71263 19.9031 5.77088 20.0079 5.82915C20.2528 5.96532 20.4978 6.10128 20.7433 6.23638C20.858 6.29952 20.9726 6.3628 21.0872 6.42609C21.1672 6.47016 21.2472 6.51405 21.3273 6.55792C22.1598 7.01785 22.1598 7.01785 22.3359 7.27441C22.3686 7.32037 22.3686 7.32037 22.4019 7.36725C22.4951 7.52348 22.5059 7.6527 22.5063 7.83036C22.5066 7.90415 22.5066 7.90415 22.5069 7.97944C22.5069 8.06079 22.5069 8.06079 22.5069 8.14378C22.5071 8.20126 22.5072 8.25873 22.5074 8.31794C22.5078 8.47777 22.5081 8.63759 22.5082 8.79742C22.5084 8.96969 22.5088 9.14195 22.5092 9.31422C22.5102 9.73039 22.5106 10.1466 22.511 10.5627C22.5113 10.7587 22.5115 10.9547 22.5117 11.1506C22.5125 11.802 22.5132 12.4534 22.5136 13.1048C22.5137 13.2738 22.5137 13.4429 22.5138 13.6119C22.5139 13.654 22.5139 13.696 22.5139 13.7393C22.5143 14.42 22.5155 15.1006 22.517 15.7813C22.5186 16.4801 22.5194 17.1789 22.5196 17.8777C22.5197 18.27 22.5201 18.6624 22.5213 19.0548C22.5223 19.3889 22.5227 19.7231 22.5222 20.0572C22.522 20.2277 22.5221 20.3981 22.523 20.5686C22.524 20.7535 22.5235 20.9384 22.5229 21.1233C22.5236 21.2039 22.5236 21.2039 22.5244 21.2861C22.5215 21.65 22.4669 21.902 22.2204 22.1832C22.1899 22.2085 22.1594 22.2337 22.1279 22.2598C22.0975 22.2857 22.0671 22.3117 22.0358 22.3385C21.8187 22.4881 21.6334 22.5118 21.3723 22.5121C21.3229 22.5123 21.3229 22.5123 21.2725 22.5126C21.1619 22.513 21.0513 22.5128 20.9407 22.5125C20.8607 22.5127 20.7808 22.5129 20.7008 22.5132C20.4808 22.5138 20.2608 22.5137 20.0408 22.5136C19.8036 22.5136 19.5664 22.5141 19.3292 22.5146C18.8644 22.5154 18.3996 22.5156 17.9348 22.5157C17.5571 22.5157 17.1793 22.5159 16.8016 22.5162C15.731 22.517 14.6604 22.5175 13.5898 22.5174C13.5032 22.5174 13.5032 22.5174 13.4148 22.5174C13.357 22.5174 13.2992 22.5174 13.2396 22.5174C12.3027 22.5173 11.3657 22.5182 10.4287 22.5195C9.46699 22.5209 8.50527 22.5215 7.54355 22.5215C7.00347 22.5214 6.4634 22.5217 5.92332 22.5227C5.46351 22.5235 5.0037 22.5237 4.54388 22.5231C4.30925 22.5228 4.07462 22.5228 3.83999 22.5236C3.62518 22.5243 3.41039 22.5242 3.19558 22.5234C3.11788 22.5233 3.04019 22.5234 2.9625 22.5239C2.51631 22.5267 2.16772 22.5279 1.81677 22.2204C1.79152 22.1899 1.76626 22.1594 1.74024 22.1279C1.71425 22.0975 1.68827 22.0671 1.6615 22.0358C1.53216 21.8481 1.48829 21.6814 1.48794 21.455C1.48749 21.3809 1.48749 21.3809 1.48703 21.3053C1.48717 21.2514 1.48732 21.1974 1.48747 21.1418C1.48725 21.0843 1.48704 21.0267 1.48682 20.9674C1.48633 20.8078 1.48626 20.6482 1.48637 20.4886C1.48639 20.3164 1.48587 20.1442 1.48543 19.972C1.48465 19.6346 1.48439 19.2973 1.48434 18.96C1.48429 18.6858 1.4841 18.4116 1.48381 18.1374C1.48298 17.3599 1.48255 16.5824 1.48262 15.8049C1.48262 15.763 1.48262 15.7211 1.48263 15.6779C1.48263 15.6359 1.48264 15.5939 1.48264 15.5507C1.48268 14.8706 1.48178 14.1905 1.48046 13.5105C1.47911 12.8121 1.47847 12.1137 1.47855 11.4154C1.47858 11.0233 1.47832 10.6313 1.47731 10.2392C1.47646 9.90542 1.47625 9.57162 1.47689 9.23781C1.4772 9.06754 1.4772 8.89729 1.47639 8.72702C1.47551 8.54231 1.4761 8.35762 1.47682 8.17291C1.47634 8.11927 1.47586 8.06562 1.47536 8.01035C1.47832 7.66907 1.52285 7.40123 1.75689 7.14185C2.00646 6.90041 2.33363 6.75153 2.63672 6.58887C2.69737 6.55593 2.758 6.52294 2.81861 6.48991C2.94316 6.42206 3.0678 6.35437 3.19249 6.28679C3.46735 6.13756 3.74047 5.98524 4.01367 5.83301C4.11828 5.77483 4.2229 5.71667 4.32752 5.65851C4.37913 5.6298 4.43075 5.60109 4.48393 5.57151C4.74705 5.42519 5.01025 5.27901 5.27344 5.13281C5.37891 5.07422 5.48438 5.01563 5.58984 4.95703C6.64453 4.37109 7.69922 3.78516 8.75391 3.19922C8.80616 3.17019 8.8584 3.14116 8.91224 3.11125C9.01727 3.0529 9.12232 2.99457 9.22738 2.93627C9.49775 2.78619 9.76789 2.63571 10.0377 2.48456C10.3018 2.33661 10.5665 2.18991 10.8319 2.04419C10.9174 1.99708 11.0027 1.94965 11.0877 1.90173C11.5407 1.64684 11.9223 1.45365 12.4398 1.65564ZM11.5995 2.51971C11.5499 2.54781 11.5002 2.57591 11.449 2.60486C11.3959 2.63567 11.3428 2.66649 11.2881 2.69824C11.2317 2.73035 11.1753 2.76239 11.1189 2.79437C11.0017 2.86084 10.8847 2.92759 10.7678 2.99453C10.5003 3.14741 10.2305 3.29614 9.96094 3.44531C9.85546 3.50389 9.74999 3.56248 9.64453 3.62109C5.21484 6.08203 5.21484 6.08203 5.05647 6.17001C4.95157 6.22829 4.84667 6.28658 4.74178 6.34488C4.49805 6.48033 4.25428 6.61571 4.01034 6.7508C3.89705 6.81354 3.78378 6.87634 3.67051 6.93914C3.59205 6.98261 3.51356 7.02602 3.43506 7.06943C3.18607 7.2075 2.93779 7.34679 2.69074 7.48828C2.64547 7.51414 2.60021 7.54 2.55358 7.56665C2.37015 7.68138 2.37015 7.68138 2.27023 7.86505C2.24794 7.9793 2.24401 8.08398 2.24384 8.20041C2.24366 8.24731 2.24348 8.2942 2.24329 8.34252C2.24334 8.39395 2.24338 8.44537 2.24342 8.49836C2.24328 8.55306 2.24314 8.60777 2.243 8.66414C2.24266 8.81602 2.24253 8.96791 2.2425 9.11979C2.24241 9.28359 2.24206 9.44738 2.24174 9.61118C2.24111 9.96932 2.24082 10.3275 2.24062 10.6856C2.24049 10.9092 2.24029 11.1328 2.24008 11.3564C2.23951 11.9754 2.23902 12.5944 2.23886 13.2135C2.23885 13.2531 2.23884 13.2927 2.23883 13.3335C2.23882 13.3732 2.23881 13.4129 2.2388 13.4538C2.23878 13.5343 2.23876 13.6147 2.23874 13.6952C2.23873 13.7351 2.23872 13.775 2.23871 13.8162C2.23852 14.4631 2.2377 15.1101 2.23661 15.757C2.2355 16.4212 2.23492 17.0853 2.23486 17.7494C2.23482 18.1224 2.23455 18.4953 2.2337 18.8682C2.23298 19.1857 2.23274 19.5032 2.23312 19.8207C2.23331 19.9827 2.23326 20.1447 2.23261 20.3067C2.23201 20.4823 2.23228 20.6579 2.23277 20.8335C2.2324 20.8847 2.23202 20.9359 2.23163 20.9887C2.23346 21.3435 2.23346 21.3435 2.39063 21.6562C2.59187 21.7862 2.82647 21.762 3.05805 21.7592C3.09933 21.759 3.14062 21.7589 3.18315 21.7588C3.31449 21.7582 3.44582 21.7571 3.57715 21.7559C3.66641 21.7554 3.75568 21.755 3.84494 21.7546C4.0633 21.7535 4.28165 21.7519 4.5 21.75C4.50011 21.6912 4.50022 21.6324 4.50034 21.5718C4.50303 20.1765 4.50644 18.7812 4.51073 17.386C4.51126 17.2143 4.51178 17.0427 4.5123 16.8711C4.51241 16.8369 4.51251 16.8028 4.51262 16.7676C4.51428 16.2139 4.51544 15.6602 4.51642 15.1065C4.51744 14.5386 4.51899 13.9707 4.52103 13.4028C4.52228 13.0522 4.52311 12.7016 4.52341 12.351C4.52368 12.0825 4.52469 11.8139 4.52598 11.5454C4.5264 11.435 4.52657 11.3246 4.52649 11.2142C4.52641 11.064 4.52719 10.9138 4.52819 10.7636C4.52796 10.7195 4.52773 10.6754 4.5275 10.63C4.52794 10.5899 4.52838 10.5498 4.52884 10.5084C4.52893 10.4737 4.52902 10.439 4.52911 10.4033C4.55278 10.2823 4.58674 10.2424 4.6875 10.1719C4.79858 10.1542 4.79858 10.1542 4.93282 10.1542C5.00952 10.1536 5.00952 10.1536 5.08778 10.1531C5.14418 10.1534 5.20058 10.1537 5.25869 10.154C5.31843 10.1538 5.37817 10.1536 5.43973 10.1534C5.60589 10.1528 5.77204 10.1531 5.9382 10.1535C6.11727 10.1538 6.29633 10.1533 6.4754 10.1529C6.82632 10.1523 7.17724 10.1524 7.52817 10.1528C7.81329 10.1532 8.09841 10.1532 8.38353 10.1531C8.42406 10.153 8.46459 10.153 8.50635 10.153C8.58868 10.1529 8.671 10.1529 8.75333 10.1529C9.5259 10.1525 10.2985 10.1529 11.071 10.1537C11.7344 10.1543 12.3978 10.1542 13.0611 10.1535C13.8309 10.1528 14.6006 10.1525 15.3704 10.1529C15.4524 10.153 15.5344 10.153 15.6165 10.1531C15.6568 10.1531 15.6972 10.1531 15.7388 10.1531C16.0237 10.1532 16.3086 10.153 16.5934 10.1527C16.9405 10.1523 17.2875 10.1524 17.6345 10.1532C17.8117 10.1535 17.9888 10.1537 18.166 10.1532C18.3578 10.1527 18.5495 10.1533 18.7413 10.154C18.7977 10.1537 18.8541 10.1534 18.9122 10.1531C18.9889 10.1536 18.9889 10.1536 19.0672 10.1542C19.1336 10.1542 19.1336 10.1542 19.2014 10.1542C19.3125 10.1719 19.3125 10.1719 19.397 10.231C19.4662 10.3314 19.4708 10.3871 19.4712 10.5084C19.4716 10.5485 19.472 10.5887 19.4725 10.63C19.4723 10.6741 19.472 10.7182 19.4718 10.7636C19.4721 10.8104 19.4724 10.8573 19.4728 10.9055C19.4736 11.0631 19.4735 11.2208 19.4734 11.3784C19.4738 11.4911 19.4743 11.6038 19.4748 11.7165C19.4759 11.9595 19.4765 12.2025 19.4767 12.4455C19.477 12.7969 19.4781 13.1483 19.4793 13.4996C19.4813 14.0697 19.4827 14.6397 19.4838 15.2097C19.4847 15.7635 19.486 16.3173 19.4877 16.8711C19.4878 16.9052 19.4879 16.9394 19.488 16.9745C19.4885 17.1457 19.4891 17.3169 19.4896 17.4881C19.494 18.9087 19.4973 20.3294 19.5 21.75C19.7619 21.7535 20.0237 21.756 20.2856 21.7577C20.3747 21.7584 20.4637 21.7594 20.5527 21.7606C20.6809 21.7623 20.8091 21.7631 20.9374 21.7637C20.9769 21.7645 21.0165 21.7652 21.0573 21.7659C21.2899 21.766 21.4597 21.7481 21.6562 21.6094C21.7367 21.4479 21.7617 21.3167 21.7618 21.1374C21.762 21.0904 21.7623 21.0434 21.7625 20.995C21.7623 20.9436 21.7621 20.8923 21.7619 20.8394C21.7621 20.7847 21.7622 20.7299 21.7623 20.6734C21.7627 20.5216 21.7625 20.3697 21.7623 20.2178C21.762 20.054 21.7624 19.8901 21.7626 19.7263C21.763 19.4053 21.763 19.0844 21.7627 18.7635C21.7625 18.5027 21.7624 18.2419 21.7625 17.9811C21.7626 17.9254 21.7626 17.9254 21.7626 17.8686C21.7626 17.7932 21.7626 17.7179 21.7627 17.6425C21.7629 16.9355 21.7626 16.2285 21.7621 15.5215C21.7617 14.9148 21.7618 14.3081 21.7622 13.7013C21.7627 12.9969 21.7629 12.2924 21.7626 11.588C21.7626 11.5129 21.7626 11.4378 21.7625 11.3627C21.7625 11.3257 21.7625 11.2888 21.7625 11.2507C21.7624 10.9902 21.7626 10.7297 21.7628 10.4691C21.763 10.1517 21.763 9.83426 21.7625 9.51681C21.7622 9.35482 21.7621 9.19284 21.7624 9.03085C21.7627 8.85533 21.7624 8.67983 21.7619 8.50431C21.7621 8.45299 21.7623 8.40167 21.7625 8.34879C21.7623 8.30177 21.7621 8.25475 21.7618 8.2063C21.7618 8.1658 21.7618 8.12529 21.7618 8.08355C21.7421 7.89125 21.692 7.76771 21.5504 7.63583C21.419 7.54485 21.2865 7.4657 21.1461 7.38922C21.0921 7.35961 21.038 7.33 20.9823 7.29949C20.9238 7.26769 20.8652 7.2359 20.8066 7.2041C20.7456 7.17071 20.6845 7.1373 20.6235 7.10386C20.5294 7.05231 20.4352 7.00078 20.3411 6.94933C20.0345 6.78183 19.7291 6.61229 19.4238 6.44238C19.3192 6.38421 19.2146 6.32605 19.11 6.26788C19.0326 6.22482 19.0326 6.22482 18.9536 6.18089C18.6904 6.03457 18.4272 5.88838 18.1641 5.74219C18.0586 5.68359 17.9531 5.625 17.8477 5.56641C17.7954 5.5374 17.7432 5.5084 17.6895 5.47852C16.6875 4.92187 15.6855 4.36523 14.6836 3.80859C14.6313 3.77955 14.579 3.7505 14.5252 3.72058C14.4205 3.66241 14.3157 3.60423 14.211 3.54605C13.9651 3.40939 13.7191 3.27275 13.4731 3.1362C13.3575 3.07207 13.2419 3.00792 13.1264 2.94376C13.0453 2.89877 12.9643 2.85381 12.8832 2.80884C12.8337 2.78134 12.7842 2.75385 12.7332 2.72552C12.6869 2.7 12.6406 2.67448 12.593 2.64819C12.4888 2.58945 12.3878 2.52767 12.2864 2.46442C12.0261 2.33263 11.845 2.37871 11.5995 2.51971ZM5.25 10.875C5.25 11.2463 5.25 11.6175 5.25 12C9.705 12 14.16 12 18.75 12C18.75 11.6287 18.75 11.2575 18.75 10.875C14.295 10.875 9.84 10.875 5.25 10.875ZM5.25 12.75C5.25 13.1213 5.25 13.4925 5.25 13.875C9.705 13.875 14.16 13.875 18.75 13.875C18.75 13.5038 18.75 13.1325 18.75 12.75C14.295 12.75 9.84 12.75 5.25 12.75ZM5.25 14.625C5.25 14.9963 5.25 15.3675 5.25 15.75C9.705 15.75 14.16 15.75 18.75 15.75C18.75 15.3788 18.75 15.0075 18.75 14.625C14.295 14.625 9.84 14.625 5.25 14.625ZM5.25 16.5C5.25 16.8713 5.25 17.2425 5.25 17.625C9.705 17.625 14.16 17.625 18.75 17.625C18.75 17.2538 18.75 16.8825 18.75 16.5C14.295 16.5 9.84 16.5 5.25 16.5ZM5.25 18.375C5.25 18.7463 5.25 19.1175 5.25 19.5C9.705 19.5 14.16 19.5 18.75 19.5C18.75 19.1287 18.75 18.7575 18.75 18.375C14.295 18.375 9.84 18.375 5.25 18.375ZM5.25 20.25C5.25 20.745 5.25 21.24 5.25 21.75C9.705 21.75 14.16 21.75 18.75 21.75C18.75 21.255 18.75 20.76 18.75 20.25C14.295 20.25 9.84 20.25 5.25 20.25Z" fill="#D62828"/>
</svg>
