<svg width="24" height="24" viewBox="0 0 24 24" fill="none" xmlns="http://www.w3.org/2000/svg">
<path d="M16.1719 6C16.2168 6.03807 16.2618 6.07613 16.3081 6.11536C17.1987 6.88896 17.8175 7.93792 18.1582 9.06152C18.1694 9.09842 18.1806 9.13531 18.1921 9.17332C18.3517 9.72958 18.3942 10.2759 18.3926 10.8516C18.3925 10.8867 18.3925 10.9218 18.3925 10.958C18.3871 12.3594 17.9508 13.7124 17.0625 14.8125C17.0423 14.8379 17.022 14.8633 17.0012 14.8895C16.5288 15.4791 15.7718 16.3364 15 16.5C15.0004 16.5499 15.0008 16.5998 15.0013 16.6511C15.0051 17.1215 15.0079 17.5919 15.0097 18.0623C15.0107 18.3041 15.012 18.5459 15.0141 18.7877C15.0162 19.0211 15.0173 19.2545 15.0178 19.488C15.0181 19.577 15.0188 19.666 15.0198 19.7549C15.0212 19.8797 15.0214 20.0045 15.0213 20.1293C15.0223 20.1843 15.0223 20.1843 15.0233 20.2404C15.0215 20.4837 14.9709 20.6183 14.8125 20.8125C14.5628 21.0445 14.3199 21.0225 13.998 21.0117C13.9501 21.0109 13.9022 21.01 13.8528 21.0092C13.7352 21.007 13.6176 21.0039 13.5 21C13.501 21.0298 13.502 21.0595 13.503 21.0902C13.5069 21.2261 13.5093 21.3621 13.5117 21.498C13.5133 21.5449 13.5149 21.5917 13.5165 21.64C13.5202 21.9193 13.5115 22.0983 13.3125 22.3125C13.0659 22.5203 12.8707 22.5276 12.5625 22.5249C12.4954 22.5252 12.4954 22.5252 12.427 22.5254C12.3328 22.5256 12.2385 22.5252 12.1443 22.5244C12.0005 22.5234 11.8567 22.5244 11.7129 22.5256C11.6211 22.5255 11.5293 22.5253 11.4375 22.5249C11.3733 22.5255 11.3733 22.5255 11.3079 22.5261C11.0463 22.5222 10.8948 22.4872 10.6875 22.3125C10.4555 22.0628 10.4775 21.8199 10.4883 21.498C10.4891 21.4501 10.49 21.4022 10.4908 21.3528C10.493 21.2352 10.4961 21.1176 10.5 21C10.4702 21.001 10.4405 21.002 10.4098 21.003C10.2739 21.0069 10.1379 21.0093 10.002 21.0117C9.95513 21.0133 9.9083 21.0149 9.86005 21.0165C9.58072 21.0202 9.40167 21.0115 9.1875 20.8125C8.99728 20.5793 8.97342 20.4174 8.97872 20.1293C8.97869 20.0899 8.97866 20.0505 8.97863 20.01C8.97876 19.8806 8.98022 19.7513 8.98169 19.6219C8.98204 19.532 8.98231 19.442 8.9825 19.352C8.98321 19.1157 8.98505 18.8795 8.98713 18.6432C8.98905 18.4019 8.9899 18.1606 8.99085 17.9193C8.99286 17.4462 8.99605 16.9731 9 16.5C8.93497 16.4796 8.93497 16.4796 8.86862 16.4589C8.69566 16.3981 8.56032 16.3087 8.41406 16.2012C8.3859 16.1807 8.35773 16.1602 8.3287 16.1391C6.91827 15.0977 5.98418 13.6786 5.65723 11.9443C5.41916 10.2147 5.78458 8.44165 6.84375 7.03125C7.90563 5.67619 9.38608 4.74778 11.1081 4.513C12.9512 4.29221 14.7526 4.79017 16.1719 6ZM8.0625 6.89062C8.03096 6.91921 7.99942 6.94779 7.96692 6.97723C6.94977 7.93158 6.41986 9.38821 6.37519 10.7604C6.35575 12.3544 7.00285 13.7632 8.0918 14.9062C8.52053 15.3243 9.00827 15.6555 9.54309 15.9216C9.65625 15.9844 9.65625 15.9844 9.70313 16.0781C9.71032 16.1665 9.71483 16.255 9.71796 16.3436C9.71975 16.391 9.72153 16.4383 9.72337 16.4871C9.7264 16.5776 9.7264 16.5776 9.72949 16.6699C9.73965 16.9571 9.73965 16.9571 9.75 17.25C10.3688 17.25 10.9875 17.25 11.625 17.25C11.7682 16.2444 11.7682 16.2444 11.4632 15.3013C11.2374 15.0379 10.9715 14.8165 10.6937 14.6098C10.5938 14.5312 10.5938 14.5312 10.5469 14.4375C10.5258 14.1048 10.5258 14.1048 10.5938 13.9687C10.7525 13.8894 10.8934 13.8807 11.0625 13.9219C11.2074 14.0114 11.3191 14.1285 11.4375 14.25C11.4835 14.2956 11.5296 14.3411 11.5757 14.3866C11.7026 14.512 11.8281 14.6385 11.9531 14.7656C12.1 14.7007 12.1977 14.6254 12.3095 14.5106C12.3401 14.4793 12.3708 14.4481 12.4025 14.416C12.434 14.3834 12.4656 14.3509 12.498 14.3174C12.5611 14.2528 12.6242 14.1882 12.6874 14.1238C12.7152 14.0952 12.7429 14.0666 12.7715 14.0371C12.9102 13.9059 13.0355 13.9083 13.223 13.9124C13.3125 13.9219 13.3125 13.9219 13.4063 13.9687C13.4855 14.1273 13.4951 14.2687 13.4531 14.4375C13.3138 14.6473 13.1352 14.8117 12.9289 14.9539C12.6746 15.1396 12.4242 15.3338 12.3546 15.6574C12.2855 16.1861 12.3439 16.7209 12.375 17.25C12.9938 17.25 13.6125 17.25 14.25 17.25C14.2598 16.8707 14.2598 16.8707 14.2682 16.4913C14.2705 16.4205 14.2705 16.4205 14.2729 16.3482C14.2741 16.2998 14.2753 16.2515 14.2766 16.2017C14.2998 16.0603 14.3248 16.0223 14.4375 15.9375C14.5169 15.8867 14.5169 15.8867 14.6041 15.8394C14.6365 15.8213 14.6689 15.8033 14.7023 15.7847C14.7367 15.7655 14.7712 15.7463 14.8066 15.7266C15.1916 15.506 15.5187 15.2537 15.8438 14.9531C15.8811 14.9196 15.9184 14.8861 15.9569 14.8515C16.4883 14.3511 16.8619 13.7403 17.1563 13.0781C17.1789 13.0282 17.2014 12.9782 17.2247 12.9267C17.6959 11.8001 17.7496 10.4466 17.3906 9.28125C17.3808 9.24907 17.371 9.21688 17.3609 9.18372C16.9036 7.73555 15.8594 6.55053 14.5227 5.84848C12.3417 4.75602 9.80013 5.22921 8.0625 6.89062ZM9.75 18C9.75 18.2475 9.75 18.495 9.75 18.75C11.235 18.75 12.72 18.75 14.25 18.75C14.25 18.5025 14.25 18.255 14.25 18C12.765 18 11.28 18 9.75 18ZM9.75 19.5C9.75 19.7475 9.75 19.995 9.75 20.25C11.235 20.25 12.72 20.25 14.25 20.25C14.25 20.0025 14.25 19.755 14.25 19.5C12.765 19.5 11.28 19.5 9.75 19.5ZM11.25 21C11.25 21.2475 11.25 21.495 11.25 21.75C11.745 21.75 12.24 21.75 12.75 21.75C12.75 21.5025 12.75 21.255 12.75 21C12.255 21 11.76 21 11.25 21Z" fill="#D62828"/>
<path d="M18.5625 4.125C18.6797 4.19531 18.6797 4.19531 18.75 4.3125C18.7785 4.46786 18.7896 4.54062 18.75 4.6875C18.6904 4.77343 18.6904 4.77343 18.6112 4.8598C18.5815 4.89227 18.5518 4.92474 18.5212 4.9582C18.3452 5.14307 18.1663 5.32482 17.9854 5.50488C17.9474 5.54304 17.9094 5.5812 17.8703 5.62051C17.834 5.65674 17.7977 5.69296 17.7603 5.73029C17.7275 5.763 17.6948 5.79572 17.661 5.82943C17.517 5.96294 17.3973 5.96966 17.202 5.96576C17.1094 5.95313 17.1094 5.95313 16.9922 5.88281C16.9128 5.7505 16.8867 5.64479 16.8951 5.49002C16.9278 5.36873 16.9759 5.3107 17.0607 5.21832C17.1052 5.16962 17.1052 5.16962 17.1507 5.11993C17.3267 4.93506 17.5056 4.75331 17.6865 4.57324C17.7245 4.53508 17.7625 4.49693 17.8016 4.45761C17.8379 4.42139 17.8742 4.38516 17.9116 4.34784C17.9443 4.31512 17.9771 4.28241 18.0109 4.2487C18.1742 4.09732 18.3488 4.09587 18.5625 4.125Z" fill="#D62828"/>
<path d="M5.71311 4.0982C5.83439 4.1309 5.89242 4.17907 5.9848 4.26379C6.03351 4.30835 6.03351 4.30835 6.0832 4.3538C6.26807 4.52985 6.44982 4.7087 6.62988 4.88965C6.66804 4.92763 6.7062 4.9656 6.74552 5.00473C6.78174 5.04102 6.81796 5.0773 6.85529 5.11469C6.888 5.14745 6.92072 5.18022 6.95443 5.21399C7.08794 5.35804 7.09467 5.47773 7.09076 5.67297C7.07813 5.76563 7.07813 5.76563 7.00781 5.88281C6.8755 5.9622 6.76979 5.98834 6.61502 5.97993C6.49373 5.94722 6.4357 5.89906 6.34332 5.81433C6.31085 5.78463 6.27838 5.75493 6.24493 5.72432C6.06006 5.54828 5.87831 5.36943 5.69824 5.18848C5.66009 5.1505 5.62193 5.11252 5.58261 5.0734C5.54639 5.03711 5.51016 5.00082 5.47284 4.96344C5.42377 4.91429 5.42377 4.91429 5.3737 4.86414C5.24019 4.72009 5.23346 4.60039 5.23737 4.40515C5.25 4.3125 5.25 4.3125 5.32031 4.19531C5.45262 4.11593 5.55834 4.08979 5.71311 4.0982Z" fill="#D62828"/>
<path d="M6.89063 15.7969C7.00781 15.8672 7.00781 15.8672 7.07813 15.9844C7.10661 16.1397 7.11773 16.2125 7.07813 16.3594C7.01855 16.4453 7.01855 16.4453 6.93933 16.5317C6.90963 16.5641 6.87993 16.5966 6.84932 16.6301C6.67328 16.8149 6.49443 16.9967 6.31348 17.1768C6.2755 17.2149 6.23752 17.2531 6.1984 17.2924C6.16211 17.3286 6.12582 17.3648 6.08844 17.4022C6.05567 17.4349 6.0229 17.4676 5.98914 17.5013C5.84509 17.6348 5.72539 17.6415 5.53015 17.6376C5.4375 17.625 5.4375 17.625 5.32031 17.5547C5.24093 17.4224 5.21479 17.3167 5.2232 17.1619C5.2559 17.0406 5.30407 16.9826 5.38879 16.8902C5.43335 16.8415 5.43335 16.8415 5.4788 16.7918C5.65485 16.6069 5.8337 16.4252 6.01465 16.2451C6.05263 16.207 6.0906 16.1688 6.12973 16.1295C6.16602 16.0933 6.2023 16.057 6.23969 16.0197C6.27245 15.987 6.30522 15.9543 6.33899 15.9206C6.50232 15.7692 6.67697 15.7677 6.89063 15.7969Z" fill="#D62828"/>
<path d="M17.385 15.7701C17.5063 15.8028 17.5643 15.8509 17.6567 15.9357C17.7054 15.9802 17.7054 15.9802 17.7551 16.0257C17.9399 16.2017 18.1217 16.3806 18.3018 16.5615C18.3399 16.5995 18.3781 16.6375 18.4174 16.6766C18.4536 16.7129 18.4898 16.7492 18.5272 16.7866C18.5599 16.8193 18.5926 16.8521 18.6263 16.8859C18.735 17.0032 18.7492 17.0552 18.7676 17.2178C18.75 17.3906 18.75 17.3906 18.6533 17.5283C18.5156 17.625 18.5156 17.625 18.3604 17.6602C17.9637 17.5795 17.6473 17.1389 17.3701 16.8604C17.332 16.8224 17.2938 16.7844 17.2545 16.7453C17.2183 16.709 17.182 16.6727 17.1447 16.6353C17.0956 16.5862 17.0956 16.5862 17.0456 16.536C16.9121 16.392 16.9053 16.2723 16.9092 16.077C16.9219 15.9844 16.9219 15.9844 16.9922 15.8672C17.1245 15.7878 17.2302 15.7617 17.385 15.7701Z" fill="#D62828"/>
<path d="M19.7344 10.4751C19.7753 10.4749 19.8162 10.4747 19.8583 10.4746C19.9447 10.4744 20.0311 10.4748 20.1174 10.4756C20.2496 10.4766 20.3816 10.4756 20.5137 10.4744C20.5977 10.4745 20.6816 10.4747 20.7656 10.4751C20.8051 10.4747 20.8445 10.4743 20.8852 10.4739C21.1588 10.4783 21.1588 10.4783 21.3061 10.5894C21.3807 10.6956 21.4004 10.7466 21.3984 10.875C21.3989 10.9059 21.3994 10.9369 21.3999 10.9688C21.3619 11.1119 21.3061 11.1605 21.1875 11.25C21.047 11.2782 20.9085 11.2763 20.7656 11.2749C20.7247 11.2751 20.6838 11.2753 20.6417 11.2754C20.5553 11.2756 20.4689 11.2752 20.3826 11.2744C20.2504 11.2734 20.1184 11.2744 19.9863 11.2756C19.9023 11.2755 19.8184 11.2753 19.7344 11.2749C19.6949 11.2753 19.6555 11.2757 19.6148 11.2761C19.3412 11.2717 19.3412 11.2717 19.1939 11.1606C19.1193 11.0544 19.0996 11.0034 19.1016 10.875C19.1008 10.8286 19.1008 10.8286 19.1001 10.7812C19.1864 10.4564 19.4555 10.4724 19.7344 10.4751Z" fill="#D62828"/>
<path d="M3.23438 10.4751C3.27528 10.4749 3.31619 10.4747 3.35834 10.4746C3.4447 10.4744 3.53107 10.4748 3.61743 10.4756C3.74955 10.4766 3.88155 10.4756 4.01367 10.4744C4.09766 10.4745 4.18164 10.4747 4.26562 10.4751C4.30508 10.4747 4.34454 10.4743 4.38519 10.4739C4.65877 10.4783 4.65877 10.4783 4.80606 10.5894C4.88069 10.6956 4.90044 10.7466 4.89844 10.875C4.89892 10.9059 4.8994 10.9369 4.8999 10.9688C4.86188 11.1119 4.8061 11.1605 4.6875 11.25C4.547 11.2782 4.40854 11.2763 4.26562 11.2749C4.22472 11.2751 4.18381 11.2753 4.14166 11.2754C4.0553 11.2756 3.96893 11.2752 3.88257 11.2744C3.75045 11.2734 3.61845 11.2744 3.48633 11.2756C3.40234 11.2755 3.31836 11.2753 3.23438 11.2749C3.19492 11.2753 3.15546 11.2757 3.11481 11.2761C2.84123 11.2717 2.84123 11.2717 2.69394 11.1606C2.61931 11.0544 2.59956 11.0034 2.60156 10.875C2.60084 10.8286 2.60084 10.8286 2.6001 10.7812C2.68638 10.4564 2.95548 10.4724 3.23438 10.4751Z" fill="#D62828"/>
<path d="M12 1.47656C12.0309 1.47608 12.0619 1.4756 12.0937 1.4751C12.2369 1.51312 12.2855 1.5689 12.375 1.6875C12.4032 1.828 12.4013 1.96646 12.3999 2.10938C12.4001 2.15028 12.4003 2.19119 12.4004 2.23334C12.4006 2.3197 12.4002 2.40607 12.3994 2.49243C12.3984 2.62455 12.3994 2.75655 12.4006 2.88867C12.4005 2.97266 12.4003 3.05664 12.3999 3.14062C12.4003 3.18008 12.4007 3.21954 12.4011 3.26019C12.3967 3.53377 12.3967 3.53377 12.2856 3.68106C12.1794 3.75569 12.1284 3.77544 12 3.77344C11.9536 3.77416 11.9536 3.77416 11.9062 3.7749C11.7631 3.73688 11.7145 3.6811 11.625 3.5625C11.5968 3.422 11.5987 3.28354 11.6001 3.14062C11.5999 3.09972 11.5997 3.05881 11.5996 3.01666C11.5994 2.9303 11.5998 2.84393 11.6006 2.75757C11.6016 2.62545 11.6006 2.49345 11.5994 2.36133C11.5995 2.27734 11.5997 2.19336 11.6001 2.10938C11.5997 2.06992 11.5993 2.03046 11.5989 1.98981C11.6033 1.71623 11.6033 1.71623 11.7144 1.56894C11.8206 1.49431 11.8716 1.47456 12 1.47656Z" fill="#D62828"/>
</svg>
