<svg width="24" height="24" viewBox="0 0 24 24" fill="none" xmlns="http://www.w3.org/2000/svg">
<mask id="path-1-inside-1_1747_1715" fill="white">
<path d="M10.0775 12.7409C10.1333 12.7406 10.1892 12.7402 10.2467 12.7398C10.4309 12.7386 10.6152 12.7378 10.7994 12.7372C10.8631 12.7369 10.9269 12.7367 10.9907 12.7364C11.2561 12.7354 11.5215 12.7345 11.787 12.734C12.1657 12.7332 12.5444 12.7317 12.923 12.729C13.1903 12.7272 13.4575 12.7263 13.7248 12.726C13.8839 12.7259 14.0431 12.7253 14.2022 12.7238C14.3801 12.7223 14.558 12.7223 14.7359 12.7226C14.7877 12.7219 14.8395 12.7211 14.8929 12.7203C15.4355 12.7246 15.9264 12.9264 16.3125 13.3125C16.4166 13.4477 16.5084 13.5867 16.5937 13.7344C16.8388 13.7078 17.0664 13.6675 17.3045 13.6012C17.3357 13.5925 17.367 13.5839 17.3991 13.575C17.501 13.5468 17.6028 13.5183 17.7046 13.4897C17.7761 13.4699 17.8475 13.4501 17.9189 13.4304C18.1061 13.3785 18.2931 13.3264 18.4802 13.2741C18.78 13.1905 19.0799 13.1073 19.3798 13.0241C19.4843 12.9951 19.5887 12.9659 19.6931 12.9368C19.7572 12.9189 19.8214 12.901 19.8856 12.8832C19.9414 12.8676 19.9972 12.852 20.0547 12.836C20.626 12.6854 21.1451 12.7259 21.668 13.0166C22.0767 13.2793 22.2884 13.6273 22.4648 14.0683C22.5775 14.6504 22.4916 15.1406 22.1865 15.6445C21.8752 16.0716 21.403 16.2946 20.9443 16.5322C20.8813 16.5653 20.8183 16.5984 20.7553 16.6315C20.6604 16.6815 20.5655 16.7314 20.4705 16.7812C20.204 16.9209 19.9395 17.0641 19.6758 17.209C19.3056 17.4118 18.9343 17.6126 18.5625 17.8125C18.1868 18.0144 17.8117 18.2173 17.4375 18.4219C16.9535 18.6864 16.4682 18.9486 15.982 19.209C15.8191 19.2964 15.6569 19.3848 15.496 19.476C14.8777 19.8241 14.247 20.0219 13.5352 20.0303C13.4988 20.0316 13.4624 20.033 13.4249 20.0344C12.4866 20.044 11.5177 19.6432 10.6285 19.3847C10.4503 19.3329 10.2718 19.282 10.0933 19.231C10.0387 19.2149 9.98414 19.1989 9.9279 19.1823C9.87715 19.1679 9.8264 19.1535 9.77411 19.1387C9.72971 19.1258 9.68531 19.1129 9.63956 19.0997C9.44007 19.065 9.2859 19.1137 9.10834 19.2035C9.07645 19.2194 9.04455 19.2354 9.0117 19.2518C8.96122 19.2776 8.96122 19.2776 8.90972 19.3039C8.87468 19.3215 8.83964 19.3391 8.80353 19.3573C8.69213 19.4134 8.58092 19.4699 8.46972 19.5264C8.39402 19.5646 8.31831 19.6027 8.24258 19.6409C8.0574 19.7343 7.8724 19.828 7.68749 19.9219C7.695 19.9658 7.7025 20.0098 7.71023 20.0551C7.75906 20.3546 7.79401 20.661 7.61753 20.9264C7.3483 21.2067 6.91647 21.3695 6.57421 21.5449C6.14634 21.7658 5.72245 21.993 5.30131 22.2265C5.24092 22.2598 5.24092 22.2598 5.17932 22.2938C5.1442 22.3133 5.10909 22.3328 5.07291 22.3529C4.79803 22.4937 4.57288 22.5384 4.26562 22.5C4.08204 22.4388 3.95817 22.3337 3.82324 22.1953C3.71475 21.9523 3.71573 21.7306 3.74999 21.4687C3.9465 21.0074 4.57379 20.7866 4.99916 20.5697C5.09824 20.5192 5.19711 20.4683 5.29595 20.4173C5.35948 20.3847 5.42302 20.3521 5.48657 20.3196C5.51582 20.3045 5.54507 20.2895 5.57521 20.274C5.72996 20.1953 5.88531 20.1258 6.04687 20.0625C5.89573 19.4998 5.74455 18.937 5.59335 18.3743C5.52313 18.113 5.45293 17.8517 5.38275 17.5904C5.31499 17.3381 5.24721 17.0859 5.17941 16.8336C5.15358 16.7375 5.12775 16.6413 5.10193 16.5451C5.06572 16.4103 5.02947 16.2754 4.99321 16.1405C4.97728 16.0812 4.97728 16.0812 4.96103 16.0206C4.90298 15.8048 4.84324 15.5897 4.78124 15.375C4.54167 15.4079 4.33078 15.5059 4.1098 15.5991C4.02298 15.6351 3.93616 15.671 3.84933 15.707C3.71335 15.7635 3.57746 15.8202 3.44175 15.8773C3.31017 15.9326 3.17828 15.9871 3.04632 16.0415C3.00641 16.0585 2.9665 16.0756 2.92538 16.0931C2.59749 16.2273 2.2788 16.3128 1.93066 16.2158C1.73311 16.0957 1.60479 15.9596 1.49999 15.75C1.46629 15.4168 1.4759 15.1721 1.68749 14.9062C1.96861 14.7241 2.27502 14.6061 2.58489 14.4814C2.6395 14.4593 2.69411 14.4371 2.75037 14.4142C2.89492 14.3556 3.03955 14.2971 3.18422 14.2387C3.33019 14.1798 3.47604 14.1206 3.62191 14.0614C3.88437 13.955 4.14684 13.8486 4.40959 13.7429C4.5005 13.7062 4.5913 13.6692 4.68196 13.6319C4.72354 13.6149 4.76512 13.5979 4.80796 13.5804C4.84429 13.5654 4.88063 13.5504 4.91807 13.5349C5.05133 13.4872 5.17051 13.4766 5.31152 13.4795C5.35678 13.4795 5.40203 13.4796 5.44866 13.4797C5.73767 13.525 5.87796 13.7027 6.04687 13.9219C6.09328 13.9915 6.09328 13.9915 6.14062 14.0625C6.18757 14.0384 6.23451 14.0143 6.28288 13.9895C6.46094 13.8983 6.63933 13.8078 6.81782 13.7174C6.89431 13.6786 6.97072 13.6396 7.04703 13.6004C8.01554 13.1035 8.97789 12.7451 10.0775 12.7409ZM7.45312 15.1406C7.35858 15.1876 7.26404 15.2345 7.16949 15.2814C6.95117 15.39 6.73328 15.4994 6.51562 15.6094C6.54617 15.9225 6.61616 16.2165 6.69708 16.5201C6.71031 16.5704 6.72355 16.6206 6.73719 16.6723C6.76508 16.7779 6.7931 16.8834 6.82123 16.9888C6.86435 17.1507 6.90685 17.3128 6.9493 17.4748C6.97652 17.5775 7.00377 17.6802 7.03106 17.7828C7.04376 17.8314 7.05646 17.88 7.06954 17.93C7.08158 17.9748 7.09362 18.0196 7.10603 18.0657C7.11651 18.1052 7.12698 18.1446 7.13778 18.1853C7.16727 18.2901 7.16727 18.2901 7.26562 18.375C7.31409 18.3513 7.36256 18.3277 7.4125 18.3033C7.59286 18.2154 7.77327 18.1275 7.9537 18.0397C8.03168 18.0017 8.10965 17.9637 8.18761 17.9256C8.29986 17.8709 8.41216 17.8162 8.52447 17.7616C8.55915 17.7446 8.59382 17.7277 8.62955 17.7102C8.69395 17.6789 8.75851 17.648 8.82326 17.6174C8.88967 17.586 8.95542 17.5531 9.02093 17.5198C9.44052 17.3956 9.84599 17.5477 10.2504 17.664C10.3168 17.6826 10.3831 17.7012 10.4495 17.7197C10.6235 17.7684 10.7973 17.8178 10.9711 17.8673C11.1809 17.927 11.391 17.9859 11.601 18.0449C11.7647 18.0909 11.9283 18.137 12.0919 18.1835C12.7835 18.4007 12.7836 18.4007 13.4971 18.4892C13.5458 18.4902 13.5946 18.4911 13.6448 18.492C14.167 18.4257 14.6124 18.2064 15.0674 17.9531C15.1251 17.9215 15.1828 17.89 15.2405 17.8586C15.3563 17.7953 15.472 17.7317 15.5875 17.6679C15.7739 17.5649 15.9609 17.463 16.1479 17.3612C16.2723 17.2935 16.3966 17.2255 16.5209 17.1575C16.8101 16.9996 17.1003 16.8435 17.3906 16.6875C17.8079 16.4632 18.2243 16.2375 18.6398 16.0101C18.8749 15.8817 19.1105 15.7541 19.3466 15.6275C19.4003 15.5986 19.4541 15.5698 19.5095 15.5401C19.6129 15.4847 19.7163 15.4294 19.8197 15.3742C20.4386 15.0904 20.4386 15.0904 20.9531 14.6719C20.9531 14.5273 20.9531 14.5273 20.9062 14.3906C20.7213 14.2673 20.6523 14.3016 20.4375 14.3437C20.3114 14.373 20.1864 14.4035 20.0612 14.4363C20.0251 14.4456 19.989 14.4549 19.9518 14.4645C19.621 14.5502 19.2908 14.6381 18.9607 14.7267C18.7395 14.786 18.5182 14.8446 18.2964 14.9016C18.081 14.9569 17.8661 15.014 17.6515 15.0723C17.5701 15.0941 17.4884 15.1153 17.4066 15.1359C16.8718 15.2593 16.8718 15.2593 16.4778 15.6182C16.4372 15.6927 16.3975 15.7679 16.3594 15.8437C15.9443 16.3243 15.4246 16.5048 14.8087 16.5531C14.7648 16.5569 14.721 16.5608 14.6758 16.5648C14.5368 16.5769 14.3978 16.5882 14.2588 16.5996C14.1661 16.6075 14.0734 16.6155 13.9807 16.6236C13.7637 16.6423 13.5466 16.6604 13.3295 16.6783C13.1843 16.6903 13.0391 16.703 12.8939 16.7155C11.9694 16.7915 11.9694 16.7915 11.6719 16.5469C11.5229 16.3681 11.478 16.1676 11.4844 15.9375C11.5268 15.7143 11.6178 15.5093 11.8068 15.3725C12.3997 15.1081 13.2744 15.1784 13.9119 15.1324C14.0613 15.1216 14.2106 15.11 14.3599 15.0983C14.4278 15.0937 14.4278 15.0937 14.4972 15.089C14.7554 15.0682 14.9589 15.0314 15.1875 14.9062C15.2732 14.7779 15.2732 14.7779 15.2812 14.625C15.2294 14.4664 15.1929 14.3735 15.0455 14.2896C14.8499 14.234 14.6651 14.2369 14.4627 14.2379C14.4183 14.2377 14.3739 14.2375 14.3282 14.2374C14.1813 14.2369 14.0345 14.2372 13.8876 14.2375C13.7849 14.2375 13.6822 14.2374 13.5794 14.2373C13.3637 14.2371 13.1479 14.2373 12.9322 14.2378C12.6579 14.2383 12.3837 14.238 12.1094 14.2374C11.8969 14.2371 11.6843 14.2372 11.4718 14.2374C11.3708 14.2375 11.2699 14.2374 11.1689 14.2372C9.74585 14.2348 8.72629 14.5043 7.45312 15.1406Z"/>
</mask>
<path d="M10.0775 12.7409C10.1333 12.7406 10.1892 12.7402 10.2467 12.7398C10.4309 12.7386 10.6152 12.7378 10.7994 12.7372C10.8631 12.7369 10.9269 12.7367 10.9907 12.7364C11.2561 12.7354 11.5215 12.7345 11.787 12.734C12.1657 12.7332 12.5444 12.7317 12.923 12.729C13.1903 12.7272 13.4575 12.7263 13.7248 12.726C13.8839 12.7259 14.0431 12.7253 14.2022 12.7238C14.3801 12.7223 14.558 12.7223 14.7359 12.7226C14.7877 12.7219 14.8395 12.7211 14.8929 12.7203C15.4355 12.7246 15.9264 12.9264 16.3125 13.3125C16.4166 13.4477 16.5084 13.5867 16.5937 13.7344C16.8388 13.7078 17.0664 13.6675 17.3045 13.6012C17.3357 13.5925 17.367 13.5839 17.3991 13.575C17.501 13.5468 17.6028 13.5183 17.7046 13.4897C17.7761 13.4699 17.8475 13.4501 17.9189 13.4304C18.1061 13.3785 18.2931 13.3264 18.4802 13.2741C18.78 13.1905 19.0799 13.1073 19.3798 13.0241C19.4843 12.9951 19.5887 12.9659 19.6931 12.9368C19.7572 12.9189 19.8214 12.901 19.8856 12.8832C19.9414 12.8676 19.9972 12.852 20.0547 12.836C20.626 12.6854 21.1451 12.7259 21.668 13.0166C22.0767 13.2793 22.2884 13.6273 22.4648 14.0683C22.5775 14.6504 22.4916 15.1406 22.1865 15.6445C21.8752 16.0716 21.403 16.2946 20.9443 16.5322C20.8813 16.5653 20.8183 16.5984 20.7553 16.6315C20.6604 16.6815 20.5655 16.7314 20.4705 16.7812C20.204 16.9209 19.9395 17.0641 19.6758 17.209C19.3056 17.4118 18.9343 17.6126 18.5625 17.8125C18.1868 18.0144 17.8117 18.2173 17.4375 18.4219C16.9535 18.6864 16.4682 18.9486 15.982 19.209C15.8191 19.2964 15.6569 19.3848 15.496 19.476C14.8777 19.8241 14.247 20.0219 13.5352 20.0303C13.4988 20.0316 13.4624 20.033 13.4249 20.0344C12.4866 20.044 11.5177 19.6432 10.6285 19.3847C10.4503 19.3329 10.2718 19.282 10.0933 19.231C10.0387 19.2149 9.98414 19.1989 9.9279 19.1823C9.87715 19.1679 9.8264 19.1535 9.77411 19.1387C9.72971 19.1258 9.68531 19.1129 9.63956 19.0997C9.44007 19.065 9.2859 19.1137 9.10834 19.2035C9.07645 19.2194 9.04455 19.2354 9.0117 19.2518C8.96122 19.2776 8.96122 19.2776 8.90972 19.3039C8.87468 19.3215 8.83964 19.3391 8.80353 19.3573C8.69213 19.4134 8.58092 19.4699 8.46972 19.5264C8.39402 19.5646 8.31831 19.6027 8.24258 19.6409C8.0574 19.7343 7.8724 19.828 7.68749 19.9219C7.695 19.9658 7.7025 20.0098 7.71023 20.0551C7.75906 20.3546 7.79401 20.661 7.61753 20.9264C7.3483 21.2067 6.91647 21.3695 6.57421 21.5449C6.14634 21.7658 5.72245 21.993 5.30131 22.2265C5.24092 22.2598 5.24092 22.2598 5.17932 22.2938C5.1442 22.3133 5.10909 22.3328 5.07291 22.3529C4.79803 22.4937 4.57288 22.5384 4.26562 22.5C4.08204 22.4388 3.95817 22.3337 3.82324 22.1953C3.71475 21.9523 3.71573 21.7306 3.74999 21.4687C3.9465 21.0074 4.57379 20.7866 4.99916 20.5697C5.09824 20.5192 5.19711 20.4683 5.29595 20.4173C5.35948 20.3847 5.42302 20.3521 5.48657 20.3196C5.51582 20.3045 5.54507 20.2895 5.57521 20.274C5.72996 20.1953 5.88531 20.1258 6.04687 20.0625C5.89573 19.4998 5.74455 18.937 5.59335 18.3743C5.52313 18.113 5.45293 17.8517 5.38275 17.5904C5.31499 17.3381 5.24721 17.0859 5.17941 16.8336C5.15358 16.7375 5.12775 16.6413 5.10193 16.5451C5.06572 16.4103 5.02947 16.2754 4.99321 16.1405C4.97728 16.0812 4.97728 16.0812 4.96103 16.0206C4.90298 15.8048 4.84324 15.5897 4.78124 15.375C4.54167 15.4079 4.33078 15.5059 4.1098 15.5991C4.02298 15.6351 3.93616 15.671 3.84933 15.707C3.71335 15.7635 3.57746 15.8202 3.44175 15.8773C3.31017 15.9326 3.17828 15.9871 3.04632 16.0415C3.00641 16.0585 2.9665 16.0756 2.92538 16.0931C2.59749 16.2273 2.2788 16.3128 1.93066 16.2158C1.73311 16.0957 1.60479 15.9596 1.49999 15.75C1.46629 15.4168 1.4759 15.1721 1.68749 14.9062C1.96861 14.7241 2.27502 14.6061 2.58489 14.4814C2.6395 14.4593 2.69411 14.4371 2.75037 14.4142C2.89492 14.3556 3.03955 14.2971 3.18422 14.2387C3.33019 14.1798 3.47604 14.1206 3.62191 14.0614C3.88437 13.955 4.14684 13.8486 4.40959 13.7429C4.5005 13.7062 4.5913 13.6692 4.68196 13.6319C4.72354 13.6149 4.76512 13.5979 4.80796 13.5804C4.84429 13.5654 4.88063 13.5504 4.91807 13.5349C5.05133 13.4872 5.17051 13.4766 5.31152 13.4795C5.35678 13.4795 5.40203 13.4796 5.44866 13.4797C5.73767 13.525 5.87796 13.7027 6.04687 13.9219C6.09328 13.9915 6.09328 13.9915 6.14062 14.0625C6.18757 14.0384 6.23451 14.0143 6.28288 13.9895C6.46094 13.8983 6.63933 13.8078 6.81782 13.7174C6.89431 13.6786 6.97072 13.6396 7.04703 13.6004C8.01554 13.1035 8.97789 12.7451 10.0775 12.7409ZM7.45312 15.1406C7.35858 15.1876 7.26404 15.2345 7.16949 15.2814C6.95117 15.39 6.73328 15.4994 6.51562 15.6094C6.54617 15.9225 6.61616 16.2165 6.69708 16.5201C6.71031 16.5704 6.72355 16.6206 6.73719 16.6723C6.76508 16.7779 6.7931 16.8834 6.82123 16.9888C6.86435 17.1507 6.90685 17.3128 6.9493 17.4748C6.97652 17.5775 7.00377 17.6802 7.03106 17.7828C7.04376 17.8314 7.05646 17.88 7.06954 17.93C7.08158 17.9748 7.09362 18.0196 7.10603 18.0657C7.11651 18.1052 7.12698 18.1446 7.13778 18.1853C7.16727 18.2901 7.16727 18.2901 7.26562 18.375C7.31409 18.3513 7.36256 18.3277 7.4125 18.3033C7.59286 18.2154 7.77327 18.1275 7.9537 18.0397C8.03168 18.0017 8.10965 17.9637 8.18761 17.9256C8.29986 17.8709 8.41216 17.8162 8.52447 17.7616C8.55915 17.7446 8.59382 17.7277 8.62955 17.7102C8.69395 17.6789 8.75851 17.648 8.82326 17.6174C8.88967 17.586 8.95542 17.5531 9.02093 17.5198C9.44052 17.3956 9.84599 17.5477 10.2504 17.664C10.3168 17.6826 10.3831 17.7012 10.4495 17.7197C10.6235 17.7684 10.7973 17.8178 10.9711 17.8673C11.1809 17.927 11.391 17.9859 11.601 18.0449C11.7647 18.0909 11.9283 18.137 12.0919 18.1835C12.7835 18.4007 12.7836 18.4007 13.4971 18.4892C13.5458 18.4902 13.5946 18.4911 13.6448 18.492C14.167 18.4257 14.6124 18.2064 15.0674 17.9531C15.1251 17.9215 15.1828 17.89 15.2405 17.8586C15.3563 17.7953 15.472 17.7317 15.5875 17.6679C15.7739 17.5649 15.9609 17.463 16.1479 17.3612C16.2723 17.2935 16.3966 17.2255 16.5209 17.1575C16.8101 16.9996 17.1003 16.8435 17.3906 16.6875C17.8079 16.4632 18.2243 16.2375 18.6398 16.0101C18.8749 15.8817 19.1105 15.7541 19.3466 15.6275C19.4003 15.5986 19.4541 15.5698 19.5095 15.5401C19.6129 15.4847 19.7163 15.4294 19.8197 15.3742C20.4386 15.0904 20.4386 15.0904 20.9531 14.6719C20.9531 14.5273 20.9531 14.5273 20.9062 14.3906C20.7213 14.2673 20.6523 14.3016 20.4375 14.3437C20.3114 14.373 20.1864 14.4035 20.0612 14.4363C20.0251 14.4456 19.989 14.4549 19.9518 14.4645C19.621 14.5502 19.2908 14.6381 18.9607 14.7267C18.7395 14.786 18.5182 14.8446 18.2964 14.9016C18.081 14.9569 17.8661 15.014 17.6515 15.0723C17.5701 15.0941 17.4884 15.1153 17.4066 15.1359C16.8718 15.2593 16.8718 15.2593 16.4778 15.6182C16.4372 15.6927 16.3975 15.7679 16.3594 15.8437C15.9443 16.3243 15.4246 16.5048 14.8087 16.5531C14.7648 16.5569 14.721 16.5608 14.6758 16.5648C14.5368 16.5769 14.3978 16.5882 14.2588 16.5996C14.1661 16.6075 14.0734 16.6155 13.9807 16.6236C13.7637 16.6423 13.5466 16.6604 13.3295 16.6783C13.1843 16.6903 13.0391 16.703 12.8939 16.7155C11.9694 16.7915 11.9694 16.7915 11.6719 16.5469C11.5229 16.3681 11.478 16.1676 11.4844 15.9375C11.5268 15.7143 11.6178 15.5093 11.8068 15.3725C12.3997 15.1081 13.2744 15.1784 13.9119 15.1324C14.0613 15.1216 14.2106 15.11 14.3599 15.0983C14.4278 15.0937 14.4278 15.0937 14.4972 15.089C14.7554 15.0682 14.9589 15.0314 15.1875 14.9062C15.2732 14.7779 15.2732 14.7779 15.2812 14.625C15.2294 14.4664 15.1929 14.3735 15.0455 14.2896C14.8499 14.234 14.6651 14.2369 14.4627 14.2379C14.4183 14.2377 14.3739 14.2375 14.3282 14.2374C14.1813 14.2369 14.0345 14.2372 13.8876 14.2375C13.7849 14.2375 13.6822 14.2374 13.5794 14.2373C13.3637 14.2371 13.1479 14.2373 12.9322 14.2378C12.6579 14.2383 12.3837 14.238 12.1094 14.2374C11.8969 14.2371 11.6843 14.2372 11.4718 14.2374C11.3708 14.2375 11.2699 14.2374 11.1689 14.2372C9.74585 14.2348 8.72629 14.5043 7.45312 15.1406Z" stroke="#D62828" stroke-width="2" mask="url(#path-1-inside-1_1747_1715)"/>
<mask id="path-2-inside-2_1747_1715" fill="white">
<path d="M11.915 1.73438C12.1518 1.90275 12.3349 2.10731 12.4539 2.3736C12.5527 2.57485 12.6499 2.73864 12.8438 2.85938C13.2622 2.99119 13.7399 3.00191 14.1563 2.85938C14.4358 2.65782 14.5893 2.36933 14.7495 2.07141C14.8684 1.8778 15.0175 1.75981 15.2344 1.6875C15.5928 1.64431 15.8269 1.72026 16.1309 1.9043C16.1702 1.92703 16.2094 1.94976 16.2499 1.97318C16.335 2.02258 16.4199 2.07243 16.5045 2.12267C16.6484 2.20771 16.7932 2.29078 16.9384 2.3736C17.0384 2.43098 17.1383 2.48841 17.2383 2.5459C17.2851 2.5728 17.332 2.59969 17.3802 2.62741C18.2087 3.11032 18.2087 3.11032 18.3281 3.46875C18.3608 3.80761 18.2619 4.04024 18.1201 4.34473C18.0809 4.43076 18.0419 4.51688 18.0031 4.60309C17.9857 4.64072 17.9683 4.67834 17.9503 4.71711C17.9042 4.83324 17.875 4.93852 17.8594 5.0625C17.9152 5.17276 17.9152 5.17276 18.0029 5.27637C18.142 5.4574 18.2273 5.62381 18.3106 5.83594C18.4085 6.03919 18.4085 6.03919 18.5988 6.14685C18.7594 6.17135 18.9158 6.18114 19.0781 6.1875C19.8738 6.27126 19.8738 6.27126 20.163 6.57396C20.3208 6.8218 20.2778 7.13925 20.2766 7.42218C20.2768 7.48825 20.2771 7.55433 20.2774 7.6204C20.2779 7.75859 20.2777 7.89675 20.277 8.03493C20.2762 8.21137 20.2773 8.38774 20.279 8.56417C20.28 8.70054 20.2799 8.8369 20.2795 8.97328C20.2795 9.03829 20.2798 9.10331 20.2805 9.16832C20.2839 9.54551 20.2848 9.79969 20.0156 10.0781C19.765 10.2585 19.462 10.2636 19.1631 10.2949C19.0618 10.3062 18.9606 10.3175 18.8593 10.329C18.8147 10.3337 18.7701 10.3385 18.7242 10.3434C18.6032 10.3567 18.6032 10.3567 18.4688 10.4063C18.4004 10.5264 18.3386 10.6455 18.2783 10.7695C18.0301 11.2583 17.6615 11.9566 17.1094 12.1406C16.802 12.177 16.6099 12.1349 16.3594 11.9531C16.1584 11.7363 16.1046 11.5576 16.1093 11.2681C16.1432 11.027 16.3032 10.8551 16.4469 10.6663C16.7506 10.2621 16.9683 9.83807 17.1621 9.37207C17.2545 9.16058 17.3734 9.00831 17.5842 8.90351C17.7605 8.84568 17.9332 8.82603 18.1172 8.80664C18.1522 8.80259 18.1872 8.79855 18.2232 8.79437C18.4018 8.77446 18.5691 8.76563 18.75 8.76563C18.75 8.42531 18.75 8.085 18.75 7.73438C18.6524 7.72858 18.5547 7.72278 18.4541 7.7168C17.5608 7.65086 17.5608 7.65086 17.2969 7.40625C17.1957 7.23558 17.1234 7.06651 17.0502 6.88239C16.8566 6.40553 16.6153 6.00847 16.279 5.61621C16.1243 5.42583 16.1088 5.27482 16.1114 5.03847C16.1352 4.8345 16.2242 4.66423 16.3154 4.48242C16.3515 4.40901 16.3873 4.33541 16.4225 4.2616C16.4385 4.22967 16.4545 4.19774 16.4709 4.16485C16.5127 4.06917 16.5127 4.06917 16.4531 3.9375C16.378 3.87951 16.378 3.87951 16.2845 3.83148C16.234 3.80361 16.234 3.80361 16.1824 3.77518C16.147 3.75624 16.1116 3.73729 16.0752 3.71778C16.0396 3.69829 16.0041 3.6788 15.9674 3.65872C15.8796 3.61063 15.7914 3.56308 15.7031 3.51563C15.5071 3.70051 15.3591 3.91277 15.2023 4.13086C15.076 4.28768 14.9465 4.40959 14.7656 4.5C14.669 4.50459 14.5723 4.50608 14.4756 4.50586C14.4237 4.50598 14.3718 4.5061 14.3183 4.50623C14.1563 4.5 14.1563 4.5 13.9959 4.47656C13.813 4.45102 13.6343 4.44622 13.4502 4.44727C13.4023 4.447 13.4023 4.447 13.3534 4.44672C13.1625 4.44708 12.9845 4.46666 12.7969 4.5C12.5479 4.51978 12.3185 4.53465 12.085 4.43848C11.7993 4.16552 11.5523 3.8511 11.3438 3.51563C11.0609 3.6691 10.7787 3.82336 10.5 3.98438C10.5153 4.02402 10.5306 4.06365 10.5463 4.10449C10.5887 4.21441 10.6308 4.3244 10.6729 4.43445C10.708 4.52542 10.7437 4.61617 10.7813 4.70618C10.8768 4.93859 10.9275 5.13937 10.8459 5.38422C10.76 5.57463 10.6467 5.72424 10.5117 5.88281C10.207 6.25065 10.0175 6.69548 9.83496 7.13379C9.7439 7.34308 9.62397 7.493 9.41584 7.5965C9.23948 7.65432 9.06685 7.67397 8.88282 7.69336C8.84783 7.69741 8.81284 7.70146 8.7768 7.70563C8.59823 7.72554 8.43093 7.73438 8.25 7.73438C8.25 8.07469 8.25 8.415 8.25 8.76563C8.39647 8.77433 8.39647 8.77433 8.5459 8.78321C9.43921 8.84914 9.43921 8.84914 9.70313 9.09375C9.80427 9.26442 9.87662 9.4335 9.94977 9.61762C10.1434 10.0945 10.3847 10.4915 10.721 10.8838C10.877 11.0758 10.8913 11.2295 10.8882 11.4681C10.86 11.7034 10.74 11.8576 10.5674 12.0176C10.4139 12.1199 10.2913 12.1486 10.1104 12.1523C10.0584 12.1542 10.0584 12.1542 10.0054 12.156C9.62591 12.1052 9.40994 11.8138 9.1875 11.5313C8.977 11.2384 8.78913 10.9423 8.65723 10.6055C8.59045 10.4669 8.56079 10.4182 8.41681 10.3601C8.26693 10.3338 8.12065 10.3217 7.96875 10.3125C7.12267 10.2254 7.12267 10.2254 6.83717 9.92605C6.67913 9.67826 6.72217 9.36081 6.72345 9.07782C6.72321 9.01175 6.72291 8.94568 6.72257 8.8796C6.72209 8.74142 6.7223 8.60326 6.72298 8.46507C6.72379 8.28863 6.72269 8.11226 6.72104 7.93583C6.72001 7.79946 6.72008 7.6631 6.72047 7.52673C6.7205 7.46171 6.72019 7.3967 6.71949 7.33169C6.71609 6.95449 6.7152 6.70031 6.98438 6.42188C7.23503 6.24147 7.53803 6.23645 7.83692 6.20508C7.93819 6.19385 8.03945 6.1825 8.14069 6.17102C8.18529 6.16627 8.2299 6.16152 8.27586 6.15663C8.39677 6.14332 8.39677 6.14332 8.53125 6.09375C8.58638 6.01788 8.58638 6.01788 8.63068 5.9231C8.64841 5.88835 8.66615 5.85361 8.68442 5.81781C8.70252 5.78125 8.72062 5.7447 8.73926 5.70703C8.93208 5.32139 8.93208 5.32139 9.06317 5.1687C9.15396 5.06939 9.15396 5.06939 9.12809 4.95274C9.09396 4.82887 9.05086 4.71959 8.99689 4.60309C8.97801 4.56113 8.95912 4.51916 8.93967 4.47592C8.89999 4.38885 8.85995 4.30193 8.81955 4.21518C8.67917 3.90085 8.6068 3.66016 8.72168 3.32227C8.95993 2.96873 9.3318 2.78789 9.69727 2.58985C9.80186 2.5323 9.90641 2.47468 10.0109 2.41699C10.0621 2.38884 10.1132 2.36068 10.1659 2.33167C10.4028 2.1997 10.6361 2.06183 10.869 1.92284C11.2307 1.70745 11.4947 1.6025 11.915 1.73438Z"/>
</mask>
<path d="M11.915 1.73438C12.1518 1.90275 12.3349 2.10731 12.4539 2.3736C12.5527 2.57485 12.6499 2.73864 12.8438 2.85938C13.2622 2.99119 13.7399 3.00191 14.1563 2.85938C14.4358 2.65782 14.5893 2.36933 14.7495 2.07141C14.8684 1.8778 15.0175 1.75981 15.2344 1.6875C15.5928 1.64431 15.8269 1.72026 16.1309 1.9043C16.1702 1.92703 16.2094 1.94976 16.2499 1.97318C16.335 2.02258 16.4199 2.07243 16.5045 2.12267C16.6484 2.20771 16.7932 2.29078 16.9384 2.3736C17.0384 2.43098 17.1383 2.48841 17.2383 2.5459C17.2851 2.5728 17.332 2.59969 17.3802 2.62741C18.2087 3.11032 18.2087 3.11032 18.3281 3.46875C18.3608 3.80761 18.2619 4.04024 18.1201 4.34473C18.0809 4.43076 18.0419 4.51688 18.0031 4.60309C17.9857 4.64072 17.9683 4.67834 17.9503 4.71711C17.9042 4.83324 17.875 4.93852 17.8594 5.0625C17.9152 5.17276 17.9152 5.17276 18.0029 5.27637C18.142 5.4574 18.2273 5.62381 18.3106 5.83594C18.4085 6.03919 18.4085 6.03919 18.5988 6.14685C18.7594 6.17135 18.9158 6.18114 19.0781 6.1875C19.8738 6.27126 19.8738 6.27126 20.163 6.57396C20.3208 6.8218 20.2778 7.13925 20.2766 7.42218C20.2768 7.48825 20.2771 7.55433 20.2774 7.6204C20.2779 7.75859 20.2777 7.89675 20.277 8.03493C20.2762 8.21137 20.2773 8.38774 20.279 8.56417C20.28 8.70054 20.2799 8.8369 20.2795 8.97328C20.2795 9.03829 20.2798 9.10331 20.2805 9.16832C20.2839 9.54551 20.2848 9.79969 20.0156 10.0781C19.765 10.2585 19.462 10.2636 19.1631 10.2949C19.0618 10.3062 18.9606 10.3175 18.8593 10.329C18.8147 10.3337 18.7701 10.3385 18.7242 10.3434C18.6032 10.3567 18.6032 10.3567 18.4688 10.4063C18.4004 10.5264 18.3386 10.6455 18.2783 10.7695C18.0301 11.2583 17.6615 11.9566 17.1094 12.1406C16.802 12.177 16.6099 12.1349 16.3594 11.9531C16.1584 11.7363 16.1046 11.5576 16.1093 11.2681C16.1432 11.027 16.3032 10.8551 16.4469 10.6663C16.7506 10.2621 16.9683 9.83807 17.1621 9.37207C17.2545 9.16058 17.3734 9.00831 17.5842 8.90351C17.7605 8.84568 17.9332 8.82603 18.1172 8.80664C18.1522 8.80259 18.1872 8.79855 18.2232 8.79437C18.4018 8.77446 18.5691 8.76563 18.75 8.76563C18.75 8.42531 18.75 8.085 18.75 7.73438C18.6524 7.72858 18.5547 7.72278 18.4541 7.7168C17.5608 7.65086 17.5608 7.65086 17.2969 7.40625C17.1957 7.23558 17.1234 7.06651 17.0502 6.88239C16.8566 6.40553 16.6153 6.00847 16.279 5.61621C16.1243 5.42583 16.1088 5.27482 16.1114 5.03847C16.1352 4.8345 16.2242 4.66423 16.3154 4.48242C16.3515 4.40901 16.3873 4.33541 16.4225 4.2616C16.4385 4.22967 16.4545 4.19774 16.4709 4.16485C16.5127 4.06917 16.5127 4.06917 16.4531 3.9375C16.378 3.87951 16.378 3.87951 16.2845 3.83148C16.234 3.80361 16.234 3.80361 16.1824 3.77518C16.147 3.75624 16.1116 3.73729 16.0752 3.71778C16.0396 3.69829 16.0041 3.6788 15.9674 3.65872C15.8796 3.61063 15.7914 3.56308 15.7031 3.51563C15.5071 3.70051 15.3591 3.91277 15.2023 4.13086C15.076 4.28768 14.9465 4.40959 14.7656 4.5C14.669 4.50459 14.5723 4.50608 14.4756 4.50586C14.4237 4.50598 14.3718 4.5061 14.3183 4.50623C14.1563 4.5 14.1563 4.5 13.9959 4.47656C13.813 4.45102 13.6343 4.44622 13.4502 4.44727C13.4023 4.447 13.4023 4.447 13.3534 4.44672C13.1625 4.44708 12.9845 4.46666 12.7969 4.5C12.5479 4.51978 12.3185 4.53465 12.085 4.43848C11.7993 4.16552 11.5523 3.8511 11.3438 3.51563C11.0609 3.6691 10.7787 3.82336 10.5 3.98438C10.5153 4.02402 10.5306 4.06365 10.5463 4.10449C10.5887 4.21441 10.6308 4.3244 10.6729 4.43445C10.708 4.52542 10.7437 4.61617 10.7813 4.70618C10.8768 4.93859 10.9275 5.13937 10.8459 5.38422C10.76 5.57463 10.6467 5.72424 10.5117 5.88281C10.207 6.25065 10.0175 6.69548 9.83496 7.13379C9.7439 7.34308 9.62397 7.493 9.41584 7.5965C9.23948 7.65432 9.06685 7.67397 8.88282 7.69336C8.84783 7.69741 8.81284 7.70146 8.7768 7.70563C8.59823 7.72554 8.43093 7.73438 8.25 7.73438C8.25 8.07469 8.25 8.415 8.25 8.76563C8.39647 8.77433 8.39647 8.77433 8.5459 8.78321C9.43921 8.84914 9.43921 8.84914 9.70313 9.09375C9.80427 9.26442 9.87662 9.4335 9.94977 9.61762C10.1434 10.0945 10.3847 10.4915 10.721 10.8838C10.877 11.0758 10.8913 11.2295 10.8882 11.4681C10.86 11.7034 10.74 11.8576 10.5674 12.0176C10.4139 12.1199 10.2913 12.1486 10.1104 12.1523C10.0584 12.1542 10.0584 12.1542 10.0054 12.156C9.62591 12.1052 9.40994 11.8138 9.1875 11.5313C8.977 11.2384 8.78913 10.9423 8.65723 10.6055C8.59045 10.4669 8.56079 10.4182 8.41681 10.3601C8.26693 10.3338 8.12065 10.3217 7.96875 10.3125C7.12267 10.2254 7.12267 10.2254 6.83717 9.92605C6.67913 9.67826 6.72217 9.36081 6.72345 9.07782C6.72321 9.01175 6.72291 8.94568 6.72257 8.8796C6.72209 8.74142 6.7223 8.60326 6.72298 8.46507C6.72379 8.28863 6.72269 8.11226 6.72104 7.93583C6.72001 7.79946 6.72008 7.6631 6.72047 7.52673C6.7205 7.46171 6.72019 7.3967 6.71949 7.33169C6.71609 6.95449 6.7152 6.70031 6.98438 6.42188C7.23503 6.24147 7.53803 6.23645 7.83692 6.20508C7.93819 6.19385 8.03945 6.1825 8.14069 6.17102C8.18529 6.16627 8.2299 6.16152 8.27586 6.15663C8.39677 6.14332 8.39677 6.14332 8.53125 6.09375C8.58638 6.01788 8.58638 6.01788 8.63068 5.9231C8.64841 5.88835 8.66615 5.85361 8.68442 5.81781C8.70252 5.78125 8.72062 5.7447 8.73926 5.70703C8.93208 5.32139 8.93208 5.32139 9.06317 5.1687C9.15396 5.06939 9.15396 5.06939 9.12809 4.95274C9.09396 4.82887 9.05086 4.71959 8.99689 4.60309C8.97801 4.56113 8.95912 4.51916 8.93967 4.47592C8.89999 4.38885 8.85995 4.30193 8.81955 4.21518C8.67917 3.90085 8.6068 3.66016 8.72168 3.32227C8.95993 2.96873 9.3318 2.78789 9.69727 2.58985C9.80186 2.5323 9.90641 2.47468 10.0109 2.41699C10.0621 2.38884 10.1132 2.36068 10.1659 2.33167C10.4028 2.1997 10.6361 2.06183 10.869 1.92284C11.2307 1.70745 11.4947 1.6025 11.915 1.73438Z" stroke="#D62828" stroke-width="2" mask="url(#path-2-inside-2_1747_1715)"/>
<path d="M12.7256 5.81616C13.279 5.64944 13.9746 5.66833 14.4639 5.89233L14.4688 5.89429C14.5147 5.91466 14.5613 5.93492 14.6084 5.95581C15.2453 6.26886 15.6711 6.7801 15.9326 7.47534C16.0996 8.02878 16.0815 8.72411 15.8575 9.21362L15.8555 9.21948C15.8358 9.26403 15.8162 9.30864 15.7959 9.35425C15.4841 9.99137 14.9677 10.4299 14.2793 10.6804C13.5941 10.874 12.8412 10.7928 12.2227 10.4587C11.6342 10.1151 11.2396 9.57164 11.0244 8.88647C10.9045 8.36397 10.939 7.73078 11.1426 7.28589L11.1446 7.28101C11.1752 7.21197 11.1776 7.20603 11.2041 7.14624C11.5171 6.50678 12.0285 6.07827 12.7256 5.81616ZM14.0098 6.32007C13.264 6.19446 12.5188 6.33747 11.9522 6.98218L11.9317 7.00562L11.9141 7.03198C11.5482 7.57098 11.5052 8.05953 11.5479 8.61597L11.5518 8.65503L11.5606 8.69312C11.6972 9.27165 12.0218 9.66578 12.4922 9.95776L12.5039 9.96558C13.0125 10.2619 13.5774 10.2764 14.0791 10.158L14.1084 10.1511L14.1377 10.1404C14.752 9.91293 15.0987 9.50634 15.3545 8.98608L15.3692 8.95776L15.3799 8.92651C15.5557 8.41029 15.4957 7.80674 15.2764 7.34155L15.2676 7.32397L15.2578 7.3064L15.1534 7.14038C14.8943 6.76771 14.5326 6.49217 14.0879 6.34058L14.0498 6.3269L14.0098 6.32007Z" stroke="#D62828"/>
</svg>
