<svg width="24" height="24" viewBox="0 0 24 24" fill="none" xmlns="http://www.w3.org/2000/svg">
<g clip-path="url(#clip0_32_114)">
<path d="M22.7011 13.845H21.5693L20.8559 3.48797C20.8427 3.29406 20.6814 3.14354 20.4869 3.1441H18.273C18.0786 3.14355 17.9173 3.29406 17.9039 3.48797L17.1907 13.845H16.4279V11.6309C16.4281 11.489 16.3468 11.3597 16.2188 11.2982C16.091 11.2369 15.9392 11.2541 15.8284 11.3427L12.7379 13.8152V11.6309C12.7379 11.489 12.6566 11.3597 12.5288 11.2982C12.4009 11.2368 12.2491 11.2541 12.1383 11.3427L9.048 13.8151V11.6309C9.048 11.489 8.9667 11.3597 8.83871 11.2982C8.7109 11.2368 8.55911 11.254 8.44833 11.3427L5.35786 13.8151V11.6308C5.35786 11.4979 5.28627 11.3752 5.17055 11.3099C5.05482 11.2443 4.91292 11.2461 4.79884 11.3146L1.10889 13.5285V13.5287C0.997925 13.5954 0.929994 13.7153 0.929811 13.8449V22.701C0.929811 22.7988 0.968813 22.8927 1.03803 22.9619C1.10724 23.031 1.20099 23.07 1.29895 23.07H22.7011C22.7989 23.07 22.8928 23.031 22.9621 22.9619C23.0311 22.8927 23.0701 22.7988 23.0701 22.701V14.2138C23.0701 14.1161 23.0311 14.0221 22.9621 13.9529C22.8928 13.8837 22.7989 13.8449 22.7011 13.8449L22.7011 13.845ZM18.6177 3.88172H20.1424L20.8297 13.8445L17.9303 13.8447L18.6177 3.88172ZM13.476 22.3317V17.9037H15.6899V22.3317H13.476ZM22.332 22.3317H16.4277V17.5345C16.4277 17.4368 16.3889 17.3428 16.3196 17.2736C16.2504 17.2044 16.1567 17.1656 16.0587 17.1656H13.1067C12.9029 17.1656 12.7377 17.3307 12.7377 17.5345V22.3317H1.66771V14.0536L4.61975 12.2824V14.5828C4.61975 14.7247 4.70106 14.8541 4.82886 14.9155C4.95685 14.977 5.10865 14.9598 5.21942 14.871L8.3097 12.3987V14.5828C8.3097 14.7247 8.391 14.8542 8.51899 14.9155C8.6468 14.977 8.79859 14.9598 8.90937 14.871L11.9998 12.3987V14.5828C11.9997 14.7247 12.081 14.8542 12.2089 14.9155C12.3368 14.977 12.4885 14.9598 12.5993 14.871L15.6898 12.3987V14.2139C15.6898 14.3118 15.7286 14.4056 15.7978 14.4748C15.867 14.544 15.961 14.5828 16.0587 14.5828H22.3316L22.332 22.3317Z" fill="#D62828"/>
<path d="M13.4733 1.66781C13.6075 1.73959 13.7287 1.83353 13.832 1.94522C14.0389 2.19736 14.3335 2.36197 14.6567 2.40573C14.9971 2.36233 15.308 2.19095 15.5261 1.9262C15.6195 1.82824 15.724 1.74144 15.8376 1.66784C15.9135 1.67113 16.1124 1.85753 16.2195 1.95751C16.4185 2.20379 16.7046 2.36419 17.0184 2.40575C17.3806 2.35979 17.7118 2.17815 17.9453 1.89725C18.0357 1.81229 18.1725 1.68357 18.199 1.66782C18.3972 1.66782 18.4426 1.73356 18.5643 1.90915H18.5645C18.6431 2.05765 18.7603 2.18216 18.9038 2.26969C19.0474 2.35703 19.212 2.40409 19.3799 2.40573C19.5837 2.40573 19.749 2.24057 19.749 2.03678C19.749 1.83298 19.5837 1.66782 19.3799 1.66782C19.3061 1.66782 19.2916 1.66269 19.1717 1.48966H19.1719C19.0757 1.3168 18.9344 1.17343 18.763 1.07492C18.5918 0.976224 18.3968 0.926053 18.1992 0.929714C17.9006 0.971096 17.629 1.12472 17.4397 1.35928C17.3172 1.47482 17.1116 1.66781 17.0338 1.66965C16.9195 1.60043 16.8151 1.51602 16.7232 1.41916C16.5013 1.14889 16.1843 0.973843 15.8375 0.929734C15.5178 0.973313 15.2263 1.13627 15.0216 1.38585C14.918 1.49681 14.7986 1.59184 14.6671 1.66783C14.5441 1.59734 14.432 1.50908 14.335 1.40581C14.1193 1.14397 13.8122 0.973866 13.476 0.929747C13.2722 0.929198 13.1063 1.09381 13.1056 1.29761C13.1049 1.50141 13.2695 1.66708 13.4733 1.66781Z" fill="#D62828"/>
<path d="M4.9889 17.9039H3.51291C3.30911 17.9039 3.14395 18.0692 3.14395 18.273V20.487C3.14395 20.5849 3.18277 20.6787 3.25198 20.7479C3.3212 20.8171 3.41513 20.8559 3.51291 20.8559H4.9889C5.08686 20.8559 5.18061 20.8171 5.24983 20.7479C5.31905 20.6787 5.35786 20.5849 5.35786 20.487V18.273C5.35786 18.1751 5.31904 18.0813 5.24983 18.0121C5.18061 17.9429 5.08686 17.9039 4.9889 17.9039ZM4.61995 20.1178L3.88185 20.118V18.642H4.61976L4.61995 20.1178Z" fill="#D62828"/>
<path d="M7.94109 17.9039H6.46509C6.26129 17.9039 6.09613 18.0692 6.09613 18.273V20.487C6.09613 20.5849 6.13495 20.6787 6.20417 20.7479C6.27338 20.8171 6.36732 20.8559 6.46509 20.8559H7.94109C8.03887 20.8559 8.1328 20.8171 8.20202 20.7479C8.27123 20.6787 8.31005 20.5849 8.31005 20.487V18.273C8.31005 18.1751 8.27123 18.0813 8.20202 18.0121C8.1328 17.9429 8.03887 17.9039 7.94109 17.9039ZM7.57213 20.1178L6.83404 20.118V18.642H7.57195L7.57213 20.1178Z" fill="#D62828"/>
<path d="M10.8928 17.9039H9.41681C9.21301 17.9039 9.04785 18.0692 9.04785 18.273V20.487C9.04785 20.5849 9.08667 20.6787 9.15588 20.7479C9.2251 20.8171 9.31885 20.8559 9.41681 20.8559H10.8928C10.9906 20.8559 11.0845 20.8171 11.1537 20.7479C11.223 20.6787 11.2618 20.5849 11.2618 20.487V18.273C11.2618 18.1751 11.2229 18.0813 11.1537 18.0121C11.0845 17.9429 10.9906 17.9039 10.8928 17.9039ZM10.5239 20.1178L9.78576 20.118V18.642H10.5237L10.5239 20.1178Z" fill="#D62828"/>
</g>
<defs>
<clipPath id="clip0_32_114">
<rect width="24" height="24" fill="white"/>
</clipPath>
</defs>
</svg>
