<svg width="24" height="24" viewBox="0 0 24 24" fill="none" xmlns="http://www.w3.org/2000/svg">
<g clip-path="url(#clip0_683_1678)">
<path d="M9.21431 7.43369C9.26629 7.43296 9.31827 7.43222 9.37182 7.43146C9.4284 7.43138 9.48497 7.4313 9.54326 7.43121C9.60319 7.43059 9.66312 7.42997 9.72487 7.42932C9.88894 7.42768 10.053 7.42697 10.2171 7.42652C10.3196 7.42621 10.4222 7.42573 10.5248 7.42518C10.8828 7.42332 11.2409 7.42229 11.5989 7.42192C11.9324 7.42155 12.2658 7.41924 12.5993 7.41606C12.8859 7.41342 13.1724 7.41222 13.459 7.41212C13.6301 7.41204 13.8011 7.41135 13.9721 7.40918C14.1629 7.40681 14.3536 7.40743 14.5444 7.40832C14.6291 7.40663 14.6291 7.40663 14.7156 7.40491C15.0897 7.41007 15.0897 7.41007 15.2366 7.53433C15.3092 7.62934 15.3668 7.72217 15.4219 7.82813C15.4519 7.87771 15.482 7.92729 15.513 7.97838C15.5521 8.05056 15.5521 8.05056 15.592 8.12421C15.6066 8.15094 15.6212 8.17767 15.6362 8.20521C15.6672 8.26201 15.6981 8.31889 15.7288 8.37583C15.7939 8.49636 15.8596 8.61653 15.9253 8.73672C15.9588 8.79798 15.9923 8.85926 16.0257 8.92055C16.1822 9.20729 16.342 9.49212 16.5029 9.77637C16.5278 9.82048 16.5527 9.8646 16.5783 9.91005C16.6801 10.09 16.7824 10.2692 16.8902 10.4456C17.1942 10.9446 17.1942 10.9446 17.1367 11.2654C17.0246 11.708 16.81 12.0246 16.4269 12.2723C16.2839 12.3421 16.1375 12.3795 15.9844 12.4219C15.9838 12.4944 15.9838 12.4944 15.9832 12.5683C15.9796 13.0235 15.9755 13.4788 15.9709 13.934C15.9686 14.168 15.9664 14.4021 15.9646 14.6361C15.9629 14.8619 15.9607 15.0877 15.9582 15.3136C15.9573 15.3998 15.9566 15.486 15.9561 15.5722C15.9553 15.6928 15.9539 15.8134 15.9524 15.9341C15.9523 15.9876 15.9523 15.9876 15.9521 16.0423C15.9494 16.2158 15.9462 16.3555 15.8437 16.5C15.7103 16.5667 15.5971 16.5532 15.4478 16.5538C15.4164 16.5539 15.3851 16.5541 15.3528 16.5543C15.2471 16.5548 15.1415 16.555 15.0359 16.5552C14.9604 16.5555 14.8848 16.5558 14.8093 16.5561C14.6038 16.5569 14.3983 16.5574 14.1928 16.5578C14.0645 16.558 13.9362 16.5583 13.8079 16.5586C13.4068 16.5595 13.0058 16.5602 12.6047 16.5606C12.1411 16.561 11.6776 16.5623 11.214 16.5642C10.856 16.5656 10.4981 16.5663 10.1401 16.5664C9.92613 16.5665 9.71217 16.567 9.49819 16.5681C9.29701 16.5692 9.09584 16.5694 8.89465 16.5689C8.8207 16.5689 8.74676 16.5692 8.67282 16.5699C8.57207 16.5707 8.47138 16.5704 8.37062 16.5697C8.28596 16.5699 8.28596 16.5699 8.1996 16.5701C8.0625 16.5469 8.0625 16.5469 7.97409 16.4626C7.89397 16.3043 7.90128 16.1459 7.9016 15.9723C7.90113 15.9334 7.90065 15.8946 7.90016 15.8545C7.89874 15.7262 7.89831 15.5978 7.89788 15.4695C7.89709 15.3804 7.89624 15.2914 7.89533 15.2023C7.89311 14.968 7.89171 14.7338 7.89049 14.4995C7.88909 14.2604 7.88691 14.0213 7.88479 13.7822C7.88076 13.3131 7.8776 12.8441 7.875 12.375C7.84909 12.3622 7.82318 12.3494 7.79649 12.3363C7.76258 12.3195 7.72868 12.3026 7.69376 12.2853C7.66011 12.2687 7.62647 12.252 7.59181 12.2349C7.23542 12.051 7.03818 11.7549 6.90069 11.3855C6.82434 11.1246 6.8278 10.9104 6.94555 10.6683C7.02134 10.5343 7.10034 10.4028 7.18066 10.2715C7.24082 10.1709 7.30087 10.0702 7.36084 9.96955C7.39171 9.91787 7.42259 9.8662 7.4544 9.81297C7.60191 9.56297 7.74283 9.3094 7.88379 9.05567C7.93808 8.95855 7.99241 8.86144 8.04675 8.76435C8.12416 8.62594 8.20142 8.48746 8.27815 8.34867C8.34733 8.22368 8.41723 8.09911 8.4873 7.97461C8.5074 7.93782 8.52751 7.90104 8.54822 7.86313C8.56733 7.82947 8.58644 7.7958 8.60614 7.76111C8.62233 7.73199 8.63853 7.70288 8.65522 7.67288C8.80625 7.48476 8.98093 7.43554 9.21431 7.43369ZM8.90625 8.53125C8.87643 8.58268 8.84661 8.63411 8.81588 8.6871C8.79011 8.73247 8.76434 8.77784 8.73779 8.82459C8.70818 8.87657 8.67857 8.92856 8.64807 8.98213C8.60075 9.06537 8.55347 9.14863 8.50621 9.2319C8.32764 9.54638 8.14773 9.8597 7.96142 10.1697C7.93106 10.2205 7.90069 10.2713 7.86941 10.3236C7.81188 10.4196 7.75385 10.5153 7.69528 10.6106C7.66951 10.6538 7.64374 10.6969 7.61718 10.7413C7.59446 10.7786 7.57174 10.8159 7.54834 10.8544C7.48917 10.9944 7.48827 11.0994 7.5 11.25C7.61642 11.4978 7.80553 11.6763 8.05609 11.7832C8.30965 11.8574 8.53501 11.8445 8.77734 11.7393C9.07382 11.5695 9.18311 11.3404 9.27246 11.0186C9.29169 10.9396 9.31048 10.8606 9.32812 10.7813C9.48339 10.749 9.48339 10.749 9.65625 10.7344C9.79477 10.8337 9.82309 10.939 9.86132 11.1006C9.93517 11.3594 10.0301 11.5368 10.266 11.6836C10.5463 11.8242 10.814 11.8772 11.1172 11.7799C11.3812 11.6621 11.5267 11.4989 11.6807 11.2559C11.7398 11.1011 11.7749 10.9425 11.8125 10.7813C12.123 10.7227 12.123 10.7227 12.2812 10.8281C12.3089 10.9197 12.3089 10.9197 12.3252 11.0273C12.3863 11.3396 12.5342 11.5393 12.7969 11.7188C13.0067 11.8353 13.2189 11.8378 13.4531 11.8125C13.7273 11.7265 13.8805 11.5427 14.0156 11.2969C14.0624 11.1606 14.0989 11.0259 14.1308 10.8854C14.1562 10.7813 14.1562 10.7813 14.2031 10.7344C14.3643 10.7227 14.3643 10.7227 14.5312 10.7344C14.6209 10.8689 14.6452 10.9444 14.6807 11.0977C14.7756 11.4244 14.9605 11.594 15.249 11.7627C15.5433 11.8475 15.8126 11.8631 16.0957 11.7334C16.3173 11.6049 16.428 11.479 16.4991 11.2289C16.53 10.9373 16.3582 10.7142 16.2129 10.4736C16.152 10.3692 16.0912 10.2648 16.0303 10.1603C15.9992 10.1077 15.968 10.055 15.9359 10.0007C15.7951 9.76096 15.66 9.51808 15.5244 9.27539C15.456 9.15326 15.3876 9.0318 15.3146 8.9123C15.2344 8.76563 15.2344 8.76563 15.1717 8.5891C15.0891 8.37846 14.9965 8.20041 14.8125 8.0625C14.4153 7.92554 13.9645 7.96943 13.5507 7.97736C13.4259 7.97748 13.301 7.97737 13.1762 7.977C12.915 7.9768 12.654 7.97938 12.3929 7.98371C12.0914 7.98868 11.7902 7.98949 11.4887 7.98803C11.1979 7.98669 10.9071 7.98802 10.6163 7.99065C10.4929 7.99155 10.3695 7.99182 10.2461 7.99145C10.0736 7.99136 9.90149 7.99432 9.72909 7.99813C9.67816 7.99755 9.62724 7.99697 9.57477 7.99637C9.17031 8.01063 9.06443 8.17517 8.90625 8.53125ZM9.51562 11.8594C9.50402 11.8884 9.49242 11.9174 9.48046 11.9473C9.40994 12.0672 9.35879 12.0835 9.23437 12.1406C9.20506 12.1561 9.17576 12.1716 9.14556 12.1875C9.10106 12.2107 9.10106 12.2107 9.05566 12.2344C9.02635 12.2498 8.99705 12.2653 8.96685 12.2813C8.82699 12.3422 8.67796 12.38 8.53125 12.4219C8.53125 13.582 8.53125 14.7422 8.53125 15.9375C9.6914 15.9375 10.8516 15.9375 12.0469 15.9375C12.0604 15.1241 12.0604 15.1241 12.0735 14.3107C12.0753 14.2091 12.0771 14.1074 12.0789 14.0057C12.0797 13.9526 12.0805 13.8994 12.0813 13.8446C12.0822 13.7942 12.0831 13.7438 12.0841 13.6918C12.0849 13.6479 12.0856 13.604 12.0863 13.5587C12.0937 13.4531 12.0937 13.4531 12.1406 13.3594C12.2708 13.316 12.3499 13.3064 12.4843 13.3057C12.5251 13.3054 12.566 13.3051 12.608 13.3048C12.674 13.3047 12.674 13.3047 12.7412 13.3046C12.7865 13.3045 12.8317 13.3043 12.8783 13.3042C12.974 13.3039 13.0697 13.3038 13.1653 13.3038C13.3119 13.3037 13.4585 13.3029 13.6051 13.302C13.698 13.3018 13.7909 13.3017 13.8838 13.3017C13.9277 13.3014 13.9717 13.301 14.017 13.3007C14.0782 13.3009 14.0782 13.3009 14.1407 13.3011C14.1766 13.301 14.2125 13.301 14.2495 13.3009C14.3437 13.3125 14.3437 13.3125 14.4844 13.4063C14.5304 13.5442 14.5384 13.6383 14.5409 13.7823C14.5418 13.8301 14.5427 13.878 14.5437 13.9273C14.5449 14.0046 14.5449 14.0046 14.5461 14.0836C14.5471 14.1364 14.548 14.1893 14.549 14.2438C14.5521 14.4128 14.5549 14.5819 14.5576 14.751C14.5596 14.8655 14.5617 14.98 14.5637 15.0946C14.5688 15.3755 14.5735 15.6565 14.5781 15.9375C14.8256 15.9375 15.0731 15.9375 15.3281 15.9375C15.3281 14.7619 15.3281 13.5863 15.3281 12.375C15.1734 12.3131 15.0187 12.2513 14.8594 12.1875C14.6975 12.0904 14.5699 11.9918 14.4375 11.8594C14.4066 11.8594 14.3756 11.8594 14.3437 11.8594C14.3196 11.8932 14.2954 11.9271 14.2705 11.9619C14.0496 12.2168 13.7476 12.3582 13.4134 12.3862C12.8825 12.3984 12.4992 12.2951 12.1108 11.9246C12.0897 11.9031 12.0686 11.8815 12.0469 11.8594C12.0242 11.8775 12.0014 11.8956 11.978 11.9143C11.4998 12.2858 11.1106 12.4234 10.5 12.375C10.1587 12.3008 9.90587 12.1487 9.64123 11.9246C9.57351 11.8544 9.57351 11.8544 9.51562 11.8594ZM12.6562 13.875C12.6562 14.5556 12.6562 15.2363 12.6562 15.9375C13.0894 15.9375 13.5225 15.9375 13.9687 15.9375C13.9687 15.2569 13.9687 14.5763 13.9687 13.875C13.5356 13.875 13.1025 13.875 12.6562 13.875Z" fill="#D62828"/>
<path d="M22.0313 10.6406C22.1496 10.7254 22.2505 10.8251 22.3535 10.9277C22.4114 10.9836 22.4693 11.0393 22.5273 11.0951C22.5549 11.1219 22.5825 11.1488 22.6109 11.1764C22.705 11.2668 22.8024 11.3526 22.9014 11.4375C22.9435 11.4745 22.9435 11.4745 22.9865 11.5122C23.0579 11.5742 23.1305 11.6348 23.2031 11.6953C23.2969 11.8125 23.2969 11.8125 23.3159 11.9692C23.2925 12.1798 23.2401 12.2338 23.0859 12.375C23.0431 12.4149 23.0003 12.4549 22.9561 12.496C22.9139 12.5334 22.8716 12.5708 22.8281 12.6094C22.7771 12.6546 22.7771 12.6546 22.725 12.7007C22.6641 12.754 22.6029 12.8069 22.5414 12.8595C22.4208 12.9661 22.309 13.0803 22.1973 13.1962C22.0809 13.308 22.0059 13.3576 21.8438 13.3711C21.7031 13.3594 21.7031 13.3594 21.5625 13.2656C21.5098 13.1426 21.5098 13.1426 21.5156 12.9844C21.6088 12.8431 21.7236 12.728 21.8438 12.6094C21.8928 12.5605 21.9417 12.5115 21.9907 12.4625C22.0159 12.4373 22.0411 12.4121 22.067 12.3861C22.0862 12.367 22.1053 12.3479 22.125 12.3281C22.0971 12.328 22.0692 12.3278 22.0405 12.3276C21.7508 12.3257 21.4611 12.3224 21.1714 12.3184C21.0633 12.3171 20.9551 12.3161 20.8469 12.3154C20.6916 12.3144 20.5363 12.3122 20.3809 12.3098C20.3324 12.3098 20.2839 12.3097 20.234 12.3096C20.1889 12.3087 20.1439 12.3078 20.0975 12.3068C20.038 12.3062 20.038 12.3062 19.9773 12.3056C19.875 12.2813 19.875 12.2813 19.7904 12.1965C19.7056 12.041 19.7379 11.9328 19.7813 11.7656C19.9298 11.6666 19.9695 11.6597 20.1401 11.6569C20.2062 11.6555 20.2062 11.6555 20.2737 11.6541C20.3212 11.6536 20.3686 11.653 20.4175 11.6525C20.4662 11.6516 20.5149 11.6507 20.5651 11.6497C20.7208 11.6469 20.8765 11.6447 21.0322 11.6426C21.1377 11.6408 21.2432 11.639 21.3487 11.6371C21.6075 11.6326 21.8662 11.6286 22.125 11.625C22.0849 11.5916 22.0449 11.5582 22.0036 11.5237C21.9513 11.4784 21.899 11.4331 21.8467 11.3877C21.8202 11.3659 21.7938 11.344 21.7666 11.3215C21.6212 11.1936 21.5676 11.1282 21.5153 10.9352C21.5156 10.7813 21.5156 10.7813 21.6123 10.6641C21.787 10.5749 21.8445 10.5844 22.0313 10.6406Z" fill="#D62828"/>
<path d="M12.1335 0.674515C12.3437 0.734143 12.4689 0.911502 12.6064 1.07227C12.6389 1.10872 12.6714 1.14518 12.7049 1.18275C12.7693 1.25517 12.8334 1.32792 12.897 1.40103C12.9711 1.48494 13.0466 1.56594 13.125 1.64575C13.4242 1.95449 13.4242 1.95449 13.4678 2.15039C13.4531 2.29688 13.4531 2.29688 13.3828 2.41406C13.2656 2.48438 13.2656 2.48438 13.1116 2.48309C12.8879 2.42452 12.8026 2.32694 12.6592 2.15332C12.6361 2.1267 12.613 2.10009 12.5891 2.07266C12.5327 2.0074 12.4772 1.94128 12.4219 1.875C12.4216 1.90091 12.4213 1.92681 12.421 1.9535C12.418 2.22347 12.4141 2.4934 12.4096 2.76335C12.408 2.86405 12.4067 2.96476 12.4056 3.06547C12.4041 3.21035 12.4016 3.3552 12.399 3.50006C12.3985 3.56746 12.3985 3.56746 12.3981 3.63621C12.3925 3.89073 12.3768 4.07632 12.1875 4.26562C11.9363 4.28747 11.9363 4.28747 11.8281 4.20876C11.7468 4.09973 11.7471 4.03349 11.7454 3.89819C11.744 3.82923 11.744 3.82923 11.7425 3.75887C11.7422 3.70936 11.742 3.65984 11.7416 3.60883C11.7408 3.55804 11.74 3.50726 11.7391 3.45494C11.7365 3.29255 11.735 3.13017 11.7334 2.96777C11.7318 2.85776 11.7302 2.74774 11.7285 2.63773C11.7246 2.36786 11.7214 2.098 11.7188 1.82813C11.6899 1.86033 11.6611 1.89254 11.6314 1.92572C11.5935 1.96796 11.5556 2.01019 11.5166 2.05371C11.4791 2.09559 11.4416 2.13746 11.4029 2.1806C11.1405 2.46838 11.1405 2.46838 10.9219 2.48438C10.795 2.43856 10.7483 2.41851 10.6875 2.29688C10.6613 2.10596 10.6727 2.03571 10.7888 1.8783C10.8334 1.83162 10.8788 1.78562 10.9248 1.74023C10.9725 1.69083 11.0202 1.64139 11.0678 1.59192C11.0911 1.56816 11.1144 1.5444 11.1384 1.51991C11.2218 1.4339 11.3006 1.34453 11.3789 1.25391C11.4043 1.22514 11.4298 1.19638 11.456 1.16675C11.5097 1.10351 11.5611 1.0383 11.6109 0.971924C11.6378 0.937361 11.6647 0.902798 11.6924 0.867188C11.7155 0.835767 11.7387 0.804346 11.7625 0.771973C11.8833 0.686101 11.9859 0.667519 12.1335 0.674515Z" fill="#D62828"/>
<path d="M4.17553 4.06275C4.22189 4.06295 4.26826 4.06315 4.31603 4.06336C4.38969 4.06487 4.38969 4.06487 4.46484 4.06641C4.54008 4.06734 4.54008 4.06734 4.61685 4.06828C4.76544 4.07056 4.91394 4.07409 5.06249 4.07813C5.10335 4.0791 5.1442 4.08008 5.18629 4.08108C5.77399 4.09726 5.77399 4.09726 5.90093 4.18873C5.98567 4.3136 5.977 4.4006 5.95312 4.54688C5.85245 4.65925 5.77232 4.72626 5.62039 4.74929C5.5071 4.75282 5.39546 4.75075 5.28222 4.7461C5.24303 4.74525 5.20385 4.74441 5.16348 4.74354C5.06729 4.74134 4.97113 4.73797 4.87499 4.73438C5.07166 4.93514 5.26769 5.13468 5.48144 5.31739C5.67409 5.48241 5.85033 5.66166 6.02782 5.84272C6.12514 5.93797 6.22391 6.02182 6.33105 6.10547C6.44235 6.19933 6.46965 6.2366 6.52734 6.37794C6.51562 6.51563 6.51562 6.51563 6.41894 6.65333C6.28124 6.75001 6.28124 6.75001 6.14648 6.76172C5.97187 6.69188 5.88445 6.60267 5.75811 6.46638C5.67402 6.37729 5.58658 6.29887 5.49316 6.21973C5.30016 6.05361 5.12307 5.87383 4.94421 5.69275C4.78688 5.53742 4.62149 5.39312 4.45312 5.25001C4.4541 5.27625 4.45508 5.30249 4.45609 5.32953C4.45999 5.44852 4.46243 5.5675 4.46484 5.68653C4.46719 5.74848 4.46719 5.74848 4.4696 5.81168C4.47424 6.11707 4.47424 6.11707 4.36596 6.23786C4.23855 6.29296 4.16841 6.30869 4.03124 6.28126C3.7982 6.07318 3.8033 5.83321 3.78515 5.54004C3.78173 5.49229 3.77831 5.44454 3.77478 5.39535C3.76523 5.25319 3.75727 5.11104 3.74999 4.96876C3.7478 4.9287 3.74561 4.88865 3.74336 4.84738C3.7216 4.40261 3.7216 4.40261 3.74999 4.21876C3.88786 4.08455 3.98613 4.06074 4.17553 4.06275Z" fill="#D62828"/>
<path d="M12.123 19.7373C12.2812 19.7813 12.2812 19.7813 12.375 19.9219C12.3898 20.0224 12.3898 20.0224 12.3942 20.1401C12.3961 20.1842 12.398 20.2283 12.3999 20.2737C12.4015 20.3212 12.403 20.3686 12.4047 20.4176C12.4066 20.4663 12.4086 20.515 12.4106 20.5651C12.4167 20.7208 12.4222 20.8765 12.4277 21.0322C12.4318 21.1377 12.4359 21.2432 12.44 21.3487C12.45 21.6075 12.4596 21.8662 12.4688 22.125C12.5179 22.0649 12.5179 22.0649 12.568 22.0036C12.6111 21.9513 12.6542 21.899 12.6973 21.8467C12.7188 21.8203 12.7404 21.7938 12.7626 21.7666C12.9269 21.5678 12.9269 21.5678 13.0312 21.5156C13.2758 21.4948 13.2758 21.4948 13.4004 21.5654C13.4626 21.6726 13.4899 21.7626 13.4844 21.8872C13.4255 22.07 13.2833 22.1919 13.1519 22.3273C13.0314 22.453 12.923 22.5836 12.8145 22.7197C12.5526 23.0398 12.5526 23.0398 12.4395 23.165C12.4166 23.1908 12.3938 23.2167 12.3702 23.2432C12.2187 23.3346 12.1268 23.3264 11.9531 23.2969C11.8107 23.196 11.6964 23.0731 11.5781 22.9453C11.5308 22.8964 11.5308 22.8964 11.4825 22.8464C11.298 22.6541 11.1211 22.4557 10.9473 22.2536C10.8763 22.1711 10.8763 22.1711 10.7979 22.0978C10.7053 22.0008 10.6938 21.9297 10.6875 21.7969C10.7314 21.665 10.7314 21.665 10.8281 21.5625C11.1377 21.5174 11.1377 21.5174 11.2864 21.62C11.3658 21.6988 11.4371 21.7805 11.5078 21.8672C11.5455 21.9108 11.5455 21.9108 11.584 21.9553C11.6455 22.0267 11.7057 22.0992 11.7656 22.1719C11.7652 22.1441 11.7648 22.1163 11.7644 22.0877C11.7602 21.7988 11.7574 21.5098 11.7553 21.2209C11.7544 21.113 11.7531 21.0052 11.7515 20.8973C11.7492 20.7423 11.7481 20.5874 11.7473 20.4324C11.7463 20.3841 11.7454 20.3359 11.7444 20.2862C11.7443 19.9538 11.7443 19.9538 11.8499 19.796C11.9531 19.7344 11.9531 19.7344 12.123 19.7373Z" fill="#D62828"/>
<path d="M2.18261 10.793C2.34375 10.8281 2.34375 10.8281 2.4375 10.9219C2.46409 11.0816 2.47449 11.196 2.38 11.3338C2.30097 11.4188 2.21882 11.4973 2.13281 11.5752C2.10374 11.6028 2.07468 11.6304 2.04473 11.6588C1.97325 11.7264 1.90078 11.793 1.82812 11.8594C1.85461 11.8585 1.88111 11.8576 1.9084 11.8566C2.18441 11.8474 2.46044 11.8392 2.7365 11.8316C2.83949 11.8286 2.94247 11.8254 3.04544 11.8219C3.19355 11.8169 3.34166 11.8129 3.4898 11.809C3.55874 11.8064 3.55874 11.8064 3.62906 11.8037C3.86537 11.7985 4.02724 11.7964 4.21875 11.9531C4.26562 12 4.26562 12 4.27734 12.1348C4.26562 12.2812 4.26562 12.2812 4.20996 12.3662C3.98434 12.514 3.68587 12.4748 3.42681 12.4733C3.38241 12.4733 3.338 12.4732 3.29225 12.4731C3.15088 12.4729 3.00952 12.4723 2.86816 12.4717C2.77212 12.4714 2.67608 12.4712 2.58004 12.471C2.34503 12.4705 2.11001 12.4697 1.875 12.4687C1.9115 12.5133 1.94801 12.5579 1.98563 12.6039C2.00616 12.629 2.0267 12.6541 2.04786 12.6799C2.12686 12.7699 2.21611 12.8391 2.31152 12.9111C2.45538 13.0338 2.48073 13.0599 2.51953 13.2539C2.48437 13.4062 2.48437 13.4062 2.41113 13.5C2.24568 13.5679 2.14172 13.5408 1.96875 13.5C1.83178 13.3975 1.83178 13.3975 1.69921 13.2656C1.65075 13.2186 1.60216 13.1716 1.55346 13.1248C1.52914 13.1012 1.50482 13.0777 1.47976 13.0534C1.32829 12.9112 1.1644 12.7843 1.00195 12.655C0.965211 12.6244 0.928472 12.5939 0.890621 12.5625C0.854849 12.5344 0.819078 12.5063 0.782222 12.4774C0.666315 12.3274 0.681226 12.2329 0.703121 12.0469C0.784636 11.936 0.855862 11.8544 0.954525 11.7618C0.993041 11.7238 0.993041 11.7238 1.03234 11.685C1.11424 11.6046 1.19723 11.5255 1.28027 11.4463C1.33561 11.3922 1.39088 11.338 1.44607 11.2838C1.96424 10.7776 1.96424 10.7776 2.18261 10.793Z" fill="#D62828"/>
<path d="M6.60937 17.5312C6.70312 17.6719 6.70312 17.6719 6.69763 17.8085C6.64921 17.9777 6.59192 18.0405 6.46288 18.1582C6.32719 18.2836 6.20111 18.4112 6.08074 18.5511C5.90019 18.7601 5.70709 18.9544 5.51074 19.1484C5.47645 19.1825 5.44215 19.2166 5.40682 19.2517C5.32341 19.3346 5.23988 19.4173 5.15624 19.5C5.18391 19.4988 5.21157 19.4975 5.24007 19.4963C5.36544 19.4914 5.49078 19.4884 5.61621 19.4853C5.65974 19.4834 5.70328 19.4814 5.74813 19.4794C5.86756 19.4772 5.97633 19.4779 6.09374 19.5C6.19555 19.6088 6.19555 19.6088 6.23437 19.7344C6.208 19.8838 6.208 19.8838 6.14062 20.0156C5.99401 20.1116 5.86066 20.1263 5.68798 20.139C5.63614 20.143 5.58429 20.1469 5.53088 20.1509C5.47686 20.1546 5.42284 20.1583 5.36718 20.1621C5.31461 20.1662 5.26204 20.1702 5.20788 20.1744C4.94629 20.1934 4.68456 20.2078 4.42236 20.2145C4.35506 20.2164 4.35506 20.2164 4.2864 20.2183C4.17187 20.2031 4.17187 20.2031 4.08697 20.1531C4.0007 20.0128 4.01384 19.8901 4.01422 19.7269C4.01419 19.6938 4.01417 19.6608 4.01414 19.6268C4.01425 19.5568 4.01471 19.4868 4.01549 19.4167C4.01658 19.3111 4.01645 19.2055 4.01614 19.0998C4.01758 18.3387 4.01758 18.3387 4.12499 18.0469C4.25489 17.9819 4.35625 17.9912 4.49999 18C4.5464 18.0309 4.59281 18.0619 4.64062 18.0937C4.69858 18.4204 4.69253 18.7471 4.68749 19.0781C4.71656 19.0457 4.74562 19.0132 4.77557 18.9798C5.06076 18.6647 5.35409 18.3604 5.6576 18.0629C5.8239 17.8989 5.97837 17.7316 6.12408 17.5489C6.28293 17.3873 6.42361 17.4522 6.60937 17.5312Z" fill="#D62828"/>
<path d="M17.9062 17.3906C18.0231 17.4862 18.0231 17.4862 18.1348 17.6074C18.2683 17.7481 18.3989 17.8845 18.5479 18.0088C18.8681 18.282 19.1576 18.5913 19.4531 18.8906C19.4524 18.8644 19.4517 18.8381 19.4509 18.8111C19.448 18.6921 19.4461 18.5731 19.4443 18.4541C19.4432 18.4128 19.442 18.3715 19.4408 18.3289C19.4403 18.2892 19.4399 18.2495 19.4394 18.2086C19.4387 18.172 19.4379 18.1354 19.4372 18.0977C19.4574 17.974 19.4941 17.9335 19.5938 17.8594C19.7849 17.8395 19.853 17.8447 20.0156 17.9531C20.0662 18.1047 20.0767 18.2323 20.0876 18.3917C20.0937 18.4804 20.0937 18.4804 20.0999 18.571C20.102 18.6019 20.104 18.6327 20.1061 18.6645C20.1122 18.7576 20.1187 18.8507 20.1252 18.9438C20.1367 19.1135 20.1469 19.2833 20.1562 19.4531C20.1588 19.4929 20.1613 19.5326 20.1639 19.5735C20.1692 19.7073 20.1656 19.8084 20.1078 19.9304C19.9705 20.0573 19.8318 20.0398 19.6545 20.0356C19.6191 20.0354 19.5837 20.0353 19.5472 20.0351C19.4338 20.0344 19.3204 20.0323 19.207 20.0303C19.1314 20.0297 19.0558 20.0293 18.9802 20.0289C18.9071 20.0283 18.834 20.0276 18.761 20.0268C18.7272 20.0264 18.6935 20.0261 18.6587 20.0257C18.4514 20.0219 18.2504 20.0094 18.0469 19.9687C17.9502 19.8662 17.9502 19.8662 17.9062 19.7344C17.9322 19.5875 17.9503 19.4907 18.0723 19.3984C18.2466 19.3393 18.4151 19.3496 18.5977 19.3535C18.6534 19.3541 18.6534 19.3541 18.7103 19.3548C18.8016 19.3559 18.893 19.3576 18.9844 19.3594C18.8161 19.1899 18.6477 19.0207 18.4791 18.8515C18.4219 18.7941 18.3647 18.7366 18.3075 18.679C18.225 18.5959 18.1424 18.513 18.0597 18.4301C18.0345 18.4047 18.0093 18.3792 17.9833 18.353C17.8637 18.2333 17.7431 18.1203 17.6112 18.0141C17.4641 17.889 17.4184 17.8156 17.3906 17.625C17.5124 17.351 17.6217 17.3144 17.9062 17.3906Z" fill="#D62828"/>
<path d="M20.0156 3.98438C20.1301 4.15608 20.1188 4.27819 20.1116 4.47583C20.1106 4.51023 20.1097 4.54463 20.1087 4.58007C20.1066 4.65289 20.1042 4.72571 20.1016 4.79851C20.0977 4.90908 20.0948 5.01965 20.092 5.13025C20.0898 5.20118 20.0875 5.2721 20.0852 5.34302C20.0844 5.37575 20.0835 5.40848 20.0827 5.44219C20.0743 5.65618 20.0432 5.84579 19.9688 6.04688C19.8281 6.14063 19.8281 6.14063 19.6875 6.13477C19.5469 6.09375 19.5469 6.09375 19.4683 6.02454C19.3737 5.84416 19.3914 5.6729 19.3975 5.47266C19.3984 5.41357 19.3984 5.41357 19.3994 5.35328C19.401 5.25634 19.4036 5.15942 19.4063 5.0625C19.3876 5.08188 19.369 5.10126 19.3497 5.12123C19.1553 5.32294 18.9597 5.52349 18.7634 5.7234C18.6903 5.79813 18.6175 5.87316 18.545 5.94848C18.4407 6.05677 18.3354 6.16396 18.2298 6.271C18.1977 6.30484 18.1655 6.33867 18.1324 6.37353C17.9026 6.60357 17.9026 6.60357 17.6778 6.63382C17.5313 6.60938 17.5313 6.60938 17.4404 6.55664C17.3643 6.42235 17.3699 6.34051 17.3906 6.1875C17.4713 6.07282 17.5713 5.9827 17.6748 5.88868C17.7315 5.83475 17.7882 5.78073 17.8447 5.72663C17.8719 5.70091 17.8991 5.67519 17.9271 5.64869C18.0126 5.56593 18.0906 5.47884 18.167 5.3877C18.3913 5.12301 18.6437 4.88391 18.8906 4.64063C18.8314 4.63888 18.7721 4.63712 18.711 4.63532C18.6332 4.63224 18.5554 4.62913 18.4775 4.62598C18.4385 4.62492 18.3994 4.62387 18.3592 4.62278C18.3027 4.62028 18.3027 4.62028 18.2452 4.61774C18.1933 4.6159 18.1933 4.6159 18.1403 4.61402C18.022 4.58835 17.979 4.54876 17.9063 4.45313C17.8761 4.21167 17.8761 4.21167 17.9707 4.08692C18.1343 3.9674 18.2925 3.9683 18.4885 3.956C18.5231 3.95376 18.5577 3.95152 18.5933 3.94922C18.6666 3.94458 18.7399 3.94005 18.8132 3.93564C18.9247 3.92878 19.0362 3.92112 19.1477 3.91343C19.219 3.90901 19.2903 3.90465 19.3616 3.90033C19.4112 3.89675 19.4112 3.89675 19.4619 3.8931C19.6675 3.88182 19.8277 3.89852 20.0156 3.98438Z" fill="#D62828"/>
<path d="M10.2343 13.1555C10.3136 13.1547 10.3929 13.1534 10.4722 13.1516C10.5868 13.149 10.7014 13.148 10.816 13.1473C10.8513 13.1463 10.8866 13.1452 10.9229 13.1441C11.1001 13.1448 11.1953 13.1666 11.3427 13.2671C11.461 13.4407 11.4707 13.5783 11.467 13.7814C11.4671 13.8171 11.4672 13.8527 11.4673 13.8894C11.4673 13.9645 11.4666 14.0395 11.4655 14.1146C11.4639 14.2293 11.4645 14.3439 11.4654 14.4586C11.4651 14.5317 11.4646 14.6048 11.464 14.6779C11.4643 14.7121 11.4645 14.7463 11.4648 14.7815C11.4613 14.9313 11.4458 15.0332 11.3679 15.1622C11.193 15.2692 11.0381 15.2604 10.8367 15.2576C10.7967 15.2577 10.7568 15.2578 10.7156 15.2578C10.6312 15.2578 10.5469 15.2572 10.4625 15.2562C10.3333 15.2549 10.2042 15.2553 10.0749 15.2559C9.99292 15.2556 9.91092 15.2552 9.82892 15.2547C9.7709 15.2549 9.7709 15.2549 9.71172 15.2551C9.44351 15.2507 9.44351 15.2507 9.34135 15.1737C9.23802 15.0363 9.26228 14.8708 9.26422 14.7056C9.26419 14.6676 9.26417 14.6296 9.26415 14.5905C9.26426 14.5103 9.26471 14.4301 9.26549 14.3499C9.26659 14.227 9.26645 14.1042 9.26614 13.9814C9.2664 13.9034 9.26674 13.8255 9.26715 13.7476C9.2671 13.7108 9.26706 13.674 9.26702 13.6361C9.26936 13.457 9.27327 13.3713 9.375 13.2188C9.64492 13.1288 9.95116 13.1575 10.2343 13.1555ZM9.89062 13.7813C9.89062 14.0597 9.89062 14.3381 9.89062 14.625C10.2 14.625 10.5094 14.625 10.8281 14.625C10.8281 14.3466 10.8281 14.0681 10.8281 13.7813C10.5187 13.7813 10.2094 13.7813 9.89062 13.7813Z" fill="#D62828"/>
<path d="M14.0684 8.24121C14.2031 8.29688 14.2031 8.29688 14.2754 8.42487C14.3802 8.69077 14.4074 8.97648 14.4463 9.25781C14.4546 9.31395 14.4629 9.37008 14.4715 9.42792C14.5754 10.1525 14.5754 10.1525 14.4375 10.3594C14.2976 10.3989 14.1939 10.4136 14.0508 10.3857C13.8153 10.1755 13.8204 9.61884 13.7754 9.32227C13.7626 9.24115 13.7626 9.24115 13.7496 9.15839C13.7415 9.106 13.7335 9.05361 13.7252 8.99963C13.718 8.95243 13.7107 8.90524 13.7032 8.85661C13.687 8.71412 13.6781 8.5807 13.6875 8.4375C13.8118 8.29494 13.8788 8.25258 14.0684 8.24121Z" fill="#D62828"/>
<path d="M9.9873 8.27637C10.125 8.29688 10.125 8.29688 10.2129 8.34375C10.3858 8.65118 10.2156 9.15399 10.1572 9.47754C10.1472 9.53648 10.1372 9.59543 10.1269 9.65616C10.1117 9.74131 10.1117 9.74131 10.0963 9.82819C10.0872 9.87956 10.0781 9.93093 10.0687 9.98386C10.0294 10.132 9.98144 10.2362 9.89062 10.3594C9.73223 10.4133 9.65274 10.4273 9.50098 10.3535C9.40043 10.2418 9.39212 10.1806 9.375 10.0312C9.38775 9.91072 9.40381 9.79546 9.42535 9.67657C9.43122 9.64302 9.43708 9.60946 9.44312 9.57488C9.45564 9.50421 9.46837 9.43357 9.48133 9.36297C9.50092 9.25521 9.51924 9.14727 9.53751 9.03928C9.54985 8.97045 9.56227 8.90163 9.57477 8.83282C9.5801 8.80069 9.58543 8.76856 9.59092 8.73545C9.63966 8.48027 9.71734 8.31493 9.9873 8.27637Z" fill="#D62828"/>
<path d="M12.2344 8.29688C12.3437 8.40256 12.3728 8.46714 12.3917 8.61871C12.3913 8.66973 12.3908 8.72075 12.3904 8.77332C12.3901 8.82982 12.3899 8.88631 12.3896 8.94452C12.3887 9.00344 12.3877 9.06235 12.3867 9.12305C12.3865 9.18088 12.3862 9.2387 12.386 9.29828C12.3846 9.46463 12.3807 9.63062 12.375 9.79688C12.3735 9.84363 12.3719 9.89039 12.3703 9.93856C12.3678 9.98014 12.3652 10.0217 12.3625 10.0646C12.3605 10.1004 12.3584 10.1362 12.3563 10.173C12.3171 10.302 12.2556 10.3402 12.1406 10.4063C11.9971 10.4063 11.9971 10.4063 11.8594 10.3594C11.6998 10.1641 11.7014 9.97915 11.7103 9.73792C11.7112 9.70113 11.7121 9.66434 11.7131 9.62643C11.7152 9.54897 11.7176 9.47151 11.7204 9.39407C11.7246 9.27548 11.7272 9.15691 11.7297 9.03827C11.732 8.96289 11.7343 8.88751 11.7367 8.81214C11.7374 8.77669 11.7382 8.74124 11.7389 8.70471C11.7491 8.46222 11.7491 8.46222 11.8275 8.34506C11.9642 8.26144 12.0796 8.27754 12.2344 8.29688Z" fill="#D62828"/>
</g>
<defs>
<clipPath id="clip0_683_1678">
<rect width="24" height="24" fill="white"/>
</clipPath>
</defs>
</svg>
