<svg width="24" height="24" viewBox="0 0 24 24" fill="none" xmlns="http://www.w3.org/2000/svg">
<path d="M10.9468 0.678126C10.9987 0.677384 11.0507 0.676641 11.1042 0.675877C11.16 0.676109 11.2159 0.676342 11.2734 0.676581C11.3598 0.676145 11.3598 0.676145 11.4479 0.675701C11.5695 0.675368 11.6912 0.675517 11.8129 0.676112C11.9993 0.676762 12.1856 0.675165 12.3721 0.673377C12.4902 0.673332 12.6084 0.673419 12.7266 0.673651C12.7824 0.67303 12.8383 0.672409 12.8959 0.671768C13.2809 0.676124 13.2809 0.676124 13.4411 0.812995C13.5123 0.963455 13.5284 1.07883 13.5352 1.24512C13.5378 1.30235 13.5404 1.35957 13.543 1.41852C13.5484 1.66454 13.5509 1.91021 13.5469 2.15626C13.603 2.16592 13.659 2.17559 13.7168 2.18555C13.9865 2.24386 14.2287 2.35839 14.478 2.47303C14.6277 2.54276 14.6277 2.54276 14.8125 2.53126C14.8969 2.47316 14.8969 2.47316 14.9731 2.391C15.0027 2.36181 15.0324 2.33263 15.0629 2.30256C15.124 2.24064 15.1851 2.17863 15.246 2.11652C15.4328 1.93294 15.5739 1.81606 15.8438 1.78126C16.0181 1.83485 16.1268 1.90619 16.2546 2.03477C16.2873 2.0673 16.32 2.09984 16.3536 2.13336C16.4054 2.18603 16.4054 2.18603 16.4583 2.23975C16.4942 2.27581 16.5302 2.31187 16.5673 2.34903C16.6431 2.42515 16.7187 2.50144 16.7942 2.57788C16.9101 2.69521 17.0264 2.81204 17.1429 2.92878C17.2165 3.00278 17.29 3.07682 17.3635 3.15089C17.3984 3.18599 17.4334 3.2211 17.4693 3.25728C17.5175 3.30608 17.5175 3.30608 17.5666 3.35587C17.6091 3.39885 17.6091 3.39885 17.6524 3.4427C17.7608 3.56187 17.7957 3.67605 17.794 3.83808C17.7278 4.0701 17.5093 4.23937 17.3438 4.40626C17.2786 4.47294 17.214 4.54026 17.1504 4.6084C17.1232 4.63626 17.096 4.66412 17.068 4.69282C17.0054 4.77968 17.0054 4.77968 17.022 4.88929C17.0896 5.10022 17.1837 5.29833 17.2747 5.49995C17.3479 5.68209 17.394 5.85582 17.4375 6.04688C17.4889 6.04541 17.4889 6.04541 17.5414 6.04391C17.6972 6.04 17.853 6.03757 18.0088 6.03516C18.0627 6.03359 18.1167 6.03202 18.1722 6.0304C18.2243 6.0298 18.2765 6.02919 18.3302 6.02857C18.378 6.02759 18.4259 6.02661 18.4752 6.0256C18.6445 6.05245 18.7214 6.11701 18.8438 6.23438C18.9023 6.35138 18.8975 6.43219 18.8989 6.56311C18.8995 6.61209 18.9001 6.66106 18.9008 6.71152C18.9013 6.79121 18.9013 6.79121 18.9018 6.8725C18.9022 6.92696 18.9026 6.98141 18.903 7.03752C18.9036 7.15293 18.9041 7.26835 18.9045 7.38377C18.9053 7.56032 18.9073 7.73683 18.9094 7.91337C18.9099 8.0254 18.9103 8.13743 18.9106 8.24946C18.9114 8.3023 18.9122 8.35513 18.9131 8.40957C18.9121 8.77536 18.9121 8.77536 18.8044 8.96196C18.6415 9.09855 18.5077 9.09942 18.3027 9.09833C18.2524 9.09818 18.2021 9.09803 18.1502 9.09788C18.0978 9.09748 18.0453 9.09709 17.9912 9.09669C17.9382 9.09647 17.8852 9.09626 17.8305 9.09605C17.6995 9.09549 17.5685 9.09472 17.4375 9.09376C17.4291 9.1272 17.4207 9.16065 17.4121 9.19512C17.3282 9.51787 17.219 9.78874 17.0676 10.0853C17.014 10.2229 17.0071 10.2724 17.0625 10.4063C17.2001 10.4121 17.2001 10.4121 17.3174 10.377C17.461 10.3559 17.5031 10.3788 17.625 10.4531C17.689 10.5215 17.689 10.5215 17.7466 10.6016C17.7685 10.6316 17.7904 10.6615 17.8129 10.6923C17.836 10.7246 17.859 10.7568 17.8828 10.79C17.9329 10.8585 17.9831 10.9268 18.0333 10.9951C18.0589 11.0299 18.0844 11.0646 18.1107 11.1004C18.2283 11.2578 18.3511 11.4107 18.4746 11.5635C18.6679 11.803 18.8579 12.0447 19.0449 12.2891C19.1835 12.4702 19.3237 12.65 19.4649 12.8291C19.7177 13.1502 19.9687 13.4726 20.2194 13.7954C20.3378 13.9477 20.4563 14.0999 20.575 14.252C20.62 14.3096 20.62 14.3096 20.6658 14.3684C20.7234 14.4423 20.781 14.5161 20.8387 14.5899C20.8646 14.6232 20.8905 14.6565 20.9172 14.6907C20.9401 14.72 20.9629 14.7492 20.9864 14.7794C21.1417 14.9849 21.1417 14.9849 21.1289 15.167C21.0938 15.3281 21.0938 15.3281 21 15.4219C20.914 15.4332 20.914 15.4332 20.8086 15.4325C20.7692 15.4325 20.7298 15.4325 20.6892 15.4325C20.6466 15.432 20.6041 15.4315 20.5602 15.431C20.4948 15.4308 20.4948 15.4308 20.4282 15.4306C20.2887 15.4301 20.1492 15.4289 20.0098 15.4277C19.9154 15.4273 19.8209 15.4268 19.7265 15.4265C19.4948 15.4254 19.263 15.4238 19.0313 15.4219C19.0314 15.451 19.0315 15.4801 19.0317 15.5101C19.0348 16.2178 19.0371 16.9255 19.0385 17.6332C19.0393 17.9754 19.0403 18.3176 19.0419 18.6599C19.0433 18.9581 19.0442 19.2564 19.0445 19.5546C19.0447 19.7126 19.0451 19.8705 19.0461 20.0285C19.0471 20.2047 19.0473 20.3809 19.0472 20.5571C19.048 20.6359 19.048 20.6359 19.0488 20.7163C19.0486 20.7642 19.0484 20.8122 19.0482 20.8615C19.0483 20.9032 19.0484 20.9449 19.0486 20.9879C19.0275 21.1166 18.9949 21.1579 18.8906 21.2344C18.7529 21.2549 18.7529 21.2549 18.6094 21.2344C18.4885 21.1395 18.4293 21.0831 18.3982 20.9308C18.398 20.887 18.3979 20.8432 18.3978 20.7981C18.3969 20.7225 18.3969 20.7225 18.396 20.6454C18.3963 20.5903 18.3966 20.5353 18.3969 20.4785C18.3965 20.4204 18.3961 20.3622 18.3957 20.3023C18.3948 20.1428 18.3947 19.9834 18.3952 19.824C18.3954 19.6909 18.3951 19.5577 18.3947 19.4246C18.3939 19.1104 18.3941 18.7963 18.3949 18.4821C18.3957 18.1582 18.3949 17.8343 18.3934 17.5103C18.3922 17.232 18.3918 16.9538 18.3922 16.6755C18.3924 16.5094 18.3923 16.3432 18.3914 16.1771C18.3904 15.9918 18.3912 15.8066 18.3923 15.6213C18.3918 15.5663 18.3912 15.5114 18.3906 15.4547C18.395 15.0843 18.395 15.0843 18.5307 14.8955C18.6979 14.785 18.8077 14.7856 19.0073 14.7896C19.0402 14.7899 19.0732 14.7903 19.1072 14.7906C19.2118 14.7919 19.3163 14.7949 19.4209 14.7979C19.4921 14.799 19.5633 14.8001 19.6345 14.8011C19.8085 14.8036 19.9823 14.8077 20.1563 14.8125C19.8117 14.3634 19.4647 13.9161 19.1169 13.4694C19.0317 13.36 18.9466 13.2505 18.8615 13.1409C18.5898 12.7912 18.3175 12.442 18.0434 12.0941C17.8235 11.8145 17.6069 11.5324 17.3906 11.25C17.2233 11.4112 17.0798 11.5766 16.9395 11.7627C16.8981 11.8172 16.8567 11.8716 16.8153 11.926C16.7942 11.9539 16.7731 11.9817 16.7513 12.0104C16.6493 12.1437 16.5454 12.2755 16.4414 12.4072C16.1883 12.7285 15.9372 13.0512 15.6863 13.3742C15.5698 13.5242 15.4531 13.6739 15.3362 13.8236C15.3069 13.8611 15.2776 13.8987 15.2474 13.9374C15.1916 14.0088 15.1358 14.0802 15.08 14.1515C14.923 14.3528 14.7719 14.5569 14.625 14.7656C14.6678 14.7658 14.7106 14.766 14.7547 14.7662C14.9142 14.7675 15.0735 14.7698 15.233 14.7728C15.3019 14.7739 15.3707 14.7745 15.4396 14.7748C15.5389 14.7752 15.6381 14.7772 15.7374 14.7794C15.797 14.7801 15.8567 14.7808 15.9181 14.7816C16.1309 14.8227 16.1853 14.8704 16.3125 15.0469C16.3475 15.2381 16.3435 15.4273 16.3414 15.6213C16.3416 15.6795 16.3419 15.7378 16.3421 15.7978C16.3426 15.9573 16.342 16.1166 16.3409 16.276C16.34 16.443 16.3402 16.6099 16.3403 16.7769C16.3403 17.0572 16.3394 17.3375 16.3379 17.6177C16.3362 17.9417 16.3358 18.2657 16.3361 18.5896C16.3364 18.9015 16.3359 19.2133 16.335 19.5251C16.3346 19.6578 16.3345 19.7904 16.3345 19.923C16.3346 20.1082 16.3335 20.2934 16.3322 20.4785C16.3323 20.5336 16.3325 20.5887 16.3326 20.6454C16.3318 20.721 16.3318 20.721 16.331 20.7981C16.3308 20.8419 16.3307 20.8857 16.3305 20.9308C16.3089 21.0702 16.2713 21.1349 16.1719 21.2344C15.8924 21.2693 15.8924 21.2693 15.7643 21.1773C15.6832 21.0665 15.6858 20.9982 15.6862 20.8615C15.6859 20.7896 15.6859 20.7896 15.6856 20.7163C15.6864 20.6375 15.6864 20.6375 15.6872 20.5571C15.6872 20.5018 15.6871 20.4464 15.6871 20.3894C15.6872 20.2377 15.6879 20.0859 15.6889 19.9342C15.6898 19.7756 15.6898 19.617 15.69 19.4584C15.6904 19.1581 15.6916 18.8578 15.693 18.5575C15.6946 18.2156 15.6954 17.8737 15.6961 17.5318C15.6975 16.8285 15.7 16.1252 15.7031 15.4219C15.6454 15.4221 15.5877 15.4224 15.5282 15.4226C15.3145 15.4235 15.1009 15.424 14.8872 15.4245C14.7946 15.4247 14.702 15.425 14.6094 15.4254C14.4766 15.426 14.3437 15.4263 14.2108 15.4265C14.1693 15.4267 14.1277 15.4269 14.0849 15.4272C13.7919 15.4272 13.7919 15.4272 13.6875 15.375C13.6876 15.4147 13.6878 15.4544 13.6879 15.4953C13.691 16.4604 13.6933 17.4255 13.6948 18.3906C13.6955 18.8573 13.6965 19.324 13.6981 19.7908C13.6995 20.1975 13.7004 20.6042 13.7007 21.0109C13.7009 21.2264 13.7014 21.4418 13.7024 21.6572C13.7033 21.8599 13.7036 22.0625 13.7034 22.2652C13.7035 22.3397 13.7037 22.4141 13.7043 22.4886C13.705 22.5901 13.7048 22.6917 13.7044 22.7932C13.7046 22.8501 13.7047 22.9069 13.7048 22.9655C13.6859 23.1224 13.6611 23.1888 13.5469 23.2969C13.2657 23.332 13.2657 23.332 13.1393 23.2374C13.0641 23.1377 13.0605 23.0869 13.0604 22.9629C13.0601 22.9234 13.0597 22.8838 13.0593 22.8431C13.0598 22.7779 13.0598 22.7779 13.0603 22.7114C13.0599 22.6422 13.0599 22.6422 13.0596 22.5716C13.0591 22.4162 13.0595 22.2609 13.0599 22.1055C13.0597 21.9944 13.0595 21.8833 13.0592 21.7722C13.0586 21.5014 13.0587 21.2306 13.0591 20.9597C13.0594 20.7397 13.0595 20.5196 13.0593 20.2995C13.0593 20.2682 13.0593 20.2369 13.0593 20.2047C13.0592 20.1411 13.0592 20.0776 13.0591 20.014C13.0587 19.4176 13.0592 18.8212 13.0599 18.2248C13.0606 17.7128 13.0605 17.2008 13.0598 16.6888C13.0591 16.0946 13.0588 15.5004 13.0592 14.9061C13.0592 14.8428 13.0593 14.7795 13.0593 14.7161C13.0593 14.685 13.0594 14.6538 13.0594 14.6217C13.0595 14.4018 13.0593 14.182 13.059 13.9621C13.0586 13.6663 13.0588 13.3705 13.0597 13.0747C13.0598 12.9659 13.0598 12.8571 13.0595 12.7484C13.0591 12.6003 13.0596 12.4523 13.0603 12.3042C13.06 12.2608 13.0597 12.2173 13.0593 12.1726C13.0597 12.133 13.0601 12.0935 13.0604 12.0527C13.0605 12.0014 13.0605 12.0014 13.0605 11.9491C13.0836 11.8315 13.1238 11.7902 13.2188 11.7188C13.3396 11.7033 13.4498 11.6959 13.5709 11.6948C13.605 11.6939 13.6391 11.6931 13.6743 11.6922C13.7832 11.6897 13.8921 11.6881 14.001 11.6865C14.0749 11.685 14.1488 11.6834 14.2226 11.6817C14.4036 11.6777 14.5846 11.6746 14.7656 11.6719C14.5048 11.3323 14.2436 10.993 13.9805 10.6553C13.9241 10.5828 13.8677 10.5104 13.8113 10.4379C13.783 10.4017 13.7548 10.3654 13.7257 10.328C13.5608 10.1162 13.3961 9.90437 13.2313 9.6925C13.09 9.51079 12.9487 9.32914 12.8071 9.14759C12.778 9.11013 12.7488 9.07266 12.7187 9.03406C12.6634 8.96312 12.6081 8.8922 12.5528 8.8213C12.5275 8.78879 12.5022 8.75628 12.4761 8.72278C12.4516 8.69141 12.4271 8.66003 12.4019 8.62771C12.3504 8.56031 12.2998 8.49215 12.25 8.42345C12.225 8.38906 12.2 8.35466 12.1743 8.31922C12.1521 8.28796 12.1298 8.2567 12.1069 8.22449C12.0871 8.20197 12.0673 8.17945 12.0469 8.15626C12.0159 8.15626 11.985 8.15626 11.9531 8.15626C11.8915 8.22023 11.8915 8.22023 11.8305 8.30585C11.8062 8.3382 11.7819 8.37054 11.7568 8.40386C11.7307 8.43913 11.7046 8.47441 11.6777 8.51075C11.6225 8.58435 11.5671 8.65789 11.5117 8.73139C11.4836 8.76865 11.4555 8.80591 11.4266 8.8443C11.3051 9.00391 11.1797 9.16032 11.0537 9.31641C10.8453 9.5753 10.641 9.8368 10.439 10.1008C10.2619 10.3321 10.0823 10.5615 9.90284 10.7909C9.67605 11.0816 9.45493 11.3764 9.23439 11.6719C9.28051 11.6726 9.32663 11.6732 9.37415 11.674C9.54531 11.6767 9.71643 11.6803 9.88756 11.6842C9.96162 11.6857 10.0357 11.6871 10.1098 11.6881C10.2162 11.6897 10.3227 11.6921 10.4291 11.6948C10.4623 11.6951 10.4954 11.6954 10.5295 11.6957C10.7598 11.7026 10.7598 11.7026 10.8603 11.7783C10.936 11.878 10.9395 11.9285 10.9396 12.0527C10.9399 12.0923 10.9403 12.1318 10.9407 12.1726C10.9402 12.2377 10.9402 12.2377 10.9397 12.3042C10.94 12.3504 10.9402 12.3965 10.9404 12.4441C10.941 12.5994 10.9405 12.7548 10.9401 12.9101C10.9403 13.0212 10.9405 13.1323 10.9408 13.2434C10.9414 13.5142 10.9413 13.7851 10.9409 14.0559C10.9406 14.276 10.9406 14.496 10.9407 14.7161C10.9407 14.7474 10.9407 14.7787 10.9408 14.8109C10.9408 14.8745 10.9409 14.9381 10.9409 15.0016C10.9413 15.598 10.9408 16.1944 10.9401 16.7908C10.9395 17.3028 10.9396 17.8148 10.9402 18.3268C10.941 18.9211 10.9413 19.5153 10.9408 20.1095C10.9408 20.1728 10.9407 20.2362 10.9407 20.2995C10.9407 20.3307 10.9407 20.3618 10.9406 20.394C10.9405 20.6138 10.9407 20.8337 10.9411 21.0536C10.9415 21.3493 10.9412 21.6451 10.9404 21.9409C10.9402 22.0497 10.9402 22.1585 10.9405 22.2673C10.9409 22.4153 10.9404 22.5634 10.9397 22.7114C10.9401 22.7549 10.9404 22.7983 10.9407 22.8431C10.9403 22.8826 10.94 22.9222 10.9396 22.9629C10.9395 23.0142 10.9395 23.0142 10.9395 23.0665C10.9164 23.1843 10.8765 23.2255 10.7813 23.2969C10.6172 23.3174 10.6172 23.3174 10.4531 23.2969C10.3389 23.1888 10.3141 23.1224 10.2952 22.9655C10.2953 22.9087 10.2955 22.8518 10.2956 22.7932C10.2955 22.7615 10.2954 22.7297 10.2952 22.697C10.295 22.5907 10.2958 22.4844 10.2965 22.3781C10.2966 22.3019 10.2966 22.2256 10.2965 22.1494C10.2964 21.9425 10.2973 21.7355 10.2983 21.5286C10.2991 21.3123 10.2992 21.096 10.2994 20.8798C10.2998 20.4702 10.301 20.0607 10.3024 19.6511C10.304 19.1849 10.3047 18.7186 10.3054 18.2524C10.3069 17.2932 10.3094 16.3341 10.3125 15.375C10.2816 15.3905 10.2506 15.4059 10.2188 15.4219C10.0752 15.426 9.93274 15.4273 9.7892 15.4265C9.74667 15.4264 9.70415 15.4263 9.66033 15.4263C9.52421 15.426 9.38809 15.4254 9.25196 15.4248C9.1598 15.4246 9.06764 15.4244 8.97548 15.4242C8.74928 15.4237 8.52308 15.4228 8.29689 15.4219C8.29702 15.451 8.29715 15.4801 8.29728 15.5101C8.30038 16.2178 8.30271 16.9255 8.30417 17.6332C8.3049 17.9754 8.30589 18.3176 8.30749 18.6599C8.3089 18.9581 8.3098 19.2564 8.31012 19.5546C8.3103 19.7126 8.31073 19.8705 8.31175 20.0285C8.31277 20.2047 8.31292 20.3809 8.31285 20.5571C8.31336 20.6097 8.31386 20.6622 8.31438 20.7163C8.31419 20.7642 8.314 20.8122 8.3138 20.8615C8.31393 20.9032 8.31406 20.9449 8.31419 20.9879C8.29689 21.0938 8.29689 21.0938 8.23577 21.1773C8.10158 21.2736 7.98681 21.2542 7.82814 21.2344C7.6895 21.0956 7.66979 20.9905 7.66902 20.7981C7.66849 20.7477 7.66796 20.6973 7.66741 20.6454C7.66755 20.5903 7.66769 20.5353 7.66783 20.4785C7.66743 20.4204 7.66703 20.3622 7.66662 20.3023C7.66572 20.1428 7.66545 19.9834 7.66553 19.824C7.66554 19.6909 7.66514 19.5577 7.66475 19.4246C7.66385 19.1104 7.66371 18.7963 7.66403 18.4821C7.66434 18.1582 7.66327 17.8343 7.66153 17.5103C7.66009 17.232 7.65956 16.9538 7.65974 16.6755C7.65984 16.5094 7.65958 16.3432 7.65843 16.1771C7.65719 15.9918 7.65784 15.8066 7.65867 15.6213C7.65805 15.5663 7.65743 15.5114 7.65679 15.4547C7.66064 15.0841 7.66064 15.0841 7.7965 14.8957C7.95942 14.7876 8.06782 14.7818 8.26265 14.7794C8.29457 14.7787 8.32649 14.7779 8.35938 14.7772C8.46063 14.7752 8.56182 14.7748 8.6631 14.7744C8.73204 14.7733 8.80098 14.7721 8.86992 14.7708C9.03828 14.7679 9.20662 14.7664 9.37501 14.7656C9.07488 14.3607 8.77103 13.9599 8.4546 13.5675C8.28512 13.3571 8.11931 13.1443 7.95525 12.9297C7.81578 12.7475 7.67442 12.5668 7.53224 12.3867C7.23594 12.0111 6.94602 11.6307 6.65626 11.25C6.45149 11.4437 6.28238 11.6563 6.11134 11.8799C6.05264 11.956 5.99392 12.0321 5.93519 12.1082C5.90635 12.1457 5.87752 12.1831 5.8478 12.2217C5.73539 12.3673 5.62173 12.5119 5.50782 12.6563C5.25888 12.9724 5.01182 13.2901 4.76496 13.6079C4.64661 13.7602 4.52806 13.9124 4.40937 14.0645C4.37942 14.1029 4.34947 14.1413 4.31861 14.1809C4.26102 14.2548 4.2034 14.3286 4.14574 14.4024C4.10684 14.4523 4.10684 14.4523 4.06715 14.5032C4.04432 14.5325 4.0215 14.5617 3.99798 14.5919C3.94388 14.6634 3.89354 14.7378 3.84376 14.8125C3.88797 14.8113 3.93219 14.8101 3.97774 14.8088C4.14242 14.8048 4.30705 14.8018 4.47176 14.7996C4.54292 14.7985 4.61407 14.7969 4.68521 14.7948C4.78774 14.792 4.89019 14.7906 4.99275 14.7896C5.05436 14.7884 5.11598 14.7872 5.17946 14.7859C5.34376 14.8125 5.34376 14.8125 5.46937 14.8955C5.63555 15.1268 5.61049 15.3431 5.60772 15.6213C5.60805 15.6795 5.60839 15.7378 5.60874 15.7978C5.60939 15.9573 5.609 16.1166 5.60807 16.276C5.60731 16.443 5.60772 16.6099 5.60796 16.7769C5.60817 17.0572 5.60743 17.3375 5.60612 17.6177C5.60461 17.9417 5.60462 18.2657 5.60542 18.5896C5.60617 18.9015 5.60585 19.2133 5.60505 19.5251C5.60473 19.6578 5.60478 19.7904 5.60512 19.923C5.60555 20.1082 5.60443 20.2934 5.60314 20.4785C5.60345 20.5336 5.60375 20.5887 5.60407 20.6454C5.60347 20.6958 5.60288 20.7462 5.60226 20.7981C5.60213 20.8419 5.602 20.8857 5.60186 20.9308C5.57074 21.0831 5.5115 21.1395 5.39064 21.2344C5.24319 21.2554 5.15422 21.2673 5.03152 21.1773C4.94832 21.0666 4.95142 20.9994 4.95185 20.8615C4.95166 20.8136 4.95146 20.7657 4.95126 20.7163C4.95177 20.6638 4.95228 20.6113 4.9528 20.5571C4.95278 20.5018 4.95276 20.4464 4.95273 20.3894C4.95282 20.2377 4.95352 20.0859 4.9545 19.9342C4.95538 19.7756 4.95546 19.617 4.95563 19.4584C4.95607 19.1581 4.95722 18.8578 4.95863 18.5575C4.9602 18.2156 4.96098 17.8737 4.96168 17.5318C4.96315 16.8285 4.96563 16.1252 4.96876 15.4219C4.90986 15.4229 4.85096 15.4238 4.79027 15.4249C4.57197 15.4282 4.35367 15.4304 4.13535 15.4322C4.04081 15.4331 3.94628 15.4344 3.85176 15.436C3.71597 15.4383 3.58021 15.4394 3.44441 15.4402C3.40207 15.4412 3.35973 15.4421 3.31611 15.4431C3.02471 15.4432 3.02471 15.4432 2.9018 15.337C2.8357 15.1771 2.86223 15.0714 2.90626 14.9063C2.9936 14.7775 2.9936 14.7775 3.10841 14.6514C3.15155 14.6025 3.19451 14.5535 3.23732 14.5043C3.25991 14.4785 3.28251 14.4526 3.3058 14.4259C3.42655 14.2826 3.53647 14.1314 3.64747 13.9805C3.83943 13.7211 4.03719 13.468 4.2422 13.2188C4.46967 12.9421 4.68729 12.6597 4.90062 12.372C5.08396 12.1256 5.27408 11.8853 5.46683 11.6461C5.62224 11.4532 5.7756 11.2588 5.92677 11.0625C5.95594 11.0248 5.95594 11.0248 5.98571 10.9863C6.08607 10.8557 6.17987 10.723 6.26954 10.585C6.39225 10.4316 6.46264 10.3876 6.65626 10.3594C6.79103 10.4004 6.79103 10.4004 6.89064 10.4531C6.92157 10.4222 6.95251 10.3913 6.98439 10.3594C6.96202 10.1024 6.83004 9.87257 6.72529 9.64069C6.65216 9.45854 6.60602 9.28481 6.56251 9.09376C6.51323 9.09486 6.51323 9.09486 6.46296 9.09599C6.31353 9.09892 6.16411 9.10074 6.01466 9.10255C5.96297 9.10372 5.91127 9.1049 5.85801 9.10612C5.80801 9.10657 5.75801 9.10702 5.70649 9.10749C5.63764 9.10859 5.63764 9.10859 5.56739 9.10972C5.41302 9.09075 5.32777 9.04492 5.20314 8.95313C5.10035 8.79895 5.09725 8.7514 5.09577 8.5722C5.09517 8.52323 5.09457 8.47426 5.09396 8.4238C5.09385 8.37092 5.09375 8.31804 5.09364 8.26356C5.09333 8.20917 5.09301 8.15478 5.09269 8.09874C5.09222 7.98361 5.092 7.86847 5.09201 7.75333C5.09181 7.57719 5.09011 7.40111 5.08833 7.22498C5.08805 7.11317 5.08787 7.00135 5.08778 6.88953C5.08711 6.83684 5.08643 6.78415 5.08574 6.72986C5.08788 6.36412 5.08788 6.36412 5.19863 6.17879C5.35737 6.04141 5.4494 6.04126 5.65614 6.0423C5.73499 6.04253 5.73499 6.04253 5.81544 6.04276C5.87055 6.04315 5.92566 6.04355 5.98243 6.04395C6.0379 6.04416 6.09337 6.04437 6.15052 6.04459C6.28786 6.04515 6.42518 6.04592 6.56251 6.04688C6.57089 6.01343 6.57928 5.97998 6.58792 5.94552C6.67181 5.62277 6.78105 5.3519 6.93238 5.05537C6.99104 4.93061 6.99104 4.93061 6.98127 4.82447C6.92014 4.69862 6.83696 4.61063 6.74122 4.5088C6.7034 4.46759 6.66557 4.42638 6.6266 4.38392C6.5602 4.31314 6.49325 4.24288 6.42518 4.17371C6.29785 4.03907 6.23975 3.96021 6.1963 3.77637C6.23566 3.60378 6.26563 3.55905 6.38022 3.43286C6.40997 3.39999 6.43971 3.36713 6.47036 3.33327C6.6999 3.08694 6.93562 2.84698 7.17263 2.60785C7.23692 2.54278 7.30096 2.47745 7.36475 2.41188C7.45768 2.3164 7.55135 2.2217 7.64521 2.12714C7.67349 2.0978 7.70177 2.06846 7.73091 2.03823C7.89544 1.87451 8.00642 1.78397 8.25001 1.78126C8.47055 1.86255 8.60631 1.98353 8.76564 2.15333C8.99703 2.40066 8.99703 2.40066 9.28126 2.57813C9.42165 2.53827 9.52123 2.49863 9.64747 2.43165C9.71356 2.39945 9.77978 2.36752 9.84614 2.33588C9.87784 2.32063 9.90954 2.30538 9.9422 2.28967C10.1084 2.21565 10.2745 2.18497 10.4531 2.15626C10.4526 2.11203 10.452 2.06779 10.4515 2.02222C10.4494 1.72787 10.4492 1.43368 10.4649 1.13965C10.467 1.09597 10.4692 1.05228 10.4714 1.00727C10.5345 0.749825 10.698 0.67971 10.9468 0.678126ZM11.1094 1.26563C11.0715 1.41706 11.0558 1.52742 11.0526 1.68018C11.0513 1.72314 11.05 1.76611 11.0486 1.81037C11.0462 1.90033 11.0441 1.99029 11.0424 2.08027C11.0409 2.12323 11.0395 2.16619 11.038 2.21046C11.037 2.24952 11.0361 2.28858 11.0352 2.32883C11.0111 2.46299 10.9686 2.52673 10.875 2.62501C10.792 2.6669 10.792 2.6669 10.6998 2.6933C10.6655 2.70372 10.6312 2.71414 10.5959 2.72487C10.5594 2.73542 10.523 2.74597 10.4854 2.75684C10.1402 2.86275 9.83509 2.99528 9.52095 3.17249C9.34864 3.24557 9.23236 3.25559 9.04689 3.23438C8.94764 3.17579 8.94764 3.17579 8.86525 3.09376C8.83443 3.06421 8.80361 3.03466 8.77186 3.00422C8.73887 2.97189 8.70588 2.93956 8.67189 2.90626C8.59408 2.83657 8.51595 2.76722 8.43751 2.69825C8.375 2.6426 8.31249 2.58694 8.25001 2.53126C8.06227 2.60643 7.93702 2.7385 7.79811 2.88026C7.76105 2.91751 7.76105 2.91751 7.72324 2.95552C7.6447 3.03458 7.56649 3.11397 7.48829 3.19337C7.43497 3.24716 7.38162 3.30093 7.32826 3.35468C7.19776 3.48621 7.06756 3.61803 6.93751 3.75001C7.12275 4.00791 7.3137 4.22215 7.55366 4.43116C7.67076 4.58696 7.70069 4.73092 7.68751 4.92188C7.63738 5.05 7.58869 5.1534 7.52052 5.27051C7.35369 5.57709 7.22842 5.88348 7.12051 6.21524C7.03983 6.46018 7.03983 6.46018 6.93751 6.56251C6.68637 6.62232 6.42692 6.62455 6.16993 6.63575C5.9466 6.6459 5.9466 6.6459 5.71876 6.65626C5.71876 7.25954 5.71876 7.86282 5.71876 8.48438C6.04757 8.49605 6.04757 8.49605 6.37642 8.50679C6.41771 8.50846 6.459 8.51013 6.50154 8.51185C6.54351 8.51332 6.58549 8.51479 6.62874 8.51631C6.76149 8.53267 6.8641 8.56704 6.98439 8.62501C7.04005 8.70502 7.04005 8.70502 7.07814 8.80372C7.09324 8.84142 7.10835 8.87913 7.12391 8.91798C7.13974 8.96051 7.15558 9.00305 7.17189 9.04688C7.20889 9.14555 7.246 9.24419 7.28321 9.34278C7.30255 9.3945 7.32189 9.44623 7.34181 9.49952C7.40662 9.65713 7.48291 9.80264 7.56446 9.95216C7.71059 10.2417 7.71059 10.2417 7.70509 10.418C7.61553 10.6622 7.46054 10.8018 7.26564 10.9688C7.47325 11.3048 7.71711 11.6077 7.96492 11.9141C8.09463 12.0747 8.22137 12.2373 8.34669 12.4014C8.50443 12.6076 8.66353 12.8127 8.82423 13.0166C9.02444 13.2707 9.22342 13.5258 9.42189 13.7813C9.50448 13.8874 9.58709 13.9936 9.6697 14.0998C9.72274 14.168 9.77573 14.2363 9.82868 14.3046C9.90096 14.3978 9.97341 14.4909 10.0459 14.584C10.0676 14.612 10.0892 14.6401 10.1116 14.669C10.1618 14.7333 10.2136 14.7965 10.2656 14.8594C10.2811 14.8594 10.2966 14.8594 10.3125 14.8594C10.3125 14.0241 10.3125 13.1888 10.3125 12.3281C9.70179 12.3164 9.70179 12.3164 9.09105 12.3057C9.0145 12.3041 8.93795 12.3024 8.8614 12.3007C8.80175 12.2999 8.80175 12.2999 8.7409 12.2991C8.70285 12.2981 8.6648 12.2972 8.62559 12.2962C8.5926 12.2956 8.5596 12.295 8.5256 12.2943C8.43751 12.2813 8.43751 12.2813 8.29689 12.1875C8.26822 11.9878 8.27982 11.8877 8.38459 11.7138C8.42392 11.665 8.46407 11.6169 8.50489 11.5693C8.54772 11.5168 8.59051 11.4642 8.63325 11.4115C8.66612 11.3717 8.66612 11.3717 8.69965 11.3312C8.80575 11.2007 8.9057 11.0657 9.00587 10.9307C9.0408 10.884 9.07572 10.8373 9.11171 10.7891C9.13672 10.7556 9.16174 10.7221 9.18751 10.6875C9.14884 10.643 9.11017 10.5986 9.07032 10.5527C9.01563 10.4883 8.96094 10.4238 8.90626 10.3594C8.87689 10.3259 8.84753 10.2924 8.81727 10.2579C8.04252 9.34233 7.81343 8.25415 7.87501 7.07813C7.95911 6.22021 8.34161 5.42329 8.90626 4.78126C8.93696 4.74609 8.96765 4.71092 8.99928 4.67469C9.72672 3.89529 10.7474 3.48418 11.8021 3.42537C12.9595 3.38556 14.0181 3.78944 14.8832 4.5575C15.628 5.27205 16.0977 6.29112 16.1345 7.32551C16.1554 8.55906 15.8003 9.60454 14.9414 10.5051C14.8565 10.5886 14.8565 10.5886 14.8125 10.6875C14.8415 10.725 14.8704 10.7624 14.9002 10.801C14.9617 10.8806 15.0229 10.9602 15.0839 11.0401C15.1897 11.1786 15.2962 11.316 15.4063 11.4511C15.4443 11.4988 15.4823 11.5465 15.5215 11.5957C15.5564 11.6386 15.5913 11.6815 15.6273 11.7257C15.7219 11.8925 15.7279 11.9987 15.7031 12.1875C15.562 12.2816 15.5327 12.2932 15.3744 12.2962C15.3364 12.2971 15.2983 12.2981 15.2591 12.2991C15.2194 12.2996 15.1796 12.3001 15.1386 12.3007C15.0835 12.3019 15.0835 12.3019 15.0274 12.3032C14.8903 12.3061 14.7533 12.3083 14.6162 12.3106C14.3097 12.3164 14.0033 12.3222 13.6875 12.3281C13.6875 13.1634 13.6875 13.9988 13.6875 14.8594C13.8786 14.67 13.8786 14.67 14.0513 14.4697C14.0846 14.428 14.0846 14.428 14.1186 14.3854C14.1417 14.3562 14.1647 14.327 14.1885 14.2969C14.2131 14.2659 14.2377 14.2349 14.2631 14.2029C14.4534 13.9627 14.6407 13.7203 14.827 13.4769C14.9765 13.2817 15.1274 13.0876 15.2783 12.8936C15.3064 12.8574 15.3346 12.8213 15.3635 12.784C15.5317 12.568 15.7006 12.3526 15.8701 12.1377C16.1624 11.7669 16.4484 11.3913 16.7344 11.0156C16.6894 10.9629 16.6443 10.9103 16.5993 10.8576C16.5616 10.8136 16.5616 10.8136 16.5232 10.7687C16.4714 10.7087 16.4186 10.6495 16.3652 10.5908C16.2871 10.4562 16.2973 10.3745 16.3125 10.2188C16.3684 10.0718 16.4399 9.9337 16.5117 9.79395C16.669 9.47764 16.7945 9.17746 16.882 8.83448C16.9248 8.71029 16.9575 8.65575 17.0625 8.57813C17.2066 8.53305 17.3435 8.52254 17.4939 8.51643C17.5353 8.51464 17.5767 8.51285 17.6194 8.51101C17.6715 8.50899 17.7236 8.50697 17.7774 8.50489C18.0268 8.49474 18.0268 8.49474 18.2813 8.48438C18.2813 7.8811 18.2813 7.27782 18.2813 6.65626C17.9874 6.64079 17.6934 6.62532 17.3906 6.60938C17.0625 6.56251 17.0625 6.56251 16.9797 6.4889C16.9006 6.33318 16.8465 6.17158 16.793 6.00587C16.6818 5.67317 16.5441 5.37157 16.3744 5.06489C16.3061 4.90709 16.2898 4.81057 16.3125 4.64063C16.3695 4.54761 16.3695 4.54761 16.4502 4.46485C16.4797 4.43367 16.5092 4.40249 16.5396 4.37037C16.5729 4.3358 16.6063 4.30124 16.6406 4.26563C16.718 4.17991 16.7952 4.09397 16.8721 4.00782C16.9355 3.93748 16.999 3.86716 17.0625 3.79688C16.8232 3.50713 16.5617 3.24384 16.2949 2.9795C16.2515 2.93626 16.208 2.89303 16.1633 2.84849C16.0569 2.74264 15.9504 2.6369 15.8438 2.53126C15.7019 2.59953 15.5946 2.67147 15.4776 2.77735C15.4449 2.80617 15.4122 2.835 15.3785 2.86469C15.3168 2.92081 15.2562 2.9782 15.1972 3.03718C15.1708 3.06262 15.1444 3.08805 15.1172 3.11426C15.0945 3.13741 15.0718 3.16055 15.0484 3.18439C14.8951 3.26485 14.745 3.25933 14.5781 3.23438C14.4523 3.18948 14.3397 3.12743 14.2236 3.06153C13.9117 2.89349 13.6065 2.77834 13.2662 2.6814C13.1075 2.61802 13.0699 2.58183 12.9844 2.43751C12.9598 2.30865 12.9598 2.30865 12.9501 2.16285C12.9467 2.11573 12.9432 2.06862 12.9397 2.02007C12.9361 1.9606 12.9324 1.90113 12.9287 1.83985C12.9099 1.55561 12.9099 1.55561 12.8906 1.26563C12.3028 1.26563 11.715 1.26563 11.1094 1.26563ZM9.38448 5.11922C8.9677 5.56932 8.70186 6.06633 8.53126 6.65626C8.51978 6.6939 8.5083 6.73155 8.49647 6.77033C8.26327 7.69195 8.49415 8.62839 8.95192 9.43516C9.13138 9.73548 9.34009 9.9535 9.60939 10.1719C9.8721 9.83597 10.1304 9.50092 10.3594 9.14063C10.3418 9.11954 10.3242 9.09845 10.3061 9.07673C9.86526 8.52262 9.69325 7.89351 9.77052 7.18946C9.88303 6.61185 10.1976 6.0657 10.676 5.71894C11.2759 5.34273 11.929 5.24741 12.6211 5.39649C13.1319 5.54184 13.6015 5.8657 13.8867 6.31641C13.9311 6.39771 13.9741 6.47975 14.0156 6.56251C14.0351 6.59882 14.0546 6.63514 14.0746 6.67255C14.304 7.1786 14.2934 7.8789 14.1065 8.39649C13.979 8.67664 13.8161 8.93514 13.6406 9.18751C13.7469 9.32533 13.8534 9.46297 13.96 9.60059C13.9901 9.63966 14.0202 9.67872 14.0513 9.71897C14.0804 9.75658 14.1096 9.7942 14.1396 9.83295C14.1797 9.88487 14.1797 9.88487 14.2207 9.93784C14.2889 10.0215 14.3596 10.0973 14.4375 10.1719C15.091 9.59659 15.4993 8.73913 15.5704 7.87251C15.6235 6.90652 15.3473 5.97799 14.7041 5.24415C14.6317 5.16718 14.5585 5.09097 14.4844 5.01563C14.4521 4.98276 14.4199 4.94989 14.3866 4.91602C13.7125 4.27448 12.8269 3.97678 11.9057 3.982C10.941 4.00665 10.0538 4.43331 9.38448 5.11922ZM10.6086 6.61066C10.3537 6.99267 10.2684 7.43086 10.3447 7.88087C10.4204 8.20371 10.5404 8.44311 10.7813 8.67188C10.823 8.61732 10.823 8.61732 10.8657 8.56165C11.0862 8.2741 11.3078 7.98741 11.5313 7.70216C11.5532 7.67405 11.5752 7.64594 11.5978 7.61699C11.8345 7.31557 11.8345 7.31557 11.9949 7.29584C12.1713 7.31602 12.2064 7.34972 12.3164 7.48536C12.3479 7.52361 12.3794 7.56186 12.4118 7.60126C12.4461 7.64519 12.4803 7.68912 12.5156 7.73438C12.535 7.75897 12.5544 7.78355 12.5744 7.80888C12.7967 8.09106 13.0132 8.37723 13.2188 8.67188C13.4429 8.47978 13.5869 8.21204 13.6406 7.92188C13.6813 7.35533 13.6156 6.91121 13.2508 6.45997C12.9161 6.0996 12.4929 5.90197 12 5.88282C11.4343 5.9048 10.9609 6.17389 10.6086 6.61066Z" fill="#D62828"/>
</svg>
