<svg width="32" height="32" viewBox="0 0 32 32" fill="none" xmlns="http://www.w3.org/2000/svg">
<path d="M27.7383 1.95703C27.8179 1.95919 27.8976 1.96135 27.9796 1.96358C28.3879 1.97799 28.7941 2.00375 29.2 2.04956C29.3133 2.06203 29.3133 2.06203 29.4289 2.07475C29.6516 2.13183 29.7355 2.19489 29.875 2.375C29.9246 2.54858 29.9246 2.54858 29.9492 2.74609C29.9622 2.84169 29.9622 2.84169 29.9753 2.93921C30.4898 8.11912 28.7742 13.4058 25.5 17.4375C25.2991 17.6736 25.0871 17.899 24.875 18.125C24.7549 18.2605 24.636 18.3969 24.5173 18.5337C24.4714 18.5863 24.4244 18.6381 24.375 18.6875C24.3718 18.8283 24.3728 18.9693 24.3755 19.1101C24.3768 19.1997 24.378 19.2892 24.3791 19.3788C24.3798 19.426 24.3804 19.4732 24.3811 19.5218C24.4107 22.0453 23.8015 24.2474 22.125 26.1875C22.0983 26.2185 22.0716 26.2494 22.0442 26.2813C21.6483 26.7373 21.2323 27.1335 20.75 27.5C20.6693 27.5624 20.6693 27.5624 20.5869 27.626C19.2385 28.6392 17.4749 29.5501 15.7576 29.5935C15.5686 29.5493 15.4973 29.4609 15.375 29.3125C15.2755 28.7848 15.4083 28.1728 15.4749 27.6419C15.4923 27.5027 15.5088 27.3633 15.5251 27.224C15.5361 27.1344 15.5471 27.0449 15.5581 26.9553C15.5728 26.8353 15.5728 26.8353 15.5879 26.7129C15.6351 26.4421 15.6751 26.2517 15.8867 26.0703C16.1187 25.9775 16.2602 26.0003 16.5 26.0625C16.6055 26.1365 16.6055 26.1365 16.6875 26.25C16.792 26.9459 16.6158 27.6897 16.5 28.375C18.7278 27.6465 20.7083 26.5269 22 24.5C22.0442 24.4307 22.0885 24.3614 22.134 24.29C22.8626 23.0809 23.2711 21.6918 23.2539 20.2773C23.2535 20.2096 23.2535 20.2096 23.2531 20.1405C23.2523 20.0312 23.2512 19.9218 23.25 19.8125C23.1943 19.8704 23.1943 19.8704 23.1375 19.9294C22.8136 20.2603 22.4842 20.5616 22.1221 20.8503C21.9925 20.9554 21.8663 21.0611 21.7412 21.1711C17.9274 24.5263 17.9274 24.5263 16.4375 24.625C16.1425 24.5028 15.9477 24.345 15.7251 24.1184C15.6951 24.0882 15.6651 24.0579 15.6342 24.0267C15.5395 23.931 15.4456 23.8347 15.3516 23.7383C15.2871 23.6728 15.2225 23.6075 15.158 23.5421C15.0006 23.3827 14.8439 23.2228 14.6875 23.0625C14.6389 23.0856 14.6389 23.0856 14.5894 23.1092C14.544 23.1308 14.4987 23.1523 14.4519 23.1746C14.4018 23.1984 14.3518 23.2222 14.3002 23.2467C14.1906 23.2987 14.0809 23.3504 13.9711 23.4018C13.7446 23.5081 13.5198 23.6145 13.2988 23.7319C12.8586 23.9613 12.4297 24.0181 11.9375 23.9375C11.4298 23.742 11.0897 23.3762 10.7139 22.9971C10.6452 22.9285 10.5764 22.86 10.5076 22.7915C10.3641 22.6484 10.2211 22.5049 10.0784 22.361C9.89626 22.1774 9.71305 21.995 9.52947 21.813C9.38746 21.6719 9.24605 21.5302 9.10482 21.3883C9.03753 21.3208 8.97005 21.2535 8.90239 21.1865C8.03799 20.3279 8.03799 20.3279 8.00391 19.6836C8.01801 19.0335 8.37514 18.4704 8.67007 17.9068C8.76933 17.7121 8.85506 17.5148 8.9375 17.3125C8.626 16.8324 8.27126 16.3827 7.75 16.125C7.09855 16.0295 6.43474 16.1932 5.79608 16.3195C5.3695 16.4023 4.93902 16.4509 4.50751 16.5001C4.37902 16.5152 4.25079 16.5316 4.12253 16.5485C3.03263 16.6877 3.03263 16.6877 2.6875 16.625C2.4525 16.4309 2.4525 16.4309 2.4043 16.2512C2.43517 14.0709 3.78252 12.0008 5.1875 10.4375C5.22512 10.3953 5.26275 10.3531 5.30151 10.3096C6.78425 8.74093 9.04099 7.71948 11.1875 7.625C11.3654 7.62608 11.5429 7.63194 11.7207 7.63818C11.7674 7.63949 11.8142 7.6408 11.8623 7.64215C12.0958 7.6488 12.3279 7.65891 12.5608 7.67581C12.9799 7.69674 13.3003 7.68029 13.6283 7.39441C13.7794 7.24748 13.9207 7.09338 14.0625 6.9375C14.2028 6.81468 14.3482 6.70376 14.4961 6.58984C14.5325 6.56177 14.5689 6.53369 14.6064 6.50476C14.6808 6.44738 14.7553 6.39011 14.8299 6.33298C14.9328 6.25362 15.0346 6.17309 15.1362 6.09204C18.072 3.77489 21.774 2.30524 25.5 2C25.5443 1.99614 25.5887 1.99229 25.6344 1.98831C26.336 1.93057 27.0351 1.93643 27.7383 1.95703ZM19.4375 4.75C19.3949 4.77029 19.3524 4.79058 19.3085 4.81149C17.506 5.67763 15.8601 6.78438 14.375 8.125C14.3425 8.15432 14.31 8.18363 14.2765 8.21384C14.1392 8.33775 14.0022 8.46187 13.866 8.58691C13.6627 8.76325 13.5355 8.75126 13.2713 8.73321C13.1989 8.72799 13.1989 8.72799 13.125 8.72266C11.2361 8.607 9.48897 8.81926 7.8125 9.75C7.72839 9.79508 7.72839 9.79508 7.64258 9.84106C5.56399 11.012 4.2775 13.1382 3.625 15.375C3.625 15.4163 3.625 15.4575 3.625 15.5C4.43594 15.4221 5.24519 15.3346 6.05382 15.2355C6.22624 15.2144 6.3987 15.1937 6.57117 15.173C6.68164 15.1595 6.79212 15.1461 6.90259 15.1326C6.97933 15.1234 6.97933 15.1234 7.05763 15.114C7.25508 15.0896 7.43571 15.0631 7.625 15C7.71642 14.8787 7.71642 14.8787 7.79907 14.7261C7.83191 14.669 7.86474 14.612 7.89857 14.5533C7.93333 14.4919 7.96809 14.4305 8.00391 14.3672C8.33686 13.7917 8.68321 13.2334 9.0625 12.6875C9.09206 12.6447 9.12162 12.602 9.15207 12.558C9.56418 11.9632 9.98625 11.3783 10.4375 10.8125C10.4819 10.7547 10.5263 10.697 10.572 10.6375C10.876 10.2623 10.876 10.2623 11.1719 10.2031C11.3796 10.2511 11.4832 10.2793 11.625 10.4375C11.6889 10.6109 11.6986 10.7107 11.6482 10.8887C11.5314 11.1255 11.37 11.3077 11.1992 11.5078C10.7762 12.0161 10.4032 12.5502 10.0372 13.1004C9.93867 13.2482 9.83921 13.3954 9.7395 13.5425C9.55295 13.8183 9.36932 14.096 9.1875 14.375C9.15807 14.4199 9.12865 14.4648 9.09833 14.511C9.01485 14.6394 8.93295 14.7687 8.85156 14.8984C8.82657 14.9367 8.80157 14.975 8.77582 15.0145C8.69994 15.1328 8.69994 15.1328 8.625 15.3125C8.70391 15.556 8.88382 15.7117 9.06162 15.8892C9.10964 15.9373 9.10964 15.9373 9.15862 15.9865C9.2659 16.094 9.37363 16.201 9.48135 16.308C9.55837 16.385 9.63536 16.462 9.71232 16.5391C9.92135 16.7481 10.1308 16.9568 10.3402 17.1654C10.5591 17.3835 10.7776 17.6019 10.9961 17.8203C11.41 18.2338 11.8242 18.647 12.2386 19.0601C12.7102 19.5303 13.1815 20.001 13.6528 20.4716C14.6223 21.4398 15.5923 22.4076 16.5625 23.375C18.1771 22.7505 19.6836 21.479 21 20.375C21.0928 20.2985 21.0928 20.2985 21.1875 20.2205C22.1862 19.3926 23.1631 18.4931 24 17.5C24.0757 17.4129 24.0757 17.4129 24.1528 17.324C25.1256 16.1989 25.9575 14.982 26.6875 13.6875C26.7133 13.6421 26.7391 13.5967 26.7656 13.5499C27.758 11.7868 28.3705 9.85535 28.75 7.875C28.7613 7.81766 28.7726 7.76031 28.7842 7.70123C29.0091 6.50287 28.959 5.27176 28.9502 4.05786C28.9499 3.99998 28.9496 3.9421 28.9494 3.88246C28.9465 3.62244 28.9407 3.37847 28.875 3.125C26.0351 2.25174 21.9937 3.52853 19.4375 4.75ZM9.75 18.125C9.64463 18.3354 9.54092 18.5465 9.4375 18.7578C9.40769 18.8173 9.37788 18.8767 9.34717 18.938C9.12395 19.3579 9.12395 19.3579 9.125 19.8125C9.42434 20.2095 9.79652 20.5557 10.1477 20.906C10.2023 20.9606 10.2569 21.0153 10.3131 21.0716C10.4276 21.1861 10.5421 21.3005 10.6568 21.4149C10.7743 21.5322 10.8917 21.6496 11.009 21.7671C11.1788 21.9373 11.3487 22.1072 11.5188 22.2771C11.5978 22.3563 11.5978 22.3563 11.6784 22.4371C11.7513 22.5097 11.7513 22.5097 11.8258 22.5838C11.8686 22.6266 11.9114 22.6694 11.9555 22.7134C12.0869 22.8351 12.1629 22.8712 12.3403 22.8984C12.6753 22.8631 12.9436 22.7122 13.2422 22.5625C13.3031 22.5327 13.364 22.5029 13.4268 22.4722C13.5765 22.3988 13.7259 22.3247 13.875 22.25C13.6344 21.9625 13.3854 21.6888 13.1199 21.4243C13.084 21.3883 13.0481 21.3523 13.0111 21.3151C12.8938 21.1977 12.7764 21.0804 12.6589 20.9631C12.5769 20.8811 12.4949 20.799 12.413 20.717C12.242 20.5459 12.0709 20.3749 11.8997 20.204C11.6798 19.9845 11.4601 19.7646 11.2406 19.5447C11.0717 19.3756 10.9028 19.2067 10.7337 19.0379C10.6526 18.9568 10.5716 18.8757 10.4906 18.7945C10.3779 18.6817 10.2651 18.5691 10.1521 18.4566C10.1185 18.4228 10.0848 18.389 10.0501 18.3542C9.92178 18.1958 9.92178 18.1958 9.75 18.125Z" fill="#D62828"/>
<path d="M23.0781 8.30078C23.9609 9.05237 24.4872 10.0103 24.5818 11.175C24.6332 12.3196 24.2568 13.3863 23.5 14.25C23.4643 14.2923 23.4286 14.3346 23.3918 14.3782C22.8234 15.0023 21.9376 15.4522 21.0907 15.5111C19.7236 15.5421 18.6749 15.3783 17.6404 14.3984C16.7314 13.4373 16.4463 12.3198 16.4783 11.0325C16.498 10.6135 16.5763 10.2598 16.75 9.875C16.7765 9.81578 16.803 9.75656 16.8303 9.69555C17.0495 9.25539 17.3422 8.90955 17.6875 8.5625C17.7245 8.52334 17.7615 8.48419 17.7996 8.44384C19.2221 7.05589 21.5628 7.14243 23.0781 8.30078ZM18.2283 9.53784C17.7277 10.1862 17.4317 10.9254 17.5 11.75C17.6362 12.5952 18.0362 13.3516 18.7253 13.8733C19.4247 14.3379 20.1477 14.6072 20.9912 14.4712C21.8407 14.2841 22.511 13.8548 23.0156 13.1484C23.4725 12.4244 23.6315 11.6433 23.4587 10.7981C23.2166 9.9877 22.7259 9.32003 21.9961 8.88623C20.6686 8.19926 19.2489 8.40517 18.2283 9.53784Z" fill="#D62828"/>
<path d="M8.25 23.125C8.29367 23.1557 8.33734 23.1864 8.38233 23.218C8.9794 23.6862 9.32952 24.3831 9.4375 25.125C9.51069 25.8041 9.2746 26.498 8.86188 27.0361C8.67027 27.2658 8.46277 27.4774 8.25 27.6875C8.20424 27.7332 8.15848 27.7789 8.11133 27.8259C7.45064 28.4484 6.63143 28.8744 5.8125 29.25C5.77442 29.2675 5.73635 29.285 5.69712 29.303C4.78454 29.7133 3.74602 30.0056 2.74219 30.0195C2.67633 30.0223 2.67633 30.0223 2.60913 30.025C2.40234 30.0276 2.27176 30.014 2.09619 29.9014C1.78759 29.4157 2.01254 28.5559 2.1308 28.0224C2.36029 27.0681 2.71512 26.1713 3.1875 25.3125C3.21962 25.2527 3.21962 25.2527 3.25238 25.1917C3.59048 24.5675 3.99531 24.0602 4.5 23.5625C4.57251 23.489 4.57251 23.489 4.64649 23.4141C5.68424 22.4214 7.07981 22.29 8.25 23.125ZM4.91971 24.6586C4.02459 25.7582 3.07402 27.41 3.125 28.875C4.75693 28.7973 6.34385 27.91 7.5625 26.875C7.60907 26.8357 7.65564 26.7964 7.70362 26.7559C8.04519 26.4424 8.27608 26.0755 8.34033 25.6116C8.35978 25.0561 8.23143 24.6885 7.92578 24.2344C7.5573 23.8741 7.1356 23.68 6.6211 23.6641C5.84684 23.6735 5.39674 24.0875 4.91971 24.6586Z" fill="#D62828"/>
</svg>
