<svg width="32" height="32" viewBox="0 0 32 32" fill="none" xmlns="http://www.w3.org/2000/svg">
<g clip-path="url(#clip0_209_348)">
<path d="M1.75234 10.4819C1.81459 10.4814 1.87684 10.481 1.94097 10.4806C2.14636 10.4794 2.35173 10.4791 2.55712 10.479C2.70052 10.4786 2.84392 10.4782 2.98732 10.4778C3.28794 10.477 3.58856 10.4768 3.88918 10.4768C4.27291 10.4769 4.65662 10.4752 5.04034 10.473C5.33665 10.4716 5.63294 10.4714 5.92925 10.4714C6.07063 10.4713 6.21201 10.4707 6.35338 10.4698C7.73875 10.4611 8.46564 10.7104 9.45256 11.6828C9.56989 11.7993 9.68695 11.9161 9.80395 12.033C9.88661 12.1152 9.96929 12.1975 10.052 12.2797C10.2243 12.4513 10.3964 12.6232 10.5684 12.7952C10.788 13.0149 11.0085 13.2337 11.2293 13.4523C11.4 13.6216 11.5701 13.7914 11.74 13.9614C11.821 14.0423 11.9023 14.123 11.9838 14.2035C12.0977 14.3163 12.2108 14.4297 12.3238 14.5435C12.3571 14.576 12.3904 14.6086 12.4247 14.6422C12.7916 15.0153 13.0032 15.4501 13.0195 15.9766C12.9977 17.2162 11.54 18.2322 10.7245 19.0543C10.567 19.2132 10.4101 19.3727 10.2538 19.5327C10.0628 19.7281 9.87079 19.9224 9.67798 20.116C9.60558 20.189 9.53354 20.2624 9.46192 20.3362C8.93495 20.8786 8.29155 21.4572 7.49429 21.5084C7.44732 21.5087 7.40034 21.5089 7.35195 21.5092C7.29773 21.5097 7.2435 21.5101 7.18764 21.5106C7.12864 21.5107 7.06964 21.5109 7.00886 21.5111C6.94633 21.5115 6.8838 21.5119 6.81937 21.5123C6.61241 21.5135 6.40545 21.5143 6.19848 21.5149C6.1277 21.5152 6.05692 21.5154 5.98399 21.5157C5.60931 21.517 5.23462 21.5179 4.85993 21.5185C4.47352 21.5191 4.08713 21.5213 3.70072 21.5238C3.40308 21.5254 3.10545 21.5259 2.80781 21.5262C2.6654 21.5265 2.523 21.5272 2.3806 21.5284C2.1809 21.5299 1.98126 21.5298 1.78156 21.5294C1.69402 21.5306 1.69402 21.5306 1.6047 21.5318C1.15062 21.5282 0.768696 21.4232 0.416252 21.1272C0.366825 21.0662 0.366825 21.0662 0.316399 21.0039C0.282319 20.9634 0.248239 20.9229 0.213127 20.8811C0.0339903 20.6146 -0.0156865 20.3852 -0.0167217 20.0664C-0.0172548 19.992 -0.017788 19.9176 -0.0183372 19.841C-0.0182806 19.7599 -0.018224 19.6788 -0.0181656 19.5953C-0.0185398 19.5086 -0.0189652 19.4219 -0.0194378 19.3353C-0.0205406 19.1002 -0.020835 18.8652 -0.0209148 18.6302C-0.0210037 18.4832 -0.0212708 18.3362 -0.0216019 18.1892C-0.0227579 17.676 -0.0232689 17.1628 -0.0231705 16.6496C-0.0230954 16.1719 -0.0244137 15.6942 -0.0263884 15.2166C-0.0280253 14.8059 -0.0286934 14.3952 -0.0286136 13.9845C-0.0285818 13.7395 -0.0289343 13.4945 -0.0302608 13.2494C-0.0314752 13.0188 -0.031478 12.7883 -0.0305712 12.5577C-0.0303792 12.4333 -0.0314184 12.3089 -0.0325012 12.1845C-0.0288996 11.6699 0.0260581 11.3227 0.370598 10.9224C0.41072 10.8887 0.450842 10.855 0.49218 10.8203C0.53198 10.7857 0.571779 10.751 0.612785 10.7153C0.972878 10.4783 1.3367 10.4814 1.75234 10.4819ZM0.999992 11.75C0.933757 11.9447 0.929502 12.1271 0.929135 12.3317C0.928869 12.3989 0.928602 12.4661 0.928328 12.5353C0.928356 12.6088 0.928384 12.6822 0.928413 12.7578C0.928203 12.8354 0.927994 12.9129 0.927777 12.9928C0.927285 13.2054 0.927079 13.4179 0.927039 13.6305C0.926994 13.7633 0.926861 13.8962 0.926695 14.029C0.926117 14.4926 0.925862 14.9561 0.925911 15.4197C0.925949 15.8516 0.925289 16.2835 0.924302 16.7154C0.923485 17.0865 0.923149 17.4575 0.923189 17.8285C0.923205 18.05 0.923028 18.2715 0.922366 18.493C0.921648 18.7401 0.921933 18.9871 0.92231 19.2341C0.921959 19.3074 0.921607 19.3807 0.921246 19.4562C0.921508 19.5236 0.92177 19.591 0.92204 19.6604C0.922006 19.7188 0.921972 19.7772 0.921937 19.8373C0.944063 20.0687 1.00651 20.2475 1.15865 20.4242C1.39965 20.543 1.63373 20.5271 1.89895 20.5263C1.95833 20.5268 2.01771 20.5273 2.0789 20.5279C2.27542 20.5293 2.47192 20.5294 2.66845 20.5293C2.80532 20.5298 2.94219 20.5302 3.07906 20.5307C3.36625 20.5316 3.65342 20.5317 3.94061 20.5313C4.30755 20.531 4.67443 20.5329 5.04136 20.5354C5.32426 20.537 5.60715 20.5372 5.89005 20.537C6.02525 20.5371 6.16046 20.5377 6.29565 20.5388C6.48547 20.5402 6.67519 20.5396 6.86501 20.5385C6.94784 20.5397 6.94784 20.5397 7.03234 20.541C7.65316 20.5327 8.11383 20.2479 8.5382 19.8128C8.5929 19.7586 8.5929 19.7586 8.6487 19.7033C8.76723 19.5855 8.8846 19.4666 9.00195 19.3477C9.08477 19.2647 9.16766 19.1819 9.2506 19.099C9.42337 18.9261 9.59561 18.7527 9.76745 18.5789C9.98754 18.3564 10.2087 18.1349 10.4303 17.9138C10.6012 17.7431 10.7715 17.572 10.9418 17.4007C11.0232 17.3188 11.1047 17.2371 11.1864 17.1555C11.3002 17.0415 11.4134 16.927 11.5265 16.8123C11.5601 16.7788 11.5938 16.7454 11.6284 16.7109C11.8741 16.4596 11.9972 16.2714 12.0039 15.918C11.8324 15.3229 11.1717 14.8458 10.741 14.4114C10.7049 14.375 10.6689 14.3386 10.6317 14.3011C10.4411 14.1089 10.2503 13.9169 10.0594 13.725C9.90249 13.5673 9.74608 13.4091 9.59007 13.2506C9.4002 13.0576 9.20957 12.8654 9.01837 12.6738C8.94622 12.6012 8.87434 12.5284 8.80274 12.4553C8.70216 12.3527 8.60062 12.2512 8.49882 12.1499C8.44157 12.0921 8.38432 12.0344 8.32534 11.9749C7.88977 11.5926 7.436 11.453 6.866 11.4606C6.80607 11.4601 6.74613 11.4597 6.68437 11.4592C6.48836 11.4582 6.29244 11.4594 6.09643 11.4607C5.95934 11.4607 5.82226 11.4605 5.68518 11.4602C5.39891 11.4601 5.11268 11.461 4.82642 11.4627C4.45961 11.4648 4.09284 11.4645 3.72603 11.4633C3.44341 11.4626 3.1608 11.4632 2.87818 11.4641C2.7429 11.4644 2.60761 11.4644 2.47233 11.464C2.28354 11.4637 2.09483 11.465 1.90604 11.4667C1.82242 11.4661 1.82242 11.4661 1.7371 11.4654C1.41593 11.4704 1.225 11.4967 0.999992 11.75Z" fill="#D62828"/>
<path d="M20.9175 10.4615C21.0084 10.461 21.0084 10.461 21.1012 10.4605C21.3015 10.4598 21.5016 10.4613 21.7019 10.4629C21.8415 10.463 21.9811 10.463 22.1207 10.4629C22.4134 10.463 22.706 10.4641 22.9987 10.4661C23.3727 10.4686 23.7467 10.4689 24.1207 10.4684C24.4091 10.4682 24.6976 10.469 24.986 10.47C25.1238 10.4705 25.2616 10.4707 25.3994 10.4706C25.5928 10.4707 25.7862 10.4721 25.9795 10.4737C26.0358 10.4736 26.0921 10.4734 26.1501 10.4732C27.4772 10.4908 28.2894 11.4674 29.1689 12.3437C29.2024 12.377 29.2358 12.4103 29.2703 12.4445C29.4467 12.6201 29.623 12.7958 29.7992 12.9717C29.9796 13.1517 30.1606 13.3312 30.3417 13.5106C30.4825 13.6502 30.6229 13.7903 30.7632 13.9305C30.8297 13.9968 30.8964 14.063 30.9632 14.129C32.0124 15.166 32.0124 15.166 32.0195 15.9805C32.0163 17.073 31.0727 17.7497 30.3474 18.4778C30.2988 18.5266 30.2988 18.5266 30.2493 18.5764C30.0785 18.7481 29.9076 18.9196 29.7365 19.091C29.5618 19.2661 29.3876 19.4417 29.2136 19.6175C29.0777 19.7546 28.9413 19.8913 28.8048 20.0279C28.7405 20.0924 28.6763 20.1571 28.6122 20.222C27.9 20.9428 27.2347 21.5007 26.189 21.5112C26.1316 21.5115 26.0742 21.5118 26.015 21.512C25.9539 21.5126 25.8928 21.5131 25.8298 21.5136C25.6281 21.5151 25.4264 21.5162 25.2246 21.5171C25.1556 21.5174 25.0867 21.5177 25.0156 21.5181C24.6509 21.5198 24.2863 21.521 23.9216 21.5219C23.6197 21.5227 23.3178 21.5245 23.0159 21.527C22.6512 21.5301 22.2866 21.5316 21.9219 21.5321C21.7829 21.5325 21.644 21.5334 21.505 21.5349C21.3108 21.5369 21.1167 21.5369 20.9225 21.5365C20.8651 21.5375 20.8077 21.5385 20.7485 21.5396C20.4656 21.5368 20.3498 21.5291 20.1199 21.3498C20 21.1875 20 21.1875 19.9722 21.0542C19.9788 21.0131 19.9854 20.972 19.9922 20.9297C19.9972 20.8883 20.0022 20.8469 20.0073 20.8042C20.093 20.623 20.1934 20.5842 20.375 20.5C20.572 20.4728 20.7672 20.4746 20.9658 20.4759C21.0249 20.4756 21.084 20.4753 21.1448 20.4749C21.2729 20.4743 21.4009 20.4741 21.529 20.4743C21.7318 20.4746 21.9346 20.4737 22.1375 20.4725C22.5682 20.4703 22.9989 20.4694 23.4297 20.4687C23.9285 20.468 24.4273 20.4666 24.926 20.4637C25.1256 20.4629 25.3251 20.4632 25.5246 20.4635C25.6474 20.4629 25.7702 20.4622 25.893 20.4615C25.9759 20.4621 25.9759 20.4621 26.0603 20.4627C27.0304 20.4531 27.5983 19.6612 28.2361 19.0222C28.3123 18.9461 28.3885 18.8699 28.4647 18.7938C28.6234 18.6352 28.782 18.4765 28.9404 18.3177C29.1438 18.114 29.3475 17.9105 29.5512 17.7072C29.7081 17.5505 29.8649 17.3936 30.0217 17.2367C30.0968 17.1616 30.1719 17.0865 30.2471 17.0114C30.3516 16.907 30.456 16.8024 30.5603 16.6978C30.607 16.6513 30.607 16.6513 30.6546 16.6038C30.8546 16.4026 30.9293 16.3094 30.9688 16.0234C30.9639 15.799 30.9169 15.6969 30.7658 15.5325C30.7258 15.4891 30.6858 15.4456 30.6447 15.4008C30.3389 15.0821 30.0285 14.7682 29.7163 14.4558C29.6406 14.3799 29.5649 14.304 29.4892 14.2281C29.3314 14.0699 29.1735 13.9119 29.0155 13.7539C28.8134 13.5518 28.6117 13.3492 28.4101 13.1466C28.2543 12.9901 28.0982 12.8338 27.942 12.6777C27.8675 12.6031 27.7931 12.5284 27.7188 12.4536C27.615 12.3493 27.5109 12.2453 27.4066 12.1414C27.3763 12.1107 27.3459 12.08 27.3147 12.0484C26.989 11.7257 26.6987 11.5555 26.2395 11.5539C26.1881 11.5535 26.1367 11.5532 26.0837 11.5528C26.0278 11.5528 25.9719 11.5527 25.9143 11.5526C25.855 11.5523 25.7958 11.552 25.7347 11.5517C25.6061 11.551 25.4774 11.5505 25.3488 11.55C25.1452 11.5493 24.9416 11.5481 24.7381 11.5467C24.1593 11.5429 23.5805 11.5395 23.0017 11.5374C22.6477 11.5361 22.2936 11.5339 21.9395 11.5311C21.8046 11.5302 21.6697 11.5297 21.5347 11.5295C21.3461 11.5292 21.1574 11.5277 20.9688 11.526C20.913 11.5262 20.8573 11.5264 20.7998 11.5266C20.5038 11.5226 20.302 11.5068 20.0625 11.3125C20.0073 11.1958 20.0073 11.1958 19.9922 11.0703C19.9823 11.0087 19.9823 11.0087 19.9722 10.9458C20.0751 10.4526 20.5114 10.4556 20.9175 10.4615Z" fill="#D62828"/>
<path d="M11.3517 10.4676C11.4432 10.467 11.4432 10.467 11.5366 10.4663C11.7386 10.4652 11.9406 10.4659 12.1426 10.4668C12.2834 10.4666 12.4241 10.4664 12.5649 10.4661C12.8604 10.4657 13.1559 10.4662 13.4514 10.4674C13.8285 10.4688 14.2056 10.468 14.5828 10.4665C14.8738 10.4656 15.1649 10.4659 15.4559 10.4665C15.5949 10.4667 15.7338 10.4665 15.8727 10.4659C17.3797 10.461 18.0885 10.8216 19.1379 11.8632C19.1791 11.9041 19.2203 11.9451 19.2627 11.9873C19.3047 12.0289 19.3467 12.0705 19.3899 12.1134C19.6118 12.3335 19.8333 12.5538 20.0546 12.7745C20.2821 13.0013 20.5107 13.227 20.7397 13.4524C20.9166 13.627 21.0927 13.8024 21.2685 13.9781C21.3525 14.0616 21.4367 14.1448 21.5212 14.2277C22.0187 14.7162 22.4166 15.1149 22.5332 15.8281C22.5326 15.8848 22.5319 15.9415 22.5312 16C22.5322 16.0851 22.5322 16.0851 22.5332 16.1719C22.4049 16.9567 21.9127 17.3896 21.3682 17.925C21.28 18.013 21.1918 18.101 21.1038 18.1892C20.9196 18.373 20.7349 18.5562 20.5496 18.739C20.313 18.9724 20.0777 19.207 19.8427 19.4421C19.661 19.6238 19.4788 19.8049 19.2964 19.9859C19.2095 20.0723 19.1227 20.1587 19.036 20.2453C18.9145 20.3664 18.7923 20.4869 18.67 20.6072C18.6348 20.6425 18.5996 20.6778 18.5633 20.7142C17.9572 21.3061 17.3144 21.5294 16.4728 21.5252C16.4109 21.5257 16.3491 21.5261 16.2853 21.5265C16.083 21.5277 15.8806 21.5274 15.6782 21.5271C15.5368 21.5274 15.3953 21.5277 15.2539 21.5281C14.9586 21.5286 14.6632 21.5285 14.3679 21.5279C13.9892 21.5271 13.6105 21.5284 13.2317 21.5302C12.9402 21.5314 12.6486 21.5314 12.357 21.531C12.2173 21.531 12.0776 21.5314 11.938 21.5322C11.7432 21.5331 11.5485 21.5324 11.3537 21.5313C11.2671 21.5322 11.2671 21.5322 11.1787 21.5332C10.7906 21.5287 10.7906 21.5287 10.5895 21.3865C10.4557 21.1824 10.4624 21.0509 10.5 20.8125C10.6248 20.6398 10.7239 20.5198 10.9383 20.4719C11.095 20.4612 11.2489 20.4608 11.4061 20.4637C11.4654 20.4636 11.5248 20.4634 11.586 20.4633C11.7148 20.4631 11.8436 20.4637 11.9723 20.4649C12.1766 20.4668 12.3807 20.4667 12.5849 20.4662C13.0923 20.4651 13.5996 20.4675 14.107 20.4697C14.5355 20.4715 14.964 20.4719 15.3925 20.4707C15.593 20.4707 15.7934 20.4725 15.9938 20.4744C16.1179 20.4743 16.2419 20.4741 16.366 20.4737C16.4211 20.4748 16.4763 20.4758 16.533 20.4769C17.1524 20.4709 17.613 20.1848 18.0392 19.7542C18.0758 19.7185 18.1123 19.6828 18.15 19.646C18.2689 19.5294 18.3866 19.4118 18.5042 19.2939C18.5872 19.2116 18.6702 19.1293 18.7532 19.0471C18.9263 18.8753 19.0988 18.7029 19.2709 18.5301C19.491 18.3093 19.713 18.0903 19.9354 17.8718C20.1071 17.7027 20.2776 17.5325 20.4477 17.3619C20.5291 17.2806 20.6108 17.1998 20.693 17.1194C20.8078 17.0068 20.9208 16.8927 21.0336 16.7781C21.0674 16.7456 21.1013 16.713 21.1362 16.6795C21.3556 16.452 21.4306 16.2598 21.4467 15.9429C21.4219 15.5908 21.1352 15.3664 20.8991 15.13C20.8465 15.0766 20.8465 15.0766 20.7928 15.0221C20.6771 14.9049 20.561 14.7882 20.4448 14.6716C20.3638 14.59 20.2827 14.5084 20.2016 14.4267C20.0318 14.2558 19.8616 14.0852 19.6913 13.9147C19.4739 13.6969 19.2575 13.4782 19.0414 13.2592C18.8743 13.0902 18.7065 12.922 18.5385 12.754C18.4584 12.6737 18.3787 12.5931 18.2992 12.5123C18.1875 12.3989 18.0748 12.2866 17.9619 12.1744C17.9297 12.1413 17.8976 12.1082 17.8644 12.0741C17.4841 11.7011 17.0723 11.5351 16.5408 11.5309C16.4578 11.5321 16.4578 11.5321 16.3731 11.5333C16.2832 11.5331 16.2832 11.5331 16.1915 11.5329C16.0624 11.5327 15.9333 11.5331 15.8042 11.534C15.5998 11.5354 15.3954 11.5352 15.191 11.5345C14.6838 11.5332 14.1767 11.5342 13.6695 11.5358C13.2398 11.5372 12.8102 11.5373 12.3806 11.5357C12.1793 11.5354 11.9781 11.5369 11.7769 11.5385C11.6536 11.5382 11.5303 11.5378 11.407 11.5372C11.3512 11.5382 11.2953 11.5391 11.2378 11.5401C10.9626 11.5369 10.8472 11.5263 10.6213 11.3553C10.5 11.1875 10.5 11.1875 10.4648 10.9648C10.5 10.75 10.5 10.75 10.5896 10.6136C10.8336 10.4408 11.0595 10.4651 11.3517 10.4676Z" fill="#D62828"/>
<path d="M28 14.5C28.1523 14.5937 28.1523 14.5937 28.25 14.75C28.2945 14.9595 28.3076 15.0493 28.25 15.25C28.0649 15.507 27.8393 15.7205 27.6118 15.9392C27.5462 16.0041 27.4806 16.0691 27.4151 16.1342C27.243 16.3047 27.0695 16.4737 26.8956 16.6424C26.7536 16.7806 26.6127 16.9199 26.4718 17.0593C26.181 17.3468 25.8895 17.6336 25.5963 17.9187C25.5185 17.9945 25.5185 17.9945 25.4391 18.0718C25.2931 18.2053 25.2175 18.2443 25.0234 18.2812C24.6971 18.2329 24.5421 18.0386 24.3125 17.8125C24.2471 17.7522 24.1816 17.6919 24.116 17.6318C24.0473 17.5671 23.9787 17.5024 23.9102 17.4375C23.8769 17.4071 23.8436 17.3768 23.8093 17.3455C23.5759 17.1186 23.5069 16.9491 23.5 16.625C23.5841 16.4408 23.6303 16.3411 23.8125 16.25C23.9766 16.2187 23.9766 16.2187 24.1875 16.25C24.3713 16.3786 24.5286 16.5296 24.6875 16.6875C24.7648 16.7629 24.7648 16.7629 24.8438 16.8398C24.8747 16.8721 24.9056 16.9043 24.9375 16.9375C25.1359 16.8499 25.2684 16.7466 25.4204 16.5927C25.4651 16.5479 25.5097 16.5031 25.5557 16.4569C25.6032 16.4085 25.6507 16.3601 25.6997 16.3103C25.749 16.2607 25.7983 16.2111 25.8491 16.1599C26.0065 16.0014 26.1634 15.8425 26.3203 15.6836C26.4777 15.5245 26.6352 15.3654 26.7929 15.2066C26.891 15.1077 26.9889 15.0086 27.0867 14.9094C27.1309 14.8648 27.1752 14.8201 27.2207 14.7741C27.2597 14.7347 27.2986 14.6952 27.3387 14.6546C27.5442 14.463 27.7269 14.4764 28 14.5Z" fill="#D62828"/>
<path d="M18.1875 14.5C18.3882 14.6484 18.4822 14.7459 18.5469 14.9883C18.4273 15.4964 17.8365 15.9227 17.4773 16.281C17.4227 16.3356 17.3681 16.3903 17.3119 16.4466C17.1974 16.5611 17.0829 16.6755 16.9682 16.7899C16.8507 16.9072 16.7333 17.0246 16.616 17.1421C16.4462 17.3123 16.2763 17.4822 16.1062 17.6521C16.0535 17.7049 16.0009 17.7577 15.9466 17.8121C15.8737 17.8847 15.8737 17.8847 15.7992 17.9589C15.7564 18.0016 15.7136 18.0444 15.6695 18.0884C15.5351 18.2129 15.4542 18.2468 15.2734 18.2813C14.9478 18.233 14.7908 18.0393 14.5625 17.8125C14.497 17.7486 14.4315 17.6847 14.366 17.6209C13.7619 17.027 13.7619 17.027 13.7266 16.7617C13.75 16.5625 13.75 16.5625 13.8828 16.3828C14.0625 16.25 14.0625 16.25 14.2383 16.2031C14.543 16.2748 14.7196 16.471 14.9375 16.6875C15.0148 16.7629 15.0148 16.7629 15.0938 16.8398C15.1247 16.8721 15.1556 16.9043 15.1875 16.9375C15.3859 16.8499 15.5184 16.7466 15.6704 16.5928C15.7151 16.5479 15.7597 16.5031 15.8057 16.4569C15.8532 16.4085 15.9007 16.3601 15.9497 16.3103C15.999 16.2607 16.0483 16.2111 16.0991 16.16C16.2565 16.0015 16.4134 15.8426 16.5703 15.6836C16.7277 15.5245 16.8852 15.3654 17.0429 15.2066C17.141 15.1077 17.2389 15.0086 17.3367 14.9094C17.3809 14.8648 17.4252 14.8201 17.4707 14.7742C17.5097 14.7347 17.5486 14.6952 17.5887 14.6546C17.7791 14.4771 17.9327 14.47 18.1875 14.5Z" fill="#D62828"/>
<path d="M8.6875 14.5C8.83203 14.5664 8.83203 14.5664 8.9375 14.6875C9.00216 14.9203 9.03364 15.058 8.92348 15.2775C8.80767 15.4445 8.68454 15.5809 8.54076 15.7244C8.48612 15.7792 8.43148 15.8341 8.37518 15.8906C8.31581 15.9495 8.25642 16.0085 8.19702 16.0674C8.13591 16.1284 8.07482 16.1895 8.01376 16.2506C7.88613 16.3781 7.75829 16.5054 7.63029 16.6326C7.46611 16.7957 7.30235 16.9592 7.13872 17.1229C7.01279 17.2488 6.8867 17.3745 6.76056 17.5002C6.70009 17.5605 6.63966 17.6208 6.57927 17.6811C6.49506 17.7652 6.41061 17.8491 6.32616 17.9329C6.25414 18.0046 6.25414 18.0046 6.18067 18.0777C6.01866 18.2282 5.95544 18.2483 5.7307 18.2699C5.3261 18.235 5.12004 17.9355 4.84766 17.6562C4.79001 17.6008 4.73237 17.5454 4.67297 17.4883C4.21313 17.0254 4.21313 17.0254 4.20435 16.7187C4.25 16.5 4.25 16.5 4.38281 16.3437C4.59503 16.233 4.70075 16.2223 4.9375 16.25C5.10205 16.3686 5.10205 16.3686 5.25781 16.5234C5.43759 16.6998 5.58491 16.8312 5.8125 16.9375C5.84198 16.9079 5.87145 16.8783 5.90182 16.8477C6.20781 16.5404 6.51401 16.2332 6.82034 15.9262C6.93474 15.8115 7.04908 15.6967 7.16336 15.5819C7.32735 15.4172 7.49153 15.2526 7.65576 15.0881C7.70707 15.0365 7.75837 14.9849 7.81123 14.9317C7.85877 14.8841 7.90631 14.8366 7.95529 14.7876C8.01816 14.7245 8.01816 14.7245 8.0823 14.6602C8.27711 14.4793 8.42685 14.4791 8.6875 14.5Z" fill="#D62828"/>
</g>
<defs>
<clipPath id="clip0_209_348">
<rect width="32" height="32" fill="white"/>
</clipPath>
</defs>
</svg>
