<svg width="32" height="32" viewBox="0 0 32 32" fill="none" xmlns="http://www.w3.org/2000/svg">
<path d="M16.1875 1.56251C16.3964 1.63795 16.4342 1.68255 16.5625 1.87501C16.5787 2.00848 16.5787 2.00848 16.5796 2.16595C16.5803 2.2257 16.5809 2.28546 16.5815 2.34703C16.5816 2.41249 16.5816 2.47795 16.5816 2.54539C16.5822 2.61441 16.5827 2.68343 16.5832 2.75454C16.5847 2.98334 16.5853 3.21212 16.5857 3.44093C16.5862 3.59966 16.5868 3.75838 16.5874 3.91711C16.5884 4.25011 16.5889 4.58311 16.5891 4.91612C16.5893 5.3008 16.5912 5.68544 16.5938 6.07011C16.5962 6.44036 16.5969 6.81061 16.597 7.18086C16.5973 7.3383 16.5981 7.49574 16.5994 7.65318C16.601 7.8733 16.6007 8.09333 16.6 8.31346C16.6013 8.41126 16.6013 8.41126 16.6028 8.51105C16.5983 8.95343 16.5983 8.95343 16.4119 9.19608C16.1813 9.36188 16.0051 9.38008 15.728 9.39747C13.7992 9.5366 12.227 10.2477 10.9336 11.7227C10.3752 12.4134 9.96229 13.219 9.68749 14.0625C9.67435 14.1028 9.66121 14.1432 9.64767 14.1847C9.11413 15.9163 9.41829 17.6932 10.2307 19.2673C11.066 20.7731 12.5085 21.9216 14.1629 22.3999C15.9917 22.8599 17.8111 22.5653 19.4375 21.625C21.0462 20.5998 22.0943 19.0646 22.5078 17.207C22.547 17.0041 22.5696 16.8029 22.5867 16.5972C22.5911 16.5472 22.5956 16.4972 22.6002 16.4457C22.6087 16.3458 22.6161 16.2458 22.622 16.1457C22.626 16.0992 22.6299 16.0526 22.634 16.0046C22.6382 15.9424 22.6382 15.9424 22.6425 15.8788C22.7175 15.664 22.8192 15.5766 23 15.4375C23.226 15.3908 23.4487 15.3955 23.6788 15.3981C23.7815 15.3974 23.7815 15.3974 23.8862 15.3967C24.1123 15.3957 24.3383 15.3969 24.5644 15.3982C24.7216 15.3982 24.8787 15.398 25.0359 15.3977C25.3652 15.3976 25.6945 15.3985 26.0238 15.4002C26.4042 15.4022 26.7845 15.4022 27.1648 15.4011C27.5312 15.4001 27.8976 15.4006 28.264 15.4016C28.4197 15.4019 28.5754 15.4019 28.7311 15.4015C28.9486 15.4012 29.1661 15.4025 29.3837 15.4042C29.4803 15.4036 29.4803 15.4036 29.5789 15.4029C29.856 15.4066 30.0171 15.4097 30.2573 15.5568C30.3993 15.7145 30.4343 15.7763 30.4531 15.9883C30.4353 16.2151 30.3889 16.3214 30.25 16.5C30.0751 16.6064 29.9456 16.6405 29.7421 16.6392C29.6921 16.6392 29.6421 16.6392 29.5905 16.6392C29.5104 16.6382 29.5104 16.6382 29.4287 16.6372C29.3736 16.637 29.3184 16.6369 29.2616 16.6367C29.0859 16.636 28.9101 16.6344 28.7344 16.6328C28.6151 16.6322 28.4958 16.6316 28.3765 16.6311C28.0843 16.6297 27.7921 16.6276 27.5 16.625C27.4941 16.6699 27.4881 16.7148 27.482 16.7611C27.1907 18.9285 26.6195 20.9584 25.3125 22.75C25.2656 22.8154 25.2187 22.8808 25.1704 22.9483C24.1144 24.3786 22.7491 25.4829 21.1875 26.3125C21.1481 26.3336 21.1087 26.3547 21.0681 26.3764C20.554 26.6463 20.0171 26.8401 19.4687 27.0274C19.4045 27.0495 19.3403 27.0717 19.2741 27.0945C18.9427 27.204 18.662 27.2874 18.3125 27.25C18.1282 27.1539 18.0283 27.0837 17.9604 26.8831C17.9226 26.6699 17.9269 26.5297 18 26.3242C18.2539 26.0465 18.666 25.9636 19.0169 25.8534C19.6721 25.6467 20.274 25.3941 20.875 25.0625C20.9416 25.0265 21.0083 24.9905 21.0769 24.9534C23.4244 23.6384 25.1027 21.3838 25.855 18.8186C26.0483 18.1087 26.1971 17.3619 26.1875 16.625C25.8783 16.6235 25.569 16.6223 25.2598 16.6216C25.1545 16.6213 25.0493 16.6208 24.944 16.6203C24.7929 16.6195 24.6418 16.6192 24.4907 16.6189C24.4435 16.6186 24.3963 16.6183 24.3477 16.6179C24.1033 16.6129 24.1033 16.6129 23.875 16.6875C23.8331 16.817 23.8331 16.817 23.8054 16.9751C23.7934 17.0349 23.7813 17.0948 23.7689 17.1564C23.7562 17.2208 23.7435 17.2852 23.7305 17.3516C23.2855 19.4755 22.1982 21.335 20.3603 22.5535C19.3212 23.2207 18.2216 23.6079 17.004 23.8156C16.7967 23.8367 16.7967 23.8367 16.625 23.9375C16.6185 24.1283 16.616 24.3178 16.6161 24.5086C16.6159 24.5686 16.6157 24.6285 16.6155 24.6903C16.615 24.821 16.6147 24.9517 16.6145 25.0824C16.614 25.2891 16.613 25.4958 16.6119 25.7025C16.6086 26.2903 16.6056 26.8781 16.6046 27.466C16.604 27.8251 16.6022 28.1842 16.5995 28.5433C16.5988 28.6804 16.5985 28.8175 16.5986 28.9546C16.5987 29.1463 16.5974 29.3379 16.5956 29.5296C16.596 29.5865 16.5964 29.6433 16.5969 29.7019C16.5911 30.087 16.5911 30.087 16.4432 30.2833C16.2205 30.4395 16.085 30.4539 15.8125 30.4375C15.6036 30.3621 15.5658 30.3175 15.4375 30.125C15.4239 29.9409 15.4172 29.7621 15.416 29.5779C15.4151 29.5243 15.4142 29.4708 15.4132 29.4156C15.4093 29.1865 15.4069 28.9573 15.4043 28.7281C15.4022 28.5608 15.3993 28.3936 15.3965 28.2263C15.3961 28.1742 15.3958 28.1222 15.3955 28.0685C15.4027 27.7858 15.4027 27.7858 15.25 27.5625C15.1022 27.5279 15.1022 27.5279 14.9285 27.5088C14.8623 27.4999 14.7961 27.4909 14.7279 27.4817C14.6565 27.4723 14.5852 27.4629 14.5117 27.4531C11.5443 27.0273 8.74956 25.4713 6.93115 23.0601C6.13273 21.9697 5.51235 20.7834 5.09765 19.4961C5.08221 19.4485 5.06676 19.401 5.05085 19.352C4.80439 18.5497 4.80439 18.5497 4.94921 18.1914C5.07382 18.0496 5.13021 17.9868 5.31249 17.9375C5.66964 17.9375 5.66964 17.9375 5.81249 18C6.05644 18.2913 6.14111 18.5987 6.23828 18.9609C6.94471 21.4411 8.62662 23.6514 10.8789 24.9258C11.0431 25.0155 11.2086 25.1021 11.375 25.1875C11.4132 25.2074 11.4515 25.2273 11.4908 25.2478C12.3374 25.6828 13.2336 25.9566 14.1641 26.1484C14.2143 26.1589 14.2646 26.1694 14.3164 26.1802C14.6534 26.2451 14.9693 26.2642 15.3125 26.25C15.4222 26.1403 15.383 25.9963 15.3837 25.8501C15.3836 25.803 15.3834 25.7558 15.3833 25.7073C15.3834 25.6591 15.3834 25.6109 15.3835 25.5613C15.3835 25.4592 15.3834 25.3571 15.3831 25.2551C15.3828 25.0985 15.3831 24.942 15.3835 24.7855C15.3835 24.6865 15.3834 24.5875 15.3833 24.4885C15.3835 24.418 15.3835 24.418 15.3837 24.3461C15.3873 24.1026 15.3873 24.1026 15.3125 23.875C15.1809 23.8351 15.1809 23.8351 15.02 23.8098C14.9279 23.7927 14.9279 23.7927 14.8339 23.7752C14.7344 23.7569 14.7344 23.7569 14.6328 23.7383C12.5401 23.3259 10.7157 22.2155 9.49999 20.4375C8.80633 19.3899 8.41655 18.2567 8.22363 17.022C8.19938 16.8212 8.19938 16.8212 8.12499 16.6875C7.95622 16.6313 7.85957 16.6171 7.68647 16.6168C7.63557 16.6166 7.58466 16.6163 7.53221 16.616C7.44877 16.6161 7.44877 16.6161 7.36366 16.6161C7.3049 16.6159 7.24614 16.6157 7.18561 16.6155C7.05792 16.615 6.93024 16.6147 6.80256 16.6145C6.60058 16.614 6.39861 16.613 6.19663 16.6119C5.62233 16.6086 5.04804 16.6056 4.47373 16.6046C4.12257 16.604 3.77142 16.6022 3.42027 16.5996C3.28633 16.5988 3.15239 16.5985 3.01845 16.5986C2.83124 16.5988 2.64411 16.5974 2.45692 16.5956C2.40142 16.596 2.34593 16.5965 2.28875 16.5969C1.91281 16.5912 1.91281 16.5912 1.71753 16.4433C1.56039 16.2212 1.53093 16.0861 1.56249 15.8125C1.77773 15.4645 1.77773 15.4645 1.99859 15.4032C2.14879 15.3902 2.29505 15.3889 2.44579 15.3916C2.5004 15.3911 2.555 15.3905 2.61126 15.3899C2.78515 15.3884 2.95891 15.3894 3.13281 15.3906C3.30711 15.3905 3.48139 15.3899 3.65569 15.3887C3.76399 15.388 3.8723 15.3881 3.9806 15.3891C4.28994 15.3896 4.28994 15.3896 4.56249 15.25C4.6007 15.1211 4.6007 15.1211 4.61083 14.9695C4.61706 14.9118 4.62328 14.8541 4.62969 14.7946C4.63588 14.7322 4.64206 14.6698 4.64843 14.6055C4.92148 12.2511 5.83682 10.0144 7.43749 8.25001C7.48785 8.19289 7.5382 8.13577 7.59008 8.07691C7.72503 7.92462 7.86181 7.77437 7.99999 7.62501C8.03343 7.58819 8.06686 7.55137 8.10131 7.51344C9.21668 6.33688 10.7569 5.48263 12.2617 4.9297C12.3274 4.90528 12.3931 4.88086 12.4608 4.85571C12.8212 4.72861 13.1175 4.64722 13.5 4.68751C13.6964 4.81435 13.7898 4.90436 13.8445 5.13502C13.8648 5.4058 13.8648 5.4058 13.8125 5.56251C13.5513 5.83092 13.3002 5.9383 12.9414 6.03907C11.9466 6.34575 10.9561 6.80601 10.125 7.43751C10.0717 7.47779 10.0185 7.51808 9.96362 7.55958C9.58488 7.85512 9.22622 8.17246 8.87499 8.50001C8.82802 8.5436 8.78105 8.58718 8.73266 8.63209C8.10555 9.23495 7.62002 9.93605 7.18749 10.6875C7.16672 10.7231 7.14594 10.7586 7.12454 10.7953C6.37206 12.0935 5.75025 13.7924 5.87499 15.3125C5.98126 15.4188 6.1141 15.383 6.25583 15.3837C6.30023 15.3836 6.34463 15.3834 6.39037 15.3833C6.43577 15.3834 6.48116 15.3834 6.52793 15.3835C6.62414 15.3835 6.72034 15.3834 6.81654 15.3832C6.964 15.3828 7.11145 15.3832 7.2589 15.3836C7.35221 15.3835 7.44551 15.3834 7.53881 15.3833C7.58309 15.3834 7.62736 15.3836 7.67297 15.3837C7.90679 15.3861 7.90679 15.3861 8.12499 15.3125C8.16591 15.1779 8.16591 15.1779 8.19238 15.0134C8.20412 14.9511 8.21586 14.8887 8.22796 14.8245C8.24039 14.7574 8.25281 14.6903 8.26562 14.6211C8.66652 12.5992 9.75914 10.7054 11.4968 9.53158C12.5516 8.84618 13.6462 8.41484 14.888 8.20893C14.9422 8.19969 14.9964 8.19044 15.0522 8.18092C15.1009 8.17309 15.1496 8.16526 15.1998 8.15719C15.237 8.14657 15.2742 8.13595 15.3125 8.12501C15.4198 7.91044 15.384 7.66367 15.3839 7.42753C15.3841 7.36817 15.3843 7.30882 15.3845 7.24766C15.385 7.11848 15.3853 6.98929 15.3855 6.86011C15.386 6.65577 15.387 6.45144 15.3881 6.24711C15.3914 5.66604 15.3944 5.08497 15.3954 4.50389C15.396 4.14874 15.3978 3.79361 15.4004 3.43848C15.4012 3.30297 15.4015 3.16746 15.4014 3.03195C15.4012 2.84249 15.4026 2.65311 15.4044 2.46366C15.404 2.40749 15.4035 2.35131 15.4031 2.29343C15.4089 1.91293 15.4089 1.91293 15.5568 1.71713C15.7793 1.5603 15.9148 1.54615 16.1875 1.56251Z" fill="#D62828"/>
<path d="M25.0625 3.81249C25.2777 3.94527 25.3573 4.00927 25.4375 4.24999C25.4464 4.42891 25.4521 4.6066 25.4551 4.78563C25.4562 4.83793 25.4574 4.89023 25.4586 4.94412C25.4635 5.16803 25.4677 5.39194 25.472 5.61586C25.4752 5.77923 25.4788 5.94258 25.4824 6.10594C25.4837 6.1825 25.4837 6.1825 25.485 6.26061C25.4683 6.49314 25.4683 6.49314 25.5625 6.68749C25.7345 6.69518 25.9051 6.69912 26.0772 6.70067C26.1838 6.70242 26.2904 6.70422 26.397 6.70604C26.5655 6.70862 26.7341 6.71092 26.9027 6.71257C27.065 6.7143 27.2273 6.71717 27.3897 6.7202C27.4649 6.7205 27.4649 6.7205 27.5416 6.72082C27.8279 6.72708 28.0178 6.75219 28.25 6.93749C28.4101 7.17768 28.4171 7.27711 28.375 7.56249C28.0361 8.0628 27.5232 8.48701 27.0969 8.91356C27.0155 8.99522 26.934 9.07688 26.8526 9.15854C26.6828 9.32874 26.5128 9.49881 26.3428 9.66881C26.1249 9.88663 25.9075 10.1049 25.6902 10.3233C25.5226 10.4916 25.3546 10.6597 25.1866 10.8277C25.1063 10.9081 25.0261 10.9885 24.946 11.0691C24.8343 11.1815 24.7222 11.2934 24.6099 11.4052C24.5771 11.4385 24.5442 11.4717 24.5103 11.506C24.3088 11.7057 24.1518 11.8588 23.8642 11.8894C23.8152 11.889 23.7661 11.8885 23.7156 11.888C23.6597 11.8878 23.6038 11.8876 23.5462 11.8875C23.4861 11.8868 23.4261 11.8862 23.3643 11.8855C23.2363 11.8858 23.1084 11.8863 22.9805 11.8868C22.7794 11.8871 22.5784 11.8867 22.3773 11.8846C22.1828 11.883 21.9885 11.884 21.794 11.8855C21.7047 11.8836 21.7047 11.8836 21.6136 11.8816C21.2156 11.8873 21.0151 11.9788 20.7326 12.2601C20.6971 12.298 20.6616 12.3359 20.625 12.375C20.5881 12.4106 20.5512 12.4461 20.5132 12.4828C20.3333 12.6565 20.1654 12.8365 20.0039 13.0273C19.6781 13.401 19.3241 13.7474 18.9734 14.0974C18.8986 14.1722 18.8239 14.247 18.7492 14.3218C18.5935 14.4776 18.4378 14.6332 18.2819 14.7887C18.082 14.9883 17.8823 15.1882 17.6827 15.3881C17.5289 15.5422 17.375 15.6961 17.2209 15.8499C17.1472 15.9236 17.0735 15.9973 16.9999 16.0711C16.8974 16.1737 16.7948 16.2762 16.6921 16.3785C16.6337 16.4368 16.5754 16.4951 16.5152 16.5552C16.3082 16.7505 16.1644 16.7762 15.8777 16.771C15.75 16.75 15.75 16.75 15.5625 16.625C15.4339 16.432 15.383 16.3005 15.4005 16.0668C15.5451 15.5611 16.2222 15.0831 16.5908 14.717C16.7114 14.5972 16.8317 14.4773 16.952 14.3573C17.2506 14.0595 17.5496 13.762 17.8486 13.4646C18.1019 13.2125 18.3551 12.9603 18.6081 12.7079C18.7259 12.5905 18.8439 12.4732 18.9619 12.356C19.2905 12.0289 19.6162 11.7031 19.9153 11.3482C20.0024 11.2472 20.0879 11.1513 20.1875 11.0625C20.2288 11.0625 20.27 11.0625 20.3125 11.0625C20.311 11.0089 20.311 11.0089 20.3096 10.9543C20.2998 10.5812 20.2933 10.2081 20.2885 9.83492C20.2863 9.69584 20.2833 9.55678 20.2795 9.41774C20.2742 9.21727 20.2717 9.01692 20.2698 8.81639C20.2664 8.72388 20.2664 8.72388 20.2629 8.6295C20.2628 8.32854 20.2818 8.12066 20.4802 7.88695C20.569 7.79848 20.6592 7.71134 20.75 7.62499C20.8115 7.56195 20.8726 7.49859 20.9335 7.435C21.3674 6.98238 21.8098 6.5379 22.2513 6.09265C22.4749 5.86711 22.698 5.6411 22.9199 5.4139C23.1357 5.19297 23.3527 4.9733 23.5707 4.75446C23.6532 4.67116 23.7353 4.58743 23.817 4.50326C23.9311 4.38582 24.0466 4.27004 24.1627 4.15453C24.1959 4.11966 24.229 4.0848 24.2632 4.04888C24.5334 3.78519 24.7036 3.7693 25.0625 3.81249ZM23.9375 6.12499C23.5225 6.47271 23.1387 6.84961 22.7562 7.23216C22.6527 7.33562 22.5486 7.43856 22.4445 7.54149C22.2802 7.70452 22.1188 7.8699 21.9592 8.03745C21.8843 8.11532 21.8074 8.19127 21.7303 8.26692C21.3558 8.67283 21.382 9.08605 21.4024 9.61717C21.4033 9.69951 21.4042 9.78185 21.4052 9.86668C21.3976 10.3015 21.3976 10.3015 21.5625 10.6875C22.1892 10.9053 23.0063 10.9499 23.625 10.6875C24.112 10.3833 24.5119 9.96772 24.9063 9.55467C24.9577 9.50098 25.0091 9.44729 25.062 9.39197C25.2095 9.23558 25.3545 9.07742 25.4981 8.91747C25.5636 8.84448 25.5636 8.84448 25.6305 8.77001C25.8446 8.52063 25.9915 8.3433 26 7.99999C25.817 7.89566 25.6847 7.85957 25.4746 7.8579C25.423 7.85661 25.3713 7.85532 25.3181 7.85399C25.2102 7.85236 25.1023 7.85122 24.9944 7.85057C24.5994 7.83948 24.5994 7.83948 24.4043 7.69676C24.2722 7.50354 24.2416 7.3389 24.2302 7.11058C24.2276 7.06043 24.225 7.01028 24.2223 6.9586C24.2198 6.90652 24.2174 6.85443 24.2149 6.80077C24.2122 6.74796 24.2095 6.69514 24.2067 6.64073C24.2 6.51049 24.1937 6.38024 24.1875 6.24999C24.105 6.20874 24.0225 6.16749 23.9375 6.12499Z" fill="#D62828"/>
<path d="M16.3652 11.4905C16.5 11.625 16.5 11.625 16.5625 11.8047C16.5625 12.0451 16.5033 12.1734 16.375 12.375C16.1745 12.5087 16.0346 12.5254 15.7996 12.5522C14.7824 12.6713 13.9189 13.0758 13.2649 13.8865C12.6887 14.7008 12.4564 15.5862 12.5894 16.5747C12.7668 17.4838 13.2614 18.2959 14.0234 18.832C14.9277 19.3872 15.8319 19.5845 16.875 19.3399C17.7453 19.1155 18.4361 18.6113 18.9141 17.8489C19.2155 17.2828 19.3551 16.7036 19.4163 16.0706C19.4477 15.8177 19.4854 15.6714 19.6819 15.5007C19.9036 15.3564 19.9917 15.3212 20.25 15.375C20.4061 15.4765 20.5108 15.5461 20.625 15.6875C20.6615 15.8721 20.6732 15.997 20.6641 16.1797C20.6627 16.2264 20.6613 16.2731 20.6599 16.3213C20.6085 17.4042 20.158 18.386 19.4375 19.1875C19.4051 19.2257 19.3727 19.2639 19.3394 19.3032C18.5592 20.1618 17.3831 20.6037 16.25 20.6875C16.2094 20.6909 16.1688 20.6943 16.127 20.6978C14.9607 20.7471 13.7955 20.3025 12.9258 19.5391C12.8245 19.4438 12.7242 19.3475 12.625 19.25C12.5858 19.2116 12.5465 19.1732 12.5061 19.1336C11.675 18.2534 11.2942 17.0565 11.3149 15.8609C11.382 14.576 11.906 13.4138 12.8397 12.5233C13.6023 11.8547 15.3845 10.8533 16.3652 11.4905Z" fill="#D62828"/>
</svg>
