<svg width="24" height="24" viewBox="0 0 24 24" fill="none" xmlns="http://www.w3.org/2000/svg">
<path d="M16.1865 1.45312C16.3869 1.46888 16.4782 1.54641 16.6143 1.69043C16.6877 1.78153 16.7588 1.8745 16.8281 1.96875C16.8475 1.99486 16.867 2.02097 16.887 2.04787C17.4651 2.83521 17.8267 3.66315 17.6986 4.65619C17.5976 5.17199 17.3726 5.65523 16.9687 6C17.0387 6.16994 17.1341 6.26002 17.2734 6.37793C17.538 6.60934 17.7683 6.86127 18 7.125C18.0197 7.07814 18.0197 7.07814 18.0397 7.03033C18.4963 5.98074 19.2566 5.44296 20.2381 4.93195C20.4155 4.86573 20.5311 4.84763 20.7187 4.875C20.9578 5.04358 21.0056 5.23273 21.0586 5.50488C21.0698 5.55677 21.0698 5.55677 21.0813 5.60971C21.1023 5.70835 21.1216 5.8072 21.1406 5.90625C21.1497 5.94927 21.1589 5.99229 21.1683 6.03662C21.2841 6.94549 21.2123 7.77112 20.6719 8.53125C20.3539 8.9283 20.0027 9.12607 19.5469 9.32812C19.4842 9.35897 19.4216 9.39001 19.3594 9.42187C19.378 9.47626 19.3967 9.53064 19.416 9.58667C19.7931 10.6948 19.7931 10.6948 19.7812 11.0625C19.8023 11.0426 19.8234 11.0227 19.8452 11.0023C20.6343 10.2827 21.5248 10.08 22.5732 10.0605C22.6134 10.0593 22.6536 10.0581 22.6951 10.0568C22.8845 10.0563 22.9911 10.0642 23.1586 10.1596C23.2947 10.3175 23.2824 10.4141 23.2729 10.6161C23.1955 11.1742 23.0255 11.7274 22.7812 12.2344C22.7555 12.2895 22.7555 12.2895 22.7292 12.3457C22.4317 12.9327 21.9214 13.3791 21.3051 13.6042C20.9061 13.7279 20.5324 13.7819 20.1213 13.6868C20.0838 13.6782 20.0463 13.6696 20.0077 13.6607C19.9794 13.6541 19.951 13.6475 19.9219 13.6406C19.9183 13.667 19.9148 13.6934 19.9112 13.7206C19.8404 14.2461 19.763 14.7649 19.6406 15.2812C19.7203 15.2586 19.7203 15.2586 19.8016 15.2355C20.766 14.996 21.7657 15.3512 22.597 15.8335C22.7332 15.9228 22.8535 16.0098 22.9687 16.125C22.994 16.2828 23.0005 16.3996 22.9169 16.5404C22.7404 16.7691 22.5528 16.9794 22.3477 17.1826C22.3167 17.2133 22.2857 17.244 22.2538 17.2756C21.6437 17.8708 20.9526 18.2552 20.0889 18.249C20.0498 18.2488 20.0107 18.2485 19.9704 18.2482C19.4298 18.2376 18.9049 18.0623 18.5156 17.6719C18.4847 17.6719 18.4537 17.6719 18.4219 17.6719C18.3683 17.7411 18.3182 17.813 18.2695 17.8857C17.9867 18.2865 17.6432 18.6381 17.2969 18.9844C17.3377 18.9946 17.3786 19.0049 17.4207 19.0155C18.0244 19.1762 18.5101 19.414 18.9844 19.8281C19.0235 19.861 19.0626 19.8939 19.1028 19.9277C19.7902 20.5209 19.7902 20.5209 19.9158 20.8835C19.9233 21.0278 19.8973 21.1078 19.8281 21.2344C19.2687 21.7658 18.2101 22.1006 17.4518 22.1309C16.7718 22.1051 16.101 21.9016 15.5975 21.423C15.3686 21.1577 15.0937 20.8006 15.0937 20.4375C15.0556 20.4509 15.0556 20.4509 15.0168 20.4646C14.3642 20.693 13.7197 20.866 13.0415 20.9962C12.1033 21.1793 11.1394 21.4818 10.5732 22.3096C10.4854 22.4274 10.4392 22.4893 10.2986 22.535C10.1064 22.5453 10.0141 22.5247 9.86426 22.4004C9.78144 22.2348 9.76167 22.1674 9.79687 21.9844C10.2126 21.1545 11.101 20.6792 11.944 20.3928C12.3311 20.268 12.7195 20.1862 13.1191 20.1123C14.981 19.754 16.6489 18.7794 17.7396 17.1969C18.9807 15.3377 19.3868 13.1922 18.9521 11.001C18.7352 9.9814 18.3182 9.00834 17.7187 8.15625C17.6842 8.10682 17.6497 8.05739 17.6142 8.00647C17.1128 7.32288 16.506 6.7757 15.8145 6.28986C15.2452 5.88477 14.8217 5.37655 14.6869 4.67322C14.5603 3.60776 14.9723 2.76752 15.5863 1.92755C15.9597 1.45996 15.9597 1.45996 16.1865 1.45312ZM16.1719 2.53125C15.7304 3.12162 15.4081 3.69928 15.4687 4.45312C15.5272 4.79443 15.6642 5.03846 15.8906 5.29687C15.9222 5.33494 15.9222 5.33494 15.9543 5.37378C16.0181 5.44892 16.0181 5.44892 16.125 5.53125C16.2565 5.53536 16.3162 5.48201 16.4268 5.41113C16.7721 5.08261 16.9197 4.64613 16.9424 4.1748C16.921 3.63072 16.6262 3.00411 16.2539 2.60596C16.2268 2.5813 16.1998 2.55665 16.1719 2.53125ZM19.3229 6.50446C18.962 6.86791 18.7995 7.24722 18.7266 7.75781C18.7853 8.19917 18.7853 8.19917 18.9844 8.57812C19.3824 8.56391 19.6848 8.41579 19.957 8.12402C20.2988 7.70515 20.399 7.31411 20.3994 6.78809C20.4003 6.72423 20.4003 6.72423 20.4012 6.65909C20.4018 6.37824 20.3672 6.13138 20.2969 5.85937C19.9581 5.85937 19.5559 6.28477 19.3229 6.50446ZM20.48 11.5259C20.1139 11.9318 20.0469 12.3081 20.0625 12.8437C20.4009 12.9716 20.7137 12.9644 21.0529 12.8344C21.6552 12.5472 21.9816 12.1719 22.2081 11.5432C22.3413 11.2146 22.3413 11.2146 22.4062 10.875C21.722 10.8549 20.9798 11.0451 20.48 11.5259ZM19.0986 16.6436C19.0097 16.7565 18.9835 16.8024 18.9886 16.9475C19.0418 17.0909 19.0963 17.1308 19.2246 17.2119C19.2595 17.2348 19.2945 17.2577 19.3304 17.2813C19.7226 17.4809 20.1938 17.5069 20.6193 17.4053C21.116 17.2187 21.6425 16.8488 21.9375 16.4062C20.9899 15.8735 19.85 15.7284 19.0986 16.6436ZM15.8906 20.2969C15.954 20.5784 16.0986 20.7667 16.3125 20.9531C16.7925 21.2558 17.2522 21.3913 17.8125 21.2812C18.1755 21.181 18.527 21.068 18.8437 20.8594C18.4634 20.3763 17.9634 19.9485 17.3437 19.8281C16.7689 19.776 16.3267 19.922 15.8906 20.2969Z" fill="#D62828"/>
<path d="M7.80762 1.45312C8.09534 1.49301 8.2478 1.70421 8.41822 1.9243C8.49057 2.02558 8.55982 2.12825 8.62793 2.23242C8.66441 2.28785 8.66441 2.28785 8.70162 2.3444C8.89596 2.64526 9.05991 2.94549 9.1875 3.28125C9.20327 3.3227 9.21904 3.36415 9.23529 3.40686C9.44456 4.05093 9.36634 4.77346 9.06445 5.37305C8.78735 5.84204 8.43329 6.1413 7.98974 6.44363C7.67263 6.66123 7.40004 6.90321 7.125 7.17188C7.08524 7.20873 7.04548 7.24559 7.00452 7.28357C5.81697 8.41155 5.11456 10.1122 4.92188 11.7188C4.91674 11.7556 4.9116 11.7925 4.90631 11.8304C4.74489 13.2036 4.96019 14.6324 5.53125 15.8906C5.54496 15.9209 5.55867 15.9511 5.57279 15.9823C5.89166 16.6742 6.30363 17.2803 6.79688 17.8594C6.83694 17.9101 6.87699 17.9609 6.91699 18.0117C7.06721 18.1812 7.23295 18.3234 7.40625 18.4688C7.44335 18.5011 7.48045 18.5335 7.51868 18.5669C8.24306 19.1847 9.08838 19.6303 9.99573 19.9124C10.1387 19.9747 10.1907 20.021 10.2656 20.1562C10.2956 20.3623 10.2896 20.4502 10.1689 20.6221C9.99316 20.7455 9.9159 20.7361 9.70312 20.7188C9.55984 20.6809 9.42261 20.6308 9.28418 20.5781C9.24765 20.5647 9.21113 20.5513 9.17349 20.5375C9.08424 20.5046 8.99522 20.4711 8.90625 20.4375C8.90117 20.4791 8.8961 20.5206 8.89087 20.5635C8.79237 21.0491 8.4052 21.4527 8.00537 21.7185C7.42073 22.0699 6.74019 22.2058 6.06683 22.0724C4.55696 21.6851 4.55696 21.6851 4.125 21.1875C4.07409 21.0239 4.06556 20.9378 4.12939 20.7775C4.239 20.5904 4.369 20.4421 4.51758 20.2852C4.54667 20.2544 4.57577 20.2236 4.60574 20.1919C5.19394 19.5822 5.86106 19.1463 6.70312 18.9844C6.6685 18.9514 6.63388 18.9184 6.59821 18.8844C5.79625 18.1081 5.79625 18.1081 5.57812 17.6719C5.44162 17.7357 5.32692 17.8108 5.20605 17.9004C4.62834 18.2824 3.97663 18.2946 3.30981 18.2155C2.53028 18.0561 1.99394 17.5096 1.45312 16.9688C1.42297 16.9397 1.39282 16.9106 1.36176 16.8807C1.33487 16.8546 1.30798 16.8286 1.28027 16.8018C1.25302 16.7756 1.22577 16.7494 1.19769 16.7225C1.07649 16.586 1.03487 16.4749 1.00488 16.2949C1.03794 16.0819 1.1 16.0442 1.26065 15.914C1.42612 15.7963 1.60274 15.711 1.78711 15.627C1.82609 15.6089 1.86508 15.5908 1.90525 15.5721C2.4414 15.3284 2.96247 15.1798 3.55371 15.1758C3.60687 15.1743 3.60687 15.1743 3.6611 15.1729C3.93211 15.171 4.15472 15.2292 4.40625 15.3281C4.39798 15.2953 4.3897 15.2625 4.38118 15.2287C4.34324 15.0774 4.30589 14.9259 4.26855 14.7744C4.25553 14.7228 4.24251 14.6713 4.2291 14.6181C4.14927 14.2921 4.09729 13.9758 4.07812 13.6406C4.04936 13.6478 4.0206 13.655 3.99097 13.6624C3.95785 13.6707 3.92474 13.679 3.89062 13.6875C3.85582 13.6962 3.82102 13.7049 3.78516 13.7139C3.24229 13.8002 2.62632 13.6534 2.17053 13.348C1.34044 12.7149 0.91821 11.8024 0.75 10.7812C0.741393 10.6946 0.73557 10.6076 0.732422 10.5205C0.728978 10.4552 0.728978 10.4552 0.725464 10.3885C0.75 10.2656 0.75 10.2656 0.84137 10.1572C1.03733 10.0488 1.19463 10.0518 1.41504 10.0576C1.45638 10.0583 1.49773 10.059 1.54033 10.0597C2.39262 10.0836 3.28891 10.236 3.9375 10.8281C3.99299 10.8742 4.04864 10.9202 4.10449 10.9658C4.1422 10.9977 4.1799 11.0296 4.21875 11.0625C4.22054 11.0342 4.22232 11.006 4.22416 10.9769C4.24818 10.6741 4.31127 10.402 4.40332 10.1133C4.41574 10.073 4.42815 10.0328 4.44095 9.99133C4.50491 9.78501 4.57141 9.57963 4.64062 9.375C4.6083 9.36473 4.57597 9.35446 4.54266 9.34387C3.8358 9.10534 3.40487 8.69446 3.03571 8.05573C2.83694 7.65348 2.78769 7.24338 2.79199 6.7998C2.79225 6.7493 2.7925 6.6988 2.79276 6.64676C2.80307 6.09391 2.84861 5.45348 3.14062 4.96875C3.31758 4.85078 3.39902 4.85613 3.60938 4.875C3.73628 4.92382 3.84776 4.97298 3.9668 5.03613C4.01557 5.06138 4.01557 5.06138 4.06533 5.08714C4.94195 5.55195 5.67564 6.16045 6 7.125C6.03124 7.08983 6.06248 7.05467 6.09467 7.01843C6.39034 6.68896 6.69788 6.38521 7.03125 6.09375C6.97158 5.96287 6.90922 5.87054 6.80859 5.76855C6.37627 5.27478 6.25707 4.64325 6.27008 4.00781C6.32338 3.22495 6.75543 2.53366 7.21875 1.92188C7.25017 1.87849 7.28159 1.8351 7.31396 1.79041C7.45825 1.60662 7.56601 1.47479 7.80762 1.45312ZM7.78125 2.53125C7.37032 3.06984 7.00139 3.70789 7.07812 4.40625C7.17041 4.86106 7.33736 5.26657 7.73438 5.53125C7.9363 5.51242 8.03736 5.39169 8.17145 5.25128C8.45541 4.90774 8.55831 4.48472 8.54846 4.04535C8.48709 3.49364 8.20079 3.01528 7.875 2.57812C7.84406 2.56266 7.81313 2.54719 7.78125 2.53125ZM3.70312 5.85938C3.55115 6.45877 3.47543 7.22654 3.79688 7.78125C4.01438 8.1254 4.32652 8.47079 4.73438 8.57812C4.88478 8.58598 4.88478 8.58598 5.01562 8.57812C5.25774 8.12205 5.30249 7.71016 5.15955 7.21179C4.92129 6.57702 4.36519 6.18157 3.79688 5.85938C3.76594 5.85938 3.735 5.85938 3.70312 5.85938ZM1.59375 10.875C1.75527 11.5351 1.98312 12.259 2.58691 12.6416C3.00692 12.8952 3.35694 12.9819 3.84375 12.8906C3.87469 12.8752 3.90563 12.8597 3.9375 12.8438C3.96916 12.324 3.87218 11.9788 3.54785 11.571C3.10577 11.0869 2.49868 10.9611 1.875 10.875C1.78127 10.8729 1.68745 10.8721 1.59375 10.875ZM2.0625 16.4062C2.42062 16.8612 2.92498 17.3309 3.51562 17.4375C4.12448 17.4744 4.54175 17.4146 5.01562 17.0156C4.99971 16.7611 4.85582 16.5862 4.6875 16.4062C4.28416 16.0687 3.88191 15.9555 3.36053 15.9679C2.89298 16.0124 2.46936 16.1775 2.0625 16.4062ZM5.25 20.7188C5.21906 20.7652 5.18813 20.8116 5.15625 20.8594C5.79472 21.1984 6.40501 21.4452 7.12848 21.2379C7.57044 21.0756 7.85219 20.8233 8.10938 20.4375C8.1013 20.3086 8.07621 20.2625 7.98047 20.1751C6.95753 19.5091 6.05413 19.9207 5.25 20.7188Z" fill="#D62828"/>
<path d="M12.1875 6.375C12.3226 6.49469 12.4106 6.61008 12.4916 6.77051C12.5128 6.81181 12.534 6.8531 12.5558 6.89565C12.5896 6.96277 12.5896 6.96277 12.624 7.03125C12.6738 7.12852 12.7237 7.22575 12.7736 7.32294C12.8 7.37443 12.8264 7.42592 12.8537 7.47897C12.9402 7.64587 13.0284 7.81179 13.1175 7.97736C13.1402 8.01951 13.1402 8.01951 13.1633 8.06252C13.2393 8.20368 13.3156 8.3447 13.392 8.48564C13.5192 8.72123 13.6447 8.95596 13.7554 9.19977C13.7798 9.25271 13.7798 9.25271 13.8046 9.30672C13.8449 9.39596 13.8834 9.48597 13.9217 9.57605C14.1356 9.86543 14.6904 9.84932 15.0308 9.9038C15.2135 9.93317 15.396 9.96348 15.5785 9.99362C15.8099 10.0318 16.0413 10.0696 16.2729 10.1065C16.461 10.1365 16.6489 10.1674 16.8368 10.1989C16.9081 10.2107 16.9795 10.2222 17.0509 10.2333C17.1508 10.2489 17.2504 10.2656 17.35 10.2826C17.4066 10.2918 17.4633 10.301 17.5216 10.3105C17.7038 10.3698 17.7862 10.4462 17.9062 10.5938C17.9414 10.749 17.9414 10.749 17.9062 10.9219C17.8148 11.0646 17.6983 11.1781 17.5781 11.2969C17.5329 11.3421 17.4878 11.3873 17.4426 11.4326C17.3714 11.5039 17.3 11.575 17.2279 11.6455C17.1043 11.7668 16.9889 11.8905 16.8781 12.0236C16.7433 12.1801 16.5981 12.3193 16.4455 12.4579C16.3215 12.5706 16.1992 12.6852 16.0768 12.7997C16.0132 12.8584 15.9489 12.9163 15.8838 12.9734C15.4905 13.3086 15.4905 13.3086 15.3016 13.7695C15.3206 13.9413 15.3519 14.1001 15.3938 14.2673C15.45 14.5139 15.4782 14.7656 15.5131 15.0159C15.5297 15.1287 15.5465 15.2415 15.5634 15.3542C15.5719 15.4111 15.5804 15.4679 15.5892 15.5265C15.6066 15.6429 15.6242 15.7593 15.6418 15.8757C15.6676 16.0461 15.6929 16.2165 15.7181 16.387C15.726 16.4385 15.734 16.49 15.7421 16.543C15.8574 17.327 15.8574 17.327 15.7295 17.5605C15.5458 17.6591 15.3882 17.6598 15.1875 17.625C14.9769 17.5428 14.7785 17.4423 14.5785 17.3371C14.4778 17.2841 14.3766 17.2322 14.2752 17.1806C14.0602 17.0709 13.846 16.9598 13.6318 16.8486C13.383 16.7196 13.1339 16.5911 12.8842 16.4638C12.7846 16.4127 12.6856 16.3607 12.5865 16.3087C12.5253 16.2773 12.4642 16.246 12.403 16.2148C12.3499 16.1872 12.2969 16.1596 12.2422 16.1312C12.0173 16.0508 11.8822 16.0949 11.6676 16.1876C11.5905 16.2274 11.5905 16.2274 11.5119 16.268C11.4833 16.2827 11.4546 16.2973 11.4251 16.3124C11.3634 16.344 11.3017 16.3758 11.2401 16.4078C11.1423 16.4584 11.0442 16.5085 10.9461 16.5584C10.6672 16.7003 10.3887 16.8431 10.1106 16.9867C9.94015 17.0747 9.76927 17.1619 9.59812 17.2486C9.53328 17.2816 9.4686 17.315 9.4041 17.3486C8.77271 17.6782 8.77271 17.6782 8.39062 17.625C8.27051 17.5605 8.27051 17.5605 8.20312 17.4375C8.16073 17.0703 8.23477 16.6981 8.29137 16.336C8.30764 16.2318 8.32347 16.1276 8.33918 16.0233C8.37822 15.7646 8.41797 15.5061 8.4578 15.2476C8.4916 15.0282 8.52508 14.8087 8.55811 14.5891C8.57366 14.4866 8.58968 14.3842 8.60572 14.2818C8.61522 14.2189 8.62471 14.1559 8.63417 14.093C8.6426 14.0383 8.65103 13.9836 8.65972 13.9273C8.67492 13.7446 8.67363 13.6129 8.56285 13.4625C8.53646 13.4367 8.51007 13.4108 8.48289 13.3842C8.43803 13.3396 8.43803 13.3396 8.39226 13.2941C8.3597 13.2626 8.32713 13.2312 8.29358 13.1988C8.26009 13.1657 8.2266 13.1326 8.19209 13.0984C8.08488 12.9926 7.97704 12.8874 7.86914 12.7822C7.76236 12.6775 7.65572 12.5725 7.5492 12.4675C7.48296 12.4023 7.41655 12.3372 7.34994 12.2723C7.16593 12.092 6.99208 11.9064 6.8248 11.7104C6.69958 11.5674 6.56363 11.4355 6.42773 11.3027C6.10066 10.9829 6.10066 10.9829 6.07617 10.7666C6.09375 10.5938 6.09375 10.5938 6.19007 10.4708C6.34975 10.3419 6.48214 10.3074 6.67953 10.2791C6.71408 10.2733 6.74864 10.2676 6.78424 10.2616C6.89783 10.2429 7.01158 10.2256 7.12537 10.2081C7.20458 10.1952 7.28378 10.1822 7.36297 10.1692C7.57101 10.135 7.7792 10.1018 7.98746 10.069C8.32115 10.0163 8.65465 9.96258 8.98801 9.90789C9.10445 9.88902 9.22098 9.8709 9.33754 9.85283C9.40882 9.84131 9.48009 9.82977 9.55135 9.81819C9.60001 9.81095 9.60001 9.81095 9.64965 9.80357C9.819 9.77528 9.92753 9.75112 10.0312 9.60938C10.0847 9.52144 10.0847 9.52144 10.1307 9.42462C10.1484 9.38955 10.1661 9.35447 10.1844 9.31833C10.221 9.24471 10.2574 9.17098 10.2935 9.09714C10.3113 9.06212 10.3291 9.02711 10.3475 8.99103C10.3712 8.94303 10.3712 8.94303 10.3953 8.89406C10.4668 8.79323 10.5252 8.76087 10.6406 8.71875C10.8379 8.72228 10.9347 8.73507 11.083 8.86817C11.1702 9.02503 11.1704 9.10377 11.1562 9.28125C11.1076 9.40992 11.1076 9.40992 11.0398 9.53961C11.0153 9.58672 10.9907 9.63382 10.9655 9.68234C10.9395 9.73078 10.9135 9.77921 10.8867 9.8291C10.8615 9.87808 10.8362 9.92705 10.8102 9.97751C10.595 10.3851 10.595 10.3851 10.4062 10.5C10.2774 10.5335 10.1534 10.5596 10.0225 10.582C9.98192 10.5894 9.94139 10.5968 9.89962 10.6043C9.7405 10.6329 9.58121 10.6602 9.42188 10.6875C9.38504 10.6938 9.34821 10.7001 9.31026 10.7066C9.18494 10.728 9.0596 10.7494 8.93427 10.7708C8.86977 10.7818 8.86977 10.7818 8.80396 10.793C8.58468 10.8304 8.36535 10.8676 8.14596 10.9043C8.10449 10.9113 8.06301 10.9183 8.02028 10.9255C7.94147 10.9388 7.86264 10.952 7.7838 10.9651C7.63792 10.9897 7.49998 11.0156 7.35938 11.0625C7.42283 11.1256 7.42283 11.1256 7.48756 11.1899C7.64589 11.3474 7.80407 11.5051 7.96219 11.6627C8.03039 11.7307 8.09862 11.7986 8.1669 11.8665C8.26558 11.9646 8.3641 12.0629 8.46259 12.1611C8.49268 12.191 8.52277 12.2208 8.55377 12.2516C8.73381 12.4316 8.90453 12.6171 9.07017 12.8104C9.18421 12.9402 9.31227 13.0539 9.44055 13.1693C9.56378 13.3274 9.56647 13.4927 9.55212 13.6886C9.54452 13.7385 9.53692 13.7884 9.52909 13.8398C9.52064 13.8967 9.5122 13.9536 9.50349 14.0123C9.49402 14.0731 9.48455 14.1339 9.47479 14.1965C9.46523 14.26 9.4557 14.3235 9.44622 14.387C9.42124 14.5535 9.39576 14.7198 9.37015 14.8862C9.33906 15.0888 9.30853 15.2915 9.27796 15.4942C9.25419 15.6518 9.23032 15.8094 9.20615 15.9669C9.19755 16.0232 9.18895 16.0796 9.1801 16.1376C9.17246 16.1873 9.16482 16.2371 9.15696 16.2883C9.13848 16.4019 9.13848 16.4019 9.14062 16.5C9.19585 16.4721 9.25107 16.4443 9.30796 16.4156C9.51701 16.3102 9.7262 16.2051 9.93542 16.1C10.0252 16.0549 10.1149 16.0097 10.2046 15.9645C10.4638 15.8337 10.7238 15.7045 10.9847 15.5771C11.1057 15.5174 11.2258 15.4561 11.346 15.3948C11.4195 15.3588 11.4931 15.3229 11.5668 15.2871C11.5991 15.27 11.6314 15.253 11.6647 15.2354C11.8515 15.1473 11.9746 15.1298 12.1755 15.1843C12.4609 15.2873 12.7308 15.424 13.0009 15.5616C13.0543 15.5884 13.1077 15.6153 13.1628 15.643C13.3033 15.7137 13.4437 15.7847 13.584 15.8559C13.7278 15.9287 13.8718 16.0012 14.0158 16.0736C14.2972 16.2154 14.5784 16.3575 14.8594 16.5C14.8136 16.1714 14.7677 15.8427 14.7218 15.5141C14.7062 15.4023 14.6906 15.2906 14.675 15.1788C14.6526 15.018 14.6301 14.8572 14.6076 14.6964C14.6007 14.6466 14.5937 14.5968 14.5866 14.5455C14.5328 14.1414 14.5328 14.1414 14.4518 13.7423C14.4198 13.5201 14.4203 13.3531 14.5575 13.1658C14.7513 12.9494 14.9656 12.7564 15.1816 12.5625C15.3032 12.4481 15.4093 12.3247 15.5174 12.1976C15.716 11.9734 15.9328 11.7656 16.1455 11.5547C16.1937 11.5067 16.2419 11.4588 16.2901 11.4108C16.4068 11.2946 16.5237 11.1785 16.6406 11.0625C16.1526 10.9651 15.6638 10.8754 15.1729 10.7944C15.0864 10.7801 14.9999 10.7657 14.9134 10.7513C14.7826 10.7296 14.6519 10.7081 14.521 10.6871C14.3965 10.667 14.2721 10.6465 14.1476 10.6258C14.1102 10.6199 14.0727 10.6141 14.0341 10.608C13.7893 10.5667 13.5492 10.522 13.3829 10.3217C13.3662 10.2896 13.3495 10.2576 13.3323 10.2246C13.3121 10.1869 13.292 10.1492 13.2712 10.1104C13.2394 10.048 13.2394 10.048 13.207 9.98438C13.184 9.94077 13.1609 9.89716 13.1372 9.85223C13.0539 9.69371 12.9721 9.53445 12.8906 9.375C12.8551 9.30551 12.8195 9.23601 12.7839 9.16651C12.7653 9.13005 12.7466 9.09358 12.7274 9.05601C12.689 8.98099 12.6506 8.90598 12.6122 8.83099C12.5165 8.64413 12.4212 8.45711 12.3266 8.26969C12.2914 8.20032 12.2561 8.13095 12.2208 8.06159C12.2046 8.02921 12.1884 7.99684 12.1718 7.96348C12.0943 7.79606 12.0943 7.79606 11.9531 7.6875C11.9357 7.73681 11.9357 7.73681 11.918 7.78711C11.8245 8.00205 11.7277 8.16594 11.5312 8.29688C11.3584 8.31942 11.2706 8.30762 11.1152 8.22656C11.0012 8.09236 10.9936 8.0161 10.9985 7.84305C11.0318 7.63177 11.1355 7.45249 11.2354 7.26563C11.2557 7.22575 11.2761 7.18587 11.2971 7.14478C11.7429 6.28357 11.7429 6.28357 12.1875 6.375Z" fill="#D62828"/>
<path d="M13.7344 21.375C13.9594 21.5824 14.1808 21.8095 14.2207 22.1221C14.1977 22.3096 14.1616 22.379 14.0156 22.5C13.8606 22.5552 13.7486 22.5566 13.5938 22.5C13.3712 22.2907 13.1393 22.0448 13.1104 21.7324C13.125 21.5625 13.125 21.5625 13.21 21.4512C13.3933 21.315 13.5212 21.3026 13.7344 21.375Z" fill="#D62828"/>
</svg>
