<svg width="24" height="24" viewBox="0 0 24 24" fill="none" xmlns="http://www.w3.org/2000/svg">
<g clip-path="url(#clip0_247_2394)">
<path d="M13.292 1.01367C13.3774 1.04937 13.4629 1.08505 13.5483 1.1207C13.7256 1.19468 13.9029 1.26877 14.0801 1.34294C14.4484 1.49698 14.8172 1.64969 15.186 1.80242C15.3858 1.88514 15.5855 1.96797 15.7852 2.05078C15.8652 2.08398 15.9453 2.11719 16.0254 2.15039C18.4277 3.14648 18.4277 3.14648 18.5478 3.19629C18.6279 3.2295 18.708 3.26271 18.7881 3.29592C18.988 3.37878 19.1878 3.46164 19.3876 3.54451C19.8352 3.73012 20.2829 3.91562 20.7306 4.10101C21.0507 4.2336 21.3708 4.36646 21.6908 4.49941C21.9147 4.59242 22.1389 4.68501 22.3632 4.77722C22.5 4.83353 22.6367 4.89011 22.7734 4.94676C22.8365 4.97284 22.8996 4.99879 22.9628 5.02461C23.0488 5.05975 23.1346 5.09535 23.2203 5.13098C23.2682 5.1507 23.3162 5.17042 23.3655 5.19074C23.4785 5.24707 23.5477 5.29175 23.625 5.39062C23.6426 5.50781 23.6426 5.50781 23.625 5.625C23.5309 5.73828 23.44 5.7941 23.3047 5.84921C23.2684 5.86419 23.2321 5.87917 23.1947 5.89461C23.1551 5.91053 23.1156 5.92646 23.0748 5.94287C23.033 5.96002 22.9912 5.97716 22.9481 5.99483C22.8096 6.05157 22.6709 6.10781 22.5322 6.16406C22.4351 6.20377 22.338 6.24351 22.2409 6.28329C22.0384 6.36621 21.8358 6.44896 21.6332 6.5316C21.2023 6.70749 20.7721 6.88517 20.342 7.06297C20.2067 7.11885 20.0715 7.17469 19.9363 7.23053C19.1959 7.53629 18.4569 7.84511 17.7187 8.15625C17.8131 8.25063 17.8695 8.28023 17.9906 8.32975C18.0276 8.34504 18.0646 8.36032 18.1028 8.37606C18.1434 8.39253 18.184 8.409 18.2258 8.42596C18.2683 8.44343 18.3108 8.4609 18.3545 8.4789C18.4951 8.5366 18.6357 8.59398 18.7764 8.65137C18.8744 8.69157 18.9725 8.73181 19.0705 8.77207C19.2718 8.85475 19.4732 8.93733 19.6746 9.01987C20.1447 9.21267 20.6138 9.40777 21.083 9.60284C21.508 9.77952 21.9332 9.9552 22.3597 10.1281C22.4708 10.1733 22.5818 10.2184 22.6928 10.2636C22.7961 10.3056 22.8997 10.3471 23.0032 10.3886C23.0653 10.4139 23.1275 10.4392 23.1896 10.4645C23.2434 10.4862 23.2972 10.5078 23.3526 10.5302C23.5484 10.6247 23.5484 10.6247 23.625 10.7344C23.6389 10.8672 23.6442 10.9896 23.6432 11.1225C23.6436 11.1818 23.6436 11.1818 23.6439 11.2424C23.6446 11.3733 23.6441 11.5043 23.6437 11.6353C23.6438 11.7261 23.6439 11.817 23.6441 11.9079C23.6443 12.0985 23.644 12.2891 23.6433 12.4796C23.6425 12.7241 23.643 12.9686 23.6438 13.2131C23.6443 13.4008 23.6442 13.5885 23.6438 13.7762C23.6437 13.8664 23.6438 13.9565 23.6442 14.0467C23.6445 14.1726 23.644 14.2985 23.6432 14.4244C23.6435 14.4618 23.6438 14.4992 23.6441 14.5378C23.6412 14.7889 23.6412 14.7889 23.5636 14.9022C23.4245 14.9916 23.2736 15.0532 23.1215 15.1165C23.0847 15.1321 23.048 15.1476 23.0101 15.1637C22.889 15.215 22.7678 15.2657 22.6465 15.3164C22.5624 15.3518 22.4784 15.3873 22.3944 15.4227C21.6422 15.7393 20.8864 16.0471 20.1287 16.3503C19.9335 16.4287 19.7399 16.5103 19.5469 16.5938C20.2683 16.9148 20.9967 17.2183 21.7266 17.5195C21.7965 17.5484 21.7965 17.5484 21.868 17.5779C22.0049 17.6344 22.1418 17.6909 22.2788 17.7473C22.3223 17.7653 22.3659 17.7832 22.4107 17.8018C22.6061 17.8821 22.8016 17.9616 22.9986 18.0378C23.0476 18.0569 23.0476 18.0569 23.0976 18.0763C23.1829 18.1093 23.2684 18.1419 23.3539 18.1744C23.4755 18.2303 23.547 18.2673 23.625 18.375C23.6371 18.5349 23.6371 18.5349 23.5781 18.7031C23.4487 18.8025 23.302 18.8535 23.1504 18.9111C23.1034 18.9302 23.0565 18.9494 23.0081 18.9691C22.9004 19.0128 22.7924 19.056 22.6842 19.0987C22.4823 19.1785 22.2816 19.2612 22.0809 19.344C21.8094 19.456 21.5377 19.5676 21.2658 19.6787C20.7877 19.874 20.3106 20.0715 19.834 20.2705C19.6946 20.3287 19.5553 20.3868 19.416 20.445C19.381 20.4596 19.3461 20.4742 19.3101 20.4892C18.8864 20.666 18.4622 20.8418 18.0381 21.0176C17.998 21.0342 17.958 21.0508 17.9167 21.0679C17.7133 21.1522 17.5099 21.2365 17.3065 21.3208C16.9847 21.4541 16.6629 21.5876 16.3411 21.721C16.1817 21.7871 16.0224 21.8531 15.863 21.9192C15.411 22.1065 14.959 22.2942 14.5073 22.4822C14.3016 22.5677 14.0959 22.653 13.8899 22.7378C13.8116 22.77 13.7334 22.8023 13.6551 22.8345C13.5986 22.8578 13.5986 22.8578 13.541 22.8815C13.3396 22.9647 13.1392 23.0496 12.9397 23.1372C12.8572 23.1734 12.7744 23.2089 12.6916 23.2444C12.5962 23.2854 12.5012 23.3273 12.4069 23.3707C12.0077 23.5391 11.7349 23.4088 11.3489 23.2544C11.2684 23.2208 11.188 23.187 11.1077 23.153C11.0637 23.1345 11.0196 23.1161 10.9743 23.0971C10.8307 23.0369 10.6873 22.9765 10.5439 22.916C10.4429 22.8736 10.3419 22.8313 10.2409 22.789C10.0352 22.7028 9.82958 22.6166 9.62397 22.5302C9.23769 22.3682 8.85077 22.2077 8.46373 22.0475C8.34602 21.9988 8.22833 21.95 8.11064 21.9012C7.95416 21.8364 7.79768 21.7715 7.64119 21.7067C7.28268 21.5582 6.92422 21.4095 6.56576 21.2609C6.36545 21.1778 6.16515 21.0948 5.96484 21.0117C5.88476 20.9785 5.80468 20.9453 5.72461 20.9121C5.68497 20.8957 5.64533 20.8792 5.60449 20.8623C5.24414 20.7129 5.24414 20.7129 5.12403 20.6631C5.04392 20.6299 4.9638 20.5967 4.88369 20.5634C4.68404 20.4807 4.48439 20.3979 4.28474 20.3151C3.83361 20.128 3.38243 19.941 2.93112 19.7543C2.72596 19.6694 2.52089 19.5844 2.31601 19.4988C1.8312 19.2965 1.8312 19.2965 1.34331 19.1018C1.25408 19.067 1.16506 19.0316 1.0761 18.9961C0.971639 18.9545 0.866775 18.914 0.761452 18.8747C0.63829 18.8251 0.529713 18.7806 0.421872 18.7031C0.367672 18.5248 0.367672 18.5248 0.374997 18.375C0.617346 18.2144 0.857169 18.0855 1.12719 17.9784C1.1627 17.964 1.19821 17.9495 1.23479 17.9347C1.31093 17.9038 1.38713 17.8731 1.46339 17.8425C1.62512 17.7776 1.78654 17.712 1.94798 17.6464C2.03165 17.6125 2.11534 17.5785 2.19905 17.5446C2.60479 17.3803 3.00924 17.2128 3.41331 17.0444C3.52277 16.9987 3.63229 16.9532 3.7418 16.9077C3.80869 16.8798 3.87556 16.852 3.94244 16.8241C3.97258 16.8116 4.00273 16.7991 4.03378 16.7862C4.17619 16.7266 4.31622 16.6651 4.45312 16.5938C4.21682 16.495 3.98049 16.3964 3.74414 16.2979C3.7076 16.2826 3.67105 16.2674 3.6334 16.2517C3.14935 16.0498 2.66492 15.8488 2.18005 15.6489C2.13123 15.6288 2.08241 15.6087 2.03211 15.5879C1.7905 15.4883 1.54886 15.3888 1.30716 15.2893C1.21812 15.2527 1.12908 15.216 1.04004 15.1793C0.999189 15.1625 0.958342 15.1457 0.916258 15.1284C0.878492 15.1129 0.840726 15.0973 0.801816 15.0812C0.769016 15.0677 0.736217 15.0543 0.702424 15.0404C0.429812 14.9221 0.429812 14.9221 0.374997 14.8125C0.369895 14.6845 0.367622 14.5577 0.367444 14.4297C0.367094 14.3704 0.367094 14.3704 0.366738 14.3098C0.366052 14.1786 0.365734 14.0474 0.365475 13.9162C0.365206 13.8252 0.364936 13.7343 0.364666 13.6433C0.364173 13.4525 0.363899 13.2616 0.363736 13.0708C0.363478 12.8259 0.362351 12.5811 0.361018 12.3362C0.360146 12.1483 0.359901 11.9604 0.359829 11.7725C0.359687 11.6822 0.35931 11.5919 0.358696 11.5016C0.357899 11.3755 0.357983 11.2494 0.358288 11.1232C0.357856 11.0857 0.357424 11.0482 0.356979 11.0096C0.358888 10.7584 0.358888 10.7584 0.434891 10.6451C0.521395 10.5901 0.604005 10.5474 0.699025 10.5087C0.736056 10.4934 0.773087 10.4781 0.81124 10.4624C0.851575 10.4461 0.891911 10.4299 0.933468 10.4132C0.975896 10.3958 1.01832 10.3784 1.06204 10.3605C1.20203 10.3032 1.34223 10.2463 1.48242 10.1895C1.58033 10.1494 1.67822 10.1094 1.7761 10.0693C1.97698 9.98703 2.17792 9.90492 2.3789 9.82292C2.76793 9.66404 3.15612 9.50313 3.5442 9.34194C3.6617 9.29313 3.77923 9.24438 3.89677 9.19564C4.692 8.86579 5.48668 8.53459 6.28125 8.20312C6.11697 8.06321 5.93297 7.98856 5.73486 7.90942C5.68132 7.88764 5.68132 7.88764 5.6267 7.86541C5.5495 7.83404 5.47226 7.80278 5.39497 7.77164C5.22923 7.70484 5.06373 7.63744 4.89822 7.57006C4.81272 7.53526 4.7272 7.50048 4.64167 7.46574C4.23602 7.30085 3.83172 7.1328 3.42773 6.96387C3.29059 6.90653 3.15345 6.84922 3.01629 6.79193C2.9644 6.77025 2.9644 6.77025 2.91145 6.74814C2.62582 6.62896 2.33971 6.51096 2.05352 6.39313C1.92104 6.3385 1.78856 6.28386 1.65608 6.22921C1.5703 6.19388 1.4845 6.15861 1.39866 6.12341C1.27911 6.07439 1.15966 6.02513 1.04022 5.97583C1.00475 5.96136 0.969283 5.94689 0.93274 5.93198C0.504664 5.75467 0.504664 5.75467 0.374997 5.625C0.362729 5.47339 0.362729 5.47339 0.421872 5.29687C0.582404 5.18341 0.763523 5.12079 0.946286 5.05078C1.03488 5.01486 1.12347 4.97893 1.21203 4.94293C1.31206 4.90251 1.41232 4.86271 1.51263 4.82297C1.75402 4.727 1.99399 4.62766 2.23388 4.52801C2.32267 4.49116 2.41145 4.4543 2.50023 4.41744C2.54519 4.39878 2.59014 4.38012 2.63646 4.36089C2.86966 4.26423 3.10311 4.16817 3.33654 4.07208C3.84675 3.86198 4.35656 3.65092 4.86621 3.43945C4.94549 3.40656 5.02478 3.37368 5.10406 3.34079C5.34021 3.24284 5.57636 3.14486 5.8125 3.04687C6.12792 2.91599 6.44334 2.78513 6.75879 2.6543C6.79807 2.638 6.83735 2.62171 6.87782 2.60492C7.61228 2.30033 8.34715 1.99675 9.08212 1.6934C9.53801 1.50521 9.99377 1.3167 10.4493 1.12756C10.4941 1.10895 10.5389 1.09034 10.5851 1.07116C10.7989 0.982394 11.0127 0.893569 11.2265 0.804656C11.3024 0.77313 11.3783 0.741605 11.4542 0.710082C11.5059 0.688544 11.5059 0.688544 11.5586 0.66657C12.1723 0.411866 12.7094 0.768808 13.292 1.01367ZM11.5351 1.22443C11.498 1.23993 11.4608 1.25544 11.4226 1.27142C11.2995 1.3229 11.1766 1.37483 11.0537 1.42676C10.967 1.46311 10.8803 1.49942 10.7935 1.5357C10.6131 1.61118 10.4328 1.68681 10.2526 1.76255C9.88282 1.91775 9.51232 2.0711 9.1418 2.22443C8.94215 2.30708 8.74256 2.38988 8.54296 2.47266C8.46289 2.50586 8.38281 2.53906 8.30273 2.57226C8.26309 2.5887 8.22345 2.60514 8.18261 2.62207C7.0415 3.09521 7.0415 3.09521 5.90039 3.56836C5.86075 3.58479 5.82112 3.60123 5.78028 3.61816C5.70016 3.65138 5.62003 3.6846 5.53991 3.71782C5.34044 3.80053 5.14097 3.88324 4.94151 3.96597C4.57252 4.11901 4.2035 4.27197 3.83436 4.42465C2.57023 4.94692 2.57023 4.94692 1.3125 5.48437C1.43827 5.61015 1.58538 5.65824 1.74774 5.72333C1.80052 5.74483 1.80052 5.74483 1.85436 5.76676C1.93105 5.79798 2.00779 5.82908 2.08456 5.86009C2.25031 5.92706 2.41584 5.99455 2.58139 6.06201C2.66823 6.0974 2.75508 6.13275 2.84193 6.16809C3.29195 6.35123 3.74077 6.53723 4.18945 6.72363C4.26957 6.7569 4.3497 6.79016 4.42982 6.82341C4.5507 6.87359 4.67158 6.92377 4.79245 6.97397C5.07669 7.092 5.36099 7.20989 5.64532 7.3277C6.36561 7.62616 7.0858 7.92486 7.80536 8.22508C8.49794 8.51403 9.19117 8.80139 9.88476 9.08789C9.92912 9.10622 9.97347 9.12454 10.0192 9.14342C10.0841 9.17026 10.0841 9.17026 10.1504 9.19764C10.1933 9.21536 10.2361 9.23309 10.2803 9.25135C10.3655 9.28648 10.4508 9.32142 10.5362 9.35616C10.7594 9.44711 10.9802 9.54133 11.1995 9.6411C11.2453 9.66134 11.2911 9.68158 11.3383 9.70244C11.4254 9.741 11.512 9.78066 11.598 9.82163C11.8697 9.93999 12.0338 9.94777 12.3122 9.84337C12.3665 9.82036 12.3665 9.82036 12.4219 9.79688C12.453 9.78491 12.4842 9.77295 12.5162 9.76062C12.6056 9.72574 12.6935 9.68847 12.7815 9.65039C12.8145 9.63638 12.8474 9.62237 12.8814 9.60793C12.9527 9.57763 13.0239 9.54723 13.095 9.51672C13.2922 9.43225 13.4898 9.34865 13.6873 9.26495C13.7499 9.23839 13.7499 9.23839 13.8138 9.21129C14.2987 9.00584 14.7855 8.80511 15.2725 8.60449C15.3641 8.56672 15.4557 8.52895 15.5473 8.49117C15.6843 8.43467 15.8213 8.37817 15.9584 8.32168C16.4175 8.13238 16.8763 7.94225 17.335 7.75195C17.4141 7.71912 17.4933 7.68629 17.5724 7.65345C17.7299 7.58813 17.8873 7.5228 18.0448 7.45747C18.4039 7.30848 18.7631 7.15958 19.1222 7.01068C19.2413 6.9613 19.3604 6.91192 19.4795 6.86254C19.8524 6.70791 20.2254 6.55328 20.5983 6.39868C20.7731 6.32619 20.948 6.25371 21.1228 6.18122C21.2056 6.14689 21.2884 6.11257 21.3712 6.07824C21.8102 5.89631 22.249 5.71424 22.6875 5.53125C22.5324 5.40175 22.3655 5.32642 22.1801 5.2511C22.1482 5.23788 22.1163 5.22466 22.0834 5.21104C21.9773 5.16713 21.8709 5.12361 21.7646 5.08008C21.6889 5.04881 21.6131 5.01751 21.5373 4.98619C21.3771 4.92002 21.2169 4.854 21.0566 4.78807C20.8206 4.69092 20.5848 4.59317 20.3491 4.49524C19.4584 4.12527 18.5671 3.75686 17.6757 3.38883C16.8014 3.02787 15.9276 2.66578 15.0539 2.30328C14.6712 2.14451 14.2886 1.98579 13.9059 1.82709C13.7481 1.76165 13.5903 1.69619 13.4326 1.63072C13.3592 1.60031 13.2858 1.56994 13.2124 1.53962C13.0295 1.46404 12.8468 1.3878 12.6647 1.31035C12.6283 1.29501 12.5919 1.27968 12.5544 1.26387C12.4856 1.23485 12.4168 1.20557 12.3482 1.17599C12.0285 1.04189 11.8417 1.09377 11.5351 1.22443ZM6.59619 8.61713C6.56294 8.63134 6.52969 8.64555 6.49544 8.6602C6.423 8.69123 6.35066 8.72248 6.27841 8.75394C6.12088 8.8225 5.96288 8.88994 5.8049 8.95743C5.7204 8.99354 5.63592 9.0297 5.55147 9.06591C5.06036 9.27622 4.56632 9.47934 4.07226 9.68262C3.89134 9.75716 3.71043 9.83176 3.52954 9.90637C3.48538 9.92458 3.44122 9.94279 3.39572 9.96155C2.9372 10.1507 2.47927 10.3413 2.02148 10.5322C1.98478 10.5475 1.94808 10.5628 1.91026 10.5786C1.71099 10.6617 1.51173 10.7449 1.3125 10.8281C1.49222 10.9856 1.70377 11.0608 1.92242 11.1493C1.96476 11.1667 2.0071 11.1841 2.05072 11.202C2.19029 11.2593 2.33001 11.3161 2.46972 11.373C2.56776 11.4132 2.66578 11.4534 2.76379 11.4936C2.96452 11.576 3.16529 11.6582 3.36609 11.7404C3.74497 11.8956 4.12313 12.0525 4.50122 12.2096C4.69755 12.2912 4.89394 12.3727 5.09033 12.4541C5.12977 12.4705 5.16921 12.4868 5.20984 12.5037C5.69177 12.7035 6.17402 12.9025 6.65625 13.1016C7.53608 13.4648 8.41551 13.829 9.29469 14.1938C9.5937 14.3178 9.89276 14.4418 10.1918 14.5657C10.3241 14.6205 10.4563 14.6753 10.5886 14.7301C10.6731 14.7651 10.7576 14.8001 10.8421 14.8351C10.9592 14.8836 11.0762 14.9321 11.1932 14.9806C11.2275 14.9948 11.2617 15.0089 11.297 15.0235C11.3293 15.0369 11.3616 15.0503 11.3949 15.0642C11.4258 15.0768 11.4567 15.0894 11.4885 15.1024C11.548 15.1278 11.6069 15.1548 11.665 15.1834C11.8633 15.2793 11.9765 15.296 12.1875 15.2344C12.3335 15.182 12.4762 15.1233 12.6191 15.063C12.6613 15.0455 12.7035 15.0279 12.747 15.0099C12.8858 14.9522 13.0244 14.8941 13.1631 14.8359C13.2605 14.7954 13.3579 14.7548 13.4554 14.7143C13.655 14.6312 13.8546 14.548 14.0541 14.4646C14.3179 14.3545 14.582 14.2448 14.8462 14.1354C14.8857 14.119 14.9252 14.1027 14.9659 14.0858C15.0446 14.0532 15.1233 14.0206 15.202 13.988C15.3992 13.9064 15.5963 13.8246 15.7934 13.7428C16.3112 13.5279 16.8291 13.3132 17.347 13.0985C17.4673 13.0486 17.5876 12.9987 17.7079 12.9489C17.7476 12.9324 17.7873 12.9159 17.8282 12.899C18.0661 12.8004 18.304 12.7017 18.5418 12.603C18.6996 12.5375 18.8575 12.472 19.0153 12.4066C19.094 12.3739 19.1726 12.3413 19.2512 12.3087C19.7322 12.1092 20.2134 11.9101 20.6948 11.7116C20.7438 11.6914 20.7928 11.6712 20.8433 11.6503C21.082 11.5519 21.3208 11.4534 21.5596 11.3551C21.6465 11.3193 21.7334 11.2835 21.8203 11.2476C21.8786 11.2236 21.8786 11.2236 21.9381 11.1992C22.1898 11.0953 22.4392 10.9868 22.6875 10.875C22.5309 10.7432 22.3617 10.6703 22.1732 10.5965C22.1404 10.5834 22.1077 10.5703 22.074 10.5568C22.0027 10.5283 21.9314 10.4999 21.86 10.4716C21.6639 10.3937 21.4682 10.3149 21.2725 10.2361C21.2312 10.2196 21.19 10.203 21.1475 10.1859C20.724 10.0152 20.3027 9.83939 19.8817 9.66261C19.7549 9.60939 19.6281 9.55628 19.5013 9.50318C19.1265 9.34616 18.752 9.18859 18.3782 9.02924C18.2218 8.96264 18.0653 8.89641 17.9087 8.83024C17.8356 8.7992 17.7625 8.76799 17.6895 8.73658C17.5893 8.69344 17.4888 8.65092 17.3882 8.60852C17.3318 8.58443 17.2755 8.56035 17.2173 8.53553C16.9203 8.43739 16.7182 8.49394 16.4399 8.61713C16.4066 8.63136 16.3734 8.64559 16.3391 8.66026C16.2666 8.69131 16.1942 8.72258 16.1219 8.75406C15.9655 8.82213 15.8086 8.88909 15.6518 8.9561C15.5677 8.99201 15.4837 9.02798 15.3997 9.06399C14.9333 9.26371 14.4645 9.45754 13.9955 9.65088C13.8137 9.72581 13.6319 9.80093 13.4502 9.87603C13.3248 9.92771 13.1992 9.97897 13.0736 10.0302C12.9279 10.0898 12.7833 10.1512 12.6394 10.215C12.608 10.2286 12.5766 10.2421 12.5443 10.2561C12.4626 10.2914 12.3813 10.3276 12.3001 10.3639C11.9229 10.464 11.5984 10.3274 11.2529 10.1777C11.2087 10.1591 11.1646 10.1405 11.1191 10.1214C10.975 10.0606 10.8312 9.99904 10.6875 9.9375C10.5875 9.89515 10.4874 9.85285 10.3873 9.81062C10.1822 9.72404 9.97727 9.63722 9.77236 9.55025C9.35345 9.37276 8.93303 9.19892 8.51254 9.02521C8.31505 8.94362 8.11763 8.86187 7.92022 8.78009C7.88702 8.76636 7.85382 8.75263 7.81961 8.73848C7.7727 8.71906 7.7727 8.71906 7.72484 8.69924C7.69495 8.68697 7.66505 8.6747 7.63426 8.66207C7.57589 8.63731 7.51802 8.61132 7.46073 8.58415C7.13323 8.43091 6.91656 8.47527 6.59619 8.61713ZM4.79425 17.0213C4.75689 17.0368 4.71953 17.0524 4.68104 17.0684C4.55715 17.12 4.43336 17.1718 4.30957 17.2236C4.22382 17.2594 4.13807 17.2951 4.05232 17.3308C3.87235 17.4058 3.69242 17.4808 3.51251 17.5559C3.1026 17.7269 2.69224 17.8968 2.28192 18.0668C2.07637 18.152 1.87086 18.2372 1.66534 18.3224C1.59637 18.351 1.52739 18.3796 1.45842 18.4082C1.41027 18.4282 1.36211 18.4482 1.3125 18.4688C1.47974 18.6117 1.66957 18.6877 1.87115 18.7694C1.90829 18.7847 1.94543 18.8 1.98369 18.8158C2.10654 18.8664 2.22954 18.9166 2.35254 18.9668C2.43928 19.0024 2.52601 19.0381 2.61273 19.0738C2.793 19.148 2.97333 19.2221 3.15369 19.2961C3.52436 19.4482 3.8944 19.6019 4.26444 19.7555C4.46402 19.8384 4.66365 19.9212 4.86328 20.0039C4.94336 20.0371 5.02343 20.0703 5.10351 20.1035C5.14315 20.12 5.18279 20.1364 5.22363 20.1533C5.98437 20.4688 6.74511 20.7842 7.50586 21.0996C7.54549 21.116 7.58512 21.1325 7.62596 21.1494C7.70609 21.1826 7.78623 21.2159 7.86636 21.2491C8.06568 21.3317 8.265 21.4144 8.46432 21.497C8.8351 21.6507 9.20587 21.8045 9.57662 21.9583C9.74919 22.0299 9.92177 22.1014 10.0943 22.173C10.1755 22.2067 10.2567 22.2404 10.3379 22.2741C10.3762 22.2899 10.4144 22.3058 10.4538 22.3221C10.4913 22.3377 10.5287 22.3532 10.5674 22.3693C10.6408 22.3997 10.7143 22.43 10.7878 22.4603C10.9701 22.5353 11.1516 22.6119 11.332 22.6913C11.368 22.7068 11.404 22.7224 11.441 22.7384C11.5088 22.7677 11.5763 22.7976 11.6435 22.8281C11.9174 22.9455 12.0732 22.9156 12.3466 22.8185C12.4057 22.7947 12.4647 22.7706 12.5235 22.7463C12.5724 22.7264 12.5724 22.7264 12.6222 22.7062C12.7304 22.6622 12.8383 22.6177 12.9463 22.5732C13.0234 22.5417 13.1006 22.5102 13.1778 22.4786C13.9306 22.1706 14.6805 21.8556 15.4305 21.5407C15.9163 21.3367 16.4028 21.1343 16.8896 20.9326C16.9287 20.9164 16.9678 20.9002 17.0081 20.8835C17.6055 20.636 18.2032 20.3892 18.8009 20.1424C19.161 19.9936 19.5212 19.8449 19.8813 19.6961C19.9712 19.659 20.061 19.6219 20.1508 19.5848C20.4142 19.476 20.6775 19.3672 20.9408 19.2582C21.0215 19.2248 21.1023 19.1914 21.183 19.1581C21.6872 18.9499 22.1886 18.7363 22.6875 18.5156C22.5921 18.4202 22.5332 18.3902 22.4105 18.3399C22.3724 18.3242 22.3343 18.3084 22.2951 18.2922C22.2535 18.2753 22.2118 18.2584 22.1689 18.241C22.1255 18.2231 22.082 18.2052 22.0373 18.1868C21.8947 18.1282 21.7521 18.0699 21.6094 18.0117C21.4124 17.9313 21.2154 17.8509 21.0185 17.7704C20.9692 17.7503 20.9199 17.7301 20.8691 17.7094C20.5625 17.5838 20.258 17.4543 19.9546 17.3214C19.8475 17.275 19.7402 17.2288 19.6329 17.1826C19.5663 17.1535 19.4999 17.124 19.4337 17.094C19.3422 17.0526 19.2501 17.0129 19.1578 16.9735C19.1069 16.951 19.0561 16.9284 19.0037 16.9051C18.7785 16.8627 18.6293 16.9292 18.4219 17.0156C18.3901 17.0281 18.3583 17.0406 18.3256 17.0534C18.2286 17.0919 18.1323 17.1319 18.0361 17.1724C17.9999 17.1874 17.9637 17.2025 17.9264 17.218C17.8074 17.2676 17.6883 17.3174 17.5693 17.3672C17.4407 17.4208 17.312 17.4744 17.1833 17.528C17.0935 17.5654 17.0037 17.6028 16.9138 17.6402C16.4575 17.8304 16.0005 18.019 15.5435 18.2075C14.7279 18.5439 13.9128 18.8816 13.0987 19.2216C13.0369 19.2473 12.9752 19.273 12.9134 19.2986C12.7729 19.3567 12.6336 19.4165 12.4952 19.4792C12.446 19.5012 12.3968 19.5231 12.3461 19.5458C12.3038 19.5653 12.2616 19.5848 12.2181 19.6049C11.9393 19.6851 11.6864 19.5509 11.4322 19.4429C11.3952 19.4274 11.3582 19.412 11.32 19.3961C11.1979 19.3451 11.076 19.2936 10.9541 19.2422C10.8678 19.2061 10.7815 19.17 10.6952 19.1339C10.5158 19.0589 10.3365 18.9838 10.1573 18.9086C9.78794 18.7537 9.41789 18.6005 9.04784 18.4474C8.84973 18.3653 8.65167 18.2832 8.45361 18.201C8.37372 18.1679 8.29382 18.1348 8.21392 18.1017C8.00248 18.014 7.79105 17.9263 7.57962 17.8386C7.40705 17.767 7.23448 17.6954 7.06191 17.6239C6.9807 17.5902 6.8995 17.5565 6.81831 17.5228C6.63273 17.4458 6.44713 17.3689 6.26147 17.2921C6.11338 17.2308 5.96546 17.1691 5.81762 17.1072C5.74463 17.0768 5.67163 17.0464 5.59863 17.016C5.56483 17.0018 5.53104 16.9875 5.49622 16.9729C5.20041 16.85 5.08106 16.9008 4.79425 17.0213Z" fill="#D62828"/>
<path d="M9.70312 2.4375C9.85073 2.5439 9.96208 2.67311 10.0781 2.8125C10.1108 2.85148 10.1435 2.89045 10.1772 2.93061C10.2476 3.01608 10.3175 3.10204 10.3868 3.18842C10.486 3.31085 10.5871 3.43104 10.6896 3.55065C10.89 3.78482 11.0875 4.02136 11.2793 4.2627C11.3176 4.3105 11.3559 4.35829 11.3954 4.40754C11.4904 4.55639 11.5219 4.65281 11.5312 4.82813C11.4626 5.04142 11.4019 5.18509 11.2031 5.29688C11.0555 5.34609 10.9506 5.3485 10.7959 5.34668C10.7493 5.34626 10.7027 5.34584 10.6547 5.3454C10.6013 5.34459 10.6013 5.34459 10.5469 5.34375C10.5483 5.42175 10.5483 5.42175 10.5499 5.50132C10.5533 5.6956 10.5554 5.88988 10.5572 6.08419C10.5581 6.16802 10.5594 6.25186 10.561 6.33568C10.5633 6.45671 10.5644 6.57769 10.5652 6.69873C10.5662 6.73576 10.5671 6.77279 10.5681 6.81094C10.5682 7.07725 10.5075 7.27721 10.3594 7.5C10.0657 7.77903 9.82376 7.79945 9.43359 7.80176C9.3884 7.8033 9.3432 7.80484 9.29663 7.80643C8.98611 7.80875 8.76647 7.75754 8.53125 7.54688C8.31195 7.26225 8.28996 6.99103 8.2923 6.6438C8.29236 6.60661 8.29243 6.56942 8.2925 6.5311C8.29276 6.41266 8.29335 6.29423 8.29395 6.17579C8.29418 6.09534 8.29439 6.0149 8.29459 5.93445C8.2951 5.73755 8.29591 5.54065 8.29688 5.34375C8.26156 5.3444 8.22624 5.34505 8.18985 5.34571C8.14347 5.34621 8.0971 5.34672 8.04932 5.34723C8.00336 5.34788 7.95741 5.34852 7.91006 5.34919C7.74064 5.34204 7.63707 5.3025 7.5 5.20313C7.36309 5.04341 7.34255 4.90367 7.33612 4.69501C7.39846 4.42355 7.63361 4.20419 7.81348 3.99903C7.86394 3.94084 7.91435 3.88261 7.96472 3.82434C8.00172 3.78154 8.00172 3.78154 8.03947 3.73787C8.13593 3.62525 8.22975 3.5106 8.32324 3.39551C8.39256 3.31054 8.4619 3.22558 8.53125 3.14063C8.55248 3.11453 8.57371 3.08844 8.59559 3.06155C8.66362 2.97823 8.73215 2.89534 8.80078 2.8125C8.82178 2.78661 8.84278 2.76071 8.86442 2.73403C9.10938 2.4403 9.33046 2.3066 9.70312 2.4375Z" fill="#D62828"/>
<path d="M14.8594 2.4375C14.9918 2.52831 15.0868 2.64133 15.1875 2.76563C15.2157 2.80013 15.2439 2.83463 15.273 2.87018C15.3351 2.94743 15.3968 3.0251 15.458 3.10309C15.5749 3.24998 15.6956 3.3932 15.8174 3.53614C15.9834 3.73161 16.149 3.92743 16.3125 4.125C16.3454 4.16464 16.3782 4.20428 16.4121 4.24512C16.5734 4.45473 16.6685 4.60155 16.6571 4.87519C16.6291 5.03423 16.5583 5.13057 16.4531 5.25C16.2792 5.33814 16.1398 5.35428 15.9463 5.34961C15.9006 5.34877 15.8548 5.34792 15.8077 5.34705C15.7559 5.34542 15.7559 5.34542 15.7031 5.34375C15.7046 5.41675 15.7046 5.41675 15.7061 5.49122C15.7095 5.6738 15.7117 5.85638 15.7134 6.03898C15.7144 6.11763 15.7156 6.19628 15.7173 6.27491C15.736 7.19816 15.736 7.19816 15.5156 7.5C15.3177 7.70041 15.1205 7.79401 14.8402 7.81696C14.7518 7.81727 14.6635 7.81609 14.5752 7.81348C14.5311 7.81418 14.4869 7.81487 14.4414 7.81559C14.1358 7.81197 13.9216 7.74762 13.6875 7.54688C13.4726 7.2714 13.4464 7.06146 13.4486 6.72162C13.4486 6.68228 13.4487 6.64295 13.4488 6.60242C13.449 6.47681 13.4496 6.3512 13.4502 6.22559C13.4504 6.14042 13.4507 6.05524 13.4508 5.97007C13.4514 5.76129 13.4522 5.55252 13.4531 5.34375C13.4178 5.34443 13.3825 5.34511 13.3461 5.34581C13.2997 5.34634 13.2534 5.34687 13.2056 5.34742C13.1366 5.34844 13.1366 5.34844 13.0663 5.34948C12.8985 5.34202 12.7934 5.29914 12.6563 5.20313C12.508 5.03313 12.4713 4.90893 12.4788 4.68549C12.5622 4.37147 12.8205 4.12928 13.0313 3.89063C13.083 3.83064 13.1347 3.77058 13.1863 3.71045C13.289 3.59123 13.3923 3.4726 13.496 3.35431C13.6588 3.16788 13.8144 2.97634 13.9688 2.78284C14.2404 2.46128 14.4391 2.31429 14.8594 2.4375ZM14.5313 2.90625C14.4397 3.00399 14.3532 3.10238 14.2676 3.20508C14.2295 3.25017 14.2295 3.25017 14.1906 3.29617C14.0207 3.49804 13.8546 3.70276 13.6915 3.91022C13.6151 4.00478 13.5375 4.09711 13.4579 4.18891C13.4343 4.21619 13.4108 4.24346 13.3865 4.27157C13.3401 4.32507 13.2934 4.37834 13.2465 4.43135C13.1331 4.56239 13.0649 4.65867 13.0313 4.82813C13.0877 4.83043 13.1441 4.83272 13.2023 4.83509C13.2761 4.8386 13.35 4.84214 13.4238 4.84571C13.4611 4.84716 13.4983 4.84861 13.5366 4.8501C13.8175 4.86438 13.8175 4.86438 13.9219 4.96875C13.9337 5.05675 13.9337 5.05675 13.9339 5.16501C13.9342 5.20554 13.9345 5.24607 13.9348 5.28782C13.9348 5.33172 13.9347 5.37562 13.9347 5.42084C13.9357 5.51346 13.9366 5.60608 13.9376 5.6987C13.9387 5.84498 13.9395 5.99125 13.9397 6.13753C13.9402 6.27853 13.9418 6.41949 13.9435 6.56049C13.9433 6.6041 13.943 6.64771 13.9428 6.69264C13.9458 6.89034 13.9515 7.00259 14.0553 7.17493C14.2178 7.32088 14.3616 7.32107 14.5723 7.32422C14.6205 7.32543 14.6687 7.32664 14.7184 7.32789C14.88 7.31026 14.9642 7.26849 15.0938 7.17188C15.1921 7.02432 15.1997 6.98624 15.2025 6.81735C15.2034 6.77419 15.2043 6.73103 15.2053 6.68657C15.2058 6.64013 15.2064 6.59369 15.2069 6.54584C15.2078 6.49818 15.2087 6.45052 15.2097 6.40141C15.2125 6.24906 15.2146 6.0967 15.2168 5.94434C15.2186 5.8411 15.2204 5.73786 15.2223 5.63462C15.2268 5.38142 15.2307 5.12822 15.2344 4.875C15.5283 4.85954 15.8222 4.84407 16.125 4.82813C16.0405 4.61684 15.9903 4.53462 15.8408 4.37696C15.6522 4.17331 15.4751 3.96359 15.3007 3.74781C15.1491 3.56244 14.9939 3.38035 14.8379 3.19871C14.6769 3.01007 14.6769 3.01007 14.625 2.90625C14.5941 2.90625 14.5631 2.90625 14.5313 2.90625Z" fill="#D62828"/>
</g>
<defs>
<clipPath id="clip0_247_2394">
<rect width="24" height="24" fill="white"/>
</clipPath>
</defs>
</svg>
