<svg width="24" height="24" viewBox="0 0 24 24" fill="none" xmlns="http://www.w3.org/2000/svg">
<g clip-path="url(#clip0_249_3655)">
<path d="M2.71692 6.77783C2.74846 6.79958 2.78001 6.82134 2.8125 6.84375C2.86278 6.87759 2.91305 6.91143 2.96485 6.94629C3.46101 7.45373 3.59534 8.13738 3.70313 8.8125C3.71255 8.87123 3.71255 8.87123 3.72217 8.93115C3.73578 9.03245 3.74407 9.13233 3.75 9.23437C3.75357 9.28815 3.75713 9.34193 3.76081 9.39734C3.77795 9.8449 3.77795 9.8449 3.65332 10.0488C3.48127 10.144 3.38148 10.1532 3.1875 10.125C3.03821 10.0425 3.00783 10.0079 2.95313 9.84375C2.94201 9.75873 2.93267 9.67348 2.92438 9.58813C2.86101 8.48232 2.86101 8.48232 2.34375 7.54687C2.19247 7.44602 2.14664 7.44035 1.97168 7.44141C1.93162 7.44116 1.89156 7.44092 1.85028 7.44067C1.72791 7.45382 1.65435 7.48961 1.54688 7.54687C1.41255 9.67561 1.45343 11.3182 2.48713 13.2362C2.67819 13.5944 2.83056 13.9676 2.98332 14.3433C3.34907 15.2428 3.78188 15.8095 4.56025 16.3924C4.69305 16.4927 4.82351 16.596 4.9541 16.6992C5.17444 16.873 5.39566 17.0455 5.61746 17.2174C6.54834 17.939 6.54834 17.939 6.75 18.1406C6.75916 18.2831 6.75916 18.2831 6.75586 18.4512C6.75502 18.5069 6.75417 18.5626 6.7533 18.62C6.75221 18.6629 6.75112 18.7058 6.75 18.75C6.80292 18.7495 6.85584 18.749 6.91037 18.7484C7.40903 18.7437 7.90768 18.7402 8.40636 18.7379C8.66274 18.7366 8.91911 18.735 9.17548 18.7323C9.42288 18.7298 9.67026 18.7284 9.91768 18.7278C10.0121 18.7273 10.1065 18.7265 10.2009 18.7252C10.3331 18.7235 10.4652 18.7233 10.5974 18.7234C10.6365 18.7225 10.6755 18.7217 10.7158 18.7208C10.9058 18.7225 10.9951 18.7364 11.1571 18.844C11.2766 19.0245 11.2827 19.1728 11.2796 19.3824C11.2801 19.4416 11.2801 19.4416 11.2806 19.5021C11.2814 19.6323 11.2805 19.7625 11.2795 19.8928C11.2795 19.9834 11.2796 20.0741 11.2798 20.1647C11.28 20.3545 11.2793 20.5443 11.278 20.7341C11.2764 20.9775 11.2767 21.2207 11.2775 21.4641C11.278 21.6512 11.2776 21.8383 11.2769 22.0254C11.2767 22.1151 11.2767 22.2049 11.277 22.2946C11.2772 22.4199 11.2763 22.5452 11.275 22.6706C11.2753 22.7077 11.2756 22.7448 11.2759 22.783C11.273 22.9506 11.264 23.0442 11.1605 23.1792C11.0543 23.2559 11.0046 23.2755 10.875 23.2734C10.8286 23.2742 10.8286 23.2742 10.7813 23.2749C10.6875 23.25 10.6875 23.25 10.5 23.0625C10.5 22.3819 10.5 21.7013 10.5 21C8.52 21 6.54 21 4.5 21C4.5 21.6806 4.5 22.3612 4.5 23.0625C4.3125 23.25 4.3125 23.25 4.21875 23.2749C4.18782 23.2744 4.15688 23.2739 4.125 23.2734C4.0786 23.2742 4.0786 23.2742 4.03125 23.2749C3.89458 23.2386 3.83939 23.1706 3.75 23.0625C3.72619 22.9437 3.72619 22.9437 3.72574 22.8083C3.72515 22.7574 3.72456 22.7066 3.72395 22.6542C3.72433 22.5995 3.72471 22.5448 3.7251 22.4885C3.72492 22.4321 3.72474 22.3757 3.72456 22.3175C3.72443 22.1983 3.72478 22.079 3.72556 21.9597C3.72656 21.7772 3.72557 21.5948 3.72437 21.4123C3.72449 21.2964 3.72473 21.1805 3.7251 21.0646C3.72472 21.01 3.72434 20.9554 3.72395 20.8992C3.72646 20.6825 3.72847 20.527 3.827 20.3318C3.97057 20.2255 4.05362 20.2257 4.23047 20.2354C4.30625 20.2385 4.30625 20.2385 4.38355 20.2418C4.42198 20.2445 4.46041 20.2472 4.5 20.25C4.49853 20.1943 4.49853 20.1943 4.49703 20.1375C4.49312 19.969 4.49069 19.8004 4.48828 19.6318C4.48671 19.5734 4.48514 19.515 4.48352 19.4549C4.48262 19.3703 4.48262 19.3703 4.48169 19.2841C4.48022 19.2064 4.48022 19.2064 4.47872 19.1272C4.50566 18.9465 4.55153 18.8716 4.6875 18.75C4.82927 18.7234 4.82927 18.7234 4.99292 18.7271C5.05154 18.7279 5.11015 18.7286 5.17054 18.7294C5.23156 18.7314 5.29259 18.7333 5.35547 18.7354C5.41723 18.7364 5.47898 18.7375 5.54261 18.7386C5.69513 18.7413 5.84754 18.7452 6 18.75C5.91965 18.5224 5.80387 18.416 5.61328 18.2754C5.55346 18.2299 5.49365 18.1843 5.43384 18.1388C5.40324 18.1158 5.37263 18.0927 5.3411 18.069C5.19982 17.962 5.06093 17.852 4.92188 17.7422C4.8672 17.6992 4.81252 17.6562 4.75782 17.6133C4.64844 17.5273 4.53907 17.4414 4.42969 17.3555C4.40261 17.3342 4.37552 17.3129 4.34761 17.291C4.29303 17.2481 4.2385 17.2051 4.18401 17.1621C4.04599 17.0532 3.90728 16.9456 3.76685 16.8398C2.86764 16.1583 2.46116 15.3515 2.04147 14.3273C1.87394 13.9213 1.70673 13.5228 1.49029 13.14C0.749227 11.8276 0.667097 10.6359 0.682621 9.1582C0.683081 9.11223 0.683541 9.06626 0.684015 9.01889C0.687558 8.71013 0.694211 8.40154 0.703312 8.0929C0.704405 8.05231 0.705498 8.01172 0.706624 7.9699C0.71 7.85566 0.714376 7.74151 0.719162 7.62733C0.720127 7.59393 0.721091 7.56053 0.722085 7.52613C0.734272 7.2821 0.799885 7.13095 0.962955 6.95178C1.44317 6.5343 2.15987 6.44249 2.71692 6.77783ZM5.25 19.5C5.25 19.7475 5.25 19.995 5.25 20.25C6.9825 20.25 8.715 20.25 10.5 20.25C10.5 20.0025 10.5 19.755 10.5 19.5C8.7675 19.5 7.035 19.5 5.25 19.5Z" fill="#D62828"/>
<path d="M22.6406 6.68262C22.8858 6.81463 23.1599 6.99537 23.25 7.26562C23.2597 7.38117 23.2671 7.49572 23.2724 7.61148C23.2741 7.6468 23.2758 7.68213 23.2776 7.71852C23.3771 9.87947 23.3746 11.6255 22.3134 13.5607C22.1715 13.8226 22.0527 14.0908 21.9393 14.3661C21.9217 14.4087 21.904 14.4514 21.8859 14.4953C21.8355 14.6176 21.7854 14.7399 21.7353 14.8623C21.3276 15.8584 20.7306 16.4866 19.8698 17.1359C19.6995 17.2652 19.531 17.3969 19.3623 17.5283C19.3266 17.5561 19.2908 17.5839 19.254 17.6126C18.929 17.8657 18.6046 18.1196 18.2812 18.375C18.2376 18.4068 18.1939 18.4386 18.1489 18.4713C18.038 18.5704 18.0272 18.6098 18 18.75C18.0582 18.7482 18.0582 18.7482 18.1175 18.7463C18.2932 18.7414 18.4688 18.7384 18.6445 18.7354C18.7056 18.7334 18.7666 18.7314 18.8295 18.7294C18.8881 18.7286 18.9467 18.7279 19.0071 18.7271C19.0611 18.7259 19.1151 18.7247 19.1707 18.7234C19.3125 18.75 19.3125 18.75 19.4242 18.8499C19.5138 19.0088 19.5217 19.1026 19.5183 19.2841C19.5177 19.3405 19.5171 19.3968 19.5165 19.4549C19.5141 19.5425 19.5141 19.5425 19.5117 19.6318C19.5109 19.6911 19.51 19.7505 19.5091 19.8116C19.5069 19.9577 19.5039 20.1039 19.5 20.25C19.5384 20.2473 19.5769 20.2446 19.6164 20.2418C19.667 20.2396 19.7175 20.2375 19.7695 20.2354C19.8196 20.2326 19.8696 20.2299 19.9211 20.2271C20.0625 20.25 20.0625 20.25 20.173 20.3318C20.2933 20.5701 20.2767 20.8014 20.2749 21.0646C20.2751 21.1211 20.2753 21.1775 20.2754 21.2357C20.2756 21.3549 20.2752 21.4741 20.2744 21.5933C20.2734 21.7759 20.2744 21.9584 20.2756 22.141C20.2755 22.2568 20.2753 22.3727 20.2749 22.4885C20.2753 22.5432 20.2757 22.5978 20.276 22.6542C20.2752 22.7305 20.2752 22.7305 20.2743 22.8083C20.2741 22.8529 20.274 22.8976 20.2738 22.9437C20.2431 23.0968 20.1823 23.153 20.0625 23.25C19.9687 23.2749 19.9687 23.2749 19.875 23.2734C19.8286 23.2742 19.8286 23.2742 19.7812 23.2749C19.6875 23.25 19.6875 23.25 19.5 23.0625C19.5 22.3819 19.5 21.7013 19.5 21C17.52 21 15.54 21 13.5 21C13.5 21.6806 13.5 22.3612 13.5 23.0625C13.3125 23.25 13.3125 23.25 13.2187 23.2749C13.1723 23.2742 13.1723 23.2742 13.125 23.2734C13.0941 23.2739 13.0631 23.2744 13.0312 23.2749C12.8894 23.2372 12.8393 23.1791 12.75 23.0625C12.7315 22.9259 12.7243 22.8071 12.7257 22.6706C12.7254 22.6311 12.7251 22.5917 12.7247 22.5511C12.7239 22.4208 12.7245 22.2906 12.7251 22.1603C12.725 22.0697 12.7248 21.9791 12.7245 21.8885C12.7243 21.6986 12.7247 21.5088 12.7255 21.3189C12.7266 21.0756 12.726 20.8324 12.7249 20.5891C12.7242 20.402 12.7244 20.2149 12.7249 20.0277C12.725 19.9381 12.7249 19.8484 12.7244 19.7587C12.724 19.6332 12.7247 19.5078 12.7257 19.3824C12.7254 19.3454 12.725 19.3084 12.7246 19.2703C12.7271 19.1073 12.7469 18.9907 12.8192 18.844C12.9933 18.7057 13.1381 18.7188 13.3547 18.7234C13.4178 18.7233 13.4178 18.7233 13.4822 18.7233C13.6212 18.7235 13.7602 18.7253 13.8992 18.7271C13.9956 18.7275 14.092 18.7279 14.1884 18.7281C14.4421 18.729 14.6958 18.7313 14.9495 18.7339C15.2084 18.7363 15.4673 18.7374 15.7262 18.7386C16.2341 18.7411 16.7421 18.7451 17.25 18.75C17.2477 18.7086 17.2454 18.6671 17.2431 18.6244C17.2413 18.5698 17.2396 18.5153 17.2377 18.459C17.2343 18.378 17.2343 18.378 17.2308 18.2954C17.2541 18.1072 17.3082 18.0469 17.4463 17.9209C17.5358 17.8518 17.6267 17.7845 17.7187 17.7187C17.7913 17.6623 17.8639 17.6058 17.9363 17.549C18.0132 17.4891 18.0908 17.43 18.1686 17.3712C18.3551 17.23 18.5387 17.0852 18.7223 16.9402C18.8798 16.8161 19.0379 16.6929 19.197 16.5707C19.9176 16.0162 20.5199 15.5356 20.8828 14.6777C20.9063 14.6235 20.9299 14.5692 20.9541 14.5133C21.0189 14.3639 21.0828 14.2142 21.1466 14.0645C21.2175 13.8985 21.289 13.7329 21.3603 13.5672C21.447 13.3658 21.5336 13.1643 21.6197 12.9627C21.6331 12.9314 21.6465 12.9001 21.6604 12.8679C21.6884 12.8019 21.716 12.7357 21.7432 12.6694C21.8316 12.4564 21.9292 12.2524 22.0366 12.0483C22.4992 11.1331 22.5246 10.3274 22.4917 9.31752C22.4859 9.11699 22.4834 8.91641 22.4806 8.71582C22.4746 8.32606 22.4651 7.9365 22.4531 7.54687C22.2325 7.43054 22.0438 7.41601 21.7969 7.45312C21.4296 7.67079 21.3249 8.038 21.2202 8.42974C21.15 8.74814 21.1307 9.07417 21.1024 9.39844C21.0971 9.45246 21.0918 9.50648 21.0864 9.56213C21.0822 9.61065 21.0779 9.65916 21.0735 9.70914C21.0439 9.85893 20.995 9.95462 20.9062 10.0781C20.7591 10.1517 20.6466 10.1415 20.4844 10.125C20.3467 10.0488 20.3467 10.0488 20.25 9.89062C20.1242 9.05914 20.3475 7.91697 20.8125 7.21875C20.8315 7.18944 20.8506 7.16014 20.8702 7.12994C21.2692 6.59277 22.031 6.44149 22.6406 6.68262ZM13.5 19.5C13.5 19.7475 13.5 19.995 13.5 20.25C15.2325 20.25 16.965 20.25 18.75 20.25C18.75 20.0025 18.75 19.755 18.75 19.5C17.0175 19.5 15.285 19.5 13.5 19.5Z" fill="#D62828"/>
<path d="M13.3125 3C13.4297 3.06445 13.4297 3.06445 13.5 3.1875C13.5594 3.61085 13.4351 4.04816 13.3511 4.46118C13.3357 4.53865 13.3203 4.61613 13.3049 4.69361C13.2726 4.8552 13.2401 5.01672 13.2073 5.1782C13.1654 5.38466 13.1243 5.59126 13.0835 5.79792C13.0518 5.95763 13.0197 6.11726 12.9875 6.27687C12.9722 6.35302 12.957 6.42919 12.942 6.50539C12.9208 6.61189 12.8992 6.71829 12.8774 6.82466C12.8652 6.88508 12.853 6.94549 12.8405 7.00774C12.7968 7.17203 12.7419 7.3065 12.6563 7.45312C12.5056 7.52844 12.3509 7.52163 12.1875 7.5C12.0703 7.43555 12.0703 7.43555 12 7.3125C11.9554 6.93823 12.042 6.5697 12.1172 6.20508C12.1284 6.14906 12.1396 6.09305 12.1511 6.03534C12.1784 5.89847 12.2062 5.7617 12.2344 5.625C11.8079 6.29246 11.3856 6.96241 10.9665 7.63458C10.8698 7.78953 10.7729 7.94434 10.676 8.09912C10.6436 8.15085 10.6112 8.20258 10.5778 8.25588C10.5153 8.35568 10.4528 8.45545 10.3902 8.55521C10.3623 8.59987 10.3343 8.64454 10.3055 8.69055C10.2808 8.73003 10.2561 8.76951 10.2306 8.81019C10.1712 8.90437 10.1712 8.90437 10.125 9C10.2002 8.99853 10.2002 8.99853 10.2769 8.99702C10.4632 8.99363 10.6494 8.99148 10.8357 8.9897C10.9163 8.98876 10.9968 8.98748 11.0774 8.98585C11.1933 8.98358 11.3091 8.98252 11.4251 8.98169C11.479 8.98024 11.479 8.98024 11.534 8.97876C11.6971 8.97869 11.7942 8.98712 11.9293 9.0821C12.1263 9.37578 11.9781 9.82433 11.9167 10.1473C11.9055 10.2038 11.8943 10.2602 11.8828 10.3184C11.8716 10.3766 11.8605 10.4349 11.8489 10.4949C11.8216 10.6373 11.7938 10.7796 11.7656 10.9219C11.7792 10.8989 11.7928 10.8759 11.8069 10.8522C12.1065 10.3466 12.4132 9.8464 12.7301 9.35145C12.9342 9.03251 13.1357 8.71201 13.3359 8.39062C13.453 8.20307 13.5702 8.01558 13.6875 7.82812C13.7183 7.77889 13.7491 7.72965 13.7808 7.67892C13.8715 7.53415 13.9626 7.3896 14.0537 7.24512C14.0815 7.20067 14.1093 7.15623 14.1379 7.11044C14.1636 7.06987 14.1893 7.02929 14.2158 6.98749C14.2496 6.93379 14.2496 6.93379 14.284 6.87901C14.3438 6.79687 14.3438 6.79687 14.4375 6.75C14.7681 6.72334 14.7681 6.72334 14.9297 6.82031C15.0279 6.98395 15.0299 7.12856 15 7.3125C14.9361 7.46572 14.8497 7.60106 14.7598 7.74023C14.7345 7.78073 14.7093 7.82123 14.6833 7.86296C14.6022 7.99254 14.52 8.1213 14.4375 8.25C14.3846 8.33359 14.3316 8.41721 14.2788 8.50085C14.1701 8.67228 14.061 8.84337 13.9515 9.01428C13.7767 9.28768 13.6044 9.56259 13.4326 9.83789C13.4035 9.88464 13.3743 9.9314 13.3442 9.97957C13.2851 10.0744 13.2259 10.1693 13.1668 10.2641C12.9911 10.5458 12.8151 10.8272 12.6391 11.1086C12.4901 11.347 12.3412 11.5854 12.1926 11.824C11.9223 12.2579 11.6516 12.6915 11.376 13.1221C11.3549 13.1554 11.3338 13.1887 11.312 13.2229C11.1672 13.4477 11.1672 13.4477 11.0625 13.5C10.7266 13.5271 10.7266 13.5271 10.5732 13.4209C10.4597 13.2529 10.4471 13.1262 10.4724 12.9254C10.4842 12.8676 10.4959 12.8098 10.5081 12.7503C10.5144 12.7183 10.5208 12.6862 10.5274 12.6532C10.5486 12.5479 10.5703 12.4427 10.5921 12.3375C10.6069 12.2642 10.6217 12.191 10.6365 12.1178C10.6753 11.9254 10.7146 11.7332 10.7541 11.541C10.7944 11.3446 10.8341 11.1482 10.8738 10.9518C10.9518 10.5667 11.0304 10.1818 11.1094 9.79688C11.0521 9.79644 10.9949 9.796 10.9359 9.79555C10.7235 9.79368 10.511 9.7906 10.2986 9.78715C10.2066 9.78582 10.1147 9.78483 10.0228 9.78417C9.89056 9.78317 9.75842 9.78098 9.62623 9.77856C9.56462 9.77848 9.56462 9.77848 9.50177 9.77839C9.21792 9.77157 9.21792 9.77157 9.06801 9.66525C8.98556 9.54067 8.97056 9.43939 8.97872 9.29082C9.02012 9.08989 9.13014 8.93011 9.24024 8.75977C9.26548 8.71927 9.29072 8.67877 9.31672 8.63704C9.39779 8.50746 9.48006 8.3787 9.56251 8.25C9.61546 8.16641 9.66838 8.08279 9.72126 7.99915C9.82989 7.82772 9.93903 7.65663 10.0485 7.48572C10.2233 7.21232 10.3956 6.93741 10.5674 6.66211C10.5966 6.61536 10.6257 6.5686 10.6558 6.52043C10.715 6.42559 10.7741 6.33074 10.8332 6.23589C11.0089 5.95423 11.1849 5.67281 11.3609 5.39137C11.5099 5.15302 11.6588 4.91458 11.8074 4.67596C12.0777 4.24209 12.3484 3.80845 12.624 3.37793C12.6451 3.34464 12.6662 3.31135 12.688 3.27705C12.8624 3.00649 12.9906 2.95738 13.3125 3Z" fill="#D62828"/>
<path d="M20.6719 11.0625C20.7124 11.0911 20.753 11.1198 20.7947 11.1493C21.0807 11.3733 21.0807 11.3733 21.1122 11.5282C21.1242 11.7432 21.1066 11.8733 20.9645 12.0397C20.9044 12.1011 20.8432 12.1613 20.7811 12.2206C20.7479 12.254 20.7147 12.2874 20.6804 12.3217C20.5708 12.4313 20.4597 12.5394 20.3485 12.6475C20.2719 12.7234 20.1954 12.7994 20.119 12.8755C19.9179 13.0752 19.7156 13.2737 19.513 13.4719C19.3067 13.6742 19.1017 13.8779 18.8965 14.0814C18.5972 14.3777 18.2976 14.6738 17.9966 14.9685C17.965 14.9997 17.9333 15.0308 17.9007 15.0629C17.8718 15.0912 17.8429 15.1194 17.8131 15.1485C17.7879 15.1732 17.7628 15.1978 17.7369 15.2232C17.6278 15.3206 17.5699 15.3289 17.4199 15.3428C17.25 15.3281 17.25 15.3281 17.1387 15.252C17.0445 15.1142 17.019 15.0263 17.0156 14.8594C17.1191 14.6467 17.2729 14.4956 17.439 14.3316C17.4674 14.3032 17.4957 14.2748 17.525 14.2456C17.6183 14.1523 17.712 14.0593 17.8057 13.9664C17.8707 13.9016 17.9357 13.8367 18.0006 13.7719C18.1712 13.6016 18.3422 13.4316 18.5131 13.2617C18.6877 13.0881 18.862 12.9142 19.0363 12.7404C19.3781 12.3996 19.7202 12.0591 20.0625 11.7187C19.8368 11.5409 19.6215 11.4715 19.333 11.4814C18.8367 11.5504 18.4449 11.817 18.0921 12.1549C18.0619 12.1834 18.0317 12.212 18.0005 12.2414C17.7852 12.4469 17.5783 12.6596 17.3738 12.8758C17.2872 12.9665 17.2005 13.0572 17.1138 13.1479C17.056 13.209 16.9987 13.2704 16.9419 13.3324C16.5103 13.8007 16.1263 14.0347 15.5168 14.2175C14.8368 14.4502 14.2686 15.1052 13.9318 15.7141C13.6568 16.2804 13.5737 16.818 13.5426 17.4412C13.5209 17.782 13.5209 17.782 13.4149 17.937C13.3071 18.0033 13.2505 18.0254 13.125 18.0234C13.0941 18.0239 13.0631 18.0244 13.0313 18.0249C12.8948 17.9887 12.8394 17.9202 12.75 17.8125C12.7257 17.6955 12.7257 17.6955 12.7251 17.5642C12.7247 17.5158 12.7243 17.4673 12.7239 17.4174C12.7248 17.366 12.7257 17.3147 12.7266 17.2617C12.7274 17.1826 12.7274 17.1826 12.7283 17.1019C12.7551 15.9672 13.2459 14.9426 14.0625 14.1562C14.5088 13.7712 15.0237 13.4435 15.5941 13.2855C15.9134 13.1797 16.0978 13.011 16.324 12.7685C16.3624 12.7292 16.4007 12.6899 16.4402 12.6494C16.5617 12.5246 16.6818 12.3986 16.8018 12.2725C17.8367 11.1924 19.1683 9.98188 20.6719 11.0625Z" fill="#D62828"/>
<path d="M6.01686 11.1402C6.30522 11.3703 6.56198 11.6216 6.81829 11.8865C6.85375 11.923 6.88921 11.9595 6.92574 11.9971C7.07353 12.1496 7.22118 12.3022 7.36721 12.4564C7.80487 12.9173 8.13466 13.2544 8.76562 13.4062C9.14666 13.5628 9.48413 13.7977 9.79687 14.0625C9.82744 14.0863 9.85802 14.1101 9.88952 14.1346C10.6503 14.75 11.0832 15.694 11.25 16.6406C11.2624 16.8368 11.263 17.033 11.2646 17.2295C11.266 17.2828 11.2674 17.336 11.2688 17.3909C11.2692 17.4421 11.2695 17.4933 11.27 17.5461C11.271 17.616 11.271 17.616 11.272 17.6874C11.2441 17.8462 11.1867 17.9006 11.0625 18C10.9687 18.0249 10.9687 18.0249 10.875 18.0234C10.8286 18.0242 10.8286 18.0242 10.7812 18.0249C10.6327 17.9854 10.5878 17.9409 10.5 17.8125C10.4673 17.6436 10.4611 17.4744 10.4531 17.3027C10.3838 16.2866 10.0409 15.4442 9.29296 14.7334C8.87959 14.3751 8.38513 14.1008 7.84563 13.9904C7.61083 13.8886 7.46301 13.7186 7.28686 13.5363C7.24883 13.4977 7.2108 13.4592 7.17162 13.4195C7.05016 13.2964 6.92933 13.1727 6.80859 13.0488C6.68843 12.9261 6.56814 12.8035 6.44756 12.6811C6.37267 12.6051 6.29804 12.5288 6.22372 12.4523C5.76276 11.9832 5.25548 11.5183 4.56701 11.4776C4.33268 11.4915 4.10538 11.5509 3.93749 11.7187C3.97497 11.7557 4.01245 11.7927 4.05107 11.8307C4.40416 12.1791 4.75664 12.5281 5.10852 12.8776C5.28944 13.0573 5.47058 13.2368 5.65222 13.4158C5.82749 13.5885 6.00219 13.7618 6.1765 13.9355C6.24311 14.0017 6.30993 14.0677 6.37695 14.1334C6.47078 14.2256 6.56385 14.3184 6.65678 14.4114C6.68466 14.4385 6.71255 14.4655 6.74128 14.4934C6.90041 14.6545 6.97762 14.7635 6.98437 15C6.9352 15.1803 6.90912 15.222 6.74999 15.3281C6.60058 15.3545 6.60058 15.3545 6.42187 15.3281C6.33402 15.265 6.33402 15.265 6.24388 15.1823C6.21109 15.1525 6.1783 15.1226 6.14452 15.0918C6.00031 14.9562 5.85719 14.8198 5.716 14.6811C5.68531 14.6511 5.65462 14.6211 5.623 14.5902C5.34356 14.3166 5.06539 14.0417 4.78761 13.7664C4.60149 13.582 4.41497 13.398 4.22746 13.215C4.04526 13.0371 3.8641 12.8583 3.68365 12.6786C3.61493 12.6106 3.54586 12.5429 3.47641 12.4756C3.37946 12.3815 3.28391 12.2861 3.18859 12.1904C3.15981 12.163 3.13103 12.1357 3.10138 12.1075C2.95204 11.9544 2.88856 11.853 2.88342 11.6355C2.89021 11.4871 2.9034 11.4417 2.98901 11.3139C3.93634 10.5319 4.98381 10.4149 6.01686 11.1402Z" fill="#D62828"/>
<path d="M9.93749 1.07812C10.1079 1.20037 10.1641 1.26892 10.2012 1.47656C10.1638 1.68555 10.1105 1.75349 9.93749 1.875C9.77343 1.9043 9.77343 1.9043 9.60937 1.875C9.47167 1.77539 9.47167 1.77539 9.37499 1.64062C9.34905 1.45901 9.36094 1.32279 9.46874 1.17187C9.61966 1.06408 9.75588 1.05218 9.93749 1.07812Z" fill="#D62828"/>
<path d="M19.3125 7.82813C19.4297 7.89551 19.4297 7.89551 19.5 8.01563C19.5356 8.21788 19.5345 8.37859 19.4297 8.55762C19.2633 8.65331 19.1249 8.66148 18.9375 8.625C18.8203 8.55762 18.8203 8.55762 18.75 8.4375C18.7144 8.23524 18.7155 8.07454 18.8203 7.89551C18.9867 7.79982 19.1251 7.79165 19.3125 7.82813Z" fill="#D62828"/>
<path d="M18.75 4.96875C18.8834 5.07715 18.8893 5.14678 18.9141 5.31738C18.8906 5.48438 18.8906 5.48438 18.794 5.62207C18.6221 5.74275 18.5342 5.74872 18.3281 5.71875C18.2168 5.67188 18.2168 5.67188 18.1406 5.57813C18.0982 5.45089 18.082 5.33692 18.0938 5.20313C18.2694 4.91844 18.4331 4.88646 18.75 4.96875Z" fill="#D62828"/>
<path d="M19.125 9.32813C19.2954 9.45037 19.3516 9.51892 19.3887 9.72656C19.3514 9.93556 19.2981 10.0035 19.125 10.125C18.9392 10.1543 18.8439 10.1559 18.6855 10.0518C18.5835 9.89867 18.5625 9.79313 18.5625 9.60938C18.7161 9.36579 18.8376 9.29431 19.125 9.32813Z" fill="#D62828"/>
<path d="M7.21289 2.56055C7.35605 2.56444 7.39875 2.57293 7.52051 2.65723C7.60311 2.77947 7.63344 2.85269 7.64063 3C7.60396 3.154 7.56486 3.21896 7.44434 3.32227C7.27034 3.39187 7.16424 3.37476 6.98438 3.32812C6.86027 3.24952 6.84587 3.19447 6.80274 3.05273C6.79573 2.87743 6.83361 2.8104 6.9375 2.67188C7.03125 2.57812 7.03125 2.57812 7.21289 2.56055Z" fill="#D62828"/>
<path d="M16.9687 2.57812C17.0859 2.67773 17.0859 2.67773 17.1562 2.8125C17.1562 2.99626 17.1353 3.10179 17.0332 3.25488C16.8749 3.35904 16.7796 3.35747 16.5937 3.32812C16.4561 3.23145 16.4561 3.23145 16.3594 3.09375C16.3343 2.91535 16.3333 2.81276 16.4209 2.6543C16.5896 2.49182 16.7555 2.52574 16.9687 2.57812Z" fill="#D62828"/>
<path d="M8.57812 1.6875C8.74853 1.80975 8.80472 1.87829 8.8418 2.08594C8.80472 2.29358 8.74853 2.36213 8.57812 2.48437C8.41491 2.51158 8.32018 2.49266 8.16504 2.4375C8.0344 2.31806 8.01785 2.23575 8.00574 2.06268C8.0216 1.91195 8.09577 1.8356 8.20312 1.73437C8.33853 1.66667 8.42796 1.66983 8.57812 1.6875Z" fill="#D62828"/>
<path d="M19.1719 6.375C19.2832 6.45117 19.2832 6.45117 19.3594 6.5625C19.3932 6.76911 19.3837 6.85591 19.2627 7.02832C19.125 7.125 19.125 7.125 18.9609 7.1543C18.7533 7.11722 18.6847 7.06103 18.5625 6.89062C18.5279 6.70611 18.5456 6.63566 18.6475 6.47754C18.8186 6.30639 18.9471 6.31537 19.1719 6.375Z" fill="#D62828"/>
<path d="M17.9531 3.65625C18.1049 3.7815 18.1354 3.86153 18.1699 4.05469C18.1406 4.21875 18.1406 4.21875 18.0205 4.35937C17.8594 4.45312 17.8594 4.45312 17.6895 4.45898C17.4979 4.39513 17.4356 4.35181 17.3438 4.17187C17.3296 3.99035 17.3508 3.8478 17.4639 3.70312C17.63 3.63499 17.7767 3.6183 17.9531 3.65625Z" fill="#D62828"/>
<path d="M12.9375 0.796876C13.0727 0.91819 13.1179 0.99353 13.1514 1.17188C13.115 1.36575 13.0494 1.43203 12.8906 1.54688C12.7266 1.57617 12.7266 1.57617 12.5625 1.54688C12.4248 1.4502 12.4248 1.4502 12.3281 1.3125C12.3018 1.14551 12.3018 1.14551 12.3281 0.984376C12.5148 0.747882 12.6473 0.726827 12.9375 0.796876Z" fill="#D62828"/>
<path d="M5.25 9.375C5.38211 9.49668 5.43073 9.57328 5.46387 9.75C5.42721 9.94548 5.36468 10.0106 5.20312 10.125C5.05896 10.1604 4.98133 10.1493 4.82812 10.125C4.67398 9.99783 4.64491 9.92118 4.61719 9.72363C4.64062 9.5625 4.64062 9.5625 4.72559 9.45117C4.90832 9.31543 5.03561 9.31375 5.25 9.375Z" fill="#D62828"/>
<path d="M11.4375 0.796875C11.5488 0.873047 11.5488 0.873047 11.625 0.984375C11.6527 1.17507 11.6425 1.27828 11.5547 1.4502C11.4206 1.56082 11.3286 1.58126 11.155 1.56958C10.9917 1.52949 10.9219 1.44725 10.8281 1.3125C10.7935 1.12798 10.8112 1.05753 10.9131 0.899414C11.0842 0.728267 11.2127 0.737243 11.4375 0.796875Z" fill="#D62828"/>
<path d="M5.25 6.42188C5.33789 6.47461 5.33789 6.47461 5.39062 6.5625C5.4286 6.72319 5.45384 6.84025 5.40234 6.99902C5.34375 7.07813 5.34375 7.07813 5.20312 7.17188C4.99863 7.19838 4.90793 7.195 4.7373 7.0752C4.61663 6.90333 4.61065 6.81543 4.64062 6.60938C4.78793 6.34282 4.97294 6.36251 5.25 6.42188Z" fill="#D62828"/>
<path d="M5.625 4.96875C5.75976 5.03613 5.75976 5.03613 5.85937 5.15625C5.8929 5.30363 5.8929 5.43075 5.85937 5.57813C5.74009 5.72197 5.66768 5.75851 5.48437 5.78906C5.30622 5.75937 5.23149 5.71071 5.10937 5.57813C5.0514 5.40783 5.04634 5.33241 5.12109 5.16797C5.27059 4.97575 5.38912 4.94045 5.625 4.96875Z" fill="#D62828"/>
<path d="M14.1797 1.04883C14.3873 1.08591 14.4559 1.1421 14.5781 1.3125C14.6118 1.49217 14.5934 1.56736 14.502 1.72559C14.3657 1.85109 14.2939 1.875 14.1094 1.875C13.944 1.79981 13.8831 1.74649 13.7813 1.59375C13.7525 1.40455 13.7651 1.33495 13.8779 1.17773C14.0156 1.07812 14.0156 1.07812 14.1797 1.04883Z" fill="#D62828"/>
<path d="M15.6502 1.66479C15.75 1.6875 15.75 1.6875 15.8701 1.78711C15.9494 1.94571 15.9667 2.0282 15.9375 2.20312C15.8701 2.33789 15.8701 2.33789 15.75 2.4375C15.6026 2.47103 15.4755 2.47103 15.3281 2.4375C15.1843 2.31822 15.1477 2.24581 15.1172 2.0625C15.1717 1.73513 15.3383 1.6463 15.6502 1.66479Z" fill="#D62828"/>
<path d="M5.0625 7.875C5.17968 7.94531 5.17968 7.94531 5.25 8.0625C5.28168 8.24023 5.27242 8.38605 5.20019 8.55176C5.0633 8.66215 4.95494 8.66888 4.78125 8.67188C4.66986 8.6186 4.58698 8.57136 4.5 8.48438C4.4754 8.28559 4.46777 8.11756 4.57031 7.94238C4.73653 7.84681 4.87533 7.83818 5.0625 7.875Z" fill="#D62828"/>
<path d="M6.42188 3.70313C6.53906 3.77344 6.53906 3.77344 6.60938 3.89063C6.64645 4.07911 6.63851 4.21707 6.53906 4.38281C6.37308 4.4824 6.2357 4.48414 6.04688 4.45313C5.93262 4.40332 5.93262 4.40332 5.85938 4.3125C5.80764 4.12625 5.79303 4.02703 5.87402 3.84961C6.01982 3.66602 6.20114 3.67303 6.42188 3.70313Z" fill="#D62828"/>
</g>
<defs>
<clipPath id="clip0_249_3655">
<rect width="24" height="24" fill="white"/>
</clipPath>
</defs>
</svg>
