<svg width="24" height="24" viewBox="0 0 24 24" fill="none" xmlns="http://www.w3.org/2000/svg">
<path d="M11.9824 2.98535C12.0275 2.9836 12.0726 2.98185 12.119 2.98004C12.5528 3.03341 12.9438 3.28275 13.3213 3.48926C13.3747 3.51821 13.428 3.54716 13.483 3.57699C13.8665 3.78548 14.2465 4.00009 14.6256 4.21648C15.0625 4.46461 15.5058 4.7002 15.9503 4.93449C16.2395 5.08717 16.5274 5.24208 16.8126 5.40216C16.8653 5.43167 16.9181 5.46119 16.9724 5.4916C17.2095 5.64142 17.376 5.83297 17.4844 6.09375C17.5286 6.42483 17.4964 6.71129 17.2969 6.98438C17.0669 7.20283 16.8897 7.27881 16.5732 7.27734C16.5211 7.27759 16.4689 7.27783 16.4152 7.27808C16.2656 7.26562 16.2656 7.26562 16.0312 7.17188C16.0312 7.55859 16.0312 7.94531 16.0312 8.34375C16.6752 7.99774 17.3188 7.65125 17.9598 7.3C18.0194 7.2674 18.0194 7.2674 18.0802 7.23413C18.1147 7.21523 18.1491 7.19634 18.1846 7.17686C18.4651 7.02633 18.6628 6.97727 18.9844 7.03125C19.2476 7.13233 19.4893 7.26762 19.7344 7.40625C19.7755 7.42936 19.8167 7.45246 19.8591 7.47626C20.0412 7.57864 20.2231 7.68138 20.4046 7.78495C20.6863 7.94558 20.9699 8.10079 21.2578 8.25C21.639 8.44769 22.0126 8.65732 22.3853 8.87045C22.5951 8.99008 22.8053 9.1077 23.0202 9.21808C23.075 9.24626 23.075 9.24626 23.131 9.27501C23.1981 9.30918 23.2655 9.34288 23.3332 9.37602C23.5246 9.47329 23.6525 9.56593 23.7656 9.75C23.8125 9.97038 23.7966 10.1615 23.6895 10.3594C23.3226 10.6683 22.8689 10.5469 22.4062 10.5469C22.4062 12.8208 22.4062 15.0947 22.4062 17.4375C22.7002 17.4375 22.9941 17.4375 23.2969 17.4375C23.6935 17.6075 23.6935 17.6075 23.7656 17.7656C23.7877 17.9126 23.7895 18.0567 23.7891 18.2051C23.7904 18.2444 23.7917 18.2836 23.7931 18.3241C23.7937 18.5266 23.7831 18.6617 23.6528 18.8221C23.4729 18.9929 23.3872 18.9902 23.1433 18.99C23.0975 18.9901 23.0975 18.9901 23.0508 18.9901C22.9481 18.9902 22.8454 18.99 22.7427 18.9897C22.6692 18.9897 22.5958 18.9897 22.5224 18.9897C22.3226 18.9897 22.1228 18.9895 21.923 18.9891C21.7144 18.9888 21.5057 18.9888 21.2971 18.9888C20.9018 18.9886 20.5065 18.9882 20.1113 18.9878C19.6613 18.9872 19.2114 18.987 18.7615 18.9867C17.8358 18.9862 16.9101 18.9854 15.9844 18.9844C15.9844 19.0772 15.9844 19.17 15.9844 19.2656C16.0217 19.2635 16.0591 19.2613 16.0975 19.259C16.5022 19.2452 16.5022 19.2452 16.7139 19.3418C16.8891 19.5125 16.9745 19.682 16.9874 19.9263C16.9878 19.9951 16.9874 20.064 16.9863 20.1328C16.9871 20.1844 16.9871 20.1844 16.988 20.237C16.9868 20.4616 16.9579 20.6219 16.8281 20.8125C16.6122 20.9892 16.4413 21.0271 16.1697 21.0238C16.1325 21.0241 16.0954 21.0244 16.0571 21.0247C15.9329 21.0254 15.8088 21.0249 15.6846 21.0243C15.5955 21.0245 15.5063 21.0248 15.4171 21.0253C15.1752 21.0261 14.9333 21.0258 14.6913 21.0252C14.4381 21.0247 14.1849 21.0252 13.9316 21.0254C13.5064 21.0258 13.0811 21.0253 12.6558 21.0244C12.1642 21.0234 11.6727 21.0238 11.1811 21.0248C10.7589 21.0256 10.3368 21.0258 9.91467 21.0253C9.66257 21.025 9.41048 21.0249 9.15839 21.0256C8.92138 21.0261 8.68439 21.0257 8.44738 21.0246C8.36042 21.0244 8.27346 21.0245 8.1865 21.0249C8.06774 21.0254 7.94904 21.0247 7.83029 21.0238C7.79592 21.0242 7.76154 21.0246 7.72613 21.0251C7.48904 21.0215 7.35433 20.9618 7.17188 20.8125C7.01982 20.5892 7.00955 20.3936 7.01367 20.1328C7.01286 20.0812 7.01286 20.0812 7.01202 20.0286C7.01323 19.803 7.04988 19.6491 7.17188 19.4531C7.35707 19.2727 7.50258 19.2545 7.75195 19.2539C7.83988 19.2569 7.9278 19.2605 8.01562 19.2656C8.01562 19.1728 8.01562 19.08 8.01562 18.9844C7.97747 18.9846 7.93932 18.9848 7.90001 18.985C6.97164 18.9902 6.04328 18.9941 5.1149 18.9965C4.66594 18.9977 4.21699 18.9994 3.76804 19.0021C3.37672 19.0044 2.98542 19.0059 2.5941 19.0064C2.3869 19.0067 2.17972 19.0075 1.97253 19.0092C1.77745 19.0107 1.58241 19.0112 1.38734 19.0109C1.31579 19.011 1.24425 19.0114 1.17272 19.0123C0.564589 19.0196 0.564589 19.0196 0.380048 18.8714C0.204901 18.6562 0.222721 18.4883 0.219727 18.2197C0.218367 18.1796 0.217007 18.1395 0.215607 18.0982C0.213703 17.9092 0.218753 17.7939 0.311462 17.6259C0.674471 17.3147 1.13613 17.4375 1.59375 17.4375C1.59375 15.1636 1.59375 12.8897 1.59375 10.5469C1.29984 10.5469 1.00594 10.5469 0.703125 10.5469C0.318209 10.3819 0.318209 10.3819 0.234375 10.2188C0.21405 10.1061 0.21405 10.1061 0.213867 9.9873C0.212508 9.92866 0.212508 9.92866 0.211121 9.86884C0.242534 9.70831 0.31194 9.6361 0.421875 9.51562C0.546535 9.43414 0.546535 9.43414 0.689392 9.36035C0.76896 9.31862 0.76896 9.31862 0.850136 9.27604C0.892224 9.25442 0.892224 9.25442 0.935163 9.23236C1.08488 9.15543 1.23368 9.07676 1.38263 8.99835C1.42777 8.97468 1.42777 8.97468 1.47382 8.95054C1.74175 8.80971 2.00506 8.66142 2.26758 8.51074C2.74511 8.23769 3.22936 7.97825 3.71592 7.72175C4.06212 7.53887 4.40326 7.34933 4.7415 7.15207C5.00157 7.00802 5.23953 6.99378 5.53125 7.03125C5.73132 7.10325 5.91178 7.20232 6.09668 7.30664C6.17295 7.34802 6.17295 7.34802 6.25076 7.39023C6.40215 7.47266 6.55268 7.5565 6.70312 7.64062C6.78603 7.68623 6.86898 7.73176 6.95197 7.77722C7.15101 7.88666 7.34899 7.99787 7.54688 8.10938C7.68609 8.18672 7.82531 8.26406 7.96875 8.34375C7.96875 7.95703 7.96875 7.57031 7.96875 7.17188C7.85273 7.21828 7.85273 7.21828 7.73438 7.26562C7.39909 7.30641 7.10243 7.30808 6.82434 7.10156C6.60863 6.89754 6.50971 6.6823 6.50098 6.38965C6.50501 6.08236 6.59213 5.87418 6.81152 5.65961C7.05445 5.46474 7.33834 5.32736 7.61133 5.17969C7.67242 5.14634 7.73349 5.11296 7.79455 5.07956C8.21602 4.84931 8.63878 4.62139 9.06156 4.39355C9.38228 4.22021 9.69986 4.04182 10.0166 3.86133C10.3731 3.65849 10.7318 3.46072 11.0947 3.26953C11.1359 3.24768 11.1772 3.22583 11.2196 3.20332C11.2579 3.18335 11.2961 3.16339 11.3355 3.14282C11.3689 3.12534 11.4023 3.10787 11.4367 3.08986C11.6172 3.00779 11.7852 2.9903 11.9824 2.98535ZM10.5271 4.29404C10.1467 4.51049 9.76175 4.71717 9.375 4.92188C8.93654 5.15414 8.5003 5.38951 8.06836 5.63379C8.02552 5.65799 7.98268 5.68219 7.93854 5.70712C7.50678 5.93637 7.50678 5.93637 7.125 6.23438C7.13619 6.47039 7.13619 6.47039 7.26562 6.65625C7.60949 6.71745 7.86505 6.53079 8.15625 6.36621C8.21025 6.33641 8.26426 6.30662 8.3199 6.27592C8.70484 6.06332 9.08685 5.84539 9.46888 5.62762C9.85318 5.40946 10.2419 5.19999 10.6318 4.99219C10.6617 4.97627 10.6915 4.96035 10.7222 4.94395C10.9134 4.84206 11.105 4.74104 11.2969 4.64062C11.3652 4.60467 11.3652 4.60467 11.4349 4.56799C11.4759 4.54682 11.517 4.52565 11.5593 4.50385C11.6117 4.47664 11.6117 4.47664 11.6653 4.44888C11.9235 4.33916 12.1308 4.36484 12.3878 4.46759C12.55 4.54399 12.7072 4.62906 12.8643 4.71542C13.0003 4.78999 13.1371 4.86293 13.274 4.93579C13.7613 5.19576 14.2464 5.45971 14.7284 5.72936C15.0817 5.92668 15.4379 6.11863 15.7942 6.31047C15.8399 6.33509 15.8855 6.35971 15.9326 6.38507C15.9731 6.40688 16.0136 6.42869 16.0554 6.45116C16.1362 6.49588 16.2155 6.5434 16.2934 6.593C16.4482 6.67978 16.5599 6.67564 16.7344 6.65625C16.8311 6.61029 16.8311 6.61029 16.875 6.51562C16.9102 6.37904 16.9102 6.37904 16.875 6.23438C16.6337 5.99304 16.3342 5.85215 16.0342 5.69531C15.9236 5.63669 15.813 5.578 15.7026 5.51917C15.6748 5.50438 15.647 5.4896 15.6183 5.47438C15.3587 5.33597 15.103 5.19112 14.8477 5.04492C14.3655 4.76949 13.8765 4.5077 13.3852 4.24889C13.0658 4.08022 12.7512 3.90579 12.4413 3.72004C11.7981 3.35758 11.0776 3.97965 10.5271 4.29404ZM11.5849 5.12659C11.5542 5.14301 11.5235 5.15942 11.4919 5.17634C11.3925 5.22972 11.2934 5.28379 11.1943 5.33789C11.1258 5.37489 11.0572 5.41186 10.9886 5.44878C10.7941 5.55369 10.6001 5.65946 10.4062 5.76562C10.3608 5.79052 10.3154 5.81542 10.2685 5.84106C10.0324 5.97088 9.79753 6.10261 9.5625 6.23438C9.25313 6.40453 8.94375 6.57469 8.625 6.75C8.625 10.8802 8.625 15.0103 8.625 19.2656C9.19734 19.2656 9.76969 19.2656 10.3594 19.2656C10.3594 17.8116 10.3594 16.3575 10.3594 14.8594C10.2202 14.813 10.2202 14.813 10.0781 14.7656C10.0312 14.7188 10.0312 14.7188 10.0254 14.5811C10.0312 14.4375 10.0312 14.4375 10.0781 14.3438C10.2421 14.2891 10.389 14.2903 10.5595 14.2908C10.6113 14.2907 10.6113 14.2907 10.6642 14.2906C10.7784 14.2904 10.8926 14.2905 11.0068 14.2906C11.0862 14.2906 11.1655 14.2906 11.2448 14.2905C11.4111 14.2904 11.5774 14.2905 11.7437 14.2908C11.957 14.291 12.1702 14.2909 12.3835 14.2906C12.5473 14.2904 12.7112 14.2905 12.875 14.2906C12.9536 14.2906 13.0323 14.2906 13.1109 14.2905C13.2208 14.2904 13.3306 14.2905 13.4405 14.2908C13.4731 14.2907 13.5057 14.2906 13.5392 14.2905C13.6802 14.2911 13.787 14.2988 13.9219 14.3438C13.9866 14.4732 13.9777 14.5757 13.9688 14.7188C13.875 14.8125 13.875 14.8125 13.6406 14.8594C13.6406 16.3134 13.6406 17.7675 13.6406 19.2656C14.213 19.2656 14.7853 19.2656 15.375 19.2656C15.375 15.1355 15.375 11.0053 15.375 6.75C14.9419 6.51797 14.5087 6.28594 14.0625 6.04688C13.6849 5.83908 13.3086 5.63061 12.936 5.41406C12.8872 5.38591 12.8384 5.35776 12.7881 5.32876C12.6924 5.27345 12.5968 5.21773 12.5016 5.16154C12.458 5.13647 12.4145 5.1114 12.3697 5.08557C12.3311 5.06303 12.2926 5.04048 12.2528 5.01725C11.9932 4.90504 11.8187 4.99771 11.5849 5.12659ZM4.87592 7.77795C4.82181 7.80726 4.7677 7.83656 4.71196 7.86675C4.65399 7.89878 4.59604 7.93083 4.53809 7.96289C4.47811 7.99562 4.4181 8.02831 4.35808 8.06096C4.18629 8.15459 4.01498 8.24909 3.84375 8.34375C3.80348 8.36593 3.7632 8.38812 3.72171 8.41097C3.55737 8.50155 3.39337 8.5927 3.22961 8.68433C2.95225 8.83944 2.67402 8.99299 2.39578 9.14654C2.30869 9.19462 2.22163 9.24273 2.13456 9.29085C1.76808 9.49322 1.40025 9.69289 1.03125 9.89062C1.03125 9.90609 1.03125 9.92156 1.03125 9.9375C1.062 9.93843 1.09275 9.93936 1.12443 9.94032C1.26331 9.94477 1.40216 9.94992 1.54102 9.95508C1.58942 9.95653 1.63782 9.95798 1.68768 9.95947C1.73391 9.96129 1.78013 9.9631 1.82776 9.96497C1.87047 9.96644 1.91318 9.96791 1.95719 9.96943C2.0625 9.98438 2.0625 9.98438 2.15625 10.0781C2.16852 10.2046 2.16852 10.2046 2.1693 10.3688C2.16971 10.414 2.16971 10.414 2.17013 10.4601C2.17093 10.5615 2.17106 10.6629 2.1712 10.7643C2.17163 10.8369 2.17211 10.9094 2.17262 10.9819C2.17391 11.1792 2.17461 11.3764 2.17522 11.5737C2.17595 11.7797 2.17721 11.9857 2.17841 12.1917C2.18061 12.582 2.18233 12.9723 2.18388 13.3626C2.18567 13.8069 2.18799 14.2511 2.19035 14.6954C2.19519 15.6094 2.19931 16.5235 2.20312 17.4375C2.79094 17.4375 3.37875 17.4375 3.98438 17.4375C3.98438 16.5867 3.98438 15.7359 3.98438 14.8594C3.89156 14.8439 3.79875 14.8284 3.70312 14.8125C3.69727 14.4492 3.69727 14.4492 3.75 14.3438C3.89608 14.2951 3.99918 14.2904 4.15244 14.2893C4.20611 14.2889 4.25977 14.2884 4.31506 14.288C4.37307 14.2878 4.43108 14.2876 4.49084 14.2874C4.55044 14.2871 4.61003 14.2868 4.67142 14.2865C4.7976 14.2861 4.92376 14.2858 5.04993 14.2856C5.21129 14.2854 5.37262 14.2842 5.53397 14.2829C5.68821 14.2818 5.84246 14.2817 5.9967 14.2815C6.08343 14.2806 6.08343 14.2806 6.17191 14.2797C6.22587 14.2799 6.27983 14.28 6.33543 14.2802C6.40646 14.2799 6.40646 14.2799 6.47892 14.2796C6.6328 14.3 6.72127 14.3429 6.84375 14.4375C6.86426 14.5811 6.86426 14.5811 6.84375 14.7188C6.75 14.8125 6.75 14.8125 6.5625 14.8594C6.5625 15.7102 6.5625 16.5609 6.5625 17.4375C7.04203 17.4375 7.52156 17.4375 8.01562 17.4375C8.01562 14.6841 8.01562 11.9306 8.01562 9.09375C7.49938 8.80695 6.98304 8.52038 6.46582 8.23535C6.3791 8.18755 6.29238 8.13975 6.20568 8.09191C6.12393 8.04686 6.04209 8.00198 5.96024 7.9571C5.86826 7.90599 5.77679 7.85391 5.68618 7.80041C5.63133 7.76817 5.63133 7.76817 5.57538 7.73529C5.54484 7.71679 5.5143 7.69829 5.48283 7.67923C5.24839 7.58108 5.08822 7.6618 4.87592 7.77795ZM18.3783 7.7525C18.3338 7.77688 18.2893 7.80127 18.2435 7.82639C18.196 7.85306 18.1485 7.87974 18.0996 7.90723C18.0503 7.93445 18.001 7.96167 17.9502 7.98972C17.7946 8.07588 17.6394 8.16281 17.4844 8.25C17.4345 8.27801 17.3845 8.30603 17.3331 8.33489C17.0667 8.48459 16.8007 8.63506 16.5353 8.7865C16.3522 8.88991 16.1682 8.99164 15.9844 9.09375C15.9844 11.8472 15.9844 14.6006 15.9844 17.4375C16.4639 17.4375 16.9434 17.4375 17.4375 17.4375C17.4375 16.5867 17.4375 15.7359 17.4375 14.8594C17.3602 14.8284 17.2828 14.7975 17.2031 14.7656C17.1562 14.7188 17.1562 14.7188 17.1517 14.6321C17.1532 14.536 17.1547 14.4399 17.1562 14.3438C17.3286 14.304 17.4879 14.2909 17.6646 14.2908C17.7185 14.2907 17.7725 14.2905 17.8281 14.2904C17.8859 14.2905 17.9437 14.2906 18.0033 14.2906C18.063 14.2906 18.1227 14.2906 18.1841 14.2905C18.3102 14.2905 18.4362 14.2905 18.5622 14.2908C18.7236 14.291 18.8851 14.2909 19.0465 14.2906C19.2007 14.2904 19.3549 14.2905 19.5092 14.2906C19.5672 14.2906 19.6252 14.2905 19.6849 14.2904C19.7386 14.2905 19.7923 14.2907 19.8476 14.2908C19.8948 14.2908 19.9421 14.2909 19.9908 14.2909C20.1094 14.2969 20.1094 14.2969 20.25 14.3438C20.3253 14.4944 20.2996 14.6454 20.2969 14.8125C20.2041 14.828 20.1112 14.8434 20.0156 14.8594C20.0156 15.7102 20.0156 16.5609 20.0156 17.4375C20.6034 17.4375 21.1912 17.4375 21.7969 17.4375C21.7978 17.2151 21.7987 16.9926 21.7997 16.7634C21.8028 16.0302 21.8065 15.297 21.8104 14.5637C21.8127 14.119 21.8149 13.6742 21.8167 13.2295C21.8182 12.8419 21.8201 12.4544 21.8223 12.0669C21.8235 11.8616 21.8245 11.6563 21.8252 11.451C21.8258 11.2579 21.8268 11.0648 21.8282 10.8718C21.8286 10.8008 21.8288 10.7297 21.8289 10.6587C21.8291 10.5621 21.8298 10.4654 21.8307 10.3688C21.8311 10.2875 21.8311 10.2875 21.8315 10.2046C21.8438 10.0781 21.8438 10.0781 21.9375 9.98438C22.0428 9.96943 22.0428 9.96943 22.1722 9.96497C22.2416 9.96225 22.2416 9.96225 22.3123 9.95947C22.3849 9.9573 22.3849 9.9573 22.459 9.95508C22.5321 9.95236 22.5321 9.95236 22.6068 9.94958C22.7274 9.94516 22.8481 9.94115 22.9688 9.9375C22.8366 9.83377 22.703 9.75018 22.5547 9.67126C22.5102 9.64738 22.4656 9.62349 22.4197 9.59888C22.3478 9.56057 22.3478 9.56057 22.2744 9.52148C21.8918 9.31613 21.5118 9.10708 21.1348 8.8916C20.6436 8.61143 20.1457 8.34475 19.6459 8.0803C19.6171 8.06501 19.5882 8.04972 19.5585 8.03397C19.4765 7.9906 19.3945 7.94734 19.3125 7.90409C19.1998 7.84319 19.0905 7.77963 18.9814 7.71259C18.7492 7.59123 18.6012 7.62888 18.3783 7.7525ZM4.59375 14.8594C4.59375 15.7102 4.59375 16.5609 4.59375 17.4375C5.04234 17.4375 5.49094 17.4375 5.95312 17.4375C5.95312 16.5867 5.95312 15.7359 5.95312 14.8594C5.50453 14.8594 5.05594 14.8594 4.59375 14.8594ZM10.9688 14.8594C10.9688 16.3134 10.9688 17.7675 10.9688 19.2656C11.6494 19.2656 12.33 19.2656 13.0312 19.2656C13.0312 17.8116 13.0312 16.3575 13.0312 14.8594C12.3506 14.8594 11.67 14.8594 10.9688 14.8594ZM18.0469 14.8594C18.0469 15.7102 18.0469 16.5609 18.0469 17.4375C18.4955 17.4375 18.9441 17.4375 19.4062 17.4375C19.4062 16.5867 19.4062 15.7359 19.4062 14.8594C18.9577 14.8594 18.5091 14.8594 18.0469 14.8594ZM0.796875 18.0469C0.796875 18.1552 0.796875 18.2634 0.796875 18.375C3.17906 18.375 5.56125 18.375 8.01562 18.375C8.01562 18.2667 8.01562 18.1584 8.01562 18.0469C5.63344 18.0469 3.25125 18.0469 0.796875 18.0469ZM15.9844 18.0469C15.9844 18.1552 15.9844 18.2634 15.9844 18.375C18.3666 18.375 20.7488 18.375 23.2031 18.375C23.2031 18.2667 23.2031 18.1584 23.2031 18.0469C20.8209 18.0469 18.4387 18.0469 15.9844 18.0469ZM7.64062 19.875C7.64062 20.0452 7.64062 20.2153 7.64062 20.3906C10.5178 20.3906 13.395 20.3906 16.3594 20.3906C16.3594 20.2205 16.3594 20.0503 16.3594 19.875C13.4822 19.875 10.605 19.875 7.64062 19.875Z" fill="#D62828"/>
<path d="M10.8748 7.2353C10.9304 7.23456 10.9859 7.23382 11.0431 7.23306C11.1325 7.23377 11.1325 7.23377 11.2236 7.2345C11.2852 7.23428 11.3467 7.23405 11.4101 7.23382C11.5402 7.23348 11.6702 7.23398 11.8002 7.23507C11.9665 7.23641 12.1327 7.23564 12.299 7.23424C12.4581 7.23318 12.6172 7.23392 12.7764 7.2345C12.8359 7.23403 12.8955 7.23355 12.9569 7.23306C13.0402 7.23417 13.0402 7.23417 13.1252 7.2353C13.1739 7.23549 13.2227 7.23567 13.2729 7.23587C13.4658 7.27891 13.5284 7.33679 13.6406 7.5C13.6742 7.67154 13.6712 7.83987 13.6687 8.01417C13.6689 8.06603 13.6691 8.11788 13.6693 8.17131C13.6696 8.34264 13.6682 8.51392 13.6668 8.68525C13.6666 8.80427 13.6665 8.92329 13.6665 9.04232C13.6662 9.29171 13.6652 9.54109 13.6635 9.79048C13.6615 10.0787 13.6607 10.3668 13.6605 10.655C13.6604 10.9325 13.6597 11.21 13.6586 11.4875C13.6582 11.6055 13.6579 11.7235 13.6577 11.8415C13.6573 12.0062 13.6562 12.1709 13.655 12.3356C13.655 12.3846 13.6549 12.4335 13.6549 12.4839C13.6544 12.5288 13.654 12.5737 13.6535 12.6199C13.6533 12.6588 13.653 12.6978 13.6528 12.7379C13.6393 12.8556 13.6097 12.9312 13.5469 13.0313C13.4199 13.0947 13.3201 13.0844 13.1779 13.0849C13.1202 13.0852 13.0625 13.0855 13.003 13.0858C12.9397 13.0859 12.8764 13.086 12.8132 13.086C12.7485 13.0862 12.6838 13.0863 12.6191 13.0865C12.4834 13.0868 12.3478 13.0868 12.2121 13.0868C12.0382 13.0868 11.8643 13.0874 11.6904 13.0883C11.5567 13.0888 11.4231 13.0889 11.2895 13.0888C11.2253 13.0889 11.1612 13.0891 11.0971 13.0895C11.0074 13.0899 10.9178 13.0897 10.8281 13.0895C10.7771 13.0896 10.7261 13.0896 10.6735 13.0897C10.5469 13.0781 10.5469 13.0781 10.4062 12.9844C10.3615 12.8501 10.3531 12.765 10.3522 12.6256C10.3518 12.5807 10.3514 12.5359 10.3509 12.4897C10.3507 12.4406 10.3505 12.3916 10.3503 12.341C10.35 12.2892 10.3496 12.2374 10.3492 12.1841C10.348 12.0125 10.3472 11.8409 10.3466 11.6693C10.3463 11.6108 10.3461 11.5522 10.3458 11.4919C10.3448 11.246 10.3439 11.0001 10.3434 10.7541C10.3426 10.4019 10.3411 10.0497 10.3384 9.69743C10.3364 9.41974 10.3356 9.14206 10.3353 8.86436C10.335 8.74628 10.3343 8.6282 10.3332 8.51013C10.3317 8.34504 10.3317 8.18001 10.332 8.01492C10.3313 7.96601 10.3305 7.91711 10.3297 7.86672C10.3316 7.64949 10.3353 7.535 10.4607 7.35253C10.6135 7.2527 10.6935 7.236 10.8748 7.2353ZM10.9687 7.875C10.9687 8.24625 10.9687 8.6175 10.9687 9C11.2162 9 11.4637 9 11.7187 9C11.7187 8.62875 11.7187 8.2575 11.7187 7.875C11.4712 7.875 11.2237 7.875 10.9687 7.875ZM12.2812 7.875C12.2812 8.24625 12.2812 8.6175 12.2812 9C12.5287 9 12.7762 9 13.0312 9C13.0312 8.62875 13.0312 8.2575 13.0312 7.875C12.7837 7.875 12.5362 7.875 12.2812 7.875ZM10.9687 9.60938C10.9687 9.98063 10.9687 10.3519 10.9687 10.7344C11.2162 10.7344 11.4637 10.7344 11.7187 10.7344C11.7187 10.3631 11.7187 9.99188 11.7187 9.60938C11.4712 9.60938 11.2237 9.60938 10.9687 9.60938ZM12.2812 9.60938C12.2812 9.98063 12.2812 10.3519 12.2812 10.7344C12.5287 10.7344 12.7762 10.7344 13.0312 10.7344C13.0312 10.3631 13.0312 9.99188 13.0312 9.60938C12.7837 9.60938 12.5362 9.60938 12.2812 9.60938ZM10.9687 11.3438C10.9687 11.715 10.9687 12.0863 10.9687 12.4688C11.2162 12.4688 11.4637 12.4688 11.7187 12.4688C11.7187 12.0975 11.7187 11.7263 11.7187 11.3438C11.4712 11.3438 11.2237 11.3438 10.9687 11.3438ZM12.2812 11.3438C12.2812 11.715 12.2812 12.0863 12.2812 12.4688C12.5287 12.4688 12.7762 12.4688 13.0312 12.4688C13.0312 12.0975 13.0312 11.7263 13.0312 11.3438C12.7837 11.3438 12.5362 11.3438 12.2812 11.3438Z" fill="#D62828"/>
<path d="M19.8343 10.1532C20.0856 10.3827 20.3247 10.7577 20.3503 11.1045C20.3507 11.138 20.351 11.1714 20.3513 11.2058C20.3518 11.2438 20.3522 11.2818 20.3527 11.321C20.3529 11.3618 20.3531 11.4027 20.3533 11.4448C20.3535 11.4869 20.3538 11.5291 20.3541 11.5725C20.3545 11.6615 20.3548 11.7506 20.355 11.8396C20.3555 11.976 20.3569 12.1124 20.3584 12.2488C20.3587 12.3353 20.3589 12.4218 20.3591 12.5083C20.3597 12.5492 20.3603 12.59 20.3609 12.6322C20.3607 12.6702 20.3606 12.7082 20.3605 12.7473C20.3607 12.7974 20.3607 12.7974 20.361 12.8486C20.3375 12.9699 20.3052 13.0083 20.2031 13.0781C20.075 13.096 20.075 13.096 19.9183 13.0963C19.8596 13.0968 19.801 13.0972 19.7405 13.0977C19.6765 13.0974 19.6124 13.0971 19.5483 13.0968C19.4827 13.0969 19.417 13.097 19.3513 13.0972C19.2137 13.0974 19.0761 13.0971 18.9385 13.0965C18.7621 13.0957 18.5858 13.0961 18.4094 13.097C18.2738 13.0975 18.1382 13.0973 18.0026 13.0969C17.9376 13.0968 17.8725 13.097 17.8075 13.0973C17.7166 13.0976 17.6257 13.097 17.5348 13.0963C17.4831 13.0962 17.4314 13.0961 17.3781 13.096C17.25 13.0781 17.25 13.0781 17.163 13.0177C17.0676 12.875 17.0895 12.7048 17.0907 12.5387C17.0906 12.4993 17.0904 12.4599 17.0903 12.4194C17.0902 12.3359 17.0905 12.2525 17.091 12.169C17.0918 12.0425 17.0911 11.916 17.0901 11.7894C17.0902 11.7081 17.0904 11.6268 17.0907 11.5455C17.0904 11.5082 17.0901 11.4708 17.0898 11.4323C17.0958 10.9448 17.28 10.5427 17.606 10.1832C18.2442 9.58413 19.1655 9.65092 19.8343 10.1532ZM18.0469 10.6406C17.8218 10.8862 17.8218 10.8862 17.7656 11.2031C17.9822 11.2031 18.1987 11.2031 18.4219 11.2031C18.4219 10.9556 18.4219 10.7081 18.4219 10.4531C18.2668 10.4531 18.161 10.5442 18.0469 10.6406ZM19.0312 10.4531C19.0312 10.7006 19.0312 10.9481 19.0312 11.2031C19.2633 11.2031 19.4953 11.2031 19.7344 11.2031C19.6419 10.8577 19.4682 10.655 19.1719 10.4531C19.1255 10.4531 19.0791 10.4531 19.0312 10.4531ZM17.7187 11.8125C17.7187 12.0291 17.7187 12.2456 17.7187 12.4687C17.9508 12.4687 18.1828 12.4687 18.4219 12.4687C18.4219 12.2522 18.4219 12.0356 18.4219 11.8125C18.1898 11.8125 17.9578 11.8125 17.7187 11.8125ZM19.0312 11.8125C19.0312 12.0291 19.0312 12.2456 19.0312 12.4687C19.2633 12.4687 19.4953 12.4687 19.7344 12.4687C19.7344 12.2522 19.7344 12.0356 19.7344 11.8125C19.5023 11.8125 19.2703 11.8125 19.0312 11.8125Z" fill="#D62828"/>
<path d="M6.46655 10.2458C6.79072 10.6294 6.89763 11.0342 6.90015 11.5226C6.90041 11.5626 6.90068 11.6026 6.90096 11.6438C6.9014 11.7281 6.90171 11.8125 6.90189 11.8969C6.90234 12.0261 6.9038 12.1552 6.90527 12.2845C6.90558 12.3665 6.90583 12.4485 6.90601 12.5305C6.90659 12.5691 6.90716 12.6078 6.90776 12.6477C6.90672 12.9133 6.90672 12.9133 6.83707 13.018C6.71176 13.1045 6.61668 13.096 6.46518 13.0963C6.40652 13.0968 6.34786 13.0972 6.28743 13.0977C6.22336 13.0974 6.15929 13.0971 6.09522 13.0968C6.02954 13.0969 5.96387 13.097 5.8982 13.0972C5.7606 13.0974 5.62301 13.0971 5.48541 13.0965C5.30901 13.0957 5.13265 13.0961 4.95626 13.097C4.82066 13.0975 4.68507 13.0973 4.54947 13.0969C4.48443 13.0968 4.41939 13.097 4.35435 13.0973C4.26347 13.0976 4.17258 13.097 4.0817 13.0963C4.02997 13.0962 3.97825 13.0961 3.92495 13.096C3.79688 13.0781 3.79688 13.0781 3.70995 13.0182C3.612 12.871 3.63533 12.6911 3.63593 12.5198C3.63568 12.4785 3.63543 12.4371 3.63518 12.3945C3.63488 12.3069 3.63494 12.2192 3.63534 12.1315C3.63574 11.9987 3.6344 11.866 3.63291 11.7331C3.63035 11.0997 3.68909 10.6593 4.14221 10.1845C4.83667 9.58587 5.80518 9.622 6.46655 10.2458ZM4.50458 10.7197C4.36585 10.8727 4.31865 11.0052 4.26563 11.2031C4.49766 11.2031 4.72969 11.2031 4.96875 11.2031C4.96875 10.9556 4.96875 10.7081 4.96875 10.4531C4.75409 10.4531 4.65843 10.5796 4.50458 10.7197ZM5.57813 10.4531C5.57813 10.7006 5.57813 10.9481 5.57813 11.2031C5.79469 11.2031 6.01125 11.2031 6.23438 11.2031C6.19225 10.9226 6.19225 10.9226 6.03809 10.7227C6.01132 10.6915 5.98455 10.6603 5.95697 10.6282C5.8415 10.5219 5.8415 10.5219 5.57813 10.4531ZM4.26563 11.8125C4.26563 12.0291 4.26563 12.2456 4.26563 12.4687C4.49766 12.4687 4.72969 12.4687 4.96875 12.4687C4.96875 12.2522 4.96875 12.0356 4.96875 11.8125C4.73672 11.8125 4.50469 11.8125 4.26563 11.8125ZM5.57813 11.8125C5.57813 12.0291 5.57813 12.2456 5.57813 12.4687C5.81016 12.4687 6.04219 12.4687 6.28125 12.4687C6.28125 12.2522 6.28125 12.0356 6.28125 11.8125C6.04922 11.8125 5.81719 11.8125 5.57813 11.8125Z" fill="#D62828"/>
</svg>
