<svg width="24" height="24" viewBox="0 0 24 24" fill="none" xmlns="http://www.w3.org/2000/svg">
<path d="M8.82188 17.3063C7.75313 20.4844 3.51562 20.4844 3.51562 20.4844C3.51562 20.4844 3.51562 16.2469 6.69375 15.1781" stroke="#D62828" stroke-linecap="round" stroke-linejoin="round"/>
<path d="M18.3656 9.88126L12 16.2469L7.75312 12L14.1188 5.63439C16.5281 3.22501 18.9375 3.25314 19.9687 3.40314C20.1279 3.42437 20.2756 3.49737 20.3891 3.61089C20.5026 3.72441 20.5756 3.87213 20.5969 4.03126C20.7469 5.06251 20.775 7.47189 18.3656 9.88126Z" stroke="#D62828" stroke-linecap="round" stroke-linejoin="round"/>
<path d="M17.3063 10.9406V16.9969C17.3034 17.1947 17.2226 17.3834 17.0812 17.5219L14.0531 20.5594C13.9571 20.6553 13.8367 20.7234 13.705 20.7563C13.5733 20.7893 13.4351 20.7858 13.3052 20.7464C13.1752 20.7069 13.0585 20.6329 12.9673 20.5323C12.8761 20.4317 12.814 20.3082 12.7875 20.175L12 16.2469" stroke="#D62828" stroke-linecap="round" stroke-linejoin="round"/>
<path d="M13.0596 6.69376H7.00335C6.80552 6.69657 6.61682 6.77745 6.47835 6.91876L3.44085 9.94688C3.34489 10.043 3.27681 10.1633 3.24388 10.295C3.21095 10.4267 3.21439 10.5649 3.25385 10.6949C3.29331 10.8248 3.3673 10.9416 3.46793 11.0327C3.56856 11.1239 3.69205 11.186 3.82522 11.2125L7.75335 12" stroke="#D62828" stroke-linecap="round" stroke-linejoin="round"/>
</svg>
