<svg width="24" height="24" viewBox="0 0 24 24" fill="none" xmlns="http://www.w3.org/2000/svg">
<path d="M14.5312 3.04689C14.5935 3.08546 14.6543 3.12629 14.7142 3.16847C14.9605 3.33622 15.2168 3.48317 15.4761 3.62965C15.5917 3.6949 15.707 3.7605 15.8223 3.82609C15.882 3.86004 15.9417 3.89397 16.0015 3.92789C16.2973 4.09589 16.5921 4.26549 16.8867 4.43556C16.9368 4.46447 16.9869 4.49338 17.0385 4.52317C17.4216 4.7445 17.8038 4.96731 18.1857 5.19053C18.5294 5.39123 18.8739 5.59043 19.2188 5.78908C19.6206 6.02065 20.0221 6.25283 20.4229 6.48634C20.4694 6.51346 20.516 6.54058 20.5639 6.56852C20.7661 6.6866 20.9679 6.80524 21.1681 6.92671C21.2001 6.94612 21.2321 6.96552 21.265 6.98551C21.3468 7.03537 21.4284 7.08558 21.5099 7.13582C21.6185 7.19736 21.7189 7.24714 21.8333 7.29439C21.9844 7.35939 21.9844 7.35939 22.0781 7.45314C22.0907 7.54954 22.0907 7.54954 22.0919 7.67073C22.0929 7.73953 22.0929 7.73953 22.094 7.80973C22.0942 7.86023 22.0945 7.91073 22.0947 7.96277C22.0953 8.01582 22.096 8.06888 22.0966 8.12354C22.0984 8.29973 22.0995 8.47591 22.1005 8.65211C22.1008 8.71218 22.1012 8.77225 22.1016 8.83414C22.1034 9.11927 22.1047 9.40438 22.1055 9.68951C22.1064 10.0185 22.1089 10.3474 22.1127 10.6764C22.1159 10.9614 22.117 11.2464 22.1174 11.5314C22.1178 11.6526 22.1189 11.7738 22.1206 11.895C22.1229 12.0646 22.1228 12.234 22.1222 12.4036C22.124 12.4788 22.124 12.4788 22.1258 12.5555C22.1211 12.8888 22.1211 12.8888 21.9967 13.0297C21.9018 13.102 21.8078 13.1616 21.7031 13.2188C21.6557 13.2487 21.6083 13.2786 21.5595 13.3094C21.4931 13.3476 21.4931 13.3476 21.4254 13.3865C21.3764 13.4148 21.3275 13.443 21.2771 13.4722C21.2272 13.5007 21.1774 13.5292 21.126 13.5586C21.0256 13.6164 20.9251 13.6743 20.8248 13.7322C20.7808 13.7574 20.7368 13.7826 20.6914 13.8086C20.6051 13.8592 20.5208 13.9133 20.4375 13.9688C20.2928 13.9838 20.1966 13.9916 20.0684 13.919C19.9781 13.7635 19.9799 13.6759 20.0156 13.5C20.0941 13.4321 20.0941 13.4321 20.1982 13.3673C20.2364 13.3431 20.2747 13.319 20.3141 13.2941C20.3548 13.2693 20.3955 13.2444 20.4375 13.2188C20.4774 13.1939 20.5174 13.1691 20.5586 13.1435C20.6808 13.0681 20.8036 12.9939 20.9268 12.9199C20.9688 12.8944 21.0108 12.8688 21.0541 12.8425C21.1142 12.8063 21.1142 12.8063 21.1756 12.7694C21.2117 12.7476 21.2478 12.7259 21.285 12.7034C21.375 12.6563 21.375 12.6563 21.4688 12.6563C21.4533 12.3314 21.4378 12.0066 21.4219 11.6719C21.2912 11.7466 21.2912 11.7466 21.1578 11.8228C20.8957 11.9725 20.8957 11.9725 20.6336 12.1223C20.6051 12.1386 20.5766 12.1549 20.5472 12.1717C20.4893 12.2048 20.4313 12.2378 20.3732 12.2708C20.2241 12.3555 20.076 12.4416 19.9292 12.5305C19.9 12.5479 19.8708 12.5653 19.8407 12.5833C19.7601 12.6314 19.6799 12.6801 19.5996 12.7289C19.4414 12.8023 19.344 12.8149 19.1719 12.7969C19.084 12.7471 19.084 12.7471 19.0312 12.6563C18.9961 12.501 18.9961 12.501 19.0312 12.3281C19.1072 12.2609 19.1072 12.2609 19.2092 12.1965C19.2476 12.1723 19.2859 12.1481 19.3255 12.1231C19.5529 11.9873 19.7838 11.8585 20.0156 11.7305C20.0667 11.7014 20.1179 11.6724 20.1705 11.6424C20.4025 11.5108 20.632 11.3843 20.877 11.2784C21.1825 11.1454 21.1825 11.1454 21.4219 10.9219C21.5239 10.604 21.5018 10.2657 21.4688 9.93751C20.7948 10.3213 20.1216 10.7063 19.4522 11.0979C19.0929 11.3081 18.7327 11.5167 18.3721 11.7246C18.321 11.7541 18.27 11.7835 18.2174 11.8138C18.1234 11.868 18.0293 11.9221 17.9351 11.976C17.8597 12.0196 17.7847 12.0638 17.7102 12.109C17.5 12.2356 17.5 12.2356 17.332 12.2227C17.2895 12.2111 17.247 12.1995 17.2031 12.1875C17.1567 12.1875 17.1103 12.1875 17.0625 12.1875C17.047 12.203 17.0316 12.2185 17.0156 12.2344C16.7418 12.2518 16.7418 12.2518 16.6406 12.2344C16.5359 12.0773 16.5357 12.0273 16.5377 11.8442C16.538 11.796 16.5383 11.7478 16.5386 11.6982C16.5394 11.6479 16.5402 11.5977 16.541 11.5459C16.5414 11.4951 16.5419 11.4443 16.5423 11.392C16.5434 11.2665 16.5449 11.1411 16.5469 11.0156C16.4903 11.0489 16.4903 11.0489 16.4325 11.0828C16.2891 11.1671 16.1456 11.2513 16.0021 11.3355C15.9407 11.3716 15.8792 11.4077 15.8178 11.4438C15.6382 11.5493 15.4585 11.6545 15.2786 11.7594C15.2168 11.7954 15.155 11.8315 15.0933 11.8677C15.0024 11.9208 14.9113 11.9736 14.8202 12.0264C14.7669 12.0574 14.7136 12.0884 14.6586 12.1203C14.5312 12.1875 14.5312 12.1875 14.4375 12.1875C14.4327 12.2243 14.4278 12.261 14.4229 12.2988C14.3906 12.4219 14.3906 12.4219 14.25 12.5156C14.1812 12.5096 14.1812 12.5096 14.111 12.5034C13.8354 12.4962 13.6093 12.6706 13.3799 12.8057C13.3022 12.8503 13.3022 12.8503 13.2229 12.8959C13.0648 12.9871 12.9073 13.0793 12.75 13.1719C12.7052 13.1981 12.6605 13.2244 12.6144 13.2514C12.4037 13.3751 12.1936 13.4996 11.9837 13.6245C11.6445 13.8259 11.3024 14.0222 10.9605 14.2189C10.6139 14.4185 10.2681 14.6194 9.92285 14.8213C9.55567 15.0359 9.18763 15.249 8.81836 15.46C8.77653 15.4839 8.73469 15.5078 8.69159 15.5324C8.37176 15.7148 8.20018 15.804 7.82812 15.7031C7.59473 15.5861 7.37606 15.4482 7.15469 15.3101C6.92029 15.1664 6.68093 15.0312 6.44238 14.8945C6.04417 14.6654 5.64667 14.435 5.25 14.2031C4.86012 13.9753 4.46944 13.7489 4.07812 13.5235C3.68681 13.2981 3.29614 13.0716 2.90625 12.8438C2.49481 12.6033 2.08265 12.3642 1.66992 12.126C1.61693 12.0954 1.56394 12.0648 1.50934 12.0332C1.46045 12.0051 1.41157 11.9769 1.36121 11.9478C1.3178 11.9228 1.27439 11.8978 1.22967 11.872C1.16442 11.8349 1.09836 11.7992 1.03125 11.7656C1.03125 12.1214 1.03125 12.4772 1.03125 12.8438C1.12406 12.8747 1.21687 12.9056 1.3125 12.9375C1.39067 12.9778 1.46761 13.0206 1.54321 13.0655C1.58677 13.0912 1.63033 13.1169 1.67521 13.1433C1.7218 13.1711 1.7684 13.1989 1.81641 13.2276C1.91783 13.2874 2.01927 13.3472 2.12073 13.407C2.17304 13.4379 2.22535 13.4688 2.27925 13.5007C2.53225 13.6495 2.78661 13.796 3.04102 13.9424C3.14331 14.0014 3.24561 14.0603 3.3479 14.1193C3.45068 14.1785 3.55346 14.2377 3.65625 14.2969C4.29705 14.666 4.93733 15.0359 5.5758 15.409C5.97561 15.6424 6.37616 15.8746 6.77787 16.1048C7.01543 16.241 7.25176 16.3786 7.48535 16.5216C7.52618 16.5463 7.56701 16.571 7.60907 16.5964C7.68453 16.6421 7.75958 16.6885 7.83413 16.7357C7.86726 16.7556 7.90038 16.7756 7.93451 16.7961C7.977 16.8225 7.977 16.8225 8.02035 16.8495C8.18767 16.8975 8.3189 16.7946 8.46438 16.7165C8.50705 16.6917 8.54972 16.6669 8.59369 16.6414C8.64212 16.6133 8.69056 16.5853 8.74046 16.5564C8.81817 16.5111 8.81817 16.5111 8.89746 16.4649C8.95214 16.4331 9.00682 16.4014 9.06151 16.3696C9.17391 16.3044 9.28624 16.2391 9.39853 16.1736C9.54949 16.0857 9.70063 15.998 9.85181 15.9104C9.94386 15.857 10.0359 15.8035 10.1279 15.75C10.1732 15.7237 10.2184 15.6975 10.265 15.6704C10.5144 15.5249 10.7622 15.3769 11.0085 15.2262C11.0621 15.1935 11.1157 15.1608 11.1693 15.1281C11.2715 15.0656 11.3735 15.0028 11.4752 14.9395C11.5214 14.9113 11.5676 14.8831 11.6151 14.8541C11.6556 14.829 11.696 14.804 11.7377 14.7782C11.9067 14.6957 12.0634 14.6552 12.249 14.6953C12.3281 14.7656 12.3281 14.7656 12.3779 14.9209C12.375 15.0938 12.375 15.0938 12.2873 15.2047C12.1047 15.3736 11.8831 15.4827 11.666 15.6006C11.2528 15.8295 10.8441 16.0646 10.4385 16.3067C9.86151 16.6504 9.282 16.9895 8.69797 17.3212C8.62467 17.3637 8.55211 17.4075 8.48099 17.4535C8.35164 17.5362 8.26707 17.5781 8.11194 17.5787C7.92711 17.5175 7.76771 17.4324 7.59961 17.335C7.56326 17.3144 7.52692 17.2937 7.48947 17.2725C7.36764 17.2031 7.24627 17.1329 7.125 17.0625C7.0609 17.0254 7.0609 17.0254 6.9955 16.9874C6.76237 16.8521 6.52961 16.7161 6.297 16.5799C5.99752 16.4046 5.69713 16.2309 5.39648 16.0576C5.34588 16.0285 5.29527 15.9993 5.24313 15.9693C5.14046 15.9101 5.03778 15.8509 4.9351 15.7918C4.6299 15.6159 4.32484 15.4398 4.01976 15.2638C3.76473 15.1166 3.50966 14.9696 3.25452 14.8226C2.74035 14.5263 2.22661 14.2294 1.71387 13.9307C1.64221 13.889 1.64221 13.889 1.5691 13.8464C1.52509 13.8208 1.48108 13.7951 1.43573 13.7686C1.39709 13.7461 1.35845 13.7236 1.31865 13.7004C1.23702 13.6516 1.15726 13.5996 1.07812 13.5469C1.07812 13.8717 1.07812 14.1966 1.07812 14.5313C1.14967 14.571 1.22121 14.6108 1.29492 14.6517C1.89682 14.9871 2.49475 15.3282 3.08917 15.6766C3.38674 15.851 3.68548 16.0232 3.98437 16.1953C4.42213 16.4475 4.85889 16.7012 5.29504 16.9561C5.68916 17.1863 6.0842 17.4148 6.48014 17.6419C6.74048 17.7914 6.99933 17.9429 7.25629 18.0982C7.30756 18.1289 7.35883 18.1596 7.41165 18.1913C7.5094 18.25 7.60684 18.3092 7.70389 18.3691C7.7476 18.3952 7.79132 18.4213 7.83636 18.4483C7.87451 18.4715 7.91266 18.4948 7.95196 18.5188C8.09104 18.5738 8.15566 18.5613 8.29687 18.5156C8.40675 18.4655 8.40675 18.4655 8.51605 18.4008C8.55813 18.3769 8.6002 18.3529 8.64355 18.3283C8.68867 18.3021 8.73379 18.276 8.78027 18.249C8.82784 18.2218 8.8754 18.1946 8.92441 18.1665C9.35345 17.9204 9.78054 17.6708 10.2074 17.4209C10.5779 17.2041 10.95 16.99 11.322 16.7759C11.3705 16.748 11.4189 16.7201 11.4688 16.6914C11.5115 16.6668 11.5542 16.6423 11.5981 16.617C11.6801 16.5693 11.761 16.5199 11.8409 16.4688C11.9966 16.382 12.1062 16.3836 12.2812 16.4063C12.375 16.4824 12.375 16.4824 12.4219 16.5938C12.4336 16.7285 12.4336 16.7285 12.375 16.875C12.0916 17.1102 11.7443 17.2802 11.4248 17.4604C11.279 17.5427 11.1335 17.6256 10.988 17.7083C10.9585 17.7251 10.9291 17.7418 10.8988 17.759C10.6221 17.9164 10.347 18.0766 10.0723 18.2373C10.0051 18.2764 10.0051 18.2764 9.93649 18.3164C9.71367 18.4461 9.49142 18.5767 9.2703 18.7094C9.15952 18.7757 9.0484 18.8414 8.93723 18.9071C8.85845 18.9539 8.78011 19.0015 8.70179 19.049C8.23861 19.3218 8.23861 19.3218 7.96875 19.2656C7.84552 19.207 7.73978 19.1484 7.62598 19.0752C7.55547 19.0318 7.48491 18.9886 7.41431 18.9454C7.37579 18.9216 7.33726 18.8978 7.29758 18.8733C7.062 18.7301 6.82218 18.5942 6.58301 18.457C6.1848 18.2278 5.7873 17.9975 5.39062 17.7656C4.84935 17.4494 4.30645 17.136 3.76323 16.823C3.45875 16.6476 3.1544 16.4719 2.85005 16.2963C2.61158 16.1587 2.37308 16.0211 2.13446 15.8838C2.02146 15.8188 1.90849 15.7537 1.79552 15.6886C1.71556 15.6426 1.63556 15.5966 1.55557 15.5506C1.4832 15.5089 1.4832 15.5089 1.40936 15.4664C1.3668 15.4419 1.32423 15.4174 1.28038 15.3922C1.19572 15.3422 1.11304 15.2889 1.03125 15.2344C0.975259 15.5648 0.945375 15.9039 1.07812 16.2188C1.33459 16.4937 1.70573 16.6384 2.04069 16.7961C2.3063 16.9252 2.55827 17.0766 2.8125 17.2266C2.91498 17.2858 3.01752 17.3448 3.12012 17.4038C3.40876 17.5704 3.69667 17.7381 3.98437 17.9063C4.57675 18.2524 5.1711 18.5951 5.76562 18.9375C5.91972 19.0263 6.07381 19.115 6.22786 19.2039C6.3291 19.2622 6.43039 19.3204 6.53175 19.3785C6.79073 19.5273 7.0478 19.6785 7.30279 19.834C7.35412 19.865 7.40544 19.8959 7.45832 19.9278C7.55624 19.987 7.65375 20.0469 7.75079 20.1076C7.7945 20.1339 7.8382 20.1601 7.88324 20.1872C7.92139 20.2107 7.95953 20.2342 7.99884 20.2584C8.10956 20.3087 8.10956 20.3087 8.22572 20.265C8.28414 20.2344 8.28414 20.2344 8.34375 20.2031C8.40133 20.1732 8.40133 20.1732 8.46008 20.1427C8.50079 20.1198 8.54149 20.097 8.58344 20.0735C8.65289 20.0346 8.65289 20.0346 8.72375 19.995C8.77334 19.967 8.82293 19.939 8.87402 19.9102C8.92606 19.8809 8.9781 19.8517 9.03171 19.8215C9.37931 19.6255 9.72493 19.4262 10.0693 19.2246C10.2089 19.143 10.3486 19.0614 10.4882 18.9798C10.5672 18.9336 10.6462 18.8874 10.7251 18.8411C10.9038 18.7364 11.0827 18.6322 11.2619 18.5285C11.3198 18.4949 11.3776 18.4611 11.4354 18.4271C11.516 18.3798 11.5971 18.333 11.6781 18.2862C11.7245 18.2592 11.7708 18.2322 11.8186 18.2044C11.9607 18.137 12.078 18.1075 12.2344 18.0938C12.3457 18.1406 12.3457 18.1406 12.4219 18.2344C12.4482 18.3955 12.4482 18.3955 12.4219 18.5625C12.2178 18.7628 11.9524 18.888 11.7041 19.0254C11.3179 19.2412 10.9342 19.4605 10.5527 19.6846C10.1121 19.9431 9.66801 20.195 9.2214 20.4431C9.1535 20.4808 9.1535 20.4808 9.08423 20.5194C9.03979 20.5439 8.99534 20.5684 8.94955 20.5937C8.8528 20.6489 8.75737 20.7065 8.66299 20.7657C8.61396 20.7962 8.56492 20.8267 8.5144 20.8581C8.47043 20.8863 8.42646 20.9146 8.38115 20.9436C8.21776 21.0139 8.13823 21.0016 7.96875 20.9531C7.8557 20.9023 7.8557 20.9023 7.74499 20.8383C7.70307 20.8144 7.66115 20.7904 7.61795 20.7658C7.57323 20.7396 7.5285 20.7135 7.48242 20.6865C7.41139 20.6457 7.41139 20.6457 7.33892 20.604C7.18921 20.5178 7.03988 20.4308 6.89062 20.3438C6.79791 20.2899 6.7052 20.236 6.61249 20.1821C6.42631 20.0737 6.24031 19.965 6.05438 19.8562C5.6044 19.593 5.15244 19.3332 4.70073 19.073C4.39553 18.8972 4.09047 18.7211 3.78538 18.5451C3.53035 18.3979 3.27528 18.2508 3.02014 18.1038C2.5128 17.8115 2.00586 17.5185 1.5 17.2236C1.45498 17.1974 1.40995 17.1712 1.36356 17.1442C1.27847 17.0945 1.19345 17.0447 1.10852 16.9947C1.02307 16.9446 0.93736 16.8949 0.85144 16.8456C0.809263 16.821 0.767087 16.7965 0.723632 16.7712C0.685867 16.7494 0.648101 16.7277 0.609191 16.7053C0.515625 16.6406 0.515625 16.6406 0.421875 16.5C0.409684 16.3992 0.409685 16.3992 0.409024 16.28C0.408557 16.2348 0.408088 16.1896 0.407607 16.143C0.407575 16.0935 0.407544 16.044 0.407512 15.9929C0.406927 15.9146 0.406928 15.9146 0.406331 15.8347C0.405198 15.6616 0.404789 15.4884 0.40448 15.3153C0.404059 15.1952 0.403631 15.0751 0.403196 14.955C0.402423 14.7031 0.402061 14.4511 0.401927 14.1992C0.401757 13.9081 0.400356 13.6171 0.398393 13.326C0.39657 13.0458 0.39604 12.7657 0.395987 12.4856C0.395789 12.3664 0.395205 12.2473 0.394228 12.1282C0.392972 11.9616 0.393192 11.7952 0.393779 11.6286C0.393084 11.5793 0.392389 11.5299 0.391672 11.4791C0.395043 11.1441 0.395043 11.1441 0.533909 10.9645C0.648044 10.881 0.759615 10.8034 0.882385 10.7333C0.926095 10.7081 0.969804 10.6828 1.01484 10.6569C1.06183 10.6302 1.10881 10.6036 1.15723 10.5762C1.20675 10.5477 1.25628 10.5193 1.3073 10.4899C1.4122 10.4297 1.51718 10.3696 1.62225 10.3096C1.82653 10.1929 2.0302 10.0751 2.23387 9.95735C2.54047 9.78014 2.8474 9.60353 3.15427 9.42679C3.69735 9.11394 4.2401 8.80058 4.78125 8.48439C5.32266 8.16805 5.8657 7.85456 6.40906 7.54158C6.56085 7.45409 6.71256 7.36648 6.86426 7.27882C7.38605 6.97735 7.90836 6.67682 8.43164 6.37794C8.45881 6.36243 8.48597 6.34691 8.51396 6.33092C8.79093 6.17275 9.06797 6.01469 9.34508 5.85677C10.8388 5.00542 12.3272 4.14288 13.79 3.23906C13.8304 3.21419 13.8709 3.18933 13.9125 3.16371C13.9474 3.14213 13.9823 3.12055 14.0182 3.09832C14.2084 2.99102 14.3235 2.98919 14.5312 3.04689ZM13.8838 3.88771C13.8403 3.91259 13.7967 3.93746 13.7519 3.96309C13.3598 4.1887 12.9735 4.4234 12.5876 4.65934C12.1791 4.90893 11.7678 5.15239 11.3525 5.39064C11.3022 5.41955 11.2519 5.44847 11.2 5.47826C11.1043 5.53319 11.0087 5.58811 10.913 5.64303C10.726 5.75049 10.5393 5.85836 10.3535 5.96779C10.3246 5.98443 10.2958 6.00108 10.266 6.01823C10.2018 6.0564 10.1396 6.09813 10.0781 6.14064C10.0781 6.17158 10.0781 6.20251 10.0781 6.23439C10.1575 6.28438 10.2377 6.33294 10.3184 6.38087C10.3852 6.42166 10.3852 6.42166 10.4535 6.46327C10.635 6.53105 10.6976 6.49259 10.875 6.42189C10.9611 6.37762 11.0459 6.33084 11.1295 6.282C11.202 6.23991 11.202 6.23991 11.2759 6.19697C11.3273 6.16678 11.3787 6.13659 11.4316 6.10548C11.4858 6.07393 11.5399 6.0424 11.5941 6.01089C11.7336 5.9297 11.8728 5.84822 12.0121 5.76663C12.1405 5.69135 12.2691 5.61626 12.3977 5.54115C12.4457 5.51307 12.4938 5.48499 12.5433 5.45607C12.6376 5.40103 12.732 5.34615 12.8266 5.29143C13.0317 5.1726 13.2356 5.0529 13.4359 4.9261C13.7648 4.72176 14.0116 4.58552 14.4117 4.66701C14.5302 4.69597 14.5302 4.69597 14.6397 4.6581C14.8051 4.63517 14.8785 4.67878 15.0249 4.75673C15.0744 4.78297 15.1239 4.80921 15.1749 4.83624C15.4241 4.97551 15.6696 5.12011 15.9141 5.26759C16.0252 5.33416 16.1364 5.40052 16.2477 5.46681C16.2902 5.49215 16.2902 5.49215 16.3335 5.51799C16.6466 5.70408 16.9628 5.88447 17.2793 6.06447C18.0159 6.48378 18.0159 6.48378 18.3809 6.69728C18.413 6.71597 18.4452 6.73467 18.4784 6.75393C18.5969 6.82358 18.6992 6.88676 18.7969 6.98439C18.8145 7.11916 18.8145 7.11916 18.7969 7.26564C18.7344 7.32814 18.6719 7.39064 18.6094 7.45314C18.5781 7.59376 18.5781 7.59376 18.6094 7.73439C18.6413 7.76436 18.6732 7.79433 18.7061 7.82521C18.7969 7.92189 18.7969 7.92189 18.8134 8.07112C18.7892 8.20525 18.7553 8.24568 18.6481 8.33281C18.5021 8.42239 18.3536 8.50391 18.2021 8.584C18.147 8.61425 18.0919 8.64464 18.0369 8.67514C17.9241 8.73757 17.8111 8.79952 17.6979 8.86118C17.4464 8.99901 17.2004 9.14606 16.9541 9.29298C16.8713 9.34206 16.7885 9.39114 16.7056 9.4402C16.6696 9.46174 16.6335 9.48328 16.5964 9.50548C16.5164 9.55279 16.4355 9.59851 16.3544 9.64381C16.3251 9.66339 16.2958 9.68297 16.2656 9.70314C16.2656 9.73408 16.2656 9.76501 16.2656 9.79689C16.3732 9.89375 16.3732 9.89375 16.5146 9.98439C16.5609 10.0173 16.6071 10.0501 16.6547 10.084C16.897 10.1413 17.0024 10.0545 17.209 9.92873C17.2534 9.90069 17.2979 9.87265 17.3438 9.84376C17.4257 9.7974 17.5079 9.75149 17.5904 9.70607C17.6752 9.65828 17.76 9.61043 17.8447 9.56251C17.9141 9.52331 17.9141 9.52331 17.9848 9.48331C18.4598 9.21398 18.9313 8.93868 19.4024 8.66257C19.5524 8.57491 19.7027 8.48775 19.853 8.40071C19.9033 8.37155 19.9536 8.34239 20.0054 8.31235C20.1009 8.25699 20.1964 8.20172 20.292 8.14657C20.5661 7.98736 20.8323 7.82 21.0938 7.64064C20.9813 7.51616 20.861 7.44002 20.7156 7.35719C20.6674 7.32954 20.6191 7.3019 20.5694 7.27341C20.5172 7.24378 20.4649 7.21414 20.4111 7.18361C20.3563 7.15226 20.3015 7.1209 20.2466 7.0895C20.1326 7.02426 20.0186 6.95911 19.9045 6.89405C19.6422 6.74438 19.3807 6.59337 19.1191 6.4424C19.0435 6.39878 19.0435 6.39878 18.9663 6.35428C18.5816 6.13228 18.1978 5.90864 17.8143 5.68451C17.4706 5.48381 17.1261 5.28461 16.7812 5.08595C15.1791 4.16274 15.1791 4.16274 14.5406 3.77283C14.2542 3.59891 14.1632 3.72777 13.8838 3.88771ZM13.0414 5.80094C12.7432 5.98825 12.4376 6.16227 12.1318 6.33693C12.0325 6.3942 11.9332 6.45151 11.8339 6.50886C11.6395 6.62097 11.4449 6.73265 11.25 6.84376C11.4682 7.03576 11.7149 7.16675 11.9678 7.30666C12.3508 7.5208 12.7318 7.73792 13.1104 7.95998C13.5853 8.2383 14.0627 8.51233 14.5411 8.78474C14.5927 8.81415 14.6443 8.84356 14.6975 8.87386C14.7477 8.90225 14.7979 8.93064 14.8496 8.95989C14.9526 9.01945 15.0545 9.08078 15.1555 9.14359C15.205 9.1741 15.2545 9.20461 15.3054 9.23604C15.3493 9.26384 15.3932 9.29164 15.4384 9.32028C15.5891 9.38675 15.6429 9.38254 15.7969 9.32814C15.8944 9.27845 15.9901 9.22493 16.0842 9.16902C16.1115 9.1529 16.1388 9.13678 16.167 9.12017C16.2557 9.06775 16.3442 9.01485 16.4326 8.96193C16.4936 8.92577 16.5546 8.88964 16.6156 8.85354C16.7961 8.74657 16.9762 8.63897 17.1562 8.53126C17.2075 8.50066 17.2588 8.47005 17.3116 8.43852C17.5727 8.28259 17.8334 8.12604 18.0938 7.96876C18.0823 7.92526 18.0823 7.92526 18.0707 7.88087C18.0469 7.78131 18.0406 7.69589 18.041 7.59376C18.0409 7.56283 18.0408 7.53189 18.0406 7.50001C18.0472 7.40146 18.0687 7.31411 18.0938 7.21876C17.7996 7.01595 17.498 6.83514 17.1855 6.66212C16.659 6.36769 16.1402 6.06161 15.622 5.75282C15.5733 5.72399 15.5247 5.69516 15.4745 5.66546C15.375 5.6061 15.276 5.54597 15.1773 5.48514C14.8289 5.27346 14.5451 5.13709 14.1325 5.21451C13.7395 5.33385 13.3864 5.58417 13.0414 5.80094ZM9.08148 6.68959C9.03323 6.71683 8.98498 6.74406 8.93527 6.77212C8.88412 6.80157 8.83297 6.83101 8.78027 6.86134C8.7281 6.89103 8.67592 6.92071 8.62216 6.95129C8.4666 7.04001 8.3114 7.12933 8.15625 7.21876C8.11265 7.24371 8.06904 7.26865 8.02412 7.29434C7.91171 7.35865 7.79954 7.42335 7.6875 7.4883C7.65447 7.50729 7.62143 7.52629 7.5874 7.54586C7.42226 7.63545 7.42226 7.63545 7.3125 7.78126C7.34241 7.79727 7.37231 7.81327 7.40313 7.82976C7.94773 8.1217 8.48948 8.41618 9.02032 8.7325C9.28446 8.88977 9.55099 9.04289 9.81738 9.1963C9.86928 9.22621 9.92118 9.25611 9.97465 9.28692C10.0811 9.34824 10.1875 9.40955 10.294 9.47085C10.4997 9.58937 10.7054 9.70803 10.9111 9.82671C11.0123 9.88509 11.1134 9.94346 11.2146 10.0018C11.4693 10.1487 11.7239 10.2957 11.9782 10.4431C12.4985 10.7443 13.0199 11.0434 13.5439 11.3379C13.594 11.3661 13.644 11.3943 13.6955 11.4233C13.7416 11.4492 13.7877 11.475 13.8353 11.5016C13.8759 11.5244 13.9165 11.5471 13.9583 11.5706C14.0658 11.6303 14.0658 11.6303 14.2031 11.6719C14.3351 11.6146 14.3351 11.6146 14.4792 11.5272C14.5063 11.5116 14.5334 11.496 14.5613 11.48C14.6492 11.4292 14.7367 11.3777 14.8242 11.3262C14.884 11.2915 14.9438 11.2568 15.0036 11.2221C15.4111 10.9855 15.8169 10.746 16.2188 10.5C16.093 10.3661 15.972 10.2685 15.813 10.177C15.7479 10.1393 15.7479 10.1393 15.6816 10.1009C15.6345 10.074 15.5875 10.0472 15.5391 10.0195C15.4895 9.99096 15.4399 9.96237 15.3889 9.93291C15.2554 9.85604 15.1218 9.77943 14.988 9.70301C14.854 9.6264 14.7201 9.54957 14.5862 9.47279C14.2556 9.28352 13.9247 9.09484 13.5938 8.90626C13.3711 8.77938 13.1484 8.65244 12.9258 8.52541C12.8985 8.50983 12.8712 8.49425 12.843 8.47819C12.4181 8.23567 11.9953 7.98961 11.5733 7.74215C11.1801 7.51234 10.7833 7.2893 10.385 7.06841C10.3167 7.03045 10.3167 7.03045 10.2469 6.99171C10.2031 6.96736 10.1592 6.94301 10.1141 6.91792C9.94529 6.82141 9.78096 6.71828 9.61732 6.61333C9.40592 6.5077 9.27014 6.58216 9.08148 6.68959ZM6.3891 8.22987C6.3446 8.25609 6.30011 8.28231 6.25426 8.30933C6.20613 8.3381 6.15799 8.36686 6.1084 8.3965C6.00556 8.45724 5.90271 8.51797 5.79987 8.57869C5.74726 8.60989 5.69465 8.64109 5.64045 8.67324C5.4035 8.81352 5.16565 8.95221 4.92773 9.09084C4.8585 9.13123 4.8585 9.13123 4.78788 9.17244C4.29204 9.4616 3.79474 9.74821 3.29736 10.0347C3.0812 10.1592 2.86507 10.2838 2.64896 10.4085C2.54688 10.4673 2.44478 10.5262 2.34267 10.5851C2.24935 10.6389 2.1561 10.6928 2.06291 10.7468C1.96276 10.8046 1.86222 10.8616 1.76143 10.9182C1.70984 10.9475 1.65825 10.9767 1.6051 11.0069C1.55802 11.0333 1.51095 11.0597 1.46244 11.0869C1.41142 11.1212 1.41142 11.1212 1.35937 11.1563C1.35937 11.1872 1.35937 11.2181 1.35937 11.25C1.38614 11.265 1.41291 11.2801 1.44049 11.2955C2.00683 11.6137 2.57078 11.9355 3.13138 12.2637C3.47743 12.4662 3.8244 12.6671 4.17187 12.8672C4.60949 13.1193 5.04616 13.3729 5.48213 13.6278C5.72585 13.7702 5.96992 13.9119 6.2146 14.0526C6.29213 14.0972 6.29213 14.0972 6.37122 14.1427C6.47435 14.202 6.57752 14.2612 6.68072 14.3203C6.92379 14.4601 7.16518 14.6017 7.40369 14.7492C7.46838 14.789 7.46838 14.789 7.53438 14.8296C7.61481 14.8794 7.69494 14.9297 7.7747 14.9805C7.8101 15.0024 7.84549 15.0243 7.88196 15.0469C7.91249 15.0662 7.94303 15.0856 7.97449 15.1055C8.09035 15.1518 8.13408 15.1387 8.25 15.0938C8.33984 15.0475 8.42833 14.9986 8.51587 14.9482C8.5951 14.9027 8.5951 14.9027 8.67593 14.8564C8.73317 14.8232 8.79042 14.79 8.84766 14.7569C8.90703 14.7227 8.96641 14.6885 9.02579 14.6543C9.44102 14.4152 9.85509 14.1741 10.2686 13.9321C10.6076 13.7338 10.9477 13.5375 11.2881 13.3418C11.7795 13.0591 12.2679 12.7717 12.755 12.4818C13.0022 12.3347 13.2496 12.1884 13.5 12.0469C13.4004 11.9417 13.2985 11.8573 13.1777 11.7774C13.1469 11.7563 13.1161 11.7353 13.0844 11.7136C12.948 11.6567 12.8902 11.6719 12.75 11.7188C12.6327 11.7813 12.5204 11.8457 12.4072 11.9151C12.3357 11.958 12.2642 12.0009 12.1926 12.0438C12.1348 12.0786 12.1348 12.0786 12.0759 12.1141C11.8554 12.246 11.6332 12.3747 11.4111 12.5039C11.3145 12.5603 11.2179 12.6166 11.1213 12.6729C10.9283 12.7854 10.7353 12.8978 10.5423 13.0102C10.4955 13.0375 10.4488 13.0647 10.4006 13.0928C10.3072 13.1472 10.2138 13.2015 10.1203 13.2558C9.88344 13.3937 9.64758 13.5331 9.41309 13.6751C9.36632 13.7032 9.31956 13.7314 9.27139 13.7604C9.1827 13.8139 9.09423 13.8677 9.00602 13.922C8.68127 14.1174 8.45333 14.1765 8.07861 14.1167C7.96427 14.1036 7.96427 14.1036 7.83824 14.1408C7.6494 14.1602 7.57767 14.1177 7.41577 14.0215C7.36373 13.9911 7.31169 13.9608 7.25807 13.9295C7.20199 13.8957 7.14591 13.8619 7.08984 13.8281C7.03125 13.7936 6.97261 13.7592 6.91392 13.7248C6.79309 13.6539 6.67249 13.5826 6.55206 13.511C6.33736 13.3836 6.12091 13.2594 5.90435 13.1352C5.44886 12.8738 4.99486 12.6099 4.54102 12.3457C4.4952 12.3191 4.44938 12.2925 4.40218 12.265C4.31727 12.2155 4.2325 12.1658 4.14789 12.1158C4.07145 12.0706 3.99468 12.0261 3.91754 11.9821C3.8834 11.9621 3.84926 11.9421 3.81409 11.9215C3.76939 11.8958 3.76939 11.8958 3.72379 11.8696C3.65625 11.8125 3.65625 11.8125 3.62109 11.6455C3.66064 11.4643 3.71226 11.4199 3.84375 11.2969C3.84733 11.1979 3.84733 11.1979 3.79687 11.1094C3.7727 11.0891 3.74853 11.0688 3.72363 11.0479C3.65625 10.9688 3.65625 10.9688 3.62109 10.8135C3.65625 10.6406 3.65625 10.6406 3.73219 10.5734C3.76586 10.5521 3.79954 10.5309 3.83423 10.509C3.87258 10.4848 3.91094 10.4606 3.95045 10.4356C4.17786 10.2998 4.40863 10.1707 4.64062 10.043C5.00829 9.83883 5.37435 9.63297 5.73579 9.418C5.94394 9.2944 6.15325 9.17293 6.36328 9.05257C6.391 9.03666 6.41873 9.02075 6.44729 9.00436C6.55926 8.94013 6.67122 8.87591 6.78336 8.81198C6.86161 8.76736 6.93975 8.72256 7.01788 8.67775C7.06338 8.65177 7.10887 8.62578 7.15575 8.59901C7.26922 8.53488 7.26922 8.53488 7.35937 8.43751C7.26093 8.38246 7.16228 8.32784 7.06348 8.27345C7.03559 8.2578 7.0077 8.24215 6.97897 8.22603C6.7305 8.08999 6.62919 8.08719 6.3891 8.22987ZM21.1593 8.27675C21.0923 8.31608 21.0923 8.31608 21.024 8.3562C20.9755 8.38497 20.927 8.41374 20.877 8.44337C20.7737 8.50411 20.6704 8.56484 20.5671 8.62556C20.4878 8.67237 20.4878 8.67237 20.4068 8.72012C20.1694 8.86 19.9314 8.9989 19.6934 9.13771C19.6475 9.16447 19.6017 9.19123 19.5544 9.2188C19.2544 9.39382 18.9538 9.56799 18.6526 9.74104C18.5485 9.80123 18.4446 9.86195 18.3411 9.92323C18.1154 10.0562 17.8947 10.181 17.6523 10.2808C17.3416 10.4086 17.3416 10.4086 17.1094 10.6406C17.0174 11.0084 17.0603 11.3939 17.1094 11.7656C17.5056 11.541 17.8997 11.3128 18.293 11.083C18.6946 10.8483 19.0969 10.615 19.5 10.3828C19.9118 10.1456 20.3229 9.90744 20.7334 9.66798C20.7804 9.64058 20.8274 9.61318 20.8758 9.58495C21.0552 9.48018 21.0552 9.48018 21.2344 9.37501C21.2772 9.35422 21.3201 9.33343 21.3643 9.31202C21.4796 9.2438 21.4796 9.2438 21.4954 9.11946C21.4941 9.07503 21.4929 9.03059 21.4916 8.98482C21.4909 8.93663 21.4901 8.88844 21.4893 8.83879C21.4874 8.78855 21.4854 8.7383 21.4834 8.68654C21.4823 8.63575 21.4813 8.58496 21.4802 8.53264C21.4774 8.40712 21.4736 8.28172 21.4688 8.15626C21.3386 8.15626 21.2713 8.21058 21.1593 8.27675ZM7.7265 8.86452C7.66235 8.90365 7.59958 8.94511 7.53809 8.9883C7.46455 9.03434 7.391 9.08036 7.31744 9.12636C7.27873 9.15163 7.24002 9.1769 7.20014 9.20294C6.98627 9.34023 6.76502 9.46485 6.54492 9.59181C6.44993 9.64743 6.35496 9.7031 6.26001 9.7588C6.04053 9.88707 5.82026 10.0139 5.59936 10.1397C5.56972 10.1566 5.54007 10.1734 5.50953 10.1908C5.36474 10.2733 5.21986 10.3556 5.07488 10.4377C5.02234 10.4676 4.96979 10.4974 4.91565 10.5282C4.8693 10.5545 4.82294 10.5807 4.77518 10.6078C4.63276 10.6922 4.49632 10.7821 4.35937 10.875C4.3633 10.9022 4.36723 10.9294 4.37128 10.9574C4.37605 10.994 4.38082 11.0306 4.38574 11.0684C4.39308 11.1222 4.39308 11.1222 4.40057 11.1771C4.40718 11.3166 4.38387 11.441 4.35937 11.5781C4.38991 11.5958 4.42045 11.6134 4.45191 11.6315C4.49521 11.6565 4.53852 11.6815 4.58313 11.7072C4.65622 11.7494 4.65622 11.7494 4.73078 11.7924C4.84006 11.8555 4.94932 11.9185 5.05859 11.9816C5.33807 12.1429 5.61763 12.304 5.89746 12.4647C5.94853 12.4941 5.99961 12.5235 6.05223 12.5538C6.15414 12.6123 6.25616 12.6707 6.35829 12.7289C6.59511 12.8645 6.82799 13.0027 7.05542 13.1536C7.622 13.5301 7.622 13.5301 8.28314 13.6046C8.69718 13.5076 9.06456 13.2479 9.42043 13.0255C9.60548 12.9109 9.79358 12.802 9.98206 12.6932C10.1224 12.6121 10.2623 12.5304 10.402 12.4484C10.5985 12.3333 10.7952 12.2184 10.992 12.1038C11.0421 12.0747 11.0921 12.0455 11.1437 12.0155C11.2386 11.9602 11.3336 11.9049 11.4285 11.8497C11.7141 11.6833 11.9982 11.5145 12.2812 11.3438C12.165 11.2138 12.0373 11.1371 11.8859 11.0517C11.8339 11.0222 11.7819 10.9927 11.7283 10.9622C11.6714 10.9302 11.6145 10.8982 11.5576 10.8662C11.4986 10.8328 11.4396 10.7994 11.3806 10.7659C11.2578 10.6963 11.135 10.6268 11.0121 10.5573C10.7539 10.4113 10.4965 10.2637 10.2391 10.1162C9.80228 9.86612 9.36485 9.61707 8.92676 9.36916C8.88471 9.34534 8.84267 9.32152 8.79935 9.29698C8.71932 9.25176 8.63903 9.20699 8.55848 9.1627C8.47272 9.11383 8.38867 9.06191 8.306 9.00798C8.03212 8.82442 8.03212 8.82442 7.7265 8.86452Z" fill="#D62828"/>
<path d="M19.1719 13.4063C19.544 13.7715 19.544 13.7715 19.5515 14.038C19.5511 14.1028 19.5506 14.1676 19.5498 14.2324C19.5496 14.2655 19.5494 14.2986 19.5492 14.3328C19.5486 14.4146 19.5478 14.4963 19.5469 14.5781C19.593 14.5706 19.6391 14.563 19.6866 14.5552C20.7613 14.4029 22.2637 14.5502 23.1562 15.208C23.3613 15.3785 23.4928 15.5409 23.5781 15.7969C23.5834 15.9211 23.586 16.0441 23.5864 16.1683C23.5867 16.2062 23.587 16.244 23.5874 16.283C23.5883 16.4082 23.5888 16.5335 23.5893 16.6588C23.5895 16.7016 23.5897 16.7444 23.5899 16.7886C23.5909 17.0154 23.5915 17.2423 23.592 17.4692C23.5925 17.703 23.5941 17.9369 23.596 18.1707C23.5972 18.3509 23.5976 18.5311 23.5977 18.7113C23.598 18.7975 23.5985 18.8836 23.5994 18.9698C23.6005 19.0908 23.6005 19.2116 23.6002 19.3326C23.6011 19.3855 23.6011 19.3855 23.602 19.4394C23.599 19.741 23.5039 19.9866 23.2982 20.2095C22.1233 21.0814 20.4851 21.1052 19.0885 20.9225C18.9341 20.8984 18.7846 20.8616 18.6328 20.8242C18.3309 20.7545 18.1091 20.7848 17.8125 20.8594C16.4825 21.1146 14.6644 21.1713 13.4722 20.4064C13.2175 20.2187 13.0391 20.0393 12.9375 19.7344C12.9329 19.6567 12.931 19.5789 12.9306 19.5011C12.9303 19.4529 12.9299 19.4048 12.9296 19.3552C12.9295 19.3023 12.9293 19.2495 12.9292 19.1951C12.9289 19.1394 12.9286 19.0838 12.9283 19.0264C12.9273 18.8418 12.9268 18.6572 12.9263 18.4726C12.9261 18.4089 12.9259 18.3453 12.9258 18.2816C12.9249 17.9825 12.9242 17.6834 12.9238 17.3842C12.9233 17.0394 12.9221 16.6947 12.9202 16.3499C12.9188 16.0831 12.9181 15.8163 12.918 15.5495C12.9178 15.3903 12.9174 15.2311 12.9162 15.0719C12.9151 14.894 12.9151 14.7162 12.9155 14.5384C12.9149 14.486 12.9143 14.4337 12.9137 14.3797C12.9162 13.9972 12.9869 13.7209 13.2627 13.4473C14.6117 12.391 17.7848 12.3252 19.1719 13.4063ZM13.5469 14.0625C13.5331 14.1749 13.5331 14.1749 13.5938 14.2969C14.1397 14.8913 15.2226 14.9597 15.9804 14.9933C16.9151 15.0231 18.1425 14.9737 18.8906 14.3438C18.9568 14.2217 18.9568 14.2217 18.9844 14.1094C18.5955 13.5711 17.8279 13.4481 17.209 13.3477C16.064 13.2144 14.4238 13.1856 13.5469 14.0625ZM13.5469 15C13.54 15.167 13.5359 15.3339 13.5322 15.501C13.5303 15.5482 13.5283 15.5954 13.5263 15.6441C13.5195 15.9276 13.5195 15.9276 13.6496 16.1726C14.4063 16.7072 15.3116 16.7922 16.2129 16.793C16.2452 16.793 16.2776 16.793 16.3109 16.7931C17.2358 16.7916 18.2949 16.7207 18.9844 16.0313C18.9974 15.9221 18.9974 15.9221 18.9935 15.7965C18.9932 15.7503 18.9929 15.7041 18.9926 15.6564C18.9918 15.608 18.991 15.5596 18.9902 15.5098C18.9898 15.461 18.9894 15.4122 18.989 15.362C18.9878 15.2413 18.9863 15.1207 18.9844 15C18.9282 15.0221 18.8721 15.0441 18.8143 15.0668C18.3435 15.2482 17.8918 15.3959 17.3906 15.4688C17.3608 15.4731 17.3311 15.4775 17.3004 15.4819C16.0309 15.6465 14.7202 15.5168 13.5469 15ZM19.5469 15.1875C19.5469 15.698 19.5469 16.2084 19.5469 16.7344C20.2126 17.0673 21.502 16.7613 22.1982 16.5322C22.4536 16.4334 22.7282 16.3249 22.9219 16.125C22.9662 16.0088 22.9662 16.0088 22.9688 15.8906C22.6183 15.4072 21.8694 15.274 21.3193 15.1758C20.7881 15.1069 20.057 15.0175 19.5469 15.1875ZM13.5469 16.8281C13.54 16.9951 13.5359 17.162 13.5322 17.3291C13.5303 17.3763 13.5283 17.4235 13.5263 17.4722C13.5194 17.757 13.5194 17.757 13.6522 18.0022C14.6608 18.7175 16.1835 18.7378 17.3613 18.5508C17.9051 18.4551 18.4791 18.3296 18.9014 17.9539C19.0259 17.7418 19.0045 17.5465 18.9961 17.3057C18.9952 17.2598 18.9944 17.2139 18.9935 17.1666C18.9913 17.0537 18.9882 16.9409 18.9844 16.8281C18.9523 16.8412 18.9202 16.8543 18.8871 16.8679C17.2712 17.5043 15.3049 17.5812 13.6888 16.8911C13.642 16.8703 13.5951 16.8495 13.5469 16.8281ZM22.6846 16.9336C21.668 17.3578 20.632 17.3547 19.5469 17.3438C19.5469 17.7459 19.5469 18.1481 19.5469 18.5625C20.2035 18.8908 21.4952 18.5774 22.1807 18.3604C22.4991 18.2469 22.7316 18.0965 22.9688 17.8594C22.9818 17.7502 22.9818 17.7502 22.9779 17.6246C22.9776 17.5784 22.9773 17.5322 22.977 17.4846C22.9762 17.4362 22.9754 17.3878 22.9746 17.3379C22.9742 17.2891 22.9738 17.2404 22.9733 17.1901C22.9722 17.0694 22.9707 16.9488 22.9688 16.8281C22.8722 16.8281 22.7703 16.8953 22.6846 16.9336ZM13.5469 18.6563C13.54 18.8154 13.5359 18.9745 13.5322 19.1338C13.5303 19.1788 13.5283 19.2238 13.5263 19.2701C13.5203 19.5457 13.5203 19.5457 13.6522 19.782C14.6514 20.502 16.184 20.5171 17.3555 20.335C17.8954 20.2406 18.4686 20.103 18.8906 19.7344C18.9908 19.5842 18.9957 19.5471 18.9935 19.3749C18.9932 19.3331 18.9929 19.2913 18.9926 19.2481C18.9918 19.2046 18.991 19.1611 18.9902 19.1162C18.9898 19.0721 18.9894 19.0281 18.989 18.9826C18.9878 18.8738 18.9863 18.765 18.9844 18.6563C18.8388 18.7042 18.694 18.7533 18.5499 18.8055C16.9574 19.3691 15.102 19.3162 13.5469 18.6563ZM22.6348 18.7617C21.6461 19.1762 20.603 19.1906 19.5469 19.1719C19.5457 19.216 19.5445 19.2601 19.5432 19.3055C19.517 19.8808 19.517 19.8808 19.3125 20.1094C19.2854 20.1461 19.2584 20.1829 19.2305 20.2207C19.2111 20.2458 19.1918 20.271 19.1719 20.2969C19.3593 20.4843 19.9941 20.4017 20.2441 20.4023C21.1812 20.402 22.269 20.3403 22.9688 19.6406C22.9818 19.5361 22.9818 19.5361 22.9779 19.4161C22.9776 19.372 22.9773 19.3279 22.977 19.2825C22.9762 19.2363 22.9754 19.1901 22.9746 19.1426C22.9742 19.0961 22.9738 19.0495 22.9733 19.0016C22.9722 18.8865 22.9707 18.7714 22.9688 18.6563C22.8391 18.6563 22.753 18.7082 22.6348 18.7617Z" fill="#D62828"/>
<path d="M8.71875 10.5C8.8988 10.6161 9.01767 10.7253 9.11719 10.916C9.15767 11.169 9.13439 11.3578 9.01758 11.5869C8.78238 11.8654 8.52706 12.016 8.1572 12.0572C7.6586 12.0854 7.1902 12.0572 6.77344 11.751C6.61945 11.5854 6.522 11.434 6.51123 11.2024C6.52875 10.9729 6.59728 10.8168 6.75 10.6406C7.29735 10.2111 8.11023 10.1714 8.71875 10.5ZM7.17188 11.0625C7.13413 11.1586 7.13413 11.1586 7.125 11.25C7.39713 11.4375 7.6375 11.497 7.96875 11.4844C8.18091 11.4438 8.37598 11.4053 8.53125 11.25C8.53785 11.1549 8.53785 11.1549 8.48438 11.0625C8.09514 10.7998 7.5697 10.8266 7.17188 11.0625Z" fill="#D62828"/>
<path d="M15.5332 6.46583C15.8256 6.69558 15.8256 6.69558 15.8906 6.89064C15.9157 7.10676 15.9128 7.26814 15.8145 7.46486C15.5748 7.74231 15.3143 7.93121 14.9457 7.98297C14.8413 7.98924 14.7384 7.99068 14.6338 7.98927C14.597 7.98895 14.5602 7.98863 14.5222 7.9883C14.086 7.97632 13.7155 7.86408 13.4062 7.54689C13.2778 7.33734 13.2884 7.12938 13.3125 6.89064C13.4115 6.6344 13.639 6.4431 13.8838 6.32594C14.4275 6.13635 15.0349 6.17975 15.5332 6.46583ZM13.9687 6.98439C13.9378 7.03079 13.9069 7.0772 13.875 7.12501C14.0644 7.33895 14.3253 7.39424 14.6016 7.42384C14.8556 7.39663 15.1042 7.35393 15.2842 7.1631C15.3059 7.12104 15.3059 7.12104 15.3281 7.07814C15.0747 6.85993 14.9154 6.83632 14.584 6.83204C14.528 6.83084 14.4721 6.82963 14.4144 6.82838C14.2328 6.84537 14.1228 6.88824 13.9687 6.98439Z" fill="#D62828"/>
</svg>
