<svg width="24" height="24" viewBox="0 0 24 24" fill="none" xmlns="http://www.w3.org/2000/svg">
<g clip-path="url(#clip0_232_1049)">
<path d="M12.5918 0.594725C12.6669 0.63922 12.6669 0.63922 12.75 0.703124C12.8165 0.752651 12.8165 0.752651 12.8844 0.80318C13.0422 0.935534 13.1286 1.09048 13.2142 1.27551C13.2299 1.30831 13.2457 1.34111 13.2619 1.37491C13.4397 1.74947 13.6007 2.13128 13.7607 2.51367C13.7945 2.59376 13.8283 2.67385 13.8621 2.75392C13.9166 2.88311 13.9711 3.01231 14.0255 3.14155C14.2424 3.65651 14.4618 4.17044 14.681 4.68443C14.7959 4.95404 14.9108 5.22369 15.0256 5.49335C15.0586 5.57065 15.0586 5.57065 15.0921 5.64952C15.3746 6.31292 15.6563 6.97669 15.9375 7.64062C16.2815 7.67363 16.6256 7.70654 16.9696 7.7394C17.098 7.75167 17.2264 7.76397 17.3547 7.7763C18.18 7.85554 19.0054 7.93264 19.8312 8.00668C20.1063 8.03139 20.3813 8.05636 20.6564 8.08133C20.9272 8.10587 21.1981 8.12996 21.4689 8.15375C21.6398 8.16885 21.8106 8.18439 21.9815 8.20003C22.0612 8.20724 22.1409 8.21428 22.2206 8.22112C23.3044 8.31436 23.3044 8.31436 23.7187 8.71875C24.0221 9.11613 24.0342 9.50132 24 9.98437C23.9289 10.2471 23.7779 10.4126 23.5781 10.5937C23.5292 10.6445 23.4804 10.6952 23.4316 10.7461C23.298 10.88 23.1572 10.9996 23.0098 11.1182C22.8086 11.2799 22.6178 11.4486 22.4297 11.625C22.2076 11.8331 21.9787 12.0277 21.7412 12.2183C21.5634 12.3665 21.3955 12.5243 21.2266 12.6825C21.0707 12.8277 20.9115 12.9654 20.7451 13.0986C20.54 13.2631 20.3475 13.4371 20.1562 13.6172C19.9262 13.8338 19.6904 14.0373 19.4436 14.2348C19.2622 14.3856 19.0901 14.5456 18.9183 14.7071C18.8824 14.7408 18.8824 14.7408 18.8458 14.7751C18.8225 14.7974 18.7993 14.8197 18.7753 14.8426C18.7031 14.9062 18.7031 14.9062 18.6208 14.9604C18.5283 15.0185 18.5283 15.0185 18.4219 15.1406C18.4368 15.4846 18.5198 15.8156 18.5974 16.1502C18.6105 16.2076 18.6236 16.2651 18.6371 16.3243C18.6728 16.4807 18.7088 16.6371 18.7449 16.7935C18.7828 16.9578 18.8203 17.1223 18.8579 17.2867C18.9292 17.598 19.0007 17.9092 19.0723 18.2204C19.1614 18.6079 19.2502 18.9955 19.339 19.383C19.4297 19.779 19.5205 20.175 19.6114 20.571C19.6254 20.632 19.6394 20.6929 19.6534 20.7539C19.6792 20.8659 19.7049 20.978 19.7307 21.09C19.7633 21.2319 19.7957 21.3737 19.8281 21.5156C19.8376 21.5568 19.847 21.598 19.8567 21.6405C19.8652 21.678 19.8737 21.7154 19.8824 21.7541C19.8897 21.7862 19.897 21.8183 19.9046 21.8514C20.0002 22.327 19.8946 22.7261 19.6318 23.124C19.3497 23.3936 19.0393 23.5351 18.6504 23.5459C18.6097 23.5476 18.5689 23.5494 18.527 23.5512C18.0679 23.4909 17.6692 23.2164 17.2793 22.9834C17.2196 22.9481 17.1599 22.9127 17.1002 22.8774C16.6327 22.6004 16.1682 22.3185 15.7042 22.0356C15.2557 21.7622 14.8042 21.4945 14.3516 21.2281C14.0761 21.0657 13.801 20.9027 13.526 20.7395C13.4611 20.701 13.3961 20.6625 13.3311 20.624C13.2692 20.5873 13.2072 20.5506 13.1453 20.5139C13.0852 20.4782 13.025 20.4427 12.9648 20.4072C12.8184 20.3205 12.6742 20.2319 12.5323 20.1381C12.5051 20.1203 12.4778 20.1026 12.4497 20.0843C12.3758 20.0359 12.3024 19.9866 12.2291 19.9373C12.0612 19.86 11.9878 19.8685 11.8125 19.9219C11.6808 19.9852 11.6808 19.9852 11.5507 20.0695C11.5001 20.1007 11.4495 20.1319 11.3974 20.164C11.3572 20.1893 11.3572 20.1893 11.3162 20.215C11.2007 20.2875 11.0845 20.359 10.9684 20.4305C10.9068 20.4685 10.8452 20.5065 10.7837 20.5445C10.4729 20.7363 10.1589 20.9226 9.8444 21.1083C9.33914 21.4067 8.83584 21.708 8.33496 22.0137C7.81925 22.3283 7.29973 22.6359 6.77761 22.9397C6.44195 23.1353 6.44195 23.1353 6.11132 23.3392C5.78453 23.5423 5.44017 23.5829 5.0625 23.5312C4.68513 23.4071 4.40928 23.2266 4.21875 22.875C4.20297 22.8461 4.1872 22.8172 4.17096 22.7875C3.97364 22.3532 4.07946 21.8482 4.18553 21.4032C4.19697 21.353 4.20841 21.3028 4.22019 21.2512C4.25783 21.0867 4.29633 20.9224 4.33483 20.7581C4.36154 20.6422 4.38819 20.5262 4.41479 20.4102C4.47775 20.1362 4.54125 19.8623 4.60503 19.5885C4.6835 19.2515 4.76122 18.9143 4.83892 18.5771C4.9188 18.2305 4.99871 17.8839 5.07919 17.5375C5.1398 17.2765 5.19994 17.0154 5.25985 16.7543C5.2856 16.6426 5.31157 16.531 5.33769 16.4194C5.3785 16.245 5.4187 16.0705 5.4588 15.896C5.47148 15.8425 5.48415 15.7891 5.49721 15.7339C5.50853 15.6842 5.51985 15.6344 5.53151 15.5831C5.54167 15.5394 5.55183 15.4957 5.56229 15.4507C5.57961 15.3166 5.57013 15.2229 5.53125 15.0937C5.43167 14.9782 5.43167 14.9782 5.30273 14.8711C5.27958 14.8508 5.25642 14.8305 5.23257 14.8095C5.0388 14.6409 4.83823 14.4806 4.63824 14.3194C4.44798 14.1594 4.26818 13.9891 4.08723 13.8187C3.88491 13.6293 3.67477 13.4533 3.45831 13.2801C3.30823 13.1553 3.16582 13.024 3.02343 12.8906C2.84082 12.7196 2.65625 12.5551 2.46093 12.3984C2.2076 12.195 1.97111 11.9764 1.73364 11.755C1.51572 11.5519 1.29064 11.3577 1.06329 11.1652C0.0340638 10.2926 0.0340638 10.2926 -0.0192303 9.81042C-0.0398746 9.42238 -0.00728143 9.08439 0.234371 8.76562C0.478806 8.49902 0.763787 8.3394 1.12547 8.29624C1.15484 8.2927 1.18422 8.28916 1.21449 8.28551C1.75709 8.22272 2.3018 8.17742 2.84579 8.12845C3.01484 8.1132 3.18388 8.09776 3.35293 8.08235C3.67235 8.05324 3.99179 8.02428 4.31123 7.99537C4.88376 7.94356 5.45628 7.89155 6.02878 7.83943C6.22926 7.82118 6.42975 7.80301 6.63024 7.7849C6.72488 7.77634 6.81952 7.76776 6.91415 7.75916C7.02908 7.74872 7.14402 7.73832 7.25896 7.72799C7.35843 7.71892 7.45788 7.70955 7.55729 7.69978C7.63915 7.69206 7.72112 7.68548 7.80319 7.68054C7.9938 7.66804 7.9938 7.66804 8.14095 7.55655C8.15588 7.51961 8.1708 7.48266 8.18618 7.4446C8.20415 7.4023 8.22212 7.36 8.24063 7.31641C8.25871 7.26962 8.27678 7.22283 8.29541 7.17462C8.32593 7.10113 8.32593 7.10113 8.35706 7.02615C8.42433 6.86334 8.48947 6.69977 8.55468 6.53613C8.60144 6.42206 8.64837 6.30805 8.69546 6.19411C8.76908 6.01583 8.84257 5.83749 8.91534 5.65885C9.08663 5.23849 9.2622 4.82016 9.44146 4.40314C9.45383 4.37437 9.46619 4.3456 9.47893 4.31596C9.54047 4.17287 9.6021 4.02982 9.66378 3.88679C9.75513 3.67479 9.84612 3.46263 9.93703 3.25044C9.98036 3.14942 10.0238 3.04842 10.0672 2.94746C10.1715 2.70521 10.275 2.46268 10.3762 2.21915C10.4259 2.09965 10.4761 1.98031 10.5262 1.86098C10.5613 1.777 10.5959 1.6928 10.6304 1.60858C10.7822 1.24791 10.9488 0.859311 11.3057 0.659179C11.3363 0.641353 11.3669 0.623528 11.3985 0.605162C11.717 0.446945 12.2707 0.4395 12.5918 0.594725ZM11.9531 2.48437C11.9421 2.51026 11.9311 2.53614 11.9198 2.56281C11.4695 3.62126 11.0193 4.6797 10.5661 5.73688C10.5535 5.76616 10.541 5.79545 10.5281 5.82562C10.3949 6.13617 10.2617 6.44667 10.1284 6.75714C10.1061 6.80916 10.0837 6.86119 10.0607 6.91478C10.0174 7.01578 9.97402 7.11675 9.93061 7.21771C9.83255 7.44614 9.73544 7.67487 9.64092 7.90479C9.62404 7.94568 9.60715 7.98656 9.58975 8.02869C9.55892 8.10361 9.52835 8.17865 9.49813 8.25383C9.32987 8.66214 9.11165 8.92017 8.70556 9.09694C8.46773 9.17846 8.22284 9.19401 7.9736 9.21559C7.91606 9.22115 7.85852 9.22671 7.79924 9.23244C7.62143 9.24943 7.44354 9.26541 7.26562 9.28125C7.16077 9.291 7.05592 9.3008 6.95108 9.31064C6.69334 9.33458 6.43553 9.3575 6.17766 9.38006C6.01052 9.39471 5.84339 9.40957 5.67627 9.42448C5.20234 9.46674 4.7284 9.50883 4.25441 9.55038C3.9617 9.57605 3.66902 9.60209 3.37637 9.62837C3.26559 9.63824 3.1548 9.64798 3.04399 9.65757C2.89035 9.67089 2.73675 9.68467 2.58316 9.69856C2.53768 9.70238 2.4922 9.70621 2.44534 9.71015C2.38272 9.71595 2.38272 9.71595 2.31884 9.72188C2.28269 9.72506 2.24654 9.72825 2.2093 9.73153C2.10014 9.7517 2.01837 9.78977 1.92187 9.84375C2.34542 10.2419 2.34542 10.2419 2.78906 10.6172C3.01223 10.7962 3.22091 10.987 3.42956 11.1824C3.58646 11.3285 3.74672 11.4673 3.91406 11.6016C4.13727 11.7807 4.34598 11.9714 4.55466 12.1669C4.71054 12.3121 4.86971 12.4498 5.03613 12.583C5.24121 12.7475 5.43375 12.9215 5.625 13.1016C5.93291 13.3914 6.2565 13.6576 6.58612 13.9224C6.87852 14.1676 7.09172 14.4324 7.17187 14.8125C7.20342 15.2004 7.13641 15.5554 7.04783 15.9315C7.03464 15.9895 7.02146 16.0475 7.00788 16.1072C6.97205 16.2648 6.93554 16.4222 6.89892 16.5796C6.86054 16.7451 6.82283 16.9108 6.78506 17.0765C6.7135 17.3899 6.6414 17.7031 6.56908 18.0163C6.43958 18.5773 6.31101 19.1384 6.18262 19.6996C6.13762 19.8962 6.09238 20.0928 6.04695 20.2893C6.0255 20.3822 6.00413 20.4751 5.9828 20.568C5.95688 20.6808 5.93082 20.7936 5.9046 20.9064C5.84384 21.1719 5.7931 21.4321 5.76562 21.7031C6.18633 21.4792 6.59577 21.2383 7.00488 20.9941C7.07235 20.954 7.13982 20.9138 7.2073 20.8737C7.59093 20.6453 7.97404 20.416 8.35661 20.1859C8.59328 20.0436 8.83046 19.9022 9.06793 19.7613C9.09913 19.7428 9.13034 19.7242 9.16249 19.7052C9.32442 19.6091 9.48642 19.5131 9.64849 19.4172C9.95335 19.2368 10.2574 19.0552 10.5591 18.8696C10.638 18.8213 10.638 18.8213 10.7184 18.7721C10.8155 18.7126 10.9124 18.6526 11.009 18.5921C11.4508 18.3219 11.8579 18.1588 12.375 18.2812C12.8195 18.4728 13.2331 18.7238 13.6436 18.9785C13.7587 19.0494 13.8741 19.12 13.9894 19.1905C14.0333 19.2174 14.0333 19.2174 14.0781 19.2448C14.3907 19.4358 14.7069 19.6204 15.0234 19.8047C15.557 20.1157 16.0859 20.4335 16.6132 20.755C17.1362 21.0739 17.6618 21.3886 18.1875 21.7031C18.2416 21.5421 18.2266 21.4329 18.1887 21.2686C18.1774 21.2186 18.1661 21.1686 18.1545 21.1171C18.1416 21.0625 18.1288 21.0079 18.1157 20.9516C18.1025 20.8939 18.0893 20.8361 18.0757 20.7767C18.0396 20.6184 18.0029 20.4603 17.9662 20.3022C17.9278 20.1367 17.8899 19.971 17.8519 19.8054C17.7799 19.4915 17.7075 19.1777 17.635 18.864C17.5445 18.4727 17.4545 18.0814 17.3646 17.6901C17.3331 17.5531 17.3016 17.4161 17.2702 17.2791C17.2625 17.2459 17.2549 17.2127 17.247 17.1785C17.1944 16.9496 17.1416 16.7207 17.0888 16.4919C17.0746 16.4305 17.0604 16.3691 17.0463 16.3078C17.0201 16.1943 16.9939 16.0808 16.9676 15.9674C16.9503 15.8922 16.9503 15.8922 16.9326 15.8154C16.9225 15.772 16.9125 15.7285 16.9021 15.6838C16.7947 15.2036 16.7702 14.7876 17.0156 14.3437C17.1385 14.1737 17.2696 14.0477 17.4346 13.9189C17.6389 13.7554 17.8327 13.5853 18.0234 13.4062C18.205 13.2361 18.3885 13.0726 18.583 12.917C18.7881 12.7525 18.9806 12.5785 19.1719 12.3984C19.4022 12.1816 19.6383 11.9778 19.8854 11.7801C20.0355 11.6553 20.1779 11.524 20.3203 11.3906C20.5029 11.2196 20.6875 11.0551 20.8828 10.8984C21.1096 10.7164 21.3228 10.5229 21.5352 10.3244C21.6716 10.197 21.8092 10.0723 21.9521 9.95215C21.9937 9.91638 22.0353 9.8806 22.0781 9.84375C22.0781 9.82828 22.0781 9.81281 22.0781 9.79687C21.4738 9.70518 20.8661 9.65456 20.2573 9.60202C20.0701 9.58582 19.8828 9.56938 19.6956 9.55285C19.1637 9.50593 18.6318 9.45926 18.0998 9.41326C17.8048 9.38773 17.5097 9.36187 17.2147 9.33564C17.0593 9.32183 16.9038 9.30825 16.7484 9.29499C16.5751 9.2802 16.4018 9.26482 16.2286 9.24931C16.1781 9.24514 16.1276 9.24097 16.0755 9.23668C15.6343 9.1961 15.1028 9.147 14.7993 8.78845C14.5512 8.44049 14.4022 8.047 14.2406 7.65417C14.1441 7.41991 14.0462 7.18627 13.9486 6.95251C13.9279 6.90273 13.9071 6.85295 13.8858 6.80166C13.6289 6.18582 13.3651 5.57297 13.1016 4.95996C13.0102 4.74739 12.9189 4.53481 12.8276 4.3222C12.8059 4.27161 12.7842 4.22101 12.7618 4.16888C12.5214 3.60827 12.2839 3.04641 12.0469 2.48437C12.0159 2.48437 11.985 2.48437 11.9531 2.48437Z" fill="#D62828"/>
</g>
<defs>
<clipPath id="clip0_232_1049">
<rect width="24" height="24" fill="white"/>
</clipPath>
</defs>
</svg>
