<svg width="24" height="24" viewBox="0 0 24 24" fill="none" xmlns="http://www.w3.org/2000/svg">
<path d="M7.12032 8.57154C7.1635 8.5714 7.20669 8.57126 7.25118 8.57112C7.39648 8.57071 7.54179 8.57064 7.6871 8.57057C7.79103 8.57035 7.89497 8.57012 7.9989 8.56987C8.28171 8.56925 8.56451 8.56895 8.84731 8.56874C9.0239 8.5686 9.20048 8.56841 9.37707 8.5682C9.866 8.56763 10.3549 8.56715 10.8439 8.56699C10.8752 8.56698 10.9064 8.56697 10.9387 8.56696C10.9857 8.56694 10.9857 8.56694 11.0337 8.56693C11.0973 8.56691 11.1609 8.56688 11.2244 8.56686C11.2717 8.56685 11.2717 8.56685 11.32 8.56683C11.8308 8.56665 12.3417 8.56583 12.8525 8.56474C13.377 8.56363 13.9016 8.56305 14.4261 8.56299C14.7205 8.56294 15.015 8.56266 15.3095 8.56182C15.5865 8.56105 15.8635 8.56095 16.1404 8.56136C16.2421 8.5614 16.3438 8.56119 16.4455 8.56073C16.5843 8.56014 16.7231 8.56041 16.8618 8.5609C16.9223 8.56033 16.9223 8.56033 16.984 8.55975C17.2823 8.56222 17.4735 8.62875 17.7041 8.82715C17.9642 9.12947 17.9735 9.38631 17.9713 9.76959C17.9717 9.8499 17.9717 9.8499 17.9721 9.93183C17.9727 10.1085 17.9723 10.2852 17.9718 10.4619C17.9719 10.5848 17.972 10.7078 17.9722 10.8307C17.9725 11.0883 17.9721 11.3458 17.9715 11.6033C17.9707 11.9007 17.9709 12.198 17.9717 12.4953C17.9724 12.7819 17.9724 13.0684 17.9719 13.355C17.9718 13.4767 17.972 13.5984 17.9723 13.7201C17.9726 13.8902 17.9721 14.0603 17.9713 14.2304C17.9716 14.2807 17.9719 14.3309 17.9722 14.3827C17.9694 14.7119 17.9241 14.9172 17.7041 15.1729C17.4318 15.4071 17.2083 15.4424 16.8628 15.4397C16.7978 15.4401 16.7978 15.4401 16.7315 15.4404C16.5867 15.441 16.4418 15.4405 16.2969 15.4401C16.193 15.4403 16.089 15.4405 15.9851 15.4408C15.7029 15.4415 15.4206 15.4412 15.1384 15.4408C14.8432 15.4404 14.5479 15.4407 14.2526 15.441C13.725 15.4412 13.1973 15.4408 12.6697 15.4401C12.1915 15.4394 11.7132 15.4396 11.235 15.4402C10.6794 15.441 10.1238 15.4412 9.56822 15.4408C9.2742 15.4406 8.9802 15.4406 8.68618 15.441C8.40978 15.4414 8.13338 15.4412 7.85698 15.4404C7.75551 15.4402 7.65403 15.4402 7.55256 15.4405C7.41411 15.4409 7.27569 15.4404 7.13723 15.4397C7.09703 15.44 7.05682 15.4404 7.01539 15.4407C6.71753 15.4378 6.52612 15.3709 6.2959 15.1729C6.03627 14.8711 6.02632 14.6145 6.02794 14.2319C6.02761 14.1785 6.02729 14.1251 6.02696 14.0701C6.0261 13.8939 6.02628 13.7176 6.02655 13.5414C6.02634 13.4187 6.02609 13.296 6.02581 13.1732C6.02534 12.9161 6.02549 12.659 6.02597 12.4018C6.0265 12.1052 6.02585 11.8087 6.02459 11.5121C6.02342 11.226 6.02331 10.94 6.02361 10.6539C6.02362 10.5325 6.02333 10.4112 6.02275 10.2898C6.02205 10.1199 6.02255 9.9501 6.02336 9.78023C6.0229 9.7303 6.02245 9.68037 6.02198 9.62893C6.02531 9.29233 6.07289 9.02294 6.31952 8.77313C6.34653 8.75615 6.37354 8.73917 6.40137 8.72168C6.44206 8.69494 6.44206 8.69494 6.48358 8.66766C6.68919 8.55651 6.89357 8.57131 7.12032 8.57154ZM6.65625 9.1875C6.56457 9.32351 6.55074 9.43371 6.5506 9.5956C6.55033 9.63976 6.55007 9.68392 6.54979 9.72942C6.54998 9.77754 6.55017 9.82566 6.55037 9.87524C6.5502 9.92618 6.55004 9.97711 6.54987 10.0296C6.54946 10.1981 6.54973 10.3666 6.55005 10.5352C6.54999 10.6521 6.54989 10.7691 6.54978 10.8861C6.54964 11.1314 6.54983 11.3766 6.55028 11.6219C6.55079 11.9053 6.55062 12.1887 6.55011 12.4721C6.54963 12.7449 6.54968 13.0177 6.54995 13.2906C6.55002 13.4066 6.54994 13.5226 6.54972 13.6386C6.54948 13.8007 6.54985 13.9627 6.55037 14.1248C6.55018 14.1729 6.54999 14.221 6.54979 14.2706C6.55006 14.3147 6.55032 14.3589 6.5506 14.4044C6.55063 14.4427 6.55067 14.481 6.5507 14.5205C6.56425 14.6405 6.58869 14.7123 6.65625 14.8125C6.82915 14.948 7.04739 14.9193 7.25654 14.9182C7.29868 14.9183 7.34082 14.9184 7.38423 14.9186C7.52573 14.919 7.66722 14.9187 7.80872 14.9184C7.91004 14.9185 8.01136 14.9187 8.11269 14.9189C8.38812 14.9193 8.66355 14.9191 8.93898 14.9188C9.22692 14.9186 9.51486 14.9188 9.8028 14.919C10.2864 14.9191 10.77 14.9189 11.2536 14.9185C11.8131 14.918 12.3725 14.9181 12.932 14.9186C13.412 14.9191 13.8919 14.9191 14.3718 14.9189C14.6587 14.9187 14.9455 14.9187 15.2323 14.919C15.502 14.9193 15.7716 14.9191 16.0412 14.9186C16.1403 14.9184 16.2394 14.9185 16.3385 14.9187C16.4735 14.9189 16.6085 14.9186 16.7435 14.9182C16.7829 14.9184 16.8224 14.9186 16.863 14.9188C17.1203 14.9219 17.1203 14.9219 17.3438 14.8125C17.4354 14.6765 17.4493 14.5663 17.4494 14.4044C17.4497 14.3602 17.4499 14.3161 17.4502 14.2706C17.45 14.2225 17.4498 14.1743 17.4496 14.1248C17.4498 14.0738 17.45 14.0229 17.4501 13.9704C17.4505 13.8019 17.4503 13.6334 17.45 13.4648C17.45 13.3479 17.4501 13.2309 17.4502 13.1139C17.4504 12.8686 17.4502 12.6234 17.4497 12.3781C17.4492 12.0947 17.4494 11.8113 17.4499 11.5279C17.4504 11.2551 17.4503 10.9823 17.45 10.7094C17.45 10.5934 17.4501 10.4774 17.4503 10.3614C17.4505 10.1993 17.4502 10.0373 17.4496 9.87524C17.4499 9.80306 17.4499 9.80306 17.4502 9.72942C17.4498 9.66318 17.4498 9.66318 17.4494 9.5956C17.4494 9.5573 17.4493 9.519 17.4493 9.47954C17.4358 9.3595 17.4113 9.28772 17.3438 9.1875C17.1708 9.05198 16.9526 9.08074 16.7435 9.08184C16.7013 9.0817 16.6592 9.08155 16.6158 9.0814C16.4743 9.08103 16.3328 9.08132 16.1913 9.08162C16.09 9.08149 15.9886 9.08132 15.8873 9.08112C15.6119 9.08069 15.3365 9.08086 15.061 9.08116C14.7731 9.08139 14.4851 9.08117 14.1972 9.08103C13.7136 9.08086 13.23 9.08108 12.7464 9.08153C12.1869 9.08204 11.6275 9.08187 11.068 9.08136C10.588 9.08093 10.1081 9.08087 9.62817 9.08112C9.34134 9.08126 9.05451 9.08128 8.76768 9.08097C8.49805 9.0807 8.22842 9.08089 7.95879 9.08143C7.8597 9.08155 7.7606 9.08152 7.66151 9.08131C7.52652 9.08106 7.39153 9.08138 7.25654 9.08184C7.19736 9.08153 7.19736 9.08153 7.13699 9.08121C6.87969 9.07806 6.87969 9.07806 6.65625 9.1875Z" fill="#D62828"/>
<path d="M4.83105 8.13867C4.96875 8.15625 4.96875 8.15625 5.0625 8.25C5.09599 8.53965 5.0084 8.73591 4.88965 8.99121C4.69889 9.42362 4.56064 9.85276 4.45312 10.3125C4.43814 10.3723 4.42315 10.432 4.40771 10.4936C4.01791 12.2386 4.3796 14.2097 5.25 15.75C5.26674 15.7801 5.28347 15.8102 5.30072 15.8413C5.5295 16.2499 5.78305 16.6165 6.09375 16.9688C6.12855 17.0087 6.16336 17.0486 6.19922 17.0898C6.30313 17.2072 6.40885 17.3227 6.51562 17.4375C6.54662 17.4716 6.57762 17.5057 6.60956 17.5408C7.34719 18.319 8.36144 18.9282 9.375 19.2656C9.41044 19.2776 9.44588 19.2895 9.48239 19.3018C10.2376 19.5522 10.9732 19.6792 11.7656 19.7344C11.7651 19.688 11.7646 19.6416 11.7641 19.5939C11.7624 19.4221 11.7614 19.2504 11.7605 19.0786C11.76 19.0042 11.7594 18.9299 11.7586 18.8555C11.7574 18.7487 11.7569 18.6419 11.7565 18.535C11.756 18.5017 11.7555 18.4683 11.755 18.434C11.755 18.3517 11.7599 18.2695 11.7656 18.1875C11.8594 18.0938 11.8594 18.0938 12 18.0725C12.2496 18.0805 12.4458 18.2171 12.6562 18.3398C12.7485 18.3919 12.8408 18.4439 12.9331 18.4958C12.9804 18.5226 13.0276 18.5493 13.0763 18.5769C13.3009 18.702 13.5293 18.8197 13.7578 18.9375C14.1312 19.1314 14.5035 19.327 14.874 19.5264C14.9183 19.5498 14.9625 19.5733 15.0081 19.5975C15.0487 19.6195 15.0894 19.6416 15.1313 19.6642C15.1671 19.6835 15.203 19.7027 15.2399 19.7226C15.3281 19.7812 15.3281 19.7812 15.4219 19.9219C15.4248 20.0586 15.4248 20.0586 15.375 20.2031C15.2639 20.286 15.1688 20.3444 15.0465 20.4055C15.0129 20.4232 14.9794 20.441 14.9448 20.4593C14.874 20.4967 14.803 20.5336 14.7318 20.5702C14.6298 20.6225 14.5285 20.6761 14.4275 20.7303C14.2302 20.8358 14.0321 20.94 13.834 21.0439C13.2891 21.3286 13.2891 21.3286 12.752 21.6275C12.7134 21.6497 12.6748 21.6719 12.6351 21.6948C12.5681 21.7338 12.5015 21.7734 12.4354 21.8137C12.2365 21.9297 12.0887 21.9641 11.8594 21.9375C11.7656 21.8438 11.7656 21.8438 11.755 21.6868C11.755 21.6199 11.7555 21.5529 11.7565 21.486C11.7566 21.4507 11.7567 21.4155 11.7569 21.3792C11.7574 21.2664 11.7586 21.1537 11.7598 21.041C11.7602 20.9647 11.7607 20.8883 11.761 20.812C11.7621 20.6246 11.7637 20.4373 11.7656 20.25C11.7266 20.2506 11.6876 20.2513 11.6474 20.252C11.3353 20.2549 11.0361 20.2471 10.7285 20.1943C10.691 20.1881 10.6536 20.1818 10.615 20.1753C9.27978 19.9409 7.9932 19.4246 6.9375 18.5625C6.89665 18.5311 6.8558 18.4997 6.81372 18.4673C5.40852 17.3661 4.42959 15.8023 3.97265 14.083C3.95533 14.0182 3.95533 14.0182 3.93766 13.9522C3.77343 13.3071 3.7323 12.6766 3.73535 12.0146C3.73545 11.9752 3.73555 11.9358 3.73566 11.8952C3.738 11.3259 3.75128 10.7735 3.89062 10.2188C3.89994 10.1803 3.90925 10.1418 3.91884 10.1021C4.39156 8.19249 4.39156 8.19249 4.83105 8.13867ZM12.2344 18.75C12.2344 19.5853 12.2344 20.4206 12.2344 21.2812C12.8113 20.9944 12.8113 20.9944 13.3824 20.697C13.4145 20.6799 13.4465 20.6629 13.4794 20.6453C13.5781 20.5927 13.6768 20.54 13.7754 20.4873C13.8764 20.4334 13.9774 20.3796 14.0784 20.3258C14.1404 20.2927 14.2023 20.2597 14.2643 20.2266C14.4745 20.1143 14.4745 20.1143 14.5781 20.0625C14.5781 20.0316 14.5781 20.0006 14.5781 19.9688C14.5452 19.9518 14.5122 19.9349 14.4783 19.9174C14.3221 19.837 14.1659 19.7565 14.0098 19.6758C13.9673 19.6538 13.9673 19.6538 13.9239 19.6314C13.4752 19.3993 13.03 19.1614 12.5879 18.9168C12.548 18.8947 12.5081 18.8727 12.4669 18.85C12.432 18.8306 12.3971 18.8112 12.3612 18.7912C12.2893 18.7464 12.2893 18.7464 12.2344 18.75Z" fill="#D62828"/>
<path d="M12.1406 2.06249C12.2344 2.15624 12.2344 2.15624 12.245 2.31318C12.245 2.38013 12.2445 2.44708 12.2435 2.51403C12.2434 2.54927 12.2433 2.58451 12.2431 2.62082C12.2426 2.73355 12.2414 2.84625 12.2402 2.95897C12.2398 3.03533 12.2393 3.11168 12.239 3.18804C12.2379 3.37536 12.2363 3.56267 12.2344 3.74999C12.2768 3.74938 12.3193 3.74877 12.363 3.74814C12.6854 3.74545 12.9974 3.74864 13.3154 3.80272C13.3525 3.80891 13.3895 3.8151 13.4277 3.82147C15.1102 4.12118 16.5894 4.9126 17.8125 6.09374C17.8529 6.13169 17.8932 6.16963 17.9348 6.20873C19.2989 7.52193 20.2138 9.52925 20.2624 11.4219C20.2653 11.6098 20.2655 11.7975 20.2646 11.9853C20.2646 12.0247 20.2645 12.0641 20.2644 12.1047C20.2623 12.6735 20.2479 13.2267 20.1094 13.7812C20.1001 13.8192 20.0908 13.8571 20.0812 13.8961C19.9132 14.5677 19.9132 14.5677 19.7813 14.7656C19.6172 14.7803 19.6172 14.7803 19.4531 14.7656C19.3594 14.6719 19.3594 14.6719 19.3539 14.5865C19.3872 14.2691 19.4615 13.9674 19.5452 13.6602C19.6794 13.1174 19.7067 12.5823 19.7051 12.0264C19.705 11.9892 19.705 11.9521 19.7049 11.9138C19.6996 10.6176 19.3907 9.3838 18.75 8.24999C18.7333 8.21987 18.7165 8.18975 18.6993 8.15871C18.4705 7.75007 18.2169 7.38347 17.9063 7.03124C17.854 6.97133 17.854 6.97133 17.8008 6.91021C17.6969 6.79276 17.5912 6.67733 17.4844 6.56249C17.4534 6.52841 17.4224 6.49433 17.3904 6.45922C16.1463 5.14656 14.3003 4.41957 12.5219 4.28704C12.4407 4.28095 12.4407 4.28095 12.358 4.27474C12.3172 4.27173 12.2764 4.26872 12.2344 4.26561C12.2349 4.31198 12.2354 4.35835 12.2359 4.40612C12.2376 4.57787 12.2386 4.74961 12.2395 4.92136C12.24 4.99575 12.2406 5.07014 12.2414 5.14452C12.2426 5.25133 12.2431 5.35814 12.2435 5.46496C12.244 5.49831 12.2445 5.53166 12.245 5.56602C12.245 5.64825 12.2401 5.73046 12.2344 5.81249C12.1406 5.90624 12.1406 5.90624 12 5.92748C11.7504 5.9195 11.5542 5.7829 11.3438 5.66015C11.2515 5.60798 11.1591 5.55592 11.0667 5.50396C11.0195 5.47721 10.9722 5.45047 10.9235 5.42291C10.7 5.29854 10.4726 5.18229 10.2451 5.06542C10.0642 4.9712 9.88361 4.87631 9.70313 4.78124C9.6531 4.75502 9.60308 4.72881 9.55154 4.70179C9.40028 4.62194 9.24988 4.54067 9.09961 4.45897C9.02933 4.42218 9.02933 4.42218 8.95762 4.38464C8.64207 4.21053 8.64207 4.21053 8.56018 4.02501C8.58343 3.85092 8.63317 3.81653 8.76563 3.70311C8.87188 3.63971 8.97661 3.58131 9.08643 3.52495C9.11801 3.50838 9.1496 3.4918 9.18214 3.47473C9.28533 3.42066 9.38876 3.36707 9.49219 3.31347C9.56365 3.27609 9.6351 3.23868 9.70652 3.20122C9.81587 3.14389 9.92523 3.08658 10.0347 3.0294C10.3644 2.85708 10.693 2.6825 11.0209 2.50673C11.1051 2.46164 11.1894 2.41666 11.2736 2.3717C11.3243 2.34459 11.3749 2.31747 11.4271 2.28954C11.4932 2.25415 11.4932 2.25415 11.5607 2.21804C11.7822 2.09492 11.8797 2.04351 12.1406 2.06249ZM11.4141 2.87822C11.3674 2.90308 11.3674 2.90308 11.3198 2.92844C11.2183 2.98247 11.117 3.03664 11.0156 3.09081C10.9468 3.12753 10.8779 3.16424 10.809 3.20094C10.6736 3.27306 10.5383 3.34523 10.403 3.41742C10.1777 3.53753 9.95221 3.65706 9.72656 3.77636C9.69442 3.79336 9.66227 3.81037 9.62915 3.82789C9.56006 3.86443 9.49097 3.90096 9.42188 3.93749C9.42188 3.96843 9.42188 3.99936 9.42188 4.03124C9.47628 4.05914 9.47628 4.05914 9.53178 4.0876C9.70225 4.17512 9.87264 4.26279 10.043 4.35058C10.0737 4.36639 10.1043 4.38221 10.136 4.3985C10.5778 4.62647 11.0163 4.85935 11.4502 5.10228C11.6 5.20333 11.6 5.20333 11.7656 5.24999C11.7656 4.41468 11.7656 3.57936 11.7656 2.71874C11.6492 2.71874 11.5171 2.82304 11.4141 2.87822Z" fill="#D62828"/>
<path d="M13.0388 10.3259C13.4838 10.6337 13.8037 11.0473 13.9219 11.5781C13.9589 12.191 13.9411 12.7266 13.5355 13.2229C13.1717 13.6183 12.7859 13.8999 12.2371 13.933C11.6328 13.9476 11.1485 13.8774 10.6875 13.4531C10.2964 13.0728 10.0776 12.6816 10.0644 12.1315C10.0591 11.497 10.1949 11.0494 10.6439 10.5877C11.2855 9.98072 12.2748 9.87137 13.0388 10.3259ZM10.875 11.1094C10.5824 11.4866 10.5525 11.8635 10.5937 12.3281C10.6883 12.7091 10.9486 13.0003 11.2529 13.2363C11.6222 13.4406 12.0414 13.4774 12.4514 13.3757C12.8172 13.2274 13.1219 12.9539 13.3125 12.6094C13.4548 12.2455 13.4818 11.8107 13.333 11.4433C13.1436 11.084 12.862 10.7862 12.4801 10.6369C11.841 10.4552 11.3198 10.6464 10.875 11.1094Z" fill="#D62828"/>
<path d="M14.8433 9.83248C14.9496 9.83203 15.0559 9.83057 15.1621 9.8291C15.2296 9.82879 15.2971 9.82854 15.3646 9.82836C15.4261 9.82793 15.4876 9.82749 15.551 9.82704C15.7031 9.84375 15.7031 9.84375 15.7929 9.90773C15.8634 10.014 15.8722 10.1074 15.8877 10.2334C15.9256 10.4592 15.958 10.6143 16.125 10.7812C16.2452 10.8287 16.3628 10.8627 16.4886 10.8918C16.5938 10.9219 16.5938 10.9219 16.6875 11.0156C16.7004 11.1007 16.7004 11.1007 16.7019 11.2048C16.7026 11.2437 16.7034 11.2827 16.7041 11.3228C16.7044 11.3649 16.7046 11.4071 16.7049 11.4505C16.7055 11.5153 16.7055 11.5153 16.7062 11.5815C16.7069 11.673 16.7073 11.7646 16.7074 11.8561C16.708 11.9964 16.7103 12.1365 16.7127 12.2768C16.7131 12.3656 16.7135 12.4544 16.7137 12.5433C16.7146 12.5853 16.7155 12.6274 16.7165 12.6707C16.7157 12.7802 16.7128 12.8778 16.6875 12.9844C16.5533 13.1026 16.4608 13.1233 16.2861 13.1631C16.1197 13.2067 16.1197 13.2067 16.0166 13.333C15.9268 13.5226 15.8969 13.692 15.8714 13.899C15.8387 14.0371 15.818 14.074 15.7031 14.1562C15.5517 14.1744 15.5517 14.1744 15.3662 14.1749C15.3171 14.1751 15.3171 14.1751 15.2669 14.1753C15.1977 14.1754 15.1286 14.1752 15.0594 14.1746C14.9535 14.1738 14.8477 14.1746 14.7418 14.1755C14.6746 14.1754 14.6073 14.1752 14.54 14.1749C14.4788 14.1748 14.4176 14.1746 14.3546 14.1744C14.2031 14.1562 14.2031 14.1562 14.1112 14.0954C14.0273 13.958 14.0734 13.8369 14.1094 13.6875C14.2341 13.6251 14.3291 13.6353 14.4686 13.636C14.5475 13.6363 14.5475 13.6363 14.6279 13.6365C14.683 13.6369 14.7381 13.6373 14.7949 13.6377C14.8504 13.6379 14.9059 13.6381 14.963 13.6383C15.1003 13.6389 15.2377 13.6397 15.375 13.6406C15.3829 13.5546 15.3829 13.5546 15.3909 13.4669C15.4281 13.1732 15.5701 12.9499 15.8018 12.765C16.0432 12.6094 16.0432 12.6094 16.1719 12.6094C16.1719 12.2072 16.1719 11.805 16.1719 11.3906C16.0791 11.3597 15.9863 11.3287 15.8906 11.2969C15.6224 11.1217 15.4816 10.8955 15.375 10.5937C15.3734 10.5156 15.3732 10.4375 15.375 10.3594C15.3402 10.3601 15.3055 10.3608 15.2697 10.3616C15.1124 10.3645 14.9551 10.3664 14.7979 10.3682C14.7158 10.3699 14.7158 10.3699 14.6321 10.3717C14.5796 10.3722 14.5272 10.3726 14.4732 10.3731C14.4248 10.3738 14.3765 10.3746 14.3267 10.3753C14.2031 10.3594 14.2031 10.3594 14.1154 10.2988C14.0625 10.2187 14.0625 10.2187 14.0713 10.0488C14.0839 9.99662 14.0964 9.94441 14.1094 9.89062C14.3203 9.78518 14.6087 9.83309 14.8433 9.83248Z" fill="#D62828"/>
<path d="M8.93709 9.83248C9.04338 9.83203 9.14962 9.83057 9.25589 9.8291C9.32337 9.82879 9.39084 9.82854 9.45831 9.82836C9.51982 9.82793 9.58133 9.82749 9.6447 9.82704C9.79688 9.84375 9.79688 9.84375 9.88725 9.9077C9.95959 10.0181 9.95687 10.0896 9.9375 10.2187C9.88297 10.2955 9.88297 10.2955 9.79688 10.3594C9.67334 10.3753 9.67334 10.3753 9.5268 10.3731C9.47438 10.3727 9.42196 10.3722 9.36795 10.3717C9.31324 10.3706 9.25852 10.3694 9.20215 10.3682C9.14689 10.3675 9.09163 10.3669 9.0347 10.3662C8.89811 10.3646 8.76157 10.3623 8.625 10.3594C8.61974 10.4167 8.61449 10.4741 8.60907 10.5331C8.57189 10.8268 8.42988 11.0501 8.19818 11.235C7.95681 11.3906 7.95681 11.3906 7.82813 11.3906C7.82813 11.7928 7.82813 12.195 7.82813 12.6094C7.92094 12.6403 8.01375 12.6712 8.10938 12.7031C8.37761 12.8783 8.51843 13.1045 8.625 13.4062C8.62662 13.4844 8.62684 13.5625 8.625 13.6406C8.67715 13.6395 8.67715 13.6395 8.73034 13.6384C8.88761 13.6355 9.04487 13.6336 9.20215 13.6318C9.25686 13.6307 9.31158 13.6295 9.36795 13.6283C9.44658 13.6276 9.44658 13.6276 9.5268 13.6269C9.57515 13.6262 9.62351 13.6254 9.67334 13.6247C9.79688 13.6406 9.79688 13.6406 9.88297 13.7045C9.96092 13.8142 9.95722 13.8842 9.9375 14.0156C9.88715 14.0921 9.88715 14.0921 9.79688 14.1562C9.64545 14.1744 9.64545 14.1744 9.45996 14.1749C9.41082 14.1751 9.41082 14.1751 9.36068 14.1753C9.2915 14.1754 9.22231 14.1752 9.15312 14.1746C9.04724 14.1738 8.94145 14.1746 8.83557 14.1755C8.76831 14.1754 8.70105 14.1752 8.63379 14.1749C8.57258 14.1748 8.51137 14.1746 8.4483 14.1744C8.29688 14.1562 8.29688 14.1562 8.20723 14.0921C8.13646 13.986 8.12782 13.8926 8.11231 13.7666C8.07442 13.5408 8.04199 13.3857 7.875 13.2187C7.75479 13.1713 7.63724 13.1373 7.51135 13.1082C7.40625 13.0781 7.40625 13.0781 7.3125 12.9844C7.29965 12.8993 7.29965 12.8993 7.29814 12.7952C7.29701 12.7368 7.29701 12.7368 7.29587 12.6772C7.29562 12.6351 7.29537 12.5929 7.29511 12.5495C7.29468 12.5063 7.29426 12.463 7.29382 12.4185C7.29314 12.327 7.29273 12.2354 7.29255 12.1439C7.292 12.0036 7.28969 11.8635 7.28732 11.7232C7.28688 11.6344 7.28654 11.5456 7.28632 11.4567C7.2854 11.4147 7.28449 11.3726 7.28354 11.3293C7.28434 11.2198 7.28721 11.1222 7.3125 11.0156C7.44668 10.8974 7.53923 10.8767 7.71387 10.8369C7.87248 10.7821 7.93876 10.7441 8.02332 10.5996C8.0969 10.4125 8.13198 10.2155 8.1698 10.0186C8.1808 9.97637 8.1918 9.93414 8.20313 9.89062C8.41401 9.78518 8.70244 9.83309 8.93709 9.83248Z" fill="#D62828"/>
<path d="M14.7891 11.7532C14.8306 11.7531 14.8722 11.7529 14.915 11.7528C14.9803 11.7534 14.9803 11.7534 15.0469 11.7539C15.0904 11.7535 15.1339 11.7532 15.1787 11.7528C15.2411 11.753 15.2411 11.753 15.3047 11.7532C15.3429 11.7533 15.3811 11.7534 15.4204 11.7535C15.5156 11.7656 15.5156 11.7656 15.6094 11.8594C15.6211 12 15.6211 12 15.6094 12.1406C15.4945 12.2555 15.4623 12.2464 15.3047 12.2468C15.2631 12.2469 15.2215 12.2471 15.1787 12.2472C15.1135 12.2466 15.1135 12.2466 15.0469 12.2461C15.0034 12.2465 14.9599 12.2468 14.915 12.2472C14.8527 12.247 14.8527 12.247 14.7891 12.2468C14.7509 12.2467 14.7127 12.2466 14.6733 12.2465C14.5781 12.2344 14.5781 12.2344 14.4844 12.1406C14.4727 12 14.4727 12 14.4844 11.8594C14.5992 11.7445 14.6314 11.7536 14.7891 11.7532Z" fill="#D62828"/>
<path d="M8.69531 11.7532C8.73688 11.7531 8.77846 11.7529 8.82129 11.7528C8.88655 11.7534 8.88655 11.7534 8.95312 11.7539C8.99663 11.7535 9.04014 11.7532 9.08496 11.7528C9.14732 11.753 9.14732 11.753 9.21094 11.7532C9.24913 11.7533 9.28731 11.7534 9.32666 11.7535C9.42188 11.7656 9.42188 11.7656 9.51562 11.8594C9.52734 12 9.52734 12 9.51562 12.1406C9.40079 12.2555 9.36857 12.2464 9.21094 12.2468C9.16937 12.2469 9.12779 12.2471 9.08496 12.2472C9.0197 12.2466 9.0197 12.2466 8.95312 12.2461C8.90962 12.2465 8.86611 12.2468 8.82129 12.2472C8.75893 12.247 8.75893 12.247 8.69531 12.2468C8.65712 12.2467 8.61894 12.2466 8.57959 12.2465C8.48438 12.2344 8.48438 12.2344 8.39062 12.1406C8.37891 12 8.37891 12 8.39062 11.8594C8.50546 11.7445 8.53768 11.7536 8.69531 11.7532Z" fill="#D62828"/>
</svg>
