<svg width="24" height="24" viewBox="0 0 24 24" fill="none" xmlns="http://www.w3.org/2000/svg">
<path d="M18.7031 10.2187C18.8621 10.2757 18.8621 10.2757 19.0294 10.3564C19.0755 10.3784 19.0755 10.3784 19.1224 10.4007C19.2232 10.4488 19.3235 10.4978 19.4238 10.5469C19.4948 10.581 19.5658 10.615 19.6368 10.649C19.8209 10.7374 20.0047 10.8265 20.1884 10.9159C20.2932 10.967 20.3981 11.0179 20.5031 11.0688C20.5363 11.0849 20.5694 11.101 20.6036 11.1176C20.6364 11.1335 20.6692 11.1494 20.703 11.1658C20.8973 11.26 21.0916 11.3544 21.2857 11.4492C21.5912 11.5981 21.8975 11.7448 22.2067 11.8859C22.2353 11.899 22.2639 11.9121 22.2934 11.9255C22.4272 11.9866 22.5612 12.0471 22.6956 12.1071C22.7421 12.1281 22.7886 12.1492 22.8365 12.1708C22.877 12.1889 22.9175 12.2069 22.9592 12.2256C23.0632 12.2816 23.1293 12.3301 23.2031 12.4219C23.2471 12.5801 23.2471 12.5801 23.25 12.75C23.1172 12.9637 22.9488 13.0588 22.7263 13.1611C22.6943 13.1763 22.6623 13.1916 22.6294 13.2074C22.5279 13.2557 22.4261 13.3031 22.3242 13.3506C22.255 13.3833 22.1859 13.4161 22.1168 13.449C21.9479 13.5291 21.7787 13.6085 21.6094 13.6875C21.6593 13.7124 21.7092 13.7374 21.7606 13.7631C21.8562 13.8109 21.9518 13.8588 22.0473 13.9068C22.221 13.9942 22.3953 14.0799 22.5712 14.1627C22.605 14.1788 22.6387 14.1949 22.6735 14.2115C22.7382 14.2424 22.8031 14.2728 22.8683 14.3026C23.06 14.395 23.1654 14.4745 23.25 14.6719C23.25 14.8154 23.25 14.8154 23.2031 14.9531C23.027 15.1169 22.8277 15.2193 22.6126 15.3221C22.5607 15.3473 22.5607 15.3473 22.5078 15.373C22.395 15.4277 22.282 15.4819 22.1689 15.5361C22.0899 15.5743 22.0108 15.6125 21.9317 15.6508C21.4309 15.8923 20.9278 16.1284 20.4226 16.3606C19.9254 16.5899 19.4337 16.8302 18.9419 17.0708C18.4758 17.2987 18.0086 17.5228 17.5371 17.7393C17.0078 17.9824 16.484 18.236 15.9609 18.4922C15.3831 18.7752 14.8043 19.0543 14.2188 19.3213C13.9176 19.4593 13.6205 19.6031 13.3248 19.7525C13.2194 19.8053 13.1139 19.8581 13.0085 19.9108C12.9405 19.9451 12.8727 19.9798 12.8052 20.0148C12.7109 20.0637 12.616 20.1114 12.5209 20.1588C12.4667 20.1866 12.4124 20.2144 12.3566 20.243C11.9846 20.3615 11.6834 20.2329 11.3502 20.0618C11.3117 20.0427 11.2732 20.0236 11.2336 20.004C11.1514 19.9632 11.0695 19.9221 10.9876 19.8807C10.8147 19.7934 10.6411 19.7074 10.4676 19.6214C10.3806 19.5782 10.2936 19.535 10.2066 19.4918C9.86766 19.3233 9.526 19.1621 9.18164 19.0049C8.65608 18.7639 8.13638 18.5121 7.61718 18.2578C7.04302 17.9766 6.46731 17.7006 5.88629 17.4338C5.42875 17.2229 4.97601 17.0026 4.52343 16.7812C4.01002 16.5301 3.49567 16.2821 2.97656 16.043C2.54396 15.8435 2.11229 15.6422 1.68262 15.4365C1.62203 15.4075 1.56138 15.3786 1.50068 15.3499C1.41676 15.3101 1.33304 15.2699 1.24933 15.2296C1.17753 15.1953 1.17753 15.1953 1.10429 15.1603C0.99368 15.0989 0.919315 15.0539 0.843746 14.9531C0.815126 14.6955 0.815126 14.6955 0.843746 14.5781C0.987801 14.4072 1.14452 14.3249 1.34527 14.2304C1.37507 14.2162 1.40486 14.202 1.43556 14.1874C1.53011 14.1425 1.6249 14.0981 1.71972 14.0537C1.81499 14.0087 1.91021 13.9637 2.00539 13.9185C2.09132 13.8778 2.1774 13.8374 2.26349 13.797C2.38383 13.7462 2.38383 13.7462 2.4375 13.6875C2.39421 13.6669 2.35093 13.6464 2.30634 13.6252C2.14554 13.5487 1.98493 13.4718 1.82438 13.3948C1.75491 13.3616 1.68539 13.3284 1.61582 13.2954C1.51574 13.2478 1.41584 13.1999 1.31598 13.1519C1.28492 13.1373 1.25386 13.1226 1.22186 13.1075C0.931706 12.9672 0.931705 12.9672 0.843746 12.8437C0.815126 12.5862 0.815126 12.5862 0.843746 12.4687C0.992871 12.2888 1.17552 12.1981 1.38281 12.0998C1.41749 12.083 1.45216 12.0662 1.48789 12.0488C1.60111 11.9941 1.71461 11.9399 1.82812 11.8857C1.90687 11.8478 1.9856 11.8099 2.06433 11.7719C2.63454 11.4976 3.20752 11.2294 3.78241 10.9651C3.97896 10.8745 4.17456 10.7823 4.36944 10.6882C4.43765 10.6553 4.43765 10.6553 4.50723 10.6218C4.5912 10.5811 4.67508 10.5402 4.75882 10.4991C5.19707 10.287 5.19707 10.287 5.42285 10.3447C5.53125 10.4062 5.53125 10.4062 5.5957 10.4854C5.63957 10.6477 5.62144 10.7602 5.57812 10.9219C5.42284 11.0657 5.25981 11.159 5.06964 11.2498C5.01576 11.2757 4.96188 11.3016 4.90638 11.3283C4.84807 11.3559 4.78976 11.3835 4.73144 11.4111C4.67105 11.44 4.61066 11.4689 4.55028 11.4978C4.24146 11.6454 3.93157 11.7906 3.62091 11.9343C3.59168 11.9478 3.56246 11.9613 3.53235 11.9752C3.39338 12.0395 3.25428 12.1034 3.11497 12.1669C2.78759 12.3171 2.47003 12.4793 2.15625 12.6562C2.78283 12.9603 3.41023 13.2617 4.04296 13.5527C4.62213 13.8195 5.19508 14.0983 5.76773 14.3787C6.30216 14.6403 6.83856 14.896 7.37933 15.1443C7.83687 15.3553 8.28961 15.5755 8.74218 15.7969C9.31377 16.0764 9.8867 16.3518 10.4653 16.6166C10.7233 16.7348 10.979 16.8557 11.2324 16.9834C11.2819 17.0081 11.3313 17.0327 11.3822 17.0581C11.4748 17.1045 11.5671 17.1517 11.6588 17.1997C11.6998 17.2201 11.7407 17.2405 11.7828 17.2615C11.8182 17.2797 11.8535 17.298 11.8899 17.3167C12.1432 17.3789 12.3983 17.1986 12.6215 17.088C12.6701 17.0641 12.6701 17.0641 12.7197 17.0398C12.7893 17.0057 12.8589 16.9715 12.9284 16.9373C13.1142 16.8458 13.3003 16.755 13.4864 16.6642C13.5239 16.646 13.5613 16.6278 13.5998 16.609C13.9201 16.4532 14.2427 16.3028 14.5664 16.1543C15.138 15.8917 15.703 15.6166 16.2678 15.34C16.8022 15.0784 17.3386 14.8228 17.8793 14.5745C18.3744 14.3462 18.864 14.1069 19.3537 13.8673C19.9003 13.6 20.4491 13.3387 21.0022 13.085C21.3013 12.9477 21.5973 12.8057 21.8906 12.6562C21.3417 12.355 20.7817 12.0808 20.2148 11.8154C20.1805 11.7993 20.1462 11.7832 20.1108 11.7667C19.8179 11.6294 19.5248 11.4923 19.2311 11.3565C19.0794 11.2862 18.9278 11.2154 18.7764 11.1445C18.7103 11.1144 18.7103 11.1144 18.6428 11.0836C18.6028 11.0648 18.5629 11.046 18.5217 11.0266C18.4874 11.0108 18.4531 10.9949 18.4178 10.9786C18.3098 10.9103 18.2539 10.8432 18.1875 10.7344C18.1646 10.5508 18.1599 10.4493 18.2607 10.292C18.418 10.1912 18.5179 10.205 18.7031 10.2187ZM3.07983 14.2381C3.052 14.2517 3.02418 14.2653 2.99551 14.2793C2.90689 14.3227 2.81869 14.3669 2.73047 14.4111C2.67037 14.4408 2.61025 14.4703 2.55011 14.4998C2.4029 14.5722 2.25605 14.6453 2.10937 14.7187C2.22283 14.8475 2.34017 14.9115 2.49444 14.985C2.54428 15.0089 2.59413 15.0327 2.64548 15.0573C2.69963 15.0829 2.75378 15.1084 2.80957 15.1348C2.86683 15.162 2.92409 15.1893 2.98134 15.2167C3.42042 15.4257 3.86196 15.6294 4.3036 15.833C4.80847 16.0668 5.30823 16.3107 5.808 16.5551C6.2741 16.783 6.74137 17.0071 7.21289 17.2236C7.74224 17.4667 8.26594 17.7204 8.78906 17.9766C9.37999 18.2659 9.97207 18.5516 10.5704 18.8254C10.8174 18.9384 11.0624 19.0536 11.3049 19.1759C11.3502 19.1985 11.3955 19.2211 11.4422 19.2444C11.526 19.2864 11.6093 19.3291 11.6922 19.3727C11.7289 19.3909 11.7656 19.4092 11.8033 19.428C11.8348 19.4443 11.8662 19.4605 11.8985 19.4773C12.1464 19.5328 12.4036 19.3523 12.6215 19.2442C12.6701 19.2204 12.6701 19.2204 12.7197 19.1961C12.7893 19.162 12.8589 19.1278 12.9284 19.0936C13.1142 19.0021 13.3003 18.9113 13.4864 18.8205C13.5239 18.8023 13.5613 18.784 13.5998 18.7652C13.9201 18.6094 14.2427 18.4591 14.5664 18.3105C15.138 18.0479 15.703 17.7729 16.2678 17.4962C16.8022 17.2346 17.3386 16.979 17.8793 16.7307C18.3745 16.5024 18.864 16.2631 19.3538 16.0235C19.8976 15.7576 20.4436 15.4975 20.994 15.2454C21.3277 15.0922 21.657 14.9318 21.9844 14.7656C21.3169 14.2984 21.3169 14.2984 20.5499 14.1125C20.3012 14.1748 20.0906 14.3132 19.875 14.4479C19.6207 14.5986 19.3518 14.7201 19.085 14.8466C18.9497 14.9111 18.8151 14.9768 18.6804 15.0426C18.3034 15.2266 17.9241 15.4049 17.543 15.5801C16.9897 15.8346 16.4423 16.1 15.8952 16.3676C15.3743 16.6223 14.8516 16.8718 14.3239 17.1125C14.0117 17.2557 13.7038 17.4052 13.3973 17.56C13.2855 17.616 13.1738 17.6719 13.062 17.7278C12.9896 17.7643 12.9173 17.8012 12.8453 17.8385C12.7444 17.8907 12.643 17.9416 12.5414 17.9923C12.5119 18.008 12.4824 18.0238 12.4519 18.04C12.2094 18.1587 12.0206 18.1592 11.7656 18.0937C11.6144 18.0382 11.4729 17.9687 11.3296 17.8953C11.2891 17.8751 11.2485 17.855 11.2067 17.8343C11.1202 17.7913 11.0338 17.748 10.9475 17.7044C10.7659 17.6127 10.5835 17.5223 10.4012 17.4319C10.3101 17.3868 10.2191 17.3416 10.1281 17.2963C9.78017 17.1233 9.42967 16.9573 9.07617 16.7959C8.57044 16.5641 8.07002 16.3226 7.57031 16.0781C7.01634 15.8071 6.46069 15.5416 5.90011 15.2845C5.56796 15.1314 5.23837 14.9737 4.90979 14.813C4.84737 14.7825 4.84737 14.7825 4.7837 14.7514C4.57636 14.6499 4.3692 14.5482 4.16219 14.446C4.08632 14.4088 4.01044 14.3715 3.93457 14.3342C3.89972 14.3169 3.86487 14.2996 3.82896 14.2818C3.51237 14.1266 3.40136 14.0788 3.07983 14.2381Z" fill="#D62828"/>
<path d="M20.8594 3.75C21.0777 3.8651 21.2492 3.98203 21.3281 4.21875C21.3803 4.63605 21.2679 4.93274 21.0791 5.29981C21.0537 5.35082 21.0282 5.40184 21.002 5.4544C20.7756 5.90177 20.5276 6.33256 20.25 6.75C20.2306 6.77925 20.2111 6.80851 20.1911 6.83865C19.3622 8.07098 18.2941 9.09175 17.0156 9.84375C16.9872 9.86055 16.9589 9.87735 16.9296 9.89465C16.1275 10.3632 15.253 10.6523 14.3437 10.8281C14.3054 10.8358 14.267 10.8435 14.2274 10.8514C13.0075 11.0854 11.6723 11.0373 10.4531 10.8281C10.4146 10.8224 10.3761 10.8166 10.3364 10.8107C10.0846 10.7664 9.96341 10.704 9.79687 10.5C9.77218 10.4705 9.74749 10.4411 9.72205 10.4107C9.63938 10.3115 9.55832 10.2111 9.47754 10.1104C9.44953 10.0756 9.42153 10.0409 9.39267 10.0052C9.32416 9.9202 9.25577 9.83515 9.1875 9.75C9.1852 9.78238 9.18291 9.81475 9.18054 9.84811C9.17704 9.89048 9.17353 9.93285 9.16992 9.9765C9.16666 10.0185 9.1634 10.0606 9.16003 10.1039C9.14062 10.2188 9.14062 10.2188 9.04687 10.3447C8.76124 10.4697 8.44961 10.3602 8.16874 10.2553C8.13078 10.2403 8.09282 10.2254 8.05371 10.21C8.01246 10.194 7.97121 10.178 7.92871 10.1615C7.14808 9.85144 6.38932 9.47762 5.63672 9.10547C5.60715 9.09091 5.57759 9.07635 5.54712 9.06134C5.43071 9.00269 5.34292 8.9523 5.25 8.85938C5.21875 8.53646 5.21875 8.53646 5.32031 8.36719C5.48235 8.26997 5.62983 8.27474 5.8125 8.29688C5.94069 8.33752 6.05614 8.39567 6.17505 8.45801C6.20844 8.47471 6.24184 8.49141 6.27625 8.50861C6.3472 8.54414 6.41799 8.57999 6.48863 8.61613C6.67122 8.70949 6.85498 8.80045 7.03876 8.89142C7.07466 8.90924 7.11055 8.92706 7.14754 8.94542C7.55216 9.14491 7.96721 9.31359 8.39062 9.46875C8.38818 9.37721 8.38818 9.37721 8.38568 9.28381C8.38436 9.20288 8.38308 9.12195 8.38184 9.04102C8.38066 9.0009 8.37948 8.96077 8.37826 8.91944C8.37546 8.67616 8.39287 8.50662 8.53125 8.29688C8.67838 8.22331 8.79087 8.2335 8.95312 8.25C9.1276 8.40581 9.27747 8.58382 9.42773 8.7627C9.46069 8.80176 9.46069 8.80176 9.4943 8.84162C9.70381 9.09162 9.90554 9.34753 10.1058 9.60498C10.1431 9.65284 10.1803 9.70069 10.2187 9.75C10.2467 9.79327 10.2747 9.83653 10.3035 9.8811C10.4463 10.0246 10.5941 10.0409 10.7871 10.0664C10.8203 10.0717 10.8536 10.0769 10.8878 10.0823C10.9928 10.0984 11.0978 10.112 11.2031 10.125C11.2373 10.1295 11.2715 10.134 11.3068 10.1386C11.6822 10.1826 12.059 10.1833 12.4365 10.1836C12.4894 10.1836 12.4894 10.1836 12.5434 10.1837C14.7166 10.1806 16.6493 9.4054 18.2344 7.92188C18.3003 7.86061 18.3003 7.86061 18.3675 7.7981C19.279 6.93085 20.0932 5.72925 20.5312 4.54688C20.4647 4.56981 20.4647 4.56981 20.3968 4.5932C19.6745 4.83485 18.9496 4.94981 18.1875 4.96875C18.1256 4.97029 18.1256 4.97029 18.0625 4.97186C16.5092 5.00342 14.9585 4.84968 13.4119 4.72336C12.8009 4.67351 12.1904 4.62395 11.5781 4.59375C11.5132 4.5901 11.4483 4.58644 11.3833 4.58278C11.2215 4.57404 11.0598 4.56833 10.8977 4.56447C10.833 4.56248 10.7682 4.55957 10.7035 4.55581C10.3083 4.5273 10.3083 4.5273 9.96011 4.6871C9.86328 4.80751 9.78305 4.93038 9.70312 5.0625C9.65204 5.12929 9.59997 5.19534 9.54675 5.26044C9.47454 5.35167 9.40234 5.44292 9.3305 5.53446C9.15118 5.76035 9.15118 5.76035 9.04687 5.8125C8.75753 5.83393 8.75753 5.83393 8.60742 5.75098C8.45645 5.5942 8.47941 5.4237 8.48144 5.21777C8.48187 5.16249 8.48229 5.1072 8.48273 5.05023C8.48327 5.00788 8.48381 4.96552 8.48437 4.92188C7.91912 5.19797 7.41204 5.49168 6.9375 5.90625C6.9056 5.93399 6.87369 5.96172 6.84082 5.9903C6.57357 6.24085 6.35418 6.54727 6.14062 6.84375C6.14062 6.85922 6.14062 6.87469 6.14062 6.89063C6.20038 6.87534 6.26014 6.86005 6.32172 6.8443C7.37207 6.58507 8.42344 6.49484 9.50348 6.49638C9.66954 6.49659 9.83559 6.49591 10.0016 6.49504C10.3543 6.49335 10.7069 6.49268 11.0596 6.49219C13.4752 6.48881 15.756 6.4137 18.0326 5.5073C18.2841 5.4103 18.4799 5.36377 18.75 5.39063C18.8701 5.48731 18.8701 5.48731 18.9375 5.625C18.9407 5.80858 18.9325 5.90912 18.804 6.04413C18.5889 6.18461 18.359 6.26153 18.1172 6.3457C18.0649 6.36412 18.0127 6.38253 17.9588 6.40151C16.7668 6.81589 15.5525 7.0879 14.2969 7.21875C14.2386 7.22497 14.2386 7.22497 14.1792 7.2313C13.6857 7.27642 13.1919 7.27345 12.6967 7.27497C12.5292 7.27553 12.3616 7.27644 12.1941 7.27746C11.718 7.28032 11.2419 7.28286 10.7659 7.28444C10.4734 7.28544 10.1809 7.2871 9.88841 7.28916C9.77834 7.28982 9.66827 7.29023 9.55821 7.29039C7.52364 7.29347 5.54691 7.62893 3.9375 8.95313C3.79687 9.04688 3.79687 9.04688 3.63281 9.03809C3.46875 9 3.46875 9 3.38086 8.94434C3.30363 8.81991 3.28709 8.72422 3.28125 8.57813C3.537 8.06582 4.23355 7.7091 4.73197 7.45308C4.92947 7.35074 5.01394 7.27169 5.09766 7.06641C5.39227 6.42651 5.83128 5.88473 6.32812 5.39063C6.38586 5.33289 6.38586 5.33289 6.44476 5.27399C7.04404 4.7061 8.01919 4.06311 8.85937 4.00781C9.03004 4.03626 9.08531 4.08119 9.1875 4.21875C9.2107 4.28836 9.2107 4.28836 9.23437 4.35938C9.26441 4.3227 9.29444 4.28602 9.32538 4.24823C9.36629 4.20028 9.40725 4.15237 9.44824 4.10449C9.48794 4.05718 9.52764 4.00987 9.56854 3.96112C9.73652 3.81463 9.80932 3.80642 10.0312 3.79688C10.0735 3.79494 10.1158 3.793 10.1593 3.79101C11.5248 3.74226 12.8902 3.87781 14.25 3.98438C14.3212 3.98995 14.3212 3.98995 14.3939 3.99563C15.1357 4.05371 15.1357 4.05371 15.4554 4.08038C17.8673 4.30066 17.8673 4.30066 20.2106 3.81555C20.43 3.73119 20.6264 3.7141 20.8594 3.75Z" fill="#D62828"/>
</svg>
