<svg width="34" height="34" viewBox="0 0 34 34" fill="none" xmlns="http://www.w3.org/2000/svg">
<g clip-path="url(#clip0_225_505)">
<path d="M10.4616 16.2926C11.597 17.3145 12.3941 18.7925 12.4937 20.3315C12.5269 21.1212 12.4681 21.8276 12.2188 22.5781C12.2045 22.6212 12.1903 22.6643 12.1756 22.7087C11.4271 24.921 10.1023 26.9242 8.76563 28.8203C8.73829 28.8593 8.71095 28.8982 8.68278 28.9383C8.26791 29.5285 7.83867 30.1076 7.40307 30.6826C7.33755 30.7691 7.27213 30.8557 7.20683 30.9424C7.11522 31.064 7.02325 31.1852 6.93115 31.3064C6.87825 31.3762 6.82535 31.4459 6.77085 31.5178C6.64063 31.6758 6.64063 31.6758 6.50781 31.7422C6.03394 31.781 6.03394 31.781 5.80951 31.6291C5.64337 31.4755 5.51596 31.3233 5.38306 31.1404C5.35811 31.1063 5.33316 31.0722 5.30746 31.0371C5.25133 30.9604 5.19537 30.8836 5.13955 30.8067C5.04024 30.6706 4.93966 30.5355 4.83884 30.4006C3.01981 27.9604 1.18861 25.3483 0.199221 22.4453C0.173968 22.3767 0.148716 22.308 0.122698 22.2373C-0.312925 20.8601 0.0273107 19.2456 0.663157 17.9876C0.853704 17.6356 1.08328 17.3163 1.32813 17C1.36887 16.947 1.40962 16.894 1.4516 16.8394C2.46503 15.616 4.02151 14.8765 5.58228 14.7007C7.38579 14.5474 9.09571 15.097 10.4616 16.2926ZM2.58985 17.3984C1.59956 18.4585 1.14897 19.7323 1.17275 21.1652C1.19474 21.6713 1.33898 22.1119 1.52735 22.5781C1.55136 22.6396 1.55136 22.6396 1.57585 22.7023C2.45732 24.9334 3.85269 26.9494 5.2461 28.8867C5.2868 28.9435 5.3275 29.0003 5.36944 29.0588C5.49656 29.2356 5.62438 29.412 5.75244 29.5881C5.79258 29.6439 5.83272 29.6998 5.87407 29.7573C5.91149 29.8084 5.94891 29.8595 5.98746 29.9121C6.02064 29.9578 6.05382 30.0035 6.08801 30.0505C6.13146 30.099 6.13146 30.099 6.17578 30.1484C6.21961 30.1484 6.26344 30.1484 6.3086 30.1484C6.39608 30.0535 6.39608 30.0535 6.48239 29.9267C6.53402 29.8545 6.53402 29.8545 6.58669 29.7809C6.62366 29.7282 6.66064 29.6756 6.69873 29.6213C6.73721 29.5672 6.77568 29.5131 6.81532 29.4574C6.89542 29.3446 6.97533 29.2317 7.05505 29.1187C7.16219 28.9669 7.26999 28.8155 7.3781 28.6644C10.3427 24.7759 10.3427 24.7759 11.2704 20.1872C11.1071 19.2373 10.6764 18.3122 10.0273 17.5977C9.98472 17.549 9.94209 17.5002 9.89816 17.4501C8.93773 16.417 7.63553 15.931 6.24556 15.8737C4.87129 15.8433 3.57577 16.4734 2.58985 17.3984Z" fill="black"/>
<path d="M32.0742 0.730468C32.3122 0.915108 32.5265 1.11419 32.7383 1.32812C32.7846 1.37221 32.8309 1.41629 32.8786 1.46171C33.7054 2.30456 34.0358 3.43667 34.0278 4.58863C33.9604 6.95965 31.9572 9.26199 30.5469 11.0234C30.5136 11.0653 30.4803 11.1072 30.446 11.1503C30.3558 11.2635 30.2648 11.376 30.1733 11.4883C30.1232 11.5499 30.073 11.6115 30.0213 11.675C29.8881 11.8147 29.7974 11.8887 29.6172 11.9531C29.3875 11.9575 29.2246 11.9451 29.0415 11.7971C28.7597 11.5081 28.5092 11.2059 28.2683 10.8823C28.1928 10.782 28.1172 10.6817 28.0416 10.5814C28.0048 10.5324 27.9679 10.4833 27.93 10.4328C27.8359 10.3084 27.7406 10.1852 27.6442 10.0626C26.9921 9.2332 26.4247 8.35128 25.8984 7.4375C25.875 7.39712 25.8515 7.35673 25.8273 7.31513C25.1014 6.05486 24.6742 4.74898 25.0237 3.29489C25.4256 2.05447 26.2083 1.06843 27.3529 0.431899C28.8649 -0.302199 30.6728 -0.183946 32.0742 0.730468ZM26.9404 2.24484C26.3996 2.94681 26.0378 3.75011 26.0712 4.65181C26.326 6.53805 27.8258 8.31156 28.9531 9.76172C29.0034 9.82686 29.0536 9.892 29.1054 9.95912C29.209 10.093 29.3131 10.2265 29.418 10.3594C29.7489 10.1288 29.9575 9.83593 30.1899 9.51269C30.2308 9.45641 30.2717 9.40012 30.3138 9.34212C30.4364 9.17255 30.5582 9.00241 30.6797 8.83203C30.7132 8.78535 30.7466 8.73866 30.7811 8.69056C32.3753 6.50178 32.3753 6.50178 32.8047 3.91797C32.6216 3.0246 32.1152 2.28129 31.385 1.7429C29.9684 0.835677 28.1117 0.986058 26.9404 2.24484Z" fill="black"/>
<path d="M7.39159 18.3494C7.91847 18.6782 8.27507 19.1154 8.47172 19.704C8.58797 20.3268 8.58835 21.0417 8.23437 21.582C8.20621 21.6281 8.17805 21.6741 8.14903 21.7216C7.80794 22.229 7.33034 22.5272 6.74257 22.6798C6.08922 22.8006 5.49333 22.6816 4.93066 22.3291C4.406 21.9525 4.11932 21.5006 3.93457 20.8848C3.92635 20.8026 3.92635 20.8026 3.91797 20.7188C3.91168 20.6582 3.91168 20.6582 3.90526 20.5963C3.86841 19.9403 4.08546 19.2875 4.51173 18.7888C5.2914 18.055 6.43029 17.8864 7.39159 18.3494ZM5.25024 19.8098C5.09147 20.2114 5.07076 20.5348 5.24065 20.9297C5.39269 21.186 5.61061 21.3232 5.8645 21.4741C6.18018 21.5475 6.48127 21.5258 6.77551 21.3844C7.04519 21.2073 7.20423 21.032 7.30469 20.7188C7.34833 20.3843 7.34495 20.1352 7.19263 19.8306C6.98344 19.5931 6.76108 19.3485 6.43466 19.3061C5.92158 19.2854 5.58359 19.412 5.25024 19.8098Z" fill="black"/>
<path d="M30.3741 2.449C30.4092 2.47356 30.4443 2.49813 30.4805 2.52344C30.5394 2.56042 30.5983 2.5974 30.6589 2.6355C31.0109 2.98747 31.2167 3.43286 31.2275 3.93043C31.2178 4.47091 31.0477 4.87065 30.6776 5.26426C30.302 5.59367 29.8618 5.73351 29.3656 5.72521C28.9135 5.68128 28.4827 5.49725 28.1563 5.17969C27.7573 4.65149 27.6967 4.17617 27.7578 3.51954C27.926 2.95317 28.2685 2.63223 28.7581 2.33253C29.2612 2.14244 29.9148 2.16656 30.3741 2.449ZM28.9531 3.78516C28.9033 3.98724 28.9033 3.98724 28.9531 4.1836C29.0817 4.35981 29.1775 4.43335 29.3806 4.51148C29.607 4.517 29.706 4.45497 29.8828 4.31641C29.9988 4.15822 30.0171 4.08102 30.0073 3.88477C29.9343 3.67618 29.8623 3.58355 29.6836 3.45313C29.3228 3.38405 29.1666 3.49637 28.9531 3.78516Z" fill="black"/>
<path d="M30.1542 27.528C30.3811 27.5826 30.4918 27.7026 30.6133 27.8906C31.1532 28.8677 31.1532 28.8677 31.0781 29.418C30.9437 29.6708 30.862 29.7344 30.5884 29.8205C30.3648 29.8167 30.2235 29.8046 30.0429 29.6683C29.8637 29.4435 29.7862 29.1691 29.6953 28.8994C29.6214 28.699 29.5274 28.5377 29.418 28.3555C29.3764 28.0644 29.3841 27.9403 29.5508 27.6955C29.7728 27.5429 29.8903 27.5072 30.1542 27.528Z" fill="black"/>
<path d="M30.6133 30.8789C30.7751 30.9827 30.7751 30.9827 30.8789 31.1445C30.967 31.6466 30.7513 31.9926 30.4805 32.4062C30.2898 32.6679 30.1236 32.8821 29.8164 33.0039C29.5586 32.9947 29.4031 32.9754 29.1938 32.8213C29.0703 32.6503 29.0298 32.5503 29.0195 32.3398C29.0888 32.055 29.2642 31.8496 29.4411 31.6226C29.5918 31.4219 29.724 31.2105 29.8566 30.9974C30.06 30.7371 30.3241 30.8129 30.6133 30.8789Z" fill="black"/>
<path d="M33.6016 19.3242C33.8008 19.4612 33.8008 19.4612 33.9336 19.6563C34.0125 20.1122 33.8166 20.4957 33.5686 20.8679C33.1618 21.4207 33.1618 21.4207 32.8835 21.5073C32.6206 21.5176 32.4918 21.4604 32.2734 21.3164C32.1356 21.1486 32.1406 21.0539 32.1406 20.835C32.2148 20.5567 32.3233 20.4149 32.5022 20.1958C32.6421 20.0047 32.7235 19.8024 32.8075 19.5821C32.9679 19.2665 33.2904 19.2661 33.6016 19.3242Z" fill="black"/>
<path d="M32.1406 16.5352C32.6255 16.7097 33.0747 16.9976 33.4023 17.3985C33.4877 17.6022 33.4838 17.7005 33.4688 17.9297C33.3798 18.1288 33.3322 18.2304 33.1367 18.3281C32.8358 18.3774 32.6861 18.3772 32.4221 18.2166C32.298 18.1242 32.1755 18.0296 32.055 17.9326C31.877 17.7896 31.877 17.7896 31.6615 17.6916C31.4171 17.5675 31.3631 17.4565 31.2773 17.1992C31.2773 16.9385 31.3105 16.8379 31.4849 16.6431C31.7355 16.5014 31.8547 16.493 32.1406 16.5352Z" fill="black"/>
<path d="M17.2656 21.8477C17.4885 21.9737 17.5759 22.0569 17.6682 22.2959C17.6624 22.5961 17.544 22.7861 17.3984 23.043C17.3523 23.1354 17.3066 23.2281 17.2615 23.321C17.0031 23.8367 17.0031 23.8367 16.8008 24.0391C16.5247 24.0849 16.2808 24.0808 16.033 23.9478C15.8786 23.6659 15.8806 23.4226 15.9375 23.1094C16.1858 22.4528 16.4854 21.7815 17.2656 21.8477Z" fill="black"/>
<path d="M17.1339 25.0554C17.3505 25.1313 17.4918 25.2792 17.6555 25.4362C17.8037 25.5727 17.9599 25.6833 18.1248 25.7988C18.3353 25.961 18.3878 26.0117 18.4775 26.272C18.4592 26.5199 18.4161 26.6352 18.2617 26.8281C18.0064 26.9983 17.9017 27.0002 17.5977 26.9609C17.382 26.8488 17.1922 26.7106 17 26.5625C16.9605 26.5325 16.9211 26.5024 16.8804 26.4715C16.4238 26.1077 16.4238 26.1077 16.3813 25.8248C16.368 25.5612 16.3652 25.4167 16.5269 25.2012C16.7427 25.0488 16.8675 25.0125 17.1339 25.0554Z" fill="black"/>
<path d="M23.1011 20.9014C23.2001 20.8993 23.2001 20.8993 23.3011 20.8972C23.9071 20.894 23.9071 20.894 24.1719 21.1172C24.3114 21.2947 24.3046 21.3856 24.2964 21.6152C24.2313 21.8755 24.1803 21.9501 23.9727 22.1133C23.689 22.1697 23.4022 22.1563 23.1135 22.1548C23.0352 22.1569 22.9568 22.1591 22.876 22.1613C22.3222 22.1619 22.3222 22.1619 22.1179 22.0314C21.9903 21.8892 21.9208 21.7551 21.8892 21.5667C21.9258 21.3754 21.958 21.2152 22.0718 21.0549C22.3799 20.8535 22.7478 20.9032 23.1011 20.9014Z" fill="black"/>
<path d="M27.916 26.0668C28.277 26.1479 28.5095 26.2049 28.7539 26.4961C28.8252 26.6947 28.8282 26.7981 28.7747 27.0024C28.6719 27.1885 28.6127 27.2639 28.4219 27.3594C28.0596 27.3714 27.7067 27.3509 27.3469 27.3096C27.2787 27.3034 27.2787 27.3034 27.2091 27.2971C26.8979 27.2612 26.7147 27.1861 26.4961 26.9609C26.4198 26.6987 26.401 26.5605 26.5127 26.3093C26.8568 25.8792 27.4205 25.9884 27.916 26.0668Z" fill="black"/>
<path d="M24.1594 26.0063C24.2684 26.0026 24.2684 26.0026 24.3795 25.9988C24.9163 25.9929 24.9163 25.9929 25.1812 26.1864C25.3199 26.3916 25.3672 26.5138 25.3672 26.7617C25.2607 26.9961 25.1851 27.0823 24.9688 27.2265C24.7069 27.2574 24.4436 27.2511 24.1802 27.2515C24.1078 27.2531 24.0355 27.2547 23.961 27.2564C23.4285 27.2583 23.4285 27.2583 23.1628 27.1005C23.0191 26.9331 22.9803 26.8615 22.9558 26.6413C22.9813 26.3811 23.0624 26.2827 23.2422 26.0976C23.5143 25.9616 23.8603 26.0102 24.1594 26.0063Z" fill="black"/>
<path d="M25.5581 16.3774C25.6304 16.3758 25.7028 16.3742 25.7773 16.3725C26.3071 16.3706 26.3071 16.3706 26.5755 16.5224C26.7434 16.7264 26.7617 16.8708 26.7617 17.1328C26.6562 17.3701 26.5813 17.4523 26.3633 17.5977C26.1014 17.6285 25.8382 17.6222 25.5747 17.6226C25.5024 17.6242 25.43 17.6258 25.3555 17.6275C24.8257 17.6294 24.8257 17.6294 24.5573 17.4775C24.3894 17.2736 24.3711 17.1292 24.3711 16.8672C24.6173 16.3133 25.0258 16.3781 25.5581 16.3774Z" fill="black"/>
<path d="M16.7012 32.7839C16.7837 32.7823 16.7837 32.7823 16.868 32.7807C17.2056 32.7804 17.4378 32.8175 17.7305 33.0039C17.8747 33.1795 17.8632 33.2715 17.855 33.502C17.7899 33.7622 17.7392 33.8371 17.5312 34C17.3468 34.0344 17.3468 34.0344 17.137 34.0353C17.0232 34.0358 17.0232 34.0358 16.9071 34.0363C16.8282 34.0353 16.7493 34.0343 16.668 34.0332C16.589 34.0342 16.5101 34.0353 16.4288 34.0363C16.353 34.036 16.2771 34.0356 16.199 34.0353C16.1297 34.035 16.0605 34.0347 15.9891 34.0344C15.7584 33.9914 15.6812 33.9181 15.5391 33.7344C15.4695 33.4793 15.4493 33.3314 15.5432 33.0828C15.8402 32.7475 16.2857 32.7823 16.7012 32.7839Z" fill="black"/>
<path d="M26.5583 20.8972C26.624 20.8962 26.6897 20.8951 26.7574 20.894C27.3585 20.8936 27.3585 20.8936 27.625 21.1172C27.7645 21.2948 27.7577 21.3857 27.7495 21.6152C27.6845 21.8755 27.6337 21.9504 27.4258 22.1133C27.2413 22.1477 27.2413 22.1477 27.0315 22.1486C26.9177 22.1491 26.9177 22.1491 26.8017 22.1496C26.7227 22.1486 26.6438 22.1476 26.5625 22.1465C26.4836 22.1475 26.4046 22.1485 26.3233 22.1496C26.2475 22.1493 26.1716 22.1489 26.0935 22.1486C26.0242 22.1483 25.955 22.148 25.8836 22.1477C25.6537 22.1048 25.5765 22.0294 25.4336 21.8477C25.352 21.5974 25.3552 21.482 25.446 21.2334C25.7149 20.8255 26.1144 20.8958 26.5583 20.8972Z" fill="black"/>
<path d="M19.648 20.9014C19.747 20.8993 19.747 20.8993 19.848 20.8972C20.4692 20.8939 20.4692 20.8939 20.7188 21.1172C20.821 21.3573 20.8684 21.5082 20.8101 21.7647C20.7057 21.9355 20.6238 22.0091 20.4531 22.1133C20.178 22.1547 19.901 22.1441 19.6231 22.1423C19.5473 22.1437 19.4715 22.145 19.3935 22.1464C19.3206 22.1463 19.2478 22.1463 19.1727 22.1462C19.1063 22.1464 19.0398 22.1465 18.9713 22.1466C18.7465 22.1046 18.6698 22.0226 18.5274 21.8477C18.4326 21.6582 18.4403 21.5266 18.4609 21.3164C18.7669 20.8416 19.1329 20.904 19.648 20.9014Z" fill="black"/>
<path d="M29.0112 16.3774C29.0836 16.3758 29.1559 16.3742 29.2304 16.3725C29.7629 16.3705 29.7629 16.3705 30.0286 16.5284C30.1723 16.6957 30.2111 16.7674 30.2356 16.9875C30.2101 17.2477 30.129 17.3462 29.9492 17.5312C29.6771 17.6673 29.3311 17.6187 29.032 17.6225C28.9593 17.625 28.8867 17.6275 28.8119 17.6301C28.2744 17.636 28.2744 17.636 28.0102 17.4402C27.8828 17.2542 27.8242 17.1588 27.8242 16.9336C28.0642 16.3216 28.4281 16.3781 29.0112 16.3774Z" fill="black"/>
<path d="M22.1008 16.3775C22.2098 16.3737 22.2098 16.3737 22.3209 16.3699C22.8585 16.364 22.8585 16.364 23.1226 16.5598C23.25 16.7458 23.3086 16.8412 23.3086 17.0664C23.2061 17.3278 23.146 17.4404 22.9102 17.5977C22.6483 17.6285 22.385 17.6223 22.1216 17.6226C22.0492 17.6242 21.9769 17.6258 21.9024 17.6275C21.3699 17.6295 21.3699 17.6295 21.1042 17.4716C20.9605 17.3043 20.9217 17.2326 20.8972 17.0125C20.9227 16.7523 21.0038 16.6538 21.1836 16.4688C21.4557 16.3327 21.8017 16.3813 22.1008 16.3775Z" fill="black"/>
<path d="M20.2539 13.9453C20.449 14.0408 20.449 14.0408 20.5859 14.2109C20.6301 14.4923 20.6093 14.7384 20.5195 15.0078C20.5066 15.2436 20.4985 15.4792 20.4913 15.7152C20.4474 15.9711 20.3933 16.0499 20.1875 16.2031C19.9283 16.2738 19.7852 16.2959 19.5359 16.1907C19.3069 16.0009 19.2635 15.8651 19.2355 15.5673C19.2335 15.4763 19.2327 15.3852 19.2329 15.2942C19.233 15.2469 19.2331 15.1996 19.2332 15.1508C19.2437 14.7001 19.3421 14.3509 19.6438 14.0076C19.8611 13.9144 20.0201 13.9166 20.2539 13.9453Z" fill="black"/>
<path d="M22.5449 12.9741C22.6198 12.9728 22.6947 12.9716 22.7719 12.9702C23.3151 12.9735 23.3151 12.9735 23.5906 13.1674C23.7678 13.4417 23.753 13.5571 23.707 13.8789C23.5828 14.0404 23.4891 14.1207 23.3086 14.2109C23.0586 14.2305 22.808 14.2294 22.5574 14.2317C22.4532 14.2346 22.4532 14.2346 22.3469 14.2375C21.8328 14.2418 21.8328 14.2418 21.5709 14.0851C21.413 13.9037 21.3854 13.8356 21.3579 13.5925C21.3828 13.3477 21.3828 13.3477 21.4985 13.1689C21.831 12.9333 22.1474 12.9673 22.5449 12.9741Z" fill="black"/>
<path d="M30.0032 20.9014C30.0695 20.9 30.1358 20.8986 30.2041 20.8972C30.821 20.8939 30.821 20.8939 31.0781 21.1172C31.2214 21.3321 31.2278 21.3719 31.2026 21.6152C31.1984 21.6666 31.1941 21.718 31.1897 21.7709C31.1288 21.9641 31.0513 22.0094 30.8789 22.1133C30.6052 22.1563 30.3297 22.1471 30.053 22.1465C29.9778 22.1484 29.9026 22.1503 29.8251 22.1522C29.2761 22.1535 29.2761 22.1535 29.0029 21.9621C28.8263 21.6873 28.8407 21.5719 28.8867 21.25C29.1962 20.8478 29.5333 20.9038 30.0032 20.9014Z" fill="black"/>
<path d="M25.9856 12.9907C26.0614 12.9882 26.1372 12.9858 26.2153 12.9832C26.7732 12.9773 26.7732 12.9773 27.0445 13.1663C27.2201 13.4416 27.2062 13.5569 27.1602 13.8789C27.036 14.0403 26.9423 14.1207 26.7617 14.2109C26.5117 14.2305 26.2612 14.2294 26.0105 14.2317C25.9063 14.2346 25.9063 14.2346 25.8 14.2375C25.2859 14.2418 25.2859 14.2418 25.024 14.0851C24.8774 13.9167 24.8392 13.849 24.8193 13.6257C24.838 13.3881 24.8942 13.2718 25.0352 13.082C25.3151 12.9421 25.678 12.9945 25.9856 12.9907Z" fill="black"/>
<path d="M20.6731 26.0146C20.7426 26.0133 20.812 26.0119 20.8836 26.0105C20.9508 26.0101 21.0181 26.0098 21.0874 26.0094C21.1795 26.0085 21.1795 26.0085 21.2734 26.0076C21.4848 26.036 21.6093 26.1063 21.7812 26.2305C21.8861 26.4402 21.9021 26.6692 21.8477 26.8945C21.7301 27.0761 21.7301 27.0761 21.5156 27.2266C21.2476 27.2708 20.9855 27.2638 20.7146 27.2556C20.6423 27.2552 20.57 27.2548 20.4955 27.2544C19.8985 27.2453 19.8985 27.2453 19.6562 27.0937C19.5034 26.8797 19.4919 26.6873 19.5234 26.4297C19.8401 25.9546 20.1426 26.0172 20.6731 26.0146Z" fill="black"/>
<path d="M27.127 32.7922C27.19 32.7914 27.2531 32.7906 27.3181 32.7898C27.379 32.7896 27.4399 32.7895 27.5026 32.7894C27.5579 32.7891 27.6132 32.7888 27.6703 32.7885C27.8419 32.8065 27.9451 32.8443 28.0898 32.9375C28.2301 33.1479 28.2447 33.2783 28.2598 33.5263C28.1951 33.7731 28.1 33.8532 27.8906 34C27.6132 34.0495 27.3417 34.0463 27.0605 34.0415C26.9482 34.0434 26.9482 34.0434 26.8336 34.0454C26.2895 34.0422 26.2895 34.0422 26.0149 33.8459C25.8608 33.6104 25.854 33.4796 25.8984 33.2031C26.0841 32.8982 26.0841 32.8982 26.2861 32.8298C26.5642 32.7812 26.8454 32.7924 27.127 32.7922Z" fill="black"/>
<path d="M13.1733 32.7839C13.2555 32.7823 13.2555 32.7823 13.3394 32.7807C13.7019 32.7804 13.9573 32.8301 14.2773 33.0039C14.4035 33.1984 14.4113 33.3084 14.4019 33.5393C14.3331 33.77 14.2652 33.8506 14.0781 34C13.8937 34.0344 13.8937 34.0344 13.6838 34.0353C13.5701 34.0358 13.5701 34.0358 13.454 34.0363C13.3751 34.0353 13.2962 34.0343 13.2148 34.0332C13.1359 34.0342 13.057 34.0353 12.9757 34.0363C12.8998 34.036 12.824 34.0356 12.7458 34.0353C12.6766 34.035 12.6073 34.0347 12.536 34.0344C12.3053 33.9914 12.228 33.9181 12.0859 33.7344C12.0158 33.4773 11.9946 33.3318 12.0942 33.0828C12.3802 32.7491 12.766 32.7824 13.1733 32.7839Z" fill="black"/>
<path d="M23.6033 32.7922C23.6876 32.791 23.6876 32.791 23.7736 32.7898C24.1286 32.7889 24.4183 32.7959 24.6907 33.0496C24.8051 33.2724 24.8042 33.421 24.7695 33.668C24.6592 33.8406 24.6125 33.9056 24.4375 34C24.1477 34.0499 23.8634 34.0463 23.5701 34.0415C23.4521 34.0434 23.4521 34.0434 23.3318 34.0454C23.2563 34.045 23.1807 34.0445 23.1029 34.0441C23.0341 34.0437 22.9652 34.0434 22.8943 34.043C22.6482 33.9853 22.5793 33.8765 22.4453 33.668C22.3951 33.4696 22.4186 33.347 22.4453 33.1367C22.7342 32.7344 23.1528 32.7926 23.6033 32.7922Z" fill="black"/>
<path d="M9.72021 32.7922C9.80496 32.791 9.80496 32.791 9.89141 32.7898C10.2475 32.7889 10.5167 32.8056 10.8099 33.027C10.9139 33.1684 10.9194 33.2569 10.9197 33.4314C10.921 33.482 10.9222 33.5326 10.9236 33.5847C10.8776 33.7937 10.7902 33.8661 10.625 34C10.3413 34.0548 10.0543 34.04 9.76587 34.0373C9.6875 34.0389 9.60913 34.0405 9.52839 34.0421C8.88819 34.0411 8.88819 34.0411 8.6808 33.8462C8.52848 33.6089 8.51696 33.48 8.5664 33.2031C8.90783 32.7786 9.21606 32.7926 9.72021 32.7922Z" fill="black"/>
<path d="M20.146 32.7881C20.2016 32.7867 20.2573 32.7853 20.3146 32.7839C20.654 32.7818 20.8919 32.8106 21.1836 33.0039C21.3269 33.2188 21.3332 33.2586 21.3081 33.5019C21.3038 33.5533 21.2995 33.6047 21.2951 33.6576C21.2341 33.8513 21.1577 33.8964 20.9844 34C20.6981 34.0416 20.41 34.0308 20.1211 34.029C20.0422 34.0304 19.9632 34.0317 19.8819 34.0331C19.8061 34.033 19.7302 34.033 19.6521 34.0329C19.5828 34.0331 19.5136 34.0332 19.4422 34.0333C19.2127 33.9918 19.1348 33.9152 18.9922 33.7344C18.9435 33.5309 18.9544 33.342 18.9922 33.1367C19.2733 32.7351 19.7007 32.7908 20.146 32.7881Z" fill="black"/>
<path d="M29.1814 12.9741C29.2313 12.972 29.2811 12.9698 29.3325 12.9676C29.5402 12.9673 29.6897 12.9706 29.8595 13.0975C29.9889 13.2417 30.0746 13.3697 30.1069 13.5622C30.0703 13.7535 30.0381 13.9137 29.9243 14.074C29.6897 14.2274 29.4661 14.2238 29.1938 14.2275C29.1194 14.2293 29.0449 14.231 28.9682 14.2327C28.7322 14.2087 28.6115 14.1508 28.4219 14.0117C28.2824 13.8342 28.2892 13.7433 28.2974 13.5137C28.4215 13.0171 28.7109 12.9701 29.1814 12.9741Z" fill="black"/>
<path d="M7.17188 32.9375C7.30734 33.0472 7.36455 33.1047 7.39989 33.2776C7.40002 33.3537 7.40002 33.3537 7.40015 33.4314C7.40207 33.5073 7.40207 33.5073 7.40404 33.5847C7.35626 33.8018 7.28766 33.8725 7.10547 34C6.90806 34.0284 6.74191 34.0402 6.54517 34.0374C6.4953 34.0389 6.44544 34.0405 6.39407 34.0422C6.11523 34.0414 6.00524 34.0221 5.77734 33.8462C5.64453 33.668 5.64453 33.668 5.60718 33.4356C5.65034 33.167 5.7136 33.0567 5.91016 32.8711C6.29773 32.7397 6.8136 32.7312 7.17188 32.9375Z" fill="black"/>
</g>
<defs>
<clipPath id="clip0_225_505">
<rect width="34" height="34" fill="white"/>
</clipPath>
</defs>
</svg>
