<svg width="32" height="32" viewBox="0 0 32 32" fill="none" xmlns="http://www.w3.org/2000/svg">
<path d="M19.375 1.68749C19.696 1.86933 19.9504 2.11368 20.2148 2.36718C20.3039 2.45159 20.3929 2.53598 20.4819 2.62036C20.5267 2.66294 20.5715 2.70553 20.6176 2.74941C20.8181 2.93964 21.0204 3.12802 21.2227 3.3164C21.2606 3.35184 21.2985 3.38728 21.3376 3.42379C21.539 3.61191 21.7409 3.79938 21.9436 3.98608C21.9857 4.02503 22.0279 4.06398 22.0713 4.1041C22.1513 4.17808 22.2315 4.25187 22.3119 4.32545C22.9908 4.95411 22.9908 4.95411 23.0077 5.38333C23.0076 5.46474 23.0076 5.54614 23.0075 5.63002C23.0076 5.69802 23.0076 5.69802 23.0077 5.76739C23.0078 5.91969 23.0074 6.07199 23.0071 6.22428C23.0071 6.3333 23.0071 6.44232 23.0071 6.55133C23.0071 6.84767 23.0068 7.14401 23.0063 7.44035C23.0059 7.7499 23.0059 8.05944 23.0058 8.36899C23.0056 8.95534 23.0051 9.54169 23.0045 10.128C23.0038 10.7955 23.0035 11.463 23.0031 12.1304C23.0025 13.5036 23.0014 14.8768 23 16.25C23.6394 16.25 24.2787 16.25 24.9375 16.25C24.9369 15.9879 24.9369 15.9879 24.9362 15.7206C24.9325 14.1189 24.9297 12.5171 24.9279 10.9154C24.9277 10.7055 24.9274 10.4956 24.9272 10.2857C24.9272 10.2439 24.9271 10.2021 24.9271 10.1591C24.9262 9.48233 24.9248 8.80558 24.923 8.12883C24.9213 7.43451 24.9203 6.74018 24.9199 6.04586C24.9196 5.65583 24.919 5.2658 24.9177 4.87578C24.9164 4.50884 24.916 4.1419 24.9163 3.77496C24.9162 3.64014 24.9159 3.50532 24.9151 3.3705C24.9142 3.18668 24.9144 3.00289 24.915 2.81907C24.9144 2.7655 24.9139 2.71194 24.9133 2.65676C24.9162 2.27897 24.9991 2.07861 25.2539 1.79296C25.5308 1.6339 25.752 1.60898 26.0625 1.68749C26.5457 1.97643 26.9333 2.42521 27.3257 2.82543C27.5062 3.00622 27.6936 3.1736 27.8879 3.33911C28.0419 3.47426 28.1834 3.62028 28.3269 3.76635C28.4394 3.87684 28.556 3.97953 28.6758 4.08203C29.521 4.81285 29.521 4.81285 29.625 5.12499C29.6308 5.2732 29.6326 5.42157 29.6325 5.56989C29.6326 5.63827 29.6326 5.63827 29.6327 5.70804C29.6328 5.8612 29.6324 6.01436 29.6321 6.16752C29.6321 6.27715 29.6321 6.38678 29.6321 6.49642C29.6321 6.79443 29.6318 7.09245 29.6313 7.39047C29.6309 7.70177 29.6309 8.01307 29.6308 8.32437C29.6306 8.91404 29.6301 9.50371 29.6295 10.0934C29.6288 10.7646 29.6285 11.4359 29.6281 12.1071C29.6275 13.4881 29.6264 14.869 29.625 16.25C29.7013 16.2483 29.7013 16.2483 29.7792 16.2466C29.8462 16.2457 29.9133 16.2448 29.9824 16.2439C30.0488 16.2428 30.1151 16.2416 30.1835 16.2405C30.4511 16.2538 30.6748 16.3185 30.875 16.5C31.1028 16.8362 31.1614 17.0699 31.1567 17.4716C31.1573 17.5499 31.1573 17.5499 31.1579 17.6297C31.1589 17.8037 31.1581 17.9776 31.1573 18.1516C31.1577 18.2767 31.1581 18.4018 31.1587 18.5268C31.1598 18.8659 31.1594 19.205 31.1586 19.5441C31.1579 19.8991 31.1585 20.2541 31.1589 20.6091C31.1594 21.2052 31.1588 21.8012 31.1576 22.3973C31.1562 23.0864 31.1567 23.7754 31.1581 24.4645C31.1592 25.0563 31.1593 25.648 31.1587 26.2398C31.1583 26.5932 31.1582 26.9466 31.1591 27.3C31.1598 27.6321 31.1593 27.9643 31.1579 28.2965C31.1575 28.4184 31.1576 28.5403 31.1582 28.6621C31.1588 28.8286 31.158 28.9949 31.1567 29.1613C31.1576 29.2336 31.1576 29.2336 31.1584 29.3074C31.1537 29.6305 31.0775 29.8127 30.875 30.0625C30.5902 30.3128 30.3296 30.3216 29.9645 30.3207C29.9157 30.3208 29.8668 30.321 29.8165 30.3211C29.6514 30.3215 29.4863 30.3214 29.3213 30.3213C29.2023 30.3214 29.0833 30.3216 28.9643 30.3218C28.6362 30.3223 28.3081 30.3225 27.9801 30.3225C27.6266 30.3226 27.2732 30.3231 26.9198 30.3235C26.1466 30.3244 25.3734 30.3247 24.6001 30.325C24.1176 30.3252 23.6351 30.3254 23.1526 30.3257C21.8174 30.3265 20.4822 30.3271 19.147 30.3273C19.0607 30.3274 18.9743 30.3274 18.888 30.3274C18.8014 30.3274 18.7148 30.3274 18.6283 30.3274C18.4546 30.3275 18.2809 30.3275 18.1072 30.3275C18.0642 30.3275 18.0211 30.3275 17.9767 30.3275C16.5801 30.3278 15.1835 30.3288 13.7869 30.3302C12.3108 30.3317 10.8346 30.3326 9.35848 30.3327C8.55364 30.3327 7.74879 30.3331 6.94395 30.3342C6.25872 30.3352 5.57349 30.3355 4.88825 30.335C4.53846 30.3348 4.18868 30.3348 3.83889 30.3357C3.51887 30.3365 3.19886 30.3364 2.87883 30.3356C2.76288 30.3355 2.64692 30.3357 2.53096 30.3363C2.37365 30.337 2.21638 30.3365 2.05907 30.3357C1.99114 30.3365 1.99114 30.3365 1.92184 30.3372C1.63147 30.3342 1.43425 30.2775 1.1875 30.125C0.886363 29.7913 0.865693 29.5739 0.865921 29.136C0.865711 29.0789 0.865502 29.0217 0.865286 28.9629C0.864691 28.7734 0.864569 28.584 0.864502 28.3945C0.864301 28.2633 0.86409 28.132 0.863871 28.0008C0.863496 27.7255 0.863382 27.4502 0.863419 27.1749C0.863425 26.8213 0.862572 26.4678 0.861496 26.1143C0.860803 25.8432 0.860673 25.5721 0.860706 25.3011C0.860632 25.1707 0.860354 25.0403 0.859873 24.9099C0.859264 24.7279 0.85944 24.546 0.859818 24.364C0.859291 24.2826 0.859291 24.2826 0.858753 24.1995C0.86073 23.8268 0.86073 23.8268 1 23.6875C1.28472 23.7222 1.28472 23.7222 1.375 23.8125C1.38116 23.9858 1.38331 24.1576 1.38287 24.331C1.38299 24.3854 1.38311 24.4397 1.38323 24.4957C1.38348 24.6143 1.38361 24.7328 1.38363 24.8513C1.38384 25.103 1.38518 25.3548 1.38646 25.6065C1.38884 26.0757 1.39079 26.5449 1.39066 27.0141C1.39061 27.34 1.39207 27.6659 1.39452 27.9918C1.39518 28.116 1.39527 28.2403 1.39479 28.3646C1.39419 28.5387 1.39552 28.7126 1.39728 28.8867C1.39664 28.938 1.396 28.9894 1.39535 29.0423C1.39621 29.09 1.39708 29.1377 1.39797 29.1868C1.39806 29.2279 1.39815 29.269 1.39825 29.3114C1.46282 29.5189 1.58295 29.6161 1.75 29.75C1.93842 29.7966 1.93842 29.7966 2.14586 29.7899C2.2257 29.7909 2.30554 29.7919 2.3878 29.7928C2.4758 29.7923 2.56381 29.7918 2.65181 29.7912C2.74484 29.7917 2.83786 29.7924 2.93089 29.7932C3.18306 29.795 3.43521 29.7948 3.68739 29.7943C3.95107 29.7941 4.21473 29.7957 4.4784 29.797C4.97754 29.7994 5.47666 29.8001 5.9758 29.8003C6.54413 29.8006 7.11243 29.8027 7.68075 29.8049C8.84967 29.8094 10.0186 29.8117 11.1875 29.8125C11.1868 29.7451 11.1861 29.6776 11.1854 29.6082C11.1791 28.9727 11.1744 28.3373 11.1713 27.7018C11.1697 27.3751 11.1675 27.0484 11.1639 26.7217C11.1605 26.4064 11.1587 26.0912 11.1579 25.7759C11.1573 25.6556 11.1561 25.5353 11.1545 25.415C11.1522 25.2465 11.1519 25.0781 11.152 24.9096C11.1509 24.8599 11.1498 24.8102 11.1486 24.7589C11.151 24.5063 11.1757 24.3899 11.3342 24.1892C11.573 24.0067 11.7433 23.9921 12.0354 23.9912C12.1078 23.9909 12.1801 23.9905 12.2547 23.9901C12.3342 23.9901 12.4137 23.99 12.4956 23.9899C12.5801 23.9896 12.6646 23.9893 12.7491 23.989C12.9787 23.9882 13.2083 23.9878 13.4379 23.9875C13.5813 23.9873 13.7247 23.987 13.8682 23.9868C14.317 23.9859 14.7658 23.9853 15.2146 23.9851C15.7327 23.9848 16.2508 23.9837 16.7689 23.9819C17.1693 23.9805 17.5698 23.9799 17.9703 23.9798C18.2095 23.9797 18.4487 23.9794 18.6879 23.9783C18.9129 23.9772 19.1379 23.9771 19.3629 23.9776C19.4847 23.9777 19.6065 23.9769 19.7283 23.976C19.8374 23.9765 19.8374 23.9765 19.9487 23.977C20.0118 23.9769 20.0749 23.9768 20.1399 23.9767C20.3417 24.0039 20.4586 24.0727 20.625 24.1875C20.6804 24.2236 20.6804 24.2236 20.7369 24.2604C20.8645 24.4538 20.8368 24.6715 20.8338 24.8954C20.8338 24.9485 20.8338 25.0016 20.8339 25.0562C20.8337 25.2317 20.8323 25.4072 20.8308 25.5828C20.8305 25.7044 20.8302 25.826 20.83 25.9477C20.8293 26.268 20.8274 26.5882 20.8254 26.9085C20.8235 27.2353 20.8226 27.562 20.8217 27.8888C20.8196 28.53 20.8164 29.1713 20.8125 29.8125C22.0376 29.8116 23.2627 29.809 24.4878 29.8042C25.0566 29.8021 25.6255 29.8005 26.1943 29.8003C26.6901 29.8001 27.1858 29.7988 27.6816 29.7962C27.9441 29.7949 28.2066 29.7941 28.4692 29.7946C28.7163 29.7951 28.9634 29.7941 29.2105 29.792C29.3012 29.7915 29.3918 29.7915 29.4825 29.7921C29.6064 29.7928 29.7303 29.7914 29.8541 29.7899C29.9234 29.7898 29.9928 29.7896 30.0642 29.7894C30.3203 29.7351 30.4098 29.6487 30.5625 29.4375C30.593 29.2572 30.6043 29.114 30.6013 28.9342C30.6017 28.8838 30.6021 28.8334 30.6026 28.7815C30.6035 28.6129 30.6022 28.4444 30.601 28.2757C30.6012 28.1548 30.6015 28.0338 30.602 27.9129C30.6029 27.5845 30.6018 27.2562 30.6004 26.9278C30.5991 26.5843 30.5995 26.2409 30.5996 25.8974C30.5996 25.3207 30.5984 24.7439 30.5964 24.1672C30.5941 23.5001 30.5935 22.8329 30.594 22.1658C30.5943 21.5244 30.5937 20.883 30.5925 20.2415C30.5919 19.9684 30.5918 19.6952 30.5919 19.4221C30.5919 19.1006 30.591 18.7791 30.5894 18.4576C30.589 18.3395 30.5888 18.2214 30.5891 18.1033C30.5893 17.9423 30.5884 17.7814 30.5872 17.6204C30.5877 17.5499 30.5877 17.5499 30.5882 17.4781C30.5858 17.2975 30.5755 17.152 30.4967 16.9881C30.3166 16.8207 30.1369 16.8405 29.9035 16.8435C29.8548 16.8432 29.8061 16.8428 29.7559 16.8424C29.5913 16.8415 29.4268 16.8424 29.2623 16.8432C29.1436 16.843 29.025 16.8426 28.9064 16.8421C28.5794 16.841 28.2524 16.8415 27.9254 16.8423C27.5731 16.8429 27.2209 16.842 26.8686 16.8413C26.1781 16.8402 25.4877 16.8404 24.7972 16.8412C24.2362 16.8417 23.6752 16.8418 23.1143 16.8415C23.0346 16.8415 22.9549 16.8415 22.8727 16.8414C22.7108 16.8413 22.5489 16.8413 22.387 16.8412C20.9106 16.8405 19.4342 16.8412 17.9578 16.8425C16.6093 16.8437 15.2607 16.8436 13.9122 16.8424C12.398 16.8411 10.8839 16.8405 9.36971 16.8413C9.20838 16.8414 9.04705 16.8415 8.88572 16.8415C8.80633 16.8416 8.72695 16.8416 8.64516 16.8417C8.0846 16.8419 7.52404 16.8415 6.96348 16.8409C6.28073 16.8402 5.59799 16.8404 4.91524 16.8417C4.56661 16.8424 4.218 16.8427 3.86937 16.8418C3.55062 16.8411 3.2319 16.8415 2.91316 16.8428C2.79746 16.8431 2.68175 16.843 2.56605 16.8424C2.40952 16.8416 2.25307 16.8424 2.09655 16.8435C2.05097 16.8429 2.00539 16.8424 1.95843 16.8418C1.75965 16.8448 1.65248 16.8497 1.50334 16.987C1.39988 17.2038 1.41006 17.4229 1.41048 17.6583C1.40984 17.7119 1.4092 17.7656 1.40855 17.8209C1.40666 17.9981 1.40608 18.1753 1.40552 18.3525C1.40446 18.4755 1.40333 18.5984 1.40212 18.7214C1.39915 19.0448 1.39729 19.3683 1.39565 19.6918C1.39379 20.0219 1.39088 20.352 1.38806 20.6821C1.38268 21.3297 1.37847 21.9774 1.375 22.625C1.23047 22.6953 1.23047 22.6953 1.0625 22.75C1.00062 22.7087 0.93875 22.6675 0.875 22.625C0.855786 22.4442 0.848768 22.2767 0.849747 22.0957C0.849318 22.0409 0.84889 21.9861 0.848448 21.9296C0.8473 21.7477 0.847546 21.5659 0.8479 21.384C0.847615 21.2577 0.847283 21.1315 0.846907 21.0052C0.846347 20.74 0.846502 20.4748 0.847122 20.2096C0.847838 19.8703 0.846581 19.531 0.844753 19.1916C0.843604 18.9306 0.843622 18.6695 0.843979 18.4084C0.843988 18.2834 0.843612 18.1583 0.842836 18.0332C0.841903 17.8579 0.842573 17.6826 0.843643 17.5073C0.843039 17.4559 0.842435 17.4044 0.841812 17.3515C0.846316 16.9977 0.923928 16.7923 1.125 16.5C1.4389 16.2318 1.79315 16.2231 2.1875 16.25C2.19322 16.2127 2.19893 16.1754 2.20482 16.137C2.28896 15.6316 2.42156 15.1427 2.55689 14.6495C3.30322 11.9125 3.85305 9.11536 3.99301 6.27815C3.99594 6.22724 3.99886 6.17634 4.00187 6.1239C4.00731 6.02884 4.01179 5.93373 4.01516 5.83858C4.02644 5.6518 4.04107 5.5273 4.15817 5.37811C4.38111 5.28332 4.59576 5.28449 4.83398 5.28539C4.88437 5.28507 4.93475 5.28474 4.98666 5.2844C5.09298 5.284 5.19931 5.28408 5.30563 5.28462C5.46821 5.28515 5.63065 5.28335 5.79321 5.28137C5.89665 5.28127 6.00008 5.2813 6.10352 5.28149C6.15202 5.28079 6.20053 5.28008 6.25051 5.27936C6.45954 5.28206 6.6006 5.29716 6.77919 5.40939C6.90854 5.6161 6.91988 5.80584 6.92944 6.04321C6.93238 6.09097 6.93532 6.13874 6.93835 6.18796C6.94469 6.29121 6.95057 6.39449 6.95603 6.4978C6.97111 6.77552 6.99087 7.0529 7.01074 7.33032C7.01477 7.38689 7.0188 7.44346 7.02294 7.50175C7.20146 9.91655 7.77466 12.2882 8.3727 14.6272C8.38847 14.689 8.40423 14.7508 8.42048 14.8144C8.4499 14.9293 8.47948 15.0442 8.50926 15.159C8.6021 15.5207 8.67938 15.8833 8.75 16.25C9.08 16.25 9.41 16.25 9.75 16.25C9.7844 16.1118 9.8188 15.9737 9.85425 15.8313C9.94107 15.4832 10.0291 15.1355 10.1183 14.788C10.802 12.1224 11.5067 9.34354 11.5725 6.57714C11.5742 6.51722 11.5759 6.4573 11.5777 6.39556C11.5805 6.28113 11.5819 6.16665 11.5817 6.05218C11.5829 6.0008 11.584 5.94942 11.5852 5.89648C11.5854 5.85148 11.5856 5.80649 11.5858 5.76013C11.6494 5.54105 11.7578 5.44939 11.9375 5.31249C12.1215 5.28278 12.2682 5.27137 12.4514 5.27538C12.5003 5.27538 12.5492 5.27538 12.5996 5.27538C12.7026 5.27571 12.8056 5.27681 12.9086 5.27862C13.0661 5.28124 13.2235 5.28119 13.381 5.28076C13.4813 5.28141 13.5816 5.28222 13.6819 5.2832C13.7288 5.28321 13.7758 5.28322 13.8241 5.28324C14.0219 5.2877 14.1654 5.30034 14.3402 5.39636C14.5324 5.60107 14.5138 5.83898 14.5269 6.10644C14.5314 6.19245 14.5359 6.27846 14.5404 6.36447C14.5439 6.43209 14.5439 6.43209 14.5474 6.50109C14.5861 7.24585 14.6382 7.98269 14.7522 8.72051C14.8103 9.10773 14.8217 9.48363 14.8125 9.87499C14.6328 9.91406 14.6328 9.91406 14.4375 9.93749C14.2787 9.77868 14.2814 9.68868 14.25 9.46801C14.2346 9.36118 14.2346 9.36118 14.2189 9.25219C14.2086 9.17541 14.1982 9.09863 14.1875 9.01953C14.1712 8.90182 14.1712 8.90182 14.1546 8.78173C14.0873 8.28248 14.0291 7.78302 13.9844 7.28124C13.9769 7.19814 13.9769 7.19814 13.9692 7.11335C13.9354 6.69684 13.9375 6.29638 13.9375 5.87499C13.36 5.87499 12.7825 5.87499 12.1875 5.87499C12.1875 6.08124 12.1875 6.28749 12.1875 6.49999C12.0207 9.79807 11.2044 13.0065 10.375 16.1875C12.1488 16.1875 13.9225 16.1875 15.75 16.1875C15.6482 15.8085 15.5463 15.4295 15.4414 15.0391C15.1838 14.0659 14.9486 13.0899 14.7383 12.1055C14.726 12.0487 14.7138 11.9919 14.7012 11.9333C14.6667 11.7723 14.6326 11.6112 14.5989 11.4499C14.5888 11.4025 14.5786 11.355 14.5682 11.3061C14.4756 10.8552 14.4756 10.8552 14.5 10.625C14.5413 10.5837 14.5825 10.5425 14.625 10.5C14.8203 10.5234 14.8203 10.5234 15 10.5625C15.1072 10.9766 15.2067 11.3919 15.2976 11.8098C15.312 11.8759 15.312 11.8759 15.3266 11.9433C15.3467 12.0356 15.3667 12.1278 15.3868 12.2201C15.6772 13.5536 16.0159 14.8708 16.375 16.1875C17.0144 16.2081 17.6537 16.2287 18.3125 16.25C18.3125 13.7544 18.3125 11.2587 18.3125 8.68749C18.4156 8.64624 18.5187 8.60499 18.625 8.56249C18.6869 8.60374 18.7488 8.64499 18.8125 8.68749C18.8356 8.82098 18.8356 8.82098 18.835 8.98963C18.8354 9.08533 18.8354 9.08533 18.8358 9.18297C18.8352 9.25324 18.8345 9.3235 18.8338 9.3959C18.8338 9.46968 18.8338 9.54346 18.8339 9.61947C18.8338 9.82208 18.8328 10.0247 18.8315 10.2273C18.8303 10.4389 18.8302 10.6505 18.83 10.8621C18.8294 11.263 18.8279 11.6638 18.826 12.0647C18.8237 12.5658 18.8227 13.0668 18.8217 13.5679C18.8198 14.4619 18.8161 15.3559 18.8125 16.25C20.0088 16.25 21.205 16.25 22.4375 16.25C22.4477 14.8205 22.4545 13.3912 22.4552 11.9617C22.4556 11.298 22.4575 10.6342 22.463 9.97048C22.4678 9.39172 22.4697 8.81302 22.4683 8.23424C22.4676 7.92794 22.4683 7.62179 22.4725 7.31552C22.4764 7.02673 22.4764 6.73819 22.4736 6.44939C22.4732 6.34388 22.4742 6.23835 22.4767 6.13286C22.4936 5.49949 22.4936 5.49949 22.1969 4.96155C21.9992 4.76741 21.7842 4.60315 21.5625 4.43749C21.4729 4.35633 21.3841 4.27417 21.2974 4.18994C21.2597 4.15452 21.2219 4.11911 21.1831 4.08262C21.1459 4.04762 21.1087 4.01262 21.0703 3.97656C20.9859 3.89737 20.9015 3.81818 20.8171 3.73901C20.6893 3.61905 20.5615 3.49907 20.4337 3.37905C20.3088 3.26172 20.1837 3.14452 20.0586 3.02734C20.0214 2.99238 19.9843 2.95743 19.946 2.92141C19.8749 2.85495 19.8036 2.78884 19.7319 2.72311C19.657 2.65438 19.583 2.58473 19.5096 2.51443C19.4717 2.47945 19.4338 2.44448 19.3948 2.40844C19.361 2.37654 19.3272 2.34464 19.2924 2.31178C19.1883 2.23656 19.1883 2.23656 19.0535 2.26353C18.9254 2.30279 18.9254 2.30279 18.875 2.43749C18.868 2.59509 18.8647 2.75104 18.8642 2.90869C18.8637 2.95727 18.8633 3.00586 18.8629 3.05591C18.862 3.16156 18.8613 3.26722 18.8606 3.37287C18.8596 3.53989 18.8582 3.70691 18.8566 3.87393C18.8522 4.34885 18.8484 4.82377 18.8452 5.2987C18.8432 5.589 18.8406 5.8793 18.8377 6.16959C18.8367 6.28043 18.8359 6.39127 18.8354 6.50212C18.8346 6.65686 18.8331 6.81157 18.8314 6.9663C18.8314 7.01241 18.8314 7.05852 18.8313 7.10602C18.8267 7.42325 18.8267 7.42325 18.6875 7.56249C18.4028 7.52777 18.4028 7.52777 18.3125 7.43749C18.3056 7.27561 18.3027 7.11537 18.3024 6.95342C18.3021 6.90271 18.3018 6.852 18.3015 6.79975C18.3006 6.63114 18.3001 6.46254 18.2998 6.29394C18.2994 6.17707 18.2991 6.0602 18.2987 5.94333C18.2981 5.69786 18.2977 5.45238 18.2975 5.2069C18.2971 4.89242 18.2956 4.57795 18.2939 4.26347C18.2927 4.02187 18.2924 3.78027 18.2923 3.53866C18.2921 3.42274 18.2916 3.30682 18.2908 3.1909C18.2897 3.02856 18.2898 2.86626 18.2902 2.70391C18.2896 2.65604 18.2891 2.60817 18.2885 2.55885C18.2907 2.2774 18.3276 2.09944 18.5 1.87499C18.7549 1.65755 19.0525 1.62024 19.375 1.68749ZM25.5 2.31249C25.4816 2.49817 25.4756 2.67082 25.4775 2.85665C25.4773 2.91367 25.4771 2.97069 25.477 3.02944C25.4767 3.22167 25.4777 3.41387 25.4787 3.6061C25.4788 3.74344 25.4787 3.88077 25.4786 4.0181C25.4786 4.39192 25.4797 4.76573 25.481 5.13955C25.4822 5.52985 25.4823 5.92014 25.4825 6.31044C25.483 6.96585 25.4842 7.62126 25.4859 8.27667C25.4876 8.95182 25.4889 9.62697 25.4897 10.3021C25.4897 10.3437 25.4898 10.3853 25.4898 10.4282C25.4901 10.6369 25.4903 10.8455 25.4906 11.0542C25.4925 12.7861 25.496 14.5181 25.5 16.25C26.6756 16.25 27.8512 16.25 29.0625 16.25C29.0865 14.8249 29.1061 13.4 29.1175 11.9747C29.123 11.3128 29.1305 10.6511 29.1427 9.98934C29.1533 9.41215 29.1601 8.83505 29.1625 8.25776C29.1638 7.95237 29.1671 7.64726 29.1748 7.34195C29.2679 6.02099 29.2679 6.02099 28.8367 4.82643C28.6265 4.60582 28.3983 4.43748 28.1389 4.2791C27.8968 4.11942 27.6982 3.9136 27.4922 3.71093C27.4105 3.63406 27.3287 3.55738 27.2466 3.48095C27.0768 3.32199 26.9072 3.16277 26.7378 3.00341C26.6533 2.92414 26.5689 2.84488 26.4844 2.76562C26.4456 2.72907 26.4069 2.69252 26.3669 2.65487C25.9823 2.22458 25.9823 2.22458 25.5 2.31249ZM4.5625 5.87499C4.54832 6.13667 4.53414 6.39835 4.51953 6.66796C4.3374 9.51797 3.73396 12.299 3.01038 15.0556C2.9931 15.1215 2.97582 15.1874 2.95802 15.2554C2.92543 15.3793 2.89261 15.5032 2.85951 15.6271C2.84504 15.6819 2.83057 15.7367 2.81566 15.7932C2.80292 15.841 2.79018 15.8887 2.77706 15.9379C2.74337 16.0718 2.74337 16.0718 2.75 16.25C4.54437 16.25 6.33875 16.25 8.1875 16.25C8.10642 15.8446 8.0214 15.4472 7.91748 15.0481C7.88909 14.9374 7.86074 14.8268 7.83243 14.7161C7.8177 14.6587 7.80297 14.6012 7.7878 14.542C7.05888 11.6861 6.51009 8.82435 6.375 5.87499C5.77688 5.87499 5.17875 5.87499 4.5625 5.87499ZM11.6875 24.625C11.6816 24.7866 11.6797 24.9466 11.6804 25.1083C11.6804 25.1589 11.6804 25.2095 11.6804 25.2616C11.6804 25.4297 11.6809 25.5978 11.6814 25.7659C11.6815 25.8821 11.6816 25.9983 11.6817 26.1145C11.6819 26.421 11.6825 26.7275 11.6832 27.034C11.684 27.4014 11.6842 27.7689 11.6846 28.1363C11.6852 28.695 11.6864 29.2537 11.6875 29.8125C13.0281 29.8125 14.3687 29.8125 15.75 29.8125C15.75 28.08 15.75 26.3475 15.75 24.5625C15.0913 24.5612 14.4326 24.5599 13.7539 24.5586C13.5456 24.558 13.3374 24.5574 13.1228 24.5569C12.9589 24.5567 12.795 24.5565 12.6311 24.5564C12.5882 24.5562 12.5454 24.5561 12.5012 24.5559C12.3756 24.5554 12.2499 24.5554 12.1243 24.5554C12.0179 24.5552 12.0179 24.5552 11.9094 24.555C11.7541 24.5444 11.7541 24.5444 11.6875 24.625ZM16.25 24.5625C16.25 26.295 16.25 28.0275 16.25 29.8125C17.5906 29.8125 18.9312 29.8125 20.3125 29.8125C20.3143 28.892 20.3143 28.892 20.3156 27.9716C20.3159 27.5964 20.3164 27.2212 20.3172 26.846C20.3179 26.5437 20.3183 26.2414 20.3184 25.9391C20.3185 25.8235 20.3188 25.7079 20.3191 25.5923C20.3196 25.431 20.3196 25.2696 20.3196 25.1083C20.3199 25.0359 20.3199 25.0359 20.3203 24.962C20.3398 24.744 20.3398 24.744 20.25 24.5625C20.1254 24.5566 20.0005 24.5552 19.8757 24.5554C19.7945 24.5554 19.7133 24.5554 19.6296 24.5554C19.5427 24.5557 19.4558 24.5561 19.3689 24.5564C19.2903 24.5565 19.2118 24.5565 19.1308 24.5566C18.8359 24.5569 18.541 24.5578 18.2461 24.5586C17.258 24.5605 17.258 24.5605 16.25 24.5625Z" fill="#D62828"/>
<path d="M15.2769 18.3374C15.362 18.3366 15.362 18.3366 15.4489 18.3358C15.5688 18.3351 15.6887 18.335 15.8086 18.3355C15.9912 18.3359 16.1736 18.333 16.3562 18.3298C16.473 18.3295 16.5898 18.3295 16.7065 18.3296C16.7607 18.3284 16.8149 18.3273 16.8707 18.3261C17.2243 18.3314 17.4108 18.409 17.6695 18.6512C17.866 18.8923 17.8248 19.1952 17.8274 19.4895C17.8279 19.5438 17.8284 19.5982 17.8289 19.6541C17.8298 19.7691 17.8305 19.8842 17.8309 19.9992C17.832 20.1745 17.8348 20.3497 17.8375 20.525C17.8382 20.6369 17.8387 20.7487 17.8391 20.8606C17.8402 20.9128 17.8413 20.9649 17.8424 21.0187C17.8412 21.3533 17.795 21.554 17.5625 21.8125C17.2616 22.0181 16.9961 22.0276 16.6445 22.0249C16.5932 22.0251 16.5419 22.0253 16.4891 22.0254C16.3811 22.0256 16.2731 22.0252 16.1651 22.0244C16.0005 22.0234 15.836 22.0244 15.6714 22.0256C15.5661 22.0255 15.4608 22.0253 15.3555 22.0249C15.2822 22.0255 15.2822 22.0255 15.2075 22.026C14.9068 22.0222 14.6929 21.9871 14.4375 21.8125C14.1647 21.5081 14.1512 21.2539 14.1565 20.865C14.1564 20.8108 14.1563 20.7565 14.1562 20.7007C14.1563 20.5865 14.157 20.4724 14.1583 20.3583C14.1602 20.1839 14.1596 20.0097 14.1588 19.8353C14.1592 19.7241 14.1597 19.6129 14.1604 19.5017C14.1602 19.4498 14.16 19.3979 14.1598 19.3444C14.166 18.9636 14.2441 18.7669 14.5061 18.4828C14.7632 18.33 14.9826 18.3368 15.2769 18.3374ZM14.75 19C14.7318 19.1759 14.7253 19.3378 14.7273 19.5137C14.7273 19.5645 14.7272 19.6154 14.7272 19.6678C14.7273 19.7754 14.728 19.883 14.729 19.9906C14.7305 20.1556 14.7303 20.3206 14.7299 20.4856C14.7302 20.59 14.7307 20.6944 14.7312 20.7988C14.7311 20.8484 14.7311 20.8979 14.731 20.949C14.7241 21.2224 14.7241 21.2224 14.875 21.4375C15.0438 21.45 15.2061 21.455 15.375 21.4541C15.4492 21.4543 15.4492 21.4543 15.5249 21.4545C15.6296 21.4545 15.7342 21.4543 15.8389 21.4538C15.9994 21.4531 16.1598 21.4538 16.3203 21.4546C16.4219 21.4545 16.5234 21.4543 16.625 21.4541C16.6973 21.4545 16.6973 21.4545 16.771 21.4549C17.0395 21.4623 17.0395 21.4623 17.25 21.3125C17.2633 21.1392 17.269 20.9722 17.2688 20.7988C17.2692 20.7225 17.2692 20.7225 17.2696 20.6447C17.27 20.5371 17.27 20.4295 17.2697 20.3219C17.2695 20.1569 17.271 19.9919 17.2726 19.8269C17.2727 19.7225 17.2728 19.6181 17.2727 19.5137C17.2733 19.4641 17.2739 19.4146 17.2745 19.3635C17.2753 19.2099 17.2753 19.2099 17.25 19C17.0215 18.8476 16.8501 18.8569 16.5859 18.8584C16.5163 18.8582 16.5163 18.8582 16.4452 18.858C16.347 18.8579 16.2489 18.8582 16.1508 18.8587C16.0006 18.8594 15.8504 18.8587 15.7002 18.8579C15.6048 18.858 15.5094 18.8581 15.4141 18.8584C15.3467 18.858 15.3467 18.858 15.2779 18.8576C15.0467 18.8598 14.9476 18.8682 14.75 19Z" fill="#D62828"/>
<path d="M26.5215 18.3418C26.5769 18.3416 26.6324 18.3413 26.6895 18.3411C26.8064 18.3409 26.9232 18.3414 27.04 18.3424C27.2182 18.3438 27.3963 18.3424 27.5745 18.3408C27.6883 18.341 27.8022 18.3413 27.916 18.3418C27.9954 18.341 27.9954 18.341 28.0764 18.3403C28.412 18.3456 28.6127 18.3961 28.875 18.625C28.9818 18.8008 29.0161 18.9339 29.0191 19.1384C29.0201 19.1897 29.0211 19.2411 29.0222 19.2939C29.0225 19.3489 29.0228 19.4038 29.0232 19.4605C29.024 19.546 29.024 19.546 29.0249 19.6332C29.0258 19.7538 29.0264 19.8743 29.0266 19.9948C29.0273 20.1786 29.0304 20.3623 29.0336 20.5462C29.0342 20.6634 29.0346 20.7807 29.0349 20.898C29.0361 20.9527 29.0374 21.0074 29.0386 21.0637C29.0367 21.3265 29.0232 21.5068 28.8572 21.7173C28.5444 22.0079 28.3156 22.0198 27.8953 22.021C27.8426 22.0214 27.7898 22.0218 27.7355 22.0223C27.6241 22.0229 27.5127 22.0232 27.4013 22.0232C27.2317 22.0234 27.0622 22.0257 26.8927 22.0281C26.7842 22.0285 26.6757 22.0287 26.5671 22.0288C26.5169 22.0297 26.4666 22.0306 26.4148 22.0315C26.0603 22.0287 25.8461 21.9689 25.5625 21.75C25.3739 21.4315 25.3471 21.1524 25.3501 20.793C25.3499 20.7447 25.3497 20.6964 25.3496 20.6467C25.3494 20.5452 25.3498 20.4437 25.3506 20.3422C25.3516 20.1879 25.3506 20.0337 25.3494 19.8794C25.3495 19.7803 25.3497 19.6812 25.3501 19.582C25.3495 19.5137 25.3495 19.5137 25.3489 19.4439C25.3531 19.1341 25.4053 18.8995 25.5625 18.625C25.8641 18.3464 26.1315 18.3381 26.5215 18.3418ZM26.003 18.9387C25.8968 19.1394 25.9121 19.3471 25.9148 19.5686C25.9148 19.618 25.9147 19.6674 25.9147 19.7182C25.9148 19.8225 25.9155 19.9268 25.9165 20.0311C25.918 20.191 25.9178 20.3509 25.9174 20.5109C25.9177 20.6121 25.9181 20.7134 25.9187 20.8147C25.9186 20.8627 25.9186 20.9107 25.9185 20.9601C25.9127 21.2277 25.9127 21.2277 26.0625 21.4375C26.2358 21.4508 26.4027 21.4565 26.5762 21.4563C26.6525 21.4567 26.6525 21.4567 26.7303 21.4571C26.8379 21.4575 26.9455 21.4575 27.0531 21.4572C27.2181 21.457 27.3831 21.4585 27.5481 21.4601C27.6525 21.4602 27.7569 21.4603 27.8613 21.4602C27.9109 21.4608 27.9604 21.4614 28.0115 21.462C28.1651 21.4628 28.1651 21.4628 28.375 21.4375C28.5289 21.2066 28.5202 21.0272 28.521 20.7598C28.5214 20.7119 28.5218 20.6641 28.5223 20.6148C28.5229 20.5137 28.5232 20.4126 28.5232 20.3116C28.5234 20.1568 28.5257 20.0022 28.5281 19.8474C28.5284 19.7492 28.5287 19.651 28.5288 19.5527C28.5297 19.5064 28.5306 19.4602 28.5315 19.4125C28.5298 19.2194 28.5248 19.0941 28.4034 18.9397C28.1917 18.8504 27.9932 18.8482 27.7673 18.8501C27.721 18.8499 27.6746 18.8497 27.6268 18.8496C27.5291 18.8494 27.4313 18.8498 27.3335 18.8506C27.1839 18.8516 27.0343 18.8506 26.8846 18.8494C26.7895 18.8495 26.6945 18.8497 26.5994 18.8501C26.5546 18.8497 26.5099 18.8493 26.4638 18.849C26.2933 18.8514 26.1557 18.859 26.003 18.9387Z" fill="#D62828"/>
<path d="M20.5702 18.3568C20.6202 18.3561 20.6703 18.3553 20.7219 18.3544C20.8023 18.3542 20.8023 18.3542 20.8843 18.354C20.9399 18.3536 20.9955 18.3532 21.0529 18.3527C21.1704 18.3521 21.288 18.3518 21.4056 18.3518C21.5849 18.3516 21.7641 18.3493 21.9434 18.3469C22.0578 18.3466 22.1722 18.3463 22.2866 18.3462C22.3666 18.3448 22.3666 18.3448 22.4482 18.3435C22.7846 18.346 22.9931 18.3869 23.25 18.625C23.4345 18.9471 23.4654 19.2213 23.4624 19.582C23.4626 19.6303 23.4628 19.6786 23.4629 19.7284C23.4631 19.8298 23.4627 19.9313 23.4619 20.0328C23.4609 20.1871 23.4619 20.3413 23.4631 20.4956C23.463 20.5947 23.4628 20.6939 23.4624 20.793C23.463 20.8614 23.463 20.8614 23.4636 20.9311C23.4594 21.2408 23.4112 21.4777 23.25 21.75C22.9216 22.0027 22.6559 22.0373 22.2498 22.0332C22.1709 22.0336 22.1709 22.0336 22.0904 22.0339C21.9798 22.0341 21.8692 22.0336 21.7587 22.0326C21.5901 22.0313 21.4216 22.0326 21.2531 22.0342C21.1452 22.034 21.0373 22.0337 20.9294 22.0332C20.8794 22.0337 20.8294 22.0342 20.7779 22.0347C20.3875 22.0282 20.1766 21.9091 19.8845 21.646C19.7682 21.4101 19.7845 21.174 19.7854 20.9146C19.7851 20.8575 19.7847 20.8005 19.7844 20.7418C19.784 20.6213 19.7841 20.5007 19.7846 20.3802C19.7852 20.1964 19.7834 20.0127 19.7814 19.8289C19.7813 19.7116 19.7813 19.5943 19.7815 19.4771C19.7808 19.4224 19.7801 19.3677 19.7794 19.3113C19.7832 18.9706 19.8287 18.7659 20.0625 18.5C20.2366 18.3945 20.3676 18.359 20.5702 18.3568ZM20.4091 18.9397C20.2605 19.1286 20.2792 19.3226 20.2837 19.5527C20.2837 19.6006 20.2838 19.6484 20.2839 19.6977C20.2842 19.7988 20.2852 19.8999 20.2868 20.001C20.2891 20.1557 20.2893 20.3103 20.2893 20.4651C20.2899 20.5633 20.2906 20.6615 20.2915 20.7598C20.2916 20.8061 20.2918 20.8524 20.2919 20.9001C20.2962 21.1331 20.3049 21.2387 20.4375 21.4375C20.6134 21.4557 20.7753 21.4623 20.9512 21.4602C21.002 21.4602 21.0529 21.4603 21.1053 21.4603C21.2129 21.4602 21.3205 21.4596 21.4281 21.4585C21.5931 21.457 21.7581 21.4572 21.9231 21.4576C22.0275 21.4573 22.1319 21.4569 22.2363 21.4563C22.3106 21.4564 22.3106 21.4564 22.3865 21.4565C22.66 21.4634 22.66 21.4634 22.875 21.3125C22.8883 21.1444 22.894 20.9829 22.8938 20.8147C22.8942 20.7407 22.8942 20.7407 22.8946 20.6652C22.895 20.5609 22.895 20.4565 22.8947 20.3521C22.8945 20.1922 22.896 20.0325 22.8976 19.8727C22.8977 19.7713 22.8978 19.67 22.8977 19.5686C22.8983 19.5208 22.8989 19.4729 22.8994 19.4236C22.8979 19.2448 22.8941 19.0986 22.8095 18.9387C22.6177 18.8386 22.4244 18.8483 22.2131 18.8501C22.1668 18.8499 22.1205 18.8497 22.0728 18.8496C21.9749 18.8494 21.8771 18.8498 21.7792 18.8506C21.6297 18.8516 21.4802 18.8506 21.3307 18.8494C21.2355 18.8495 21.1403 18.8497 21.0452 18.8501C21.0006 18.8497 20.956 18.8493 20.91 18.849C20.7268 18.8515 20.5785 18.8682 20.4091 18.9397Z" fill="#D62828"/>
<path d="M9.70898 18.3418C9.76444 18.3416 9.8199 18.3413 9.87704 18.3411C9.99386 18.3409 10.1107 18.3414 10.2275 18.3424C10.4057 18.3438 10.5838 18.3424 10.762 18.3408C10.8758 18.341 10.9897 18.3413 11.1035 18.3418C11.1829 18.341 11.1829 18.341 11.2639 18.3403C11.5995 18.3456 11.8002 18.3961 12.0625 18.625C12.1693 18.8008 12.2036 18.9339 12.2066 19.1384C12.2076 19.1897 12.2086 19.2411 12.2097 19.2939C12.21 19.3489 12.2103 19.4038 12.2107 19.4605C12.2115 19.546 12.2115 19.546 12.2124 19.6332C12.2133 19.7538 12.2139 19.8743 12.2141 19.9948C12.2148 20.1786 12.2179 20.3623 12.2211 20.5462C12.2217 20.6634 12.2221 20.7807 12.2224 20.898C12.2236 20.9527 12.2249 21.0074 12.2261 21.0637C12.2242 21.3265 12.2107 21.5068 12.0447 21.7173C11.7319 22.0079 11.5031 22.0198 11.0828 22.021C11.0301 22.0214 10.9773 22.0218 10.923 22.0223C10.8116 22.0229 10.7002 22.0232 10.5888 22.0232C10.4192 22.0234 10.2497 22.0257 10.0802 22.0281C9.97168 22.0285 9.86316 22.0287 9.75464 22.0288C9.70436 22.0297 9.65409 22.0306 9.60229 22.0315C9.24779 22.0287 9.03357 21.9689 8.75 21.75C8.56141 21.4315 8.5346 21.1524 8.5376 20.793C8.53742 20.7447 8.53724 20.6964 8.53705 20.6467C8.53693 20.5452 8.53727 20.4437 8.53805 20.3422C8.53906 20.1879 8.53806 20.0337 8.53686 19.8794C8.53699 19.7803 8.53723 19.6812 8.5376 19.582C8.53703 19.5137 8.53703 19.5137 8.53645 19.4439C8.54065 19.1341 8.59282 18.8995 8.75 18.625C9.05164 18.3464 9.31898 18.3381 9.70898 18.3418ZM9.19052 18.9387C9.0843 19.1394 9.09963 19.3471 9.10229 19.5686C9.10226 19.618 9.10223 19.6674 9.1022 19.7182C9.10234 19.8225 9.10295 19.9268 9.10399 20.0311C9.10546 20.191 9.10527 20.3509 9.10486 20.5109C9.1052 20.6121 9.10565 20.7134 9.1062 20.8147C9.10614 20.8627 9.10609 20.9107 9.10603 20.9601C9.10018 21.2277 9.10018 21.2277 9.25 21.4375C9.42332 21.4508 9.59025 21.4565 9.76367 21.4563C9.83995 21.4567 9.83995 21.4567 9.91778 21.4571C10.0254 21.4575 10.133 21.4575 10.2406 21.4572C10.4056 21.457 10.5706 21.4585 10.7356 21.4601C10.84 21.4602 10.9444 21.4603 11.0488 21.4602C11.0984 21.4608 11.1479 21.4614 11.199 21.462C11.3526 21.4628 11.3526 21.4628 11.5625 21.4375C11.7164 21.2066 11.7077 21.0272 11.7085 20.7598C11.7089 20.7119 11.7093 20.6641 11.7098 20.6148C11.7104 20.5137 11.7107 20.4126 11.7107 20.3116C11.7109 20.1568 11.7132 20.0022 11.7156 19.8474C11.7159 19.7492 11.7162 19.651 11.7163 19.5527C11.7172 19.5064 11.7181 19.4602 11.719 19.4125C11.7173 19.2194 11.7123 19.0941 11.5909 18.9397C11.3792 18.8504 11.1807 18.8482 10.9548 18.8501C10.9085 18.8499 10.8621 18.8497 10.8143 18.8496C10.7166 18.8494 10.6188 18.8498 10.521 18.8506C10.3714 18.8516 10.2218 18.8506 10.0721 18.8494C9.97705 18.8495 9.88196 18.8497 9.78686 18.8501C9.74213 18.8497 9.6974 18.8493 9.65132 18.849C9.48081 18.8514 9.34317 18.859 9.19052 18.9387Z" fill="#D62828"/>
<path d="M3.75766 18.3568C3.80773 18.3561 3.85781 18.3553 3.9094 18.3544C3.98978 18.3542 3.98978 18.3542 4.07178 18.354C4.12741 18.3536 4.18304 18.3532 4.24037 18.3527C4.35793 18.3521 4.47551 18.3518 4.59308 18.3518C4.77238 18.3516 4.95158 18.3493 5.13086 18.3469C5.24528 18.3466 5.3597 18.3463 5.47412 18.3462C5.55412 18.3448 5.55412 18.3448 5.63573 18.3435C5.97213 18.346 6.18061 18.3869 6.4375 18.625C6.62196 18.9471 6.6529 19.2213 6.6499 19.582C6.65008 19.6303 6.65026 19.6786 6.65044 19.7284C6.65057 19.8298 6.65023 19.9313 6.64944 20.0328C6.64844 20.1871 6.64944 20.3413 6.65063 20.4956C6.65051 20.5947 6.65027 20.6939 6.6499 20.793C6.65047 20.8614 6.65047 20.8614 6.65105 20.9311C6.64685 21.2408 6.59873 21.4777 6.4375 21.75C6.10907 22.0027 5.84344 22.0373 5.43725 22.0332C5.35836 22.0336 5.35836 22.0336 5.27788 22.0339C5.16731 22.0341 5.05674 22.0336 4.94618 22.0326C4.77758 22.0313 4.60915 22.0326 4.44055 22.0342C4.33268 22.034 4.22481 22.0337 4.11694 22.0332C4.06693 22.0337 4.01692 22.0342 3.9654 22.0347C3.57505 22.0282 3.36413 21.9091 3.07201 21.646C2.95565 21.4101 2.97203 21.174 2.9729 20.9146C2.97257 20.8575 2.97224 20.8005 2.97191 20.7418C2.97151 20.6213 2.97159 20.5007 2.97212 20.3802C2.97265 20.1964 2.97086 20.0127 2.96887 19.8289C2.96877 19.7116 2.96881 19.5943 2.96899 19.4771C2.96829 19.4224 2.96759 19.3677 2.96687 19.3113C2.97073 18.9706 3.01618 18.7659 3.25 18.5C3.42413 18.3945 3.55515 18.359 3.75766 18.3568ZM3.59663 18.9397C3.44797 19.1286 3.46673 19.3226 3.47119 19.5527C3.47125 19.6006 3.47131 19.6484 3.47136 19.6977C3.47174 19.7988 3.47273 19.8999 3.47427 20.001C3.47655 20.1557 3.47684 20.3103 3.47681 20.4651C3.47742 20.5633 3.47815 20.6615 3.479 20.7598C3.47914 20.8061 3.47928 20.8524 3.47942 20.9001C3.48373 21.1331 3.49245 21.2387 3.625 21.4375C3.80086 21.4557 3.96277 21.4623 4.13867 21.4602C4.18953 21.4602 4.24038 21.4603 4.29278 21.4603C4.40038 21.4602 4.50798 21.4596 4.61557 21.4585C4.7806 21.457 4.94556 21.4572 5.11059 21.4576C5.21501 21.4573 5.31942 21.4569 5.42383 21.4563C5.49815 21.4564 5.49815 21.4564 5.57397 21.4565C5.84745 21.4634 5.84745 21.4634 6.0625 21.3125C6.07575 21.1444 6.0815 20.9829 6.0813 20.8147C6.0817 20.7407 6.0817 20.7407 6.08211 20.6652C6.08247 20.5609 6.0825 20.4565 6.08223 20.3521C6.08203 20.1922 6.0835 20.0325 6.08508 19.8727C6.08522 19.7713 6.08527 19.67 6.0852 19.5686C6.08578 19.5208 6.08636 19.4729 6.08695 19.4236C6.08539 19.2448 6.08161 19.0986 5.99698 18.9387C5.80518 18.8386 5.61187 18.8483 5.40063 18.8501C5.35433 18.8499 5.30802 18.8497 5.26031 18.8496C5.16243 18.8494 5.06456 18.8498 4.96669 18.8506C4.81715 18.8516 4.66772 18.8506 4.51819 18.8494C4.42301 18.8495 4.32784 18.8497 4.23267 18.8501C4.18806 18.8497 4.14346 18.8493 4.0975 18.849C3.91432 18.8515 3.76603 18.8682 3.59663 18.9397Z" fill="#D62828"/>
<path d="M2.9375 2.31249C3.18581 2.27907 3.33586 2.29374 3.5625 2.40234C3.77482 2.58369 3.91921 2.77991 4.07446 3.01073C4.17957 3.13615 4.17957 3.13615 4.33521 3.16479C4.57935 3.10583 4.69768 2.94012 4.85156 2.7539C5.16593 2.38218 5.16593 2.38218 5.375 2.31249C5.65435 2.2896 5.81217 2.283 6.06641 2.40234C6.23021 2.54523 6.33758 2.67401 6.46484 2.84765C6.66113 3.11403 6.81067 3.21627 7.125 3.31249C7.13281 3.46093 7.13281 3.46093 7.125 3.62499C7 3.74999 7 3.74999 6.88452 3.7705C6.62047 3.76119 6.47973 3.7238 6.27539 3.54809C5.875 3.10905 5.875 3.10905 5.875 2.93749C5.73501 2.8781 5.73501 2.8781 5.5625 2.87499C5.40588 3.0035 5.28448 3.14578 5.15576 3.30151C5.10766 3.35915 5.10766 3.35915 5.05859 3.41796C5.02951 3.4543 5.00042 3.49063 4.97046 3.52807C4.75729 3.74451 4.55468 3.76498 4.2561 3.7727C3.85806 3.70376 3.64175 3.37813 3.39868 3.08593C3.23653 2.92404 3.08068 2.84719 2.875 2.74999C2.8125 2.62499 2.8125 2.62499 2.8125 2.49999C2.85375 2.43812 2.895 2.37624 2.9375 2.31249Z" fill="#D62828"/>
<path d="M11.053 2.29199C11.317 2.30131 11.4578 2.33869 11.6621 2.5144C12.0625 2.95344 12.0625 2.95344 12.0625 3.125C12.2445 3.16291 12.3262 3.17976 12.5 3.125C12.6434 2.97806 12.7583 2.8235 12.8755 2.65503C13.0345 2.45703 13.189 2.33637 13.4414 2.2876C13.5013 2.28832 13.5013 2.28832 13.5625 2.28906C13.6025 2.28858 13.6424 2.2881 13.6836 2.2876C14.0801 2.36419 14.2949 2.68336 14.5388 2.97656C14.7008 3.13831 14.859 3.21175 15.0625 3.3125C15.125 3.5 15.125 3.5 15.0625 3.6875C14.8834 3.77707 14.7617 3.76915 14.5625 3.75C14.2352 3.58985 14.0573 3.3479 13.8508 3.05786C13.7537 2.92052 13.7537 2.92052 13.5625 2.875C13.4317 2.88036 13.4317 2.88036 13.3125 2.9375C13.2704 3.02061 13.2288 3.10399 13.1875 3.1875C13.1186 3.27693 13.0469 3.36417 12.9727 3.44922C12.9354 3.49264 12.8981 3.53607 12.8596 3.58081C12.6912 3.74477 12.5567 3.75047 12.3242 3.76953C12.0447 3.76341 11.9016 3.68677 11.6875 3.5C11.6145 3.40599 11.543 3.31083 11.4727 3.21484C11.2764 2.94846 11.1268 2.84622 10.8125 2.75C10.8047 2.60156 10.8047 2.60156 10.8125 2.4375C10.9375 2.3125 10.9375 2.3125 11.053 2.29199Z" fill="#D62828"/>
</svg>
