<svg width="24" height="24" viewBox="0 0 24 24" fill="none" xmlns="http://www.w3.org/2000/svg">
<g clip-path="url(#clip0_511_2071)">
<path d="M19.0781 0.703125C19.2957 0.739386 19.4103 0.763591 19.5971 0.855618C19.6644 0.888489 19.6644 0.888489 19.7331 0.922025C19.7807 0.945803 19.8283 0.969581 19.8774 0.99408C19.9515 1.03077 19.9515 1.03077 20.0272 1.0682C20.1313 1.1199 20.2354 1.1718 20.3393 1.22389C20.4989 1.30365 20.659 1.3823 20.8192 1.46091C20.9203 1.51129 21.0214 1.56173 21.1225 1.61224C21.1706 1.63574 21.2187 1.65923 21.2682 1.68344C21.3344 1.71697 21.3344 1.71697 21.402 1.75119C21.441 1.77061 21.48 1.79004 21.5202 1.81006C21.6094 1.875 21.6094 1.875 21.6524 1.96117C21.6577 2.10122 21.613 2.18274 21.5497 2.30754C21.5253 2.35633 21.5009 2.40511 21.4757 2.45538C21.4488 2.50773 21.4219 2.56008 21.3942 2.61401C21.3671 2.66785 21.34 2.72169 21.312 2.77716C21.24 2.92013 21.1673 3.06275 21.0945 3.20531C21.0203 3.3509 20.9467 3.49681 20.873 3.6427C20.7285 3.92879 20.5832 4.2145 20.4375 4.5C20.2437 4.46558 20.1026 4.40693 19.9307 4.30957C19.8621 4.27105 19.8621 4.27105 19.7921 4.23175C19.7576 4.21199 19.723 4.19223 19.6875 4.17188C19.7616 3.92783 19.8646 3.70389 19.9746 3.47461C19.9921 3.43787 20.0095 3.40113 20.0275 3.36328C20.0703 3.27337 20.1133 3.18355 20.1562 3.09375C19.0574 3.64618 17.9961 4.24372 16.9688 4.92188C17.1235 5.07829 17.2807 5.2307 17.4434 5.37891C17.503 5.43365 17.503 5.43365 17.5638 5.4895C17.6689 5.58643 17.6689 5.58643 17.8125 5.625C17.8241 5.5989 17.8357 5.57279 17.8477 5.5459C18.0221 5.22315 18.3027 5.01419 18.6486 4.8913C19.148 4.81106 19.634 4.8398 20.0618 5.12439C20.3513 5.35082 20.5284 5.64791 20.625 6C20.6379 6.14844 20.6369 6.2961 20.6356 6.44502C20.6357 6.48895 20.6357 6.53288 20.6357 6.57814C20.6356 6.72271 20.6349 6.86727 20.6342 7.01184C20.634 7.11233 20.6338 7.21282 20.6338 7.31331C20.6334 7.57732 20.6325 7.84133 20.6314 8.10534C20.6305 8.37494 20.6301 8.64453 20.6296 8.91412C20.6286 9.44275 20.627 9.97138 20.625 10.5C20.6784 10.499 20.7318 10.498 20.7869 10.497C20.9864 10.4936 21.1859 10.4915 21.3855 10.4897C21.4716 10.4888 21.5577 10.4875 21.6438 10.4859C21.7681 10.4836 21.8923 10.4825 22.0166 10.4817C22.0547 10.4807 22.0927 10.4798 22.1319 10.4788C22.4504 10.4786 22.6927 10.5688 22.9332 10.7796C22.9585 10.8101 22.9837 10.8406 23.0098 10.8721C23.0357 10.9025 23.0617 10.9329 23.0885 10.9642C23.249 11.1971 23.2636 11.4126 23.2625 11.6891C23.2627 11.7285 23.263 11.7679 23.2632 11.8084C23.2638 11.9403 23.2637 12.0721 23.2636 12.2039C23.2639 12.2985 23.2642 12.3931 23.2646 12.4876C23.2654 12.7445 23.2656 13.0013 23.2657 13.2582C23.2658 13.4726 23.2661 13.6871 23.2664 13.9015C23.2672 14.4075 23.2674 14.9135 23.2674 15.4196C23.2673 15.9414 23.2683 16.4633 23.2698 16.9851C23.271 17.4333 23.2715 17.8814 23.2715 18.3295C23.2714 18.5971 23.2717 18.8647 23.2727 19.1323C23.2736 19.3841 23.2736 19.6358 23.2729 19.8876C23.2728 19.9798 23.273 20.0721 23.2736 20.1644C23.2743 20.2906 23.2739 20.4168 23.2732 20.543C23.2737 20.5793 23.2741 20.6157 23.2746 20.6531C23.2708 20.9602 23.1733 21.2017 22.9704 21.4332C22.9399 21.4585 22.9094 21.4837 22.8779 21.5098C22.8475 21.5357 22.8171 21.5617 22.7858 21.5885C22.5942 21.7206 22.4279 21.7617 22.1968 21.7586C22.1458 21.7582 22.0949 21.7578 22.0424 21.7574C21.9869 21.7564 21.9315 21.7555 21.8743 21.7545C21.784 21.7536 21.6937 21.7527 21.6034 21.7519C21.5064 21.7509 21.4094 21.7497 21.3124 21.7485C21.1089 21.7462 20.9053 21.7451 20.7017 21.7444C20.6672 21.7442 20.6327 21.7441 20.5972 21.744C20.5266 21.7437 20.456 21.7435 20.3854 21.7432C19.9119 21.7416 19.4384 21.7392 18.965 21.7325C18.6451 21.7279 18.3254 21.7258 18.0056 21.7263C17.8369 21.7265 17.6685 21.7256 17.5 21.7217C16.5315 21.7002 15.9166 21.8791 15.0969 22.3736C14.4166 22.7502 13.602 22.9533 12.8438 23.1094C12.8094 23.117 12.775 23.1246 12.7396 23.1324C10.8081 23.5463 8.74896 23.211 6.9375 22.5C7.03031 22.2525 7.12313 22.005 7.21875 21.75C7.70215 21.895 7.70215 21.895 8.18555 22.04C8.22815 22.0528 8.27075 22.0656 8.31464 22.0788C8.43051 22.1135 8.43051 22.1135 8.54638 22.1483C8.57232 22.1561 8.59827 22.1639 8.625 22.1719C8.61964 22.0361 8.6137 21.9004 8.60742 21.7647C8.60525 21.7072 8.60525 21.7072 8.60303 21.6487C8.59085 21.398 8.57852 21.196 8.40143 21.0037C8.33803 20.9469 8.27456 20.8903 8.211 20.8337C7.88401 20.4637 7.83854 20.1233 7.84702 19.6448C7.84863 19.5439 7.84798 19.4433 7.84708 19.3424C7.84744 18.9295 7.87467 18.6362 8.1546 18.3168C8.18512 18.2915 8.21563 18.2663 8.24707 18.2402C8.27746 18.2143 8.30786 18.1883 8.33917 18.1615C8.59398 17.9859 8.84693 17.9828 9.14612 17.9735C9.45283 17.9601 9.63372 17.9009 9.84828 17.6803C9.88444 17.6436 9.9206 17.6068 9.95786 17.5689C9.99634 17.5291 10.0348 17.4893 10.0745 17.4483C10.1572 17.3642 10.24 17.2801 10.3228 17.1961C10.4524 17.0635 10.5819 16.9308 10.7112 16.798C10.8364 16.6696 10.9623 16.5419 11.0881 16.4141C11.1262 16.3746 11.1643 16.3351 11.2036 16.2944C11.4783 16.0162 11.7379 15.7855 12.1328 15.7204C12.191 15.7205 12.2493 15.7205 12.3093 15.7205C12.3411 15.7204 12.3729 15.7203 12.4057 15.7202C12.4722 15.7202 12.5387 15.7208 12.6052 15.722C12.7061 15.7236 12.8067 15.723 12.9076 15.7221C13.3205 15.7224 13.6138 15.7497 13.9332 16.0296C13.9585 16.0601 13.9837 16.0906 14.0098 16.1221C14.0357 16.1525 14.0617 16.1829 14.0885 16.2142C14.2498 16.4482 14.265 16.6681 14.2657 16.9462C14.2661 16.9845 14.2664 17.0229 14.2667 17.0623C14.2672 17.1432 14.2674 17.2241 14.2674 17.305C14.2676 17.4278 14.2693 17.5506 14.2711 17.6734C14.2713 17.7523 14.2715 17.8312 14.2716 17.9101C14.2723 17.9464 14.273 17.9827 14.2736 18.0201C14.2711 18.3314 14.1762 18.5734 13.9704 18.8082C13.6829 19.0462 13.4599 19.1303 13.0924 19.1878C12.9693 19.2231 12.9216 19.259 12.8438 19.3594C12.8007 19.4885 12.7892 19.5714 12.7881 19.7051C12.7874 19.7402 12.7868 19.7754 12.7861 19.8116C12.8079 20.0343 12.8944 20.1777 13.0556 20.3284C13.0881 20.3596 13.1206 20.3907 13.154 20.4229C13.2219 20.4867 13.2899 20.5504 13.358 20.614C13.672 20.9161 13.8989 21.2089 13.9131 21.6592C13.9153 21.7119 13.9176 21.7647 13.9199 21.819C13.9205 21.8581 13.9212 21.8972 13.9219 21.9375C14.3005 21.7888 14.6758 21.638 15.0434 21.4633C15.1406 21.4219 15.1406 21.4219 15.2344 21.4219C15.2095 21.3874 15.2095 21.3874 15.1841 21.3522C14.9279 20.9337 14.9673 20.4931 14.9704 20.0194C14.9702 19.9249 14.9698 19.8303 14.9694 19.7357C14.9685 19.4798 14.9691 19.2239 14.9701 18.9681C14.9708 18.6999 14.9704 18.4317 14.9702 18.1634C14.97 17.7132 14.9707 17.263 14.972 16.8128C14.9735 16.2926 14.9735 15.7725 14.9727 15.2524C14.972 14.7514 14.9723 14.2504 14.9731 13.7493C14.9734 13.5364 14.9734 13.3234 14.973 13.1105C14.9727 12.8597 14.9732 12.6089 14.9745 12.3582C14.9748 12.2662 14.9748 12.1743 14.9745 12.0824C14.9741 11.9567 14.9748 11.8311 14.9759 11.7054C14.9755 11.6692 14.9751 11.6331 14.9747 11.5958C14.9794 11.2895 15.0772 11.0477 15.2796 10.8168C15.3101 10.7915 15.3406 10.7663 15.3721 10.7402C15.4025 10.7143 15.4329 10.6883 15.4642 10.6615C15.7111 10.4913 15.9296 10.4872 16.2197 10.4908C16.2599 10.491 16.3002 10.4911 16.3416 10.4912C16.4696 10.4918 16.5976 10.4929 16.7256 10.4941C16.8126 10.4946 16.8996 10.495 16.9866 10.4954C17.1994 10.4965 17.4122 10.4981 17.625 10.5C17.6319 10.0085 17.6358 9.51717 17.6358 9.02566C17.6359 8.79737 17.637 8.56918 17.6406 8.34091C17.644 8.12021 17.6446 7.89966 17.6433 7.67894C17.6433 7.59515 17.6443 7.51134 17.6463 7.42757C17.6595 6.86933 17.6595 6.86933 17.3835 6.4036C17.2662 6.29173 17.1443 6.19261 17.0156 6.09375C16.9531 6.04224 16.9531 6.04224 16.8892 5.98968C16.789 5.90767 16.6866 5.83036 16.582 5.75391C16.5466 5.72738 16.5111 5.70085 16.4745 5.67352C16.3896 5.61006 16.3043 5.54702 16.2188 5.48438C16.1939 5.50339 16.169 5.5224 16.1433 5.54199C16.1102 5.56708 16.0771 5.59218 16.043 5.61804C15.994 5.65526 15.994 5.65526 15.9441 5.69323C15.8069 5.79221 15.6643 5.8726 15.5156 5.95313C15.3609 5.7675 15.2063 5.58188 15.0469 5.39063C15.1497 5.18501 15.2303 5.13222 15.4219 5.01563C15.1793 4.84883 14.928 4.72002 14.6602 4.59961C14.6275 4.5845 14.5948 4.56939 14.5611 4.55382C14.3864 4.47411 14.3864 4.47411 14.1984 4.46409C14.0921 4.49722 14.0921 4.49722 14.0156 4.64063C14.0492 4.77677 14.0492 4.77677 14.1161 4.9281C14.1279 4.95701 14.1397 4.98592 14.1519 5.01571C14.1776 5.07859 14.2037 5.14135 14.23 5.204C14.2718 5.30355 14.3127 5.40339 14.3535 5.50336C14.455 5.75191 14.5578 5.99991 14.6607 6.24788C14.7474 6.45689 14.8336 6.66613 14.9189 6.87569C14.959 6.97342 14.9999 7.07077 15.0408 7.16814C15.2268 7.61871 15.3744 8.07229 15.2047 8.55139C15.0624 8.81893 14.8381 9.02302 14.625 9.23438C14.5546 9.30532 14.4842 9.37631 14.4139 9.44733C14.2196 9.64294 14.0242 9.83742 13.8281 10.0313C13.6836 9.89801 13.5912 9.77057 13.5002 9.59674C13.4743 9.54788 13.4484 9.49902 13.4218 9.44868C13.3807 9.37015 13.3807 9.37015 13.3389 9.29004C13.2802 9.17945 13.2215 9.06891 13.1627 8.95844C13.1479 8.93047 13.133 8.90251 13.1177 8.8737C12.9713 8.5988 12.819 8.3274 12.665 8.05664C12.6401 8.01265 12.6151 7.96866 12.5894 7.92334C12.4957 7.75845 12.4018 7.59369 12.3076 7.42907C12.2469 7.32292 12.1864 7.21664 12.126 7.11035C12.0993 7.06407 12.0993 7.06407 12.0721 7.01685C11.9531 6.80746 11.9531 6.80746 11.9531 6.70313C11.7044 6.90922 11.4813 7.12951 11.2643 7.36859C11.1234 7.5237 10.9796 7.6761 10.8355 7.82828C10.727 7.94315 10.6198 8.05882 10.5148 8.17688C9.77275 9.00376 9.77275 9.00376 9.29407 9.06008C9.02053 9.0696 8.75375 9.04741 8.48438 9C8.50333 9.04588 8.52228 9.09176 8.5418 9.13902C8.6119 9.30925 8.68103 9.47986 8.74988 9.6506C8.77981 9.72445 8.81001 9.7982 8.84047 9.87183C8.8842 9.97769 8.92699 10.0839 8.9696 10.1902C8.99032 10.2395 8.99032 10.2395 9.01146 10.2898C9.10295 10.5218 9.10295 10.5218 9.05951 10.6404C8.99573 10.7411 8.92768 10.818 8.84306 10.902C8.79521 10.9498 8.79521 10.9498 8.74639 10.9986C8.69482 11.0495 8.69482 11.0495 8.64221 11.1013C8.60697 11.1364 8.57173 11.1715 8.53542 11.2077C8.42292 11.3197 8.3101 11.4313 8.19727 11.543C8.12089 11.6189 8.04453 11.6948 7.9682 11.7708C7.78113 11.9568 7.59379 12.1426 7.40625 12.3281C7.28612 12.2234 7.24314 12.1465 7.20717 11.992C6.92885 10.7948 6.92885 10.7948 6.16631 9.89143C5.56323 9.55602 4.88536 9.35524 4.21875 9.1875C4.21875 9.04688 4.21875 9.04688 4.28103 8.96768C4.31018 8.93885 4.33933 8.91001 4.36935 8.88031C4.4022 8.84747 4.43505 8.81464 4.46889 8.7808C4.50478 8.74564 4.54066 8.71048 4.57764 8.67426C4.61405 8.63804 4.65047 8.60182 4.68799 8.56451C4.80469 8.4486 4.92187 8.33318 5.03906 8.21777C5.11814 8.13941 5.19718 8.06101 5.27618 7.98257C5.47022 7.7901 5.66464 7.59802 5.85938 7.40625C6.12082 7.48212 6.37769 7.56079 6.63025 7.66315C6.70729 7.69419 6.70729 7.69419 6.78589 7.72586C6.83785 7.74704 6.88982 7.76822 6.94336 7.79004C6.99714 7.81176 7.05092 7.83349 7.10632 7.85587C7.23763 7.90893 7.36885 7.96219 7.5 8.01563C7.49119 7.97385 7.49119 7.97385 7.48219 7.93123C7.40834 7.52212 7.37054 7.10594 7.59195 6.73769C7.86283 6.37832 8.20782 6.07658 8.54028 5.77583C8.67753 5.65055 8.81167 5.52205 8.94608 5.39374C9.18127 5.16968 9.41896 4.94868 9.65895 4.72975C9.75299 4.6474 9.75299 4.6474 9.79688 4.54688C9.76521 4.53545 9.73355 4.52403 9.70093 4.51227C9.50263 4.42755 9.31835 4.31587 9.13495 4.20273C8.84452 4.03775 8.62725 4.07483 8.31299 4.15792C8.17554 4.19854 8.03998 4.2429 7.9043 4.28906C7.85501 4.30579 7.80572 4.32251 7.75494 4.33974C6.51391 4.77168 5.40519 5.47032 4.45313 6.375C4.42969 6.39716 4.40625 6.41932 4.3821 6.44215C3.72617 7.06638 3.00259 7.86279 2.67188 8.71875C2.73283 8.90448 2.87442 9.02316 3.01263 9.15418C3.06255 9.20268 3.11245 9.2512 3.16232 9.29974C3.24045 9.37527 3.31874 9.45061 3.39744 9.52554C3.75076 9.8629 4.06626 10.1738 4.15613 10.6729C4.15184 11.0368 4.11639 11.3298 3.89063 11.625C3.58912 11.9168 3.30644 12.0148 2.88922 12.0092C2.8521 12.009 2.81497 12.0089 2.77672 12.0088C2.65876 12.0082 2.54081 12.0071 2.42285 12.0059C2.34262 12.0054 2.26239 12.005 2.18216 12.0046C1.98601 12.0036 1.7899 12.0018 1.59375 12C1.57828 12.495 1.56281 12.99 1.54688 13.5C1.7644 13.4942 1.98193 13.4884 2.20606 13.4824C2.27404 13.4808 2.34202 13.4792 2.41206 13.4776C2.46644 13.4759 2.52082 13.4743 2.57684 13.4725C2.65969 13.4703 2.65969 13.4703 2.74421 13.4681C3.06098 13.4389 3.26588 13.3526 3.50977 13.1514C3.91831 12.8361 4.2645 12.7411 4.78125 12.7969C5.24689 12.883 5.54099 13.1734 5.85938 13.5C5.89297 13.5337 5.92657 13.5674 5.96118 13.6022C6.297 13.9595 6.4077 14.3187 6.4043 14.8037C6.40581 14.8463 6.40732 14.8889 6.40887 14.9327C6.40958 15.4353 6.19077 15.8134 5.84399 16.1662C5.75269 16.2563 5.65972 16.3446 5.56641 16.4326C5.49554 16.5008 5.42487 16.5692 5.35429 16.6376C5.29099 16.6988 5.22718 16.7595 5.16335 16.8202C4.99827 16.9867 4.95628 17.1077 4.92486 17.3368C4.85213 17.8638 4.68651 18.1985 4.2691 18.542C4.01898 18.7153 3.76689 18.7575 3.46875 18.7969C3.76308 19.1624 4.07418 19.5051 4.40625 19.8369C4.44102 19.8717 4.47579 19.9065 4.51162 19.9424C4.64465 20.0741 4.76565 20.1927 4.92188 20.2969C4.84858 20.462 4.74867 20.5908 4.63477 20.7305C4.60081 20.7723 4.56685 20.8141 4.53186 20.8572C4.50588 20.8888 4.4799 20.9205 4.45313 20.9531C4.25845 20.875 4.11975 20.7346 3.96973 20.5928C3.94249 20.5672 3.91525 20.5417 3.88719 20.5154C3.80997 20.4428 3.73308 20.3699 3.65625 20.2969C3.62392 20.2665 3.5916 20.2362 3.55829 20.205C1.93833 18.6422 0.796347 16.143 0.742447 13.8964C0.741533 13.8216 0.740887 13.7469 0.740479 13.6721C0.74015 13.6317 0.739822 13.5912 0.739483 13.5495C0.738667 13.4197 0.738365 13.29 0.738282 13.1602C0.73825 13.1159 0.738218 13.0716 0.738186 13.026C0.738906 12.3927 0.752204 11.7768 0.890625 11.1563C0.89867 11.1183 0.906714 11.0804 0.915001 11.0414C1.498 8.34208 3.10936 6.04607 5.41003 4.53387C6.12271 4.08158 6.91084 3.74548 7.6875 3.42188C7.30078 3.20531 6.91406 2.98875 6.51563 2.76563C6.51563 2.596 6.56497 2.55887 6.67994 2.44235C6.70366 2.41906 6.72739 2.39577 6.75183 2.37177C6.77613 2.34744 6.80044 2.32311 6.82548 2.29805C6.87709 2.24654 6.92888 2.19521 6.98083 2.14404C7.05967 2.0663 7.13787 1.98796 7.216 1.90952C7.26632 1.85946 7.31667 1.80944 7.36707 1.75946C7.4018 1.72466 7.4018 1.72466 7.43724 1.68916C7.71993 1.41208 8.00158 1.22543 8.40421 1.21632C8.80934 1.23996 9.15895 1.38378 9.52936 1.5368C9.59691 1.56412 9.66448 1.59138 9.73208 1.61858C9.90841 1.68971 10.0844 1.76167 10.2603 1.83381C10.4405 1.90752 10.621 1.98045 10.8015 2.05344C11.1544 2.19632 11.507 2.34006 11.8594 2.48438C11.9117 2.43996 11.964 2.39547 12.0163 2.35095C12.0599 2.3138 12.0599 2.3138 12.1045 2.2759C12.2116 2.18201 12.3092 2.08074 12.4072 1.97754C13.0917 1.28999 14.0156 0.753209 15.0084 0.745422C15.0974 0.745731 15.1864 0.746287 15.2754 0.74707C15.3211 0.747282 15.3668 0.747493 15.4138 0.747711C15.5259 0.748261 15.6379 0.74903 15.75 0.75C15.795 1.93731 15.5249 2.83303 14.8125 3.79688C14.8628 3.80443 14.8628 3.80443 14.914 3.81213C15.0599 3.84684 15.1669 3.90117 15.2974 3.97467C15.3442 4.00032 15.391 4.02597 15.4393 4.0524C15.5373 4.10679 15.6351 4.1616 15.7326 4.21683C15.7794 4.2423 15.8263 4.26777 15.8745 4.29401C15.917 4.31776 15.9594 4.34152 16.0031 4.366C16.1235 4.41793 16.1235 4.41793 16.2426 4.37598C16.367 4.30837 16.4857 4.23686 16.604 4.15906C16.6511 4.12841 16.6981 4.09776 16.7466 4.06618C16.7967 4.03338 16.8468 4.00059 16.8984 3.9668C17.9437 3.2895 19.0383 2.70439 20.1562 2.15625C20.008 2.03691 19.8542 1.95295 19.6838 1.86859C19.6023 1.82803 19.6023 1.82803 19.519 1.78665C19.4619 1.75848 19.4048 1.73031 19.3477 1.70215C19.2898 1.67345 19.2319 1.64473 19.1741 1.616C19.0328 1.54591 18.8914 1.47606 18.75 1.40625C18.8583 1.17422 18.9666 0.942188 19.0781 0.703125ZM13.1393 2.42047C13.1156 2.4446 13.0919 2.46874 13.0675 2.4936C12.9666 2.59624 12.8643 2.69747 12.7621 2.79877C12.5539 3.00547 12.347 3.21339 12.1406 3.42188C11.7717 3.32252 11.42 3.18599 11.0666 3.04211C10.9674 3.0017 10.868 2.96158 10.7686 2.92153C10.4863 2.80774 10.2043 2.69341 9.92223 2.57902C9.74885 2.50871 9.57536 2.43869 9.4018 2.36882C9.30424 2.32944 9.20681 2.28974 9.10939 2.25002C9.04933 2.22582 8.98926 2.20163 8.92918 2.17747C8.8771 2.15634 8.82501 2.13522 8.77134 2.11346C8.62697 2.06318 8.49588 2.0303 8.34375 2.01563C8.23526 2.07463 8.23526 2.07463 8.14746 2.16797C8.11683 2.19721 8.08619 2.22646 8.05463 2.25659C8.02629 2.28535 7.99795 2.31412 7.96875 2.34375C7.94186 2.36865 7.91497 2.39354 7.88727 2.41919C7.81763 2.48128 7.81763 2.48128 7.82813 2.57813C7.87922 2.60631 7.87922 2.60631 7.93134 2.63507C7.97964 2.66172 8.02794 2.68837 8.0777 2.71582C8.10419 2.73044 8.13068 2.74505 8.15798 2.76011C8.30764 2.84268 8.4573 2.92526 8.60695 3.00786C8.89419 3.16639 9.18145 3.32486 9.46893 3.48294C9.58942 3.5492 9.70989 3.61551 9.83036 3.68183C9.8872 3.7131 9.94406 3.74435 10.0009 3.77558C10.3738 3.9803 10.743 4.19013 11.1094 4.40625C10.8709 4.70273 10.5975 4.95797 10.3209 5.21787C10.1448 5.38422 9.97083 5.55286 9.79659 5.72119C9.64421 5.86816 9.49109 6.01415 9.33604 6.15831C8.54569 6.82446 8.54569 6.82446 8.16068 7.72848C8.17367 7.90745 8.21062 8.07492 8.25 8.25C8.83929 8.32972 8.83929 8.32972 9.3823 8.139C9.57311 7.98395 9.73829 7.80501 9.90454 7.62451C9.9671 7.5602 10.0299 7.4961 10.0928 7.43219C10.2565 7.26495 10.4172 7.0951 10.5774 6.9245C10.7419 6.75031 10.9092 6.57881 11.0762 6.40704C11.4025 6.07078 11.7256 5.73169 12.0469 5.39063C12.1692 5.54108 12.2738 5.68462 12.3646 5.85608C12.3883 5.90054 12.4121 5.94501 12.4366 5.99082C12.4742 6.06207 12.4742 6.06207 12.5127 6.13477C12.7231 6.52802 12.9368 6.91889 13.1572 7.30664C13.4149 7.7602 13.6694 8.2154 13.9219 8.67188C14.0659 8.60735 14.1695 8.5331 14.2822 8.42285C14.3246 8.38252 14.3246 8.38252 14.3677 8.34137C14.4541 8.22827 14.4694 8.15705 14.4844 8.01563C14.4532 7.88501 14.4532 7.88501 14.3956 7.74902C14.3743 7.69499 14.3531 7.64096 14.3312 7.58529C14.3195 7.55624 14.3077 7.52719 14.2956 7.49726C14.2581 7.40462 14.2214 7.3117 14.1849 7.21869C14.0436 6.86071 13.8983 6.50439 13.7523 6.14831C13.6737 5.95626 13.5956 5.76402 13.5174 5.57177C13.4594 5.42963 13.4004 5.28786 13.3415 5.14609C13.3055 5.058 13.2696 4.9699 13.2338 4.88178C13.2166 4.84121 13.1995 4.80065 13.1818 4.75885C13.1667 4.72128 13.1516 4.6837 13.136 4.64499C13.1158 4.59598 13.1158 4.59598 13.0951 4.54597C13.0724 4.42166 13.1044 4.3704 13.1719 4.26563C13.2502 4.18231 13.3313 4.10161 13.4139 4.02264C13.4632 3.97478 13.5125 3.9269 13.5617 3.879C13.6386 3.80471 13.7156 3.73062 13.7931 3.65695C14.2416 3.22916 14.6098 2.78413 14.8096 2.18555C14.8274 2.13394 14.8452 2.08234 14.8636 2.02917C14.908 1.86872 14.9333 1.71202 14.9531 1.54688C14.2867 1.54688 13.5974 1.97188 13.1393 2.42047ZM18.6094 5.85938C18.3747 6.1575 18.368 6.4118 18.3697 6.78027C18.3697 6.82054 18.3697 6.86081 18.3697 6.90229C18.3697 7.03494 18.3701 7.16759 18.3704 7.30023C18.3705 7.39238 18.3706 7.48453 18.3706 7.57668C18.3708 7.81888 18.3713 8.06108 18.3718 8.30329C18.3723 8.55057 18.3725 8.79785 18.3727 9.04514C18.3732 9.53009 18.374 10.015 18.375 10.5C18.87 10.5 19.365 10.5 19.875 10.5C19.8782 9.96945 19.8808 9.43891 19.8823 8.90836C19.883 8.66197 19.884 8.4156 19.8856 8.16922C19.8871 7.93124 19.888 7.69326 19.8883 7.45528C19.8886 7.3647 19.8891 7.27412 19.8899 7.18354C19.8909 7.0562 19.891 6.92889 19.891 6.80156C19.8915 6.7645 19.892 6.72745 19.8925 6.68927C19.891 6.41 19.859 6.09322 19.6663 5.87661C19.4433 5.68721 19.2941 5.65519 19.0096 5.65887C18.8332 5.67815 18.7398 5.74138 18.6094 5.85938ZM5.98663 8.44629C5.94367 8.4898 5.90071 8.5333 5.85645 8.57813C5.79182 8.64338 5.79182 8.64338 5.72589 8.70996C5.6926 8.7438 5.6593 8.77764 5.625 8.8125C5.74221 8.95001 5.86425 9.00309 6.03076 9.0694C6.10844 9.10044 6.10844 9.10044 6.18768 9.13211C6.24176 9.15329 6.29584 9.17447 6.35156 9.19629C6.43268 9.22887 6.43268 9.22887 6.51544 9.26212C6.78879 9.37979 6.78879 9.37979 7.07813 9.42188C7.08365 9.45479 7.08918 9.4877 7.09487 9.52161C7.12752 9.6675 7.17599 9.79695 7.23212 9.93549C7.25311 9.9876 7.27411 10.0397 7.29575 10.0934C7.31771 10.1473 7.33967 10.2013 7.36231 10.2568C7.39552 10.3391 7.39552 10.3391 7.42941 10.423C7.48401 10.5581 7.5388 10.6932 7.59375 10.8281C7.74012 10.8435 7.74012 10.8435 7.84039 10.7358C7.89668 10.6771 7.89668 10.6771 7.9541 10.6172C7.99199 10.578 8.02987 10.5389 8.06891 10.4985C8.11214 10.4529 8.11214 10.4529 8.15625 10.4063C8.08981 10.227 8.02286 10.0479 7.95483 9.8692C7.90291 9.73239 7.85377 9.59509 7.80689 9.45648C7.78469 9.39416 7.76247 9.33184 7.74023 9.26953C7.72102 9.21322 7.7018 9.1569 7.68201 9.09888C7.5606 8.89837 7.43187 8.84944 7.21875 8.76563C7.17562 8.74788 7.13249 8.73013 7.08806 8.71184C6.94563 8.65409 6.80256 8.5983 6.65918 8.54297C6.58518 8.51406 6.58518 8.51406 6.50967 8.48456C6.22937 8.33722 6.22937 8.33722 5.98663 8.44629ZM2.20313 9.60938C1.86788 10.4071 1.86788 10.4071 1.73438 11.25C1.93261 11.2527 2.13085 11.2544 2.3291 11.2559C2.38527 11.2566 2.44143 11.2574 2.4993 11.2582C2.55353 11.2585 2.60776 11.2588 2.66364 11.2592C2.71347 11.2596 2.7633 11.2601 2.81464 11.2606C2.99102 11.2471 3.12303 11.1963 3.27246 11.1035C3.34458 10.9896 3.36397 10.889 3.3619 10.7549C3.28985 10.5111 3.07332 10.3423 2.89268 10.1717C2.81807 10.1013 2.74481 10.0296 2.67169 9.95764C2.4669 9.71884 2.4669 9.71884 2.20313 9.60938ZM15.8438 11.3906C15.7391 11.587 15.7367 11.7755 15.7378 11.993C15.7376 12.0297 15.7374 12.0665 15.7372 12.1043C15.7368 12.2273 15.7369 12.3503 15.7371 12.4733C15.7369 12.5616 15.7367 12.6498 15.7364 12.7381C15.7358 12.9777 15.7357 13.2173 15.7359 13.4569C15.7359 13.6569 15.7357 13.8569 15.7355 14.0569C15.7349 14.5288 15.7349 15.0006 15.7352 15.4724C15.7355 15.9593 15.7349 16.4461 15.7339 16.9329C15.7331 17.3509 15.7328 17.7688 15.733 18.1868C15.733 18.4364 15.7329 18.686 15.7323 18.9357C15.7317 19.1704 15.7318 19.4051 15.7324 19.6399C15.7325 19.726 15.7324 19.8121 15.732 19.8983C15.7315 20.0159 15.7319 20.1335 15.7325 20.2511C15.7321 20.2851 15.7318 20.3192 15.7314 20.3542C15.7337 20.5718 15.7675 20.7255 15.8906 20.9063C16.0525 20.9999 16.1943 21.0118 16.3791 21.0122C16.4295 21.0126 16.4799 21.0129 16.5318 21.0132C16.614 21.0131 16.614 21.0131 16.6979 21.0129C16.756 21.0131 16.8141 21.0134 16.874 21.0136C17.033 21.0141 17.192 21.0143 17.3511 21.0141C17.484 21.0141 17.6169 21.0143 17.7498 21.0145C18.0634 21.0151 18.3771 21.0151 18.6907 21.0148C19.0139 21.0145 19.3371 21.0151 19.6604 21.0161C19.9382 21.0169 20.216 21.0172 20.4939 21.017C20.6597 21.017 20.8255 21.0171 20.9913 21.0177C21.1762 21.0184 21.3611 21.018 21.546 21.0175C21.6007 21.0178 21.6555 21.0182 21.7118 21.0185C22.0813 21.0201 22.0813 21.0201 22.4062 20.8594C22.5109 20.663 22.5133 20.4745 22.5122 20.257C22.5124 20.2203 22.5126 20.1835 22.5128 20.1457C22.5132 20.0227 22.5131 19.8997 22.5129 19.7767C22.5131 19.6884 22.5133 19.6002 22.5136 19.5119C22.5142 19.2723 22.5143 19.0327 22.5141 18.7931C22.5141 18.5931 22.5143 18.3931 22.5145 18.1931C22.5151 17.7212 22.5151 17.2494 22.5148 16.7776C22.5145 16.2907 22.5151 15.8039 22.5161 15.3171C22.5169 14.8991 22.5172 14.4812 22.517 14.0632C22.517 13.8136 22.5171 13.564 22.5177 13.3143C22.5183 13.0796 22.5182 12.8449 22.5176 12.6101C22.5175 12.524 22.5176 12.4379 22.518 12.3518C22.5185 12.2341 22.5181 12.1165 22.5175 11.9989C22.5179 11.9649 22.5182 11.9308 22.5186 11.8958C22.5163 11.6782 22.4825 11.5245 22.3594 11.3438C22.1975 11.2501 22.0557 11.2382 21.8709 11.2378C21.8205 11.2374 21.7701 11.2371 21.7182 11.2368C21.636 11.2369 21.636 11.2369 21.5521 11.2371C21.494 11.2369 21.4359 11.2366 21.376 11.2364C21.217 11.2359 21.058 11.2357 20.8989 11.2359C20.766 11.2359 20.6331 11.2357 20.5002 11.2355C20.1866 11.2349 19.8729 11.2349 19.5593 11.2352C19.2361 11.2355 18.9129 11.2349 18.5896 11.2339C18.3118 11.2331 18.034 11.2328 17.7561 11.233C17.5903 11.233 17.4245 11.2329 17.2587 11.2323C17.0738 11.2316 16.8889 11.232 16.704 11.2325C16.6493 11.2322 16.5945 11.2318 16.5382 11.2315C16.1687 11.2299 16.1687 11.2299 15.8438 11.3906ZM4.03125 13.7813C3.96999 13.8294 3.90845 13.8773 3.84668 13.9248C3.80399 13.959 3.80399 13.959 3.76044 13.9938C3.48081 14.1781 3.24468 14.2244 2.91669 14.2271C2.87866 14.228 2.84062 14.2288 2.80144 14.2297C2.68111 14.2322 2.56078 14.2338 2.44043 14.2354C2.35837 14.2369 2.27631 14.2385 2.19424 14.2402C1.99409 14.2442 1.79393 14.2473 1.59375 14.25C1.64176 14.6412 1.69132 15.028 1.79004 15.4102C1.80005 15.4493 1.81006 15.4884 1.82038 15.5288C2.00106 16.2104 2.26219 16.8664 2.58243 17.4943C2.62057 17.5694 2.65696 17.6454 2.69312 17.7215C2.75588 17.8371 2.8041 17.9172 2.90625 18C3.21423 18.0784 3.56428 18.0043 3.84375 17.8594C4.04854 17.6703 4.10397 17.449 4.14148 17.1777C4.23774 16.5086 4.658 16.1357 5.13583 15.6922C5.43523 15.4051 5.5925 15.1889 5.64002 14.7757C5.61178 14.4465 5.48395 14.2866 5.25 14.0625C5.21749 14.0284 5.18498 13.9943 5.15149 13.9592C4.87841 13.6747 4.87841 13.6747 4.50586 13.5762C4.30087 13.5822 4.193 13.6532 4.03125 13.7813ZM11.9017 16.7728C11.8656 16.8096 11.8294 16.8463 11.7921 16.8842C11.7344 16.9439 11.7344 16.9439 11.6755 17.0048C11.5928 17.0889 11.51 17.173 11.4272 17.2571C11.2976 17.3896 11.1681 17.5223 11.0388 17.6551C10.9136 17.7835 10.7877 17.9113 10.6619 18.039C10.6238 18.0785 10.5857 18.118 10.5464 18.1587C10.2401 18.4689 9.94144 18.7237 9.49026 18.7335C9.45706 18.7332 9.42386 18.7328 9.38965 18.7324C9.13249 18.7324 8.9392 18.7393 8.71875 18.8906C8.59611 19.0852 8.61097 19.3005 8.61328 19.5234C8.61292 19.5584 8.61256 19.5934 8.61218 19.6295C8.61305 19.8731 8.6298 20.0596 8.8017 20.2463C8.86509 20.3031 8.92857 20.3597 8.99213 20.4163C9.33666 20.8061 9.36425 21.1797 9.36621 21.6826C9.3673 21.7484 9.36849 21.8143 9.36978 21.8801C9.37253 22.0399 9.37424 22.1996 9.375 22.3594C10.6416 22.5653 11.8746 22.5102 13.125 22.2188C13.1276 22.1377 13.1294 22.0567 13.1309 21.9756C13.1319 21.9305 13.133 21.8853 13.1342 21.8388C13.1182 21.6026 13.0375 21.4566 12.8663 21.2966C12.8338 21.2655 12.8013 21.2343 12.7679 21.2022C12.7 21.1383 12.632 21.0746 12.5639 21.011C12.2598 20.7185 12.0438 20.4564 12.0174 20.0228C12.0172 19.9257 12.0183 19.8285 12.0205 19.7314C12.02 19.6828 12.0195 19.6342 12.019 19.5841C12.0223 19.2312 12.0832 18.972 12.3162 18.702C12.5508 18.5145 12.7373 18.4321 13.0342 18.3809C13.2271 18.3444 13.3364 18.308 13.4531 18.1406C13.5285 17.9144 13.5106 17.6832 13.5117 17.4463C13.5127 17.3956 13.5137 17.345 13.5146 17.2928C13.5202 16.9209 13.5202 16.9209 13.3594 16.5938C13.1648 16.4711 12.9495 16.486 12.7266 16.4883C12.6916 16.4879 12.6566 16.4876 12.6205 16.4872C12.5864 16.4873 12.5523 16.4874 12.5171 16.4875C12.4864 16.4877 12.4558 16.4878 12.4242 16.4879C12.1992 16.5163 12.0571 16.6131 11.9017 16.7728Z" fill="#D62828"/>
<path d="M11.7188 8.4375C11.7397 8.45563 11.7607 8.47375 11.7823 8.49243C11.9462 8.63362 12.1113 8.77234 12.2812 8.90625C12.2404 9.11556 12.1215 9.23779 11.9824 9.39258C11.9306 9.45175 11.8788 9.51102 11.8271 9.57037C11.801 9.60043 11.7748 9.63048 11.7479 9.66145C10.6886 10.8959 9.7808 12.2898 9.01126 13.7201C8.97175 13.7935 8.93201 13.8668 8.89206 13.94C7.51067 16.4734 6.62833 19.2814 6.21844 22.1338C6.21315 22.1705 6.20785 22.2073 6.20239 22.2451C6.1763 22.4268 6.15084 22.6086 6.12648 22.7905C6.11734 22.8564 6.1082 22.9223 6.09906 22.9882C6.09122 23.0466 6.08339 23.1051 6.07531 23.1653C6.06593 23.2087 6.05654 23.2522 6.04688 23.2969C5.90194 23.3693 5.78014 23.3262 5.62207 23.3027C5.53279 23.2899 5.53279 23.2899 5.44171 23.2767C5.29688 23.25 5.29688 23.25 5.25 23.2031C5.25594 22.713 5.33751 22.2266 5.41699 21.7441C5.42611 21.6884 5.42611 21.6884 5.43541 21.6315C5.65458 20.3011 5.95746 19.0013 6.375 17.7188C6.39349 17.6617 6.41198 17.6046 6.43103 17.5458C7.41666 14.5305 8.97128 11.7127 10.9943 9.27015C11.0588 9.19204 11.1226 9.11346 11.1861 9.03461C11.2409 8.96672 11.2409 8.96672 11.2969 8.89746C11.3278 8.85909 11.3587 8.82072 11.3906 8.78119C11.4943 8.66028 11.6049 8.5488 11.7188 8.4375Z" fill="#D62828"/>
<path d="M12.1875 11.6001C12.2322 11.5999 12.2769 11.5997 12.323 11.5995C12.4172 11.5994 12.5115 11.5998 12.6057 11.6005C12.7496 11.6015 12.8933 11.6006 13.0371 11.5994C13.1289 11.5995 13.2207 11.5997 13.3125 11.6001C13.3767 11.5995 13.3767 11.5995 13.4421 11.5989C13.7025 11.6028 13.8606 11.6324 14.0625 11.8125C14.2461 12.0269 14.2779 12.2063 14.2749 12.4805C14.2752 12.535 14.2752 12.535 14.2754 12.5907C14.2756 12.6673 14.2752 12.7439 14.2744 12.8205C14.2734 12.9372 14.2744 13.0537 14.2756 13.1704C14.2755 13.2451 14.2753 13.3198 14.2749 13.3945C14.2753 13.4291 14.2757 13.4637 14.2761 13.4993C14.2717 13.7405 14.2135 13.8763 14.0625 14.0625C13.8298 14.2663 13.6676 14.2622 13.377 14.25C13.0836 14.2501 12.9025 14.2861 12.6891 14.4941C12.6209 14.5692 12.5556 14.6459 12.4913 14.7242C12.333 14.9081 12.2208 14.9907 11.9765 15.0189C11.609 15.0216 11.609 15.0216 11.4775 15.0209C11.3706 15.0205 11.2638 15.0218 11.1569 15.0233C11.0884 15.0234 11.0199 15.0234 10.9514 15.0232C10.8586 15.0234 10.8586 15.0234 10.764 15.0235C10.5096 14.9884 10.3674 14.8766 10.203 14.6847C10.1059 14.4936 10.0938 14.3499 10.0957 14.1387C10.0942 14.1051 10.0927 14.0715 10.0911 14.0369C10.0906 13.7395 10.2074 13.5725 10.4063 13.3594C10.5759 13.1907 10.7509 13.0278 10.9295 12.8686C11.1161 12.6916 11.2228 12.5749 11.2456 12.3127C11.2456 12.2747 11.2455 12.2367 11.2455 12.1975C11.2528 12.0283 11.3282 11.9366 11.4375 11.8125C11.6836 11.6044 11.8796 11.5974 12.1875 11.6001ZM12 12.375C11.9845 12.5451 11.9691 12.7153 11.9531 12.8906C11.7426 13.2382 11.4383 13.5033 11.1445 13.7811C11.1098 13.8147 11.0752 13.8484 11.0394 13.883C10.992 13.9281 10.992 13.9281 10.9437 13.974C10.8558 14.0685 10.8558 14.0685 10.875 14.25C11.4051 14.3233 11.4051 14.3233 11.9083 14.1971C12.0447 14.0869 12.1533 13.9611 12.262 13.8243C12.3979 13.6598 12.4954 13.5635 12.7113 13.532C12.8308 13.5226 12.9494 13.5178 13.0693 13.5146C13.2115 13.5098 13.3536 13.505 13.5 13.5C13.5 13.1287 13.5 12.7575 13.5 12.375C13.005 12.375 12.51 12.375 12 12.375Z" fill="#D62828"/>
<path d="M20.625 12C20.8725 12 21.12 12 21.375 12C21.375 14.7225 21.375 17.445 21.375 20.25C21.1275 20.25 20.88 20.25 20.625 20.25C20.625 17.5275 20.625 14.805 20.625 12Z" fill="#D62828"/>
<path d="M18.75 12C18.9975 12 19.245 12 19.5 12C19.5 14.7225 19.5 17.445 19.5 20.25C19.2525 20.25 19.005 20.25 18.75 20.25C18.75 17.5275 18.75 14.805 18.75 12Z" fill="#D62828"/>
<path d="M16.875 12C17.1225 12 17.37 12 17.625 12C17.625 14.7225 17.625 17.445 17.625 20.25C17.3775 20.25 17.13 20.25 16.875 20.25C16.875 17.5275 16.875 14.805 16.875 12Z" fill="#D62828"/>
<path d="M21 22.5C21.3713 22.5 21.7425 22.5 22.125 22.5C22.125 22.7475 22.125 22.995 22.125 23.25C21.7537 23.25 21.3825 23.25 21 23.25C21 23.0025 21 22.755 21 22.5Z" fill="#D62828"/>
<path d="M16.5 22.5C16.8713 22.5 17.2425 22.5 17.625 22.5C17.625 22.7475 17.625 22.995 17.625 23.25C17.2537 23.25 16.8825 23.25 16.5 23.25C16.5 23.0025 16.5 22.755 16.5 22.5Z" fill="#D62828"/>
</g>
<defs>
<clipPath id="clip0_511_2071">
<rect width="24" height="24" fill="white"/>
</clipPath>
</defs>
</svg>
