<svg width="24" height="24" viewBox="0 0 24 24" fill="none" xmlns="http://www.w3.org/2000/svg">
<path d="M2.23489 0.368708C2.28141 0.368499 2.32793 0.36829 2.37586 0.368075C2.42734 0.368083 2.47882 0.368092 2.53187 0.368101C2.58627 0.367929 2.64067 0.367756 2.69672 0.367579C2.8482 0.36715 2.99967 0.366935 3.15114 0.36681C3.31433 0.366628 3.47752 0.366179 3.64071 0.365769C4.03507 0.364842 4.42944 0.364371 4.8238 0.363954C5.00945 0.363748 5.19509 0.363497 5.38074 0.363251C5.99778 0.362454 6.61482 0.361774 7.23187 0.361435C7.39205 0.361345 7.55223 0.361255 7.71242 0.361164C7.77214 0.36113 7.77214 0.36113 7.83306 0.361095C8.47802 0.360706 9.12298 0.359518 9.76794 0.357996C10.4299 0.356446 11.0919 0.355601 11.7538 0.355452C12.1256 0.35535 12.4973 0.354939 12.8691 0.353742C13.1857 0.352725 13.5023 0.352347 13.8189 0.352803C13.9804 0.353017 14.1419 0.352927 14.3035 0.352018C14.4787 0.351191 14.6538 0.351518 14.829 0.352136C14.9054 0.351365 14.9054 0.351365 14.9834 0.350578C15.4221 0.354322 15.6453 0.487285 15.9576 0.798774C15.9807 0.821667 16.0039 0.84456 16.0277 0.868146C16.1032 0.943041 16.1782 1.01843 16.2532 1.09387C16.3059 1.14655 16.3587 1.19921 16.4116 1.25184C16.5218 1.36186 16.6317 1.47213 16.7415 1.58258C16.8819 1.72376 17.0229 1.86429 17.1641 2.00464C17.2731 2.11313 17.3818 2.22195 17.4903 2.33087C17.5422 2.38281 17.5941 2.43465 17.6462 2.48638C17.719 2.55883 17.7913 2.63171 17.8635 2.70472C17.9047 2.746 17.9459 2.78728 17.9883 2.82981C18.2263 3.10808 18.2867 3.36579 18.2887 3.72203C18.2891 3.78382 18.2896 3.84561 18.2901 3.90926C18.2903 3.97765 18.2906 4.04604 18.2909 4.11443C18.2913 4.1865 18.2918 4.25857 18.2923 4.33064C18.2935 4.52626 18.2945 4.72187 18.2955 4.91749C18.2965 5.12194 18.2978 5.32639 18.299 5.53083C18.3014 5.91797 18.3035 6.3051 18.3055 6.69224C18.3078 7.13298 18.3104 7.57373 18.313 8.01448C18.3183 8.92111 18.3233 9.82774 18.3281 10.7344C18.3551 10.7216 18.382 10.7088 18.4097 10.6956C18.5327 10.6377 18.656 10.5806 18.7793 10.5234C18.8428 10.4933 18.8428 10.4933 18.9077 10.4625C19.3073 10.2787 19.3073 10.2787 19.5469 10.3125C19.6351 10.3632 19.6351 10.3632 19.7141 10.439C19.7458 10.469 19.7775 10.499 19.8102 10.5299C19.8471 10.5664 19.8839 10.603 19.9219 10.6406C19.9682 10.6858 20.0145 10.7309 20.0608 10.7761C20.1909 10.9034 20.3198 11.0319 20.4483 11.1609C20.5291 11.242 20.6102 11.3229 20.6914 11.4037C20.7429 11.4553 20.7945 11.5069 20.846 11.5585C20.8702 11.5827 20.8944 11.6068 20.9194 11.6316C21.1406 11.8543 21.1406 11.8543 21.1406 12.0791C21.1113 12.3371 20.9971 12.5519 20.8759 12.7779C20.7718 12.9803 20.7451 13.0949 20.8125 13.3125C20.8693 13.4516 20.9326 13.587 20.9971 13.7227C21.1356 14.0225 21.2386 14.2948 21.2813 14.625C21.308 14.6324 21.3348 14.6399 21.3624 14.6475C21.603 14.7168 21.8398 14.7944 22.0752 14.8799C22.1259 14.8982 22.1766 14.9165 22.2288 14.9354C22.3717 15.0061 22.418 15.0532 22.5 15.1875C22.5182 15.2942 22.5182 15.2942 22.5189 15.4124C22.5198 15.479 22.5198 15.479 22.5207 15.547C22.5205 15.6185 22.5205 15.6185 22.5203 15.6914C22.5206 15.7406 22.5208 15.7899 22.5211 15.8406C22.5214 15.9446 22.5213 16.0486 22.5209 16.1526C22.5205 16.3119 22.5219 16.4711 22.5233 16.6304C22.5234 16.7314 22.5234 16.8325 22.5233 16.9336C22.5238 16.9813 22.5243 17.0289 22.5249 17.078C22.5216 17.4054 22.5216 17.4054 22.4187 17.5584C22.3075 17.6281 22.2178 17.6638 22.0904 17.694C21.622 17.8094 21.622 17.8094 21.2539 18.0968C21.1427 18.3167 21.0839 18.5494 21.0277 18.7883C20.9809 18.9613 20.8924 19.1081 20.8008 19.2607C20.7182 19.4925 20.8357 19.7066 20.9333 19.9159C20.964 19.9804 20.9951 20.0447 21.0263 20.1089C21.1236 20.319 21.1844 20.484 21.1406 20.7188C21.0492 20.8613 20.9323 20.9747 20.8125 21.0938C20.7688 21.1385 20.7251 21.1833 20.6815 21.2281C20.5593 21.3531 20.436 21.4768 20.3122 21.6001C20.2345 21.6776 20.1571 21.7553 20.0796 21.833C20.0302 21.8825 19.9807 21.9319 19.9312 21.9813C19.9081 22.0045 19.885 22.0276 19.8612 22.0515C19.7097 22.202 19.6441 22.2611 19.4273 22.2805C19.1857 22.2775 19.0006 22.1819 18.7881 22.0752C18.5301 21.9369 18.5301 21.9369 18.2477 21.8945C18.123 21.9446 18.0068 22.0022 17.8887 22.0664C17.7218 22.1561 17.5867 22.2171 17.4 22.2532C17.1166 22.3073 17.1166 22.3073 16.875 22.4531C16.694 22.7347 16.5935 23.0591 16.4967 23.3775C16.4487 23.4951 16.4115 23.5463 16.3125 23.625C16.2097 23.6435 16.2097 23.6435 16.0887 23.6447C16.0433 23.6454 15.9979 23.6462 15.9512 23.6469C15.9023 23.647 15.8533 23.647 15.8029 23.647C15.7526 23.6473 15.7022 23.6477 15.6504 23.6481C15.5439 23.6486 15.4374 23.6487 15.3309 23.6485C15.1678 23.6484 15.0048 23.6504 14.8417 23.6525C14.7383 23.6527 14.6349 23.6528 14.5314 23.6528C14.4826 23.6536 14.4338 23.6544 14.3835 23.6552C14.0467 23.6519 14.0467 23.6519 13.8942 23.5197C13.8344 23.4029 13.7895 23.299 13.7558 23.1725C13.6378 22.7339 13.6378 22.7339 13.367 22.3867C13.1721 22.2897 12.9655 22.2442 12.7538 22.1979C12.5589 22.1459 12.3897 22.0378 12.2162 21.9377C12.0566 21.8763 11.9767 21.8912 11.8125 21.9375C11.665 22.0045 11.5216 22.0754 11.3785 22.1513C11.1524 22.2641 10.9875 22.2942 10.7344 22.2656C10.6174 22.1955 10.6174 22.1955 10.5264 22.1045C10.4955 22.0746 10.4646 22.0447 10.4328 22.0139C10.4086 21.9887 10.3843 21.9635 10.3594 21.9375C10.2703 21.8484 10.1119 21.8846 9.99378 21.8845C9.94319 21.8843 9.94319 21.8843 9.89159 21.8842C9.77773 21.8839 9.66387 21.8839 9.55002 21.884C9.46872 21.8838 9.38743 21.8837 9.30614 21.8835C9.13063 21.8831 8.95511 21.8829 8.77959 21.8827C8.50207 21.8824 8.22456 21.8817 7.94704 21.8808C7.85212 21.8805 7.7572 21.8802 7.66227 21.8799C7.59095 21.8797 7.59095 21.8797 7.51819 21.8794C6.87182 21.8775 6.22545 21.8759 5.57908 21.8753C5.14349 21.875 4.7079 21.8739 4.27232 21.8721C4.0417 21.8712 3.8111 21.8706 3.58048 21.8708C3.36344 21.871 3.14642 21.8704 2.92938 21.8691C2.84975 21.8688 2.77012 21.8688 2.6905 21.8691C2.58168 21.8695 2.47293 21.8688 2.36412 21.8678C2.27282 21.8676 2.27282 21.8676 2.17968 21.8674C1.93304 21.8318 1.79015 21.7181 1.62598 21.5361C1.48933 21.3388 1.49403 21.1812 1.49371 20.9463C1.4936 20.9118 1.49349 20.8773 1.49338 20.8417C1.49306 20.7252 1.49309 20.6087 1.4931 20.4921C1.49295 20.4081 1.49278 20.3241 1.49258 20.24C1.49211 20.0084 1.49194 19.7768 1.49181 19.5452C1.49163 19.2956 1.49118 19.0461 1.49077 18.7966C1.48985 18.1937 1.48937 17.5908 1.48896 16.9879C1.48875 16.7041 1.4885 16.4204 1.48825 16.1367C1.48746 15.194 1.48678 14.2512 1.48644 13.3085C1.48635 13.0637 1.48626 12.819 1.48617 12.5743C1.48614 12.5134 1.48612 12.4526 1.4861 12.39C1.48571 11.404 1.48452 10.418 1.483 9.43196C1.48145 8.42035 1.4806 7.40873 1.48045 6.39712C1.48035 5.82885 1.47994 5.26059 1.47875 4.69232C1.47773 4.2085 1.47735 3.72469 1.47781 3.24087C1.47802 2.99391 1.47793 2.74695 1.47702 2.49999C1.4762 2.27402 1.47624 2.04807 1.47697 1.8221C1.47708 1.74024 1.47687 1.65838 1.47632 1.57653C1.47562 1.46543 1.47606 1.35439 1.4768 1.24329C1.47675 1.18153 1.47671 1.11977 1.47666 1.05614C1.51179 0.807042 1.6249 0.664521 1.81055 0.500976C1.96689 0.389893 2.04555 0.369101 2.23489 0.368708ZM2.29688 1.125C2.29688 7.69922 2.29688 14.2734 2.29688 21.0469C4.6636 21.0469 7.03031 21.0469 9.46875 21.0469C9.39141 20.9386 9.31406 20.8303 9.23438 20.7188C9.17923 20.3905 9.33724 20.1402 9.4802 19.8555C9.58382 19.6389 9.64127 19.5042 9.5625 19.2656C9.51333 19.1518 9.46273 19.0422 9.40723 18.9316C9.29603 18.7063 9.21089 18.4931 9.14649 18.249C9.08965 18.0671 9.08965 18.0671 8.9632 17.9319C8.85202 17.881 8.74242 17.8466 8.625 17.8125C8.51727 17.7733 8.40986 17.7332 8.30274 17.6924C8.25162 17.674 8.2005 17.6555 8.14783 17.6365C8.01902 17.5796 7.9605 17.5462 7.875 17.4375C7.85683 17.3364 7.85683 17.3364 7.85606 17.218C7.85547 17.1735 7.85487 17.1291 7.85426 17.0833C7.8544 17.0354 7.85454 16.9875 7.85468 16.9382C7.85443 16.8889 7.85419 16.8396 7.85393 16.7888C7.85363 16.6845 7.85369 16.5802 7.85409 16.4759C7.85449 16.3162 7.85315 16.1566 7.85166 15.9969C7.85158 15.8956 7.85161 15.7943 7.85175 15.6931C7.85122 15.6452 7.85069 15.5974 7.85015 15.5482C7.85339 15.2196 7.85339 15.2196 7.95581 15.0674C8.06794 14.9966 8.16575 14.9538 8.29285 14.9161C8.35793 14.8948 8.35793 14.8948 8.42432 14.8731C8.51516 14.8444 8.60636 14.8168 8.69788 14.7903C8.82966 14.746 8.93442 14.7071 9.04688 14.625C9.11463 14.4698 9.1346 14.3247 9.14063 14.1562C9.09311 14.1556 9.09311 14.1556 9.04463 14.1549C8.90082 14.1524 8.75707 14.1485 8.61328 14.1445C8.56343 14.1439 8.51358 14.1432 8.46222 14.1425C8.41418 14.141 8.36615 14.1395 8.31665 14.1379C8.25037 14.1365 8.25037 14.1365 8.18276 14.135C8.02785 14.102 7.97081 14.0461 7.875 13.9219C7.85328 13.7155 7.85248 13.6275 7.96875 13.4531C8.12959 13.3995 8.25785 13.3988 8.42743 13.3964C8.49063 13.395 8.55384 13.3937 8.61704 13.3923C8.71651 13.3904 8.81598 13.3887 8.91546 13.3874C9.0116 13.3861 9.10768 13.384 9.2038 13.3817C9.26133 13.3808 9.31885 13.3799 9.37813 13.3789C9.44619 13.3692 9.44619 13.3692 9.51563 13.3594C9.62264 13.2294 9.62264 13.2294 9.60224 13.0928C9.54523 12.87 9.44799 12.6718 9.34873 12.4651C9.26018 12.273 9.19223 12.1206 9.23438 11.9062C9.31835 11.7726 9.41326 11.6513 9.51563 11.5312C9.47259 11.5308 9.42955 11.5304 9.38521 11.5299C9.22514 11.5279 9.06513 11.525 8.90509 11.5215C8.83589 11.5202 8.76669 11.5192 8.69749 11.5185C8.59785 11.5175 8.4983 11.5154 8.39868 11.5129C8.30884 11.5115 8.30884 11.5115 8.21718 11.51C8.03795 11.4803 7.98027 11.4429 7.875 11.2969C7.85328 11.0905 7.85248 11.0025 7.96875 10.8281C8.1039 10.7831 8.1865 10.7759 8.32668 10.7768C8.39264 10.777 8.39264 10.777 8.45994 10.7772C8.5074 10.7775 8.55486 10.7777 8.60376 10.778C8.70435 10.7776 8.80493 10.7771 8.90552 10.7765C9.06405 10.7757 9.22251 10.7754 9.38104 10.7766C9.5341 10.7776 9.68704 10.7765 9.84009 10.775C9.88717 10.7758 9.93425 10.7767 9.98276 10.7775C10.2325 10.7732 10.3703 10.7519 10.55 10.5707C10.5747 10.5412 10.5994 10.5116 10.6248 10.4812C10.7121 10.3769 10.7663 10.3612 10.9012 10.3447C11.1215 10.3647 11.29 10.451 11.4873 10.5469C11.7994 10.7144 11.7994 10.7144 12.1406 10.7344C12.2869 10.671 12.2869 10.671 12.4395 10.585C12.6198 10.4878 12.7934 10.4027 12.9912 10.3471C13.0228 10.3381 13.0545 10.3292 13.0871 10.3199C13.1762 10.2961 13.2659 10.2744 13.3555 10.2528C13.5226 10.1592 13.5272 10.131 13.5793 9.95588C13.5911 9.91745 13.6028 9.87903 13.6149 9.83944C13.6234 9.80992 13.6319 9.78041 13.6406 9.75C13.6121 9.74993 13.5835 9.74986 13.554 9.74979C12.8588 9.74805 12.1636 9.74529 11.4685 9.74138C11.1323 9.73951 10.7961 9.738 10.4599 9.7373C10.1669 9.73669 9.87385 9.73542 9.58084 9.73338C9.42568 9.73232 9.27054 9.73168 9.11537 9.73163C8.94218 9.73152 8.76903 9.73026 8.59584 9.72871C8.51861 9.72907 8.51861 9.72907 8.43983 9.72943C8.39263 9.72878 8.34544 9.72812 8.29682 9.72745C8.23537 9.72719 8.23537 9.72719 8.17269 9.72693C8.02433 9.69488 7.96775 9.63359 7.875 9.51562C7.84924 9.33529 7.84069 9.23477 7.94942 9.08498C8.10335 8.9693 8.20358 8.97642 8.39521 8.97619C8.42874 8.9759 8.46226 8.97561 8.4968 8.9753C8.60916 8.97456 8.72147 8.97515 8.83383 8.97574C8.91438 8.97548 8.99492 8.97515 9.07546 8.97474C9.29424 8.97389 9.51301 8.97422 9.73179 8.97481C9.96061 8.97529 10.1894 8.97485 10.4183 8.97455C10.8025 8.97421 11.1868 8.97466 11.5711 8.97555C12.0156 8.97657 12.46 8.97624 12.9045 8.97521C13.2859 8.97436 13.6673 8.97424 14.0487 8.97473C14.2766 8.97502 14.5045 8.97506 14.7323 8.97444C14.9466 8.9739 15.1608 8.97428 15.375 8.97536C15.4537 8.97561 15.5324 8.97554 15.6111 8.97512C15.7184 8.97461 15.8256 8.97525 15.9329 8.97619C16.023 8.9763 16.023 8.9763 16.115 8.9764C16.2919 9.00412 16.3457 9.04725 16.4531 9.1875C16.4999 9.29617 16.4999 9.29617 16.5337 9.41455C16.6646 9.90373 16.6646 9.90373 16.9742 10.2783C17.1479 10.3339 17.3027 10.3594 17.4844 10.3594C17.4844 8.17828 17.4844 5.99719 17.4844 3.75C16.7883 3.73453 16.0922 3.71906 15.375 3.70312C15.0521 3.54167 15.0521 3.54167 14.9531 3.375C14.7157 2.66287 14.8761 1.87547 14.8594 1.125C10.7138 1.125 6.56813 1.125 2.29688 1.125ZM15.6563 1.73437C15.6563 2.13656 15.6563 2.53875 15.6563 2.95312C16.0584 2.95312 16.4606 2.95312 16.875 2.95312C16.7091 2.75962 16.5516 2.57691 16.3731 2.39813C16.334 2.35901 16.295 2.31988 16.2547 2.27957C16.2148 2.23984 16.1749 2.20011 16.1338 2.15918C16.093 2.11818 16.0522 2.07718 16.0101 2.03494C15.952 1.97689 15.952 1.97689 15.8926 1.91766C15.8397 1.86483 15.8397 1.86483 15.7857 1.81092C15.7162 1.72906 15.7162 1.72906 15.6563 1.73437ZM14.4844 9.75C14.437 9.91242 14.3896 10.0748 14.3408 10.2422C14.2534 10.4862 14.1663 10.7091 13.948 10.8609C13.6813 10.9833 13.3992 11.0489 13.115 11.1185C12.8656 11.1905 12.6546 11.3246 12.4338 11.4578C12.2168 11.5623 12.0323 11.618 11.8004 11.5447C11.6888 11.4961 11.5808 11.4435 11.4727 11.3877C11.3995 11.3503 11.326 11.3136 11.2522 11.2776C11.2202 11.2611 11.1882 11.2446 11.1553 11.2276C11.0618 11.1939 11.0618 11.1939 10.969 11.2344C10.7789 11.3608 10.6239 11.5267 10.4619 11.6865C10.4244 11.7221 10.3868 11.7578 10.3481 11.7945C10.3129 11.8292 10.2776 11.864 10.2413 11.8998C10.2088 11.9314 10.1764 11.963 10.143 11.9955C10.0659 12.0907 10.0659 12.0907 10.0865 12.2121C10.1202 12.3137 10.1559 12.4076 10.203 12.5035C10.2179 12.5351 10.2327 12.5667 10.248 12.5993C10.2792 12.6645 10.3108 12.7294 10.3429 12.7941C10.4466 13.0173 10.4748 13.1609 10.4063 13.4062C10.3494 13.5301 10.2819 13.6463 10.2129 13.7637C10.0573 14.0356 9.95251 14.294 9.87079 14.5964C9.71289 15.1742 9.71289 15.1742 9.50318 15.3074C9.33564 15.3789 9.17685 15.4261 9 15.4688C8.87625 15.5152 8.7525 15.5616 8.625 15.6094C8.625 16.058 8.625 16.5066 8.625 16.9688C8.90344 17.0848 8.90344 17.0848 9.1875 17.2031C9.59641 17.3777 9.59641 17.3777 9.70313 17.4844C9.74011 17.5955 9.77366 17.7059 9.80567 17.8184C9.94903 18.2995 10.1409 18.7609 10.3828 19.2012C10.4662 19.3888 10.4553 19.4444 10.4063 19.6406C10.3399 19.8044 10.2623 19.9628 10.1842 20.1213C10.093 20.2963 10.093 20.2963 10.1102 20.483C10.2345 20.6747 10.4017 20.8292 10.5615 20.9912C10.615 21.0475 10.615 21.0475 10.6695 21.105C10.7042 21.1403 10.739 21.1755 10.7748 21.2119C10.8064 21.2443 10.838 21.2767 10.8705 21.3101C10.9659 21.3875 10.9659 21.3875 11.0885 21.3659C11.2959 21.2976 11.4902 21.1998 11.6874 21.1068C11.9429 21.0178 12.1323 21.0008 12.3869 21.1157C12.4637 21.1629 12.4637 21.1629 12.542 21.2109C12.8948 21.418 13.2651 21.5431 13.6556 21.6619C13.9905 21.769 13.9905 21.769 14.1066 21.8979C14.123 21.9419 14.1394 21.9859 14.1563 22.0312C14.1696 22.0635 14.1829 22.0958 14.1966 22.129C14.2428 22.2413 14.2862 22.3542 14.3291 22.4678C14.3803 22.6022 14.4316 22.7365 14.4844 22.875C14.933 22.875 15.3816 22.875 15.8438 22.875C15.9594 22.5576 15.9594 22.5576 16.0737 22.2397C16.0958 22.1803 16.0958 22.1803 16.1184 22.1197C16.1331 22.0792 16.1479 22.0387 16.163 21.997C16.245 21.8405 16.3447 21.7746 16.5067 21.7099C16.5425 21.6992 16.5783 21.6886 16.6152 21.6777C16.6755 21.659 16.6755 21.659 16.7371 21.64C16.7797 21.627 16.8223 21.614 16.8662 21.6006C17.2539 21.4785 17.5917 21.3293 17.9379 21.1174C18.1564 21.0185 18.3406 21.0044 18.5658 21.079C18.6642 21.1209 18.7598 21.1661 18.8555 21.2139C19.0728 21.3333 19.0728 21.3333 19.3104 21.3676C19.4392 21.3146 19.5118 21.2384 19.6091 21.139C19.6466 21.1011 19.6841 21.0631 19.7227 21.0241C19.7613 20.9842 19.8 20.9444 19.8398 20.9033C19.8792 20.8633 19.9186 20.8233 19.9592 20.782C20.0565 20.6831 20.1534 20.5839 20.25 20.4844C20.1564 20.1915 20.0467 19.9145 19.9167 19.6357C19.8371 19.3769 19.9251 19.193 20.0474 18.9607C20.064 18.9298 20.0806 18.899 20.0977 18.8672C20.2501 18.574 20.3715 18.2852 20.4749 17.9709C20.4935 17.9186 20.5121 17.8664 20.5313 17.8125C20.5416 17.7777 20.552 17.7428 20.5627 17.7069C20.6218 17.5383 20.6692 17.4236 20.8209 17.3226C20.9445 17.2673 21.0677 17.222 21.1963 17.1797C21.2819 17.149 21.3676 17.1182 21.4532 17.0874C21.5099 17.0682 21.5099 17.0682 21.5678 17.0487C21.6555 17.0229 21.6555 17.0229 21.7031 16.9688C21.7072 16.8682 21.7081 16.7675 21.7077 16.6668C21.7075 16.575 21.7075 16.575 21.7072 16.4814C21.7069 16.4163 21.7065 16.3512 21.7061 16.2861C21.7058 16.2209 21.7056 16.1556 21.7054 16.0903C21.7049 15.93 21.7041 15.7697 21.7031 15.6094C21.6739 15.6022 21.6446 15.5951 21.6144 15.5878C20.8003 15.3721 20.8003 15.3721 20.5923 15.073C20.4698 14.8064 20.4042 14.5243 20.3346 14.2402C20.2623 13.9895 20.1282 13.7768 19.9953 13.5542C19.8971 13.3563 19.8377 13.1943 19.9077 12.9762C19.9557 12.8644 20.0077 12.756 20.0625 12.6475C20.0991 12.5738 20.1353 12.4999 20.1709 12.4257C20.1872 12.3934 20.2034 12.3612 20.2202 12.3279C20.2579 12.2097 20.2517 12.161 20.2031 12.0469C20.1198 11.9441 20.1198 11.9441 20.014 11.844C19.9761 11.8065 19.9381 11.7691 19.8991 11.7305C19.8592 11.6918 19.8194 11.6531 19.7783 11.6133C19.7383 11.5739 19.6983 11.5345 19.657 11.4939C19.5581 11.3966 19.4589 11.2997 19.3594 11.2031C19.0766 11.2924 18.8188 11.3974 18.5565 11.5364C18.3127 11.612 18.117 11.565 17.8944 11.4578C17.8432 11.4269 17.792 11.3961 17.7393 11.3643C17.522 11.2349 17.3197 11.1446 17.0733 11.0843C16.3584 10.9031 16.3584 10.9031 16.1762 10.6639C16.0152 10.3662 15.9404 10.0814 15.8438 9.75C15.3952 9.75 14.9466 9.75 14.4844 9.75Z" fill="#D62828"/>
<path d="M17.5665 13.4752C18.304 14.1302 18.7756 15.0007 18.8517 15.9937C18.9038 17.0064 18.6159 17.9831 17.9407 18.7553C17.6903 19.0303 17.4328 19.2652 17.1094 19.4531C17.0609 19.4815 17.0123 19.5098 16.9623 19.539C16.1129 19.9991 15.1144 20.1255 14.1782 19.8639C14.0923 19.8377 14.0071 19.8095 13.9219 19.7813C13.873 19.7654 13.8241 19.7495 13.7737 19.7331C12.874 19.4 12.2035 18.6816 11.7949 17.8301C11.4048 16.9363 11.3506 15.9145 11.6942 14.9952C12.0676 14.0608 12.7557 13.3052 13.6838 12.9023C14.9879 12.3676 16.4787 12.5625 17.5665 13.4752ZM12.9375 14.4375C12.4267 15.0927 12.2295 15.8216 12.2813 16.6406C12.3845 17.4486 12.7903 18.0601 13.3936 18.5788C14.0567 19.0907 14.7912 19.2399 15.6094 19.1719C16.2672 19.0746 16.7873 18.7423 17.25 18.2813C17.2799 18.2524 17.3098 18.2236 17.3406 18.1939C17.8335 17.6813 18.0467 16.9833 18.0645 16.2861C18.0433 15.4886 17.718 14.7431 17.1493 14.1823C16.5595 13.6538 15.8154 13.376 15.026 13.3918C14.1932 13.4641 13.5011 13.8259 12.9375 14.4375Z" fill="#D62828"/>
<path d="M17.0742 14.5137C17.3123 14.6488 17.4443 14.8079 17.5488 15.0645C17.608 15.4076 17.5444 15.6507 17.3438 15.9375C17.1932 16.108 17.0322 16.2677 16.8706 16.4277C16.824 16.4742 16.7774 16.5208 16.7309 16.5675C16.6337 16.6646 16.5363 16.7616 16.4387 16.8583C16.3138 16.9822 16.1894 17.1065 16.0651 17.2311C15.9692 17.3272 15.873 17.423 15.7768 17.5188C15.7308 17.5646 15.685 17.6104 15.6391 17.6563C15.5751 17.7204 15.5107 17.7841 15.4463 17.8478C15.3916 17.9022 15.3916 17.9022 15.3357 17.9577C15.1471 18.1237 15.0037 18.1561 14.7539 18.1611C14.6781 18.1639 14.6781 18.1639 14.6008 18.1668C14.1603 18.0962 13.8618 17.7275 13.5613 17.4234C13.4852 17.3465 13.4084 17.2705 13.3315 17.1944C13.2823 17.1452 13.2332 17.0959 13.1841 17.0466C13.1614 17.0241 13.1387 17.0017 13.1153 16.9786C12.9017 16.7606 12.7741 16.5334 12.7476 16.2253C12.7533 15.9838 12.8161 15.786 12.9787 15.6052C13.2443 15.366 13.4359 15.3101 13.7919 15.3157C14.1795 15.3528 14.42 15.6702 14.6719 15.9375C14.8703 15.861 14.999 15.7127 15.143 15.5627C15.1986 15.5059 15.2541 15.4492 15.3097 15.3925C15.3966 15.3033 15.4833 15.2139 15.5698 15.1243C15.6537 15.0376 15.7381 14.9515 15.8227 14.8654C15.8481 14.8388 15.8735 14.8121 15.8997 14.7846C16.2256 14.4545 16.6343 14.3157 17.0742 14.5137ZM16.5677 15.2963C16.539 15.3253 16.5104 15.3544 16.4809 15.3842C16.4483 15.4169 16.4158 15.4496 16.3823 15.4833C16.3296 15.5369 16.3296 15.5369 16.2759 15.5916C16.2218 15.6461 16.2218 15.6461 16.1666 15.7016C16.051 15.8181 15.9356 15.9349 15.8203 16.0518C15.705 16.1684 15.5896 16.285 15.474 16.4014C15.402 16.474 15.3301 16.5467 15.2584 16.6196C15.2258 16.6524 15.1933 16.6852 15.1598 16.7191C15.1311 16.7481 15.1025 16.7772 15.0729 16.8071C14.9426 16.9285 14.8149 16.9507 14.6374 16.9484C14.4115 16.8919 14.2688 16.6907 14.1182 16.5234C14.0488 16.4484 13.9792 16.3737 13.9092 16.2993C13.879 16.2659 13.8487 16.2325 13.8175 16.1982C13.7352 16.1095 13.7352 16.1095 13.5938 16.125C13.6272 16.4022 13.8862 16.5824 14.0745 16.7698C14.1474 16.8427 14.2193 16.9165 14.2911 16.9904C14.3372 17.0368 14.3834 17.0831 14.4296 17.1293C14.4715 17.1716 14.5135 17.2138 14.5567 17.2574C14.66 17.3549 14.66 17.3549 14.7617 17.3358C14.8819 17.2879 14.9464 17.227 15.0376 17.1353C15.0719 17.1012 15.1062 17.0671 15.1414 17.0319C15.178 16.9948 15.2145 16.9577 15.2521 16.9195C15.29 16.8815 15.3279 16.8435 15.367 16.8044C15.4471 16.724 15.527 16.6434 15.6068 16.5626C15.7288 16.4391 15.8514 16.3161 15.974 16.1932C16.0518 16.115 16.1295 16.0368 16.2072 15.9586C16.2438 15.9217 16.2805 15.8849 16.3182 15.847C16.3523 15.8124 16.3864 15.7779 16.4216 15.7423C16.4515 15.712 16.4814 15.6817 16.5123 15.6506C16.6885 15.4708 16.6885 15.4708 16.7344 15.2344C16.6366 15.2243 16.6366 15.2243 16.5677 15.2963Z" fill="#D62828"/>
<path d="M3.86893 13.0592C3.94519 13.0583 3.94519 13.0583 4.02299 13.0574C4.10466 13.0576 4.10466 13.0576 4.18799 13.0578C4.24432 13.0576 4.30066 13.0573 4.3587 13.0571C4.47769 13.0568 4.59668 13.0568 4.71567 13.0572C4.89777 13.0576 5.07981 13.0563 5.2619 13.0548C5.37756 13.0547 5.49322 13.0547 5.60889 13.0549C5.66333 13.0543 5.71778 13.0538 5.77388 13.0533C6.1499 13.0565 6.1499 13.0565 6.33792 13.1645C6.46912 13.3225 6.47486 13.4527 6.4763 13.6509C6.47675 13.7008 6.4772 13.7507 6.47767 13.8021C6.47787 13.856 6.47806 13.9099 6.47827 13.9655C6.47854 14.0209 6.4788 14.0763 6.47908 14.1334C6.47952 14.2508 6.47983 14.3681 6.48001 14.4855C6.48046 14.665 6.48192 14.8445 6.4834 15.024C6.4837 15.1379 6.48395 15.2519 6.48413 15.3658C6.48471 15.4196 6.48529 15.4733 6.48588 15.5286C6.48574 15.5788 6.4856 15.629 6.48546 15.6808C6.48571 15.7468 6.48571 15.7468 6.48597 15.8142C6.46524 15.9626 6.41537 16.051 6.32812 16.1719C6.20571 16.2331 6.11422 16.2257 5.97713 16.227C5.92331 16.2276 5.86949 16.2282 5.81404 16.2289C5.75565 16.2292 5.69725 16.2296 5.63708 16.2299C5.57732 16.2303 5.51755 16.2307 5.45597 16.2311C5.32932 16.2317 5.20267 16.2322 5.07603 16.2326C4.91387 16.2331 4.75175 16.2347 4.58961 16.2366C4.43486 16.2381 4.28012 16.2383 4.12536 16.2387C4.06716 16.2395 4.00895 16.2403 3.94898 16.2412C3.89486 16.2411 3.84075 16.2409 3.78499 16.2408C3.7374 16.2411 3.6898 16.2413 3.64075 16.2416C3.48023 16.2123 3.42646 16.1595 3.32812 16.0312C3.27446 15.8912 3.27508 15.7558 3.27444 15.6067C3.27414 15.5596 3.27384 15.5125 3.27353 15.464C3.27348 15.4134 3.27343 15.3629 3.27337 15.3107C3.27322 15.2585 3.27306 15.2062 3.2729 15.1524C3.27266 15.042 3.27255 14.9315 3.27256 14.8211C3.27246 14.6522 3.27161 14.4833 3.27072 14.3144C3.27058 14.207 3.27049 14.0997 3.27045 13.9924C3.27011 13.9419 3.26977 13.8914 3.26942 13.8394C3.26964 13.7685 3.26964 13.7685 3.26986 13.6962C3.26976 13.6341 3.26976 13.6341 3.26966 13.5708C3.28318 13.4335 3.30841 13.3401 3.375 13.2187C3.53895 13.0902 3.66309 13.0604 3.86893 13.0592ZM4.07812 13.875C4.07812 14.3855 4.07812 14.8959 4.07812 15.4219C4.60406 15.4219 5.13 15.4219 5.67187 15.4219C5.67187 14.9114 5.67187 14.4009 5.67187 13.875C5.14594 13.875 4.62 13.875 4.07812 13.875Z" fill="#D62828"/>
<path d="M3.77286 4.25733C3.82668 4.25673 3.8805 4.25612 3.93595 4.2555C3.99435 4.25516 4.05274 4.25481 4.11291 4.25446C4.17268 4.25408 4.23245 4.2537 4.29403 4.25331C4.42068 4.25266 4.54732 4.25214 4.67397 4.25179C4.83612 4.25127 4.99824 4.24966 5.16039 4.2478C5.31513 4.24628 5.46988 4.24606 5.62463 4.24567C5.71194 4.24444 5.71194 4.24444 5.80102 4.24318C5.88219 4.24339 5.88219 4.24339 5.965 4.24359C6.0126 4.24332 6.0602 4.24304 6.10924 4.24276C6.26772 4.27172 6.32168 4.32986 6.42187 4.45312C6.48097 4.57131 6.47534 4.65387 6.4763 4.78616C6.47675 4.83607 6.4772 4.88599 6.47766 4.93741C6.47786 4.99156 6.47806 5.04571 6.47827 5.1015C6.47853 5.157 6.4788 5.21249 6.47908 5.26967C6.47952 5.38729 6.47983 5.50492 6.48001 5.62254C6.48046 5.80248 6.48192 5.98239 6.48339 6.16232C6.4837 6.27649 6.48395 6.39066 6.48413 6.50482C6.48471 6.55869 6.48528 6.61255 6.48588 6.66805C6.48574 6.7184 6.4856 6.76876 6.48545 6.82064C6.48571 6.88689 6.48571 6.88689 6.48597 6.95447C6.4651 7.10428 6.4169 7.19085 6.32812 7.3125C6.17177 7.41673 6.12103 7.41824 5.93859 7.41912C5.88774 7.41957 5.83689 7.42002 5.7845 7.42048C5.7021 7.42041 5.7021 7.42041 5.61804 7.42035C5.56157 7.42055 5.5051 7.42075 5.44692 7.42096C5.32737 7.42123 5.20782 7.42125 5.08827 7.42105C4.90535 7.4209 4.72246 7.422 4.53955 7.42319C4.42346 7.42329 4.30737 7.42333 4.19128 7.42328C4.13654 7.42371 4.0818 7.42414 4.02539 7.42459C3.94868 7.42415 3.94868 7.42415 3.87041 7.4237C3.80313 7.42375 3.80313 7.42375 3.73448 7.42379C3.58117 7.4023 3.49665 7.36122 3.375 7.26562C3.2877 7.10614 3.26932 6.97045 3.26837 6.7904C3.26792 6.74361 3.26748 6.69683 3.26702 6.64862C3.26706 6.59857 3.2671 6.54852 3.26715 6.49695C3.26695 6.445 3.26675 6.39304 3.26654 6.33952C3.26627 6.22975 3.26625 6.11998 3.26645 6.01021C3.2666 5.84273 3.2655 5.67529 3.26431 5.50781C3.2642 5.401 3.26417 5.29419 3.26422 5.18738C3.26379 5.13751 3.26335 5.08765 3.26291 5.03628C3.26463 4.75949 3.2845 4.55542 3.42187 4.3125C3.54428 4.25129 3.63577 4.25866 3.77286 4.25733ZM4.07812 5.0625C4.07812 5.57297 4.07812 6.08344 4.07812 6.60937C4.60406 6.60937 5.13 6.60937 5.67187 6.60937C5.67187 6.09891 5.67187 5.58844 5.67187 5.0625C5.14593 5.0625 4.62 5.0625 4.07812 5.0625Z" fill="#D62828"/>
<path d="M3.82103 8.65294C3.87282 8.65234 3.9246 8.65175 3.97795 8.65113C4.03367 8.65127 4.08938 8.65141 4.14679 8.65155C4.23295 8.65118 4.23295 8.65118 4.32086 8.65081C4.44234 8.65051 4.56381 8.65057 4.68529 8.65097C4.8712 8.65137 5.05704 8.65002 5.24295 8.64853C5.36096 8.64845 5.47897 8.64848 5.59698 8.64862C5.6526 8.6481 5.70822 8.64757 5.76553 8.64703C6.14972 8.65028 6.14972 8.65028 6.33866 8.75829C6.46784 8.91521 6.47484 9.04406 6.4763 9.2403C6.47675 9.28928 6.4772 9.33825 6.47767 9.3887C6.47787 9.44159 6.47806 9.49447 6.47827 9.54895C6.47854 9.60334 6.4788 9.65773 6.47908 9.71376C6.47952 9.8289 6.47983 9.94404 6.48001 10.0592C6.48046 10.2353 6.48192 10.4114 6.4834 10.5875C6.4837 10.6993 6.48395 10.8112 6.48413 10.923C6.48471 10.9757 6.48529 11.0284 6.48588 11.0826C6.48574 11.1319 6.4856 11.1812 6.48546 11.2319C6.48571 11.2967 6.48571 11.2967 6.48597 11.3628C6.46493 11.5113 6.416 11.598 6.32812 11.7188C6.17103 11.8235 6.11799 11.8247 5.93429 11.8261C5.85661 11.827 5.85661 11.827 5.77735 11.8279C5.7214 11.828 5.66544 11.8281 5.60779 11.8282C5.52152 11.8287 5.52152 11.8287 5.43351 11.8292C5.31176 11.8297 5.19 11.8299 5.06824 11.8299C4.88192 11.8301 4.69565 11.8318 4.50934 11.8336C4.39111 11.8338 4.27289 11.834 4.15466 11.8341C4.07101 11.8351 4.07101 11.8351 3.98567 11.8361C3.60154 11.834 3.60154 11.834 3.41123 11.7291C3.2782 11.5625 3.27534 11.4091 3.27444 11.2005C3.27414 11.1534 3.27384 11.1063 3.27353 11.0578C3.27348 11.0072 3.27343 10.9566 3.27337 10.9045C3.27322 10.8522 3.27306 10.8 3.2729 10.7462C3.27266 10.6357 3.27255 10.5253 3.27256 10.4148C3.27246 10.2459 3.27161 10.077 3.27072 9.90811C3.27058 9.80078 3.27049 9.69345 3.27045 9.58612C3.27011 9.53563 3.26977 9.48513 3.26942 9.43311C3.26964 9.36225 3.26964 9.36225 3.26986 9.28996C3.26976 9.22789 3.26976 9.22789 3.26966 9.16456C3.28749 8.98349 3.32888 8.8588 3.45845 8.72872C3.58745 8.65824 3.6743 8.65375 3.82103 8.65294ZM4.07812 9.46875C4.07812 9.97922 4.07812 10.4897 4.07812 11.0156C4.60406 11.0156 5.13 11.0156 5.67187 11.0156C5.67187 10.5052 5.67187 9.99469 5.67187 9.46875C5.14594 9.46875 4.62 9.46875 4.07812 9.46875Z" fill="#D62828"/>
<path d="M8.39907 6.29868C8.43245 6.29835 8.46582 6.29801 8.50021 6.29767C8.61178 6.29685 8.72328 6.29769 8.83486 6.29854C8.91494 6.2983 8.99503 6.29796 9.07512 6.29753C9.29245 6.29666 9.50975 6.29726 9.72708 6.29819C9.95446 6.29895 10.1818 6.29854 10.4092 6.2983C10.791 6.29809 11.1728 6.29883 11.5546 6.30014C11.9962 6.30165 12.4377 6.30165 12.8793 6.30084C13.3039 6.30009 13.7286 6.30041 14.1532 6.30121C14.334 6.30153 14.5148 6.30148 14.6956 6.30114C14.9084 6.30078 15.1212 6.30134 15.334 6.30263C15.4122 6.30295 15.4903 6.30296 15.5685 6.30262C15.6751 6.30221 15.7816 6.30296 15.8881 6.304C15.9478 6.30413 16.0075 6.30426 16.069 6.3044C16.2461 6.33245 16.3005 6.37328 16.4063 6.51562C16.4531 6.67676 16.4531 6.67676 16.4531 6.84375C16.3703 6.97509 16.3111 7.0554 16.1719 7.125C16.0667 7.12974 15.9614 7.13133 15.8561 7.13158C15.8068 7.13179 15.8068 7.13179 15.7566 7.132C15.646 7.13241 15.5354 7.13248 15.4248 7.13255C15.3458 7.13277 15.2667 7.13301 15.1876 7.13326C14.9724 7.13387 14.7572 7.13418 14.542 7.13438C14.4077 7.13452 14.2733 7.13471 14.1389 7.13492C13.7186 7.13556 13.2984 7.13602 12.8781 7.1362C12.3927 7.13641 11.9072 7.13723 11.4217 7.13859C11.0467 7.1396 10.6717 7.14007 10.2967 7.14014C10.0726 7.14019 9.84853 7.14046 9.62444 7.1413C9.41364 7.14207 9.20284 7.14217 8.99204 7.14176C8.91466 7.14173 8.83728 7.14193 8.7599 7.14239C8.65426 7.14299 8.54866 7.14272 8.44302 7.14223C8.3839 7.14229 8.32478 7.14236 8.26387 7.14243C8.0967 7.12357 8.00828 7.0852 7.87501 6.98437C7.80144 6.83725 7.81163 6.72475 7.82813 6.5625C8.00166 6.33741 8.11933 6.29881 8.39907 6.29868Z" fill="#D62828"/>
<path d="M8.34833 4.52338C8.38185 4.52312 8.41538 4.52286 8.44992 4.52259C8.56228 4.52196 8.67459 4.52266 8.78695 4.52336C8.86749 4.52318 8.94803 4.52292 9.02857 4.52259C9.24736 4.52193 9.46612 4.52246 9.68491 4.52323C9.91373 4.52388 10.1425 4.52358 10.3714 4.52341C10.7557 4.52329 11.1399 4.52392 11.5242 4.52501C11.9687 4.52625 12.4131 4.52633 12.8576 4.52578C13.2849 4.52528 13.7122 4.52557 14.1396 4.52623C14.3215 4.5265 14.5035 4.5265 14.6855 4.52628C14.8997 4.52605 15.1139 4.52653 15.3281 4.52754C15.4068 4.5278 15.4855 4.52782 15.5642 4.52759C15.6715 4.52731 15.7787 4.52789 15.886 4.5287C15.9461 4.52882 16.0062 4.52893 16.0681 4.52905C16.2292 4.54811 16.295 4.57128 16.4062 4.6875C16.4568 4.86949 16.4715 4.97208 16.3975 5.14746C16.3054 5.2586 16.2585 5.29308 16.125 5.34375C15.9783 5.35568 15.9783 5.35568 15.8018 5.35597C15.7693 5.35615 15.7368 5.35633 15.7033 5.35651C15.5944 5.357 15.4856 5.35681 15.3767 5.35662C15.2986 5.35683 15.2205 5.35707 15.1424 5.35735C14.9303 5.35798 14.7182 5.35801 14.5061 5.35789C14.3291 5.35784 14.152 5.35807 13.9749 5.35829C13.5572 5.35881 13.1394 5.35883 12.7217 5.35855C12.2908 5.35826 11.8598 5.35884 11.4289 5.35984C11.0589 5.36067 10.6889 5.36095 10.3189 5.36079C10.098 5.36071 9.877 5.36083 9.65603 5.36148C9.44819 5.36207 9.24035 5.36198 9.03251 5.36137C8.95629 5.36126 8.88006 5.36139 8.80383 5.36178C8.69965 5.36227 8.59551 5.36189 8.49133 5.36129C8.40394 5.3613 8.40394 5.3613 8.31478 5.36132C8.13899 5.34184 8.02523 5.29511 7.87499 5.20313C7.80165 5.05643 7.79545 4.89324 7.82812 4.73438C7.98139 4.53123 8.10064 4.52342 8.34833 4.52338Z" fill="#D62828"/>
</svg>
