<svg width="32" height="32" viewBox="0 0 32 32" fill="none" xmlns="http://www.w3.org/2000/svg">
<g clip-path="url(#clip0_209_349)">
<path d="M14.625 0C14.8245 0.0164005 14.8778 0.0656743 15.0142 0.217773C15.0648 0.285335 15.1147 0.353407 15.1641 0.421875C15.2199 0.496837 15.2757 0.571788 15.3315 0.646729C15.3597 0.685008 15.3879 0.723287 15.4169 0.762726C15.5413 0.930821 15.6691 1.0962 15.7969 1.26172C15.822 1.29437 15.8471 1.32702 15.873 1.36066C16.1016 1.658 16.332 1.95402 16.5625 2.25C16.9676 2.77035 17.37 3.29271 17.7715 3.81592C18.0755 4.21168 18.3809 4.60624 18.6875 5C19.0926 5.52035 19.495 6.04271 19.8965 6.56592C20.2005 6.96168 20.5059 7.35624 20.8125 7.75C21.2176 8.27035 21.62 8.79271 22.0215 9.31592C22.3255 9.71168 22.6309 10.1062 22.9375 10.5C23.2432 10.8926 23.5481 11.2858 23.8506 11.6809C23.9572 11.8195 24.0646 11.9572 24.1729 12.0945C24.2014 12.131 24.23 12.1674 24.2595 12.205C24.3388 12.3061 24.4184 12.407 24.498 12.5078C24.625 12.6875 24.625 12.6875 24.75 13C23.4506 13 22.1513 13 20.8125 13C20.8125 15.1038 20.8125 17.2075 20.8125 19.375C21.1012 19.2512 21.39 19.1275 21.6875 19C23.4592 18.3926 25.3374 18.5667 27.013 19.3809C28.5074 20.1361 29.6675 21.5102 30.2366 23.0754C30.2616 23.1537 30.2867 23.2319 30.3125 23.3125C30.3255 23.3527 30.3384 23.3928 30.3518 23.4342C30.7072 24.5866 30.7126 25.9689 30.375 27.125C30.3583 27.1868 30.3416 27.2486 30.3245 27.3123C29.804 29.0542 28.5728 30.4441 26.9964 31.3112C26.6554 31.4904 26.3036 31.6314 25.9375 31.75C25.8974 31.7631 25.8573 31.7763 25.816 31.7898C24.177 32.2998 22.3334 32.073 20.8125 31.3125C20.8125 31.5394 20.8125 31.7663 20.8125 32C15.4088 32 10.005 32 4.4375 32C4.4375 28.8856 4.4375 25.7712 4.4375 22.5625C3.4475 22.5625 2.4575 22.5625 1.4375 22.5625C1.55047 22.2801 1.67532 22.0894 1.86328 21.8594C1.92577 21.7814 1.98818 21.7033 2.05054 21.6252C2.08324 21.5844 2.11594 21.5436 2.14963 21.5015C2.31876 21.2883 2.48356 21.0719 2.64844 20.8555C2.68238 20.811 2.71632 20.7665 2.7513 20.7206C2.82052 20.6299 2.88973 20.5391 2.95892 20.4483C3.12862 20.2258 3.2987 20.0035 3.46875 19.7812C3.53646 19.6927 3.60417 19.6042 3.67188 19.5156C5.70312 16.8594 5.70312 16.8594 5.80479 16.7264C5.87215 16.6383 5.9395 16.5503 6.00685 16.4622C6.1815 16.2338 6.3562 16.0054 6.53101 15.7771C6.56702 15.73 6.60303 15.683 6.64014 15.6345C6.70823 15.5456 6.77635 15.4566 6.84448 15.3677C7.55374 14.4409 7.50293 14.4296 7.5625 13C6.28375 13 5.005 13 3.6875 13C3.78223 12.8105 3.84446 12.7004 3.97827 12.5491C4.01099 12.5118 4.0437 12.4745 4.07741 12.436C4.12997 12.3768 4.12997 12.3768 4.18359 12.3164C4.25769 12.232 4.33175 12.1475 4.40576 12.063C4.46132 11.9997 4.46132 11.9997 4.51801 11.9351C4.67153 11.7592 4.82231 11.581 4.97266 11.4023C5.21191 11.1184 5.45307 10.8361 5.69531 10.5547C5.91364 10.3009 6.12903 10.0453 6.33984 9.78516C6.66199 9.38858 6.99835 9.00468 7.33377 8.61935C7.7163 8.1792 8.09752 7.73812 8.46484 7.28516C8.72124 6.96942 8.98669 6.66231 9.25375 6.35562C9.50294 6.06931 9.74926 5.78079 9.99384 5.49054C10.2053 5.23976 10.4188 4.99081 10.6328 4.74219C10.8511 4.48836 11.0665 4.2328 11.2773 3.97266C11.5995 3.57608 11.9359 3.19218 12.2713 2.80685C12.7001 2.31345 13.1235 1.81665 13.5352 1.30884C13.7615 1.03576 13.9948 0.768891 14.2287 0.502335C14.2621 0.464181 14.2955 0.426028 14.3298 0.386719C14.3745 0.335841 14.3745 0.335841 14.4202 0.283936C14.5124 0.175934 14.5124 0.175934 14.625 0ZM14.625 3.0625C14.2671 3.44877 13.9228 3.84007 13.5918 4.24976C13.4125 4.46795 13.2283 4.68149 13.043 4.89453C13.0085 4.93413 12.9741 4.97373 12.9386 5.01453C12.8686 5.09491 12.7987 5.17528 12.7287 5.25565C12.3462 5.6958 11.965 6.13688 11.5977 6.58984C11.2755 6.98642 10.9391 7.37032 10.6037 7.75565C10.2212 8.1958 9.83998 8.63688 9.47266 9.08984C9.24661 9.3685 9.01321 9.63984 8.77734 9.91016C8.21924 10.45 8.21924 10.45 7.875 11.0625C8.41125 11.0625 8.9475 11.0625 9.5 11.0625C9.49057 11.2976 9.48115 11.5327 9.47144 11.7749C9.46507 12.0064 9.46015 12.2378 9.45537 12.4694C9.45132 12.6284 9.4458 12.7875 9.43871 12.9465C9.39562 13.9375 9.42654 14.6301 10.1026 15.3926C10.1378 15.4306 10.1729 15.4686 10.2091 15.5077C10.3795 15.701 10.5184 15.9144 10.6602 16.1289C10.7162 16.2112 10.7723 16.2934 10.8286 16.3755C10.8706 16.4368 10.8706 16.4368 10.9134 16.4993C11.1572 16.8532 11.4068 17.203 11.6552 17.5537C11.8121 17.7752 11.9685 17.997 12.125 18.2188C12.311 18.4822 12.4969 18.7457 12.6831 19.009C13.0561 19.5368 13.4276 20.0657 13.7979 20.5954C14.0742 20.9905 14.3519 21.3846 14.6309 21.7778C14.6736 21.8383 14.6736 21.8383 14.7173 21.8999C14.7418 21.9345 14.7664 21.9691 14.7917 22.0047C14.905 22.1683 15.0146 22.3344 15.125 22.5C13.64 22.5309 13.64 22.5309 12.125 22.5625C12.125 25.0375 12.125 27.5125 12.125 30.0625C14.3525 30.0625 16.58 30.0625 18.875 30.0625C18.875 29.7111 18.8428 29.6778 18.6289 29.4219C17.7785 28.3443 17.3455 27.0491 17.25 25.6875C17.2456 25.6319 17.2411 25.5763 17.2366 25.519C17.1855 24.2154 17.559 22.5364 18.4481 21.5348C18.8854 21.0274 18.9542 20.6079 18.9389 19.9459C18.9387 19.8485 18.9388 19.7511 18.9391 19.6537C18.9393 19.3915 18.936 19.1295 18.932 18.8674C18.9285 18.5926 18.9282 18.3179 18.9275 18.0431C18.9258 17.5238 18.9212 17.0046 18.9155 16.4853C18.9092 15.8937 18.9061 15.3021 18.9033 14.7105C18.8974 13.4945 18.8871 12.2785 18.875 11.0625C19.535 11.0625 20.195 11.0625 20.875 11.0625C20.7512 10.8975 20.6275 10.7325 20.5 10.5625C20.4417 10.4844 20.3835 10.4062 20.3235 10.3257C19.97 9.85173 19.6115 9.38255 19.2449 8.9187C18.7332 8.27116 18.2291 7.61754 17.7266 6.96289C17.5271 6.7036 17.326 6.44561 17.125 6.1875C16.7435 5.69758 16.3642 5.20612 15.9865 4.71332C15.8039 4.47519 15.6209 4.23745 15.4375 4C15.407 3.96047 15.3766 3.92094 15.3452 3.88022C15.2512 3.75848 15.1569 3.63702 15.0625 3.51562C15.0332 3.47756 15.0039 3.4395 14.9736 3.40028C14.8251 3.20193 14.8251 3.20193 14.625 3.0625ZM8.5 16.4375C8.07538 16.9075 7.69819 17.4169 7.3208 17.9248C7.12374 18.1899 6.92359 18.4526 6.72266 18.7148C6.68937 18.7583 6.65608 18.8018 6.62178 18.8467C6.444 19.0789 6.26576 19.3107 6.08716 19.5422C6.03192 19.614 6.03192 19.614 5.97557 19.6873C5.9052 19.7787 5.83471 19.8701 5.76405 19.9613C5.73218 20.0027 5.70032 20.0442 5.66748 20.0869C5.63959 20.123 5.61171 20.1591 5.58298 20.1964C5.48477 20.3338 5.39942 20.4801 5.3125 20.625C5.66313 20.625 6.01375 20.625 6.375 20.625C6.375 23.7394 6.375 26.8538 6.375 30.0625C7.65375 30.0625 8.9325 30.0625 10.25 30.0625C10.25 26.9481 10.25 23.8337 10.25 20.625C10.6419 20.625 11.0337 20.625 11.4375 20.625C11.2354 20.2277 10.9933 19.874 10.7276 19.5175C10.4802 19.1851 10.2408 18.8478 10.0039 18.5078C9.96726 18.4552 9.93062 18.4027 9.89287 18.3485C9.81915 18.2428 9.74543 18.137 9.67172 18.0312C9.468 17.7398 9.26241 17.4497 9.05666 17.1597C8.92475 16.9734 8.7949 16.7866 8.67041 16.5952C8.6348 16.5432 8.59919 16.4911 8.5625 16.4375C8.54187 16.4375 8.52125 16.4375 8.5 16.4375ZM20.1133 22.418C19.5502 23.1539 19.1858 24.0727 19.125 25C19.1218 25.0487 19.1186 25.0975 19.1152 25.1477C19.0759 26.2547 19.4241 27.3904 20.125 28.25C20.1667 28.3019 20.2085 28.3538 20.2515 28.4072C21.0712 29.372 22.1529 29.9282 23.3984 30.1094C24.3061 30.172 25.1836 30.0383 26 29.625C26.0615 29.5942 26.1229 29.5634 26.1863 29.5317C27.3242 28.9164 28.0923 27.9119 28.4998 26.688C28.8522 25.4166 28.6714 24.183 28.0781 23.0195C27.4641 21.9516 26.4453 21.0922 25.25 20.75C23.2622 20.2853 21.4535 20.8428 20.1133 22.418Z" fill="#D62828"/>
<path d="M25.8125 23C26.0479 23.199 26.2806 23.3976 26.4978 23.6167C26.5387 23.6578 26.5796 23.6989 26.6217 23.7412C26.6627 23.7828 26.7038 23.8244 26.7461 23.8672C26.7888 23.9102 26.8316 23.9532 26.8756 23.9976C26.9797 24.1024 27.0837 24.2074 27.1875 24.3125C27.0847 24.576 26.8898 24.7519 26.6926 24.9466C26.6359 25.0033 26.6359 25.0033 26.578 25.0612C26.4532 25.186 26.3279 25.3103 26.2026 25.4346C26.1159 25.5211 26.0292 25.6076 25.9425 25.6941C25.7145 25.9217 25.4861 26.1489 25.2576 26.376C25.0245 26.6078 24.7917 26.8401 24.5588 27.0723C24.1021 27.5277 23.6449 27.9827 23.1875 28.4375C22.9876 28.3491 22.8513 28.2429 22.6958 28.09C22.6494 28.0445 22.6029 27.999 22.555 27.9522C22.5055 27.903 22.456 27.8539 22.405 27.8032C22.3283 27.7274 22.3283 27.7274 22.2501 27.65C22.1423 27.5431 22.0347 27.436 21.9272 27.3288C21.762 27.1644 21.5957 27.0011 21.4293 26.8379C21.3248 26.734 21.2203 26.63 21.116 26.5259C21.0408 26.4525 21.0408 26.4525 20.9641 26.3777C20.8958 26.3089 20.8958 26.3089 20.8262 26.2387C20.7857 26.1985 20.7453 26.1584 20.7036 26.117C20.625 26 20.625 26 20.6367 25.8687C20.762 25.576 21.0475 25.3581 21.2695 25.1367C21.3238 25.0807 21.378 25.0247 21.434 24.9669C21.5127 24.8879 21.5127 24.8879 21.593 24.8074C21.6411 24.7589 21.6891 24.7104 21.7386 24.6604C21.875 24.5625 21.875 24.5625 22.0024 24.5644C22.154 24.6394 22.2499 24.7288 22.3682 24.8499C22.4125 24.8948 22.4568 24.9397 22.5024 24.986C22.548 25.0331 22.5936 25.0803 22.6406 25.1289C22.7105 25.2 22.7105 25.2 22.7817 25.2726C22.8966 25.3896 23.011 25.5071 23.125 25.625C23.4671 25.3399 23.7837 25.037 24.0974 24.7212C24.1467 24.6718 24.1961 24.6224 24.2469 24.5715C24.403 24.415 24.5589 24.2583 24.7148 24.1016C24.8212 23.9949 24.9276 23.8882 25.0341 23.7815C25.2937 23.5212 25.5532 23.2607 25.8125 23Z" fill="#D62828"/>
</g>
<defs>
<clipPath id="clip0_209_349">
<rect width="32" height="32" fill="white"/>
</clipPath>
</defs>
</svg>
