<svg width="34" height="34" viewBox="0 0 34 34" fill="none" xmlns="http://www.w3.org/2000/svg">
<g clip-path="url(#clip0_225_450)">
<path d="M2.74892 2.2489C2.79879 2.24875 2.84866 2.24859 2.90004 2.24843C3.06809 2.24799 3.23613 2.24802 3.40418 2.24804C3.5255 2.24783 3.64683 2.24758 3.76816 2.2473C4.10231 2.24664 4.43647 2.24639 4.77063 2.24622C5.13074 2.24596 5.49085 2.24532 5.85096 2.24474C6.72101 2.24343 7.59106 2.24276 8.46111 2.24217C8.87074 2.24188 9.28037 2.24152 9.69 2.24117C11.0515 2.24004 12.4131 2.23908 13.7746 2.2386C14.128 2.23847 14.4814 2.23835 14.8348 2.23822C14.8787 2.2382 14.9226 2.23818 14.9678 2.23817C16.3468 2.23766 17.7257 2.23622 19.1046 2.23413C20.6537 2.23178 22.2029 2.23035 23.752 2.23012C24.5722 2.22998 25.3925 2.2294 26.2127 2.2277C26.9112 2.22626 27.6097 2.22573 28.3082 2.22637C28.6646 2.22668 29.021 2.22655 29.3773 2.22526C29.7038 2.22409 30.0302 2.22415 30.3566 2.22519C30.4745 2.22534 30.5924 2.22506 30.7103 2.22427C31.6818 2.21818 32.4906 2.36586 33.2161 3.0617C33.6813 3.56041 34.0161 4.13601 34.0171 4.8343C34.0175 4.91005 34.0179 4.98581 34.0184 5.06386C34.0182 5.14643 34.018 5.229 34.0178 5.31408C34.018 5.4032 34.0183 5.49232 34.0187 5.58144C34.0195 5.82595 34.0195 6.07047 34.0193 6.31498C34.0193 6.57885 34.02 6.84272 34.0206 7.10659C34.0217 7.62346 34.0221 8.14032 34.0222 8.65719C34.0222 9.07744 34.0225 9.49768 34.0229 9.91793C34.0241 11.1098 34.0247 12.3018 34.0246 13.4937C34.0246 13.59 34.0246 13.59 34.0246 13.6884C34.0246 13.7527 34.0246 13.817 34.0246 13.8833C34.0245 14.9254 34.0258 15.9675 34.0277 17.0096C34.0296 18.0801 34.0305 19.1505 34.0304 20.221C34.0303 20.8218 34.0307 21.4226 34.0321 22.0234C34.0334 22.535 34.0336 23.0466 34.0327 23.5583C34.0323 23.8192 34.0323 24.08 34.0334 24.3409C34.0345 24.5801 34.0343 24.8193 34.0331 25.0585C34.0328 25.1852 34.0338 25.3119 34.0349 25.4386C34.0283 26.2719 33.7672 26.9516 33.2055 27.5692C32.7338 28.0255 32.0784 28.3644 31.4094 28.3635C31.3571 28.3636 31.3047 28.3636 31.2508 28.3637C31.1656 28.3634 31.1656 28.3634 31.0787 28.363C31.0184 28.363 30.9582 28.363 30.8961 28.363C30.697 28.363 30.4979 28.3625 30.2989 28.362C30.1608 28.3618 30.0227 28.3617 29.8846 28.3617C29.5213 28.3614 29.158 28.3608 28.7947 28.36C28.4239 28.3594 28.0531 28.3591 27.6823 28.3587C26.9549 28.358 26.2274 28.3569 25.5 28.3555C25.5006 28.394 25.5012 28.4325 25.5018 28.4722C25.5077 28.8729 25.5117 29.2736 25.5146 29.6744C25.5159 29.8239 25.5177 29.9735 25.52 30.1231C25.5233 30.338 25.5248 30.5529 25.5259 30.7679C25.5273 30.8348 25.5287 30.9017 25.5301 30.9706C25.5302 31.4214 25.5302 31.4214 25.4029 31.6537C25.1438 31.7898 24.9221 31.8076 24.6367 31.7422C24.4467 31.6289 24.3068 31.4825 24.1571 31.3209C24.1152 31.2782 24.0733 31.2354 24.0301 31.1914C23.8974 31.0554 23.767 30.9174 23.6365 30.7793C23.5466 30.6864 23.4565 30.5936 23.3663 30.501C23.1462 30.2743 22.9281 30.0459 22.7109 29.8164C22.4237 30.0572 22.1493 30.304 21.8858 30.571C21.8543 30.6027 21.8229 30.6344 21.7905 30.6671C21.6918 30.7666 21.5933 30.8663 21.4949 30.9661C21.3639 31.0988 21.2327 31.2313 21.1014 31.3637C21.0438 31.422 20.9863 31.4804 20.927 31.5405C20.7086 31.7489 20.5543 31.7644 20.2521 31.7616C20.1211 31.7422 20.1211 31.7422 19.9592 31.6177C19.809 31.4134 19.7808 31.3042 19.7815 31.0544C19.7815 30.9945 19.7815 30.9347 19.7815 30.8731C19.7819 30.8084 19.7822 30.7437 19.7826 30.6771C19.7827 30.5779 19.7827 30.5779 19.7829 30.4767C19.7832 30.2649 19.7841 30.0531 19.7849 29.8413C19.7852 29.698 19.7855 29.5546 19.7858 29.4112C19.7866 29.0593 19.7877 28.7074 19.7891 28.3555C19.7524 28.3556 19.7158 28.3557 19.678 28.3558C17.5037 28.3617 15.3293 28.3663 13.155 28.369C12.8937 28.3694 12.6324 28.3697 12.371 28.3701C12.319 28.3701 12.267 28.3702 12.2134 28.3703C11.3721 28.3714 10.5307 28.3735 9.6894 28.376C8.82554 28.3785 7.96168 28.3799 7.09781 28.3805C6.56514 28.3808 6.03249 28.382 5.49982 28.3841C5.09076 28.3857 4.6817 28.3859 4.27263 28.3855C4.10527 28.3856 3.93791 28.3861 3.77056 28.3871C3.54138 28.3885 3.31226 28.3881 3.08308 28.3874C3.01744 28.3882 2.95181 28.389 2.88419 28.3898C2.08127 28.383 1.37441 28.1039 0.786497 27.5586C0.300281 27.0506 -0.00762751 26.4368 -0.00891572 25.7289C-0.00921175 25.6534 -0.00950773 25.5779 -0.00981273 25.5002C-0.00980048 25.4172 -0.0097881 25.3343 -0.00977549 25.2488C-0.00999463 25.1598 -0.0102421 25.0708 -0.0105154 24.9818C-0.0111804 24.7369 -0.0114275 24.4921 -0.0116037 24.2473C-0.011863 23.9834 -0.0124991 23.7194 -0.0130788 23.4554C-0.0143909 22.8178 -0.0150599 22.1802 -0.0156507 21.5426C-0.0159419 21.2422 -0.0162982 20.9419 -0.016646 20.6416C-0.0177757 19.643 -0.018738 18.6444 -0.019219 17.6459C-0.0193458 17.3868 -0.0194734 17.1277 -0.0196033 16.8685C-0.0196354 16.8041 -0.0196677 16.7397 -0.0197008 16.6734C-0.0202519 15.6304 -0.021934 14.5874 -0.0240911 13.5445C-0.0262882 12.4734 -0.0274835 11.4024 -0.0276956 10.3313C-0.0278393 9.73004 -0.028419 9.12879 -0.0301168 8.52754C-0.0315596 8.01542 -0.0320921 7.50331 -0.031447 6.9912C-0.0311456 6.73005 -0.0312689 6.46892 -0.0325601 6.20778C-0.0337337 5.96833 -0.0336624 5.72892 -0.0326333 5.48947C-0.0324018 5.3626 -0.0334713 5.23574 -0.0345993 5.10888C-0.028049 4.22719 0.251042 3.6249 0.852903 2.99244C1.38729 2.48433 2.02129 2.24736 2.74892 2.2489ZM1.56469 4.01343C1.52232 4.06265 1.47995 4.11188 1.43629 4.16259C1.24019 4.44146 1.17873 4.68052 1.17804 5.01931C1.17757 5.09359 1.1771 5.16786 1.17662 5.24438C1.17678 5.32565 1.17694 5.40691 1.1771 5.49063C1.17676 5.57722 1.17641 5.66382 1.17605 5.75303C1.17511 5.99328 1.175 6.23353 1.17503 6.47378C1.17492 6.73295 1.17405 6.99211 1.17329 7.25127C1.17177 7.81792 1.17125 8.38458 1.17091 8.95123C1.17069 9.30514 1.17026 9.65905 1.16978 10.013C1.16848 10.9931 1.16739 11.9732 1.1672 12.9533C1.16719 13.016 1.16717 13.0787 1.16716 13.1433C1.16714 13.2705 1.16711 13.3976 1.16709 13.5247C1.16708 13.5879 1.16706 13.651 1.16705 13.716C1.16704 13.7792 1.16703 13.8424 1.16702 13.9075C1.16678 14.9312 1.16499 15.9549 1.1625 16.9785C1.15997 18.0299 1.15869 19.0812 1.15867 20.1325C1.15863 20.7227 1.15807 21.3128 1.15614 21.903C1.15452 22.4055 1.15403 22.9081 1.15503 23.4107C1.15551 23.667 1.15545 23.9232 1.15394 24.1795C1.15232 24.4577 1.15328 24.7359 1.15449 25.0141C1.15361 25.0946 1.15273 25.1751 1.15183 25.2581C1.15732 25.8127 1.26173 26.2685 1.64197 26.6894C2.10304 27.1331 2.63175 27.1895 3.24279 27.1841C3.31375 27.1843 3.38471 27.1845 3.45782 27.1846C3.69478 27.185 3.93172 27.1839 4.16868 27.1828C4.33886 27.1827 4.50904 27.1828 4.67922 27.1829C5.04519 27.1829 5.41116 27.1823 5.77713 27.1812C6.30625 27.1796 6.83537 27.1791 7.3645 27.1788C8.22306 27.1784 9.08162 27.1771 9.94018 27.1752C10.774 27.1734 11.6078 27.1719 12.4416 27.1711C12.5187 27.171 12.5187 27.171 12.5974 27.1709C12.8555 27.1707 13.1135 27.1704 13.3715 27.1702C15.5107 27.1681 17.6499 27.1646 19.7891 27.1602C19.7937 25.9312 19.7972 24.7022 19.7994 23.4733C19.8004 22.9026 19.8018 22.332 19.8041 21.7613C19.8061 21.2638 19.8074 20.7663 19.8078 20.2688C19.8081 20.0055 19.8087 19.7422 19.8101 19.4789C19.8115 19.2308 19.8119 18.9827 19.8116 18.7346C19.8117 18.6006 19.8127 18.4667 19.8138 18.3328C19.8123 17.8821 19.7797 17.5427 19.5898 17.1328C19.572 17.0698 19.5542 17.0068 19.5359 16.9419C19.4664 16.7838 19.4664 16.7838 19.2827 16.7261C19.1718 16.6973 19.1718 16.6973 19.0586 16.668C18.3068 16.4048 18.3068 16.4048 18.1912 16.228C18.1706 16.176 18.1501 16.1239 18.1289 16.0703C18.1117 16.0318 18.0945 15.9933 18.0768 15.9536C17.9077 15.5527 17.8802 15.2221 17.9795 14.792C18.0169 14.6063 18.0169 14.6063 17.8965 14.4766C17.8031 14.4019 17.7097 14.3273 17.6161 14.253C17.5758 14.2199 17.5354 14.1869 17.4939 14.1528C17.4362 14.1079 17.4362 14.1079 17.3774 14.062C17.034 13.7034 17.0294 13.3153 17.0374 12.8442C17.0727 12.5678 17.1598 12.4116 17.3235 12.192C17.411 12.0828 17.411 12.0828 17.4358 11.9116C17.3834 11.6905 17.2643 11.5388 17.1328 11.3555C16.9914 10.9312 16.987 10.3992 17.1785 9.99C17.3067 9.77467 17.4562 9.63807 17.6641 9.4961C17.7257 9.44679 17.7873 9.39749 17.8508 9.34669C17.8988 9.30834 17.9467 9.26999 17.9961 9.23047C17.9851 9.17706 17.9742 9.12364 17.9629 9.06861C17.8876 8.53183 17.8972 8.10765 18.1953 7.63672C18.4678 7.33729 18.7705 7.17771 19.1665 7.12208C19.3229 7.09296 19.3229 7.09296 19.457 7.03907C19.56 6.86335 19.56 6.86335 19.5898 6.64063C19.7261 6.18748 19.8971 5.85857 20.3037 5.59058C20.6888 5.44987 21.0338 5.4262 21.4368 5.49512C21.5823 5.51894 21.5823 5.51894 21.7148 5.51172C21.878 5.37562 21.878 5.37562 21.9805 5.17969C22.195 4.86553 22.4146 4.69215 22.7773 4.58204C23.2888 4.51398 23.6706 4.57447 24.1055 4.84766C24.2632 4.96068 24.2632 4.96068 24.4375 4.98047C24.5838 4.90934 24.7122 4.82638 24.8448 4.73223C25.1618 4.51797 25.5318 4.54906 25.8984 4.58204C26.3162 4.67495 26.5091 4.8492 26.7451 5.20044C26.8673 5.38144 26.8673 5.38144 27.0273 5.51172C27.2573 5.53569 27.4511 5.50818 27.679 5.47152C28.0755 5.42244 28.3987 5.56112 28.7124 5.7981C28.9823 6.07446 29.0775 6.31073 29.1274 6.68629C29.1523 6.84103 29.1523 6.84103 29.2187 6.97266C29.3615 7.05796 29.4924 7.09296 29.6538 7.13219C30.0598 7.23126 30.3914 7.40796 30.6133 7.76954C30.8143 8.18197 30.8844 8.54579 30.7378 8.9939C30.7187 9.23412 30.7187 9.23412 30.8802 9.35914C31.0005 9.4493 31.1212 9.53886 31.2423 9.62787C31.4834 9.82015 31.6051 9.99272 31.6758 10.293C31.7369 10.8788 31.6813 11.2604 31.3437 11.7456C31.2553 11.9434 31.2553 11.9434 31.3365 12.0893C31.3957 12.1824 31.458 12.2737 31.5233 12.3627C31.7529 12.6872 31.7099 13.1015 31.6758 13.4805C31.5616 13.8797 31.3405 14.104 31.0117 14.3438C30.9632 14.3705 30.9146 14.3973 30.8646 14.4249C30.7229 14.5388 30.7229 14.5388 30.7417 14.7448C30.7527 14.8234 30.7638 14.902 30.7751 14.9829C30.822 15.4664 30.8179 15.8146 30.5072 16.2029C30.2036 16.5027 29.9168 16.5919 29.508 16.6867C29.3393 16.724 29.3393 16.724 29.2187 16.8755C29.1968 16.9385 29.1749 17.0015 29.1523 17.0664C29.1361 17.1065 29.1199 17.1466 29.1032 17.1879C28.9411 17.6151 28.925 18.0046 28.9276 18.4582C28.9272 18.5354 28.9269 18.6127 28.9265 18.6923C28.9258 18.8592 28.9256 19.026 28.9258 19.1929C28.9261 19.4569 28.9252 19.7209 28.924 19.985C28.9212 20.5926 28.9205 21.2003 28.9197 21.808C28.919 22.366 28.9179 22.924 28.9152 23.482C28.9138 23.7865 28.9139 24.091 28.9143 24.3956C28.9137 24.5547 28.913 24.7139 28.9123 24.8731C28.9129 24.9817 28.9129 24.9817 28.9135 25.0924C28.9085 25.7099 28.9085 25.7099 28.6875 25.9648C28.471 26.0731 28.3304 26.0623 28.0898 26.0313C27.6077 25.7018 27.2057 25.2212 26.7949 24.8069C26.727 24.7386 26.659 24.6703 26.591 24.6021C26.4264 24.4367 26.262 24.2712 26.0977 24.1055C26.0229 24.169 25.9482 24.2327 25.8735 24.2964C25.8319 24.3318 25.7903 24.3673 25.7475 24.4038C25.6621 24.4783 25.5801 24.5566 25.5 24.6367C25.4884 24.8272 25.4846 25.0112 25.487 25.2017C25.4872 25.2575 25.4874 25.3133 25.4876 25.3709C25.4883 25.5495 25.49 25.7281 25.4917 25.9067C25.4924 26.0277 25.493 26.1487 25.4935 26.2696C25.495 26.5665 25.4973 26.8633 25.5 27.1602C26.2678 27.1663 27.0355 27.171 27.8033 27.1739C28.1599 27.1753 28.5164 27.1772 28.873 27.1802C29.2175 27.1831 29.5619 27.1847 29.9064 27.1854C30.0374 27.1859 30.1685 27.1868 30.2995 27.1882C31.3626 27.2177 31.3626 27.2177 32.3002 26.7687C32.3506 26.7057 32.3506 26.7057 32.4021 26.6414C32.4369 26.5998 32.4718 26.5583 32.5077 26.5156C32.8237 26.0235 32.8333 25.6151 32.8304 25.0394C32.8308 24.9526 32.8311 24.8658 32.8315 24.7764C32.8325 24.5361 32.8322 24.296 32.8317 24.0557C32.8314 23.7964 32.8322 23.5371 32.8329 23.2777C32.834 22.7699 32.8341 22.2622 32.8337 21.7544C32.8335 21.3416 32.8336 20.9289 32.8339 20.5162C32.834 20.4574 32.834 20.3986 32.8341 20.3381C32.8342 20.2187 32.8343 20.0993 32.8344 19.98C32.8353 18.8607 32.8349 17.7415 32.8342 16.6222C32.8335 15.5984 32.8344 14.5747 32.836 13.5509C32.8376 12.4994 32.8382 11.448 32.8378 10.3965C32.8375 9.80625 32.8377 9.21604 32.8389 8.62582C32.8398 8.1234 32.8399 7.62098 32.8387 7.11856C32.8382 6.86228 32.838 6.60602 32.839 6.34974C32.8401 6.07179 32.8391 5.79388 32.838 5.51593C32.8386 5.43511 32.8392 5.3543 32.8399 5.27103C32.8352 4.73042 32.761 4.37145 32.3964 3.95377C32.3476 3.91183 32.2988 3.86988 32.2485 3.82667C32.2001 3.78369 32.1516 3.74072 32.1017 3.69645C31.7693 3.46728 31.4356 3.43368 31.0414 3.43605C30.992 3.43581 30.9426 3.43558 30.8917 3.43534C30.7261 3.43472 30.5605 3.43505 30.3949 3.43537C30.275 3.43512 30.1551 3.43482 30.0352 3.43446C29.7056 3.43365 29.376 3.43367 29.0465 3.43382C28.6911 3.43385 28.3357 3.43312 27.9803 3.43249C27.284 3.43138 26.5876 3.43102 25.8913 3.43094C25.3254 3.43088 24.7594 3.43061 24.1935 3.43019C22.5893 3.42902 20.9852 3.4284 19.381 3.4285C19.2945 3.42851 19.208 3.42851 19.1189 3.42852C19.0323 3.42853 18.9457 3.42853 18.8565 3.42854C17.4527 3.42859 16.0489 3.42732 14.6452 3.42545C13.2041 3.42354 11.7631 3.42262 10.3221 3.42274C9.51297 3.42278 8.7038 3.42241 7.89464 3.42099C7.20574 3.41978 6.51685 3.41949 5.82795 3.42039C5.47644 3.42082 5.12495 3.42083 4.77345 3.41968C4.4516 3.41864 4.12978 3.41882 3.80794 3.41998C3.69157 3.42019 3.5752 3.41994 3.45884 3.4192C2.39929 3.41269 2.39929 3.41269 1.56469 4.01343ZM23.043 5.71094C22.9228 5.83325 22.9228 5.83325 22.8188 5.99317C22.5693 6.33306 22.3406 6.55797 21.9141 6.64063C21.8035 6.64665 21.6927 6.64927 21.582 6.64893C21.4978 6.64919 21.4978 6.64919 21.4119 6.64945C21.25 6.64063 21.25 6.64063 21.1053 6.60094C21.0654 6.59213 21.0255 6.58331 20.9844 6.57422C20.7274 6.74804 20.6857 6.93848 20.6223 7.23232C20.5411 7.54253 20.3928 7.7723 20.1501 7.98536C19.8886 8.11851 19.6351 8.18739 19.3502 8.25358C19.1809 8.29019 19.1809 8.29019 19.0586 8.4336C19.065 8.63914 19.065 8.63914 19.0959 8.87354C19.1407 9.40133 19.083 9.67363 18.7722 10.1104C18.5937 10.293 18.5937 10.293 18.3738 10.4299C18.1849 10.5388 18.1849 10.5388 18.1497 10.708C18.1963 10.8947 18.2489 10.9678 18.3613 11.1189C18.6109 11.4912 18.5874 11.9202 18.5273 12.3516C18.433 12.569 18.3267 12.7521 18.1953 12.9492C18.1943 13.118 18.1943 13.118 18.2617 13.2813C18.3895 13.3974 18.3895 13.3974 18.5481 13.4929C18.8911 13.7436 19.027 14.0004 19.125 14.4102C19.1468 14.6675 19.1259 14.8702 19.0793 15.124C19.035 15.3333 19.035 15.3333 19.139 15.4491C19.2781 15.5544 19.3727 15.575 19.5442 15.6013C19.9843 15.6885 20.2667 15.8993 20.5195 16.2695C20.6532 16.5444 20.7149 16.8367 20.7852 17.1328C21.0054 17.1967 21.173 17.1944 21.3953 17.1577C21.8249 17.1025 22.2013 17.2215 22.5657 17.4482C22.7216 17.6087 22.8425 17.7755 22.9626 17.9637C23.0449 18.0829 23.0449 18.0829 23.2422 18.1289C23.3759 18.0663 23.3759 18.0663 23.5078 17.9712C23.913 17.6965 24.2883 17.6847 24.7695 17.7305C24.964 17.7965 25.1272 17.888 25.3008 17.9961C25.3889 18.0411 25.4774 18.0856 25.5664 18.1289C25.7461 17.9543 25.9057 17.7876 26.0603 17.5894C26.3684 17.2436 26.6779 17.1707 27.1238 17.1362C27.3641 17.1314 27.5873 17.1597 27.8242 17.1992C28.0117 16.9947 28.0569 16.8034 28.1173 16.5367C28.2203 16.1812 28.4554 15.9421 28.7539 15.7383C28.9461 15.6472 29.123 15.5967 29.3308 15.5474C29.5518 15.4943 29.5518 15.4943 29.6504 15.3481C29.6898 15.1805 29.6631 15.1068 29.6172 14.9414C29.5786 14.4937 29.6614 14.14 29.8828 13.7461C30.0074 13.6062 30.1243 13.522 30.2812 13.4141C30.3333 13.3743 30.3853 13.3346 30.439 13.2937C30.4746 13.2677 30.5102 13.2417 30.5469 13.2148C30.5191 12.9924 30.4546 12.8275 30.3477 12.6338C30.1413 12.2309 30.0968 11.8689 30.2314 11.4343C30.3107 11.2235 30.412 11.0705 30.5469 10.8906C30.5749 10.7281 30.5749 10.7281 30.5469 10.5586C30.4415 10.4444 30.4415 10.4444 30.2978 10.3594C29.9352 10.1082 29.7185 9.86869 29.6172 9.42969C29.5985 9.1596 29.6011 8.9061 29.6587 8.64112C29.7038 8.48058 29.7038 8.48058 29.5508 8.30079C29.3379 8.22442 29.1227 8.16979 28.9041 8.1122C28.6284 8.01414 28.4377 7.88785 28.2696 7.64606C28.1598 7.41401 28.0761 7.19968 28.0234 6.94776C27.9818 6.70764 27.9818 6.70764 27.8325 6.60328C27.6692 6.56965 27.5862 6.6001 27.4258 6.64063C26.9719 6.68771 26.6039 6.65065 26.2305 6.37501C26.023 6.17218 25.8598 5.95187 25.6992 5.71094C25.4798 5.73754 25.3215 5.79736 25.1348 5.91016C24.7998 6.10941 24.494 6.13572 24.1055 6.10938C23.7952 6.02514 23.5648 5.90307 23.3086 5.71094C23.2209 5.71094 23.1333 5.71094 23.043 5.71094ZM20.9844 18.3945C20.9844 22.1199 20.9844 25.8453 20.9844 29.6836C21.3425 29.3829 21.3425 29.3829 21.6648 29.0597C21.6998 29.0224 21.7349 28.985 21.771 28.9465C21.842 28.8701 21.9122 28.793 21.9816 28.7151C22.1666 28.5207 22.3123 28.3972 22.5805 28.3464C23.109 28.3646 23.4136 28.7771 23.761 29.1357C23.8498 29.2269 23.9388 29.3178 24.0279 29.4086C24.0668 29.4487 24.1056 29.4887 24.1456 29.53C24.2251 29.6248 24.2251 29.6248 24.3047 29.6172C24.3047 28.39 24.3047 27.1628 24.3047 25.8984C24.1732 25.9642 24.1732 25.9642 24.0391 26.0313C23.7935 26.0532 23.6345 26.0646 23.4165 25.9441C23.1753 25.6936 23.2307 25.3565 23.2285 25.0311C23.2279 24.9695 23.2272 24.908 23.2266 24.8445C23.2245 24.6408 23.2228 24.4371 23.2212 24.2334C23.2198 24.0922 23.2184 23.951 23.217 23.8099C23.2133 23.4382 23.21 23.0664 23.2068 22.6947C23.2035 22.3155 23.1998 21.9362 23.1961 21.557C23.189 20.8127 23.1823 20.0685 23.1758 19.3242C23.1299 19.3111 23.0839 19.298 23.0366 19.2845C22.9766 19.267 22.9165 19.2495 22.8546 19.2315C22.795 19.2142 22.7354 19.197 22.674 19.1793C22.4856 19.1163 22.3608 19.0376 22.217 18.9009C22.1744 18.8605 22.1318 18.8201 22.0879 18.7784C21.962 18.6399 21.8723 18.4911 21.7812 18.3281C21.5194 18.2219 21.5194 18.2219 20.9844 18.3945ZM27.0937 18.2617C26.896 18.3875 26.896 18.3875 26.7617 18.5938C26.453 18.9896 26.2111 19.1761 25.7117 19.2495C25.2515 19.2842 24.8576 19.1565 24.5039 18.8594C24.4601 18.8594 24.4162 18.8594 24.3711 18.8594C24.3711 20.5687 24.3711 22.278 24.3711 24.0391C24.7296 23.7358 24.7296 23.7358 25.0655 23.4152C25.1024 23.3778 25.1392 23.3405 25.1772 23.302C25.2139 23.2644 25.2505 23.2269 25.2883 23.1882C25.7408 22.7255 25.7408 22.7255 26.0395 22.6777C26.4144 22.7261 26.5684 22.9131 26.8281 23.1758C26.9025 23.2502 26.977 23.3245 27.0515 23.3989C27.17 23.5173 27.2883 23.6359 27.4056 23.7556C27.4997 23.8512 27.5954 23.9453 27.6914 24.0391C27.7133 24.0391 27.7352 24.0391 27.7578 24.0391C27.7578 22.1764 27.7578 20.3137 27.7578 18.3945C27.5387 18.3507 27.3195 18.3069 27.0937 18.2617Z" fill="#D62828"/>
<path d="M6.83211 6.75309C6.93895 6.75258 7.04578 6.75202 7.15262 6.75141C7.44155 6.74996 7.73048 6.74937 8.01941 6.74903C8.20002 6.74879 8.38063 6.74837 8.56124 6.7479C9.19155 6.74628 9.82185 6.74541 10.4522 6.74517C11.0395 6.74493 11.6268 6.74294 12.2141 6.74017C12.7189 6.73786 13.2236 6.73684 13.7284 6.73679C14.0297 6.73674 14.3309 6.73616 14.6322 6.73427C14.9153 6.73253 15.1983 6.73238 15.4814 6.73345C15.5852 6.73357 15.689 6.73312 15.7929 6.73206C15.9347 6.73071 16.0764 6.7314 16.2182 6.73261C16.2975 6.73248 16.3768 6.73234 16.4585 6.73221C16.729 6.78545 16.8283 6.89484 17 7.10546C17.0691 7.34964 17.0336 7.57438 16.9128 7.79858C16.693 8.00211 16.4604 7.97716 16.1757 7.97746C16.1106 7.97767 16.1106 7.97767 16.0442 7.97789C15.8985 7.97829 15.7527 7.97822 15.607 7.97816C15.5026 7.97837 15.3982 7.9786 15.2938 7.97886C15.0688 7.97939 14.8438 7.97973 14.6188 7.97994C14.2626 7.98034 13.9065 7.98144 13.5504 7.98269C13.4285 7.98311 13.3065 7.98353 13.1846 7.98395C13.1235 7.98416 13.0624 7.98437 12.9995 7.98459C12.1704 7.98738 11.3413 7.98957 10.5122 7.99039C9.95298 7.99095 9.39381 7.99244 8.83463 7.99499C8.53884 7.9963 8.24306 7.99713 7.94726 7.9968C7.66873 7.99649 7.39022 7.99741 7.11169 7.99926C7.00979 7.99971 6.90788 7.99972 6.80597 7.99924C6.25967 7.99692 5.79177 8.0118 5.3125 8.30078C5.25224 8.33639 5.19197 8.372 5.12988 8.40869C4.58066 8.98843 4.60136 9.65726 4.60758 10.4069C4.60735 10.5252 4.60698 10.6435 4.60647 10.7618C4.60553 11.0815 4.60665 11.4011 4.60821 11.7208C4.60955 12.0561 4.60916 12.3914 4.609 12.7267C4.60901 13.2895 4.61031 13.8523 4.61245 14.415C4.6149 15.065 4.61548 15.7149 4.61502 16.3649C4.6146 16.9912 4.61531 17.6176 4.61661 18.244C4.61715 18.5101 4.61733 18.7762 4.61723 19.0423C4.61717 19.3557 4.61812 19.6691 4.61983 19.9825C4.62031 20.0973 4.62045 20.2121 4.62022 20.3269C4.61997 20.484 4.62096 20.641 4.62225 20.7982C4.62189 20.8432 4.62154 20.8882 4.62118 20.9346C4.62778 21.404 4.77347 21.8488 5.11328 22.1797C5.56296 22.4726 5.89762 22.5863 6.4353 22.5868C6.48144 22.587 6.52757 22.5871 6.57511 22.5873C6.72968 22.5877 6.88424 22.5876 7.03881 22.5875C7.14963 22.5877 7.26046 22.588 7.37129 22.5882C7.60993 22.5888 7.84858 22.5891 8.08722 22.5893C8.46445 22.5897 8.84168 22.5908 9.21891 22.5921C9.34804 22.5925 9.47718 22.5929 9.60631 22.5933C9.70331 22.5936 9.70331 22.5936 9.80226 22.594C10.6805 22.5968 11.5587 22.5989 12.437 22.5998C13.0294 22.6003 13.6219 22.6018 14.2143 22.6044C14.5279 22.6057 14.8414 22.6065 15.155 22.6062C15.4497 22.6059 15.7445 22.6068 16.0393 22.6086C16.1475 22.6091 16.2558 22.6091 16.364 22.6086C16.5117 22.608 16.6593 22.6091 16.8069 22.6105C16.9309 22.6107 16.9309 22.6107 17.0574 22.611C17.304 22.6507 17.3799 22.7158 17.5313 22.9102C17.626 23.0996 17.6183 23.2312 17.5977 23.4414C17.4781 23.6207 17.3929 23.743 17.1992 23.8398C17.0523 23.8467 16.9051 23.8491 16.758 23.8496C16.6891 23.85 16.6891 23.85 16.6189 23.8504C16.4644 23.8511 16.3099 23.8513 16.1554 23.8516C16.045 23.852 15.9345 23.8524 15.824 23.8529C15.4602 23.8543 15.0964 23.855 14.7326 23.8557C14.6073 23.8559 14.4819 23.8562 14.3566 23.8565C13.7673 23.8577 13.1779 23.8587 12.5886 23.8592C11.9094 23.8599 11.2302 23.8616 10.5509 23.8643C10.0255 23.8663 9.50003 23.8673 8.97457 23.8675C8.66103 23.8677 8.3475 23.8683 8.03395 23.87C7.73836 23.8715 7.4428 23.8718 7.1472 23.8711C7.0393 23.8711 6.9314 23.8715 6.82351 23.8724C5.95441 23.8794 5.16707 23.7707 4.44922 23.2422C4.39307 23.2052 4.33691 23.1682 4.27905 23.1301C3.70524 22.5857 3.38794 21.8929 3.35636 21.1026C3.35112 20.8336 3.3518 20.5648 3.3534 20.2958C3.35315 20.1744 3.35279 20.053 3.35232 19.9316C3.3514 19.6041 3.35213 19.2766 3.35323 18.9491C3.35415 18.6053 3.35372 18.2615 3.35348 17.9177C3.35331 17.3406 3.3542 16.7635 3.35574 16.1865C3.35751 15.5204 3.35762 14.8544 3.35684 14.1884C3.35612 13.546 3.35654 12.9036 3.35748 12.2612C3.35786 11.9886 3.35785 11.7159 3.35754 11.4433C3.35722 11.122 3.3579 10.8007 3.35933 10.4795C3.3597 10.362 3.35973 10.2444 3.3594 10.1269C3.35692 9.12654 3.47759 8.33458 4.17581 7.56538C4.95191 6.84113 5.81846 6.75339 6.83211 6.75309Z" fill="#D62828"/>
<path d="M27.4572 8.47119C28.4107 9.38934 28.9192 10.5342 28.9697 11.8535C28.9526 13.0887 28.4954 14.2615 27.6416 15.1572C26.7099 16.0466 25.522 16.5095 24.2358 16.4918C23.118 16.4512 22.0803 16.0243 21.25 15.2734C21.2095 15.2382 21.169 15.2031 21.1273 15.1668C20.2758 14.379 19.8605 13.2476 19.7701 12.1139C19.7364 10.8044 20.2 9.60275 21.091 8.64629C22.8582 6.96319 25.6051 6.85848 27.4572 8.47119ZM21.7937 9.6787C21.262 10.3315 20.9331 11.1979 20.9657 12.0444C21.0715 13.0315 21.458 13.7955 22.1797 14.4765C22.9385 15.086 23.802 15.35 24.7695 15.2734C25.7111 15.1298 26.5083 14.6556 27.0963 13.9054C27.6196 13.1327 27.8437 12.274 27.7122 11.3472C27.5307 10.435 27.0843 9.70665 26.3355 9.14537C24.848 8.15519 23.0233 8.38735 21.7937 9.6787Z" fill="#D62828"/>
<path d="M8.89844 18.1289C9.16154 18.3106 9.2747 18.5401 9.41724 18.8179C9.60524 19.1755 9.81573 19.4396 10.1602 19.6563C10.3792 19.7247 10.3792 19.7247 10.5586 19.7227C10.5737 19.6405 10.5887 19.5583 10.6042 19.4736C10.6564 19.2711 10.6948 19.1873 10.8325 19.0213C11.0583 18.9083 11.1871 18.902 11.4317 18.9473C11.6296 19.0195 11.7068 19.152 11.8203 19.3242C12.1081 19.6892 12.4195 19.7621 12.8538 19.8638C12.9225 19.8807 12.9913 19.8976 13.0621 19.915C13.7024 20.063 14.3468 20.1331 15.0017 20.18C15.1141 20.1891 15.1141 20.1891 15.2288 20.1984C15.2952 20.2028 15.3615 20.2072 15.4299 20.2118C15.6478 20.2641 15.7321 20.3468 15.8711 20.5195C15.9198 20.723 15.9092 20.912 15.8711 21.1172C15.7251 21.3186 15.642 21.3706 15.4062 21.4492C14.1234 21.5053 12.738 21.2364 11.5443 20.7696C11.3645 20.702 11.3645 20.702 11.2284 20.7639C11.1721 20.8032 11.1721 20.8032 11.1147 20.8433C10.7618 21.0406 10.4222 21.0431 10.0273 20.9844C9.57605 20.8316 9.19878 20.552 8.83203 20.2539C8.80216 20.2917 8.77228 20.3294 8.7415 20.3683C8.28469 20.9167 7.66935 21.3819 6.97266 21.582C6.70334 21.582 6.56895 21.5591 6.3501 21.4036C6.21471 21.2109 6.18059 21.087 6.17578 20.8516C6.32305 20.4998 6.57537 20.3903 6.89977 20.2179C7.32392 19.988 7.69915 19.7782 7.90234 19.3242C7.94922 19.1208 7.98024 18.9231 8.00066 18.7154C8.03962 18.503 8.10922 18.3702 8.23438 18.1953C8.44924 18.0879 8.66612 18.0916 8.89844 18.1289Z" fill="#D62828"/>
<path d="M6.97747 10.1504C7.08193 10.1497 7.08193 10.1497 7.1885 10.1489C7.30307 10.1487 7.30307 10.1487 7.41996 10.1484C7.50041 10.148 7.58087 10.1475 7.66377 10.1471C7.93058 10.1458 8.19739 10.145 8.4642 10.1443C8.5561 10.1441 8.648 10.1438 8.7399 10.1435C9.17159 10.1423 9.60327 10.1413 10.035 10.1408C10.5332 10.1401 11.0313 10.1384 11.5295 10.1357C11.9147 10.1337 12.2999 10.1327 12.6851 10.1325C12.9151 10.1323 13.1451 10.1317 13.3751 10.13C13.6317 10.1282 13.8883 10.1285 14.1449 10.129C14.221 10.1281 14.2971 10.1272 14.3755 10.1264C14.8905 10.1298 14.8905 10.1298 15.1531 10.2866C15.2949 10.4506 15.3354 10.5259 15.3647 10.7412C15.3384 10.9697 15.283 11.0985 15.1303 11.2711C14.8609 11.4567 14.5159 11.4091 14.2012 11.4049C14.1194 11.4054 14.0377 11.4059 13.9534 11.4064C13.7296 11.4073 13.5059 11.4064 13.2821 11.4046C13.0476 11.4031 12.8132 11.4037 12.5788 11.4039C12.1851 11.404 11.7914 11.4026 11.3978 11.4001C10.943 11.3973 10.4882 11.3968 10.0334 11.3977C9.59543 11.3984 9.15752 11.3977 8.71959 11.3962C8.5334 11.3956 8.34723 11.3955 8.16104 11.3957C7.90095 11.396 7.6409 11.3941 7.38082 11.392C7.30367 11.3923 7.22653 11.3926 7.14705 11.3929C6.62777 11.3861 6.62777 11.3861 6.3622 11.2344C6.19132 11.0286 6.17119 10.891 6.17578 10.625C6.38218 10.2269 6.54507 10.1524 6.97747 10.1504Z" fill="#D62828"/>
<path d="M6.98295 12.4006C7.05212 12.4002 7.12129 12.3997 7.19255 12.3992C7.26807 12.3994 7.34359 12.3995 7.4214 12.3997C7.50122 12.3994 7.58104 12.399 7.66328 12.3987C7.88199 12.3979 8.10068 12.3978 8.31939 12.3979C8.50207 12.398 8.68475 12.3977 8.86743 12.3974C9.29847 12.3966 9.7295 12.3966 10.1605 12.397C10.605 12.3974 11.0494 12.3966 11.4938 12.3952C11.8756 12.394 12.2574 12.3936 12.6392 12.3938C12.8672 12.3939 13.0951 12.3938 13.323 12.3928C13.5772 12.3918 13.8314 12.3925 14.0856 12.3932C14.161 12.3927 14.2364 12.3922 14.3141 12.3917C14.4181 12.3924 14.4181 12.3924 14.5243 12.3931C14.5843 12.3931 14.6444 12.3931 14.7063 12.3931C14.9143 12.4237 15.0376 12.4943 15.207 12.6172C15.3615 12.8488 15.3621 12.9427 15.3398 13.2148C15.2597 13.4368 15.2123 13.4769 15.0078 13.6133C14.8513 13.6304 14.8513 13.6304 14.663 13.631C14.5915 13.6316 14.5201 13.6322 14.4466 13.6327C14.3682 13.6327 14.2899 13.6326 14.2091 13.6326C14.1266 13.633 14.0441 13.6335 13.9591 13.6339C13.7327 13.635 13.5064 13.6354 13.28 13.6355C13.091 13.6356 12.9021 13.6361 12.7131 13.6366C12.2673 13.6376 11.8216 13.638 11.3758 13.6379C10.9158 13.6378 10.4559 13.6392 9.99598 13.6413C9.60115 13.643 9.20632 13.6437 8.81149 13.6437C8.57564 13.6436 8.33982 13.644 8.10398 13.6454C7.841 13.6469 7.57806 13.6463 7.31508 13.6455C7.19776 13.6467 7.19776 13.6467 7.07807 13.6478C7.00648 13.6472 6.93488 13.6467 6.86111 13.6461C6.76784 13.6462 6.76784 13.6462 6.67269 13.6463C6.45667 13.603 6.37845 13.5173 6.24219 13.3476C6.16058 13.0974 6.16381 12.982 6.25464 12.7334C6.44902 12.4385 6.64046 12.4014 6.98295 12.4006Z" fill="#D62828"/>
<path d="M7.05184 14.6585C7.15391 14.6578 7.15391 14.6578 7.25805 14.657C7.36895 14.6573 7.36895 14.6573 7.4821 14.6575C7.56052 14.6572 7.63895 14.6568 7.71976 14.6565C7.93435 14.6557 8.14892 14.6556 8.36351 14.6557C8.54289 14.6558 8.72227 14.6555 8.90165 14.6552C9.32495 14.6544 9.74825 14.6544 10.1715 14.6548C10.6077 14.6552 11.0439 14.6544 11.4801 14.653C11.855 14.6518 12.23 14.6514 12.605 14.6516C12.8288 14.6517 13.0525 14.6516 13.2762 14.6506C13.5258 14.6498 13.7754 14.6503 14.0249 14.651C14.0987 14.6505 14.1725 14.65 14.2486 14.6495C14.6169 14.652 14.8912 14.662 15.207 14.875C15.3513 15.0506 15.3398 15.1426 15.3315 15.373C15.2667 15.6324 15.2135 15.7073 15.0078 15.8711C14.8431 15.9045 14.8431 15.9045 14.655 15.9048C14.5835 15.9056 14.512 15.9063 14.4383 15.9071C14.3211 15.9063 14.3211 15.9063 14.2016 15.9055C14.0778 15.9061 14.0778 15.9061 13.9515 15.9069C13.7254 15.9078 13.4994 15.9076 13.2732 15.9068C13.0365 15.9061 12.7999 15.9067 12.5632 15.9071C12.1657 15.9076 11.7682 15.907 11.3708 15.9057C10.9113 15.9043 10.4519 15.9047 9.99244 15.9062C9.59788 15.9074 9.20333 15.9076 8.80878 15.9069C8.57316 15.9065 8.33756 15.9064 8.10194 15.9073C7.83929 15.9082 7.57667 15.9069 7.31402 15.9055C7.23591 15.906 7.1578 15.9065 7.07733 15.9071C6.97008 15.906 6.97008 15.906 6.86066 15.9048C6.79856 15.9047 6.73647 15.9046 6.6725 15.9045C6.45683 15.8607 6.37835 15.7749 6.24218 15.6055C6.16126 15.3573 6.16471 15.239 6.25048 14.9912C6.45393 14.6928 6.70504 14.6593 7.05184 14.6585Z" fill="#D62828"/>
</g>
<defs>
<clipPath id="clip0_225_450">
<rect width="34" height="34" fill="white"/>
</clipPath>
</defs>
</svg>
