<svg width="24" height="24" viewBox="0 0 24 24" fill="none" xmlns="http://www.w3.org/2000/svg">
<path d="M15.1829 6.258C15.3354 6.29406 15.4068 6.35603 15.5156 6.46875C15.5736 6.59463 15.6046 6.72366 15.6357 6.8584C15.65 6.91673 15.65 6.91673 15.6646 6.97624C15.7793 7.45896 15.8649 7.94686 15.9375 8.4375C15.9431 8.47495 15.9488 8.5124 15.9546 8.55098C16.2108 10.3422 16.1374 12.5151 15.056 14.0413C14.2872 15.0355 13.3073 15.5669 12.0734 15.7775C11.8822 15.7997 11.6943 15.809 11.502 15.8115C11.4674 15.8129 11.4328 15.8142 11.3972 15.8156C11.2242 15.8177 11.1201 15.8033 10.9706 15.7137C10.8474 15.5793 10.8335 15.5025 10.8213 15.3265C10.835 15.1411 10.9363 15.0325 11.0625 14.9063C11.1713 14.8888 11.2809 14.8759 11.3906 14.8652C12.2345 14.7716 13.0033 14.5891 13.6875 14.0625C13.7358 14.0277 13.7842 13.9929 13.834 13.957C14.7349 13.0953 15.0293 11.7679 15.0564 10.5645C15.0667 9.58424 15.0365 8.58966 14.7656 7.64063C14.7224 7.66443 14.6791 7.68824 14.6345 7.71277C13.7656 8.17764 12.845 8.35426 11.8841 8.53226C10.9928 8.69977 10.0748 8.92626 9.50958 9.69891C8.8718 10.6949 8.63212 11.7309 8.88176 12.8867C8.94798 13.1508 9.03902 13.4453 9.23437 13.6406C9.269 13.5902 9.30362 13.5397 9.33929 13.4877C9.62169 13.0798 9.91347 12.6918 10.2407 12.3189C10.2954 12.2545 10.3487 12.1889 10.4012 12.1228C10.6639 11.7929 10.9468 11.4932 11.2463 11.1972C11.3236 11.1208 11.4005 11.044 11.4773 10.9671C11.7373 10.708 12.0008 10.4558 12.2812 10.2188C12.3444 10.1631 12.3444 10.1631 12.4089 10.1063C12.7946 9.78052 12.7946 9.78052 13.0781 9.79688C13.2286 9.85081 13.3246 9.89322 13.4238 10.0195C13.4687 10.1811 13.4784 10.2849 13.4531 10.4531C13.3112 10.6834 13.1026 10.8489 12.8923 11.0143C12.6063 11.2466 12.3466 11.5001 12.0878 11.7619C12.0114 11.8392 11.9346 11.9161 11.8577 11.993C11.5986 12.2529 11.346 12.5161 11.1094 12.7969C11.0863 12.8236 11.0633 12.8502 11.0395 12.8777C9.92768 14.1694 8.99979 15.7031 8.66364 17.3882C8.55612 17.9239 8.55612 17.9239 8.43164 18.0703C8.25565 18.1621 8.11652 18.1807 7.92187 18.1406C7.79015 18.0565 7.7105 17.9991 7.64062 17.8594C7.58483 16.8307 8.06285 15.7571 8.52411 14.8608C8.5854 14.6996 8.58953 14.6446 8.53125 14.4844C8.47481 14.3749 8.41672 14.2687 8.35547 14.1621C7.77959 13.1209 7.62629 11.8792 7.94645 10.7301C8.1428 10.0858 8.43037 9.47466 8.85937 8.95313C8.88922 8.91566 8.91907 8.8782 8.94983 8.8396C9.64373 8.00914 10.6777 7.76164 11.6922 7.56152C11.7276 7.55453 11.763 7.54753 11.7995 7.54032C11.9773 7.50534 12.1552 7.47102 12.3334 7.43784C13.2247 7.26899 14.0165 7.01854 14.7187 6.42188C14.8755 6.29011 14.9745 6.26421 15.1829 6.258Z" fill="#D62828"/>
<path d="M16.2715 3.53906C16.3185 3.56389 16.3656 3.58873 16.414 3.61431C17.0639 3.96359 17.638 4.38469 18.1875 4.875C18.2124 4.89702 18.2373 4.91904 18.263 4.94172C20.1132 6.58122 21.2126 8.98392 21.375 11.4375C21.4878 13.8215 20.7698 16.2145 19.2188 18.0469C19.1853 18.0865 19.1518 18.126 19.1173 18.1668C19.013 18.2858 18.906 18.4011 18.7969 18.5156C18.7717 18.542 18.7466 18.5684 18.7207 18.5956C17.437 19.9355 15.8583 20.8196 14.0625 21.2813C14.011 21.2946 13.9594 21.308 13.9063 21.3217C13.2678 21.4667 12.604 21.5036 11.9531 21.5625C12.0008 21.623 12.0008 21.623 12.0494 21.6846C12.117 21.7703 12.1843 21.856 12.2514 21.942C12.3679 22.0915 12.4855 22.2396 12.6074 22.3848C12.6289 22.4111 12.6505 22.4374 12.6727 22.4645C12.7323 22.5372 12.7927 22.6093 12.8531 22.6813C12.9653 22.8766 12.9602 22.9804 12.9375 23.2031C12.8534 23.3348 12.796 23.4145 12.6562 23.4844C12.416 23.5025 12.2883 23.4847 12.0938 23.3438C12.0116 23.2495 11.9366 23.1566 11.8623 23.0566C11.8172 22.9976 11.7721 22.9387 11.7268 22.8798C11.7029 22.8486 11.679 22.8174 11.6544 22.7853C11.5202 22.6131 11.3806 22.4454 11.2412 22.2773C11.0071 21.9943 10.7734 21.7111 10.5469 21.4219C10.5213 21.3902 10.4958 21.3586 10.4694 21.3259C10.3743 21.188 10.3652 21.0719 10.3594 20.9063C10.5641 20.4935 11.0011 20.2198 11.3587 19.9432C11.519 19.8188 11.6768 19.6922 11.8326 19.5623C11.8678 19.533 11.9029 19.5037 11.9391 19.4735C12.0073 19.4165 12.0752 19.3592 12.143 19.3018C12.6124 18.9094 12.6124 18.9094 12.8575 18.876C13.0042 18.9002 13.1152 18.931 13.2393 19.0137C13.3388 19.1649 13.3563 19.2725 13.3594 19.4531C13.263 19.7117 13.1173 19.8346 12.9023 19.9922C12.8433 20.0369 12.7844 20.0816 12.7255 20.1264C12.6973 20.1476 12.6692 20.1688 12.6402 20.1906C12.4995 20.2981 12.3672 20.4143 12.2344 20.5313C14.1664 20.4653 16.0379 19.6991 17.4844 18.4219C17.5082 18.4011 17.532 18.3804 17.5566 18.359C18.4523 17.5753 19.159 16.6057 19.6406 15.5156C19.6654 15.4602 19.6902 15.4048 19.7157 15.3477C20.0287 14.607 20.231 13.8264 20.3438 13.0313C20.3499 12.9891 20.3561 12.947 20.3624 12.9036C20.6194 10.7124 19.9136 8.42916 18.5625 6.70313C18.3823 6.47775 18.1945 6.25998 18 6.04688C17.965 6.00851 17.93 5.97014 17.894 5.9306C17.5986 5.62213 17.2625 5.36532 16.9219 5.10938C16.8823 5.07941 16.8427 5.04944 16.8019 5.01856C16.3034 4.65536 15.747 4.37048 15.1899 4.10863C15.0333 4.03321 14.958 3.99173 14.8594 3.84375C14.8338 3.70002 14.8344 3.5657 14.8594 3.42188C15.2476 2.90421 15.8152 3.29683 16.2715 3.53906Z" fill="#D62828"/>
<path d="M11.2892 0.493104C11.6929 0.582746 11.982 1.1089 12.2192 1.41955C12.3069 1.53325 12.3979 1.64412 12.4893 1.75488C12.6635 1.96671 12.8361 2.17972 13.0078 2.39356C13.045 2.43968 13.045 2.43968 13.083 2.48674C13.2567 2.70345 13.3168 2.80716 13.3325 3.08588C13.2802 3.35218 13.0217 3.51328 12.8174 3.66797C12.7581 3.7137 12.6988 3.75948 12.6396 3.8053C12.6104 3.82776 12.5813 3.85022 12.5513 3.87337C12.4382 3.96124 12.3274 4.05163 12.2168 4.14258C12.1761 4.17593 12.1355 4.20929 12.0936 4.24365C12.0165 4.3072 11.9394 4.37079 11.8625 4.43463C11.763 4.51721 11.6633 4.59943 11.5635 4.68164C11.5321 4.70789 11.5006 4.73414 11.4683 4.76118C11.0419 5.11144 11.0419 5.11144 10.752 5.10645C10.5801 5.05871 10.5152 5.01334 10.4062 4.875C10.3312 4.72488 10.3403 4.61938 10.3594 4.45313C10.6278 4.04253 11.0953 3.75912 11.4844 3.46875C9.83388 3.49581 8.16649 4.07845 6.84375 5.0625C6.81769 5.08122 6.79163 5.09995 6.76479 5.11924C4.95896 6.41987 3.79469 8.43108 3.4021 10.604C3.24602 11.6249 3.23708 12.7719 3.46875 13.7812C3.47781 13.8217 3.48688 13.8621 3.49622 13.9038C3.64943 14.5665 3.8803 15.1831 4.17188 15.7969C4.18722 15.8293 4.20256 15.8617 4.21836 15.8951C4.55215 16.5878 5.00422 17.2078 5.53125 17.7656C5.58519 17.8289 5.63891 17.8924 5.69238 17.9561C6.31362 18.6636 7.14095 19.1941 7.97168 19.6238C8.01203 19.6447 8.05238 19.6655 8.09395 19.687C8.17295 19.7275 8.2522 19.7676 8.33171 19.8071C8.67636 19.9823 8.67636 19.9823 8.76562 20.1562C8.79723 20.3696 8.78183 20.4586 8.66602 20.6426C8.51285 20.7824 8.45266 20.7983 8.25 20.8125C6.45907 20.3998 4.7365 18.6142 3.785 17.1362C2.93904 15.7806 2.34409 14.161 2.33423 12.5475C2.3339 12.5113 2.33357 12.475 2.33323 12.4377C2.31311 9.58626 3.22636 7.16239 5.23535 5.11231C6.9944 3.35185 9.33754 2.60054 11.7656 2.4375C11.7384 2.40461 11.7384 2.40461 11.7106 2.37104C11.5362 2.16029 11.3625 1.949 11.1891 1.73737C11.1249 1.65945 11.0598 1.58226 10.9944 1.50531C10.8287 1.30587 10.7241 1.1621 10.7344 0.890626C10.8423 0.604664 10.9708 0.480947 11.2892 0.493104Z" fill="#D62828"/>
</svg>
