<svg width="34" height="34" viewBox="0 0 34 34" fill="none" xmlns="http://www.w3.org/2000/svg">
<g clip-path="url(#clip0_225_486)">
<path d="M11.7526 10.9918C12.2122 11.3278 12.3266 11.756 12.4727 12.2836C12.84 13.5575 13.4629 14.5117 14.6094 15.207C15.7432 15.8223 16.9948 16.0041 18.2576 15.7051C19.4363 15.3325 20.4134 14.6201 21.0508 13.5469C21.3318 12.9985 21.5096 12.4429 21.6448 11.8452C21.7961 11.3611 22.0817 11.0975 22.5034 10.8408C22.9524 10.664 23.5184 10.6806 23.974 10.8185C24.3971 11.0152 24.661 11.2505 24.8567 11.6792C24.9527 12.1158 24.9002 12.5197 24.7944 12.9492C24.7826 12.9978 24.7708 13.0463 24.7586 13.0964C24.3106 14.86 23.3138 16.4733 21.8241 17.5451C21.5834 17.7227 21.4702 17.8445 21.3828 18.1289C21.3607 18.3272 21.3607 18.3272 21.3604 18.5415C21.3589 18.6237 21.3574 18.7058 21.3558 18.7905C21.355 18.8801 21.3542 18.9697 21.3535 19.0594C21.353 19.1053 21.3526 19.1512 21.3521 19.1984C21.3497 19.4428 21.3482 19.6872 21.3473 19.9316C21.3464 20.1302 21.3441 20.3286 21.3404 20.5272C21.3176 21.7912 21.3975 22.8888 21.8056 24.1009C21.8477 24.2383 21.8477 24.2383 21.8477 24.3711C21.8871 24.3446 21.9266 24.3182 21.9672 24.2909C22.6437 23.8585 23.3889 23.6306 24.195 23.8077C24.2312 23.8183 24.2674 23.8289 24.3047 23.8398C24.3144 23.8036 24.3242 23.7674 24.3343 23.7301C24.5695 22.9391 25.0758 22.3128 25.8019 21.9107C26.1563 21.726 26.5128 21.5689 26.8945 21.4492C26.8681 21.4082 26.8416 21.3672 26.8144 21.325C26.3228 20.5392 26.1373 19.7568 26.3475 18.8373C26.52 18.3389 26.7732 17.957 27.1602 17.5977C27.2163 17.5429 27.2725 17.4881 27.3303 17.4316C28.0095 16.8941 28.7868 16.8428 29.6172 16.9336C30.3145 17.066 30.856 17.496 31.2732 18.0583C31.4678 18.3559 31.5896 18.6483 31.6758 18.9922C31.6908 19.047 31.7059 19.1018 31.7214 19.1582C31.8281 20.0119 31.5865 20.7225 31.1445 21.4492C31.2492 21.4915 31.2492 21.4915 31.3559 21.5346C31.896 21.758 32.3696 21.9791 32.8047 22.3789C32.8459 22.4134 32.8872 22.4479 32.9297 22.4834C33.3568 22.8652 33.704 23.462 33.7437 24.0427C33.7442 24.0911 33.7446 24.1394 33.7451 24.1893C33.7457 24.2444 33.7464 24.2996 33.747 24.3565C33.7474 24.445 33.7474 24.445 33.7479 24.5353C33.7482 24.5963 33.7486 24.6574 33.749 24.7203C33.7496 24.8492 33.7501 24.9781 33.7503 25.107C33.751 25.3044 33.753 25.5019 33.7551 25.6993C33.7556 25.8246 33.7559 25.9498 33.7562 26.0751C33.757 26.1342 33.7578 26.1934 33.7586 26.2543C33.7584 26.3093 33.7582 26.3642 33.758 26.4209C33.7583 26.4692 33.7585 26.5175 33.7588 26.5673C33.7265 26.7367 33.6691 26.7877 33.5352 26.8945C33.3976 26.919 33.3976 26.919 33.2364 26.9185C33.1752 26.9188 33.114 26.919 33.051 26.9193C32.9841 26.9186 32.9171 26.9179 32.8481 26.9171C32.7775 26.9172 32.7068 26.9172 32.6341 26.9172C32.4001 26.9171 32.1662 26.9155 31.9323 26.914C31.7703 26.9136 31.6083 26.9133 31.4463 26.9131C31.0196 26.9124 30.5928 26.9104 30.1661 26.9082C29.7308 26.9062 29.2954 26.9053 28.8601 26.9043C28.0057 26.9021 27.1513 26.8988 26.2969 26.8945C26.2874 26.9783 26.2779 27.0621 26.2682 27.1484C26.2415 27.3842 26.1852 27.5631 26.0728 27.7744C26.0448 27.8282 26.0169 27.8819 25.9882 27.9373C25.9009 28.0856 25.8054 28.2201 25.6992 28.3555C25.7387 28.3652 25.7781 28.375 25.8188 28.385C26.8107 28.6534 27.5619 29.2056 28.1249 30.0646C28.4304 30.7414 28.4536 31.416 28.4478 32.145C28.4468 32.3082 28.4478 32.4713 28.4491 32.6345C28.449 32.739 28.4487 32.8434 28.4483 32.9479C28.4487 32.9963 28.4491 33.0447 28.4496 33.0946C28.4457 33.3751 28.4236 33.5352 28.2227 33.7344C28.0556 33.7676 28.0556 33.7676 27.8521 33.7677C27.775 33.7683 27.6979 33.769 27.6185 33.7696C27.5339 33.769 27.4492 33.7683 27.362 33.7677C27.272 33.7679 27.182 33.7683 27.092 33.7688C26.8475 33.7697 26.603 33.769 26.3585 33.7679C26.1028 33.7669 25.8472 33.7674 25.5915 33.7676C25.1621 33.7678 24.7327 33.7669 24.3033 33.7654C23.8066 33.7636 23.3099 33.7635 22.8132 33.7643C22.3357 33.765 21.8582 33.7646 21.3807 33.7636C21.1774 33.7632 20.9741 33.7632 20.7707 33.7636C20.5313 33.7639 20.2919 33.7632 20.0526 33.7618C19.9226 33.7612 19.7927 33.7617 19.6627 33.7621C19.5856 33.7615 19.5085 33.7608 19.4291 33.7601C19.362 33.76 19.2948 33.7598 19.2257 33.7596C19.0586 33.7344 19.0586 33.7344 18.9374 33.6488C18.7995 33.448 18.8311 33.2078 18.8329 32.9725C18.8327 32.9169 18.8325 32.8613 18.8323 32.8039C18.8322 32.686 18.8326 32.568 18.8334 32.4501C18.8345 32.2716 18.8334 32.0931 18.8321 31.9146C18.8308 30.8723 18.9989 30.0826 19.7393 29.3018C20.2564 28.8114 20.8576 28.5446 21.5156 28.2891C21.428 28.1795 21.3403 28.0699 21.25 27.957C21.2038 27.9858 21.2038 27.9858 21.1566 28.0151C20.6144 28.3065 19.9853 28.3105 19.3924 28.1788C18.7794 27.9599 18.3564 27.5315 18.0625 26.9609C17.9622 26.6847 17.8869 26.4035 17.8122 26.1194C17.7905 26.0398 17.7689 25.9601 17.7466 25.878C17.6897 25.6678 17.6337 25.4574 17.5779 25.2469C17.5209 25.0324 17.4625 24.8184 17.4043 24.6043C17.3603 24.4411 17.3164 24.278 17.2726 24.1148C17.2519 24.0379 17.2311 23.9611 17.2098 23.8819C17.1909 23.8105 17.172 23.7391 17.1526 23.6656C17.1359 23.6029 17.1192 23.5402 17.102 23.4756C17.0664 23.3086 17.0664 23.3086 17.0664 23.043C17.0226 23.043 16.9787 23.043 16.9336 23.043C16.9264 23.1045 16.9193 23.1661 16.9119 23.2295C16.8625 23.5733 16.7716 23.9061 16.6835 24.2416C16.6653 24.3116 16.647 24.3816 16.6281 24.4537C16.5894 24.6014 16.5506 24.749 16.5116 24.8966C16.4526 25.1207 16.3946 25.345 16.3367 25.5694C16.2988 25.7134 16.2609 25.8574 16.2228 26.0014C16.1974 26.1008 16.1974 26.1008 16.1714 26.2023C15.9821 26.9087 15.7158 27.5781 15.0685 27.9757C14.4976 28.2728 13.8241 28.337 13.2011 28.1632C13.0464 28.1006 12.8975 28.0348 12.75 27.957C12.6623 28.0666 12.5747 28.1762 12.4844 28.2891C12.543 28.3117 12.6016 28.3343 12.6621 28.3575C13.216 28.5812 13.6804 28.8349 14.1445 29.2187C14.1881 29.2532 14.2317 29.2877 14.2766 29.3233C14.7205 29.7141 15.0535 30.3628 15.1406 30.9453C15.1513 31.1426 15.1531 31.3397 15.1541 31.5373C15.1545 31.5938 15.1549 31.6503 15.1553 31.7086C15.1559 31.8277 15.1563 31.9468 15.1566 32.0659C15.1572 32.2484 15.1593 32.4308 15.1614 32.6132C15.1618 32.7291 15.1622 32.845 15.1624 32.9608C15.1632 33.0154 15.1641 33.07 15.1649 33.1262C15.1634 33.5018 15.1634 33.5018 15.0627 33.6491C14.8941 33.7676 14.7761 33.7596 14.5709 33.7601C14.4552 33.7611 14.4552 33.7611 14.3373 33.7621C14.2526 33.7618 14.1679 33.7615 14.0807 33.7612C13.9907 33.7616 13.9007 33.762 13.8107 33.7626C13.5662 33.7638 13.3218 33.7637 13.0773 33.7633C12.8733 33.7631 12.6693 33.7635 12.4653 33.7639C11.9842 33.7649 11.5031 33.7647 11.022 33.764C10.5253 33.7632 10.0287 33.7642 9.53198 33.7659C9.10579 33.7674 8.67961 33.7679 8.25342 33.7675C7.99876 33.7672 7.74412 33.7674 7.48946 33.7685C7.25006 33.7696 7.0107 33.7693 6.7713 33.7681C6.64136 33.7677 6.51142 33.7686 6.38148 33.7696C6.30439 33.769 6.22729 33.7683 6.14786 33.7677C6.08073 33.7676 6.01359 33.7676 5.94442 33.7676C5.77734 33.7344 5.77734 33.7344 5.65619 33.6143C5.54039 33.3984 5.54967 33.1869 5.55166 32.9479C5.55147 32.8971 5.55128 32.8463 5.55109 32.7939C5.55095 32.6863 5.55132 32.5787 5.55215 32.4711C5.55321 32.309 5.55217 32.1471 5.55089 31.985C5.54933 30.9346 5.72558 30.1115 6.44556 29.3059C6.95037 28.8341 7.63089 28.5036 8.30078 28.3555C8.26876 28.3074 8.23675 28.2592 8.20376 28.2097C8.16182 28.1455 8.11987 28.0813 8.07666 28.0151C8.03506 27.952 7.99345 27.8888 7.95059 27.8237C7.76927 27.5095 7.6956 27.2549 7.70312 26.8945C7.64744 26.8948 7.64744 26.8948 7.59064 26.8951C6.68782 26.8995 5.78501 26.9028 4.88218 26.9048C4.44558 26.9059 4.00899 26.9073 3.5724 26.9096C3.1513 26.9117 2.73021 26.9129 2.30911 26.9134C2.14821 26.9138 1.9873 26.9145 1.82641 26.9156C1.60156 26.917 1.37676 26.9172 1.15191 26.9171C1.05146 26.9182 1.05146 26.9182 0.94898 26.9193C0.887802 26.919 0.826624 26.9188 0.763593 26.9185C0.710399 26.9187 0.657205 26.9188 0.602399 26.919C0.430349 26.8884 0.371767 26.8315 0.265624 26.6953C0.239879 26.5704 0.239879 26.5704 0.238792 26.4283C0.23795 26.3748 0.237107 26.3213 0.23624 26.2662C0.236435 26.2085 0.23663 26.1509 0.23683 26.0914C0.236482 26.0315 0.236134 25.9716 0.235776 25.9099C0.235349 25.7829 0.235439 25.6558 0.236004 25.5288C0.236564 25.3365 0.234668 25.1444 0.23255 24.9521C0.229073 24.0481 0.313647 23.346 0.929686 22.6445C0.961444 22.6058 0.993203 22.5671 1.02592 22.5273C1.49032 22.0079 2.19949 21.6591 2.85547 21.4492C2.82345 21.3898 2.79144 21.3304 2.75845 21.2692C2.32026 20.4388 2.14283 19.7384 2.37195 18.7958C2.61733 18.0396 3.12104 17.4975 3.8085 17.1115C4.43646 16.8335 5.22406 16.8267 5.88421 16.9945C6.08142 17.0719 6.25887 17.1584 6.4414 17.2656C6.49088 17.2945 6.54036 17.3233 6.59134 17.353C7.16741 17.7374 7.56363 18.3859 7.70312 19.0586C7.79797 19.8952 7.68283 20.6293 7.17187 21.3164C7.14996 21.3602 7.12805 21.4041 7.10547 21.4492C7.1689 21.4718 7.23233 21.4944 7.29768 21.5177C8.26742 21.8759 9.11035 22.4034 9.5625 23.3708C9.69531 23.6815 9.69531 23.6815 9.69531 23.8398C9.73169 23.8293 9.76807 23.8188 9.80556 23.8079C10.5401 23.6448 11.3088 23.8305 11.9407 24.2217C12.0454 24.2956 12.0454 24.2956 12.1523 24.3711C12.1749 24.2458 12.1749 24.2458 12.198 24.1179C12.2405 23.894 12.2925 23.6852 12.3653 23.4688C12.6994 22.4579 12.6606 21.4279 12.6477 20.3771C12.6457 20.1778 12.6455 19.9785 12.6453 19.7792C12.645 19.586 12.644 19.3929 12.6427 19.1998C12.6421 19.1081 12.6417 19.0165 12.6414 18.9248C12.6408 18.7975 12.6392 18.6701 12.6375 18.5428C12.6368 18.4707 12.6361 18.3985 12.6354 18.3242C12.6096 18.0478 12.5525 17.8614 12.3495 17.6692C12.2954 17.6292 12.2413 17.5891 12.1855 17.5478C10.5461 16.2824 9.40052 14.4923 9.09766 12.418C9.0619 11.9817 9.13139 11.6645 9.36328 11.2891C9.95032 10.6073 11.0048 10.5478 11.7526 10.9918ZM10.0937 11.8203C9.89542 12.1178 9.96223 12.3413 10.0273 12.6836C10.2157 13.4427 10.5138 14.1251 10.8906 14.8086C10.9252 14.8726 10.9598 14.9366 10.9954 15.0026C11.4777 15.8258 12.1855 16.5061 12.9663 17.0436C13.2968 17.326 13.4246 17.6322 13.4805 18.0625C13.5238 18.7563 13.5201 19.455 13.5261 20.1501C13.5266 20.2003 13.5271 20.2504 13.5276 20.3021C13.5417 21.9085 13.42 23.3639 12.8698 24.8892C12.7917 25.1997 12.86 25.4229 12.9492 25.7241C13.0372 26.0512 13.0387 26.3884 13.0418 26.7254C13.0501 27.0018 13.0501 27.0018 13.205 27.2211C13.6078 27.424 14.0718 27.4253 14.4973 27.2888C15.2745 26.7285 15.3862 25.7206 15.6182 24.8411C15.6364 24.7719 15.6547 24.7027 15.6735 24.6314C15.7492 24.344 15.8247 24.0566 15.8989 23.7688C15.9539 23.556 16.0101 23.3436 16.0664 23.1312C16.0829 23.0661 16.0994 23.0011 16.1163 22.9341C16.2678 22.3695 16.2678 22.3695 16.5352 22.1797C16.8545 22.0732 17.1441 22.062 17.4524 22.1921C17.7264 22.4192 17.825 22.6985 17.9128 23.0356C17.9332 23.1127 17.9536 23.1898 17.9746 23.2693C17.996 23.352 18.0174 23.4348 18.0394 23.52C18.0622 23.6064 18.0851 23.6928 18.1081 23.7792C18.2052 24.1448 18.3009 24.5107 18.3963 24.8767C18.4549 25.1012 18.5142 25.3254 18.574 25.5496C18.6074 25.6757 18.6399 25.8021 18.6724 25.9285C18.8355 26.5408 19.0112 26.9115 19.5234 27.293C19.9082 27.4212 20.3183 27.4129 20.6938 27.2639C20.8424 27.1738 20.8424 27.1738 20.918 27.0937C20.9287 26.9289 20.9365 26.7648 20.9429 26.5998C20.9578 26.2737 20.9828 25.9877 21.0964 25.6785C21.2656 25.1877 21.0721 24.6916 20.9231 24.2133C20.5243 22.93 20.4474 21.7521 20.4753 20.4146C20.479 20.2082 20.4801 20.0017 20.4811 19.7952C20.4824 19.5457 20.485 19.2962 20.4879 19.0467C20.4886 18.9772 20.4886 18.9772 20.4893 18.9063C20.5052 17.5545 20.5052 17.5545 20.9844 17.0664C21.1617 16.9224 21.3415 16.7839 21.5243 16.6471C22.8543 15.6514 23.7408 14.0521 24.0248 12.4237C24.051 12.1691 24.0379 11.9727 23.8813 11.7664C23.6147 11.5715 23.2919 11.5889 22.9766 11.6211C22.7794 11.7134 22.6647 11.8002 22.5117 11.9531C22.4836 12.0634 22.4562 12.1739 22.4327 12.2852C22.1346 13.6981 21.3743 14.9192 20.181 15.7484C18.8347 16.6101 17.3202 16.8974 15.7432 16.5996C14.4177 16.2991 13.1348 15.4704 12.4032 14.3178C11.9883 13.6302 11.687 12.9328 11.5461 12.1399C11.4786 11.9218 11.3992 11.8296 11.2227 11.6875C10.8289 11.5562 10.426 11.5484 10.0937 11.8203ZM3.71875 18.2617C3.34519 18.6418 3.13999 19.0893 3.11253 19.6236C3.14159 20.1853 3.36382 20.6649 3.77685 21.0466C4.20111 21.383 4.64023 21.5277 5.17969 21.5156C5.75556 21.4259 6.21394 21.1494 6.56592 20.6855C6.882 20.2346 6.89134 19.7217 6.83984 19.1914C6.70138 18.6869 6.41334 18.2848 5.96411 18.0127C5.1659 17.6043 4.40298 17.6719 3.71875 18.2617ZM27.6854 18.2591C27.2517 18.7221 27.1355 19.2129 27.1417 19.8316C27.1837 20.34 27.439 20.7849 27.8242 21.1172C28.2872 21.4264 28.7725 21.5847 29.3277 21.4837C29.8769 21.3349 30.2974 21.0628 30.6133 20.5859C30.8655 20.0989 30.9442 19.6603 30.8125 19.125C30.6108 18.5362 30.2611 18.1632 29.7168 17.8716C28.9762 17.6335 28.2869 17.7461 27.6854 18.2591ZM1.99219 22.8437C1.53307 23.2114 1.37838 23.4777 1.1289 24.0391C1.1289 24.6965 1.1289 25.3539 1.1289 26.0312C3.2984 26.0312 5.46789 26.0312 7.70312 26.0312C7.79078 25.7683 7.87844 25.5053 7.96875 25.2344C8.18042 24.9314 8.18042 24.9314 8.28288 24.8108C8.38156 24.6972 8.38156 24.6972 8.43359 24.5039C8.5581 24.4333 8.5581 24.4333 8.69922 24.3711C8.76496 24.3273 8.8307 24.2834 8.89844 24.2383C8.77756 23.5853 8.44897 23.1604 7.91324 22.7745C7.35775 22.4326 6.70367 22.1397 6.04297 22.1133C5.90985 22.1566 5.77709 22.2011 5.64453 22.2461C5.18805 22.3304 4.81209 22.3137 4.36206 22.2004C3.50644 22.0108 2.69977 22.3686 1.99219 22.8437ZM25.7324 23.0679C25.3801 23.4038 25.1627 23.7494 25.1016 24.2383C25.1687 24.2794 25.2358 24.3205 25.3049 24.3628C25.8992 24.7922 26.0672 25.3421 26.2969 26.0312C28.4664 26.0312 30.6359 26.0312 32.8711 26.0312C32.9964 24.3359 32.9964 24.3359 32.3191 23.1011C31.7533 22.5748 30.8516 22.1572 30.082 22.1133C29.8427 22.1499 29.6141 22.2043 29.3798 22.265C28.9441 22.3559 28.5158 22.3058 28.0981 22.1589C27.3406 21.9499 26.2866 22.5972 25.7324 23.0679ZM8.89844 25.3008C8.58624 25.8133 8.40646 26.3075 8.53061 26.9104C8.71332 27.5326 9.04699 27.8954 9.60452 28.2141C10.0103 28.4076 10.4864 28.4277 10.9197 28.3124C11.4567 28.0942 11.8693 27.7448 12.1064 27.2131C12.2824 26.7558 12.302 26.241 12.115 25.7822C11.8513 25.2724 11.5007 24.9015 10.957 24.7031C10.2155 24.4832 9.3986 24.7001 8.89844 25.3008ZM22.1133 25.3672C21.8018 25.8583 21.7309 26.3179 21.7812 26.8945C21.9077 27.3836 22.2248 27.841 22.6528 28.1132C23.14 28.3621 23.6124 28.4467 24.1519 28.3101C24.7356 28.0947 25.081 27.7833 25.3708 27.2364C25.5723 26.7784 25.5476 26.326 25.3921 25.8569C25.1586 25.2744 24.8108 24.955 24.2383 24.7031C23.4394 24.4562 22.6518 24.7503 22.1133 25.3672ZM6.98614 30.0504C6.23671 30.8928 6.4414 31.8039 6.4414 32.9375C9.02726 32.9375 11.6131 32.9375 14.2773 32.9375C14.3843 31.2442 14.3843 31.2442 13.6426 29.9684C13.0633 29.4253 12.2865 29.0693 11.4875 29.0138C11.3112 29.0214 11.15 29.0702 10.9814 29.1199C10.4617 29.2271 9.92878 29.1859 9.42969 29.0195C8.53523 28.9658 7.62097 29.4535 6.98614 30.0504ZM20.167 30.1427C19.4962 30.97 19.7227 31.8432 19.7227 32.9375C22.3085 32.9375 24.8944 32.9375 27.5586 32.9375C27.635 31.2088 27.635 31.2088 26.8598 29.908C26.3416 29.4214 25.52 29.017 24.7996 29.0203C24.6106 29.0391 24.4319 29.0682 24.2494 29.1215C23.7177 29.2355 23.16 29.1695 22.6445 29.0195C21.7565 28.9419 20.7529 29.5249 20.167 30.1427Z" fill="#D62828"/>
<path d="M3.78516 8.96483C3.93745 9.1106 4.06158 9.27364 4.18774 9.44213C4.23789 9.50665 4.23789 9.50665 4.28904 9.57248C4.50469 9.85174 4.71042 10.1377 4.91406 10.4258C4.95956 10.4177 5.00506 10.4097 5.05193 10.4014C5.26046 10.3648 5.46909 10.3289 5.67773 10.293C5.78508 10.274 5.78508 10.274 5.89459 10.2546C6.89522 10.0837 6.89522 10.0837 7.17188 10.2307C7.27756 10.4355 7.28952 10.6038 7.23828 10.8242C7.09208 11.0858 6.91473 11.3228 6.73608 11.563C6.64102 11.6911 6.54681 11.82 6.4536 11.9495C6.41152 12.006 6.36944 12.0625 6.32609 12.1207C6.2277 12.2794 6.2277 12.2794 6.25179 12.453C6.31106 12.6243 6.38232 12.7679 6.47487 12.9238C6.50761 12.9805 6.54035 13.0373 6.57409 13.0958C6.64319 13.2136 6.71271 13.3312 6.78265 13.4486C6.97734 13.7879 7.09253 14.0169 7.03906 14.4101C6.96851 14.5388 6.96851 14.5388 6.83984 14.6094C6.37569 14.6564 5.95753 14.507 5.51587 14.3769C5.43878 14.3548 5.3617 14.3326 5.28228 14.3098C5.09297 14.2552 4.90384 14.2001 4.71484 14.1445C4.68641 14.175 4.65797 14.2054 4.62867 14.2368C4.49836 14.3763 4.36795 14.5156 4.23755 14.655C4.19282 14.7029 4.14809 14.7508 4.10201 14.8002C4.01444 14.8937 3.92664 14.987 3.83859 15.0801C3.76536 15.1577 3.6926 15.2357 3.6207 15.3144C3.45195 15.4944 3.40139 15.537 3.146 15.5723C2.92188 15.5391 2.92188 15.5391 2.81111 15.4651C2.68004 15.2795 2.68778 15.1212 2.677 14.8957C2.67367 14.831 2.67367 14.831 2.67027 14.765C2.64757 14.2707 2.6504 13.7759 2.65625 13.2812C2.60446 13.266 2.55267 13.2508 2.49931 13.2351C2.18115 13.1209 1.88375 12.9749 1.5813 12.8247C1.52142 12.7958 1.46154 12.767 1.39985 12.7373C1.34237 12.7088 1.28489 12.6803 1.22566 12.6509C1.1736 12.6253 1.12154 12.5997 1.0679 12.5734C0.910697 12.4721 0.826491 12.3787 0.730469 12.2187C0.730469 12.0154 0.730469 12.0154 0.796875 11.8203C1.01073 11.6716 1.23001 11.5743 1.47391 11.4854C1.53785 11.4621 1.6018 11.4388 1.66768 11.4147C1.73368 11.3911 1.79968 11.3674 1.86768 11.343C1.93419 11.3186 2.0007 11.2941 2.06923 11.2689C2.56437 11.0898 2.56437 11.0898 2.78906 11.0898C2.79232 11.0391 2.79557 10.9883 2.79892 10.936C2.82786 10.5214 2.86405 10.108 2.91357 9.6953C2.92299 9.61449 2.93241 9.53369 2.94211 9.45043C2.98959 9.2242 3.04796 9.08178 3.1875 8.89843C3.44977 8.811 3.53614 8.84688 3.78516 8.96483ZM3.71875 10.4258C3.70668 10.505 3.69461 10.5841 3.68217 10.6657C3.66536 10.7697 3.64849 10.8738 3.63159 10.9778C3.62376 11.0299 3.61593 11.0821 3.60786 11.1359C3.59534 11.2113 3.59534 11.2113 3.58257 11.2883C3.57526 11.3345 3.56796 11.3808 3.56044 11.4284C3.50983 11.5846 3.44729 11.6511 3.32031 11.7539C3.16107 11.8197 3.00602 11.8782 2.84302 11.9324C2.79957 11.9473 2.75613 11.9622 2.71137 11.9776C2.60463 12.0142 2.49765 12.0502 2.39062 12.0859C2.39062 12.1298 2.39062 12.1736 2.39062 12.2187C2.46176 12.2555 2.5329 12.2924 2.60619 12.3303C2.69897 12.3789 2.79175 12.4274 2.88452 12.4761C2.93147 12.5003 2.97843 12.5245 3.0268 12.5495C3.3792 12.7349 3.3792 12.7349 3.45312 12.8828C3.46309 12.974 3.46962 13.0656 3.47414 13.1572C3.47692 13.2107 3.4797 13.2642 3.48257 13.3194C3.48518 13.3753 3.48779 13.4312 3.49048 13.4888C3.49335 13.5452 3.49621 13.6016 3.49917 13.6597C3.50622 13.7992 3.51291 13.9386 3.51953 14.0781C3.75381 13.8856 3.97314 13.7045 4.15454 13.4597C4.35254 13.2414 4.4254 13.2331 4.71484 13.2148C4.8953 13.2511 5.06254 13.291 5.23779 13.3435C5.2835 13.3565 5.32922 13.3694 5.37631 13.3828C5.48807 13.4146 5.59953 13.4474 5.71094 13.4805C5.63006 13.2176 5.53268 12.9919 5.39551 12.7541C5.28405 12.5312 5.24426 12.4431 5.2627 12.1897C5.42975 11.8496 5.63167 11.5362 5.84375 11.2226C5.80352 11.2274 5.76328 11.2322 5.72183 11.2372C5.5413 11.2572 5.36061 11.273 5.17969 11.2891C5.12174 11.2967 5.06378 11.3043 5.00407 11.3121C4.75066 11.3335 4.58649 11.3459 4.38229 11.1822C4.26245 11.0442 4.26245 11.0442 4.16154 10.9064C4.02918 10.7288 3.8776 10.5798 3.71875 10.4258Z" fill="#D62828"/>
<path d="M17.1292 0.252655C17.2632 0.256978 17.3972 0.261302 17.5312 0.265625C17.6008 0.401014 17.6699 0.536646 17.7388 0.672363C17.7603 0.71373 17.7819 0.755097 17.8042 0.797718C17.9153 1.01514 18.0098 1.2247 18.0783 1.45938C18.16 1.71629 18.2305 1.91043 18.3945 2.125C18.7065 2.23918 18.9926 2.25681 19.3226 2.2572C19.5177 2.25809 19.7109 2.27454 19.9053 2.29102C19.9666 2.29444 20.0279 2.29786 20.091 2.30139C20.2617 2.32532 20.3741 2.36534 20.5195 2.45703C20.6154 2.64885 20.611 2.77555 20.5859 2.98828C20.4433 3.14444 20.4433 3.14444 20.2539 3.32031C20.222 3.35027 20.1901 3.38022 20.1572 3.41109C20.0573 3.50465 19.9565 3.59727 19.8555 3.6897C19.8049 3.73637 19.8049 3.73637 19.7533 3.78399C19.5501 3.97018 19.3421 4.14678 19.125 4.31641C19.1426 4.39901 19.1603 4.48162 19.1784 4.56673C19.239 4.85127 19.2985 5.13602 19.3577 5.42086C19.3852 5.55246 19.4138 5.68387 19.4425 5.81522C19.4555 5.87805 19.4685 5.94088 19.4819 6.00562C19.4934 6.05895 19.5049 6.11228 19.5167 6.16722C19.525 6.34156 19.4855 6.42932 19.3906 6.57422C19.2027 6.66816 19.0681 6.65739 18.8594 6.64062C18.6792 6.55317 18.6792 6.55317 18.498 6.43259C18.4319 6.39004 18.3658 6.3475 18.2976 6.30367C18.1598 6.2126 18.0222 6.12129 17.8847 6.02974C17.8186 5.98737 17.7526 5.94499 17.6846 5.90134C17.6248 5.86169 17.5651 5.82205 17.5036 5.7812C17.3351 5.69234 17.3351 5.69234 17.1633 5.75374C17.0027 5.84227 16.8458 5.93257 16.6911 6.03104C16.634 6.06656 16.5769 6.10209 16.5182 6.13869C16.3994 6.21325 16.2809 6.28831 16.1628 6.36385C15.6154 6.70255 15.6154 6.70255 15.2734 6.64062C15.1116 6.54517 15.1116 6.54517 15.0078 6.375C15.0365 5.90843 15.1371 5.46353 15.2444 5.00952C15.2599 4.94254 15.2755 4.87555 15.2915 4.80654C15.3294 4.64309 15.3677 4.47972 15.4062 4.31641C15.305 4.22982 15.2038 4.14322 15.1025 4.05663C15.017 3.98337 14.9316 3.90999 14.8463 3.8365C14.6653 3.68062 14.4841 3.52567 14.2989 3.37479C14.252 3.33627 14.2052 3.29774 14.157 3.25806C14.1168 3.22596 14.0767 3.19386 14.0353 3.16078C13.9106 3.01382 13.8872 2.91481 13.8789 2.72266C13.9466 2.54082 13.9466 2.54082 14.0781 2.39062C14.2781 2.33382 14.2781 2.33382 14.5222 2.31177C14.5659 2.30612 14.6096 2.30047 14.6546 2.29465C14.8925 2.2654 15.1118 2.25772 15.3505 2.28142C15.6445 2.29857 15.8929 2.30865 16.1367 2.125C16.4508 1.65442 16.6272 1.10435 16.8019 0.569901C16.874 0.380441 16.9168 0.273983 17.1292 0.252655ZM17.1992 1.85938C17.1672 1.9353 17.1352 2.01123 17.1022 2.08946C17.0599 2.18848 17.0175 2.28748 16.9751 2.38647C16.954 2.43659 16.933 2.48671 16.9113 2.53835C16.7494 2.91435 16.7494 2.91435 16.6016 2.98828C16.5104 3.00269 16.4189 3.01413 16.3271 3.02382C16.2736 3.0296 16.2201 3.03538 16.165 3.04133C16.1091 3.04711 16.0532 3.05288 15.9956 3.05884C15.9392 3.06487 15.8828 3.07091 15.8247 3.07713C15.6852 3.09201 15.5457 3.10658 15.4062 3.12109C15.6025 3.32323 15.7992 3.50079 16.0247 3.66895C16.2564 3.87145 16.2564 3.87145 16.3082 4.05493C16.3113 4.21444 16.2957 4.35818 16.2695 4.51562C16.2591 4.5818 16.2486 4.64797 16.2379 4.71614C16.2074 4.89362 16.1736 5.06984 16.1367 5.24609C16.4154 5.14129 16.656 5.00543 16.9084 4.84921C17.1149 4.76041 17.2411 4.75318 17.4648 4.78125C17.6379 4.85466 17.7949 4.94819 17.9546 5.04688C18.0184 5.08488 18.0184 5.08488 18.0835 5.12366C18.1877 5.18583 18.2912 5.24906 18.3945 5.3125C18.3813 5.24265 18.3813 5.24265 18.3678 5.17139C18.3434 5.04046 18.32 4.90936 18.2973 4.77814C18.2762 4.66196 18.2527 4.54612 18.2241 4.43158C18.1831 4.24397 18.168 4.09948 18.2638 3.92886C18.4701 3.67754 18.7188 3.46892 18.9709 3.2648C18.9999 3.23929 19.0288 3.21378 19.0586 3.1875C19.0586 3.16559 19.0586 3.14367 19.0586 3.12109C18.9398 3.10902 18.9398 3.10902 18.8186 3.09671C18.7146 3.0855 18.6106 3.07426 18.5066 3.06299C18.4283 3.05516 18.4283 3.05516 18.3485 3.04716C18.2982 3.0416 18.2479 3.03604 18.1961 3.0303C18.1498 3.02544 18.1036 3.02057 18.0559 3.01555C17.9297 2.98828 17.9297 2.98828 17.7305 2.85547C17.6526 2.68685 17.5836 2.52256 17.5188 2.34912C17.5007 2.30221 17.4826 2.2553 17.4639 2.20697C17.4194 2.09132 17.3756 1.97538 17.332 1.85938C17.2882 1.85938 17.2444 1.85938 17.1992 1.85938Z" fill="#D62828"/>
<path d="M8.5249 2.61475C8.96704 2.69098 9.20862 3.11715 9.47119 3.45728C9.50286 3.49789 9.53454 3.53851 9.56717 3.58036C9.59799 3.61995 9.6288 3.65954 9.66055 3.70033C9.6899 3.73792 9.71925 3.7755 9.74949 3.81423C9.81473 3.90029 9.8755 3.98971 9.935 4.07983C9.98071 4.1312 9.98071 4.1312 10.0273 4.18359C10.2797 4.17924 10.5084 4.13942 10.7557 4.09225C10.853 4.07377 10.9503 4.05551 11.0477 4.03744C11.1459 4.01901 11.244 3.99979 11.3419 3.97969C11.651 3.92046 11.9068 3.91286 12.2188 3.98438C12.3516 4.11719 12.3516 4.11719 12.3913 4.31174C12.3799 4.70792 12.0755 5.01667 11.8494 5.3208C11.7543 5.44897 11.6601 5.57778 11.5669 5.70731C11.5248 5.76381 11.4827 5.82032 11.4394 5.87854C11.341 6.03721 11.341 6.03721 11.3651 6.2108C11.4243 6.38213 11.4956 6.52577 11.5882 6.68161C11.6209 6.73836 11.6536 6.79512 11.6874 6.85359C11.7565 6.97143 11.826 7.08903 11.8959 7.20638C12.0906 7.54575 12.2058 7.7747 12.1523 8.16797C12.0818 8.29663 12.0818 8.29663 11.9531 8.36719C11.4703 8.40928 11.0514 8.24908 10.5959 8.10455C10.5362 8.08636 10.4764 8.06816 10.4149 8.04942C10.3612 8.03238 10.3074 8.01534 10.2521 7.99779C10.0604 7.96263 9.94653 7.97224 9.76172 8.03516C9.60963 8.15824 9.60963 8.15824 9.46964 8.31764C9.41588 8.37435 9.36212 8.43106 9.30673 8.48949C9.19513 8.60982 9.08393 8.73053 8.97314 8.85162C8.56054 9.28485 8.56054 9.28485 8.24008 9.3485C8.03516 9.29688 8.03516 9.29688 7.90935 9.22502C7.80018 9.03561 7.80069 8.87113 7.79028 8.65356C7.78695 8.58884 7.78695 8.58884 7.78356 8.52281C7.76086 8.02853 7.76368 7.5337 7.76953 7.03906C7.71697 7.02306 7.66441 7.00705 7.61026 6.99055C7.30858 6.88421 7.02176 6.75475 6.73193 6.61987C6.67578 6.59475 6.61962 6.56962 6.56177 6.54374C6.25176 6.39925 6.02486 6.28039 5.84375 5.97656C5.82715 5.77319 5.82715 5.77319 5.91016 5.57812C6.29966 5.35676 6.70745 5.20817 7.13037 5.06348C7.19021 5.0425 7.25004 5.02153 7.31169 4.99992C7.75136 4.84766 7.75136 4.84766 7.90234 4.84766C7.9056 4.79689 7.90885 4.74613 7.9122 4.69383C7.94114 4.2792 7.97733 3.86579 8.02686 3.45312C8.03627 3.37232 8.04569 3.29151 8.05539 3.20825C8.1246 2.87851 8.17845 2.6789 8.5249 2.61475ZM8.83203 4.18359C8.81624 4.30956 8.81624 4.30956 8.80013 4.43806C8.78455 4.54832 8.7689 4.65856 8.75317 4.7688C8.74645 4.82414 8.73973 4.87948 8.73281 4.9365C8.67217 5.34461 8.67217 5.34461 8.48755 5.50549C8.42592 5.52946 8.36428 5.55343 8.30078 5.57812C8.22776 5.60851 8.15474 5.6389 8.07951 5.67021C8.00324 5.69872 7.92697 5.72722 7.84839 5.75659C7.7327 5.80012 7.7327 5.80012 7.61467 5.84453C7.52697 5.87701 7.52697 5.87701 7.4375 5.91016C7.70956 6.13083 8.01378 6.26511 8.32854 6.41469C8.5 6.50781 8.5 6.50781 8.56641 6.64062C8.57637 6.73183 8.5829 6.82343 8.58742 6.91507C8.5902 6.96857 8.59298 7.02207 8.59585 7.07719C8.59846 7.13309 8.60107 7.18899 8.60376 7.24658C8.60663 7.30299 8.6095 7.35941 8.61245 7.41753C8.6195 7.55698 8.62619 7.69646 8.63281 7.83594C8.86823 7.63822 9.09135 7.44637 9.29272 7.21338C9.45511 7.051 9.49312 7.03952 9.73682 7.00171C10.107 7.02979 10.4681 7.13856 10.8242 7.23828C10.7297 6.91184 10.5846 6.63782 10.4144 6.34595C10.3382 6.11027 10.3921 6.00099 10.4922 5.77734C10.5686 5.64499 10.6489 5.51483 10.7329 5.38721C10.7749 5.32301 10.8168 5.2588 10.86 5.19266C10.908 5.1205 10.908 5.1205 10.957 5.04688C10.6872 4.95695 10.4981 5.02678 10.2255 5.08838C9.97819 5.11946 9.80385 5.1144 9.5625 5.04688C9.41754 4.91874 9.31359 4.77076 9.20557 4.61108C9.10397 4.46798 9.00155 4.32561 8.89844 4.18359C8.87652 4.18359 8.85461 4.18359 8.83203 4.18359Z" fill="#D62828"/>
<path d="M31.1487 8.82373C31.3438 8.89844 31.3438 8.89844 31.4485 9.0891C31.5774 9.41692 31.6129 9.7586 31.655 10.1062C31.6636 10.1716 31.6722 10.2369 31.6811 10.3043C31.7152 10.5697 31.7422 10.8217 31.7422 11.0898C31.7933 11.0955 31.8444 11.1011 31.897 11.107C32.2292 11.1742 32.5345 11.2924 32.8503 11.4136C32.9134 11.4369 32.9764 11.4603 33.0414 11.4844C33.1321 11.5189 33.1321 11.5189 33.2247 11.5542C33.2795 11.575 33.3343 11.5957 33.3908 11.6172C33.5422 11.6909 33.6304 11.7549 33.7344 11.8867C33.78 12.1108 33.78 12.1108 33.7344 12.3516C33.3596 12.6825 32.8288 12.8574 32.3698 13.0383C32.2108 13.1078 32.0772 13.1732 31.9414 13.2812C31.8806 13.4904 31.8684 13.6027 31.875 13.8125C31.8708 13.9332 31.8661 14.0539 31.861 14.1746C31.8552 14.3687 31.85 14.5626 31.8465 14.7567C31.8444 14.8194 31.8424 14.882 31.8402 14.9466C31.8389 15.003 31.8376 15.0595 31.8363 15.1176C31.801 15.3164 31.7613 15.4043 31.6094 15.5391C31.3293 15.5839 31.1971 15.5763 30.9637 15.411C30.9078 15.3526 30.8518 15.2942 30.7941 15.234C30.7638 15.2031 30.7335 15.1721 30.7023 15.1402C30.6064 15.0418 30.5123 14.9419 30.4182 14.8418C30.3533 14.7745 30.2882 14.7073 30.223 14.6402C30.0642 14.476 29.9067 14.3108 29.75 14.1445C29.7018 14.1586 29.6536 14.1727 29.6039 14.1872C29.3844 14.251 29.1646 14.314 28.9448 14.377C28.869 14.3991 28.7931 14.4213 28.715 14.4441C28.6414 14.4651 28.5678 14.4861 28.4919 14.5077C28.4244 14.5272 28.357 14.5466 28.2875 14.5667C28.0796 14.6116 27.9033 14.626 27.6914 14.6094C27.4922 14.4766 27.4922 14.4766 27.4348 14.2934C27.4238 14.0313 27.4833 13.9142 27.6128 13.6877C27.6526 13.6156 27.6923 13.5435 27.7333 13.4692C27.819 13.3187 27.9048 13.1682 27.9906 13.0178C28.0501 12.9098 28.0501 12.9098 28.1109 12.7995C28.1481 12.7343 28.1854 12.669 28.2238 12.6017C28.3068 12.4218 28.3068 12.4218 28.2463 12.2468C28.1567 12.0867 28.0629 11.9365 27.9568 11.7868C27.9186 11.7322 27.8803 11.6775 27.841 11.6212C27.7604 11.5074 27.6798 11.3936 27.5992 11.2799C27.5611 11.2253 27.5229 11.1707 27.4836 11.1145C27.4312 11.0405 27.4312 11.0405 27.3776 10.9649C27.2933 10.8248 27.2495 10.7199 27.2266 10.5586C27.2805 10.3801 27.2805 10.3801 27.3594 10.2266C27.8842 9.96413 28.916 10.3076 29.4844 10.4258C29.5282 10.4477 29.572 10.4696 29.6172 10.4922C29.6348 10.4541 29.6525 10.4161 29.6707 10.3769C29.8152 10.103 30.0166 9.86831 30.2065 9.62476C30.2481 9.57061 30.2896 9.51647 30.3324 9.46069C30.3728 9.4086 30.4133 9.35651 30.455 9.30284C30.4918 9.2555 30.5285 9.20815 30.5663 9.15938C30.7497 8.95211 30.8667 8.83524 31.1487 8.82373ZM30.7461 10.4258C30.6707 10.5055 30.5978 10.5876 30.5261 10.6707C30.4837 10.7188 30.4412 10.767 30.3975 10.8167C30.2722 10.9609 30.2722 10.9609 30.1609 11.1562C29.9884 11.3139 29.9358 11.3104 29.7085 11.314C29.5894 11.3079 29.4704 11.2995 29.3516 11.2891C29.2886 11.2838 29.2256 11.2784 29.1606 11.273C29.0026 11.2582 28.8451 11.2414 28.6875 11.2227C28.7384 11.3169 28.7897 11.4109 28.8411 11.5049C28.8696 11.5573 28.8981 11.6097 28.9274 11.6636C29.0133 11.8216 29.0133 11.8216 29.1303 11.9438C29.2627 12.1566 29.2457 12.3039 29.2188 12.5508C29.1568 12.7246 29.0749 12.8831 28.9863 13.0447C28.9531 13.108 28.9531 13.108 28.9191 13.1727C28.8649 13.2757 28.8095 13.3782 28.7539 13.4805C28.8268 13.4605 28.8996 13.4406 28.9747 13.42C29.0712 13.3945 29.1678 13.369 29.2644 13.3435C29.3123 13.3303 29.3602 13.3171 29.4095 13.3034C29.8959 13.1769 29.8959 13.1769 30.1484 13.2812C30.2874 13.4014 30.4099 13.5174 30.5344 13.6506C30.5678 13.6852 30.6011 13.7197 30.6355 13.7553C30.7172 13.8402 30.7982 13.9259 30.8789 14.0117C31.0459 13.7612 31.0206 13.6211 31.02 13.3228C31.0354 12.8701 31.0354 12.8701 31.1816 12.6864C31.3212 12.6008 31.4561 12.5417 31.6094 12.4844C31.7094 12.434 31.809 12.3828 31.9082 12.3308C31.9849 12.2938 32.0616 12.2569 32.1406 12.2188C32.1406 12.1749 32.1406 12.1311 32.1406 12.0859C32.0655 12.061 31.9903 12.0361 31.9129 12.0105C31.8145 11.9762 31.7161 11.9419 31.6177 11.9075C31.5681 11.8912 31.5185 11.875 31.4675 11.8583C31.1048 11.7293 31.1048 11.7293 30.9827 11.5381C30.9372 11.3157 30.9001 11.095 30.8706 10.8699C30.8539 10.7449 30.8539 10.7449 30.8369 10.6175C30.8288 10.5542 30.8208 10.491 30.8125 10.4258C30.7906 10.4258 30.7687 10.4258 30.7461 10.4258Z" fill="#D62828"/>
<path d="M25.9399 2.6189C26.1784 2.65865 26.2246 2.66917 26.3633 2.85547C26.4103 3.03236 26.4103 3.03236 26.4408 3.24327C26.4522 3.31933 26.4635 3.39539 26.4752 3.47375C26.4862 3.55323 26.4972 3.63271 26.5085 3.7146C26.5203 3.79382 26.5321 3.87305 26.5442 3.95467C26.5881 4.25584 26.6289 4.54291 26.6289 4.84766C26.6637 4.85741 26.6986 4.86717 26.7345 4.87723C27.1221 4.98945 27.5048 5.11512 27.8865 5.24609C27.936 5.26263 27.9855 5.27916 28.0365 5.29619C28.2769 5.37984 28.4602 5.44433 28.6211 5.64453C28.6543 5.8728 28.6543 5.8728 28.6211 6.10938C28.3333 6.40199 27.9462 6.55252 27.5793 6.72363C27.5154 6.75411 27.4515 6.78458 27.3857 6.81598C26.9126 7.03906 26.9126 7.03906 26.7617 7.03906C26.7608 7.09802 26.7598 7.15698 26.7588 7.21772C26.7547 7.43705 26.7498 7.65633 26.7443 7.87563C26.7421 7.97043 26.7402 8.06524 26.7387 8.16006C26.7365 8.29658 26.733 8.43303 26.7293 8.56952C26.7276 8.65159 26.7258 8.73366 26.724 8.81822C26.6936 9.04403 26.6599 9.14072 26.4961 9.29688C26.272 9.33423 26.272 9.33423 26.0312 9.29688C25.912 9.18956 25.8066 9.08321 25.6992 8.96484C25.5387 8.78925 25.3766 8.61524 25.2136 8.44189C25.1513 8.37204 25.1513 8.37204 25.0877 8.30078C24.8193 8.01886 24.8193 8.01886 24.4409 7.96175C24.3504 7.983 24.2606 8.00761 24.1719 8.03516C24.126 8.04785 24.0801 8.06054 24.0328 8.07361C23.842 8.12862 23.6535 8.19008 23.465 8.2524C23.1352 8.35581 22.858 8.39501 22.5117 8.36719C22.3748 8.22192 22.3748 8.22192 22.3125 8.03516C22.3426 7.77107 22.4354 7.57641 22.5644 7.34593C22.6007 7.27929 22.6371 7.21265 22.6745 7.14399C22.7517 7.00434 22.8293 6.86495 22.9074 6.72584C22.9435 6.65928 22.9796 6.59273 23.0168 6.52415C23.0673 6.43343 23.0673 6.43343 23.1188 6.34087C23.1925 6.18104 23.1925 6.18104 23.1318 6.04039C23.1025 5.99741 23.0732 5.95444 23.043 5.91016C23.0122 5.86136 22.9814 5.81257 22.9497 5.7623C22.9146 5.70974 22.8796 5.65718 22.8435 5.60303C22.7862 5.51623 22.7862 5.51623 22.7277 5.42767C22.6473 5.3065 22.5667 5.18545 22.4859 5.06451C22.4478 5.00665 22.4096 4.94878 22.3703 4.88916C22.3354 4.8366 22.3004 4.78404 22.2644 4.72989C22.1826 4.5871 22.1356 4.47889 22.1133 4.31641C22.1797 4.13794 22.1797 4.13794 22.3125 3.98438C22.7318 3.87465 23.102 3.96098 23.5203 4.04663C23.6498 4.07234 23.7794 4.09786 23.9091 4.12315C23.966 4.1347 24.0228 4.14626 24.0814 4.15816C24.2555 4.19068 24.2555 4.19068 24.5039 4.18359C24.6145 4.08637 24.6145 4.08637 24.707 3.95065C24.7436 3.90152 24.7802 3.85238 24.8179 3.80176C24.8554 3.74971 24.8928 3.69767 24.9314 3.64404C25.6536 2.66332 25.6536 2.66332 25.9399 2.6189ZM25.6328 4.18359C25.4843 4.36551 25.3368 4.54793 25.1938 4.73417C25.0391 4.92514 24.9469 5.03202 24.7096 5.11121C24.4712 5.11361 24.2496 5.08878 24.0142 5.05103C23.9315 5.0381 23.8488 5.02517 23.7636 5.01186C23.7011 5.0015 23.6386 4.99114 23.5742 4.98047C23.6818 5.27753 23.835 5.50084 24.023 5.75218C24.1311 5.95915 24.1346 6.07678 24.1055 6.30859C24.0336 6.47993 23.9608 6.63599 23.873 6.79834C23.8509 6.84088 23.8287 6.88343 23.8059 6.92726C23.7515 7.03132 23.6962 7.13485 23.6406 7.23828C23.7347 7.21757 23.8288 7.19681 23.9229 7.17603C23.9752 7.16447 24.0276 7.15291 24.0816 7.14101C24.18 7.11869 24.2782 7.09548 24.376 7.07097C24.8036 6.96429 24.8036 6.96429 25.0352 7.03906C25.3039 7.26144 25.535 7.5084 25.7656 7.76953C25.9326 7.519 25.9073 7.37889 25.9067 7.08057C25.9226 6.62853 25.9226 6.62853 26.066 6.44426C26.2064 6.35684 26.3407 6.29866 26.4961 6.24219C26.6069 6.19124 26.7176 6.14006 26.8281 6.08862C26.9165 6.05086 27.005 6.01335 27.0938 5.97656C26.8693 5.75211 26.548 5.70507 26.2494 5.61211C25.9968 5.49585 25.9346 5.43501 25.832 5.17969C25.798 5.00407 25.7716 4.83783 25.7532 4.66089C25.7477 4.61488 25.7423 4.56887 25.7367 4.52146C25.7235 4.40892 25.7113 4.29627 25.6992 4.18359C25.6773 4.18359 25.6554 4.18359 25.6328 4.18359Z" fill="#D62828"/>
<path d="M18.7515 10.6499C18.8332 10.7286 18.9135 10.8088 18.9922 10.8906C19.029 10.9276 19.0658 10.9646 19.1037 11.0027C19.6588 11.5991 19.754 12.2739 19.7416 13.0587C19.7185 13.5947 19.5163 14.0532 19.1914 14.4766C19.1462 14.5409 19.101 14.6053 19.0544 14.6716C18.5845 15.2177 17.9054 15.4845 17.2057 15.5598C16.3544 15.5956 15.6376 15.3088 15.0078 14.7422C14.4042 14.1046 14.2374 13.3679 14.2553 12.5155C14.2947 11.7539 14.6605 11.1996 15.207 10.6914C16.1996 9.82411 17.739 9.79686 18.7515 10.6499ZM15.5391 11.5547C15.2187 12.0059 15.0734 12.4453 15.102 12.9993C15.1943 13.5144 15.4427 14.0138 15.868 14.3318C16.3734 14.6231 16.8746 14.7768 17.4444 14.6296C18.0757 14.4252 18.4244 14.1365 18.7302 13.5503C18.9363 13.1031 18.9372 12.6007 18.7914 12.1339C18.5493 11.6035 18.2335 11.2451 17.6913 11.0177C16.893 10.756 16.1202 10.9315 15.5391 11.5547Z" fill="#D62828"/>
</g>
<defs>
<clipPath id="clip0_225_486">
<rect width="34" height="34" fill="white"/>
</clipPath>
</defs>
</svg>
