<svg width="24" height="24" viewBox="0 0 24 24" fill="none" xmlns="http://www.w3.org/2000/svg">
<g clip-path="url(#clip0_511_2011)">
<path d="M0.468753 -0.0292969C0.507425 -0.0299011 0.546097 -0.0305054 0.585941 -0.0311279C0.764324 0.0162551 0.825855 0.0869196 0.937503 0.234375C0.971581 0.40527 0.967118 0.573483 0.964111 0.747219C0.964145 0.798917 0.964179 0.850614 0.964215 0.903879C0.964051 1.07459 0.962229 1.24525 0.960392 1.41595C0.959954 1.53438 0.959621 1.6528 0.959387 1.77122C0.958583 2.05096 0.956737 2.33067 0.954383 2.61039C0.951761 2.92893 0.950474 3.24748 0.949298 3.56603C0.94685 4.22111 0.942682 4.87618 0.937503 5.53125C1.21594 5.53125 1.49438 5.53125 1.78125 5.53125C1.78047 5.43249 1.78047 5.43249 1.77968 5.33174C1.77493 4.71167 1.7714 4.0916 1.76911 3.47151C1.7679 3.15271 1.76625 2.83392 1.76357 2.51513C1.76099 2.20755 1.75962 1.89998 1.75902 1.59239C1.75858 1.47496 1.75774 1.35754 1.75647 1.24012C1.75477 1.0758 1.75454 0.911542 1.75465 0.747219C1.7538 0.698532 1.75296 0.649845 1.75209 0.599683C1.75446 0.269761 1.75446 0.269761 1.89278 0.0870802C2.02569 -0.00713259 2.08888 -0.0318144 2.25 -0.0292969C2.28868 -0.0299011 2.32735 -0.0305054 2.36719 -0.0311279C2.54557 0.0162551 2.60711 0.0869196 2.71875 0.234375C2.75283 0.40527 2.74837 0.573483 2.74536 0.747219C2.7454 0.798917 2.74543 0.850614 2.74546 0.903879C2.7453 1.07459 2.74348 1.24525 2.74164 1.41595C2.7412 1.53438 2.74087 1.6528 2.74064 1.77122C2.73983 2.05096 2.73799 2.33067 2.73563 2.61039C2.73301 2.92893 2.73172 3.24748 2.73055 3.56603C2.7281 4.22111 2.72393 4.87618 2.71875 5.53125C2.99719 5.53125 3.27563 5.53125 3.5625 5.53125C3.56198 5.46541 3.56146 5.39957 3.56093 5.33174C3.55618 4.71167 3.55265 4.0916 3.55036 3.47151C3.54915 3.15271 3.5475 2.83392 3.54482 2.51513C3.54224 2.20755 3.54087 1.89998 3.54027 1.59239C3.53983 1.47496 3.53899 1.35754 3.53772 1.24012C3.53602 1.0758 3.53579 0.911542 3.5359 0.747219C3.53505 0.698532 3.53421 0.649845 3.53334 0.599683C3.53571 0.269761 3.53571 0.269761 3.67403 0.0870802C3.80694 -0.00713259 3.87013 -0.0318144 4.03125 -0.0292969C4.06993 -0.0299011 4.1086 -0.0305054 4.14844 -0.0311279C4.32682 0.0162551 4.38836 0.0869196 4.5 0.234375C4.53408 0.40527 4.52962 0.573483 4.52661 0.747219C4.52665 0.798917 4.52668 0.850614 4.52671 0.903879C4.52655 1.07459 4.52473 1.24525 4.52289 1.41595C4.52245 1.53438 4.52212 1.6528 4.52189 1.77122C4.52108 2.05096 4.51924 2.33067 4.51688 2.61039C4.51426 2.92893 4.51297 3.24748 4.5118 3.56603C4.50935 4.22111 4.50518 4.87618 4.5 5.53125C4.77844 5.53125 5.05688 5.53125 5.34375 5.53125C5.34323 5.46541 5.34271 5.39957 5.34218 5.33174C5.33743 4.71167 5.3339 4.0916 5.33161 3.47151C5.3304 3.15271 5.32875 2.83392 5.32607 2.51513C5.32349 2.20755 5.32212 1.89998 5.32152 1.59239C5.32108 1.47496 5.32024 1.35754 5.31897 1.24012C5.31727 1.0758 5.31704 0.911542 5.31715 0.747219C5.3163 0.698532 5.31546 0.649845 5.31459 0.599683C5.31696 0.269761 5.31696 0.269761 5.45528 0.0870802C5.58819 -0.00713259 5.65138 -0.0318144 5.8125 -0.0292969C5.85118 -0.0299011 5.88985 -0.0305054 5.92969 -0.0311279C6.05819 0.00300484 6.13936 0.0491992 6.23122 0.145874C6.34818 0.352766 6.31299 0.614514 6.31084 0.845123C6.31108 0.9079 6.31142 0.970677 6.31185 1.03345C6.31272 1.20375 6.31211 1.37401 6.31119 1.5443C6.31042 1.72306 6.31084 1.90182 6.31108 2.08059C6.31129 2.38117 6.31054 2.68175 6.30923 2.98233C6.30774 3.32851 6.30773 3.67465 6.30854 4.02083C6.30929 4.35494 6.30897 4.68903 6.30817 5.02313C6.30785 5.16472 6.30789 5.30629 6.30824 5.44787C6.3086 5.61533 6.30802 5.78275 6.30675 5.9502C6.30628 6.03993 6.30671 6.12967 6.30719 6.21939C6.29851 7.01876 5.9924 7.72448 5.4375 8.29688C5.17265 8.52258 4.9059 8.70626 4.59375 8.85938C4.59376 8.88902 4.59377 8.91866 4.59378 8.9492C4.59419 10.7071 4.59314 12.4651 4.5902 14.223C4.58985 14.4342 4.58951 14.6454 4.58918 14.8567C4.58908 14.9197 4.58908 14.9197 4.58897 14.9841C4.58793 15.6643 4.58787 16.3446 4.58818 17.0249C4.58848 17.7232 4.58771 18.4216 4.58595 19.1199C4.5849 19.5506 4.58468 19.9813 4.58552 20.412C4.58602 20.7076 4.58548 21.0032 4.58414 21.2988C4.58339 21.4692 4.58309 21.6396 4.58403 21.81C4.58504 21.9952 4.58386 22.1803 4.58248 22.3655C4.58312 22.4187 4.58375 22.472 4.58441 22.5269C4.57843 22.9425 4.46053 23.3067 4.18402 23.6253C4.10632 23.6992 4.0283 23.7556 3.9375 23.8125C3.89382 23.8413 3.89382 23.8413 3.84925 23.8707C3.52208 24.0511 3.12842 24.0586 2.76563 24C2.36259 23.8723 2.08176 23.6645 1.87014 23.302C1.71752 22.9952 1.7091 22.7231 1.71384 22.3846C1.71388 22.3268 1.71393 22.2691 1.71397 22.2096C1.71427 22.0503 1.71541 21.891 1.7169 21.7317C1.71829 21.5596 1.71858 21.3874 1.71899 21.2153C1.71981 20.9172 1.72125 20.6192 1.72307 20.3212C1.72587 19.8501 1.72673 19.3789 1.72728 18.9078C1.7275 18.7465 1.72772 18.5852 1.72795 18.4238C1.72803 18.3634 1.72803 18.3634 1.72812 18.3017C1.72879 17.8434 1.72986 17.3851 1.73111 16.9268C1.73122 16.8849 1.73133 16.843 1.73145 16.7999C1.73334 16.1207 1.73667 15.4415 1.74035 14.7623C1.74409 14.0645 1.74567 13.3668 1.74541 12.669C1.74533 12.2388 1.74702 11.8086 1.75099 11.3784C1.75357 11.0838 1.7541 10.7891 1.75303 10.4945C1.75247 10.3244 1.75283 10.1545 1.75566 9.98453C1.7587 9.80018 1.75739 9.61601 1.75566 9.43164C1.75725 9.37799 1.75883 9.32433 1.76046 9.26905C1.7568 9.11358 1.74833 9.00276 1.6875 8.85938C1.55417 8.74779 1.42393 8.67407 1.26711 8.5995C0.669053 8.31226 0.304061 7.67273 0.087894 7.07227C0.0218185 6.85516 -0.00595412 6.65793 -0.00721073 6.43094C-0.00761388 6.37653 -0.00801702 6.32211 -0.00843239 6.26605C-0.00863207 6.20678 -0.00883176 6.1475 -0.00903749 6.08643C-0.00940818 6.02304 -0.00979581 5.95966 -0.0101991 5.89627C-0.0114236 5.68866 -0.0121449 5.48105 -0.012814 5.27344C-0.0130654 5.20186 -0.0133175 5.13029 -0.0135702 5.05871C-0.0145831 4.76106 -0.0154615 4.46341 -0.01599 4.16576C-0.016752 3.73953 -0.0183102 3.31332 -0.0209776 2.8871C-0.0227908 2.58713 -0.0237071 2.28717 -0.0239551 1.9872C-0.0241264 1.80812 -0.02469 1.62906 -0.0262099 1.44998C-0.0276186 1.2816 -0.0279163 1.11326 -0.0273638 0.944881C-0.0273485 0.853734 -0.028496 0.762588 -0.0296783 0.671448C-0.0264855 0.225898 -0.0264855 0.225898 0.111576 0.0805893C0.243923 -0.00626341 0.311761 -0.0317499 0.468753 -0.0292969ZM0.984378 6.46875C1.06979 6.85311 1.15013 7.04879 1.35938 7.35938C1.38645 7.40095 1.41352 7.44252 1.44141 7.48535C1.70961 7.761 2.02057 7.94297 2.38459 8.06158C2.50989 8.12159 2.55246 8.17879 2.625 8.29688C2.64261 8.41146 2.64261 8.41146 2.64265 8.54231C2.643 8.59228 2.64336 8.64225 2.64373 8.69374C2.6434 8.7486 2.64308 8.80346 2.64275 8.85998C2.64296 8.91829 2.64317 8.9766 2.64339 9.03668C2.64384 9.19864 2.64366 9.36057 2.64323 9.52253C2.64291 9.69716 2.6434 9.87178 2.6438 10.0464C2.64439 10.3491 2.64448 10.6517 2.64425 10.9544C2.64394 11.3924 2.64452 11.8303 2.64536 12.2683C2.6467 12.9793 2.64752 13.6903 2.64791 14.4013C2.64794 14.4438 2.64796 14.4864 2.64799 14.5303C2.64815 14.8323 2.6483 15.1344 2.64844 15.4365C2.6486 15.7814 2.64877 16.1262 2.64897 16.471C2.64899 16.5135 2.64901 16.556 2.64904 16.5997C2.64945 17.3079 2.65041 18.016 2.65176 18.7242C2.65256 19.161 2.65287 19.5978 2.65254 20.0347C2.65234 20.334 2.65264 20.6334 2.65333 20.9328C2.6537 21.1055 2.65385 21.2782 2.65338 21.4509C2.65288 21.6382 2.65345 21.8255 2.65413 22.0128C2.65381 22.0673 2.65349 22.1219 2.65316 22.1781C2.65516 22.4611 2.66837 22.675 2.8125 22.9219C2.98485 23.0368 3.12793 23.0543 3.32813 23.0156C3.49296 22.8894 3.5738 22.7962 3.60938 22.5938C3.61355 22.5119 3.61523 22.43 3.61522 22.3481C3.61539 22.273 3.61539 22.273 3.61556 22.1964C3.61545 22.1415 3.61534 22.0866 3.61522 22.03C3.61532 21.9424 3.61532 21.9424 3.61542 21.8531C3.61553 21.7249 3.61556 21.5966 3.61544 21.4683C3.61525 21.2596 3.61538 21.051 3.61555 20.8423C3.61574 20.5786 3.61585 20.3149 3.61585 20.0512C3.61586 19.5332 3.61644 19.0151 3.61724 18.4971C3.61736 18.4156 3.61748 18.334 3.6176 18.2525C3.61779 18.1289 3.61797 18.0054 3.61816 17.8818C3.61886 17.4159 3.6195 16.9501 3.62007 16.4842C3.62012 16.4416 3.62017 16.399 3.62023 16.3551C3.62105 15.6647 3.62118 14.9742 3.62111 14.2837C3.62105 13.575 3.62188 12.8663 3.6235 12.1576C3.62447 11.7204 3.62471 11.2831 3.62404 10.8458C3.62365 10.5463 3.6241 10.2468 3.62523 9.94724C3.62585 9.77432 3.6261 9.60143 3.62532 9.42852C3.62449 9.24118 3.62546 9.0539 3.6266 8.86656C3.62581 8.78434 3.62581 8.78434 3.62499 8.70045C3.62939 8.33312 3.62939 8.33312 3.76541 8.14959C3.93674 8.03043 4.1153 7.94314 4.30445 7.85605C4.80761 7.61814 5.07203 7.21843 5.2674 6.70917C5.30352 6.60424 5.30352 6.60424 5.29688 6.46875C3.87375 6.46875 2.45063 6.46875 0.984378 6.46875Z" fill="#D62828"/>
<path d="M23.5371 -0.0292969C23.5749 -0.0299011 23.6128 -0.0305054 23.6517 -0.0311279C23.8223 0.0154917 23.8898 0.0974036 24 0.234375C24.0231 0.371046 24.0317 0.480263 24.0296 0.616694C24.03 0.65518 24.0303 0.693666 24.0307 0.733319C24.0316 0.862853 24.0308 0.992324 24.0301 1.12186C24.0304 1.21544 24.0308 1.30901 24.0313 1.40259C24.0324 1.66019 24.032 1.91776 24.0313 2.17536C24.0309 2.45301 24.0318 2.73066 24.0325 3.00831C24.0337 3.52102 24.0338 4.03372 24.0333 4.54643C24.0328 5.02026 24.0328 5.49408 24.0332 5.96791C24.0332 6.03145 24.0333 6.09498 24.0333 6.15852C24.0334 6.25427 24.0335 6.35001 24.0336 6.44576C24.0343 7.33619 24.0345 8.22663 24.0338 9.11706C24.0338 9.15064 24.0338 9.18422 24.0337 9.21882C24.0335 9.49151 24.0333 9.7642 24.033 10.0369C24.0321 11.0999 24.0326 12.163 24.0341 13.226C24.0358 14.4204 24.0366 15.6147 24.036 16.8091C24.0359 16.9365 24.0359 17.0639 24.0358 17.1913C24.0358 17.2227 24.0358 17.2541 24.0358 17.2864C24.0355 17.7596 24.036 18.2329 24.0369 18.7061C24.0379 19.2446 24.0378 19.7831 24.0365 20.3216C24.0358 20.5963 24.0357 20.871 24.0367 21.1458C24.0376 21.3974 24.0372 21.6491 24.0358 21.9007C24.0355 21.9916 24.0357 22.0825 24.0365 22.1734C24.0405 22.7222 24.0199 23.1889 23.6371 23.624C23.5596 23.699 23.482 23.7553 23.3906 23.8125C23.3469 23.8413 23.3469 23.8413 23.3024 23.8707C22.9752 24.0511 22.5815 24.0586 22.2187 24C21.8131 23.8714 21.5431 23.6635 21.3229 23.306C21.1488 22.9695 21.1676 22.6405 21.1783 22.2703C21.1796 22.2003 21.1807 22.1303 21.1818 22.0603C21.1843 21.9103 21.1872 21.7602 21.1905 21.6101C21.1955 21.3717 21.1982 21.1334 21.2003 20.895C21.2006 20.8546 21.201 20.8142 21.2014 20.7725C21.2021 20.6899 21.2028 20.6073 21.2036 20.5247C21.2086 19.9704 21.2152 19.4162 21.2281 18.862C21.2369 18.4872 21.2418 18.1126 21.2426 17.7377C21.2432 17.5399 21.2456 17.3425 21.2526 17.1448C21.3013 16.1582 21.3013 16.1582 20.851 15.3198C20.6998 15.1667 20.536 15.0324 20.3679 14.8981C19.9699 14.5751 19.6714 14.1062 19.5937 13.5938C19.5755 13.3509 19.5745 13.1095 19.5756 12.8662C19.5754 12.7937 19.5751 12.7212 19.5748 12.6486C19.5742 12.4528 19.5744 12.2569 19.5749 12.0611C19.5752 11.8549 19.5749 11.6488 19.5747 11.4426C19.5744 11.0961 19.5747 10.7495 19.5754 10.403C19.5762 10.0045 19.5759 9.6061 19.5752 9.20766C19.5745 8.86385 19.5744 8.52004 19.5748 8.17623C19.575 7.97167 19.5751 7.76712 19.5746 7.56256C19.5713 5.92949 19.5713 5.92949 19.7344 5.20312C19.7455 5.15339 19.7566 5.10366 19.768 5.05242C19.7952 4.9372 19.8264 4.82434 19.8604 4.71094C19.8722 4.67051 19.8841 4.63007 19.8964 4.58842C20.2916 3.28938 20.9755 2.16761 21.8906 1.17188C21.9447 1.11269 21.9447 1.11269 21.9999 1.05231C22.2939 0.745257 22.6297 0.489164 22.9687 0.234375C22.9967 0.212448 23.0247 0.190522 23.0535 0.167931C23.2144 0.0454369 23.3273 -0.0326701 23.5371 -0.0292969ZM22.5469 1.92188C21.9709 2.52802 21.5316 3.22497 21.1875 3.98438C21.1745 4.01311 21.1614 4.04185 21.148 4.07146C20.5472 5.42128 20.5237 6.82656 20.5234 8.2787C20.5234 8.37801 20.5233 8.47732 20.5232 8.57664C20.5227 8.92432 20.5225 9.27201 20.5226 9.6197C20.5226 9.94202 20.5221 10.2643 20.5214 10.5867C20.5207 10.8653 20.5205 11.144 20.5205 11.4226C20.5205 11.5882 20.5204 11.7538 20.5199 11.9194C20.5194 12.1039 20.5196 12.2884 20.5199 12.4728C20.5196 12.5267 20.5193 12.5806 20.5191 12.6361C20.5219 13.357 20.6683 13.8355 21.1782 14.3511C21.2791 14.4511 21.3811 14.5498 21.4834 14.6484C21.5614 14.7244 21.6393 14.8006 21.717 14.8768C21.7651 14.9239 21.8133 14.9707 21.8616 15.0174C22.0754 15.2251 22.0754 15.2251 22.0842 15.4061C22.0844 15.4595 22.0845 15.5129 22.0846 15.5679C22.0848 15.6291 22.0851 15.6903 22.0854 15.7533C22.0854 15.8215 22.0855 15.8897 22.0855 15.958C22.0857 16.0295 22.086 16.101 22.0862 16.1725C22.0868 16.3268 22.0872 16.4811 22.0875 16.6354C22.088 16.8794 22.0889 17.1235 22.09 17.3676C22.0929 18.0617 22.0954 18.7558 22.0969 19.4499C22.0978 19.8331 22.0992 20.2162 22.1011 20.5994C22.1021 20.8022 22.1028 21.0049 22.1029 21.2077C22.103 21.3986 22.1037 21.5894 22.105 21.7803C22.1053 21.8502 22.1054 21.9202 22.1052 21.9901C22.0948 22.4777 22.0948 22.4777 22.2656 22.9219C22.438 23.0368 22.5811 23.0543 22.7812 23.0156C22.9459 22.8895 23.0291 22.7965 23.0625 22.5938C23.0668 22.4758 23.0687 22.3592 23.0683 22.2412C23.0683 22.2054 23.0684 22.1696 23.0684 22.1327C23.0686 22.0119 23.0683 21.8912 23.0681 21.7704C23.0682 21.6832 23.0682 21.5961 23.0683 21.5089C23.0684 21.2688 23.0682 21.0287 23.0679 20.7887C23.0677 20.53 23.0678 20.2713 23.0678 20.0126C23.0679 19.5642 23.0677 19.1158 23.0675 18.6674C23.0671 18.0192 23.067 17.3709 23.0669 16.7226C23.0668 15.6709 23.0665 14.6191 23.066 13.5674C23.0656 12.5456 23.0653 11.5237 23.0651 10.5019C23.0651 10.4704 23.0651 10.4389 23.0651 10.4065C23.065 10.0903 23.0649 9.77402 23.0649 9.45778C23.0644 6.80519 23.0636 4.15259 23.0625 1.5C22.8912 1.5 22.6676 1.80189 22.5469 1.92188Z" fill="#D62828"/>
<path d="M16.3008 6.86426C17.4047 7.81863 18.143 8.99589 18.5156 10.4063C18.5382 10.4895 18.5382 10.4895 18.5612 10.5745C18.9494 12.3239 18.5546 14.1655 17.6103 15.665C16.68 17.0957 15.2414 18.0935 13.5937 18.5156C13.5152 18.5367 13.5152 18.5367 13.435 18.5581C11.6807 18.9476 9.83968 18.5579 8.33496 17.6104C6.90427 16.68 5.90654 15.2414 5.48437 13.5938C5.47035 13.5414 5.45634 13.489 5.44189 13.435C5.05245 11.6807 5.44214 9.83969 6.38965 8.33496C7.32621 6.89468 8.75675 5.92018 10.4062 5.48438C10.4618 5.46933 10.5173 5.45429 10.5745 5.43878C12.5705 4.99591 14.7446 5.55391 16.3008 6.86426ZM7.81549 8.12165C6.82732 9.16866 6.30715 10.5547 6.31347 11.9854C6.31357 12.0164 6.31368 12.0475 6.31378 12.0795C6.32221 13.696 6.98971 15.0487 8.12164 16.1845C9.16774 17.1718 10.6108 17.7257 12.0469 17.7188C13.7116 17.6574 15.1483 16.9763 16.2891 15.7676C17.2054 14.7187 17.6927 13.4029 17.6865 12.0147C17.6864 11.9836 17.6863 11.9525 17.6862 11.9205C17.6778 10.304 17.0103 8.95133 15.8784 7.81549C13.5486 5.61669 10.0127 5.932 7.81549 8.12165Z" fill="#D62828"/>
<path d="M18.8438 16.7812C18.9753 16.8441 19.0247 16.9007 19.125 17.0156C19.183 17.2034 19.1908 17.299 19.1138 17.4805C19.0316 17.6243 18.9451 17.7329 18.832 17.8535C18.7018 17.9938 18.5741 18.1345 18.4512 18.2812C17.0186 19.9087 14.7565 20.8269 12.629 20.9814C10.7622 21.0893 8.44611 20.7172 6.98437 19.4531C6.90334 19.291 6.91455 19.1147 6.9375 18.9375C7.02159 18.8029 7.07731 18.727 7.21875 18.6562C7.54095 18.6255 7.71539 18.7 7.98633 18.8672C8.06094 18.9107 8.13572 18.9539 8.21063 18.9968C8.26729 19.0293 8.26729 19.0293 8.3251 19.0625C9.18584 19.5413 10.1372 19.7964 11.1094 19.9219C11.1578 19.9286 11.2062 19.9353 11.256 19.9422C12.6889 20.0967 14.178 19.7946 15.4688 19.1719C15.5011 19.1564 15.5335 19.1409 15.5669 19.125C16.2472 18.796 16.8434 18.3689 17.3899 17.8473C17.4844 17.7656 17.4844 17.7656 17.5847 17.7191C17.6965 17.6585 17.7135 17.5983 17.7656 17.4844C17.8367 17.4058 17.8367 17.4058 17.918 17.3291C18.0609 17.1909 18.19 17.0467 18.3159 16.8929C18.4562 16.7391 18.6507 16.7501 18.8438 16.7812Z" fill="#D62828"/>
<path d="M17.9778 5.28204C18.0831 5.38068 18.1912 5.47377 18.3018 5.5664C18.6475 5.87235 18.6475 5.87235 18.6634 6.10473C18.6526 6.27378 18.6266 6.39313 18.5391 6.53906C18.3619 6.64537 18.2062 6.68052 18 6.65625C17.7632 6.54637 17.5928 6.34294 17.4141 6.1582C16.9049 5.64046 16.2993 5.25214 15.6562 4.92187C15.6248 4.90545 15.5933 4.88902 15.5609 4.87209C15.0337 4.5995 14.495 4.41668 13.9219 4.26562C13.8666 4.2507 13.8114 4.23577 13.7545 4.2204C12.0542 3.80863 10.1986 4.04563 8.62567 4.78612C8.39777 4.89091 8.22544 4.95221 7.96875 4.92187C7.82645 4.8365 7.75284 4.76627 7.66992 4.62304C7.63291 4.46762 7.64274 4.3722 7.6875 4.21875C7.83571 3.98483 8.00939 3.90293 8.25586 3.7998C8.29325 3.7838 8.33064 3.7678 8.36916 3.75131C11.5442 2.41785 15.4238 2.87842 17.9778 5.28204Z" fill="#D62828"/>
<path d="M10.6406 7.96874C10.9021 8.11677 10.9021 8.11677 10.9687 8.24999C10.9799 8.34319 10.9799 8.34319 10.9834 8.45214C10.986 8.50552 10.986 8.50552 10.9887 8.55999C10.9601 8.72057 10.8958 8.79092 10.7812 8.90624C10.6721 8.96844 10.5664 9.02312 10.4531 9.07616C9.68358 9.46342 9.16692 10.1217 8.85937 10.9219C8.77743 11.1707 8.72401 11.4176 8.69787 11.6781C8.69441 11.7115 8.69096 11.7449 8.68739 11.7794C8.68111 11.8447 8.67584 11.9102 8.67174 11.9757C8.65616 12.1477 8.62544 12.2338 8.51916 12.3719C8.38233 12.475 8.32473 12.5007 8.15625 12.498C8.09824 12.4989 8.09824 12.4989 8.03906 12.4999C7.86375 12.4533 7.7954 12.3789 7.6875 12.2344C7.6645 12.0944 7.65613 11.9867 7.66113 11.8476C7.66194 11.8106 7.66276 11.7735 7.66359 11.7353C7.70953 10.5597 8.26489 9.53029 9.10803 8.73009C9.47646 8.39642 10.1175 7.87575 10.6406 7.96874Z" fill="#D62828"/>
<path d="M6.23438 17.5312C6.37872 17.6255 6.44494 17.6913 6.49787 17.8564C6.52691 18.0145 6.52244 18.1245 6.45996 18.2725C6.32018 18.4412 6.25017 18.5088 6.02637 18.5332C5.84969 18.5146 5.7644 18.4825 5.625 18.375C5.4919 18.1753 5.49657 17.9998 5.53125 17.7656C5.69732 17.4888 5.93735 17.4717 6.23438 17.5312Z" fill="#D62828"/>
<path d="M12.2344 7.68749C12.3809 7.77539 12.3809 7.77539 12.4687 7.92187C12.5008 8.08498 12.5019 8.22762 12.4687 8.39062C12.3577 8.55066 12.2824 8.60828 12.0996 8.67187C11.9078 8.67187 11.7915 8.6255 11.625 8.53124C11.5186 8.40422 11.4882 8.32256 11.4639 8.15917C11.4898 7.97754 11.559 7.87714 11.6719 7.73437C11.847 7.64681 12.0437 7.66235 12.2344 7.68749Z" fill="#D62828"/>
</g>
<defs>
<clipPath id="clip0_511_2011">
<rect width="24" height="24" fill="white"/>
</clipPath>
</defs>
</svg>
