<svg width="24" height="24" viewBox="0 0 24 24" fill="none" xmlns="http://www.w3.org/2000/svg">
<g clip-path="url(#clip0_128_506)">
<path d="M20.3438 7.82812C20.3858 7.86318 20.3858 7.86318 20.4286 7.89894C21.0197 8.39333 21.579 8.9194 22.125 9.46289C22.1738 9.51135 22.1738 9.51135 22.2236 9.56079C22.4346 9.7725 22.6333 9.99215 22.8281 10.2187C22.8777 10.2751 22.9273 10.3315 22.977 10.3878C24.0339 11.592 24.0339 11.592 24.0234 12.1302C23.9595 12.5421 23.632 12.8544 23.3575 13.1483C23.2525 13.2629 23.156 13.3811 23.0596 13.5029C22.6278 14.035 22.1392 14.5207 21.6563 15.0059C21.6243 15.038 21.5924 15.0702 21.5595 15.1033C21.3494 15.3127 21.1311 15.5097 20.9063 15.7031C20.8499 15.7527 20.7935 15.8023 20.7373 15.852C20.3933 16.1539 20.0451 16.4462 19.6775 16.7191C19.619 16.7625 19.5607 16.8062 19.5025 16.85C18.6503 17.4914 17.7387 18.0455 16.7813 18.5156C16.7262 18.5427 16.7262 18.5427 16.6699 18.5703C14.1542 19.7889 11.3113 20.0297 8.65314 19.1219C6.80272 18.4575 5.15799 17.4303 3.65626 16.1719C3.62824 16.1485 3.60023 16.1251 3.57137 16.1011C2.98034 15.6067 2.421 15.0806 1.87501 14.5371C1.82622 14.4886 1.82622 14.4886 1.77644 14.4392C1.56539 14.2275 1.36675 14.0078 1.17188 13.7812C1.12232 13.7249 1.0727 13.6685 1.02302 13.6122C-0.0338933 12.408 -0.0338933 12.408 -0.02343 11.8698C0.0404766 11.4579 0.367997 11.1456 0.642525 10.8517C0.747478 10.7371 0.843987 10.6189 0.940437 10.4971C1.37222 9.965 1.8608 9.47934 2.34376 8.99414C2.37569 8.96198 2.40763 8.92983 2.44053 8.8967C2.65065 8.68725 2.8689 8.49031 3.09376 8.29687C3.15015 8.24731 3.20649 8.19769 3.26276 8.14801C3.60693 7.84588 3.95527 7.5535 4.32317 7.2805C4.3807 7.23774 4.43803 7.19473 4.4952 7.1515C8.834 3.8757 13.8689 3.45502 20.3438 7.82812ZM5.29688 8.625C5.25827 8.65509 5.21966 8.68518 5.17988 8.71618C4.42631 9.3118 3.72716 9.95725 3.04688 10.6348C3.0099 10.6715 2.97291 10.7083 2.9348 10.7462C2.62634 11.0555 2.34078 11.3799 2.06544 11.7187C2.02924 11.7632 1.99305 11.8077 1.95576 11.8535C1.92911 11.8864 1.90246 11.9193 1.87501 11.9531C1.94534 12.191 2.0905 12.3332 2.2588 12.5068C2.31128 12.5618 2.36371 12.6168 2.41608 12.6718C2.4429 12.6999 2.46972 12.728 2.49735 12.757C2.57774 12.8433 2.65479 12.9318 2.73157 13.0214C2.94164 13.2633 3.16858 13.4879 3.39552 13.7139C3.43784 13.7564 3.48017 13.7989 3.52378 13.8427C3.76349 14.082 4.00769 14.3117 4.26563 14.5312C4.31859 14.5774 4.37151 14.6236 4.42439 14.6699C5.54633 15.6434 6.76332 16.4768 8.10938 17.1094C8.15474 17.1307 8.15474 17.1307 8.201 17.1525C10.3516 18.1548 12.633 18.3248 14.8837 17.5366C16.2717 17.0308 17.5401 16.2828 18.7031 15.375C18.7417 15.3449 18.7804 15.3148 18.8201 15.2838C19.5737 14.6882 20.2729 14.0427 20.9531 13.3652C21.0086 13.3101 21.0086 13.3101 21.0652 13.2538C21.3737 12.9445 21.6592 12.6201 21.9346 12.2812C21.9708 12.2368 22.007 12.1923 22.0443 12.1465C22.0709 12.1136 22.0976 12.0807 22.125 12.0469C22.0545 11.7993 21.8924 11.6494 21.7178 11.4697C21.6609 11.4104 21.6041 11.351 21.5473 11.2916C21.5186 11.2615 21.4899 11.2315 21.4603 11.2006C21.3773 11.1119 21.2978 11.021 21.2186 10.9288C21.0168 10.6962 20.7993 10.4799 20.5811 10.2627C20.541 10.2224 20.5009 10.1821 20.4596 10.1407C20.2254 9.90686 19.9858 9.6837 19.7344 9.46875C19.6852 9.42537 19.6362 9.38192 19.5872 9.33838C18.9153 8.74799 18.1937 8.21208 17.4375 7.73437C17.4091 7.7164 17.3807 7.69842 17.3514 7.6799C16.9386 7.42092 16.5148 7.19246 16.0756 6.9816C15.9884 6.93946 15.9019 6.89623 15.8154 6.85272C12.1737 5.06963 8.34662 6.24449 5.29688 8.625Z" fill="#D62828"/>
<path d="M11.8458 7.21307C13.0556 7.1855 14.1554 7.58381 15.0937 8.34375C15.1398 8.37901 15.1398 8.37901 15.1868 8.41498C16.0965 9.139 16.637 10.3615 16.7695 11.4961C16.7746 11.5702 16.7785 11.6445 16.7812 11.7187C16.7831 11.7607 16.785 11.8026 16.7869 11.8458C16.8145 13.0556 16.4162 14.1554 15.6562 15.0937C15.6327 15.1244 15.6092 15.1551 15.585 15.1868C14.861 16.0965 13.6385 16.637 12.5039 16.7695C12.4298 16.7746 12.3555 16.7785 12.2812 16.7812C12.2393 16.7831 12.1974 16.785 12.1542 16.7869C10.9444 16.8145 9.84459 16.4162 8.90625 15.6562C8.87555 15.6327 8.84486 15.6092 8.81323 15.585C7.90351 14.861 7.36299 13.6385 7.23047 12.5039C7.22542 12.4298 7.22153 12.3555 7.21875 12.2812C7.21594 12.2183 7.21594 12.2183 7.21307 12.1542C7.1855 10.9444 7.58381 9.84459 8.34375 8.90625C8.36725 8.87555 8.39076 8.84486 8.41498 8.81323C9.139 7.90351 10.3615 7.36299 11.4961 7.23047C11.6126 7.22253 11.7291 7.21828 11.8458 7.21307ZM9.51159 10.0532C8.9895 10.7554 8.75407 11.6032 8.87235 12.4701C9.01804 13.324 9.47073 14.0553 10.166 14.5723C10.9218 15.0618 11.7719 15.2724 12.659 15.0924C13.4753 14.9006 14.1886 14.4263 14.6473 13.7181C15.1104 12.9119 15.2851 12.0581 15.0455 11.1534C14.8116 10.367 14.3096 9.69243 13.5937 9.28125C12.1626 8.50993 10.5567 8.81631 9.51159 10.0532Z" fill="#D62828"/>
</g>
<defs>
<clipPath id="clip0_128_506">
<rect width="24" height="24" fill="white"/>
</clipPath>
</defs>
</svg>
