<svg width="34" height="34" viewBox="0 0 34 34" fill="none" xmlns="http://www.w3.org/2000/svg">
<g clip-path="url(#clip0_225_468)">
<path d="M17.7139 4.88501C18.1897 5.20774 18.4353 5.75777 18.6755 6.26138C18.7229 6.35897 18.7229 6.35897 18.7712 6.45853C18.8717 6.66562 18.9714 6.87308 19.071 7.08057C19.2019 7.35129 19.333 7.62188 19.464 7.89249C19.4962 7.95895 19.5283 8.02541 19.5615 8.09388C19.7926 8.57118 20.0257 9.04751 20.2614 9.52255C20.2921 9.58486 20.3228 9.64718 20.3544 9.71137C20.3829 9.76851 20.4114 9.82565 20.4408 9.88451C20.4657 9.93472 20.4906 9.98493 20.5163 10.0367C20.5846 10.1707 20.5846 10.1707 20.7188 10.293C20.8864 10.3274 21.0499 10.3543 21.2192 10.377C21.2708 10.3843 21.3224 10.3917 21.3756 10.3993C21.4879 10.4153 21.6003 10.431 21.7127 10.4465C21.8909 10.4711 22.069 10.4965 22.2471 10.522C22.7535 10.5947 23.2601 10.6659 23.7668 10.7366C24.0766 10.7799 24.3863 10.8241 24.696 10.8689C24.8137 10.8857 24.9315 10.9021 25.0494 10.9182C25.215 10.9409 25.3803 10.9646 25.5457 10.9886C25.5939 10.9949 25.642 11.0012 25.6917 11.0077C26.1222 11.0724 26.5267 11.2163 26.8198 11.5505C27.0312 11.8551 27.1145 12.101 27.1228 12.4719C27.1255 12.5367 27.1281 12.6015 27.1308 12.6683C27.0375 13.2084 26.623 13.5794 26.2429 13.9453C26.1969 13.9904 26.1509 14.0355 26.1035 14.082C25.9913 14.1919 25.8787 14.3012 25.7656 14.4102C25.9501 14.5097 26.1187 14.5713 26.3233 14.6158C26.3805 14.6285 26.4377 14.6411 26.4966 14.6542C26.5579 14.6674 26.6192 14.6806 26.6823 14.6942C26.8128 14.7231 26.9433 14.752 27.0738 14.781C27.2789 14.826 27.4841 14.8709 27.6893 14.9156C27.8878 14.9589 28.0861 15.0029 28.2844 15.047C28.3454 15.0601 28.4064 15.0731 28.4693 15.0866C28.5269 15.0995 28.5845 15.1123 28.6439 15.1256C28.6941 15.1365 28.7443 15.1475 28.7961 15.1588C29.227 15.2912 29.4953 15.5216 29.8042 15.8352C29.8475 15.8784 29.8909 15.9216 29.9355 15.9661C30.078 16.1084 30.2197 16.2513 30.3614 16.3943C30.4604 16.4935 30.5594 16.5926 30.6585 16.6918C30.8656 16.8992 31.0724 17.1069 31.2789 17.3149C31.544 17.5819 31.8097 17.8483 32.0757 18.1146C32.2799 18.3191 32.484 18.5238 32.688 18.7286C32.7859 18.827 32.8839 18.9253 32.982 19.0235C33.1185 19.1606 33.2549 19.2978 33.3911 19.4351C33.4319 19.4759 33.4726 19.5168 33.5146 19.5588C33.8559 19.9036 33.8559 19.9036 33.8921 20.175C33.866 20.3969 33.8234 20.487 33.6617 20.6385C33.3671 20.8254 33.004 20.8694 32.6672 20.94C32.5404 20.9681 32.5404 20.9681 32.411 20.9967C32.1871 21.0461 31.9628 21.0941 31.7385 21.1417C31.5553 21.1809 31.3723 21.2212 31.1893 21.2616C30.8113 21.3449 30.4331 21.4273 30.0545 21.5081C29.954 21.5296 29.954 21.5296 29.8515 21.5515C29.6836 21.582 29.6836 21.582 29.4844 21.582C29.4846 21.6275 29.4847 21.6729 29.4849 21.7197C29.4893 22.826 29.4926 23.9323 29.4947 25.0386C29.4957 25.5736 29.4971 26.1086 29.4994 26.6436C29.5014 27.11 29.5027 27.5764 29.5031 28.0428C29.5034 28.2896 29.504 28.5365 29.5054 28.7834C29.507 29.0592 29.5071 29.335 29.507 29.6108C29.5081 29.7332 29.5081 29.7332 29.5092 29.8579C29.5075 30.3291 29.4881 30.6909 29.185 31.0709C29.1496 31.1007 29.1141 31.1304 29.0776 31.1611C29.0432 31.1916 29.0088 31.2221 28.9734 31.2535C28.5622 31.496 28.0652 31.5879 27.6034 31.691C27.5443 31.7045 27.4853 31.7179 27.4244 31.7318C27.2295 31.7761 27.0345 31.82 26.8395 31.8638C26.7009 31.8953 26.5623 31.9267 26.4237 31.9582C26.0539 32.0422 25.684 32.1258 25.314 32.2093C24.7031 32.3472 24.0922 32.4855 23.4814 32.6239C23.3292 32.6583 23.1771 32.6928 23.0249 32.7272C22.1328 32.929 21.2412 33.1329 20.3509 33.3431C20.2061 33.3773 20.0612 33.4114 19.9163 33.4454C19.8248 33.4668 19.7334 33.4883 19.6419 33.5098C19.5983 33.52 19.5547 33.5302 19.5098 33.5408C19.3009 33.5899 19.0921 33.6395 18.8834 33.6898C18.6578 33.7442 18.4319 33.7974 18.2059 33.8503C18.1434 33.8658 18.0809 33.8813 18.0165 33.8973C17.0336 34.1237 16.1545 33.9435 15.1946 33.7165C15.0674 33.6871 14.9401 33.6578 14.8128 33.6286C14.5479 33.5675 14.2832 33.5058 14.0186 33.4435C13.68 33.3639 13.3412 33.2856 13.0022 33.2077C12.7401 33.1475 12.4782 33.0867 12.2164 33.0257C12.0914 32.9966 11.9665 32.9677 11.8415 32.9389C11.6671 32.8986 11.4928 32.8576 11.3186 32.8164C11.2675 32.8047 11.2164 32.793 11.1637 32.7809C10.8734 32.7114 10.6193 32.6253 10.3594 32.4727C10.2579 32.2697 10.2775 32.0988 10.293 31.875C10.3677 31.7173 10.3677 31.7173 10.4922 31.6094C10.8292 31.5181 11.1098 31.5715 11.4418 31.6513C11.4956 31.6635 11.5495 31.6758 11.6049 31.6885C11.7818 31.7291 11.9585 31.7708 12.1352 31.8125C12.2582 31.8409 12.3812 31.8693 12.5042 31.8976C12.8273 31.9722 13.1502 32.0476 13.473 32.1233C13.8027 32.2004 14.1327 32.2766 14.4626 32.3529C15.1093 32.5027 15.7559 32.6534 16.4023 32.8047C16.4026 32.7414 16.4028 32.678 16.4031 32.6128C16.4055 32.0158 16.4094 31.4188 16.4146 30.8218C16.4172 30.5149 16.4193 30.208 16.4203 29.9011C16.4213 29.6048 16.4236 29.3086 16.4268 29.0124C16.4278 28.8994 16.4283 28.7864 16.4284 28.6735C16.4285 28.5151 16.4303 28.3568 16.4325 28.1985C16.432 28.1286 16.432 28.1286 16.4315 28.0572C16.4382 27.7423 16.5108 27.5801 16.7344 27.3594C16.8672 27.3153 16.8672 27.3153 17 27.3179C17.0438 27.317 17.0877 27.3162 17.1328 27.3153C17.3431 27.3851 17.412 27.508 17.5312 27.6914C17.5575 27.8695 17.5688 28.0207 17.5675 28.1985C17.5682 28.2484 17.5689 28.2983 17.5696 28.3498C17.5715 28.514 17.5716 28.6781 17.5717 28.8424C17.5727 28.9565 17.5738 29.0707 17.575 29.1849C17.5779 29.4848 17.5793 29.7846 17.5803 30.0845C17.5816 30.3908 17.5844 30.697 17.587 31.0033C17.592 31.6038 17.5954 32.2042 17.5977 32.8047C18.6092 32.5726 19.6208 32.3405 20.6324 32.1084C21.1024 32.0005 21.5725 31.8926 22.0425 31.7848C22.18 31.7533 22.3174 31.7217 22.4549 31.6902C22.5461 31.6693 22.6372 31.6484 22.7284 31.6274C23.2213 31.5144 23.7141 31.4012 24.207 31.288C24.2503 31.278 24.2937 31.2681 24.3383 31.2578C24.5519 31.2087 24.7655 31.1597 24.979 31.1106C25.4327 31.0064 25.8865 30.9025 26.3404 30.7989C26.5885 30.7423 26.8366 30.6856 27.0846 30.6287C27.1959 30.6033 27.3072 30.578 27.4186 30.5527C27.5671 30.519 27.7157 30.485 27.8642 30.4509C27.9455 30.4323 28.0268 30.4138 28.1106 30.3947C28.2825 30.3654 28.2824 30.3654 28.3555 30.2813C28.3627 30.172 28.3652 30.0625 28.366 29.9531C28.3666 29.882 28.3673 29.811 28.3679 29.7378C28.3683 29.6592 28.3687 29.5805 28.3691 29.4995C28.3698 29.4173 28.3704 29.335 28.3711 29.2502C28.3728 29.024 28.3743 28.7978 28.3756 28.5715C28.3771 28.3353 28.3789 28.0991 28.3807 27.863C28.384 27.4154 28.387 26.9678 28.3898 26.5203C28.3931 26.0109 28.3967 25.5015 28.4004 24.9921C28.408 23.9439 28.4151 22.8958 28.4219 21.8477C28.3396 21.8688 28.3396 21.8688 28.2556 21.8903C28.0491 21.9429 27.8424 21.9948 27.6356 22.0463C27.5466 22.0685 27.4578 22.0911 27.369 22.1139C26.2922 22.3903 26.2922 22.3903 25.832 22.3125C25.6536 22.1755 25.6536 22.1755 25.5664 21.9805C25.5703 21.7552 25.5754 21.5927 25.7126 21.4085C25.8726 21.2851 26.0141 21.2565 26.2111 21.2126C26.2892 21.1948 26.3673 21.1771 26.4477 21.1587C26.5327 21.1401 26.6176 21.1216 26.7052 21.1024C26.7946 21.0823 26.884 21.0621 26.9734 21.0419C27.1615 20.9994 27.3496 20.9573 27.5379 20.9155C27.8154 20.8537 28.0925 20.7905 28.3695 20.7268C28.7743 20.6338 29.1792 20.5415 29.5843 20.4498C29.8135 20.3979 30.0427 20.3459 30.2717 20.2935C30.4996 20.2415 30.7275 20.1898 30.9555 20.1382C31.0819 20.1096 31.2083 20.0806 31.3347 20.0517C31.4107 20.0346 31.4866 20.0175 31.5649 19.9998C31.6647 19.9772 31.6647 19.9772 31.7666 19.954C31.9414 19.9219 31.9414 19.9219 32.207 19.9219C31.6957 19.3226 31.1444 18.7618 30.5921 18.2007C30.4232 18.029 30.2549 17.8567 30.0882 17.6829C29.9255 17.5133 29.7613 17.3454 29.5958 17.1786C29.5032 17.0845 29.4124 16.9888 29.3216 16.8931C29.2646 16.8363 29.2077 16.7795 29.149 16.721C29.0998 16.6705 29.0506 16.6201 29 16.5681C28.7279 16.4176 28.5196 16.4754 28.2227 16.5352C28.1317 16.5533 28.1317 16.5533 28.0388 16.5719C27.8276 16.6166 27.6173 16.6645 27.407 16.7132C27.3273 16.7313 27.2476 16.7495 27.1655 16.7682C26.9482 16.8177 26.731 16.8676 26.5137 16.9176C26.2842 16.9704 26.0546 17.0228 25.8251 17.0753C25.4385 17.1637 25.052 17.2523 24.6655 17.3411C24.1749 17.4538 23.6841 17.5662 23.1933 17.6784C22.766 17.7761 22.3389 17.8739 21.9117 17.9718C21.7772 18.0026 21.6427 18.0334 21.5082 18.0642C20.3801 18.3226 19.2536 18.5867 18.1289 18.8594C18.5257 19.3167 18.9296 19.7663 19.3435 20.2082C19.5357 20.4138 19.7248 20.6209 19.9084 20.8342C20.645 21.7527 20.645 21.7527 21.654 22.2676C22.2691 22.2853 22.8653 22.0755 23.4293 21.8503C23.6491 21.7785 23.8096 21.761 24.0391 21.7813C24.23 21.8809 24.23 21.8809 24.3711 22.0469C24.4186 22.2338 24.4321 22.3943 24.3711 22.5781C24.115 22.8266 23.8598 22.912 23.5192 22.9859C23.4447 23.003 23.4447 23.003 23.3686 23.0205C23.2638 23.0444 23.1589 23.0678 23.0538 23.0908C22.8947 23.1257 22.736 23.1623 22.5773 23.1991C22.4749 23.2222 22.3724 23.2452 22.27 23.2681C22.2232 23.2789 22.1765 23.2897 22.1284 23.3008C21.9909 23.3304 21.854 23.3544 21.7148 23.375C21.6657 23.3826 21.6166 23.3901 21.566 23.3979C21.3411 23.417 21.1824 23.4145 20.9862 23.2957C20.8441 23.1741 20.7155 23.045 20.5859 22.9102C20.4744 22.8011 20.3629 22.6921 20.2513 22.5831C20.1275 22.4592 20.0039 22.3352 19.8804 22.2111C19.8141 22.1447 19.7479 22.0784 19.6817 22.0121C19.509 21.8392 19.3366 21.6661 19.1642 21.493C18.9876 21.3157 18.8108 21.1386 18.634 20.9614C18.2883 20.6151 17.9429 20.2686 17.5977 19.9219C17.5974 19.9945 17.5972 20.0671 17.5969 20.1419C17.5945 20.8259 17.5906 21.5099 17.5854 22.1939C17.5828 22.5456 17.5807 22.8972 17.5797 23.2489C17.5787 23.5882 17.5764 23.9274 17.5732 24.2667C17.5722 24.3963 17.5717 24.5258 17.5716 24.6553C17.5715 24.8366 17.5697 25.0178 17.5675 25.199C17.5678 25.2527 17.5682 25.3064 17.5685 25.3617C17.5641 25.5984 17.5521 25.7377 17.4084 25.93C17.2217 26.0625 17.0959 26.093 16.8672 26.0977C16.564 25.9562 16.564 25.9562 16.4688 25.7656C16.4606 25.5813 16.4564 25.3985 16.4551 25.2141C16.4545 25.1571 16.4538 25.1001 16.4531 25.0413C16.451 24.8523 16.4494 24.6633 16.4477 24.4743C16.4464 24.3435 16.445 24.2127 16.4436 24.0819C16.4399 23.7371 16.4366 23.3923 16.4334 23.0476C16.4301 22.6959 16.4264 22.3443 16.4227 21.9927C16.4156 21.3024 16.4088 20.6121 16.4023 19.9219C16.3391 19.9853 16.3391 19.9853 16.2747 20.05C15.8781 20.4479 15.4814 20.8456 15.0845 21.2432C14.8805 21.4476 14.6765 21.652 14.4726 21.8566C14.276 22.054 14.0792 22.2512 13.8823 22.4482C13.8071 22.5235 13.732 22.5989 13.6569 22.6744C13.5519 22.7798 13.4468 22.885 13.3416 22.9902C13.2817 23.0502 13.2219 23.1102 13.1602 23.172C12.9241 23.3951 12.7666 23.3893 12.4544 23.3855C12.1703 23.3679 11.8997 23.3062 11.6231 23.2419C11.5598 23.2278 11.4966 23.2137 11.4314 23.1991C11.2242 23.1526 11.0172 23.1052 10.8102 23.0578C10.6656 23.0251 10.5211 22.9925 10.3765 22.96C9.99718 22.8744 9.61805 22.7881 9.23896 22.7016C8.92882 22.631 8.61855 22.561 8.30828 22.491C7.9386 22.4075 7.56898 22.3239 7.19937 22.2401C7.09344 22.2161 7.09344 22.2161 6.98536 22.1916C6.78617 22.1465 6.58701 22.1011 6.38787 22.0557C6.32868 22.0423 6.26948 22.0289 6.20849 22.015C6.15432 22.0027 6.10015 21.9903 6.04434 21.9775C5.99731 21.9668 5.95028 21.9561 5.90182 21.9451C5.79248 21.9178 5.68502 21.8833 5.57812 21.8477C5.60004 24.6307 5.62195 27.4138 5.64453 30.2813C6.03228 30.4105 6.39888 30.5242 6.79497 30.6091C6.89713 30.6318 6.99929 30.6544 7.10145 30.6771C7.25965 30.7118 7.41788 30.7463 7.57617 30.7807C7.73091 30.8143 7.8855 30.8487 8.04008 30.8831C8.08699 30.893 8.1339 30.903 8.18223 30.9133C8.46722 30.9771 8.715 31.0583 8.96484 31.2109C9.0686 31.4351 9.0686 31.4351 9.09766 31.6758C9.01958 31.871 8.95499 31.9708 8.77918 32.0859C8.5928 32.1556 8.48644 32.136 8.29144 32.0986C8.1857 32.0785 8.1857 32.0785 8.07783 32.0581C7.998 32.0415 7.91818 32.0249 7.83594 32.0078C7.76971 31.9941 7.76971 31.9941 7.70214 31.9801C7.40477 31.918 7.10824 31.8526 6.81199 31.7854C6.6567 31.7504 6.5012 31.7163 6.34569 31.6823C5.06754 31.3966 5.06754 31.3966 4.64844 30.8789C4.54094 30.6095 4.49911 30.3838 4.49965 30.0947C4.49947 30.0193 4.49929 29.9439 4.4991 29.8662C4.49982 29.7435 4.49982 29.7435 4.50055 29.6184C4.50053 29.5315 4.50051 29.4447 4.50049 29.3552C4.50045 29.1179 4.50123 28.8805 4.50216 28.6432C4.50299 28.3949 4.50307 28.1466 4.50322 27.8982C4.50364 27.4283 4.50473 26.9585 4.50606 26.4886C4.50755 25.9535 4.50828 25.4184 4.50894 24.8833C4.51033 23.7828 4.51266 22.6824 4.51562 21.582C4.46255 21.5733 4.40948 21.5646 4.3548 21.5557C4.28431 21.544 4.21381 21.5324 4.14118 21.5204C4.03692 21.5033 4.03692 21.5033 3.93056 21.4858C3.37908 21.3906 2.8331 21.2656 2.28665 21.1453C2.13666 21.1126 1.98655 21.0803 1.83634 21.0486C1.61763 21.0023 1.39933 20.9545 1.18105 20.9063C1.11408 20.8924 1.04712 20.8786 0.978131 20.8643C0.598043 20.7782 0.370037 20.7033 0.132812 20.3867C0.0830078 20.2 0.0830078 20.2 0.132812 19.9883C0.209859 19.8844 0.209859 19.8844 0.3159 19.7681C0.358287 19.7212 0.400674 19.6742 0.444345 19.6258C0.520234 19.5423 0.520234 19.5423 0.597656 19.457C0.657764 19.3893 0.717773 19.3214 0.777702 19.2534C1.33979 18.6175 1.91628 17.9954 2.50269 17.3818C2.57182 17.3094 2.57182 17.3094 2.64234 17.2356C4.32525 15.4823 5.72587 14.5442 8.23438 14.4766C8.17207 14.403 8.10963 14.3295 8.04714 14.2561C8.01238 14.2152 7.97763 14.1742 7.94182 14.1321C7.73286 13.8945 7.49959 13.6817 7.27071 13.4636C6.93107 13.0888 6.86915 12.7751 6.88316 12.2833C6.92829 11.8975 7.07801 11.6213 7.36694 11.3638C7.80585 11.0592 8.27633 11.0205 8.79468 10.9446C8.9157 10.9256 8.9157 10.9256 9.03916 10.9063C9.11727 10.8947 9.19538 10.8831 9.27586 10.8712C9.34678 10.8605 9.4177 10.8499 9.49076 10.839C9.75039 10.8203 9.99187 10.8239 10.2141 10.9695C10.3291 11.1449 10.351 11.2793 10.3594 11.4883C10.2685 11.688 10.2127 11.796 10.0107 11.8893C9.95048 11.9022 9.89021 11.915 9.82812 11.9282C9.75853 11.9433 9.68894 11.9584 9.61723 11.9739C9.25105 12.0397 8.8839 12.0989 8.51569 12.1522C8.25385 12.1683 8.25385 12.1683 8.03516 12.2852C7.99945 12.4372 7.99945 12.4372 8.03516 12.6172C8.15078 12.7627 8.26111 12.8835 8.39417 13.011C8.43123 13.0477 8.46829 13.0845 8.50648 13.1223C8.62531 13.2397 8.74525 13.3559 8.86523 13.4722C8.94399 13.5498 9.02268 13.6276 9.10129 13.7054C9.40408 14.0038 9.70658 14.3014 10.0299 14.5777C10.3831 14.88 10.7072 15.2129 11.035 15.542C11.1489 15.6562 11.263 15.77 11.3773 15.8838C11.4501 15.9567 11.5229 16.0296 11.5957 16.1025C11.6296 16.1363 11.6636 16.1701 11.6986 16.205C12.0859 16.5949 12.0859 16.5949 12.0859 16.8672C12.1886 16.8771 12.1886 16.8771 12.2933 16.8873C12.6739 16.9351 13.0445 17.0254 13.4176 17.1128C13.5513 17.1441 13.6852 17.1749 13.819 17.2057C14.1993 17.2931 14.5795 17.381 14.9594 17.4697C15.1928 17.5242 15.4264 17.578 15.6601 17.6314C15.791 17.6615 15.9218 17.6924 16.0526 17.7232C16.8879 17.9138 17.4994 17.8443 18.3253 17.6454C18.4205 17.623 18.5158 17.6007 18.6111 17.5784C18.8604 17.52 19.1095 17.4609 19.3585 17.4015C19.7582 17.3064 20.158 17.2122 20.558 17.1184C20.6973 17.0856 20.8364 17.0523 20.9756 17.0191C21.06 16.9991 21.1445 16.9792 21.2315 16.9586C21.343 16.9321 21.343 16.9321 21.4566 16.905C21.6484 16.8672 21.6484 16.8672 21.9141 16.8672C21.9212 16.8281 21.9283 16.7891 21.9356 16.7489C22.0976 16.2172 22.7424 15.763 23.1321 15.3748C23.2378 15.2695 23.3432 15.1638 23.4485 15.058C23.7682 14.7382 24.0906 14.4258 24.4343 14.1315C24.7338 13.8677 25.0165 13.5861 25.3008 13.3062C25.3329 13.2753 25.3651 13.2443 25.3982 13.2125C25.4924 13.1219 25.5855 13.0301 25.6785 12.9383C25.761 12.8577 25.761 12.8577 25.8453 12.7755C25.9827 12.5936 25.9921 12.5077 25.9648 12.2852C25.6681 12.1768 25.385 12.1173 25.0724 12.0734C25.0246 12.0665 24.9768 12.0597 24.9276 12.0527C24.8245 12.038 24.7213 12.0235 24.6182 12.0091C24.4545 11.9863 24.2908 11.9629 24.1272 11.9395C23.6623 11.8728 23.1972 11.8071 22.732 11.7417C22.4469 11.7016 22.1618 11.6609 21.8768 11.6198C21.7687 11.6044 21.6605 11.5891 21.5523 11.5742C21.4005 11.5531 21.2488 11.5314 21.0971 11.5094C21.011 11.4973 20.9249 11.4852 20.8362 11.4727C20.2206 11.3477 19.8932 11.1409 19.5234 10.625C19.3908 10.3999 19.2825 10.168 19.1766 9.92929C19.1141 9.79373 19.0515 9.65822 18.9888 9.52275C18.9568 9.45292 18.9248 9.38308 18.8918 9.31113C18.6291 8.74379 18.349 8.18451 18.0715 7.62424C18.0007 7.48071 17.9302 7.337 17.8601 7.19311C17.757 6.9817 17.6527 6.77091 17.5481 6.56021C17.5169 6.49562 17.4857 6.43104 17.4536 6.36449C17.4093 6.27617 17.4093 6.27617 17.3641 6.18606C17.3386 6.13419 17.313 6.08232 17.2868 6.02888C17.207 5.90137 17.207 5.90137 17.0686 5.84726C16.9314 5.83053 16.9314 5.83053 16.8307 5.91394C16.7046 6.08291 16.6148 6.25834 16.5209 6.44729C16.5006 6.48792 16.4802 6.52855 16.4593 6.57041C16.3923 6.70457 16.3259 6.839 16.2594 6.97344C16.2127 7.06718 16.166 7.16091 16.1192 7.25462C15.9962 7.50151 15.8736 7.74864 15.7511 7.99582C15.6271 8.24578 15.5027 8.49551 15.3784 8.74526C15.2167 9.07007 15.0551 9.39494 14.8938 9.71997C14.8338 9.84082 14.7738 9.96164 14.7137 10.0825C14.6504 10.2102 14.5874 10.338 14.5249 10.4662C14.4036 10.7137 14.2993 10.9028 14.0864 11.0815C14.0441 11.1184 14.0019 11.1552 13.9583 11.1931C13.4027 11.5588 12.4695 11.6434 11.8203 11.5547C11.6418 11.4509 11.6418 11.4509 11.5547 11.2891C11.5256 11.0564 11.5199 10.897 11.6219 10.6836C11.8187 10.4972 12.0428 10.4852 12.3018 10.4507C12.4958 10.4222 12.6894 10.3918 12.8828 10.3594C13.0068 10.3391 13.0068 10.3391 13.1334 10.3184C13.4267 10.1927 13.5097 10.0048 13.6382 9.72852C13.6648 9.67476 13.6914 9.621 13.7188 9.56561C13.7809 9.44003 13.8423 9.3141 13.9032 9.18793C14.0278 8.93176 14.1558 8.67744 14.2843 8.42322C14.9401 7.13305 14.9401 7.13305 15.5482 5.82002C15.762 5.34833 16.0412 4.97453 16.5352 4.78125C16.9182 4.6626 17.3553 4.70452 17.7139 4.88501ZM8.20532 15.5681C8.13774 15.5843 8.07016 15.6004 8.00053 15.617C7.83479 15.6567 7.66928 15.6971 7.50391 15.7383C7.73489 15.8923 7.95549 15.9421 8.22166 16.0026C8.27234 16.0144 8.32302 16.0261 8.37523 16.0382C8.4823 16.063 8.58941 16.0874 8.69658 16.1117C8.86041 16.149 9.02397 16.1874 9.18754 16.2258C9.29167 16.2497 9.39582 16.2735 9.49998 16.2973C9.57325 16.3146 9.57325 16.3146 9.64799 16.3323C9.9736 16.4052 9.9736 16.4052 10.293 16.3359C10.16 16.1921 10.0257 16.05 9.89038 15.9084C9.8531 15.8678 9.81582 15.8272 9.77741 15.7854C9.59499 15.5967 9.46831 15.4854 9.21594 15.4021C8.86525 15.4079 8.54461 15.4836 8.20532 15.5681ZM24.4458 15.6096C24.4008 15.6516 24.3557 15.6935 24.3094 15.7367C24.264 15.7811 24.2186 15.8254 24.1719 15.8711C24.1265 15.9154 24.0811 15.9598 24.0344 16.0055C23.9243 16.1147 23.8152 16.2248 23.707 16.3359C23.9781 16.4439 24.2278 16.3616 24.5 16.2973C24.5761 16.2799 24.5761 16.2799 24.6538 16.2622C24.7608 16.2377 24.8678 16.2128 24.9748 16.1877C25.1384 16.1493 25.3022 16.112 25.4661 16.0749C25.5702 16.0508 25.6743 16.0268 25.7783 16.0026C25.8273 15.9915 25.8763 15.9803 25.9268 15.9688C26.1493 15.916 26.3036 15.8666 26.4961 15.7383C26.2597 15.6823 26.023 15.6272 25.7864 15.5723C25.7195 15.5564 25.6526 15.5406 25.5837 15.5243C25.5188 15.5093 25.454 15.4943 25.3872 15.4789C25.298 15.458 25.298 15.458 25.207 15.4367C24.8736 15.3776 24.6967 15.3728 24.4458 15.6096ZM4.8311 16.7111C4.79802 16.7439 4.76494 16.7768 4.73086 16.8106C4.62189 16.9191 4.51415 17.0288 4.40642 17.1385C4.33102 17.2142 4.25557 17.2898 4.18005 17.3654C4.02208 17.5237 3.86467 17.6827 3.70768 17.842C3.50608 18.0466 3.30347 18.2502 3.10049 18.4534C2.94474 18.6095 2.78936 18.7659 2.63411 18.9224C2.55949 18.9976 2.48479 19.0727 2.41003 19.1478C2.30587 19.2526 2.20216 19.3578 2.09859 19.4631C2.03943 19.523 1.98026 19.5828 1.91931 19.6445C1.7784 19.7737 1.7784 19.7737 1.79297 19.9219C2.69784 20.1257 3.60271 20.3296 4.50759 20.5334C4.92817 20.6281 5.34874 20.7229 5.76932 20.8176C5.85005 20.8358 5.93077 20.854 6.01395 20.8727C6.17673 20.9094 6.3395 20.9461 6.50228 20.9828C6.90849 21.0744 7.31479 21.1657 7.72124 21.2562C8.44311 21.4173 9.16412 21.5804 9.88251 21.7564C10.1849 21.8304 10.4877 21.9028 10.7906 21.975C10.9322 22.0093 11.0737 22.0444 11.2149 22.0805C11.4087 22.13 11.6029 22.1765 11.7975 22.2224C11.8821 22.2453 11.8821 22.2453 11.9685 22.2686C12.267 22.3366 12.267 22.3366 12.5479 22.2405C12.6694 22.1384 12.7758 22.0312 12.8828 21.9141C12.9395 21.86 12.9962 21.8059 13.0547 21.7502C13.1079 21.6968 13.1611 21.6434 13.216 21.5884C13.2771 21.5273 13.3382 21.4662 13.4012 21.4032C13.4663 21.3378 13.5314 21.2724 13.5964 21.2069C13.6642 21.139 13.7321 21.0711 13.7999 21.0032C13.977 20.8258 14.1539 20.6483 14.3308 20.4707C14.5118 20.2889 14.6931 20.1073 14.8744 19.9258C15.2289 19.5705 15.5833 19.215 15.9375 18.8594C15.7549 18.7612 15.5867 18.6981 15.3848 18.652C15.2992 18.6322 15.2992 18.6322 15.2119 18.6121C15.1498 18.5981 15.0877 18.5841 15.0236 18.5696C14.9577 18.5545 14.8917 18.5393 14.8238 18.5237C14.6044 18.4734 14.3848 18.4236 14.1653 18.3738C14.0104 18.3384 13.8555 18.3029 13.7006 18.2675C13.29 18.1735 12.8793 18.08 12.4686 17.9866C12.0625 17.8941 11.6564 17.8012 11.2504 17.7084C10.539 17.5458 9.82753 17.3838 9.11598 17.222C8.66725 17.1199 8.21868 17.0171 7.77027 16.9136C7.49654 16.8504 7.22275 16.7875 6.94895 16.7247C6.82219 16.6955 6.69545 16.6662 6.56874 16.6367C6.39598 16.5966 6.22312 16.5569 6.05023 16.5173C6.00006 16.5055 5.94989 16.4937 5.8982 16.4816C5.39415 16.367 5.20716 16.3329 4.8311 16.7111Z" fill="#D62828"/>
<path d="M11.7539 4.3164C11.9051 4.43424 11.9988 4.52356 12.115 4.66919C12.1456 4.70502 12.1761 4.74086 12.2076 4.77778C12.3014 4.88845 12.3929 5.00073 12.4844 5.11328C12.5405 5.17979 12.5967 5.2463 12.6545 5.31483C12.8001 5.48891 12.9417 5.6654 13.082 5.84375C13.1145 5.88261 13.1469 5.92147 13.1803 5.96152C13.3267 6.15031 13.3476 6.24412 13.3435 6.48706C13.2813 6.70703 13.2813 6.70703 13.2107 6.83569C12.9961 6.95335 12.7847 6.95349 12.5508 6.90625C12.4098 6.79779 12.3283 6.71022 12.2188 6.57422C12.1261 6.47455 12.0334 6.37495 11.9407 6.27539C11.7053 6.01025 11.4746 5.7418 11.2517 5.46606C11.2224 5.43139 11.193 5.39673 11.1628 5.36101C10.9551 5.09804 10.9194 4.91212 10.957 4.58203C11.1467 4.27385 11.4172 4.2532 11.7539 4.3164Z" fill="#D62828"/>
<path d="M22.5242 4.26245C22.7773 4.31641 22.7773 4.31641 22.9434 4.45752C23.0599 4.68091 23.0668 4.79775 23.043 5.04688C22.9548 5.19836 22.9548 5.19836 22.8271 5.3457C22.7792 5.40203 22.7313 5.45836 22.6819 5.51639C22.6257 5.58059 22.5696 5.64479 22.5117 5.71094C22.4438 5.7909 22.376 5.87097 22.3083 5.95114C22.1123 6.18257 21.9159 6.41354 21.7148 6.64062C21.6687 6.69293 21.6226 6.74523 21.575 6.79912C21.4304 6.92224 21.3667 6.94072 21.1794 6.9353C20.918 6.90625 20.918 6.90625 20.7893 6.83569C20.6732 6.62389 20.6483 6.4858 20.6523 6.24219C20.7542 6.0399 20.9022 5.88054 21.0508 5.71094C21.1086 5.64207 21.1663 5.57306 21.2238 5.50394C21.3492 5.35361 21.4759 5.20465 21.6038 5.05647C21.7115 4.93128 21.813 4.80585 21.913 4.67412C22.0959 4.43804 22.2147 4.2852 22.5242 4.26245Z" fill="#D62828"/>
<path d="M28.8203 6.57422C28.9863 6.67798 28.9863 6.67798 29.0859 6.83985C29.1247 7.10648 29.1278 7.24475 28.9718 7.46811C28.8203 7.63677 28.6658 7.77401 28.4883 7.9148C28.2816 8.07967 28.0762 8.24484 27.8766 8.41829C27.8415 8.44854 27.8064 8.47878 27.7703 8.50994C27.6712 8.59553 27.5726 8.68161 27.474 8.76771C27.2909 8.89994 27.184 8.94868 26.9609 8.96485C26.7553 8.90268 26.6485 8.85168 26.4961 8.69922C26.4336 8.48819 26.4374 8.3133 26.4961 8.10157C26.6878 7.86529 26.9202 7.68925 27.1602 7.50391C27.2876 7.39895 27.4149 7.29381 27.542 7.18848C27.603 7.1396 27.6641 7.09072 27.7269 7.04036C27.8587 6.93237 27.9797 6.82079 28.1023 6.70289C28.3676 6.52015 28.5025 6.52809 28.8203 6.57422Z" fill="#D62828"/>
<path d="M5.71094 6.57422C5.89686 6.68104 6.04285 6.82003 6.19653 6.96851C6.28283 7.04771 6.36921 7.12683 6.45567 7.20586C6.49786 7.2451 6.54006 7.28433 6.58352 7.32476C6.76021 7.48605 6.9442 7.63589 7.13037 7.78613C7.43341 8.03107 7.43341 8.03107 7.50391 8.10156C7.5174 8.23178 7.5174 8.23178 7.52051 8.39209C7.52222 8.44465 7.52393 8.49721 7.5257 8.55136C7.49889 8.73329 7.44833 8.78744 7.30469 8.89844C7.12008 8.96159 7.01154 8.97592 6.82324 8.9223C6.58164 8.80288 6.40076 8.64132 6.20068 8.46265C6.11869 8.39072 6.03664 8.31887 5.95451 8.24709C5.9138 8.2114 5.87308 8.17572 5.83114 8.13895C5.59744 7.93716 5.35548 7.74563 5.11406 7.55319C4.9275 7.39163 4.91646 7.33057 4.89331 7.08057C4.91406 6.83985 4.91406 6.83985 5.01367 6.67798C5.24364 6.53425 5.45021 6.52306 5.71094 6.57422Z" fill="#D62828"/>
<path d="M17 -0.0332031C17.0438 -0.0338879 17.0877 -0.0345728 17.1328 -0.0352783C17.3336 0.0180666 17.4047 0.100725 17.5313 0.265625C17.5577 0.458176 17.5685 0.624985 17.5665 0.817368C17.5668 0.870741 17.567 0.924114 17.5673 0.979104C17.5675 1.0918 17.567 1.20449 17.5659 1.31718C17.5645 1.4892 17.5659 1.66103 17.5676 1.83305C17.5674 1.94273 17.5671 2.05241 17.5665 2.16209C17.5671 2.21329 17.5676 2.26449 17.5682 2.31724C17.5638 2.56588 17.5397 2.70947 17.4045 2.92095C17.2656 3.05469 17.2656 3.05469 17.1328 3.09879C17.0671 3.0975 17.0671 3.0975 17 3.09619C16.9343 3.09748 16.9343 3.09748 16.8672 3.09879C16.655 3.02834 16.5879 2.90912 16.4688 2.72266C16.4428 2.52715 16.4314 2.35721 16.4335 2.16209C16.4332 2.10866 16.433 2.05522 16.4327 2.00016C16.4325 1.88759 16.433 1.77501 16.4341 1.66244C16.4355 1.49028 16.4341 1.31831 16.4324 1.14616C16.4326 1.03656 16.433 0.926963 16.4335 0.817368C16.4327 0.74037 16.4327 0.74037 16.4318 0.661816C16.436 0.424475 16.4489 0.291458 16.5955 0.100533C16.7461 -0.00845109 16.8163 -0.0360737 17 -0.0332031Z" fill="#D62828"/>
</g>
<defs>
<clipPath id="clip0_225_468">
<rect width="34" height="34" fill="white"/>
</clipPath>
</defs>
</svg>
