<svg width="24" height="24" viewBox="0 0 24 24" fill="none" xmlns="http://www.w3.org/2000/svg">
<path d="M13.5501 2.3801C13.6074 2.37852 13.6074 2.37852 13.6659 2.3769C13.8407 2.37355 14.0156 2.37087 14.1905 2.36907C14.2825 2.36782 14.3745 2.3659 14.4664 2.3633C14.5996 2.35957 14.7326 2.35803 14.8658 2.35694C14.9065 2.35539 14.9472 2.35384 14.9891 2.35225C15.2779 2.35319 15.4181 2.43234 15.6228 2.63421C15.6493 2.66211 15.6758 2.69001 15.7031 2.71875C15.741 2.75464 15.7789 2.79053 15.8179 2.82751C15.8649 2.87437 15.8649 2.87437 15.9128 2.92218C15.9482 2.9575 15.9835 2.99282 16.02 3.02921C16.0556 3.06501 16.0912 3.10081 16.1279 3.1377C16.1637 3.17332 16.1995 3.20894 16.2364 3.24564C16.3976 3.40712 16.5551 3.56939 16.7034 3.74286C16.9259 4.00123 17.1715 4.23729 17.4141 4.47656C17.6864 4.74527 17.9565 5.01278 18.2052 5.30393C18.3395 5.45709 18.4849 5.59919 18.6299 5.74219C18.6597 5.7718 18.6895 5.80141 18.7202 5.83191C18.7926 5.90368 18.865 5.97529 18.9375 6.04688C18.9571 6.00111 18.9768 5.95533 18.997 5.90817C19.07 5.79994 19.107 5.76982 19.2357 5.73984C19.3822 5.73142 19.5265 5.7316 19.6732 5.73487C19.7268 5.73504 19.7804 5.73522 19.8357 5.7354C19.9489 5.73603 20.0622 5.73733 20.1754 5.73926C20.3493 5.74218 20.5231 5.7431 20.697 5.74365C20.8069 5.74451 20.9168 5.74549 21.0267 5.74658C21.079 5.74698 21.1312 5.74738 21.185 5.74779C21.2573 5.74914 21.2573 5.74914 21.3311 5.75052C21.3736 5.75116 21.4161 5.7518 21.4599 5.75246C21.5625 5.76563 21.5625 5.76563 21.6562 5.85938C21.6682 5.99637 21.6682 5.99637 21.6684 6.17404C21.6686 6.22253 21.6686 6.22253 21.6689 6.272C21.6693 6.37909 21.669 6.48617 21.6687 6.59326C21.6688 6.66752 21.6689 6.74178 21.669 6.81604C21.6691 6.97177 21.6689 7.1275 21.6685 7.28323C21.6679 7.48311 21.6682 7.68298 21.6688 7.88286C21.6691 8.03623 21.669 8.18959 21.6688 8.34296C21.6687 8.41668 21.6688 8.49039 21.669 8.5641C21.6693 8.66702 21.6689 8.76992 21.6684 8.87284C21.6683 8.93147 21.6682 8.9901 21.6682 9.05051C21.6562 9.1875 21.6562 9.1875 21.5625 9.28125C21.4596 9.29379 21.4596 9.29379 21.3303 9.29487C21.282 9.29547 21.2337 9.29607 21.1838 9.29668C21.1315 9.29679 21.0791 9.29689 21.0251 9.297C20.9446 9.29747 20.9446 9.29747 20.8625 9.29794C20.7489 9.29842 20.6353 9.29864 20.5217 9.29862C20.3475 9.29883 20.1734 9.30053 19.9992 9.30231C19.889 9.30258 19.7788 9.30277 19.6686 9.30286C19.6163 9.30353 19.564 9.30421 19.5102 9.3049C19.4617 9.30461 19.4132 9.30432 19.3632 9.30403C19.3205 9.30416 19.2778 9.30429 19.2338 9.30443C19.125 9.28125 19.125 9.28125 18.9844 9.09375C18.9844 8.89266 18.9844 8.69156 18.9844 8.48438C17.8397 8.48438 16.695 8.48438 15.5156 8.48438C15.5156 12.63 15.5156 16.7756 15.5156 21.0469C17.4956 21.0469 19.4756 21.0469 21.5156 21.0469C21.562 21.0778 21.6084 21.1088 21.6562 21.1406C21.6768 21.3018 21.6768 21.3018 21.6562 21.4688C21.5481 21.5834 21.4814 21.6078 21.3242 21.627C21.2669 21.627 21.2095 21.6271 21.1504 21.6271C21.1183 21.6273 21.0862 21.6275 21.0531 21.6277C20.9449 21.6282 20.8367 21.6277 20.7285 21.6272C20.6504 21.6274 20.5722 21.6276 20.4941 21.6279C20.279 21.6285 20.0638 21.6282 19.8487 21.6278C19.6168 21.6274 19.385 21.6279 19.1531 21.6283C18.6988 21.6289 18.2444 21.6288 17.7901 21.6284C17.4209 21.6281 17.0517 21.628 16.6826 21.6282C16.6301 21.6282 16.5776 21.6282 16.5235 21.6283C16.4169 21.6283 16.3103 21.6284 16.2037 21.6284C15.2034 21.6288 14.2031 21.6283 13.2028 21.6276C12.3439 21.627 11.485 21.6271 10.6261 21.6277C9.6294 21.6285 8.63274 21.6288 7.63608 21.6283C7.52986 21.6283 7.42365 21.6282 7.31743 21.6282C7.23904 21.6282 7.23904 21.6282 7.15906 21.6281C6.7902 21.628 6.42135 21.6282 6.05249 21.6285C5.60317 21.6289 5.15385 21.6288 4.70453 21.6281C4.47514 21.6277 4.24576 21.6276 4.01637 21.628C3.80658 21.6285 3.59679 21.6282 3.38699 21.6275C3.31091 21.6273 3.23483 21.6274 3.15874 21.6277C3.05567 21.6282 2.95263 21.6277 2.84955 21.6271C2.76352 21.627 2.76352 21.627 2.67575 21.627C2.51842 21.6078 2.45185 21.5836 2.34375 21.4688C2.32539 21.3318 2.31907 21.2126 2.32098 21.0756C2.3208 21.0355 2.32062 20.9954 2.32044 20.9541C2.32009 20.8214 2.32109 20.6887 2.32214 20.556C2.32225 20.4639 2.3223 20.3719 2.32227 20.2798C2.32242 20.0868 2.3232 19.8939 2.32445 19.7009C2.32605 19.4532 2.32641 19.2054 2.32633 18.9577C2.32636 18.7676 2.32687 18.5775 2.32755 18.3874C2.32785 18.296 2.32804 18.2047 2.32811 18.1133C2.32831 17.9858 2.32913 17.8583 2.33013 17.7308C2.33009 17.6928 2.33005 17.6548 2.33 17.6156C2.33302 17.3545 2.33302 17.3545 2.4375 17.25C2.5567 17.2402 2.67085 17.2362 2.79015 17.2364C2.82651 17.2361 2.86288 17.2358 2.90034 17.2354C3.02091 17.2345 3.14146 17.2344 3.26202 17.2343C3.34563 17.234 3.42923 17.2336 3.51284 17.2333C3.68823 17.2327 3.86362 17.2326 4.03902 17.2326C4.26402 17.2326 4.48899 17.2314 4.71399 17.2297C4.8867 17.2287 5.05941 17.2285 5.23212 17.2286C5.31509 17.2285 5.39805 17.228 5.48101 17.2273C5.59696 17.2264 5.71284 17.2267 5.82878 17.2272C5.8632 17.2267 5.89761 17.2262 5.93306 17.2256C6.07598 17.2274 6.16564 17.2326 6.27923 17.3231C6.34597 17.4793 6.34663 17.6234 6.34409 17.7901C6.34411 17.8259 6.34412 17.8617 6.34414 17.8986C6.34404 18.0142 6.34297 18.1298 6.34186 18.2454C6.34165 18.3168 6.34151 18.3883 6.34143 18.4598C6.34069 18.7245 6.33873 18.9892 6.33691 19.2539C6.33401 19.8456 6.33111 20.4373 6.32812 21.0469C8.57109 21.0469 10.8141 21.0469 13.125 21.0469C13.125 16.9013 13.125 12.7556 13.125 8.48438C10.3097 8.48438 7.49437 8.48438 4.59375 8.48438C4.59375 9.25781 4.59375 10.0313 4.59375 10.8281C5.11194 10.8207 5.11194 10.8207 5.63009 10.8112C5.6951 10.8107 5.76012 10.8102 5.82513 10.8098C5.85883 10.8089 5.89252 10.8079 5.92723 10.8069C6.16577 10.8067 6.16577 10.8067 6.26682 10.9062C6.34312 11.0424 6.34596 11.132 6.34632 11.2878C6.34676 11.3426 6.34721 11.3973 6.34766 11.4537C6.34738 11.5127 6.34709 11.5716 6.3468 11.6323C6.34693 11.693 6.34707 11.7537 6.34721 11.8162C6.34742 11.9445 6.34712 12.0728 6.34646 12.2011C6.34566 12.3653 6.34612 12.5295 6.34696 12.6938C6.34759 12.8507 6.34715 13.0076 6.3468 13.1646C6.34708 13.2235 6.34737 13.2824 6.34766 13.3432C6.347 13.4253 6.347 13.4253 6.34632 13.5091C6.34621 13.5572 6.3461 13.6054 6.34598 13.655C6.32449 13.8069 6.3049 13.8686 6.1875 13.9688C6.06156 13.9872 5.95473 13.9935 5.82878 13.9915C5.77411 13.9918 5.77411 13.9918 5.71834 13.9921C5.59779 13.9924 5.47729 13.9914 5.35675 13.9904C5.2731 13.9902 5.18945 13.9902 5.1058 13.9902C4.93048 13.9901 4.75518 13.9893 4.57987 13.988C4.35482 13.9865 4.12979 13.9861 3.90473 13.9862C3.73202 13.9861 3.55931 13.9856 3.3866 13.9849C3.3036 13.9846 3.2206 13.9845 3.1376 13.9844C3.02177 13.9842 2.90597 13.9834 2.79015 13.9824C2.73839 13.9824 2.73839 13.9824 2.68558 13.9825C2.44823 13.9795 2.44823 13.9795 2.34375 13.875C2.33184 13.7522 2.33184 13.7522 2.33162 13.5948C2.33132 13.5359 2.33103 13.4771 2.33072 13.4165C2.33089 13.3521 2.33108 13.2876 2.3313 13.2231C2.33123 13.1573 2.33114 13.0914 2.33103 13.0256C2.33089 12.8875 2.33109 12.7494 2.33153 12.6114C2.33206 12.4342 2.33175 12.257 2.33119 12.0798C2.33085 11.9438 2.33096 11.8078 2.3312 11.6718C2.33127 11.6065 2.33119 11.5412 2.33097 11.4758C2.33073 11.3846 2.33116 11.2934 2.33162 11.2021C2.33169 11.1501 2.33177 11.0982 2.33184 11.0446C2.34375 10.9219 2.34375 10.9219 2.4375 10.8281C2.55844 10.8199 2.6744 10.8173 2.79529 10.819C2.84214 10.8191 2.84214 10.8191 2.88994 10.8193C3.00671 10.8197 3.12347 10.8211 3.24023 10.8223C3.50127 10.8242 3.7623 10.8261 4.03125 10.8281C4.03125 10.0547 4.03125 9.28125 4.03125 8.48438C3.60774 8.48808 3.60774 8.48808 3.18425 8.49282C3.13142 8.49306 3.0786 8.49329 3.02417 8.49353C2.97016 8.49402 2.91616 8.49451 2.86052 8.49502C2.7223 8.48464 2.64531 8.46731 2.53125 8.39063C2.46165 8.25143 2.47482 8.10868 2.4732 7.95593C2.47264 7.9053 2.47264 7.9053 2.47206 7.85364C2.47141 7.78216 2.47091 7.71069 2.47054 7.63921C2.46973 7.53003 2.46767 7.42093 2.46561 7.31177C2.46513 7.24231 2.46473 7.17285 2.46442 7.1034C2.46359 7.07082 2.46277 7.03825 2.46193 7.00469C2.4626 6.85473 2.46796 6.76978 2.56525 6.65255C2.6756 6.55936 2.76572 6.51184 2.89991 6.45994C2.94557 6.442 2.99124 6.42406 3.03829 6.40557C3.08789 6.38666 3.13749 6.36775 3.1886 6.34827C3.24072 6.32794 3.29285 6.30762 3.34655 6.28667C3.48841 6.23146 3.63042 6.17668 3.77252 6.12209C3.92192 6.06456 4.07109 6.00646 4.22028 5.94841C4.46329 5.85392 4.70641 5.75971 4.94961 5.6657C5.39154 5.49482 5.83265 5.32186 6.27374 5.14884C6.49292 5.06291 6.71219 4.9772 6.93146 4.89148C7.01836 4.8575 7.10527 4.82352 7.19218 4.78954C7.23517 4.77273 7.27817 4.75591 7.32246 4.73859C7.67595 4.60037 8.02942 4.46209 8.38288 4.3238C8.47172 4.28904 8.56056 4.25429 8.64941 4.21954C9.17759 4.01292 9.70566 3.80603 10.2336 3.59876C13.3224 2.38611 13.3224 2.38611 13.5501 2.3801ZM13.6875 2.95313C13.6875 8.92406 13.6875 14.895 13.6875 21.0469C14.1052 21.0469 14.5228 21.0469 14.9531 21.0469C14.9531 15.0759 14.9531 9.105 14.9531 2.95313C14.5355 2.95313 14.1178 2.95313 13.6875 2.95313ZM12.8902 3.16435C12.8499 3.17994 12.8096 3.19553 12.7681 3.21159C12.7237 3.22884 12.6794 3.24609 12.6337 3.26386C12.5877 3.2817 12.5416 3.29954 12.4942 3.31793C12.3421 3.3769 12.1901 3.43601 12.0381 3.49512C11.9322 3.53623 11.8263 3.57734 11.7205 3.61845C11.0408 3.88255 10.362 4.14871 9.68402 4.41711C9.11862 4.64093 8.55259 4.86309 7.98638 5.08485C6.7762 5.55882 5.56748 6.03642 4.35937 6.51563C4.35937 6.5311 4.35937 6.54656 4.35937 6.5625C7.25203 6.5625 10.1447 6.5625 13.125 6.5625C13.125 5.41781 13.125 4.27313 13.125 3.09375C13.0418 3.09375 12.9671 3.13455 12.8902 3.16435ZM15.5156 3.375C15.5156 4.42688 15.5156 5.47875 15.5156 6.5625C16.5211 6.5625 17.5266 6.5625 18.5625 6.5625C18.465 6.36742 18.3476 6.24261 18.1943 6.09302C18.1671 6.06608 18.1399 6.03914 18.1119 6.01139C18.025 5.92534 17.9378 5.8396 17.8506 5.75391C17.7365 5.64152 17.6225 5.52898 17.5087 5.41626C17.4812 5.38902 17.4537 5.36177 17.4254 5.3337C17.2619 5.17079 17.1071 5.00368 16.9577 4.82765C16.768 4.61378 16.5599 4.41648 16.3564 4.21582C15.8534 3.7198 15.8534 3.7198 15.674 3.50702C15.6372 3.46345 15.6004 3.41989 15.5625 3.375C15.547 3.375 15.5316 3.375 15.5156 3.375ZM19.5469 6.28125C19.5469 7.08563 19.5469 7.89 19.5469 8.71875C20.0728 8.71875 20.5987 8.71875 21.1406 8.71875C21.1406 7.91438 21.1406 7.11 21.1406 6.28125C20.6147 6.28125 20.0887 6.28125 19.5469 6.28125ZM3.04687 7.125C3.04687 7.38797 3.04687 7.65094 3.04687 7.92188C6.37265 7.92188 9.69844 7.92188 13.125 7.92188C13.125 7.65891 13.125 7.39594 13.125 7.125C9.79922 7.125 6.47344 7.125 3.04687 7.125ZM15.5156 7.125C15.5156 7.38797 15.5156 7.65094 15.5156 7.92188C16.6603 7.92188 17.805 7.92188 18.9844 7.92188C18.9844 7.65891 18.9844 7.39594 18.9844 7.125C17.8397 7.125 16.695 7.125 15.5156 7.125ZM2.85937 11.3906C2.85937 12.0713 2.85937 12.7519 2.85937 13.4531C3.81844 13.4531 4.7775 13.4531 5.76562 13.4531C5.76562 12.7725 5.76562 12.0919 5.76562 11.3906C4.80656 11.3906 3.8475 11.3906 2.85937 11.3906ZM2.85937 17.8125C2.85937 18.2456 2.85937 18.6788 2.85937 19.125C3.81844 19.125 4.7775 19.125 5.76562 19.125C5.76562 18.6919 5.76562 18.2588 5.76562 17.8125C4.80656 17.8125 3.8475 17.8125 2.85937 17.8125ZM2.85937 19.6875C2.85937 20.1361 2.85937 20.5847 2.85937 21.0469C3.81844 21.0469 4.7775 21.0469 5.76562 21.0469C5.76562 20.5983 5.76562 20.1497 5.76562 19.6875C4.80656 19.6875 3.8475 19.6875 2.85937 19.6875Z" fill="#D62828"/>
</svg>
