<svg width="24" height="24" viewBox="0 0 24 24" fill="none" xmlns="http://www.w3.org/2000/svg">
<path d="M15.0699 18.1546C15.0697 18.0848 15.0694 18.0151 15.0691 17.9454C15.0683 17.7545 15.0687 17.5637 15.0692 17.3729C15.0697 17.1668 15.069 16.9607 15.0685 16.7546C15.0677 16.3512 15.0678 15.9478 15.0684 15.5444C15.0688 15.2166 15.0689 14.8888 15.0687 14.5609C15.0686 14.5142 15.0686 14.4676 15.0686 14.4195C15.0685 14.3246 15.0685 14.2298 15.0684 14.1349C15.0679 13.246 15.0685 12.3571 15.0695 11.4682C15.0703 10.7055 15.0702 9.9428 15.0693 9.1801C15.0683 8.29419 15.0679 7.40829 15.0685 6.52239C15.0685 6.42793 15.0686 6.33347 15.0687 6.23902C15.0687 6.16931 15.0687 6.16931 15.0688 6.09819C15.0689 5.7707 15.0686 5.44321 15.0682 5.11572C15.0677 4.71669 15.0678 4.31767 15.0688 3.91864C15.0693 3.71505 15.0695 3.51147 15.0689 3.30789C15.0683 3.12151 15.0686 2.93515 15.0696 2.74877C15.0698 2.68137 15.0697 2.61396 15.0693 2.54656C15.0653 1.9043 15.0653 1.9043 15.2813 1.64062C15.6893 1.30145 16.5403 1.39891 17.0387 1.43791C17.9264 1.53763 18.615 2.06495 19.2546 2.65319C19.2924 2.68745 19.3301 2.7217 19.369 2.757C20.8277 4.10725 21.0904 5.6087 21.173 7.50888C21.242 9.31372 21.1817 11.1229 21.1138 12.9267C21.087 13.6466 21.0695 14.3663 21.058 15.0866C21.0567 15.1633 21.0567 15.1633 21.0555 15.2415C21.0522 15.447 21.049 15.6525 21.0459 15.858C21.0215 17.4639 20.9879 19.0694 20.9337 20.6745C20.9297 20.7961 20.9259 20.9178 20.9222 21.0394C20.9165 21.2265 20.91 21.4135 20.903 21.6006C20.9006 21.6684 20.8984 21.7362 20.8964 21.804C20.8936 21.8958 20.89 21.9875 20.8862 22.0793C20.8844 22.1304 20.8826 22.1814 20.8808 22.234C20.857 22.3732 20.8318 22.4182 20.7188 22.5C20.6225 22.5191 20.6225 22.5191 20.5108 22.5212C20.4689 22.5222 20.4269 22.5233 20.3837 22.5243C20.3384 22.5246 20.2932 22.5249 20.2465 22.5253C20.1998 22.5258 20.153 22.5264 20.1048 22.527C20.0057 22.5279 19.9066 22.5285 19.8075 22.5286C19.6566 22.5293 19.5059 22.5324 19.3551 22.5357C19.2587 22.5363 19.1623 22.5367 19.0659 22.537C18.9987 22.5389 18.9987 22.5389 18.9301 22.5408C18.6452 22.5379 18.496 22.485 18.2944 22.2839C18.2591 22.2469 18.2238 22.2099 18.1875 22.1719C18.14 22.1253 18.0923 22.079 18.0444 22.0328C17.8688 21.8629 17.6952 21.691 17.5217 21.5189C17.4902 21.4877 17.4588 21.4564 17.4263 21.4243C17.26 21.2592 17.0939 21.094 16.9278 20.9286C16.791 20.7924 16.6539 20.6566 16.5165 20.5211C16.3496 20.3565 16.1833 20.1914 16.0173 20.0258C15.9544 19.9631 15.8912 19.9007 15.8278 19.8384C15.7391 19.7512 15.6512 19.6632 15.5634 19.5751C15.5375 19.5499 15.5116 19.5248 15.4849 19.4989C15.0957 19.1034 15.0663 18.6909 15.0699 18.1546ZM16.125 19.0781C16.1655 19.1206 16.206 19.1631 16.2478 19.2068C16.2861 19.2452 16.3243 19.2835 16.3638 19.3229C16.3852 19.3445 16.4067 19.366 16.4288 19.3882C16.4982 19.4578 16.5678 19.5272 16.6373 19.5967C16.6862 19.6455 16.735 19.6944 16.7838 19.7432C16.8853 19.8448 16.9868 19.9463 17.0885 20.0477C17.219 20.1779 17.3493 20.3084 17.4795 20.4389C17.5799 20.5394 17.6804 20.6399 17.7809 20.7403C17.829 20.7884 17.8771 20.8365 17.9252 20.8847C17.9919 20.9516 18.0589 21.0183 18.1258 21.085C18.1638 21.123 18.2019 21.161 18.2411 21.2001C18.314 21.2866 18.314 21.2866 18.375 21.2812C18.4333 19.2822 18.4777 17.2833 18.5043 15.2836C18.5074 15.0461 18.5107 14.8085 18.5141 14.571C18.515 14.5001 18.515 14.5001 18.5161 14.4277C18.527 13.668 18.5469 12.9089 18.5703 12.1495C18.5942 11.3667 18.6081 10.5842 18.6132 9.80109C18.6163 9.36244 18.6237 8.92482 18.6426 8.48654C18.7457 6.25876 18.7457 6.25876 17.7126 4.36107C17.1526 3.75567 16.5173 3.19548 15.8438 2.71874C15.8283 2.71874 15.8128 2.71874 15.7969 2.71874C15.7894 4.74867 15.7836 6.7786 15.7801 8.80853C15.7797 9.04816 15.7793 9.28778 15.7789 9.5274C15.7788 9.57511 15.7787 9.62281 15.7786 9.67196C15.7772 10.4445 15.7746 11.2171 15.7716 11.9896C15.7685 12.7822 15.7667 13.5749 15.766 14.3675C15.7656 14.8567 15.7641 15.3458 15.7615 15.8349C15.7597 16.1703 15.7592 16.5057 15.7596 16.841C15.7598 17.0346 15.7595 17.2281 15.7578 17.4216C15.7562 17.5989 15.7561 17.7761 15.7572 17.9534C15.7574 18.0477 15.756 18.142 15.7545 18.2363C15.759 18.6261 15.8303 18.8216 16.125 19.0781ZM16.5365 2.4451C16.5723 2.48283 16.5723 2.48283 16.6088 2.52132C16.8307 2.75442 17.0548 2.98525 17.2797 3.2154C17.4306 3.36998 17.5807 3.5252 17.729 3.68232C17.8725 3.83431 18.018 3.98421 18.1649 4.13291C18.2203 4.18965 18.275 4.24708 18.3289 4.30521C18.6585 4.66583 18.6585 4.66583 19.108 4.81575C19.3037 4.8218 19.4934 4.80652 19.6875 4.78124C19.3218 4.34394 18.9235 3.93597 18.526 3.52774C18.3946 3.39273 18.2641 3.25706 18.1354 3.11955C18.0098 2.98546 17.8823 2.85349 17.7533 2.72269C17.7049 2.67302 17.6573 2.62265 17.6104 2.57158C17.4041 2.3476 17.2134 2.15386 16.8965 2.12613C16.6999 2.1208 16.5078 2.13439 16.3125 2.15624C16.3125 2.26156 16.4645 2.36968 16.5365 2.4451ZM19.0781 21.8437C19.4494 21.8437 19.8206 21.8437 20.2031 21.8437C20.2031 16.4297 20.2031 11.0156 20.2031 5.43749C19.8319 5.43749 19.4606 5.43749 19.0781 5.43749C19.0781 10.8516 19.0781 16.2656 19.0781 21.8437Z" fill="#D62828"/>
<path d="M3.12095 14.4194C3.12035 14.3327 3.12035 14.3327 3.11975 14.2442C3.11884 14.0863 3.11857 13.9285 3.11866 13.7706C3.11866 13.6384 3.11826 13.5062 3.11787 13.374C3.11697 13.0618 3.11683 12.7497 3.11715 12.4375C3.11746 12.1165 3.11639 11.7955 3.11465 11.4744C3.11321 11.1979 3.11268 10.9215 3.11286 10.645C3.11296 10.4802 3.11271 10.3155 3.11155 10.1507C3.11031 9.96673 3.11097 9.78278 3.11179 9.59879C3.11086 9.51794 3.11086 9.51794 3.10991 9.43545C3.11398 9.0429 3.19617 8.72426 3.46828 8.4306C3.73944 8.17311 3.98662 8.05233 4.36134 8.05488C4.47417 8.05825 4.58698 8.06216 4.69978 8.06653C4.82447 8.06934 4.94915 8.07192 5.07386 8.07409C5.10605 8.07468 5.13825 8.07527 5.17142 8.07587C6.3183 8.09534 7.2543 8.10997 8.16688 7.32486C8.3883 7.14414 8.63509 7.00835 8.88282 6.86719C8.94685 6.82888 8.94685 6.82888 9.01218 6.78978C9.30635 6.61422 9.53929 6.51967 9.89063 6.5625C10.2267 6.65317 10.4446 6.84092 10.6406 7.125C10.6903 7.27399 10.6932 7.37899 10.6928 7.53547C10.6928 7.59083 10.6928 7.64619 10.6928 7.70323C10.6926 7.76299 10.6923 7.82276 10.6921 7.88434C10.692 7.94553 10.692 8.00672 10.6919 8.06976C10.6917 8.23228 10.6912 8.3948 10.6907 8.55732C10.6902 8.72323 10.69 8.88913 10.6898 9.05503C10.6893 9.38044 10.6885 9.70585 10.6875 10.0313C10.7162 10.0373 10.7449 10.0433 10.7745 10.0494C10.8123 10.0575 10.8501 10.0656 10.889 10.074C10.9264 10.0819 10.9638 10.0899 11.0023 10.098C11.4321 10.2063 11.8012 10.515 12.0469 10.875C12.3378 11.411 12.4166 11.9748 12.2977 12.5755C12.1186 13.109 11.7738 13.5266 11.2799 13.7944C11.0818 13.8876 10.9041 13.9343 10.6875 13.9688C10.688 14.0198 10.688 14.0198 10.6885 14.0719C10.6913 14.3932 10.6934 14.7146 10.6948 15.036C10.6955 15.2012 10.6965 15.3664 10.6981 15.5316C10.6999 15.7217 10.7006 15.9118 10.7012 16.1019C10.702 16.161 10.7027 16.22 10.7034 16.2809C10.7035 16.3362 10.7035 16.3915 10.7035 16.4486C10.7039 16.5213 10.7039 16.5213 10.7044 16.5956C10.6666 16.9059 10.4984 17.0839 10.2676 17.2744C10.0407 17.4388 9.79066 17.4776 9.51563 17.4375C9.16218 17.32 8.84122 17.1101 8.52234 16.9211C8.43601 16.87 8.34948 16.8192 8.26292 16.7684C8.23456 16.7517 8.20621 16.7349 8.17699 16.7177C8.1185 16.6833 8.0598 16.6492 8.00092 16.6155C7.84918 16.5273 7.7102 16.4363 7.57517 16.324C6.9934 15.8621 6.31813 15.928 5.61298 15.9441C5.35078 15.9499 5.08857 15.9523 4.82631 15.9533C4.73589 15.9541 4.64549 15.9566 4.55511 15.9592C4.14155 15.9636 3.81883 15.8977 3.50894 15.6098C3.15954 15.243 3.11971 14.9093 3.12095 14.4194ZM3.96333 15.045C3.99058 15.0669 4.01783 15.0888 4.04591 15.1113C4.08624 15.1452 4.08624 15.1452 4.12739 15.1798C4.8785 15.6284 5.87515 15.2813 6.75001 15.2813C6.75001 13.1156 6.75001 10.95 6.75001 8.71875C5.29372 8.52056 5.29372 8.52056 4.03309 8.8852C4.01121 8.91245 3.98934 8.9397 3.9668 8.96778C3.93291 9.00811 3.93291 9.00811 3.89832 9.04926C3.79661 9.21958 3.79102 9.40562 3.79061 9.60029C3.79041 9.64431 3.79021 9.68834 3.79001 9.73369C3.79003 9.78143 3.79005 9.82916 3.79007 9.87834C3.78992 9.92905 3.78976 9.97977 3.7896 10.032C3.78915 10.1996 3.78906 10.3672 3.78901 10.5348C3.78886 10.6514 3.7887 10.768 3.78854 10.8846C3.78826 11.1289 3.78817 11.3733 3.7882 11.6177C3.78822 11.8685 3.78789 12.1193 3.78723 12.3701C3.78645 12.6731 3.78613 12.9761 3.78616 13.279C3.78611 13.3944 3.7859 13.5098 3.78554 13.6252C3.78508 13.7866 3.78521 13.9481 3.7855 14.1095C3.78523 14.1571 3.78497 14.2046 3.7847 14.2536C3.78416 14.6746 3.78416 14.6746 3.96333 15.045ZM8.6011 16.144C8.83469 16.2501 9.04343 16.3851 9.25489 16.5293C9.42295 16.6429 9.5549 16.7319 9.76337 16.7413C9.9003 16.6976 9.9003 16.6976 9.96778 16.5664C10.0395 16.3855 10.0509 16.2311 10.0491 16.0398C10.0493 16.0037 10.0496 15.9677 10.0498 15.9306C10.0503 15.8103 10.0499 15.6901 10.0495 15.5698C10.0496 15.4834 10.0499 15.397 10.0502 15.3106C10.0508 15.0762 10.0506 14.8419 10.0501 14.6075C10.0498 14.3621 10.0501 14.1168 10.0503 13.8714C10.0506 13.4594 10.0503 13.0474 10.0496 12.6354C10.0488 12.1591 10.0491 11.6829 10.0498 11.2066C10.0505 10.7976 10.0506 10.3886 10.0502 9.97963C10.05 9.7354 10.05 9.49117 10.0504 9.24693C10.0508 9.01731 10.0505 8.7877 10.0497 8.55808C10.0495 8.47385 10.0496 8.38961 10.0499 8.30537C10.0503 8.19031 10.0498 8.07529 10.0491 7.96024C10.0494 7.92696 10.0497 7.89368 10.0501 7.8594C10.0475 7.64406 10.0067 7.49425 9.89063 7.3125C9.76144 7.25023 9.76144 7.25023 9.60938 7.26563C9.48853 7.31882 9.38892 7.37136 9.27851 7.44104C9.23167 7.4693 9.23167 7.4693 9.18388 7.49812C9.08404 7.55856 8.9849 7.62007 8.88575 7.68165C8.82076 7.72127 8.75573 7.76082 8.69065 7.8003C8.45703 7.94126 8.45703 7.94126 8.22807 8.08955C8.10938 8.15625 8.10938 8.15625 7.93275 8.21195C7.7128 8.29107 7.53985 8.38076 7.40626 8.57813C7.26738 9.02148 7.2909 9.51591 7.2902 9.97662C7.28967 10.1266 7.28719 10.2766 7.28481 10.4266C7.27934 10.7812 7.27782 11.1356 7.27854 11.4901C7.27919 11.8542 7.2722 12.2175 7.26156 12.5814C7.25271 12.8952 7.24922 13.2089 7.24976 13.5229C7.25 13.7098 7.24822 13.8962 7.24104 14.0831C7.19904 15.2578 7.54764 15.6925 8.6011 16.144ZM10.6875 13.2188C11.0451 13.1472 11.2543 12.971 11.458 12.6709C11.6603 12.3517 11.6591 12.0426 11.625 11.6719C11.5146 11.2891 11.2606 11.0163 10.9191 10.8193C10.823 10.7722 10.823 10.7722 10.6875 10.7813C10.6875 11.5856 10.6875 12.39 10.6875 13.2188Z" fill="#D62828"/>
<path d="M11.4939 5.15607C11.5768 4.94831 11.7569 4.80326 11.9152 4.65105C11.9536 4.61302 11.9921 4.57499 12.0317 4.5358C12.1543 4.41479 12.2778 4.29479 12.4014 4.17479C12.4848 4.0928 12.5681 4.01074 12.6514 3.92861C12.8554 3.72769 13.0602 3.5276 13.2656 3.32811C13.2206 3.27535 13.1756 3.22262 13.1306 3.1699C13.0929 3.12585 13.0929 3.12585 13.0546 3.0809C12.9815 2.99672 12.9059 2.91671 12.8262 2.83886C12.7856 2.79922 12.745 2.75958 12.7031 2.71874C12.6896 2.77095 12.676 2.82315 12.6621 2.87694C12.6094 3.04686 12.6094 3.04686 12.5156 3.14061C12.1789 3.16733 12.1789 3.16733 12.0657 3.08837C11.969 2.95827 11.9818 2.85448 11.9813 2.69384C11.9811 2.63359 11.981 2.57335 11.9808 2.51128C11.9811 2.47994 11.9814 2.4486 11.9817 2.41632C11.9824 2.32062 11.9817 2.22502 11.9808 2.12932C11.9809 2.06908 11.9811 2.00883 11.9813 1.94677C11.9815 1.89145 11.9816 1.83613 11.9818 1.77913C12 1.64061 12 1.64061 12.0523 1.55233C12.1842 1.47412 12.2943 1.48175 12.4468 1.48131C12.507 1.48113 12.5673 1.48095 12.6293 1.48076C12.6607 1.48106 12.692 1.48135 12.7243 1.48166C12.82 1.48241 12.9156 1.48166 13.0113 1.48076C13.0715 1.48094 13.1318 1.48113 13.1938 1.48131C13.2492 1.48147 13.3045 1.48163 13.3615 1.48179C13.5 1.49999 13.5 1.49999 13.5883 1.56579C13.6848 1.70379 13.6648 1.85466 13.6406 2.01561C13.5879 2.10643 13.5879 2.10643 13.5 2.15624C13.4065 2.17323 13.3127 2.18898 13.2187 2.20311C13.2455 2.22837 13.2722 2.25364 13.2998 2.27966C13.421 2.395 13.541 2.51143 13.6611 2.62792C13.7032 2.66765 13.7453 2.70738 13.7887 2.74831C13.957 2.91285 14.0888 3.04532 14.1813 3.26348C14.1542 3.43492 14.1286 3.46897 14.0162 3.59272C13.9864 3.6257 13.9565 3.65867 13.9257 3.69264C13.6427 3.995 13.3518 4.28945 13.0604 4.58361C12.9782 4.66683 12.8962 4.75035 12.8146 4.83414C12.6961 4.9558 12.5767 5.07652 12.457 5.19707C12.4208 5.23462 12.3845 5.27216 12.3472 5.31084C12.0615 5.59547 12.0615 5.59547 11.866 5.63123C11.7187 5.62499 11.7187 5.62499 11.5781 5.53124C11.4813 5.38603 11.463 5.32557 11.4939 5.15607Z" fill="#D62828"/>
<path d="M11.5313 18.5156C11.6074 18.4219 11.6074 18.4219 11.7188 18.375C11.9094 18.3652 12.0021 18.388 12.1555 18.5041C12.2836 18.6213 12.4064 18.7425 12.5284 18.8661C12.5741 18.9115 12.6197 18.9569 12.6654 19.0023C12.7608 19.0972 12.8557 19.1927 12.9503 19.2886C13.0711 19.4111 13.1932 19.5323 13.3158 19.6531C13.4102 19.7465 13.504 19.8406 13.5976 19.9349C13.664 20.0017 13.731 20.0678 13.798 20.1339C14.1304 20.4736 14.1304 20.4736 14.1634 20.6727C14.1554 20.8283 14.1417 20.8739 14.0332 20.9824C14.0035 21.013 13.9739 21.0436 13.9433 21.0751C13.9053 21.1122 13.8673 21.1493 13.8281 21.1875C13.7755 21.2405 13.723 21.2936 13.6705 21.3468C13.5209 21.4979 13.3701 21.6476 13.2188 21.7969C13.271 21.8104 13.3232 21.8239 13.377 21.8379C13.5469 21.8906 13.5469 21.8906 13.6406 21.9844C13.6673 22.3211 13.6673 22.3211 13.5884 22.4343C13.4583 22.531 13.3545 22.5182 13.1939 22.5187C13.1336 22.5189 13.0734 22.519 13.0113 22.5192C12.98 22.5189 12.9486 22.5186 12.9163 22.5183C12.8206 22.5176 12.725 22.5183 12.6293 22.5192C12.5691 22.519 12.5088 22.5189 12.4468 22.5187C12.3915 22.5185 12.3361 22.5184 12.2791 22.5182C12.1406 22.5 12.1406 22.5 12.0523 22.4477C11.9741 22.3158 11.9818 22.2057 11.9813 22.0532C11.9811 21.993 11.981 21.9327 11.9808 21.8707C11.9811 21.8393 11.9814 21.808 11.9817 21.7757C11.9824 21.68 11.9817 21.5844 11.9808 21.4887C11.981 21.4285 11.9811 21.3682 11.9813 21.3062C11.9815 21.2508 11.9816 21.1955 11.9818 21.1385C12 21 12 21 12.0658 20.9117C12.2038 20.8152 12.3547 20.8352 12.5156 20.8594C12.6064 20.9121 12.6064 20.9121 12.6563 21C12.6717 21.0928 12.6872 21.1856 12.7031 21.2812C12.8888 21.0956 13.0744 20.91 13.2656 20.7187C13.0675 20.482 12.8603 20.2608 12.6407 20.044C12.5931 19.9967 12.5931 19.9967 12.5445 19.9483C12.4442 19.8486 12.3437 19.749 12.2432 19.6494C12.1099 19.5174 11.9768 19.3852 11.8438 19.253C11.7978 19.2076 11.7978 19.2076 11.7509 19.1613C11.7227 19.1332 11.6945 19.1052 11.6655 19.0763C11.6406 19.0517 11.6158 19.0271 11.5902 19.0017C11.4463 18.8448 11.4861 18.7138 11.5313 18.5156Z" fill="#D62828"/>
<path d="M12.7031 13.7344C12.7589 13.6164 12.8157 13.509 12.8818 13.3975C13.2596 12.7148 13.3611 11.9161 13.1455 11.1533C13.0492 10.8883 12.9135 10.6462 12.7683 10.405C12.6958 10.25 12.6848 10.1534 12.7031 9.98438C12.7764 9.87305 12.7764 9.87305 12.8906 9.79688C13.0518 9.77051 13.0518 9.77051 13.2188 9.79688C13.6486 10.1643 13.9008 10.8394 13.9688 11.3906C14.039 12.3222 13.954 13.1627 13.4531 13.9688C13.2532 14.1977 13.2532 14.1977 13.0518 14.2295C12.8906 14.2031 12.8906 14.2031 12.7764 14.127C12.68 13.9805 12.6854 13.9084 12.7031 13.7344Z" fill="#D62828"/>
</svg>
