<svg width="24" height="24" viewBox="0 0 24 24" fill="none" xmlns="http://www.w3.org/2000/svg">
<path d="M19.6875 3.75C19.6875 3.96656 19.6875 4.18312 19.6875 4.40625C19.5454 4.44685 19.5454 4.44685 19.4004 4.48828C19.0163 4.60771 18.7418 4.77295 18.5156 5.10937C18.446 5.27179 18.446 5.27179 18.375 5.4375C18.8236 5.45297 19.2722 5.46844 19.7344 5.48437C19.7344 5.70094 19.7344 5.9175 19.7344 6.14062C19.6874 6.13959 19.6404 6.13855 19.592 6.13749C19.4152 6.13423 19.2385 6.13412 19.0617 6.1349C18.9857 6.13481 18.9096 6.1339 18.8336 6.13211C18.4176 6.12287 18.1156 6.1225 17.798 6.41272C17.7241 6.49336 17.6508 6.57452 17.5781 6.65625C17.4974 6.7242 17.4155 6.79085 17.332 6.85547C17.0482 7.08433 16.7854 7.33369 16.5201 7.58349C16.3234 7.76874 16.1211 7.94641 15.9151 8.1213C15.8336 8.19049 15.7522 8.25977 15.6709 8.3291C15.6427 8.35311 15.6145 8.37713 15.5855 8.40187C15.3645 8.59136 15.1507 8.78774 14.9381 8.9866C14.7856 9.12836 14.6296 9.2625 14.4668 9.39258C14.2192 9.59108 13.9904 9.80619 13.76 10.0241C13.5539 10.2181 13.3405 10.3982 13.1191 10.5747C12.9509 10.7155 12.7921 10.8649 12.6328 11.0156C12.3964 11.2393 12.155 11.4498 11.9004 11.6528C11.7322 11.7936 11.5734 11.943 11.4141 12.0937C11.1776 12.3174 10.9362 12.5279 10.6816 12.731C10.5134 12.8718 10.3546 13.0212 10.1953 13.1719C9.95887 13.3956 9.71747 13.606 9.46289 13.8091C9.29467 13.9499 9.13588 14.0993 8.97656 14.25C8.77866 14.4372 8.58035 14.619 8.36719 14.7891C8.08648 15.0131 7.82827 15.2593 7.56702 15.5054C7.37025 15.6906 7.16799 15.8683 6.96199 16.0432C6.88052 16.1124 6.79912 16.1816 6.71777 16.251C6.68983 16.2748 6.66189 16.2986 6.6331 16.3231C6.4053 16.5184 6.18399 16.72 5.96545 16.9256C5.84133 17.0419 5.71686 17.1514 5.57812 17.25C5.87352 17.2933 6.12843 17.3203 6.38507 17.15C6.50721 17.0408 6.61917 16.9218 6.73091 16.8021C6.82827 16.7022 6.9361 16.6181 7.0459 16.5322C7.2943 16.3326 7.52426 16.1166 7.75558 15.8978C7.92332 15.7399 8.09323 15.589 8.27344 15.4453C8.55414 15.2212 8.81235 14.9751 9.07361 14.729C9.27038 14.5438 9.47264 14.3661 9.67863 14.1912C9.76011 14.122 9.8415 14.0527 9.92285 13.9834C9.95103 13.9594 9.97921 13.9354 10.0082 13.9106C10.2293 13.7211 10.443 13.5248 10.6556 13.3259C10.8081 13.1841 10.9642 13.05 11.127 12.9199C11.4092 12.6934 11.6697 12.4457 11.933 12.1978C12.1298 12.0125 12.332 11.8348 12.538 11.6599C12.6195 11.5908 12.7009 11.5215 12.7822 11.4521C12.8104 11.4281 12.8386 11.4041 12.8676 11.3794C13.0887 11.1899 13.3024 10.9935 13.515 10.7946C13.6675 10.6529 13.8236 10.5187 13.9863 10.3887C14.2686 10.1622 14.5291 9.91443 14.7924 9.6665C14.9891 9.48126 15.1914 9.30359 15.3974 9.1287C15.4789 9.05951 15.5603 8.99023 15.6416 8.9209C15.6698 8.89688 15.698 8.87287 15.727 8.84812C15.948 8.65864 16.1618 8.46226 16.3744 8.2634C16.5269 8.12164 16.6829 7.9875 16.8457 7.85742C17.0917 7.66025 17.3203 7.44747 17.5475 7.22921C17.6041 7.1754 17.6613 7.12233 17.7192 7.06995C17.7854 7.00919 17.8496 6.94604 17.9121 6.8814C18.173 6.63469 18.3904 6.57064 18.7414 6.57355C18.8401 6.57645 18.9385 6.58114 19.0371 6.58594C19.105 6.58782 19.1728 6.58953 19.2407 6.59106C19.4055 6.59483 19.5696 6.60216 19.7344 6.60937C19.7344 6.82594 19.7344 7.0425 19.7344 7.26562C19.6579 7.26139 19.5815 7.25716 19.5027 7.25281C18.8289 7.22427 18.8289 7.22427 18.2548 7.5291C18.1428 7.64538 18.0353 7.76449 17.931 7.88779C17.831 8.00077 17.7179 8.09058 17.5986 8.18261C17.3326 8.39501 17.0866 8.6263 16.8386 8.85901C16.6959 8.99275 16.5502 9.12243 16.402 9.25012C16.2955 9.34291 16.1913 9.43808 16.0869 9.5332C15.9286 9.67634 15.7672 9.81301 15.6006 9.94629C15.3506 10.1482 15.1184 10.3658 14.8852 10.5864C14.6781 10.7813 14.4638 10.9625 14.2416 11.14C14.0208 11.3237 13.8136 11.5219 13.6042 11.7184C13.4615 11.8521 13.3158 11.9818 13.1677 12.1095C13.0612 12.2023 12.957 12.2975 12.8525 12.3926C12.6932 12.5366 12.5308 12.6743 12.3633 12.8086C12.0933 13.0269 11.8416 13.2623 11.5886 13.4996C11.4459 13.6334 11.3002 13.7631 11.152 13.8907C11.0455 13.9835 10.9413 14.0787 10.8369 14.1738C10.6786 14.317 10.5172 14.4536 10.3506 14.5869C10.1332 14.7625 9.9294 14.9488 9.72656 15.1406C9.48795 15.3663 9.24661 15.5813 8.98865 15.7848C8.94599 15.8197 8.90333 15.8546 8.85938 15.8906C8.82535 15.9106 8.79133 15.9305 8.75627 15.9511C8.5979 16.0591 8.46604 16.1624 8.41301 16.3542C8.37322 16.6257 8.38221 16.9002 8.38605 17.1738C8.38578 17.2626 8.38533 17.3514 8.3847 17.4402C8.38355 17.673 8.38491 17.9056 8.3868 18.1384C8.38829 18.3763 8.38739 18.6141 8.38669 18.852C8.38567 19.318 8.38731 19.784 8.39062 20.25C8.15859 20.25 7.92656 20.25 7.6875 20.25C7.67203 19.1672 7.65656 18.0844 7.64062 16.9687C7.19788 17.3755 7.19788 17.3755 6.77454 17.8017C6.44715 18.0564 6.00339 17.9998 5.60937 17.9891C5.46616 17.9853 5.32313 17.9843 5.17987 17.9838C5.08862 17.9827 4.99737 17.9815 4.90613 17.98C4.86345 17.9796 4.82078 17.9791 4.77681 17.9787C4.60782 17.9736 4.485 17.9692 4.33271 17.8925C4.24066 17.7827 4.2408 17.6772 4.23615 17.5375C4.28166 17.3831 4.38224 17.3108 4.5 17.2031C4.54949 17.1561 4.59892 17.1089 4.64832 17.0618C4.93695 16.7911 5.22899 16.531 5.53802 16.2836C5.75916 16.099 5.96707 15.9005 6.17706 15.7035C6.31975 15.5697 6.46545 15.4401 6.61359 15.3124C6.7201 15.2196 6.82428 15.1244 6.92871 15.0293C7.087 14.8862 7.24838 14.7495 7.41504 14.6162C7.66503 14.4143 7.8972 14.1967 8.13046 13.976C8.33752 13.7812 8.55181 13.6 8.77405 13.4225C8.99481 13.2388 9.20202 13.0406 9.41144 12.8441C9.55413 12.7104 9.69983 12.5807 9.84796 12.453C9.95447 12.3602 10.0587 12.265 10.1631 12.1699C10.3214 12.0268 10.4828 11.8901 10.6494 11.7568C10.8994 11.5549 11.1316 11.3373 11.3649 11.1166C11.5711 10.9226 11.7845 10.7425 12.0059 10.5659C12.1741 10.4251 12.3329 10.2757 12.4922 10.125C12.7295 9.90052 12.9718 9.68898 13.2272 9.48504C13.4479 9.30128 13.6551 9.10307 13.8646 8.90661C14.0073 8.77287 14.153 8.64319 14.3011 8.5155C14.4076 8.42271 14.5118 8.32754 14.6162 8.23242C14.7745 8.08928 14.9359 7.95261 15.1025 7.81933C15.3526 7.6174 15.5848 7.39975 15.8181 7.17907C16.0239 6.98533 16.237 6.80546 16.4581 6.62915C16.6624 6.45816 16.8552 6.27523 17.0484 6.09183C17.0766 6.06515 17.1047 6.03847 17.1337 6.01098C17.161 5.98505 17.1883 5.95912 17.2163 5.9324C17.2927 5.86312 17.3719 5.8014 17.454 5.73907C17.5952 5.60932 17.6198 5.54434 17.6514 5.3584C17.7766 4.76554 18.0716 4.34621 18.5729 4.01147C18.9311 3.80797 19.2783 3.72272 19.6875 3.75Z" fill="#D62828"/>
<path d="M16.3871 14.4791C16.4233 14.479 16.4594 14.479 16.4967 14.479C16.6161 14.4791 16.7356 14.4794 16.855 14.4798C16.9379 14.4799 17.0207 14.48 17.1035 14.48C17.3215 14.4802 17.5395 14.4806 17.7575 14.4812C17.98 14.4816 18.2024 14.4819 18.4249 14.4821C18.8614 14.4826 19.2979 14.4834 19.7344 14.4844C19.7344 14.7164 19.7344 14.9484 19.7344 15.1875C18.6361 15.1875 17.5378 15.1875 16.4062 15.1875C16.4062 16.8581 16.4062 18.5288 16.4062 20.25C16.1897 20.25 15.9731 20.25 15.75 20.25C15.7467 19.5251 15.7442 18.8003 15.7427 18.0754C15.742 17.7388 15.741 17.4023 15.7394 17.0657C15.738 16.7724 15.7371 16.4791 15.7368 16.1858C15.7366 16.0305 15.7361 15.8751 15.7351 15.7198C15.7341 15.5465 15.734 15.3732 15.734 15.1999C15.7335 15.1482 15.733 15.0966 15.7325 15.0434C15.7327 14.9962 15.7329 14.9491 15.7331 14.9006C15.733 14.8595 15.7328 14.8185 15.7327 14.7763C15.7539 14.6483 15.7881 14.6087 15.8906 14.5313C16.059 14.4751 16.2119 14.4782 16.3871 14.4791Z" fill="#D62828"/>
<path d="M17.2918 15.5359C17.3462 15.5359 17.4006 15.5359 17.4567 15.5359C17.5441 15.5378 17.5441 15.5378 17.6332 15.5396C17.6933 15.5399 17.7533 15.5403 17.8151 15.5406C17.9741 15.5415 18.133 15.5438 18.292 15.5464C18.4545 15.5488 18.6169 15.5499 18.7794 15.5511C19.0977 15.5536 19.416 15.5577 19.7344 15.5625C19.7344 15.7945 19.7344 16.0266 19.7344 16.2656C18.9919 16.2656 18.2494 16.2656 17.4844 16.2656C17.4844 17.5805 17.4844 18.8953 17.4844 20.25C17.2523 20.25 17.0203 20.25 16.7813 20.25C16.7758 19.6734 16.7717 19.0969 16.7691 18.5203C16.7679 18.2526 16.7662 17.9849 16.7636 17.7171C16.761 17.4588 16.7596 17.2005 16.759 16.9421C16.7586 16.8435 16.7577 16.7449 16.7565 16.6464C16.7548 16.5083 16.7545 16.3703 16.7546 16.2323C16.7538 16.1915 16.753 16.1507 16.7521 16.1086C16.7538 15.9093 16.7642 15.8209 16.8828 15.6541C17.0354 15.5488 17.1082 15.5339 17.2918 15.5359Z" fill="#D62828"/>
<path d="M7.6875 9.65625C7.91953 9.65625 8.15156 9.65625 8.39062 9.65625C8.39062 10.043 8.39062 10.4297 8.39062 10.8281C8.15859 10.8281 7.92656 10.8281 7.6875 10.8281C7.6875 10.4414 7.6875 10.0547 7.6875 9.65625Z" fill="#D62828"/>
<path d="M7.6875 7.07812C7.91953 7.07812 8.15156 7.07812 8.39062 7.07812C8.39062 7.46484 8.39062 7.85156 8.39062 8.25C8.15859 8.25 7.92656 8.25 7.6875 8.25C7.6875 7.86328 7.6875 7.47656 7.6875 7.07812Z" fill="#D62828"/>
<path d="M12.2812 5.67188C12.5133 5.67188 12.7453 5.67188 12.9844 5.67188C12.9844 6.05859 12.9844 6.44531 12.9844 6.84375C12.7523 6.84375 12.5203 6.84375 12.2812 6.84375C12.2812 6.45703 12.2812 6.07031 12.2812 5.67188Z" fill="#D62828"/>
<path d="M7.6875 4.5C7.91953 4.5 8.15156 4.5 8.39062 4.5C8.39062 4.88672 8.39062 5.27344 8.39062 5.67188C8.15859 5.67188 7.92656 5.67188 7.6875 5.67188C7.6875 5.28516 7.6875 4.89844 7.6875 4.5Z" fill="#D62828"/>
<path d="M9.23438 8.39062C9.45094 8.39062 9.6675 8.39062 9.89062 8.39062C9.89062 8.77734 9.89062 9.16406 9.89062 9.5625C9.67406 9.5625 9.4575 9.5625 9.23438 9.5625C9.23438 9.17578 9.23438 8.78906 9.23438 8.39062Z" fill="#D62828"/>
<path d="M10.7812 6.9375C10.9978 6.9375 11.2144 6.9375 11.4375 6.9375C11.4375 7.32422 11.4375 7.71094 11.4375 8.10938C11.2209 8.10938 11.0044 8.10938 10.7812 8.10938C10.7812 7.72266 10.7812 7.33594 10.7812 6.9375Z" fill="#D62828"/>
<path d="M9.23438 5.8125C9.45094 5.8125 9.6675 5.8125 9.89062 5.8125C9.89062 6.19922 9.89062 6.58594 9.89062 6.98438C9.67406 6.98438 9.4575 6.98438 9.23438 6.98438C9.23438 6.59766 9.23438 6.21094 9.23438 5.8125Z" fill="#D62828"/>
<path d="M13.8281 4.35938C14.0447 4.35938 14.2612 4.35938 14.4844 4.35938C14.4844 4.74609 14.4844 5.13281 14.4844 5.53125C14.2678 5.53125 14.0513 5.53125 13.8281 5.53125C13.8281 5.14453 13.8281 4.75781 13.8281 4.35938Z" fill="#D62828"/>
<path d="M10.7812 4.35938C10.9978 4.35938 11.2144 4.35938 11.4375 4.35938C11.4375 4.74609 11.4375 5.13281 11.4375 5.53125C11.2209 5.53125 11.0044 5.53125 10.7812 5.53125C10.7812 5.14453 10.7812 4.75781 10.7812 4.35938Z" fill="#D62828"/>
<path d="M7.6875 12.1875C7.91953 12.1875 8.15156 12.1875 8.39062 12.1875C8.44085 12.8516 8.44085 12.8516 8.30658 13.0812C8.19742 13.1952 8.10711 13.2832 7.96875 13.3594C7.87594 13.3594 7.78312 13.3594 7.6875 13.3594C7.6875 12.9727 7.6875 12.5859 7.6875 12.1875Z" fill="#D62828"/>
<path d="M12.2812 8.20312C12.5133 8.20312 12.7453 8.20312 12.9844 8.20312C13.0461 8.82012 13.0461 8.82012 12.8762 9.05731C12.6919 9.23876 12.5483 9.375 12.2812 9.375C12.2812 8.98828 12.2812 8.60156 12.2812 8.20312Z" fill="#D62828"/>
<path d="M10.7812 9.51562C10.9978 9.51562 11.2144 9.51562 11.4375 9.51562C11.5014 10.1662 11.5014 10.1662 11.3518 10.3989C11.1489 10.5843 11.0647 10.6406 10.7812 10.6406C10.7812 10.2694 10.7812 9.89812 10.7812 9.51562Z" fill="#D62828"/>
<path d="M9.23438 10.9219C9.45094 10.9219 9.6675 10.9219 9.89062 10.9219C9.94063 11.5386 9.94063 11.5386 9.82416 11.7398C9.74128 11.8213 9.65853 11.8879 9.5625 11.9531C9.5277 11.9831 9.49289 12.0131 9.45703 12.0439C9.375 12.0938 9.375 12.0938 9.23438 12.0938C9.23438 11.707 9.23438 11.3203 9.23438 10.9219Z" fill="#D62828"/>
<path d="M13.8281 6.9375C14.0447 6.9375 14.2613 6.9375 14.4844 6.9375C14.5561 7.49456 14.5561 7.49456 14.4253 7.67544C14.2602 7.84432 14.0725 7.98086 13.875 8.10938C13.8595 8.10938 13.8441 8.10938 13.8281 8.10938C13.8281 7.72266 13.8281 7.33594 13.8281 6.9375Z" fill="#D62828"/>
</svg>
