<svg width="24" height="24" viewBox="0 0 24 24" fill="none" xmlns="http://www.w3.org/2000/svg">
<path d="M10.9468 8.22573C10.9987 8.22514 11.0506 8.22455 11.1042 8.22394C11.16 8.22432 11.2159 8.2247 11.2734 8.22509C11.331 8.22491 11.3885 8.22473 11.4478 8.22454C11.5695 8.22442 11.6912 8.22476 11.8129 8.22555C11.9993 8.22655 12.1856 8.22556 12.3721 8.22436C12.4902 8.22448 12.6084 8.22472 12.7266 8.22509C12.7824 8.22471 12.8383 8.22433 12.8958 8.22394C12.9737 8.22482 12.9737 8.22482 13.0532 8.22573C13.1217 8.22595 13.1217 8.22595 13.1916 8.22618C13.3491 8.2572 13.4046 8.30996 13.5 8.43749C13.5225 8.53834 13.5225 8.53834 13.5213 8.64811C13.5213 8.68939 13.5213 8.73066 13.5212 8.77319C13.5203 8.81734 13.5193 8.86149 13.5183 8.90697C13.518 8.95249 13.5178 8.998 13.5175 9.04489C13.5165 9.19011 13.5141 9.33526 13.5117 9.48046C13.5108 9.57897 13.5099 9.67748 13.5092 9.77599C13.5071 10.0173 13.5039 10.2587 13.5 10.5C13.5615 10.499 13.623 10.498 13.6864 10.497C13.9145 10.4936 14.1427 10.4915 14.3709 10.4897C14.4697 10.4887 14.5684 10.4875 14.6672 10.4858C14.8091 10.4836 14.951 10.4825 15.093 10.4817C15.1372 10.4807 15.1813 10.4797 15.2268 10.4787C15.2681 10.4787 15.3094 10.4787 15.3519 10.4787C15.4062 10.4781 15.4062 10.4781 15.4617 10.4774C15.6067 10.5099 15.6612 10.57 15.75 10.6875C15.7738 10.8084 15.7738 10.8084 15.7743 10.9468C15.7749 10.9987 15.7754 11.0506 15.7761 11.1041C15.7757 11.16 15.7753 11.2159 15.7749 11.2734C15.7751 11.331 15.7753 11.3885 15.7754 11.4478C15.7756 11.5695 15.7752 11.6912 15.7744 11.8129C15.7734 11.9993 15.7744 12.1856 15.7756 12.3721C15.7755 12.4902 15.7753 12.6084 15.7749 12.7266C15.7753 12.7824 15.7757 12.8383 15.7761 12.8958C15.7752 12.9737 15.7752 12.9737 15.7743 13.0532C15.7741 13.0989 15.774 13.1445 15.7738 13.1915C15.7428 13.3491 15.69 13.4046 15.5625 13.5C15.4617 13.5225 15.4617 13.5225 15.3519 13.5213C15.3106 13.5213 15.2693 13.5212 15.2268 13.5212C15.1606 13.5198 15.1606 13.5198 15.093 13.5183C15.0475 13.518 15.002 13.5178 14.9551 13.5175C14.8099 13.5164 14.6647 13.5141 14.5195 13.5117C14.421 13.5108 14.3225 13.5099 14.224 13.5091C13.9826 13.5071 13.7413 13.5038 13.5 13.5C13.5015 13.5922 13.5015 13.5922 13.503 13.6863C13.5064 13.9145 13.5085 14.1427 13.5103 14.3709C13.5112 14.4696 13.5125 14.5684 13.5141 14.6672C13.5164 14.8091 13.5175 14.951 13.5183 15.093C13.5193 15.1372 13.5202 15.1813 13.5212 15.2268C13.5213 15.2887 13.5213 15.2887 13.5213 15.3519C13.5217 15.3881 13.5221 15.4243 13.5225 15.4616C13.4901 15.6067 13.43 15.6612 13.3125 15.75C13.1916 15.7738 13.1916 15.7738 13.0532 15.7743C13.0013 15.7748 12.9494 15.7754 12.8958 15.776C12.812 15.7755 12.812 15.7755 12.7266 15.7749C12.6402 15.7752 12.6402 15.7752 12.5522 15.7754C12.4305 15.7756 12.3088 15.7752 12.1871 15.7744C12.0007 15.7734 11.8144 15.7744 11.6279 15.7756C11.5098 15.7755 11.3916 15.7753 11.2734 15.7749C11.2176 15.7753 11.1617 15.7757 11.1042 15.776C11.0263 15.7752 11.0263 15.7752 10.9468 15.7743C10.8783 15.774 10.8783 15.774 10.8084 15.7738C10.6509 15.7428 10.5954 15.69 10.5 15.5625C10.4775 15.4616 10.4775 15.4616 10.4787 15.3519C10.4787 15.3106 10.4787 15.2693 10.4788 15.2268C10.4797 15.1826 10.4807 15.1385 10.4817 15.093C10.482 15.0475 10.4822 15.002 10.4825 14.9551C10.4835 14.8099 10.4859 14.6647 10.4883 14.5195C10.4892 14.421 10.4901 14.3225 10.4908 14.224C10.4929 13.9826 10.4961 13.7413 10.5 13.5C10.4078 13.5015 10.4078 13.5015 10.3136 13.503C10.0855 13.5064 9.8573 13.5085 9.6291 13.5103C9.53035 13.5112 9.43159 13.5125 9.33284 13.5141C9.19088 13.5164 9.04896 13.5175 8.90698 13.5183C8.84076 13.5198 8.84076 13.5198 8.7732 13.5212C8.73193 13.5212 8.69065 13.5213 8.64812 13.5213C8.61189 13.5217 8.57567 13.5221 8.53835 13.5225C8.39333 13.4901 8.33877 13.4299 8.25 13.3125C8.22619 13.1915 8.22619 13.1915 8.22574 13.0532C8.22515 13.0013 8.22456 12.9493 8.22395 12.8958C8.22433 12.84 8.22471 12.7841 8.2251 12.7266C8.22492 12.669 8.22474 12.6114 8.22455 12.5521C8.22443 12.4305 8.22477 12.3088 8.22556 12.1871C8.22656 12.0007 8.22557 11.8143 8.22437 11.6279C8.22449 11.5098 8.22473 11.3916 8.2251 11.2734C8.22472 11.2176 8.22434 11.1617 8.22395 11.1041C8.22454 11.0522 8.22513 11.0003 8.22574 10.9468C8.22589 10.9011 8.22604 10.8555 8.22619 10.8084C8.25721 10.6509 8.30997 10.5954 8.4375 10.5C8.53835 10.4774 8.53835 10.4774 8.64812 10.4787C8.71004 10.4787 8.71004 10.4787 8.7732 10.4787C8.83942 10.4802 8.83942 10.4802 8.90698 10.4817C8.9525 10.4819 8.99801 10.4822 9.0449 10.4825C9.19012 10.4835 9.33527 10.4859 9.48047 10.4883C9.57898 10.4892 9.67749 10.4901 9.776 10.4908C10.0174 10.4929 10.2587 10.4961 10.5 10.5C10.499 10.4385 10.498 10.377 10.497 10.3136C10.4936 10.0855 10.4915 9.85729 10.4897 9.6291C10.4888 9.53034 10.4875 9.43158 10.4859 9.33283C10.4836 9.19087 10.4825 9.04895 10.4817 8.90697C10.4807 8.86283 10.4798 8.81868 10.4788 8.77319C10.4787 8.73192 10.4787 8.69064 10.4787 8.64811C10.4783 8.61188 10.4779 8.57566 10.4775 8.53834C10.5342 8.28431 10.709 8.22651 10.9468 8.22573ZM11.25 8.99999C11.2482 9.14725 11.2465 9.2945 11.2447 9.44622C11.2425 9.58864 11.2401 9.73105 11.2377 9.87346C11.2361 9.97253 11.2348 10.0716 11.2338 10.1707C11.2322 10.313 11.2297 10.4553 11.2271 10.5976C11.2267 10.6642 11.2267 10.6642 11.2262 10.7321C11.2253 10.7734 11.2243 10.8147 11.2234 10.8572C11.2229 10.8935 11.2224 10.9299 11.2218 10.9673C11.1978 11.0896 11.1633 11.1308 11.0625 11.2031C10.9673 11.2218 10.9673 11.2218 10.8572 11.2234C10.7953 11.2248 10.7953 11.2248 10.7321 11.2262C10.6877 11.2265 10.6433 11.2268 10.5976 11.2271C10.552 11.2279 10.5064 11.2288 10.4595 11.2297C10.3138 11.2322 10.1681 11.2338 10.0225 11.2353C9.92374 11.2369 9.82501 11.2385 9.72629 11.2402C9.48419 11.2443 9.24213 11.2471 9 11.25C9 11.745 9 12.24 9 12.75C9.22088 12.7526 9.22088 12.7526 9.44623 12.7553C9.58865 12.7575 9.73106 12.7599 9.87347 12.7623C9.97254 12.7639 10.0716 12.7652 10.1707 12.7662C10.313 12.7678 10.4553 12.7703 10.5976 12.7729C10.642 12.7732 10.6864 12.7735 10.7321 12.7738C10.7734 12.7747 10.8147 12.7756 10.8572 12.7766C10.9117 12.7774 10.9117 12.7774 10.9673 12.7782C11.0896 12.8022 11.1308 12.8367 11.2031 12.9375C11.2218 13.0327 11.2218 13.0327 11.2234 13.1428C11.2248 13.2047 11.2248 13.2047 11.2262 13.2679C11.2265 13.3123 11.2268 13.3567 11.2271 13.4024C11.228 13.448 11.2288 13.4936 11.2297 13.5405C11.2322 13.6862 11.2338 13.8318 11.2354 13.9775C11.2369 14.0763 11.2385 14.175 11.2402 14.2737C11.2443 14.5158 11.2471 14.7579 11.25 15C11.745 15 12.24 15 12.75 15C12.7518 14.8527 12.7535 14.7055 12.7553 14.5538C12.7575 14.4113 12.7599 14.2689 12.7623 14.1265C12.7639 14.0274 12.7652 13.9284 12.7662 13.8293C12.7678 13.687 12.7703 13.5447 12.7729 13.4024C12.7732 13.358 12.7735 13.3136 12.7738 13.2679C12.7747 13.2266 12.7757 13.1853 12.7766 13.1428C12.7771 13.1065 12.7776 13.0701 12.7782 13.0327C12.8022 12.9104 12.8367 12.8692 12.9375 12.7969C13.0327 12.7782 13.0327 12.7782 13.1428 12.7766C13.1841 12.7757 13.2254 12.7747 13.2679 12.7738C13.3123 12.7735 13.3567 12.7732 13.4024 12.7729C13.448 12.772 13.4936 12.7712 13.5405 12.7703C13.6862 12.7678 13.8319 12.7662 13.9775 12.7646C14.0763 12.7631 14.175 12.7615 14.2737 12.7598C14.5158 12.7557 14.7579 12.7529 15 12.75C15 12.255 15 11.76 15 11.25C14.7791 11.2474 14.7791 11.2474 14.5538 11.2447C14.4114 11.2425 14.2689 11.2401 14.1265 11.2377C14.0275 11.2361 13.9284 11.2348 13.8293 11.2338C13.687 11.2322 13.5447 11.2297 13.4024 11.2271C13.358 11.2268 13.3136 11.2265 13.2679 11.2262C13.2266 11.2253 13.1853 11.2243 13.1428 11.2234C13.1065 11.2229 13.0701 11.2223 13.0327 11.2218C12.9104 11.1978 12.8692 11.1633 12.7969 11.0625C12.7782 10.9673 12.7782 10.9673 12.7766 10.8572C12.7757 10.8159 12.7748 10.7746 12.7738 10.7321C12.7735 10.6877 12.7732 10.6433 12.7729 10.5976C12.772 10.552 12.7712 10.5064 12.7703 10.4595C12.7678 10.3138 12.7662 10.1681 12.7646 10.0225C12.7631 9.92373 12.7615 9.825 12.7598 9.72628C12.7557 9.48418 12.7529 9.24212 12.75 8.99999C12.255 8.99999 11.76 8.99999 11.25 8.99999Z" fill="#D62828"/>
<path d="M12.4381 1.45689C12.6589 1.45969 12.8796 1.46004 13.1005 1.46032C13.3157 1.46074 13.5309 1.46218 13.7462 1.46396C13.8478 1.46478 13.9494 1.46542 14.051 1.46585C14.8176 1.4705 15.5639 1.52934 16.2715 1.85157C16.3074 1.86726 16.3433 1.88295 16.3803 1.89912C16.7841 2.07878 17.1776 2.28033 17.5717 2.47998C18.9327 3.16859 20.1063 3.69182 21.6506 3.71137C21.6912 3.71193 21.7319 3.7125 21.7738 3.71308C21.9428 3.71535 22.1117 3.71759 22.2807 3.71841C22.4057 3.71913 22.5305 3.72101 22.6555 3.72309C22.6936 3.723 22.7317 3.72291 22.771 3.72282C22.9421 3.72654 23.042 3.7344 23.1801 3.83958C23.2559 3.94573 23.2755 3.99605 23.2734 4.125C23.2742 4.17141 23.2742 4.17141 23.2749 4.21875C23.2387 4.35519 23.1702 4.41061 23.0625 4.5C22.9468 4.5235 22.9468 4.5235 22.8157 4.52352C22.7664 4.52396 22.717 4.5244 22.6662 4.52485C22.5864 4.52406 22.5864 4.52406 22.5049 4.52326C22.4497 4.52333 22.3944 4.5234 22.3374 4.52347C22.2201 4.52339 22.1028 4.52284 21.9855 4.52187C21.8081 4.52053 21.6308 4.52091 21.4535 4.52152C20.3319 4.52082 20.3319 4.52082 19.7812 4.35938C19.749 4.3501 19.7168 4.34081 19.6836 4.33125C19.183 4.18423 18.716 3.98767 18.2503 3.75379C18.1459 3.70138 18.0412 3.6497 17.9364 3.59816C17.7229 3.49309 17.5099 3.38724 17.2969 3.28125C16.0987 2.65873 16.0987 2.65873 14.7979 2.34085C14.7613 2.33689 14.7247 2.33294 14.687 2.32887C14.2868 2.28789 13.8868 2.27127 13.4848 2.26136C13.4262 2.25988 13.4262 2.25988 13.3663 2.25837C13.072 2.25135 12.7778 2.24699 12.4834 2.24415C12.4187 2.2435 12.4187 2.2435 12.3527 2.24285C11.0682 2.23221 9.9885 2.28913 8.85333 2.94663C8.57382 3.10596 8.27407 3.21995 7.97555 3.33831C7.88682 3.37379 7.79861 3.41033 7.71051 3.44738C7.32421 3.60938 7.32421 3.60938 7.21875 3.60938C7.24738 3.76625 7.27925 3.92218 7.3125 4.07813C7.3212 4.12357 7.3299 4.16901 7.33887 4.21582C7.45765 4.38625 7.63109 4.41506 7.82812 4.45313C8.44363 4.53983 9.12131 4.31274 9.69727 4.11036C9.89468 4.04184 10.0549 3.99255 10.2656 4.03125C10.4387 4.15276 10.492 4.2207 10.5293 4.42969C10.4999 4.59404 10.4683 4.65853 10.3484 4.77105C10.1713 4.89316 9.96085 4.9405 9.75586 4.99805C9.70751 5.01204 9.65916 5.02604 9.60935 5.04045C9.46905 5.08035 9.32846 5.11874 9.1875 5.15625C9.15245 5.1656 9.11741 5.17494 9.0813 5.18457C8.46129 5.34369 7.69334 5.43075 7.11713 5.09748C6.75771 4.85 6.50334 4.51055 6.42187 4.07813C6.39058 3.74907 6.3893 3.43046 6.5625 3.14063C6.78509 2.89536 7.05169 2.77324 7.3548 2.65357C7.39953 2.63531 7.44425 2.61705 7.49034 2.59824C7.63297 2.54016 7.77594 2.48295 7.91895 2.42579C8.0582 2.36942 8.19739 2.31287 8.3365 2.25615C8.43133 2.21786 8.52641 2.18019 8.62172 2.14311C8.85107 2.05313 9.06898 1.95999 9.28276 1.83717C10.2467 1.31156 11.3743 1.44046 12.4381 1.45689Z" fill="#D62828"/>
<path d="M16.9805 18.9697C17.3274 19.2543 17.5444 19.5986 17.5913 20.0484C17.6006 20.3264 17.5869 20.6177 17.4375 20.8594C17.2066 21.1001 16.9519 21.2254 16.6452 21.3464C16.6005 21.3647 16.5557 21.3829 16.5097 21.4018C16.367 21.4598 16.2241 21.517 16.0811 21.5742C15.9418 21.6306 15.8026 21.6871 15.6635 21.7438C15.5687 21.7821 15.4736 21.8198 15.3783 21.8569C15.1489 21.9469 14.931 22.04 14.7172 22.1628C13.7533 22.6884 12.6257 22.5595 11.5619 22.5431C11.3411 22.5403 11.1204 22.54 10.8995 22.5397C10.6843 22.5393 10.4691 22.5378 10.2538 22.536C10.1522 22.5352 10.0506 22.5346 9.94897 22.5341C9.15547 22.5293 8.40565 22.4588 7.67578 22.1221C7.63523 22.1041 7.59468 22.086 7.55289 22.0675C7.16451 21.8926 6.7844 21.7009 6.40466 21.5081C5.96133 21.2835 5.51268 21.0699 5.0625 20.8594C5.02963 20.8439 4.99676 20.8285 4.96289 20.8126C4.1165 20.4194 3.27037 20.2999 2.34485 20.2886C2.30424 20.2881 2.26363 20.2875 2.22179 20.2869C2.05342 20.2846 1.88507 20.2824 1.71668 20.2816C1.59206 20.2809 1.4675 20.279 1.3429 20.2769C1.28592 20.277 1.28592 20.277 1.22778 20.2772C1.0571 20.2735 0.957743 20.2654 0.819969 20.1604C0.744121 20.0543 0.724547 20.004 0.726562 19.875C0.725837 19.8286 0.725837 19.8286 0.725098 19.7812C0.761338 19.6448 0.82984 19.5894 0.9375 19.5C1.05319 19.4765 1.05319 19.4765 1.18429 19.4765C1.23362 19.476 1.28296 19.4756 1.33378 19.4751C1.387 19.4757 1.44022 19.4762 1.49506 19.4767C1.55035 19.4767 1.60564 19.4766 1.66261 19.4765C1.77991 19.4766 1.89721 19.4772 2.01451 19.4781C2.19188 19.4795 2.36917 19.4791 2.54654 19.4785C3.66806 19.4792 3.66806 19.4792 4.21875 19.6406C4.25096 19.6499 4.28317 19.6592 4.31636 19.6688C4.81698 19.8158 5.284 20.0123 5.74969 20.2462C5.85407 20.2986 5.95878 20.3503 6.06359 20.4018C6.27705 20.5069 6.49012 20.6128 6.70312 20.7187C7.90128 21.3413 7.90128 21.3413 9.20211 21.6592C9.23871 21.6631 9.27531 21.6671 9.31301 21.6711C9.71318 21.7121 10.1132 21.7287 10.5152 21.7386C10.5543 21.7396 10.5934 21.7406 10.6337 21.7416C10.928 21.7487 11.2222 21.753 11.5166 21.7559C11.5597 21.7563 11.6028 21.7567 11.6473 21.7572C12.9318 21.7678 14.0115 21.7109 15.1467 21.0534C15.4262 20.894 15.7259 20.78 16.0244 20.6617C16.1132 20.6262 16.2014 20.5897 16.2895 20.5526C16.6758 20.3906 16.6758 20.3906 16.7812 20.3906C16.7526 20.2338 16.7207 20.0778 16.6875 19.9219C16.6788 19.8764 16.6701 19.831 16.6611 19.7842C16.5419 19.613 16.37 19.5842 16.1719 19.5469C15.5407 19.4662 14.8957 19.6829 14.3057 19.8896C14.1074 19.9578 13.9457 20.0076 13.7344 19.9687C13.5613 19.8472 13.508 19.7793 13.4707 19.5703C13.5 19.406 13.5317 19.3415 13.6516 19.229C13.8287 19.1068 14.0392 19.0595 14.2441 19.0019C14.2925 18.988 14.3408 18.974 14.3906 18.9595C14.5309 18.9197 14.6715 18.8813 14.8125 18.8437C14.8475 18.8344 14.8826 18.8251 14.9187 18.8154C15.5823 18.6451 16.3891 18.5625 16.9805 18.9697Z" fill="#D62828"/>
<path d="M8.23883 15.4693C8.27345 15.5001 8.30808 15.5308 8.34375 15.5625C8.37306 15.5879 8.40236 15.6134 8.43256 15.6396C8.55898 15.7569 8.65744 15.8633 8.73866 16.017C9.01034 16.5219 9.4055 16.6518 9.91992 16.8457C9.99854 16.8767 10.0771 16.9079 10.1556 16.9393C10.3082 17 10.461 17.06 10.6142 17.1194C10.8088 17.1951 11.0022 17.2735 11.1945 17.3549C11.2438 17.3757 11.2931 17.3965 11.3439 17.418C11.9749 17.7162 12.5435 18.1971 12.7881 18.8643C12.9313 19.3992 12.8965 20.0307 12.6562 20.5313C12.5793 20.6417 12.5793 20.6417 12.4688 20.7188C12.1564 20.7473 11.9375 20.6752 11.653 20.552C11.6109 20.5343 11.5687 20.5167 11.5253 20.4985C11.3873 20.4407 11.2498 20.382 11.1123 20.3233C11.0165 20.2829 10.9207 20.2426 10.8249 20.2024C10.6274 20.1194 10.4301 20.0362 10.2329 19.9527C9.94844 19.8325 9.66325 19.7142 9.37775 19.5965C9.31157 19.5692 9.31157 19.5692 9.24406 19.5414C9.07445 19.4714 8.90483 19.4015 8.7352 19.3317C8.61932 19.2839 8.5035 19.236 8.3877 19.188C8.35395 19.1741 8.32021 19.1602 8.28544 19.1459C7.69206 18.8997 7.69206 18.8997 7.59375 18.7031C7.57053 18.5174 7.56298 18.4183 7.67285 18.2637C7.79781 18.1759 7.86368 18.154 8.01562 18.1406C8.132 18.1734 8.23635 18.2091 8.3476 18.2545C8.38011 18.2673 8.41263 18.28 8.44613 18.2931C8.55294 18.3353 8.65931 18.3785 8.76562 18.4219C8.81956 18.4438 8.81956 18.4438 8.87459 18.4661C9.14658 18.5767 9.41757 18.6896 9.68848 18.8027C9.7727 18.8378 9.85692 18.8729 9.94115 18.9079C10.1096 18.978 10.2781 19.0482 10.4466 19.1184C10.7636 19.2505 11.081 19.3819 11.3984 19.5131C11.486 19.5493 11.5735 19.5855 11.6611 19.6217C11.7897 19.6749 11.9183 19.7281 12.0469 19.7813C12.0341 19.6688 12.0208 19.5565 12.0071 19.4442C12.0036 19.4126 12.0001 19.381 11.9965 19.3484C11.9461 18.9445 11.7659 18.7181 11.4551 18.4688C10.9524 18.1283 10.3705 17.9213 9.81189 17.6917C9.77628 17.677 9.74066 17.6624 9.70397 17.6473C9.52442 17.5736 9.34473 17.5002 9.16478 17.4274C9.13091 17.4136 9.09704 17.3999 9.06213 17.3857C8.99835 17.3597 8.93451 17.334 8.8706 17.3084C8.58205 17.1907 8.39421 17.1095 8.25879 16.8223C7.92456 16.1793 7.41827 15.8568 6.75201 15.6068C6.05566 15.3905 5.06619 15.42 4.40625 15.75C4.29765 15.7553 4.18889 15.7575 4.08016 15.7583C4.02984 15.7588 4.02984 15.7588 3.97851 15.7592C3.86731 15.7602 3.7561 15.7607 3.6449 15.7612C3.60695 15.7614 3.569 15.7616 3.5299 15.7618C3.32909 15.7627 3.12828 15.7634 2.92747 15.7638C2.71992 15.7644 2.51239 15.766 2.30485 15.7678C2.14536 15.7691 1.98588 15.7695 1.8264 15.7696C1.74988 15.7699 1.67337 15.7704 1.59686 15.7713C1.48979 15.7724 1.38279 15.7724 1.27572 15.772C1.2148 15.7723 1.15387 15.7726 1.0911 15.7729C0.912283 15.7463 0.857493 15.7049 0.75 15.5625C0.725098 15.4688 0.725098 15.4688 0.726562 15.375C0.725837 15.3286 0.725837 15.3286 0.725098 15.2813C0.761807 15.1431 0.826838 15.0892 0.9375 15C1.07392 14.9773 1.07392 14.9773 1.23444 14.9781C1.29473 14.978 1.35502 14.9778 1.41714 14.9776C1.46538 14.9781 1.46538 14.9781 1.5146 14.9787C1.61626 14.9797 1.71785 14.9795 1.81952 14.979C2.0725 14.978 2.32548 14.9788 2.57846 14.98C3.66775 15.0089 3.66775 15.0089 4.72089 14.7751C5.86199 14.3579 7.33171 14.7011 8.23883 15.4693Z" fill="#D62828"/>
<path d="M11.9063 3.28125C12.0587 3.32452 12.2017 3.38511 12.347 3.44806C12.3891 3.46568 12.4313 3.4833 12.4747 3.50146C12.6127 3.55928 12.7502 3.61801 12.8877 3.67675C12.9835 3.7171 13.0793 3.75739 13.1751 3.7976C13.3726 3.88056 13.5699 3.96384 13.7671 4.04734C14.0516 4.16754 14.3368 4.28585 14.6223 4.4035C14.6664 4.42169 14.7105 4.43989 14.7559 4.45863C14.9256 4.52856 15.0952 4.59846 15.2648 4.66834C15.3807 4.71612 15.4965 4.76405 15.6123 4.81201C15.6629 4.83283 15.6629 4.83283 15.7146 4.85407C16.3079 5.10026 16.3079 5.10026 16.4063 5.29687C16.4295 5.48262 16.437 5.58168 16.3271 5.73632C16.2022 5.82414 16.1363 5.84598 15.9844 5.85937C15.868 5.82656 15.7636 5.79086 15.6524 5.74548C15.6199 5.73274 15.5874 5.72 15.5539 5.70687C15.4471 5.6647 15.3407 5.62153 15.2344 5.57812C15.1804 5.55624 15.1804 5.55624 15.1254 5.53392C14.8534 5.42335 14.5824 5.31045 14.3115 5.19726C14.2273 5.16219 14.1431 5.12713 14.0588 5.09208C13.8904 5.02196 13.7219 4.95178 13.5534 4.88157C13.2364 4.74947 12.919 4.61815 12.6016 4.48694C12.514 4.45074 12.4265 4.41452 12.3389 4.3783C12.2103 4.32511 12.0817 4.27192 11.9531 4.21875C11.9588 4.30001 11.965 4.38125 11.9714 4.46246C11.9765 4.53032 11.9765 4.53032 11.9817 4.59955C12.0317 4.96868 12.2258 5.28014 12.5136 5.51111C13.0529 5.88576 13.6987 6.10445 14.3024 6.35233C14.435 6.40679 14.5674 6.46155 14.6998 6.51629C14.7964 6.55605 14.8933 6.59524 14.9903 6.63439C15.0503 6.65911 15.1104 6.68385 15.1705 6.70861C15.2235 6.73018 15.2765 6.75174 15.3312 6.77396C15.5559 6.88795 15.6684 7.03727 15.7881 7.2539C16.1451 7.85874 16.6624 8.22673 17.3399 8.41571C17.6242 8.48655 17.8982 8.50237 18.1904 8.50195C18.2373 8.50198 18.2842 8.502 18.3325 8.50203C18.7596 8.49577 19.2062 8.44378 19.5938 8.25C19.7024 8.24471 19.8111 8.24252 19.9198 8.2417C19.9702 8.24124 19.9702 8.24124 20.0215 8.24077C20.1327 8.23984 20.2439 8.23929 20.3551 8.23883C20.3931 8.23864 20.431 8.23845 20.4701 8.23825C20.6709 8.23727 20.8717 8.2366 21.0725 8.23616C21.2801 8.23564 21.4876 8.23403 21.6952 8.23217C21.8546 8.23094 22.0141 8.23055 22.1736 8.23038C22.2501 8.23015 22.3266 8.22961 22.4031 8.22874C22.5102 8.2276 22.6172 8.22764 22.7243 8.22797C22.7852 8.22769 22.8461 8.22742 22.9089 8.22713C23.0877 8.25375 23.1425 8.29513 23.25 8.4375C23.2749 8.53125 23.2749 8.53125 23.2734 8.625C23.2742 8.6714 23.2742 8.6714 23.2749 8.71875C23.2382 8.85695 23.1732 8.91081 23.0625 9C22.9261 9.02275 22.9261 9.02275 22.7656 9.02187C22.6751 9.02212 22.6751 9.02212 22.5829 9.02238C22.5507 9.02203 22.5185 9.02169 22.4854 9.02134C22.3837 9.02031 22.2821 9.02049 22.1805 9.02099C21.9275 9.022 21.6745 9.0212 21.4215 9.01998C20.3323 8.99121 20.3323 8.99121 19.2791 9.22461C18.4428 9.53196 17.407 9.38888 16.6025 9.05273C16.5365 9.02071 16.4711 8.98747 16.4063 8.95312C16.3689 8.93348 16.3316 8.91385 16.2931 8.89361C15.8094 8.62184 15.3518 8.22959 15.0869 7.73623C14.951 7.51752 14.7975 7.44533 14.562 7.35608C14.5243 7.34063 14.4865 7.32518 14.4476 7.30926C14.3275 7.26038 14.2068 7.21316 14.0859 7.16601C14.0063 7.13408 13.9267 7.10204 13.8472 7.06988C13.7306 7.02275 13.6139 6.97567 13.4971 6.929C12.6007 6.56974 11.6735 6.17513 11.2518 5.24432C11.0572 4.71494 11.1147 4.11827 11.2844 3.59234C11.4279 3.29344 11.5856 3.24252 11.9063 3.28125Z" fill="#D62828"/>
<path d="M6.14062 7.12499C6.27832 7.22167 6.27832 7.22167 6.375 7.35937C6.41054 7.64101 6.32765 7.79426 6.16406 8.01269C5.36731 9.14513 4.95992 10.4961 4.96006 11.8753C4.95996 11.9812 4.95911 12.087 4.95822 12.1928C4.95684 12.561 4.97411 12.9107 5.0423 13.2741C5.07529 13.4899 5.10045 13.6906 4.96875 13.875C4.84432 13.9718 4.77711 13.9686 4.61719 13.9629C4.43019 13.9161 4.38176 13.885 4.26563 13.7344C4.22912 13.6045 4.2038 13.4881 4.18488 13.3557C4.17918 13.3185 4.17349 13.2814 4.16763 13.2431C4.10958 12.833 4.10128 12.4252 4.10449 12.0117C4.10462 11.973 4.10475 11.9344 4.10488 11.8945C4.10796 11.2726 4.15464 10.6819 4.3125 10.0781C4.32529 10.0258 4.32529 10.0258 4.33834 9.97249C4.58309 8.98189 5.05997 7.95703 5.71875 7.17187C5.86588 7.0983 5.97837 7.10849 6.14062 7.12499Z" fill="#D62828"/>
<path d="M19.5 10.0781C19.7752 10.2985 19.8078 10.5348 19.8514 10.8681C19.9422 11.8004 19.9598 12.8217 19.7344 13.7344C19.7204 13.7927 19.7204 13.7927 19.7062 13.8522C19.4866 14.7453 19.0104 16.3462 18.1948 16.8853C18.0475 16.9395 17.9467 16.9201 17.7979 16.8779C17.6719 16.7813 17.6719 16.7813 17.5957 16.6318C17.5644 16.3134 17.7366 16.1161 17.918 15.8672C18.6808 14.7989 19.0401 13.4205 19.0399 12.1247C19.04 12.0188 19.0409 11.913 19.0418 11.8072C19.0432 11.4369 19.0252 11.0852 18.9571 10.7196C18.9284 10.5354 18.9375 10.3995 18.9844 10.2188C19.1258 10.0447 19.2868 10.0482 19.5 10.0781Z" fill="#D62828"/>
<path d="M7.35937 5.95314C7.51339 6.05446 7.54219 6.12346 7.59082 6.30177C7.5941 6.48891 7.56866 6.55872 7.45312 6.70314C7.27732 6.82034 7.19257 6.82201 6.98437 6.79689C6.84668 6.70021 6.84668 6.70021 6.75 6.56251C6.71759 6.36082 6.72583 6.27144 6.83789 6.09962C7.00525 5.93226 7.12558 5.93298 7.35937 5.95314Z" fill="#D62828"/>
<path d="M17.1094 17.25C17.253 17.3458 17.2885 17.4113 17.3408 17.5752C17.3444 17.7482 17.3084 17.8178 17.2031 17.9531C17.0273 18.0703 16.9426 18.072 16.7344 18.0469C16.5613 17.9254 16.508 17.8574 16.4707 17.6484C16.5 17.4844 16.5 17.4844 16.5938 17.3467C16.7883 17.2129 16.8764 17.2167 17.1094 17.25Z" fill="#D62828"/>
</svg>
