<svg width="24" height="24" viewBox="0 0 24 24" fill="none" xmlns="http://www.w3.org/2000/svg">
<g clip-path="url(#clip0_249_3657)">
<path d="M12.817 0.688294C12.9582 0.811568 13.0887 0.943252 13.2188 1.07813C13.2499 1.10779 13.281 1.13746 13.3131 1.16803C13.9939 1.86115 14.1654 2.91418 14.1611 3.84226C14.1611 3.89248 14.1611 3.94269 14.161 3.99443C14.1609 4.16185 14.1604 4.32928 14.1599 4.49671C14.1598 4.61708 14.1596 4.73745 14.1595 4.85783C14.1593 5.04996 14.1591 5.2421 14.1588 5.43424C14.158 5.91023 14.1578 6.38622 14.1582 6.86222C14.1582 6.89671 14.1582 6.9312 14.1582 6.96673C14.1583 7.14306 14.1584 7.31938 14.1586 7.49571C14.1588 7.85844 14.1591 8.22116 14.1592 8.58389C14.1592 8.62027 14.1592 8.65665 14.1593 8.69413C14.1595 9.284 14.1585 9.87385 14.1571 10.4637C14.1558 11.0701 14.1558 11.6764 14.1571 12.2828C14.1579 12.6564 14.1576 13.03 14.1557 13.4036C14.1545 13.69 14.1552 13.9763 14.1566 14.2626C14.1569 14.3799 14.1565 14.4972 14.1554 14.6145C14.1541 14.7748 14.155 14.9349 14.1566 15.0952C14.1556 15.1415 14.1547 15.1878 14.1537 15.2354C14.1613 15.6097 14.3179 15.7772 14.5781 16.0313C15.1541 16.7588 15.5289 17.7282 15.5625 18.6563C15.5649 18.7069 15.5673 18.7575 15.5698 18.8097C15.6022 20.0746 15.201 21.291 14.3906 22.2656C14.3574 22.306 14.3242 22.3464 14.2899 22.3879C13.521 23.2817 12.4699 23.8556 11.2969 24C11.0662 24.0136 10.8365 24.0157 10.6055 24.0146C10.5743 24.0145 10.5432 24.0144 10.5112 24.0143C10.0532 24.012 9.62701 23.9975 9.1875 23.8594C9.14287 23.8454 9.14287 23.8454 9.09734 23.8312C8.4047 23.6083 7.80801 23.2697 7.26563 22.7813C7.22961 22.7491 7.1936 22.717 7.1565 22.6838C6.1793 21.7613 5.6489 20.4193 5.60603 19.0907C5.59296 18.0346 5.87278 16.9054 6.5625 16.0781C6.59631 16.0528 6.63011 16.0275 6.66494 16.0014C6.89004 15.8144 6.9904 15.6587 7.02316 15.3705C7.043 15.0564 7.03805 14.7423 7.03434 14.4278C7.03445 14.3065 7.03475 14.1853 7.03523 14.0641C7.03596 13.8035 7.03518 13.5429 7.03336 13.2823C7.03075 12.9047 7.03061 12.5271 7.03109 12.1495C7.03182 11.5356 7.03077 10.9218 7.0285 10.308C7.02631 9.71385 7.0246 9.11969 7.02379 8.52553C7.02374 8.48897 7.02369 8.45242 7.02364 8.41475C7.02311 8.01488 7.02277 7.61501 7.02267 7.21514C7.02266 7.1799 7.02266 7.14466 7.02265 7.10835C7.02261 6.96739 7.02258 6.82642 7.02257 6.68546C7.02255 6.27436 7.02192 5.86327 7.02017 5.45217C7.01895 5.16326 7.0184 4.87437 7.01808 4.58546C7.01782 4.46756 7.01731 4.34965 7.01654 4.23174C7.00966 3.15527 7.07668 2.1373 7.78125 1.26563C7.80856 1.23016 7.83588 1.19469 7.86401 1.15814C8.34092 0.576039 9.13102 0.112931 9.87975 0.0100946C10.9134 -0.0896296 11.9848 0.00597163 12.817 0.688294ZM9.32813 1.82813C9.28335 1.85912 9.28335 1.85912 9.23767 1.89075C8.85538 2.18469 8.6084 2.65365 8.50482 3.11864C8.47598 3.34806 8.4785 3.57481 8.47948 3.8058C8.47952 3.85883 8.47955 3.91186 8.47958 3.9665C8.47974 4.1443 8.48023 4.3221 8.4807 4.4999C8.4809 4.62733 8.48101 4.75476 8.48112 4.88219C8.48131 5.08584 8.48153 5.28949 8.48186 5.49313C8.48268 5.99785 8.48279 6.50257 8.48247 7.00729C8.48245 7.04381 8.48243 7.08033 8.48241 7.11796C8.4823 7.30471 8.48218 7.49147 8.48205 7.67822C8.4818 8.0628 8.48156 8.44738 8.48141 8.83197C8.4814 8.87055 8.48138 8.90914 8.48137 8.94889C8.48115 9.57445 8.48213 10.2 8.4835 10.8255C8.48487 11.468 8.48482 12.1105 8.48349 12.753C8.48271 13.1491 8.48307 13.5453 8.48489 13.9415C8.48603 14.2129 8.48579 14.4844 8.48449 14.7559C8.48377 14.9125 8.48387 15.069 8.4852 15.2256C8.48655 15.3955 8.48559 15.5652 8.48406 15.7351C8.485 15.7845 8.48594 15.8339 8.48691 15.8847C8.4806 16.2125 8.4806 16.2125 8.35668 16.3653C8.26215 16.4482 8.16442 16.5204 8.0625 16.5938C7.45789 17.1792 7.12111 18.0219 7.0686 18.854C7.05395 19.8802 7.4084 20.834 8.11871 21.581C8.88682 22.2955 9.83603 22.6005 10.8728 22.5645C11.7624 22.5111 12.5174 22.0991 13.125 21.4688C13.1596 21.4351 13.1941 21.4014 13.2297 21.3668C13.8469 20.7316 14.108 19.856 14.1112 18.9865C14.0923 17.9979 13.6479 17.1572 12.9844 16.4531C12.9437 16.4298 12.9031 16.4066 12.8612 16.3826C12.6853 16.1976 12.7178 16.0072 12.7207 15.761C12.7203 15.709 12.72 15.657 12.7197 15.6034C12.7189 15.4284 12.7197 15.2535 12.7206 15.0786C12.7203 14.9534 12.72 14.8282 12.7195 14.703C12.7187 14.433 12.7188 14.163 12.7194 13.8931C12.7203 13.5021 12.7198 13.1112 12.7189 12.7202C12.7175 12.0851 12.7172 11.4501 12.7174 10.815C12.7177 10.1994 12.7178 9.58386 12.7174 8.9683C12.7173 8.93044 12.7173 8.89259 12.7173 8.85358C12.717 8.43983 12.7166 8.02607 12.716 7.61231C12.7159 7.57588 12.7159 7.53945 12.7158 7.50192C12.7156 7.35624 12.7154 7.21056 12.7152 7.06487C12.7145 6.63917 12.7142 6.21348 12.7147 5.78778C12.7149 5.52039 12.7148 5.253 12.7145 4.98561C12.7144 4.83155 12.7144 4.6775 12.7148 4.52344C12.7151 4.35594 12.7149 4.18845 12.7146 4.02095C12.7149 3.97293 12.7151 3.9249 12.7154 3.87542C12.7121 3.15415 12.5639 2.53093 12.0615 1.99219C11.6215 1.58564 11.0811 1.37899 10.4844 1.39472C10.0445 1.43529 9.68733 1.57405 9.32813 1.82813Z" fill="#D62828"/>
<path d="M18.6094 0.65625C19.0889 0.65625 19.5684 0.65625 20.0625 0.65625C20.078 4.60078 20.0934 8.54531 20.1094 12.6094C20.3878 12.3928 20.6663 12.1763 20.9531 11.9531C21.6895 11.3906 21.6895 11.3906 21.7969 11.3906C21.8648 11.4679 21.8648 11.4679 21.943 11.5756C21.9715 11.6145 21.9999 11.6534 22.0292 11.6935C22.0589 11.7347 22.0886 11.7759 22.1191 11.8184C22.1484 11.8585 22.1778 11.8986 22.2079 11.9399C22.3568 12.1446 22.5023 12.3506 22.6406 12.5625C22.3028 12.8495 21.952 13.1144 21.5943 13.3758C21.3065 13.5864 21.0223 13.8015 20.7393 14.0186C20.5764 14.1428 20.4132 14.2668 20.25 14.3906C20.2096 14.4214 20.1692 14.4521 20.1275 14.4838C20.0116 14.5716 19.8951 14.6585 19.7783 14.7451C19.7435 14.7717 19.7086 14.7982 19.6727 14.8256C19.6403 14.8494 19.6079 14.8731 19.5745 14.8976C19.5464 14.9186 19.5183 14.9396 19.4894 14.9613C19.4062 15 19.4062 15 19.3146 14.9921C19.199 14.9451 19.1148 14.8844 19.0164 14.8076C18.9772 14.7773 18.938 14.747 18.8976 14.7157C18.8556 14.6829 18.8137 14.65 18.7705 14.6162C18.6811 14.5471 18.5917 14.4781 18.5023 14.4091C18.4572 14.3744 18.4122 14.3396 18.3658 14.3038C18.1756 14.1581 17.9826 14.0163 17.7891 13.875C17.4185 13.6038 17.0527 13.3267 16.6888 13.0466C16.4893 12.8936 16.2897 12.7453 16.0781 12.6094C16.1426 12.4265 16.2267 12.2899 16.3451 12.1368C16.3786 12.0931 16.4122 12.0495 16.4467 12.0045C16.4817 11.9595 16.5167 11.9145 16.5527 11.8682C16.5881 11.8223 16.6234 11.7764 16.6599 11.7291C16.747 11.6161 16.8343 11.5033 16.9219 11.3906C17.1917 11.5347 17.4244 11.7069 17.6631 11.8975C17.9564 12.1307 18.2547 12.347 18.5625 12.5625C18.578 8.63344 18.5934 4.70438 18.6094 0.65625Z" fill="#D62828"/>
<path d="M9.84375 7.73438C10.3233 7.73438 10.8028 7.73438 11.2969 7.73438C11.3123 10.7972 11.3278 13.86 11.3437 17.0156C11.5139 17.1084 11.6841 17.2013 11.8594 17.2969C12.2954 17.6367 12.6167 18.0507 12.7031 18.6094C12.7625 19.3455 12.6517 19.9535 12.1787 20.54C11.8197 20.9318 11.2926 21.1608 10.7666 21.1987C10.0782 21.2125 9.54575 21.0492 9.03662 20.575C8.62412 20.1448 8.44593 19.6185 8.42578 19.0283C8.46385 18.4287 8.67421 17.8362 9.12854 17.4229C9.61068 17.0625 9.61068 17.0625 9.84375 17.0625C9.84375 13.9842 9.84375 10.9059 9.84375 7.73438ZM10.0312 18.6094C9.91719 18.7858 9.89135 18.9431 9.8877 19.1514C9.96073 19.3877 10.0974 19.5686 10.312 19.6959C10.5103 19.7768 10.6873 19.7519 10.8838 19.6787C11.0535 19.5694 11.1599 19.4458 11.25 19.2656C11.2769 19.045 11.2714 18.8849 11.168 18.6855C10.9925 18.4808 10.8566 18.3894 10.585 18.3574C10.3526 18.3803 10.2022 18.4503 10.0312 18.6094Z" fill="#D62828"/>
<path d="M1.35938 13.3594C2.7825 13.3594 4.20563 13.3594 5.67188 13.3594C5.67188 13.8544 5.67188 14.3494 5.67188 14.8594C4.24875 14.8594 2.82563 14.8594 1.35938 14.8594C1.35938 14.3644 1.35938 13.8694 1.35938 13.3594Z" fill="#D62828"/>
<path d="M1.35938 7.73438C2.7825 7.73438 4.20563 7.73438 5.67188 7.73438C5.67188 8.21391 5.67188 8.69344 5.67188 9.1875C4.24875 9.1875 2.82563 9.1875 1.35938 9.1875C1.35938 8.70797 1.35938 8.22844 1.35938 7.73438Z" fill="#D62828"/>
<path d="M1.35938 2.0625C2.7825 2.0625 4.20563 2.0625 5.67188 2.0625C5.67188 2.54203 5.67188 3.02156 5.67188 3.51562C4.24875 3.51562 2.82563 3.51562 1.35938 3.51562C1.35938 3.03609 1.35938 2.55656 1.35938 2.0625Z" fill="#D62828"/>
<path d="M2.8125 10.5469C3.75609 10.5469 4.69969 10.5469 5.67188 10.5469C5.67188 11.0264 5.67188 11.5059 5.67188 12C4.72828 12 3.78469 12 2.8125 12C2.8125 11.5205 2.8125 11.0409 2.8125 10.5469Z" fill="#D62828"/>
<path d="M2.8125 4.92188C3.75609 4.92188 4.69969 4.92188 5.67188 4.92188C5.67188 5.40141 5.67188 5.88094 5.67188 6.375C4.72828 6.375 3.78469 6.375 2.8125 6.375C2.8125 5.89547 2.8125 5.41594 2.8125 4.92188Z" fill="#D62828"/>
</g>
<defs>
<clipPath id="clip0_249_3657">
<rect width="24" height="24" fill="white"/>
</clipPath>
</defs>
</svg>
