<svg width="24" height="24" viewBox="0 0 24 24" fill="none" xmlns="http://www.w3.org/2000/svg">
<g clip-path="url(#clip0_100_164)">
<path d="M12.7002 2.01269C12.7441 2.02728 12.7879 2.04186 12.8331 2.05688C12.9278 2.08845 13.0224 2.12033 13.1169 2.1525C13.2694 2.20442 13.4222 2.25551 13.5751 2.30638C13.7353 2.35968 13.8955 2.41303 14.0556 2.46661C14.5354 2.62712 15.0168 2.78187 15.499 2.93508C16.6082 3.28771 17.7154 3.64661 18.8225 4.00567C18.9998 4.06315 19.177 4.12063 19.3542 4.1781C19.4069 4.19518 19.4069 4.19518 19.4607 4.21261C19.9861 4.38297 20.5117 4.55283 21.0374 4.72229C21.0708 4.73307 21.1042 4.74385 21.1387 4.75495C21.4273 4.848 21.7159 4.94102 22.0046 5.03394C22.0344 5.04351 22.0641 5.05308 22.0947 5.06294C22.1818 5.09097 22.2688 5.11899 22.3559 5.14701C22.5151 5.19834 22.6742 5.24989 22.8333 5.3015C23.0014 5.35601 23.1697 5.40961 23.3386 5.46181C23.3882 5.47745 23.3882 5.47745 23.4388 5.4934C23.521 5.51932 23.6033 5.54471 23.6857 5.57004C23.8388 5.63639 23.9079 5.67149 24 5.8125C24.0278 5.98046 24.0263 6.14648 24.0249 6.31641C24.0251 6.36564 24.0253 6.41487 24.0254 6.46559C24.0256 6.56961 24.0252 6.67363 24.0244 6.77765C24.0234 6.93692 24.0244 7.0961 24.0256 7.25537C24.0255 7.35644 24.0253 7.45752 24.0249 7.55859C24.0253 7.60625 24.0257 7.65391 24.0261 7.70302C24.0217 8.03254 24.0217 8.03254 23.9106 8.18619C23.8048 8.25499 23.7501 8.27539 23.625 8.27344C23.5786 8.27416 23.5786 8.27416 23.5312 8.2749C23.3886 8.23701 23.3392 8.18044 23.25 8.0625C23.2336 7.92051 23.2281 7.79611 23.2317 7.65454C23.232 7.61527 23.2322 7.576 23.2325 7.53554C23.2335 7.41038 23.2359 7.28529 23.2383 7.16016C23.2392 7.07519 23.2401 6.99023 23.2408 6.90527C23.2429 6.69724 23.2461 6.48925 23.25 6.28125C23.1941 6.27015 23.1383 6.25906 23.0808 6.24763C22.7678 6.17784 22.4654 6.07524 22.1611 5.97546C22.0951 5.95399 22.0291 5.93254 21.963 5.9111C21.8221 5.86528 21.6812 5.81935 21.5403 5.77332C21.3162 5.7001 21.0919 5.62716 20.8677 5.55426C20.6369 5.47922 20.4061 5.40417 20.1753 5.32903C19.4575 5.09532 18.7391 4.86337 18.0205 4.63183C17.9022 4.5937 17.7839 4.55557 17.6657 4.51743C17.4291 4.44116 17.1926 4.3649 16.956 4.28865C16.7077 4.20862 16.4594 4.12857 16.2112 4.04851C16.1792 4.03819 16.1472 4.02787 16.1142 4.01724C15.9527 3.96514 15.7911 3.91302 15.6295 3.86089C15.3468 3.76965 15.0641 3.67846 14.7812 3.58767C14.242 3.41462 13.7032 3.24116 13.1675 3.05768C13.0576 3.02046 12.9477 2.98331 12.8378 2.94618C12.7428 2.91364 12.6482 2.87992 12.5536 2.84609C12.4983 2.82739 12.443 2.80869 12.386 2.78943C12.3173 2.76524 12.3173 2.76524 12.2471 2.74056C11.8591 2.68538 11.4611 2.85807 11.0977 2.97986C11.0475 2.99639 10.9974 3.01293 10.9458 3.02996C10.8379 3.06557 10.7301 3.10131 10.6222 3.13715C10.3605 3.22413 10.0986 3.31035 9.83662 3.3966C9.74673 3.4262 9.65686 3.45583 9.56698 3.48546C9.01966 3.6658 8.47098 3.84175 7.92187 4.0166C7.03493 4.29929 6.14905 4.5852 5.26357 4.87242C4.66746 5.06577 4.07128 5.25887 3.47509 5.45196C3.37618 5.48399 3.27728 5.51603 3.17838 5.54807C2.81797 5.66482 2.45748 5.78135 2.09688 5.89753C1.98876 5.9324 1.88066 5.96735 1.77258 6.00237C1.62538 6.05005 1.47811 6.09748 1.33081 6.14484C1.26624 6.16584 1.26624 6.16584 1.20038 6.18728C1.16126 6.19979 1.12214 6.21231 1.08183 6.22521C1.03116 6.24156 1.03116 6.24156 0.979455 6.25825C0.890624 6.28125 0.890624 6.28125 0.749999 6.28125C0.749999 6.62156 0.749999 6.96187 0.749999 7.3125C0.973147 7.23926 0.973147 7.23926 1.2008 7.16455C2.23404 6.82575 3.26775 6.48858 4.30371 6.1582C5.14994 5.88829 5.99535 5.61595 6.84026 5.34197C7.05296 5.27301 7.26568 5.20412 7.47843 5.13531C7.65549 5.07805 7.83254 5.02075 8.00958 4.96344C8.04468 4.95208 8.07977 4.94072 8.11593 4.92901C8.57587 4.78006 9.03537 4.62986 9.49449 4.47843C9.73055 4.40058 9.96675 4.32319 10.203 4.24591C10.3922 4.18397 10.5813 4.12144 10.7702 4.05845C10.9136 4.01081 11.0574 3.96406 11.2011 3.91717C11.2517 3.90009 11.3023 3.88301 11.3544 3.86541C11.8465 3.7067 12.2147 3.71908 12.7002 3.88769C12.7441 3.90228 12.7879 3.91686 12.8331 3.93188C12.9278 3.96345 13.0224 3.99533 13.1169 4.0275C13.2694 4.07942 13.4222 4.13051 13.5751 4.18138C13.7353 4.23468 13.8955 4.28803 14.0556 4.34161C14.5354 4.50213 15.0169 4.65689 15.4991 4.81012C16.2252 5.04094 16.9506 5.27404 17.6754 5.50891C17.7101 5.52016 17.7448 5.53142 17.7806 5.54301C18.1374 5.65864 18.4942 5.77438 18.8509 5.89032C19.0273 5.94767 19.2038 6.00498 19.3802 6.06225C19.4322 6.07913 19.4322 6.07913 19.4853 6.09635C19.9465 6.24596 20.4083 6.3936 20.8708 6.53907C21.0177 6.5853 21.1646 6.63174 21.3114 6.67814C21.5264 6.74605 21.7416 6.81322 21.9569 6.87999C22.0522 6.91006 22.1475 6.94015 22.2427 6.97027C22.2855 6.98331 22.3283 6.99635 22.3724 7.00978C22.5819 7.07673 22.7388 7.12921 22.875 7.3125C22.8983 7.41815 22.8983 7.41815 22.8955 7.52637C22.8954 7.58011 22.8954 7.58011 22.8953 7.63495C22.869 7.76364 22.8437 7.80143 22.7344 7.875C22.4475 7.94448 22.2538 7.8936 21.9835 7.80194C21.9414 7.78831 21.8994 7.77468 21.856 7.76064C21.714 7.71444 21.5724 7.66727 21.4307 7.62012C21.3279 7.58649 21.2251 7.55294 21.1223 7.51945C20.8943 7.44511 20.6665 7.37038 20.4388 7.2954C20.0389 7.16384 19.6385 7.03401 19.238 6.90436C19.1662 6.88112 19.0945 6.85788 19.0227 6.83465C18.9135 6.79929 18.8043 6.76394 18.6951 6.72859C18.4357 6.64459 18.1763 6.56045 17.917 6.47623C17.8801 6.46426 17.8432 6.45228 17.8052 6.43995C17.7308 6.41578 17.6564 6.39161 17.5819 6.36744C16.982 6.17262 16.3818 5.97822 15.7815 5.78448C15.7493 5.77408 15.7171 5.76368 15.6839 5.75297C15.3433 5.64306 15.0027 5.53334 14.662 5.42406C14.1633 5.26399 13.6652 5.10311 13.1697 4.93341C13.0593 4.89601 12.9488 4.85868 12.8384 4.82137C12.7431 4.78875 12.6483 4.75496 12.5534 4.72104C12.4705 4.69302 12.4705 4.69302 12.386 4.66443C12.3402 4.6483 12.2944 4.63218 12.2471 4.61556C11.8591 4.56038 11.4611 4.73307 11.0977 4.85486C11.0475 4.87139 10.9974 4.88793 10.9458 4.90496C10.8379 4.94057 10.7301 4.97631 10.6222 5.01215C10.3605 5.09913 10.0986 5.18535 9.83662 5.2716C9.74673 5.3012 9.65686 5.33083 9.56698 5.36046C9.01966 5.5408 8.47098 5.71675 7.92187 5.8916C7.03493 6.17429 6.14905 6.4602 5.26357 6.74742C4.66746 6.94077 4.07128 7.13387 3.47509 7.32696C3.37618 7.35899 3.27728 7.39103 3.17838 7.42307C2.81797 7.53982 2.45748 7.65635 2.09688 7.77253C1.98876 7.8074 1.88066 7.84235 1.77258 7.87737C1.62538 7.92505 1.47811 7.97248 1.33081 8.01984C1.28777 8.03384 1.24472 8.04785 1.20038 8.06228C1.16126 8.07479 1.12214 8.08731 1.08183 8.10021C1.03116 8.11656 1.03116 8.11656 0.979455 8.13325C0.890624 8.15625 0.890624 8.15625 0.749999 8.15625C0.749999 12.5184 0.749999 16.8806 0.749999 21.375C1.245 21.375 1.74 21.375 2.25 21.375C2.24958 21.2556 2.24917 21.1362 2.24874 21.0132C2.24491 19.8903 2.24212 18.7673 2.24028 17.6443C2.23932 17.0669 2.238 16.4896 2.23585 15.9122C2.23399 15.409 2.23278 14.9059 2.23236 14.4028C2.23211 14.1363 2.23153 13.8698 2.23017 13.6033C2.2289 13.3526 2.22851 13.1019 2.22879 12.8512C2.22874 12.759 2.22836 12.6669 2.22765 12.5748C2.22672 12.4492 2.22694 12.3237 2.22745 12.1981C2.2269 12.1614 2.22636 12.1248 2.2258 12.087C2.22764 11.9206 2.23654 11.83 2.33938 11.6961C2.44726 11.6179 2.49641 11.6013 2.62793 11.6007C2.66485 11.6001 2.70177 11.5996 2.73981 11.5989C2.77926 11.5993 2.81872 11.5997 2.85937 11.6001C2.90028 11.5999 2.94119 11.5997 2.98334 11.5996C3.0697 11.5994 3.15607 11.5998 3.24243 11.6006C3.37455 11.6016 3.50655 11.6006 3.63867 11.5994C3.72266 11.5995 3.80664 11.5997 3.89062 11.6001C3.93008 11.5997 3.96954 11.5993 4.01019 11.5989C4.28377 11.6033 4.28377 11.6033 4.43106 11.7144C4.50569 11.8206 4.52544 11.8716 4.52344 12C4.52416 12.0464 4.52416 12.0464 4.5249 12.0937C4.48809 12.2323 4.42382 12.2859 4.3125 12.375C4.17073 12.3963 4.17073 12.3963 4.00708 12.3933C3.91916 12.3924 3.91916 12.3924 3.82947 12.3915C3.73792 12.3891 3.73792 12.3891 3.64453 12.3867C3.58278 12.3859 3.52102 12.385 3.4574 12.3842C3.3049 12.3819 3.15246 12.3789 3 12.375C3.00017 12.4241 3.00034 12.4732 3.00052 12.5238C3.00468 13.7178 3.00776 14.9117 3.00971 16.1057C3.01068 16.6831 3.012 17.2604 3.01414 17.8378C3.01601 18.341 3.01722 18.8441 3.01764 19.3472C3.01789 19.6137 3.01846 19.8802 3.01982 20.1467C3.02109 20.3974 3.02149 20.6481 3.02121 20.8988C3.02126 20.991 3.02163 21.0831 3.02235 21.1752C3.02328 21.3008 3.02306 21.4263 3.02255 21.5519C3.02337 21.6069 3.02337 21.6069 3.0242 21.663C3.02237 21.8282 3.01312 21.9201 2.9124 22.0539C2.78499 22.1446 2.70893 22.1488 2.55322 22.1493C2.50129 22.1499 2.44935 22.1504 2.39584 22.1511C2.33998 22.1507 2.28412 22.1503 2.22656 22.1499C2.14023 22.1502 2.14023 22.1502 2.05215 22.1504C1.93048 22.1506 1.8088 22.1502 1.68713 22.1494C1.5007 22.1484 1.31436 22.1494 1.12793 22.1506C1.00976 22.1505 0.8916 22.1503 0.773436 22.1499C0.717573 22.1503 0.661711 22.1507 0.604155 22.1511C0.526252 22.1502 0.526252 22.1502 0.446776 22.1493C0.401125 22.1491 0.355474 22.149 0.30844 22.1488C0.149315 22.1175 0.100742 22.0632 -1.48267e-06 21.9375C-0.0235044 21.811 -0.0235041 21.811 -0.0235963 21.6631C-0.0240853 21.6067 -0.0245746 21.5503 -0.0250783 21.4921C-0.024673 21.4294 -0.0242499 21.3667 -0.0238109 21.304C-0.0240269 21.2375 -0.0243252 21.171 -0.0246978 21.1044C-0.0254823 20.9214 -0.0250918 20.7383 -0.0245119 20.5552C-0.0240885 20.3579 -0.0247425 20.1605 -0.0252586 19.9632C-0.0260935 19.5765 -0.0259118 19.1898 -0.0253687 18.8032C-0.0249457 18.489 -0.0248869 18.1748 -0.0250912 17.8606C-0.02512 17.8159 -0.0251489 17.7712 -0.0251785 17.7252C-0.0252384 17.6345 -0.0253 17.5437 -0.0253616 17.453C-0.0258966 16.6015 -0.0252814 15.7501 -0.0242744 14.8986C-0.0234367 14.1677 -0.0235816 13.4367 -0.0244461 12.7057C-0.0254489 11.8573 -0.0258447 11.009 -0.0252686 10.1607C-0.0252089 10.0703 -0.0251494 9.97984 -0.0250912 9.88942C-0.0250623 9.84493 -0.0250338 9.80044 -0.025004 9.75461C-0.0248419 9.44069 -0.0251153 9.12679 -0.0255561 8.81288C-0.0260813 8.43046 -0.0259411 8.04805 -0.024941 7.66563C-0.0244474 7.47042 -0.0242582 7.27522 -0.0248766 7.08C-0.0254338 6.90143 -0.0251299 6.72288 -0.0241299 6.5443C-0.0239198 6.47957 -0.0240287 6.41485 -0.0244818 6.35012C-0.0250492 6.26237 -0.0243567 6.17462 -0.0235963 6.08688C-0.0235659 6.03807 -0.0235361 5.98925 -0.0235048 5.93896C0.00619228 5.77917 0.0621858 5.72528 0.187499 5.625C0.31359 5.56828 0.31359 5.56828 0.461791 5.52026C0.518748 5.50152 0.575706 5.48277 0.63439 5.46345C0.698313 5.44307 0.76224 5.4227 0.82617 5.40234C0.895055 5.37994 0.963925 5.35749 1.03278 5.33501C1.22531 5.27234 1.41808 5.21047 1.61094 5.14883C1.73506 5.10916 1.85914 5.06936 1.98321 5.02954C2.35213 4.91117 2.72112 4.79304 3.09025 4.67532C3.96335 4.39681 4.83528 4.11476 5.70703 3.83203C5.99145 3.7398 6.27587 3.64757 6.5603 3.55536C6.59552 3.54394 6.63074 3.53252 6.66703 3.52075C7.43664 3.27124 8.20655 3.02268 8.97656 2.77441C9.03418 2.75583 9.0918 2.73726 9.15117 2.71811C9.20707 2.70009 9.26297 2.68207 9.32057 2.6635C9.40319 2.63684 9.40319 2.63684 9.48748 2.60965C9.59608 2.57467 9.70471 2.53977 9.81337 2.50497C10.077 2.42041 10.3403 2.33479 10.6027 2.24627C10.7341 2.20198 10.8658 2.15822 10.9975 2.1145C11.0603 2.09347 11.1231 2.0722 11.1858 2.05066C11.7492 1.8571 12.138 1.81743 12.7002 2.01269Z" fill="#D62828"/>
<path d="M23.625 8.60156C23.6714 8.60084 23.6714 8.60084 23.7188 8.6001C23.8664 8.63932 23.9098 8.68672 24 8.8125C24.0291 8.9853 24.0253 9.1572 24.0238 9.33206C24.0243 9.4125 24.0243 9.4125 24.0247 9.49456C24.0253 9.64343 24.0251 9.79227 24.0245 9.94114C24.0241 10.1017 24.0247 10.2622 24.0253 10.4227C24.0261 10.7372 24.0259 11.0517 24.0254 11.3662C24.0249 11.6218 24.0249 11.8773 24.0251 12.1329C24.0251 12.1692 24.0251 12.2056 24.0252 12.243C24.0252 12.3169 24.0253 12.3907 24.0254 12.4645C24.0259 13.1572 24.0253 13.8498 24.0243 14.5424C24.0234 15.137 24.0236 15.7315 24.0244 16.326C24.0254 17.0162 24.0258 17.7063 24.0253 18.3964C24.0252 18.47 24.0252 18.5436 24.0251 18.6171C24.025 18.6714 24.025 18.6714 24.025 18.7268C24.0248 18.9821 24.0251 19.2374 24.0256 19.4927C24.0261 19.8038 24.0259 20.1148 24.0249 20.4259C24.0244 20.5846 24.0243 20.7434 24.0249 20.9021C24.0254 21.0741 24.0247 21.246 24.0238 21.4179C24.0244 21.4935 24.0244 21.4935 24.0251 21.5707C24.0215 21.9063 24.0215 21.9063 23.9141 22.0622C23.768 22.1525 23.6555 22.1488 23.4844 22.1493C23.4517 22.1496 23.4191 22.1499 23.3855 22.1503C23.2778 22.1511 23.1702 22.1505 23.0625 22.1499C22.9876 22.15 22.9126 22.1502 22.8376 22.1504C22.6807 22.1507 22.5237 22.1503 22.3667 22.1494C22.1656 22.1484 21.9645 22.149 21.7633 22.1501C21.6086 22.1508 21.4538 22.1506 21.2991 22.1501C21.2249 22.15 21.1508 22.1501 21.0766 22.1506C20.9729 22.151 20.8693 22.1503 20.7656 22.1493C20.7067 22.1491 20.6477 22.149 20.5869 22.1488C20.403 22.1195 20.3598 22.0864 20.25 21.9375C20.232 21.8029 20.2254 21.6864 20.2275 21.5519C20.2273 21.5127 20.2271 21.4735 20.227 21.4331C20.2267 21.3015 20.2277 21.17 20.2287 21.0384C20.2288 20.9442 20.2287 20.8499 20.2286 20.7557C20.2286 20.4996 20.2297 20.2436 20.231 19.9875C20.2322 19.72 20.2323 19.4525 20.2325 19.185C20.2331 18.6783 20.2346 18.1717 20.2365 17.665C20.2386 17.0883 20.2396 16.5115 20.2406 15.9347C20.2425 14.7481 20.2458 13.5616 20.25 12.375C20.2019 12.3751 20.2019 12.3751 20.1528 12.3752C18.2536 12.3794 16.3544 12.3826 14.4552 12.3846C14.2273 12.3848 13.9994 12.3851 13.7715 12.3853C13.7261 12.3853 13.6808 12.3854 13.634 12.3854C12.8988 12.3863 12.1635 12.3877 11.4283 12.3895C10.6742 12.3912 9.92015 12.3923 9.16608 12.3926C8.70054 12.3929 8.23501 12.3937 7.76947 12.3952C7.45051 12.3962 7.13155 12.3965 6.81258 12.3963C6.62838 12.3962 6.44419 12.3963 6.25999 12.3974C6.09147 12.3983 5.92297 12.3983 5.75445 12.3977C5.66437 12.3976 5.57429 12.3984 5.48421 12.3992C5.43093 12.3988 5.37765 12.3985 5.32276 12.3981C5.25366 12.3982 5.25366 12.3982 5.18317 12.3983C5.02833 12.3684 4.97257 12.3087 4.875 12.1875C4.8501 12.0938 4.8501 12.0938 4.85156 12C4.85084 11.9536 4.85084 11.9536 4.8501 11.9062C4.88653 11.7691 4.95359 11.7143 5.0625 11.625C5.18656 11.6015 5.18656 11.6015 5.33102 11.6014C5.38614 11.6009 5.44126 11.6004 5.49806 11.5999C5.55866 11.6003 5.61927 11.6008 5.68172 11.6012C5.74671 11.601 5.81171 11.6007 5.8767 11.6003C6.05549 11.5995 6.23427 11.5999 6.41307 11.6005C6.60581 11.6009 6.79855 11.6003 6.99129 11.5997C7.36895 11.5989 7.74661 11.5991 8.12427 11.5996C8.43113 11.6001 8.73799 11.6001 9.04486 11.5999C9.08849 11.5999 9.13212 11.5999 9.17707 11.5998C9.26571 11.5998 9.35434 11.5997 9.44297 11.5996C10.2746 11.5991 11.1061 11.5997 11.9377 11.6007C12.6517 11.6016 13.3656 11.6014 14.0795 11.6006C14.9081 11.5996 15.7367 11.5992 16.5652 11.5997C16.6535 11.5998 16.7418 11.5999 16.8301 11.5999C16.8736 11.5999 16.9171 11.6 16.9618 11.6C17.2684 11.6002 17.575 11.5999 17.8816 11.5994C18.2551 11.5989 18.6286 11.5991 19.0021 11.6001C19.1927 11.6006 19.3834 11.6007 19.574 11.6001C19.7484 11.5996 19.9228 11.5999 20.0972 11.6009C20.1905 11.6012 20.2837 11.6006 20.3769 11.5999C20.4321 11.6004 20.4872 11.6009 20.544 11.6014C20.5917 11.6014 20.6393 11.6015 20.6884 11.6015C20.8474 11.6316 20.903 11.685 21 11.8125C21.018 11.9471 21.0246 12.0636 21.0225 12.1981C21.0227 12.2373 21.0229 12.2765 21.023 12.3169C21.0233 12.4485 21.0223 12.58 21.0213 12.7116C21.0212 12.8058 21.0213 12.9001 21.0214 12.9943C21.0214 13.2504 21.0203 13.5064 21.019 13.7625C21.0178 14.03 21.0177 14.2975 21.0175 14.565C21.0169 15.0717 21.0154 15.5783 21.0135 16.085C21.0114 16.6617 21.0104 17.2385 21.0094 17.8153C21.0075 19.0019 21.004 20.1884 21 21.375C21.7425 21.375 22.485 21.375 23.25 21.375C23.2496 21.218 23.2492 21.0611 23.2487 20.8993C23.245 19.4607 23.2422 18.0221 23.2404 16.5834C23.2402 16.3949 23.24 16.2065 23.2397 16.018C23.2397 15.9805 23.2396 15.943 23.2396 15.9043C23.2387 15.2964 23.2373 14.6885 23.2355 14.0805C23.2338 13.457 23.2327 12.8334 23.2324 12.2099C23.2321 11.8249 23.2313 11.44 23.2298 11.0551C23.2288 10.7913 23.2285 10.5276 23.2287 10.2638C23.2288 10.1115 23.2286 9.95918 23.2277 9.80688C23.2267 9.6419 23.2269 9.47695 23.2275 9.31197C23.2269 9.26363 23.2264 9.2153 23.2258 9.1655C23.2285 8.84217 23.2285 8.84217 23.3393 8.68909C23.4451 8.62003 23.4997 8.5996 23.625 8.60156Z" fill="#D62828"/>
<path d="M7.34317 7.47619C7.40523 7.47575 7.40523 7.47575 7.46854 7.4753C7.60746 7.47455 7.74634 7.47515 7.88525 7.47574C7.98473 7.47548 8.0842 7.47515 8.18368 7.47474C8.45408 7.47388 8.72447 7.47422 8.99487 7.47481C9.27755 7.47529 9.56024 7.47485 9.84292 7.47455C10.3177 7.47421 10.7924 7.47466 11.2672 7.47555C11.8165 7.47657 12.3657 7.47624 12.915 7.47521C13.3862 7.47436 13.8573 7.47424 14.3285 7.47473C14.6101 7.47502 14.8917 7.47506 15.1733 7.47444C15.438 7.4739 15.7027 7.47428 15.9674 7.47536C16.0647 7.47561 16.162 7.47554 16.2592 7.47512C16.3918 7.47461 16.5243 7.47525 16.6568 7.47619C16.6955 7.47577 16.7343 7.47535 16.7742 7.47492C16.9441 7.47726 17.0423 7.48482 17.1801 7.58857C17.2634 7.70642 17.2737 7.76899 17.2743 7.91235C17.2749 7.95678 17.2754 8.00121 17.2761 8.04698C17.2757 8.09464 17.2753 8.1423 17.2749 8.1914C17.2751 8.24064 17.2753 8.28987 17.2754 8.34059C17.2756 8.44461 17.2752 8.54863 17.2744 8.65265C17.2734 8.81192 17.2744 8.9711 17.2756 9.13037C17.2755 9.23144 17.2753 9.33252 17.2749 9.43359C17.2753 9.48125 17.2757 9.52891 17.2761 9.57802C17.2752 9.64466 17.2752 9.64466 17.2743 9.71264C17.2741 9.75163 17.274 9.79062 17.2738 9.83079C17.2397 9.98358 17.1878 10.0307 17.0625 10.125C16.9215 10.1434 16.7978 10.1503 16.6568 10.1488C16.6155 10.1491 16.5741 10.1494 16.5315 10.1497C16.3925 10.1504 16.2537 10.1498 16.1147 10.1493C16.0153 10.1495 15.9158 10.1498 15.8163 10.1503C15.5459 10.1511 15.2755 10.1508 15.0051 10.1502C14.7224 10.1497 14.4398 10.1501 14.1571 10.1504C13.6823 10.1508 13.2075 10.1503 12.7328 10.1494C12.1835 10.1484 11.6343 10.1488 11.085 10.1498C10.6138 10.1506 10.1427 10.1508 9.67147 10.1503C9.38988 10.15 9.10829 10.1499 8.8267 10.1506C8.56199 10.1511 8.2973 10.1507 8.03259 10.1496C7.93531 10.1494 7.83803 10.1495 7.74075 10.1499C7.6082 10.1504 7.47571 10.1497 7.34317 10.1488C7.30445 10.1492 7.26572 10.1496 7.22583 10.1501C7.05588 10.1477 6.95766 10.1402 6.81988 10.0364C6.73663 9.91857 6.72629 9.856 6.72574 9.71264C6.72485 9.646 6.72485 9.646 6.72395 9.57802C6.72433 9.53036 6.7247 9.4827 6.7251 9.43359C6.72492 9.38436 6.72474 9.33513 6.72455 9.28441C6.72442 9.18039 6.72477 9.07637 6.72555 8.97235C6.72656 8.81307 6.72556 8.6539 6.72436 8.49463C6.72449 8.39355 6.72473 8.29248 6.7251 8.1914C6.72472 8.14374 6.72434 8.09608 6.72395 8.04698C6.72454 8.00255 6.72513 7.95813 6.72574 7.91235C6.72589 7.87336 6.72603 7.83437 6.72619 7.7942C6.79849 7.47016 7.06177 7.47315 7.34317 7.47619ZM7.5 8.25C7.5 8.62125 7.5 8.9925 7.5 9.375C10.47 9.375 13.44 9.375 16.5 9.375C16.5 9.00375 16.5 8.6325 16.5 8.25C13.53 8.25 10.56 8.25 7.5 8.25Z" fill="#D62828"/>
<path d="M3.83171 13.8507C3.88586 13.8501 3.94 13.8496 3.99579 13.8489C4.08331 13.8495 4.08331 13.8495 4.17261 13.8501C4.23284 13.8499 4.29307 13.8497 4.35513 13.8496C4.48264 13.8493 4.61013 13.8497 4.73765 13.8506C4.90021 13.8516 5.06271 13.851 5.22526 13.8499C5.38122 13.849 5.53716 13.8496 5.69312 13.8501C5.78007 13.8495 5.78007 13.8495 5.86878 13.8489C6.25053 13.8531 6.51305 13.8959 6.80823 14.1546C6.83349 14.1851 6.85874 14.2156 6.88477 14.2471C6.91075 14.2775 6.93673 14.3079 6.9635 14.3392C7.10248 14.5409 7.13688 14.7165 7.13862 14.9593C7.13922 15.0163 7.13981 15.0732 7.14043 15.1319C7.14054 15.1931 7.14064 15.2543 7.14075 15.3173C7.14105 15.3812 7.14136 15.4452 7.14169 15.5091C7.14225 15.6429 7.14243 15.7768 7.14237 15.9106C7.14236 16.0813 7.14364 16.252 7.14526 16.4227C7.1463 16.5547 7.14649 16.6867 7.14644 16.8188C7.1466 16.912 7.14762 17.0053 7.14865 17.0985C7.14692 17.4419 7.11155 17.6574 6.9375 17.9531C6.96054 18.081 6.96054 18.081 7.03125 18.1875C7.11626 18.3675 7.1372 18.5108 7.13862 18.7093C7.13922 18.7663 7.13981 18.8232 7.14043 18.8819C7.14054 18.9431 7.14064 19.0043 7.14075 19.0673C7.14105 19.1312 7.14136 19.1952 7.14169 19.2591C7.14225 19.3929 7.14243 19.5268 7.14237 19.6606C7.14236 19.8313 7.14364 20.002 7.14526 20.1727C7.1463 20.3047 7.14649 20.4367 7.14644 20.5688C7.1466 20.662 7.14762 20.7553 7.14865 20.8485C7.14668 21.2398 7.11048 21.5057 6.8454 21.8082C6.81488 21.8335 6.78437 21.8587 6.75293 21.8848C6.70734 21.9237 6.70734 21.9237 6.66083 21.9635C6.46268 22.1 6.28922 22.1368 6.05062 22.1386C5.99587 22.1392 5.94112 22.1398 5.88472 22.1404C5.82602 22.1405 5.76732 22.1406 5.70685 22.1407C5.61593 22.1412 5.61593 22.1412 5.52318 22.1417C5.39517 22.1423 5.26716 22.1424 5.13914 22.1424C4.97526 22.1424 4.81141 22.1436 4.64753 22.1453C4.49087 22.1465 4.33422 22.1465 4.17755 22.1466C4.11876 22.1473 4.05997 22.148 3.99939 22.1486C3.9448 22.1484 3.8902 22.1481 3.83394 22.1478C3.76193 22.148 3.76193 22.148 3.68846 22.1482C3.52962 22.1189 3.4744 22.0621 3.375 21.9375C3.3501 21.8437 3.3501 21.8437 3.35156 21.75C3.35084 21.7036 3.35084 21.7036 3.3501 21.6562C3.38629 21.52 3.45517 21.4644 3.5625 21.375C3.67601 21.3513 3.67601 21.3513 3.80382 21.3509C3.85185 21.3503 3.89988 21.3497 3.94937 21.349C4.02679 21.3494 4.02679 21.3494 4.10577 21.3497C4.15906 21.3492 4.21234 21.3486 4.26723 21.3481C4.4376 21.3464 4.60794 21.346 4.77832 21.3457C4.94852 21.3449 5.11871 21.3439 5.2889 21.3423C5.39481 21.3414 5.50071 21.341 5.60662 21.3411C5.6548 21.3408 5.70298 21.3404 5.75261 21.3401C5.81594 21.34 5.81594 21.34 5.88054 21.3399C6.01856 21.3263 6.11326 21.3028 6.23438 21.2344C6.32091 21.0796 6.33992 20.946 6.34026 20.7706C6.34055 20.7263 6.34085 20.682 6.34115 20.6364C6.34096 20.5891 6.34077 20.5419 6.34058 20.4932C6.34067 20.4441 6.34076 20.3951 6.34085 20.3445C6.34091 20.241 6.34074 20.1374 6.34035 20.0339C6.33985 19.8756 6.34034 19.7173 6.34094 19.559C6.34088 19.4582 6.34076 19.3575 6.34058 19.2568C6.34077 19.2096 6.34096 19.1623 6.34115 19.1136C6.34086 19.0693 6.34056 19.025 6.34026 18.9794C6.34018 18.9407 6.34011 18.9019 6.34003 18.862C6.3262 18.7319 6.29193 18.633 6.23438 18.5156C6.04237 18.3995 5.82906 18.402 5.61035 18.3926C5.57564 18.3908 5.54092 18.389 5.50516 18.3871C5.42012 18.3827 5.33506 18.3788 5.25 18.375C5.25098 18.4024 5.25196 18.4298 5.25298 18.4581C5.25688 18.5827 5.25931 18.7074 5.26172 18.832C5.26329 18.8752 5.26486 18.9183 5.26648 18.9628C5.2711 19.2813 5.2711 19.2813 5.16724 19.4348C5.058 19.5028 5.00237 19.5254 4.875 19.5234C4.84406 19.5239 4.81313 19.5244 4.78125 19.5249C4.63345 19.4856 4.58644 19.4402 4.5 19.3125C4.47705 19.1517 4.48238 18.994 4.48828 18.832C4.48913 18.7882 4.48997 18.7443 4.49084 18.6991C4.49305 18.591 4.49613 18.483 4.5 18.375C4.45887 18.3765 4.45887 18.3765 4.41692 18.378C4.29228 18.3819 4.16765 18.3843 4.04297 18.3867C3.99983 18.3883 3.95668 18.3899 3.91223 18.3915C3.59368 18.3961 3.59368 18.3961 3.44019 18.2922C3.3722 18.183 3.34957 18.1274 3.35156 18C3.35084 17.9536 3.35084 17.9536 3.3501 17.9062C3.38629 17.77 3.45517 17.7144 3.5625 17.625C3.67601 17.6013 3.67601 17.6013 3.80382 17.6009C3.85185 17.6003 3.89988 17.5997 3.94937 17.599C4.02679 17.5994 4.02679 17.5994 4.10577 17.5997C4.15906 17.5992 4.21234 17.5986 4.26723 17.5981C4.4376 17.5964 4.60794 17.596 4.77832 17.5957C4.94852 17.5949 5.11871 17.5939 5.2889 17.5923C5.39481 17.5914 5.50071 17.591 5.60662 17.5911C5.6548 17.5908 5.70298 17.5904 5.75261 17.5901C5.81594 17.59 5.81594 17.59 5.88054 17.5899C6.01856 17.5763 6.11326 17.5528 6.23438 17.4844C6.32091 17.3296 6.33992 17.196 6.34026 17.0206C6.34055 16.9763 6.34085 16.932 6.34115 16.8864C6.34096 16.8391 6.34077 16.7919 6.34058 16.7432C6.34067 16.6941 6.34076 16.6451 6.34085 16.5945C6.34091 16.491 6.34074 16.3874 6.34035 16.2839C6.33985 16.1256 6.34034 15.9673 6.34094 15.809C6.34088 15.7082 6.34076 15.6075 6.34058 15.5068C6.34077 15.4596 6.34096 15.4123 6.34115 15.3636C6.34086 15.3193 6.34056 15.275 6.34026 15.2294C6.34018 15.1907 6.34011 15.1519 6.34003 15.112C6.3262 14.9819 6.29193 14.883 6.23438 14.7656C6.04237 14.6495 5.82906 14.652 5.61035 14.6426C5.57564 14.6408 5.54092 14.639 5.50516 14.6371C5.42012 14.6327 5.33506 14.6288 5.25 14.625C5.25098 14.6524 5.25196 14.6798 5.25298 14.7081C5.25688 14.8327 5.25931 14.9574 5.26172 15.082C5.26329 15.1252 5.26486 15.1683 5.26648 15.2128C5.2711 15.5313 5.2711 15.5313 5.16724 15.6848C5.058 15.7528 5.00237 15.7754 4.875 15.7734C4.82859 15.7742 4.82859 15.7742 4.78125 15.7749C4.63345 15.7356 4.58644 15.6902 4.5 15.5625C4.47705 15.4017 4.48238 15.244 4.48828 15.082C4.48913 15.0382 4.48997 14.9943 4.49084 14.9491C4.49305 14.841 4.49613 14.733 4.5 14.625C4.47258 14.626 4.44516 14.627 4.41692 14.628C4.29228 14.6319 4.16765 14.6343 4.04297 14.6367C3.97825 14.6391 3.97825 14.6391 3.91223 14.6415C3.59368 14.6461 3.59368 14.6461 3.44019 14.5422C3.3722 14.433 3.34957 14.3774 3.35156 14.25C3.35084 14.2036 3.35084 14.2036 3.3501 14.1562C3.41655 13.9061 3.59548 13.8515 3.83171 13.8507Z" fill="#D62828"/>
<path d="M17.1994 13.8614C17.2541 13.8608 17.3089 13.8602 17.3653 13.8596C17.4533 13.8594 17.4533 13.8594 17.5432 13.8593C17.6038 13.8589 17.6644 13.8586 17.7268 13.8583C17.8548 13.8577 17.9828 13.8576 18.1109 13.8576C18.2747 13.8576 18.4386 13.8564 18.6025 13.8547C18.7591 13.8534 18.9158 13.8535 19.0724 13.8534C19.1606 13.8524 19.1606 13.8524 19.2506 13.8514C19.3052 13.8516 19.3598 13.8519 19.4161 13.8522C19.4881 13.852 19.4881 13.852 19.5615 13.8518C19.7204 13.8811 19.7756 13.9379 19.875 14.0625C19.8999 14.1563 19.8999 14.1563 19.8984 14.25C19.8992 14.2964 19.8992 14.2964 19.8999 14.3438C19.8606 14.4916 19.8152 14.5386 19.6875 14.625C19.5267 14.6479 19.369 14.6426 19.207 14.6367C19.1632 14.6359 19.1193 14.635 19.0741 14.6342C18.966 14.6319 18.858 14.6289 18.75 14.625C18.751 14.6524 18.752 14.6798 18.753 14.7081C18.7569 14.8327 18.7593 14.9574 18.7617 15.082C18.7633 15.1252 18.7649 15.1683 18.7665 15.2128C18.7711 15.5313 18.7711 15.5313 18.6672 15.6848C18.558 15.7528 18.5024 15.7754 18.375 15.7734C18.3441 15.7739 18.3131 15.7744 18.2813 15.7749C18.1334 15.7356 18.0864 15.6902 18 15.5625C17.9771 15.4017 17.9824 15.244 17.9883 15.082C17.9891 15.0382 17.99 14.9943 17.9908 14.9491C17.9931 14.841 17.9961 14.733 18 14.625C17.8798 14.6304 17.7598 14.6363 17.6396 14.6426C17.5889 14.6448 17.5889 14.6448 17.5372 14.647C17.2647 14.6616 17.2647 14.6616 17.0156 14.7656C16.9378 14.9244 16.9101 15.0536 16.9097 15.2294C16.9094 15.2737 16.9092 15.318 16.9088 15.3636C16.909 15.4109 16.9092 15.4581 16.9094 15.5068C16.9093 15.5559 16.9092 15.6049 16.9092 15.6555C16.9091 15.759 16.9093 15.8626 16.9097 15.9661C16.9102 16.1244 16.9097 16.2827 16.9091 16.441C16.9091 16.5417 16.9092 16.6425 16.9094 16.7432C16.9092 16.7904 16.909 16.8377 16.9088 16.8864C16.9091 16.9307 16.9094 16.975 16.9097 17.0206C16.9098 17.0593 16.9099 17.0981 16.91 17.138C16.9243 17.2724 16.9495 17.366 17.0156 17.4844C17.1759 17.5749 17.3155 17.5898 17.4974 17.5901C17.5697 17.5906 17.5697 17.5906 17.6434 17.5911C17.6949 17.591 17.7464 17.591 17.7995 17.5909C17.909 17.5919 18.0184 17.5929 18.1279 17.5939C18.3002 17.5949 18.4725 17.5957 18.6448 17.596C18.8113 17.5964 18.9777 17.598 19.1442 17.5997C19.1958 17.5995 19.2475 17.5993 19.3006 17.599C19.3487 17.5996 19.3967 17.6003 19.4462 17.6009C19.4884 17.601 19.5305 17.6012 19.574 17.6013C19.7232 17.6325 19.7799 17.6961 19.875 17.8125C19.8999 17.9062 19.8999 17.9062 19.8984 18C19.8992 18.0464 19.8992 18.0464 19.8999 18.0938C19.8606 18.2416 19.8152 18.2886 19.6875 18.375C19.5267 18.3979 19.369 18.3926 19.207 18.3867C19.1632 18.3859 19.1193 18.385 19.0741 18.3842C18.966 18.3819 18.858 18.3789 18.75 18.375C18.751 18.4024 18.752 18.4298 18.753 18.4581C18.7569 18.5827 18.7593 18.7074 18.7617 18.832C18.7633 18.8752 18.7649 18.9183 18.7665 18.9628C18.7711 19.2813 18.7711 19.2813 18.6672 19.4348C18.558 19.5028 18.5024 19.5254 18.375 19.5234C18.3286 19.5242 18.3286 19.5242 18.2813 19.5249C18.1334 19.4856 18.0864 19.4402 18 19.3125C17.9771 19.1517 17.9824 18.994 17.9883 18.832C17.9891 18.7882 17.99 18.7443 17.9908 18.6991C17.9931 18.591 17.9961 18.483 18 18.375C17.8798 18.3804 17.7598 18.3863 17.6396 18.3926C17.6058 18.394 17.572 18.3955 17.5372 18.397C17.2647 18.4116 17.2647 18.4116 17.0156 18.5156C16.9378 18.6744 16.9101 18.8036 16.9097 18.9794C16.9094 19.0237 16.9092 19.068 16.9088 19.1136C16.909 19.1609 16.9092 19.2081 16.9094 19.2568C16.9093 19.3059 16.9092 19.3549 16.9092 19.4055C16.9091 19.509 16.9093 19.6126 16.9097 19.7161C16.9102 19.8744 16.9097 20.0327 16.9091 20.191C16.9091 20.2917 16.9092 20.3925 16.9094 20.4932C16.9092 20.5404 16.909 20.5877 16.9088 20.6364C16.9091 20.6807 16.9094 20.725 16.9097 20.7706C16.9098 20.8093 16.9099 20.8481 16.91 20.888C16.9243 21.0224 16.9495 21.116 17.0156 21.2344C17.1759 21.3249 17.3155 21.3398 17.4974 21.3401C17.5456 21.3404 17.5937 21.3407 17.6434 21.3411C17.6949 21.341 17.7464 21.341 17.7995 21.3409C17.909 21.3419 18.0184 21.3429 18.1279 21.3439C18.3002 21.3449 18.4725 21.3457 18.6448 21.346C18.8113 21.3464 18.9777 21.348 19.1442 21.3497C19.1958 21.3495 19.2475 21.3493 19.3006 21.349C19.3487 21.3496 19.3967 21.3503 19.4462 21.3509C19.5094 21.3511 19.5094 21.3511 19.574 21.3513C19.7232 21.3825 19.7799 21.4461 19.875 21.5625C19.8999 21.6562 19.8999 21.6562 19.8984 21.75C19.8992 21.7964 19.8992 21.7964 19.8999 21.8438C19.8635 21.9809 19.7964 22.0357 19.6875 22.125C19.5625 22.1488 19.5625 22.1488 19.4183 22.1493C19.3371 22.1501 19.3371 22.1501 19.2542 22.1511C19.1959 22.1507 19.1375 22.1503 19.0774 22.1499C19.0172 22.1501 18.9569 22.1503 18.8949 22.1504C18.7674 22.1507 18.6399 22.1503 18.5124 22.1494C18.3498 22.1484 18.1873 22.149 18.0247 22.1501C17.8688 22.151 17.7128 22.1504 17.5569 22.1499C17.4989 22.1503 17.4409 22.1507 17.3812 22.1511C16.9995 22.1469 16.7369 22.1041 16.4418 21.8454C16.4039 21.7996 16.4039 21.7996 16.3652 21.7529C16.3393 21.7225 16.3133 21.6921 16.2865 21.6608C16.1475 21.4591 16.1131 21.2835 16.1114 21.0407C16.1108 20.9837 16.1102 20.9268 16.1096 20.8681C16.1095 20.8069 16.1094 20.7457 16.1093 20.6827C16.109 20.6188 16.1086 20.5548 16.1083 20.4909C16.1077 20.3571 16.1076 20.2232 16.1076 20.0894C16.1076 19.9187 16.1064 19.748 16.1047 19.5773C16.1037 19.4453 16.1035 19.3133 16.1036 19.1812C16.1034 19.088 16.1024 18.9947 16.1014 18.9015C16.1031 18.5581 16.1385 18.3426 16.3125 18.0469C16.2895 17.919 16.2895 17.919 16.2188 17.8125C16.1337 17.6325 16.1128 17.4892 16.1114 17.2907C16.1108 17.2337 16.1102 17.1768 16.1096 17.1181C16.1095 17.0569 16.1094 16.9957 16.1093 16.9327C16.109 16.8688 16.1086 16.8048 16.1083 16.7409C16.1077 16.6071 16.1076 16.4732 16.1076 16.3394C16.1076 16.1687 16.1064 15.998 16.1047 15.8273C16.1037 15.6953 16.1035 15.5633 16.1036 15.4312C16.1034 15.338 16.1024 15.2447 16.1014 15.1515C16.1033 14.7602 16.1395 14.4943 16.4046 14.1918C16.4351 14.1665 16.4656 14.1413 16.4971 14.1152C16.5275 14.0893 16.5579 14.0633 16.5892 14.0365C16.7873 13.9 16.9608 13.8632 17.1994 13.8614Z" fill="#D62828"/>
<path d="M13.0744 17.6114C13.1291 17.6108 13.1839 17.6102 13.2403 17.6096C13.3283 17.6094 13.3283 17.6094 13.4182 17.6093C13.4788 17.6089 13.5394 17.6086 13.6018 17.6083C13.7298 17.6077 13.8578 17.6076 13.9859 17.6076C14.1497 17.6076 14.3136 17.6064 14.4775 17.6047C14.6341 17.6034 14.7908 17.6035 14.9474 17.6034C15.0356 17.6024 15.0356 17.6024 15.1256 17.6014C15.1802 17.6016 15.2348 17.6019 15.2911 17.6022C15.3631 17.602 15.3631 17.602 15.4365 17.6018C15.5954 17.6311 15.6506 17.6879 15.75 17.8125C15.7749 17.9063 15.7749 17.9063 15.7734 18C15.7742 18.0464 15.7742 18.0464 15.7749 18.0938C15.7356 18.2416 15.6902 18.2886 15.5625 18.375C15.4017 18.3979 15.244 18.3926 15.082 18.3867C15.0382 18.3859 14.9943 18.385 14.9491 18.3842C14.841 18.382 14.733 18.3789 14.625 18.375C14.626 18.4024 14.627 18.4298 14.628 18.4581C14.6319 18.5827 14.6343 18.7074 14.6367 18.832C14.6383 18.8752 14.6399 18.9183 14.6415 18.9628C14.6461 19.2813 14.6461 19.2813 14.5422 19.4348C14.433 19.5028 14.3774 19.5254 14.25 19.5234C14.2191 19.5239 14.1881 19.5244 14.1563 19.5249C14.0084 19.4856 13.9614 19.4402 13.875 19.3125C13.8521 19.1517 13.8574 18.994 13.8633 18.832C13.8641 18.7882 13.865 18.7443 13.8658 18.6991C13.8681 18.591 13.8711 18.483 13.875 18.375C13.7548 18.3804 13.6348 18.3863 13.5146 18.3926C13.4639 18.3948 13.4639 18.3948 13.4122 18.397C13.1397 18.4116 13.1397 18.4116 12.8906 18.5156C12.8128 18.6744 12.7851 18.8036 12.7847 18.9794C12.7844 19.0237 12.7842 19.068 12.7838 19.1136C12.784 19.1609 12.7842 19.2081 12.7844 19.2568C12.7843 19.3059 12.7842 19.3549 12.7842 19.4055C12.7841 19.509 12.7843 19.6126 12.7847 19.7161C12.7852 19.8744 12.7847 20.0327 12.7841 20.191C12.7841 20.2917 12.7842 20.3925 12.7844 20.4932C12.7842 20.5404 12.784 20.5877 12.7838 20.6364C12.7841 20.6807 12.7844 20.725 12.7847 20.7706C12.7848 20.8093 12.7849 20.8481 12.785 20.888C12.7993 21.0224 12.8245 21.116 12.8906 21.2344C13.0509 21.3249 13.1905 21.3398 13.3724 21.3401C13.4447 21.3406 13.4447 21.3406 13.5184 21.3411C13.5699 21.341 13.6214 21.341 13.6745 21.3409C13.784 21.3419 13.8934 21.3429 14.0029 21.3439C14.1752 21.3449 14.3475 21.3457 14.5198 21.346C14.6863 21.3464 14.8527 21.348 15.0192 21.3497C15.0708 21.3495 15.1225 21.3493 15.1756 21.349C15.2237 21.3496 15.2717 21.3503 15.3212 21.3509C15.3634 21.351 15.4055 21.3512 15.449 21.3513C15.5982 21.3825 15.6549 21.4461 15.75 21.5625C15.7749 21.6563 15.7749 21.6563 15.7734 21.75C15.7742 21.7964 15.7742 21.7964 15.7749 21.8438C15.7385 21.9809 15.6714 22.0357 15.5625 22.125C15.4375 22.1488 15.4375 22.1488 15.2933 22.1493C15.2121 22.1501 15.2121 22.1501 15.1292 22.1511C15.0417 22.1505 15.0417 22.1505 14.9524 22.1499C14.8922 22.1501 14.8319 22.1503 14.7699 22.1504C14.6424 22.1507 14.5149 22.1503 14.3874 22.1494C14.2248 22.1484 14.0623 22.149 13.8997 22.1501C13.7438 22.151 13.5878 22.1504 13.4319 22.1499C13.3739 22.1503 13.3159 22.1507 13.2562 22.1511C12.8745 22.1469 12.6119 22.1041 12.3168 21.8454C12.2915 21.8149 12.2663 21.7844 12.2402 21.7529C12.2143 21.7225 12.1883 21.6921 12.1615 21.6608C12.0225 21.4591 11.9881 21.2835 11.9864 21.0407C11.9858 20.9837 11.9852 20.9268 11.9846 20.8681C11.9845 20.8069 11.9844 20.7457 11.9843 20.6827C11.984 20.6188 11.9836 20.5548 11.9833 20.4909C11.9827 20.3571 11.9826 20.2232 11.9826 20.0894C11.9826 19.9187 11.9814 19.748 11.9797 19.5773C11.9787 19.4453 11.9785 19.3133 11.9786 19.1812C11.9784 19.088 11.9774 18.9947 11.9764 18.9015C11.9783 18.5102 12.0145 18.2443 12.2796 17.9418C12.3101 17.9165 12.3406 17.8913 12.3721 17.8652C12.4025 17.8393 12.4329 17.8133 12.4642 17.7865C12.6623 17.65 12.8358 17.6132 13.0744 17.6114Z" fill="#D62828"/>
<path d="M7.95671 17.6007C8.01086 17.6001 8.065 17.5996 8.12079 17.5989C8.20831 17.5995 8.20831 17.5995 8.29761 17.6001C8.35784 17.5999 8.41807 17.5997 8.48013 17.5996C8.60764 17.5993 8.73513 17.5997 8.86265 17.6006C9.02521 17.6016 9.18771 17.601 9.35026 17.5999C9.50622 17.599 9.66216 17.5996 9.81812 17.6001C9.90507 17.5995 9.90507 17.5995 9.99378 17.5989C10.3755 17.6031 10.6381 17.6459 10.9332 17.9046C10.9585 17.9351 10.9837 17.9656 11.0098 17.9971C11.0357 18.0275 11.0617 18.0579 11.0885 18.0892C11.2275 18.2909 11.2619 18.4665 11.2636 18.7093C11.2642 18.7663 11.2648 18.8232 11.2654 18.8819C11.2655 18.9431 11.2656 19.0043 11.2657 19.0673C11.266 19.1312 11.2664 19.1952 11.2667 19.2591C11.2673 19.3929 11.2674 19.5268 11.2674 19.6606C11.2674 19.8313 11.2686 20.002 11.2703 20.1727C11.2713 20.3047 11.2715 20.4367 11.2714 20.5688C11.2716 20.662 11.2726 20.7553 11.2736 20.8485C11.2717 21.2398 11.2355 21.5057 10.9704 21.8082C10.9399 21.8335 10.9094 21.8587 10.8779 21.8848C10.8475 21.9107 10.8171 21.9367 10.7858 21.9635C10.5877 22.1 10.4142 22.1368 10.1756 22.1386C10.1209 22.1392 10.0661 22.1398 10.0097 22.1404C9.92167 22.1406 9.92167 22.1406 9.83185 22.1407C9.74093 22.1412 9.74093 22.1412 9.64818 22.1417C9.52017 22.1423 9.39216 22.1424 9.26414 22.1424C9.10026 22.1424 8.93641 22.1436 8.77253 22.1453C8.61587 22.1465 8.45922 22.1465 8.30255 22.1466C8.24376 22.1473 8.18497 22.148 8.12439 22.1486C8.0698 22.1484 8.0152 22.1481 7.95894 22.1478C7.88693 22.148 7.88693 22.148 7.81346 22.1482C7.65462 22.1189 7.5994 22.0621 7.5 21.9375C7.4751 21.8437 7.4751 21.8437 7.47656 21.75C7.47584 21.7036 7.47584 21.7036 7.4751 21.6562C7.51129 21.52 7.58017 21.4644 7.6875 21.375C7.80101 21.3513 7.80101 21.3513 7.92882 21.3509C7.97685 21.3503 8.02488 21.3497 8.07437 21.349C8.15179 21.3494 8.15179 21.3494 8.23077 21.3497C8.28406 21.3492 8.33734 21.3486 8.39223 21.3481C8.5626 21.3464 8.73294 21.346 8.90332 21.3457C9.07352 21.3449 9.24371 21.3439 9.4139 21.3423C9.51981 21.3414 9.62571 21.341 9.73162 21.3411C9.7798 21.3408 9.82798 21.3404 9.87761 21.3401C9.94094 21.34 9.94094 21.34 10.0055 21.3399C10.1436 21.3263 10.2383 21.3028 10.3594 21.2344C10.4459 21.0796 10.4649 20.946 10.4653 20.7706C10.4656 20.7263 10.4658 20.682 10.4662 20.6364C10.466 20.5891 10.4658 20.5419 10.4656 20.4932C10.4657 20.4441 10.4658 20.3951 10.4658 20.3445C10.4659 20.241 10.4657 20.1374 10.4653 20.0339C10.4648 19.8756 10.4653 19.7173 10.4659 19.559C10.4659 19.4583 10.4658 19.3575 10.4656 19.2568C10.4658 19.2096 10.466 19.1623 10.4662 19.1136C10.4659 19.0693 10.4656 19.025 10.4653 18.9794C10.4652 18.9407 10.4651 18.9019 10.465 18.862C10.4512 18.7319 10.4169 18.633 10.3594 18.5156C10.1674 18.3995 9.95406 18.402 9.73535 18.3926C9.70064 18.3908 9.66592 18.389 9.63016 18.3871C9.54512 18.3827 9.46006 18.3788 9.375 18.375C9.37598 18.4024 9.37696 18.4298 9.37798 18.4581C9.38188 18.5827 9.38431 18.7074 9.38672 18.832C9.38829 18.8752 9.38986 18.9183 9.39148 18.9628C9.3961 19.2813 9.3961 19.2813 9.29224 19.4348C9.183 19.5028 9.12737 19.5254 9 19.5234C8.95359 19.5242 8.95359 19.5242 8.90625 19.5249C8.75845 19.4856 8.71144 19.4402 8.625 19.3125C8.60205 19.1517 8.60738 18.994 8.61328 18.832C8.61413 18.7882 8.61497 18.7443 8.61584 18.6991C8.61805 18.591 8.62113 18.483 8.625 18.375C8.59758 18.376 8.57016 18.377 8.54192 18.378C8.41728 18.3819 8.29265 18.3843 8.16797 18.3867C8.10325 18.3891 8.10325 18.3891 8.03723 18.3915C7.71868 18.3961 7.71868 18.3961 7.56519 18.2922C7.4972 18.183 7.47457 18.1274 7.47656 18C7.47584 17.9536 7.47584 17.9536 7.4751 17.9062C7.54155 17.6561 7.72048 17.6015 7.95671 17.6007Z" fill="#D62828"/>
</g>
<defs>
<clipPath id="clip0_100_164">
<rect width="24" height="24" fill="white"/>
</clipPath>
</defs>
</svg>
