<svg width="24" height="24" viewBox="0 0 24 24" fill="none" xmlns="http://www.w3.org/2000/svg">
<g clip-path="url(#clip0_1754_6)">
<path d="M15 19.5H12M15 17H13M11.5 1.5L13 3M18 3L19.5 4.5M5 3L6.5 4.5M6.14 20.7465C6.16726 21.1655 6.34599 21.5603 6.64287 21.8573C6.93974 22.1543 7.33449 22.3331 7.7535 22.3605C8.7045 22.4305 10.119 22.5 12 22.5C13.881 22.5 15.295 22.4305 16.2465 22.36C16.6655 22.3327 17.0603 22.154 17.3573 21.8571C17.6543 21.5603 17.8331 21.1655 17.8605 20.7465C17.93 19.7955 18 18.381 18 16.5C18 14.619 17.9305 13.205 17.86 12.2535C17.8327 11.8345 17.654 11.4397 17.3571 11.1427C17.0603 10.8457 16.6655 10.6669 16.2465 10.6395C15.2955 10.57 13.881 10.5 12 10.5C10.119 10.5 8.705 10.5695 7.7535 10.64C7.33448 10.6673 6.93968 10.846 6.64271 11.1429C6.34575 11.4397 6.16689 11.8345 6.1395 12.2535C6.07 13.2045 6 14.619 6 16.5C6 18.381 6.0695 19.795 6.14 20.7465Z" stroke="#D62828" stroke-width="1.5" stroke-linecap="round"/>
<path d="M1.5 10.5C1.5 10.5 4 6.5 12 6.5C20 6.5 22.5 10.5 22.5 10.5" stroke="#D62828" stroke-width="1.5" stroke-linecap="round" stroke-linejoin="round"/>
</g>
<defs>
<clipPath id="clip0_1754_6">
<rect width="24" height="24" fill="white"/>
</clipPath>
</defs>
</svg>
