<svg width="24" height="24" viewBox="0 0 24 24" fill="none" xmlns="http://www.w3.org/2000/svg">
<g clip-path="url(#clip0_249_3656)">
<path d="M12.1875 2.68221e-07C12.4577 0.203549 12.5901 0.51934 12.7471 0.811524C12.8098 0.926756 12.8729 1.04181 12.936 1.15686C12.9599 1.20042 12.9599 1.20042 12.9842 1.24485C13.1347 1.51929 13.2915 1.7898 13.4502 2.05957C13.6862 2.46145 13.9195 2.86474 14.1504 3.26953C14.166 3.29687 14.1816 3.3242 14.1977 3.35237C14.3249 3.57535 14.452 3.79841 14.5791 4.02148C14.69 4.21618 14.801 4.41084 14.9121 4.60547C14.9277 4.63278 14.9433 4.66009 14.9593 4.68822C15.1757 5.06727 15.3945 5.44478 15.6152 5.82129C15.8648 6.24698 16.1073 6.67617 16.3471 7.10744C16.5397 7.45313 16.7385 7.79484 16.9395 8.13574C17.9365 9.83664 18.3814 11.5587 17.8833 13.5143C17.6065 14.5158 17.0736 15.379 16.3594 16.125C16.3273 16.16 16.2953 16.195 16.2623 16.231C15.2655 17.2849 13.7524 17.9222 12.3094 17.9626C10.4906 17.9865 8.9339 17.3981 7.62012 16.125C6.49284 14.9927 5.91012 13.4321 5.8916 11.8477C5.89621 10.5401 6.31432 9.35472 6.98676 8.24579C7.14165 7.99 7.28937 7.73022 7.43723 7.47032C7.51828 7.32787 7.5995 7.18551 7.68073 7.04315C7.69697 7.01467 7.71322 6.9862 7.72996 6.95686C7.89452 6.66859 8.06046 6.38113 8.22656 6.09375C8.46883 5.67443 8.71004 5.25452 8.9502 4.83398C8.96572 4.80681 8.98124 4.77964 8.99723 4.75164C9.1554 4.47468 9.31345 4.19765 9.47137 3.92055C9.55054 3.78164 9.62975 3.64277 9.70898 3.50391C9.72457 3.47659 9.74015 3.44927 9.75621 3.42113C9.99875 2.99618 10.2448 2.57335 10.4923 2.15132C10.7213 1.75981 10.943 1.36445 11.1619 0.967221C11.7557 -0.104261 11.7557 -0.104261 12.1875 2.68221e-07ZM11.9531 1.21875C11.9285 1.26316 11.9285 1.26316 11.9033 1.30847C11.5724 1.90353 11.2376 2.49571 10.8933 3.08308C10.6837 3.44082 10.4769 3.80006 10.2715 4.16016C10.2559 4.18751 10.2403 4.21487 10.2242 4.24306C10.1448 4.38223 10.0654 4.52142 9.98609 4.66063C9.82844 4.93725 9.6706 5.21376 9.5127 5.49023C9.49716 5.51744 9.48162 5.54464 9.46562 5.57267C9.24112 5.96571 9.01549 6.35807 8.78906 6.75C8.44777 7.34089 8.10804 7.93264 7.77074 8.52583C7.69621 8.65659 7.62116 8.78704 7.54596 8.91742C6.77926 10.256 6.48218 11.7018 6.86737 13.218C7.24408 14.586 8.14849 15.7549 9.37207 16.4648C10.6338 17.1676 12.057 17.3593 13.4531 16.9688C14.8497 16.5484 15.9856 15.611 16.685 14.341C17.3597 13.073 17.4769 11.6043 17.0697 10.233C16.8113 9.42329 16.3461 8.70183 15.9175 7.97388C15.7569 7.70049 15.6006 7.42488 15.4453 7.14844C15.2388 6.7811 15.0287 6.41619 14.8154 6.05273C14.5912 5.6704 14.3718 5.28572 14.1562 4.89844C13.9175 4.46968 13.6734 4.04452 13.4252 3.62121C13.1167 3.09461 12.8147 2.56435 12.5126 2.03407C12.3576 1.76217 12.2022 1.49047 12.0469 1.21875C12.0159 1.21875 11.985 1.21875 11.9531 1.21875Z" fill="#D62828"/>
<path d="M5.34375 13.7344C5.48145 13.834 5.48145 13.834 5.57813 13.9688C5.60486 14.1559 5.58469 14.2785 5.48438 14.4375C5.40032 14.488 5.40032 14.488 5.29816 14.5263C5.26026 14.5409 5.22236 14.5555 5.18332 14.5706C5.14248 14.5857 5.10165 14.6007 5.05957 14.6162C4.97375 14.6493 4.88793 14.6823 4.80213 14.7155C4.73753 14.74 4.73753 14.74 4.67162 14.765C3.2256 15.3153 1.64476 16.1011 0.9668 17.5752C0.763778 18.0474 0.766479 18.6483 0.943363 19.1279C1.61185 20.618 3.20029 21.4254 4.64579 21.9855C8.61598 23.4805 13.3539 23.5998 20.1262 21.6669C21.379 21.0846 22.6141 20.282 23.1094 18.9375C23.2481 18.5212 23.2019 17.9499 23.0275 17.5519C23.0081 17.5142 22.9887 17.4764 22.9688 17.4375C22.9489 17.3983 22.929 17.3591 22.9085 17.3187C22.7359 17.0075 22.5104 16.7561 22.2656 16.5C22.2413 16.4722 22.217 16.4444 22.192 16.4158C21.4198 15.5667 20.1631 15.0637 19.1127 14.673C19.0738 14.6584 19.0349 14.6438 18.9948 14.6288C18.9214 14.6016 18.8477 14.575 18.7738 14.5492C18.5322 14.4604 18.5322 14.4604 18.4471 14.343C18.4101 14.2068 18.4018 14.1095 18.4219 13.9688C18.5186 13.834 18.5186 13.834 18.6563 13.7344C18.9434 13.7038 19.171 13.7821 19.4356 13.8809C19.5016 13.9054 19.5016 13.9054 19.5691 13.9303C21.21 14.5584 22.9467 15.4755 23.7656 17.1094C24.0754 17.8173 24.1225 18.6702 23.8711 19.4052C23.1932 21.0447 21.5701 21.9704 20.0156 22.6406C19.254 22.9521 18.4681 23.1862 17.6719 23.3906C17.6301 23.4015 17.5883 23.4124 17.5452 23.4235C16.7703 23.6218 15.9813 23.7419 15.1891 23.8467C15.1004 23.8585 15.0117 23.8709 14.9231 23.8833C12.9856 24.1447 10.841 24.1279 8.90625 23.8594C8.84332 23.8512 8.78038 23.8431 8.71743 23.835C6.05268 23.4906 3.20677 22.7519 1.17188 20.9063C1.14094 20.8792 1.11 20.8521 1.07813 20.8242C0.666555 20.4431 0.33397 19.9297 0.140628 19.4063C0.125764 19.3699 0.110899 19.3335 0.0955845 19.296C-0.121734 18.668 -0.0752978 17.8528 0.187503 17.25C0.206839 17.2037 0.226175 17.1574 0.246097 17.1097C1.00792 15.4433 2.88304 14.5197 4.50898 13.9098C5.0808 13.7009 5.0808 13.7009 5.34375 13.7344Z" fill="#D62828"/>
<path d="M5.71874 14.6719C5.88638 14.7896 5.94296 14.8614 5.98828 15.0615C5.94528 15.2729 5.86464 15.3551 5.71911 15.5083C5.35761 15.8965 5.10746 16.3374 5.08593 16.875C5.11063 17.4917 5.44705 18.0019 5.88427 18.4189C7.80911 20.027 10.7134 20.3599 13.125 20.1562C14.9788 19.9872 17.1204 19.5278 18.4232 18.082C18.7943 17.6301 18.94 17.1757 18.8906 16.5937C18.785 16.1249 18.5189 15.7572 18.1904 15.416C18.0774 15.29 18.0227 15.2057 18.0117 15.0352C18.0469 14.8594 18.0469 14.8594 18.1435 14.7422C18.3207 14.6517 18.4126 14.6379 18.6094 14.6719C19.1377 14.963 19.4996 15.6708 19.6787 16.2246C19.817 16.7874 19.7609 17.3249 19.5469 17.8594C19.5315 17.8991 19.5162 17.9389 19.5004 17.9799C19.016 19.0794 17.7996 19.7704 16.7344 20.2031C15.9547 20.5021 15.1665 20.7203 14.3437 20.8594C14.3025 20.867 14.2613 20.8746 14.2188 20.8824C11.5621 21.3602 8.28783 21.0272 5.97949 19.5527C5.20664 19.0029 4.52394 18.35 4.28942 17.3957C4.17048 16.6675 4.3208 15.9903 4.73437 15.375C5.30661 14.6221 5.30661 14.6221 5.71874 14.6719Z" fill="#D62828"/>
<path d="M19.5469 1.3125C19.8004 1.50808 19.8803 1.76003 19.9893 2.05371C20.1634 2.5227 20.3541 2.94165 20.8125 3.1875C21.0414 3.28728 21.2761 3.37011 21.511 3.45437C21.5578 3.47175 21.6045 3.48912 21.6526 3.50702C21.6949 3.52222 21.7373 3.53742 21.7809 3.55308C21.9073 3.61792 21.96 3.67486 22.0312 3.79687C22.0547 3.95801 22.0547 3.95801 22.0312 4.125C21.8381 4.3796 21.5828 4.4588 21.29 4.56738C20.7883 4.75372 20.3998 4.94072 20.1562 5.4375C20.0597 5.65812 19.9745 5.88286 19.8894 6.10812C19.872 6.1525 19.8546 6.19689 19.8367 6.24261C19.8215 6.28269 19.8063 6.32277 19.7907 6.36407C19.7251 6.48605 19.6657 6.53941 19.5469 6.60937C19.3828 6.62988 19.3828 6.62988 19.2188 6.60937C19.0626 6.4819 18.9936 6.35926 18.9236 6.1723C18.9047 6.12405 18.8859 6.0758 18.8665 6.02609C18.8283 5.92575 18.7904 5.82529 18.7529 5.7247C18.5697 5.25886 18.3239 4.90594 17.859 4.69592C17.7493 4.65267 17.6394 4.61111 17.5287 4.57068C17.4953 4.55845 17.4619 4.54623 17.4275 4.53363C17.3613 4.50974 17.2948 4.48646 17.2281 4.46389C17.0378 4.39686 16.9064 4.33217 16.7812 4.17187C16.7344 4.01074 16.7344 4.01074 16.7344 3.84375C16.8573 3.65375 16.9688 3.57122 17.178 3.49054C17.2271 3.47099 17.2762 3.45144 17.3268 3.4313C17.3778 3.41176 17.4289 3.39221 17.4814 3.37207C17.5826 3.33282 17.6836 3.29322 17.7845 3.25323C17.8292 3.23607 17.8739 3.2189 17.92 3.20122C18.0585 3.13508 18.1626 3.0496 18.2812 2.95312C18.3122 2.95312 18.3431 2.95312 18.375 2.95312C18.3878 2.92732 18.4006 2.90152 18.4138 2.87494C18.4518 2.79933 18.4904 2.72403 18.5295 2.64899C18.6364 2.44134 18.7398 2.23501 18.8227 2.01654C18.8346 1.98523 18.8465 1.95392 18.8587 1.92166C18.8921 1.83213 18.9244 1.74224 18.9567 1.65234C19.0845 1.39113 19.2517 1.25715 19.5469 1.3125ZM19.3594 2.8125C19.3371 2.86471 19.3149 2.91691 19.292 2.9707C19.0675 3.41505 18.7184 3.71299 18.2812 3.9375C18.3908 4.05631 18.5089 4.13741 18.6445 4.22461C18.9738 4.45194 19.2 4.7438 19.3594 5.10937C19.4804 5.04885 19.4936 4.99259 19.5527 4.87207C19.7815 4.45183 20.1167 4.20865 20.5312 3.98437C20.4338 3.90956 20.3358 3.83855 20.2328 3.77142C19.841 3.5145 19.6265 3.21918 19.4062 2.8125C19.3908 2.8125 19.3753 2.8125 19.3594 2.8125Z" fill="#D62828"/>
<path d="M3.32812 7.45313C3.5915 7.60392 3.65151 7.82889 3.74707 8.10059C3.87447 8.46258 3.98945 8.77978 4.34002 8.97314C4.48072 9.03754 4.62252 9.0959 4.7666 9.15234C4.86358 9.19135 4.96045 9.23065 5.05719 9.27026C5.09983 9.28708 5.14247 9.30389 5.1864 9.32121C5.29776 9.37544 5.36303 9.41713 5.4375 9.51563C5.47886 9.83618 5.47886 9.83618 5.34778 10.0087C5.12858 10.1849 4.88067 10.2567 4.61627 10.3452C4.26065 10.4749 4.04977 10.6565 3.87574 10.9952C3.81936 11.1229 3.76767 11.2515 3.71777 11.3818C3.68392 11.4693 3.64957 11.5565 3.61468 11.6435C3.60008 11.6816 3.58547 11.7197 3.57043 11.759C3.50572 11.8775 3.44311 11.9305 3.32812 12C3.1625 12.0247 3.07777 12.0179 2.93225 11.9337C2.76382 11.7632 2.70649 11.5759 2.62793 11.3525C2.49696 10.9804 2.3569 10.6466 1.99511 10.4502C1.86712 10.3924 1.73656 10.3417 1.60583 10.2905C1.5745 10.2782 1.54316 10.2659 1.51088 10.2532C1.44792 10.2286 1.38479 10.2045 1.32148 10.1809C1.03615 10.0715 1.03615 10.0715 0.937497 9.9375C0.89629 9.79169 0.886788 9.68309 0.9082 9.5332C1.03088 9.3539 1.20815 9.31084 1.40625 9.23438C1.51979 9.18803 1.633 9.14116 1.74609 9.09375C1.80047 9.07151 1.85486 9.04928 1.91089 9.02637C2.19884 8.88726 2.3263 8.74296 2.46386 8.45508C2.47787 8.42617 2.49188 8.39727 2.50631 8.36749C2.58812 8.19632 2.66049 8.02309 2.72754 7.8457C2.85183 7.52818 2.96828 7.40262 3.32812 7.45313ZM3.14062 8.95313C3.07774 9.0277 3.07774 9.0277 3.01465 9.12305C2.89409 9.29 2.7671 9.41875 2.60687 9.5473C2.52968 9.61067 2.46014 9.67838 2.39062 9.75C2.45096 9.79715 2.51155 9.84396 2.57226 9.89063C2.60598 9.91673 2.6397 9.94283 2.67444 9.96973C2.76024 10.04 2.76024 10.04 2.85937 10.0313C2.87097 10.0564 2.88258 10.0815 2.89453 10.1074C2.96704 10.2452 3.05297 10.3714 3.14062 10.5C3.26555 10.3786 3.37674 10.2634 3.4834 10.125C3.62048 9.9554 3.79613 9.85557 3.98437 9.75C3.95053 9.72293 3.9167 9.69586 3.88183 9.66797C3.83833 9.63316 3.79482 9.59836 3.75 9.5625C3.71229 9.5364 3.67459 9.51029 3.63574 9.4834C3.48977 9.35167 3.39889 9.20581 3.29681 9.03882C3.27621 9.01054 3.2556 8.98226 3.23437 8.95313C3.20343 8.95313 3.1725 8.95313 3.14062 8.95313Z" fill="#D62828"/>
<path d="M16.0312 9.70312C16.2162 9.8877 16.2877 10.0928 16.3652 10.3359C16.3774 10.3735 16.3895 10.4112 16.402 10.4499C16.784 11.6732 16.6207 12.9622 16.043 14.0947C15.591 14.8794 14.9036 15.6166 14.0625 15.9844C13.8815 16.0201 13.7317 16.0109 13.5703 15.9141C13.4858 15.7732 13.4776 15.677 13.4751 15.5156C13.5328 15.2984 13.743 15.1934 13.9248 15.085C14.8021 14.5332 15.3909 13.7757 15.6533 12.7676C15.839 11.9289 15.7699 11.1242 15.4592 10.3282C15.4071 10.1754 15.3991 10.05 15.4219 9.89062C15.5675 9.62714 15.7566 9.63567 16.0312 9.70312Z" fill="#D62828"/>
<path d="M14.7187 7.40625C14.9286 7.61948 15.0751 7.87283 15.2256 8.12988C15.2609 8.18757 15.2609 8.18757 15.2969 8.24643C15.4298 8.47302 15.5085 8.63581 15.4687 8.90625C15.3472 9.07931 15.2793 9.1326 15.0703 9.16992C14.8718 9.13448 14.7936 9.05758 14.6719 8.90625C14.575 8.76267 14.4882 8.61424 14.4023 8.46387C14.3676 8.40527 14.3676 8.40527 14.3322 8.34549C14.2163 8.14457 14.1175 7.97175 14.1094 7.73438C14.2254 7.44144 14.3944 7.31332 14.7187 7.40625Z" fill="#D62828"/>
</g>
<defs>
<clipPath id="clip0_249_3656">
<rect width="24" height="24" fill="white"/>
</clipPath>
</defs>
</svg>
