<svg width="424" height="198" viewBox="0 0 424 198" fill="none" xmlns="http://www.w3.org/2000/svg">
<path d="M238.166 114.144C240.852 118.851 242.413 122.61 241.845 128.022C240.789 138.123 237.711 148.032 232.874 156.947C232.067 158.435 230.466 158.81 229.342 158.049C226.111 155.851 223.402 154.256 219.864 152.563L220.574 160.956C222.249 161.899 225.009 163.165 226.525 162.892L228.348 162.563C228.666 162.506 228.405 163.545 228.166 163.767L225.849 165.953C231.323 167.776 245.031 167.316 244.611 175.123C244.457 177.934 243.424 181.267 241.908 183.669C236.428 184.64 231.255 183.743 225.929 183.669L214.266 183.493C215.452 188.167 216.571 193.073 221.909 192.647C223.465 192.522 225.503 193.073 227.019 193.09L259.721 193.464C314.267 194.089 368.523 192.8 423.177 194.345L307.39 194.56L239.25 194.072L221.034 193.584C216.929 193.476 215.248 190.188 214.004 186.991C214.266 189.052 214.64 190.409 215.276 193.056C213.141 193.567 210.717 193.777 208.264 193.777C205.532 193.777 202.989 194.123 200.325 194.168L188.895 194.367C186.05 194.418 183.518 192.204 181.666 190.228C181.15 189.751 179.259 190.415 179.015 191.062L177.635 194.702L175.687 189.995C174.932 188.161 174.404 186.758 174.052 184.459C176.953 185.129 178.521 186.287 180.837 188.24L192.739 182.749L184.949 182.255L178.248 181.659L162.837 180.024C160.571 182.528 157.363 184.061 153.712 183.612L142.764 182.284L142.299 190.983C142.208 192.726 142.753 194.225 143.446 196.224C135.825 196.94 139.897 195.673 129.892 196.411L123.282 196.9C107.814 198.041 109.16 194.912 104.992 194.907L86.1287 194.867C83.4088 194.867 80.0927 195.412 77.5715 195.872L73.9715 193.657C73.9317 186.213 75.1753 178.224 76.3904 170.785C74.1588 171.347 72.1317 171.12 69.9739 169.837L64.2161 181.381C60.5195 188.797 53.4387 190.057 45.8411 189.416L40.8839 189.001C40.5205 192.068 40.918 194.362 43.0473 197.036C28.931 197.059 14.6898 197.661 0 196.667C13.6791 195.179 26.8528 196.531 40.6624 195.923L39.5268 188.848L31.0604 185.946C30.3563 185.702 29.3228 184.413 29.3001 183.76C29.1809 180.529 37.4996 177.241 40.7249 176.498L40.7419 187.803C45.8127 189.223 56.5561 189.484 60.4287 185.055C64.4092 180.501 66.9871 174.476 68.9007 168.917C65.5959 164.164 62.7454 159.338 60.5933 154.057L56.0336 142.871C50.2247 144.869 42.6328 160.212 39.4927 165.862L32.2756 178.848C32.1052 179.155 31.0377 179.848 30.8049 179.638C30.5721 179.428 29.9702 178.581 29.9702 178.212C29.9645 173.783 29.8055 167.77 30.1405 163.267L30.6629 156.277L31.2535 148.327L31.668 141.513L32.0428 135.727L32.7128 127.352C28.2837 109.38 27.0288 97.6257 27.8635 79.2223C28.0509 75.1453 29.4989 71.3805 31.1967 67.8543C34.2573 61.5173 40.6454 66.6164 44.1603 68.019L49.3332 60.4441C44.9439 61.6252 38.641 65.1287 35.2396 63.8397C34.8592 63.6978 35.7791 62.4542 36.1879 62.3179L54.2961 56.2081C61.4564 53.7948 67.3676 48.6673 69.4118 41.3422C70.6553 36.8904 68.8326 25.8575 72.6484 20.3211L68.6395 13.1664C68.4578 12.8427 68.5146 11.6049 68.6054 11.2585C68.6963 10.9121 69.8717 10.8269 70.2011 11.003L74.6472 13.3311L76.5778 9.71967C80.7911 1.84952 91.4891 -1.82436 100.183 0.884202C111.715 4.4729 116.53 17.6239 114.804 28.6114C113.833 34.7667 102.778 34.4147 102.902 31.8083C102.454 24.5741 102.902 11.6333 97.0538 6.32971C91.2052 1.02616 80.757 8.47044 76.2655 13.0699C77.8668 21.3375 98.2349 32.802 105.06 35.7775C108.621 37.3277 111.562 36.1522 113.901 32.7509C115.196 35.5958 116.178 37.7989 116.82 40.5984C117.768 44.7606 105.179 44.0281 100.824 42.2508C93.6128 39.3094 87.696 34.5169 82.381 29.0032C81.5293 31.8367 79.5703 33.932 76.5381 33.6424L74.2894 28.8556C74.1248 28.5092 73.5683 27.8903 73.2787 27.6688C71.6433 26.4196 70.2294 31.1667 72.1317 35.6866C72.8869 37.4923 73.0686 39.0311 73.0743 41.1037C73.1027 48.0994 75.374 56.174 81.711 60.2226C84.8909 62.2555 91.8582 59.8933 93.5503 56.8384L98.9958 47.0205C99.893 45.4022 100.864 43.8804 102.539 43.0287C103.379 54.232 94.0897 57.1961 93.3402 59.6605C93.1528 60.2851 94.1125 61.7387 94.7484 62.1078L103.618 67.2354C107.951 69.7395 111.074 72.7774 114.327 76.5308C116.178 78.6658 119.903 79.9434 118.785 84.0034C118.671 84.4123 117.127 83.9012 116.883 83.4924L113.589 78.0753C113.186 77.4166 111.783 76.8431 110.92 76.9055C106.406 77.2292 105.52 95.2806 106.275 99.7608L87.7187 107.273C87.1963 107.483 85.8959 107.421 85.4701 107.336C82.8296 106.785 97.7012 87.1549 98.8198 85.5423L102.318 80.4885L94.8677 79.1258C94.5327 79.0633 93.7093 78.3762 93.4595 78.1775C93.2096 77.9787 94.0954 77.0645 94.4248 76.9566L101.472 74.708C100.569 71.9824 94.7257 63.0675 92.5736 62.2328C93.4027 76.9282 93.6696 79.069 89.0133 92.0837L83.2725 108.136C84.4139 108.886 86.0379 109.505 87.3098 109.618L100.432 110.811C98.445 112.974 97.1731 112.861 95.0891 113.548L92.2556 124.74C92.108 125.33 92.2216 126.659 92.5793 126.88C93.0109 127.147 94.0841 127.533 94.1068 127.448C95.2141 124.603 96.2191 122.19 97.4513 119.805C102.465 110.118 107.581 100.817 113.447 91.6124C114.532 89.9089 115.997 88.194 117.297 86.871L131.385 88.7619C132.782 86.5019 134.423 85.0482 135.576 82.9927L137.165 80.1535C138.636 77.5358 147.614 72.5162 150.754 73.05C149.749 70.171 148.783 67.5306 148.556 64.3905C152.883 68.0417 156 71.761 161.679 71.5282C169.85 71.1931 176.76 62.4712 176.635 55.5267C176.63 55.1178 175.613 53.9424 175.46 53.6755C175.267 53.3405 176.107 53.2667 177.061 53.1361C177.061 50.4843 176.635 47.4351 175.778 45.0445C167.113 51.6938 156.983 51.2282 146.847 51.2622C144.133 51.2736 139.357 51.2282 137.87 48.4855C135.956 44.2552 138.295 38.9744 141.373 35.4652C141.856 51.8358 176.88 38.0147 182.637 30.6954L183.063 25.5735C183.205 23.8871 182.666 20.9741 182.246 19.3047C180.644 17.357 178.543 15.6649 176.204 14.5122C174.642 13.7399 171.57 14.8642 170.355 16.1646C163.291 23.6997 160.503 33.6481 156.864 36.9302C152.804 40.5927 143.531 38.8097 142.213 32.9724C141.186 28.4127 143.747 22.7401 145.728 18.9072C150.623 9.44711 160.691 5.60289 170.73 6.89186C177.8 7.8004 181.048 12.7916 183.648 18.7539C186.249 24.7161 190.735 25.176 183.217 38.2305C185.999 43.2558 183.194 53.5904 178.339 56.3671L183.001 63.6637L183.211 61.841C183.239 61.6195 183.813 61.3129 183.955 61.4832C186.573 64.5381 188.736 65.3331 192.682 66.5256C199.309 63.3911 207.548 71.5111 211.75 76.2582C221.988 87.8249 230.398 100.539 238.171 114.155L238.166 114.144ZM103.902 32.308C106.786 32.7055 110.137 32.6601 112.527 30.9963C114.043 29.9402 113.935 27.4247 114.043 25.7212C114.481 18.7198 112.788 12.3203 108.178 7.06221C104.305 2.6388 98.5756 0.0722027 92.6758 0.923951C86.7761 1.7757 80.7798 4.74546 77.793 9.98655C81.234 7.68683 84.4366 5.61992 88.031 4.26848C93.2437 2.30946 97.9851 4.39908 100.359 9.35058C102.732 14.3021 103.073 19.9974 103.453 25.6133L103.908 32.3023L103.902 32.308ZM174.79 13.3311C177.135 13.2516 179.554 15.398 181.422 17.039C180.446 12.6383 176.857 9.03259 171.922 8.02185C164.614 6.52845 157.147 7.97642 151.31 13.2459C146.171 17.8851 141.782 26.1641 143.502 33.3472C144.706 38.3668 153.434 39.0198 156.421 36.0841C161.054 31.5414 166.238 13.632 174.784 13.3311H174.79ZM81.5747 28.4127C80.6321 26.0959 77.7419 24.7559 75.4024 19.4353C75.2207 19.0151 75.7204 17.6296 76.1065 17.7545L77.4807 18.2088L75.5387 14.6541L69.4856 12.0024C70.8143 15.9488 72.7563 18.805 75.7828 21.6896L72.9494 21.9792C72.3702 22.0359 71.9727 23.8927 71.9102 24.4946L71.7228 26.3401C71.6831 26.7205 73.591 26.5105 73.8522 26.7944C74.8743 27.9016 75.9589 30.5421 76.8447 32.2967C79.1047 33.58 82.0063 29.4518 81.5804 28.407L81.5747 28.4127ZM81.2851 24.2278L76.4699 18.7652C77.9065 22.2971 79.8996 24.7786 82.1142 27.26C82.1142 25.9199 81.8132 24.824 81.2851 24.2278ZM115.701 41.9441C115.843 38.9346 114.952 36.9018 113.561 34.9598C111.42 37.1914 108.166 37.8614 105.145 36.6463C95.7478 32.8588 87.6278 26.8455 79.8883 20.764L82.4605 24.4606C83.1249 25.4202 83.2612 26.7206 82.8126 28.231C91.8071 36.828 101.443 45.6975 115.701 41.9441ZM158.584 50.1947C167.845 49.7234 174.455 45.5101 181.638 39.6841C181.564 43.6703 180.73 46.413 179.577 49.4963C178.952 51.1771 176.562 52.8522 178.867 55.0099C182.711 51.2055 185.215 42.1542 181.649 38.327C186.101 31.8651 188.798 27.8733 183.96 21.1217L183.847 28.0493C183.813 30.1219 182.632 32.2172 180.86 33.5232C175.284 37.6286 169.038 40.2633 162.343 42.2451C156.165 44.0735 143.644 46.2426 140.425 38.2021C139.55 40.093 138.789 42.0577 138.091 44.136C135.116 53.0055 153.803 50.4332 158.59 50.189L158.584 50.1947ZM86.7363 62.1135C77.0832 63.4025 72.7052 50.5411 72.1828 42.5574C72.0295 40.1555 71.8307 37.8557 71.1777 35.6923C70.3033 40.8482 70.0137 45.2773 66.7202 48.9171C68.4692 49.6666 69.1676 50.984 69.7468 52.8408C71.5979 58.7747 74.4314 64.4189 79.3318 68.3086L86.7363 62.1135ZM178.594 49.3714L180.974 41.4842L176.442 44.5561L178.594 49.377V49.3714ZM95.197 56.2421C99.2116 53.5165 101.687 49.3827 101.937 44.2098C99.2854 48.1903 97.0709 51.9493 95.197 56.2421ZM90.4783 68.036L91.0178 60.9835L84.624 65.1514C76.5437 70.4266 82.3072 70.5685 78.5425 74.038L78.4403 68.8083C72.7449 63.5956 70.82 58.4851 68.1966 51.4496C68.0149 50.9613 67.2086 50.2685 66.7373 50.2742C63.3019 50.2913 65.4029 71.5282 68.1682 73.4304C68.5543 73.6973 69.707 73.561 70.1783 73.3509L76.2314 70.6367L76.0043 76.2866C78.446 77.3995 81.4952 76.5194 83.0227 74.515L81.9211 69.6373C85.0499 72.0222 86.6909 73.2828 89.99 75.1566C90.7906 72.8001 90.2626 70.8354 90.4783 68.0417V68.036ZM63.9492 59.1267L64.023 52.0515L61.2747 53.8629L63.9492 59.1267ZM53.7566 79.0633C56.6583 86.5927 59.6394 93.7928 63.0123 101.027C64.0798 103.315 65.136 105.093 67.2029 107.375C67.4811 102.708 67.6004 98.7841 67.2994 94.3777L66.7202 85.8716L66.0843 78.6601C65.7549 74.9295 63.6142 56.6112 60.6501 55.362C60.1504 55.1519 58.7592 55.538 58.2539 55.7708L54.9775 57.2756C57.1239 56.9519 59.0204 56.6907 61.093 57.8094C57.669 64.0782 54.0406 66.9003 51.2695 72.1868L57.1807 71.5793C59.8211 71.3067 62.064 70.1483 65.0054 71.8745L56.8173 75.9005C55.6362 76.4797 54.2961 77.7914 53.7623 79.0747L53.7566 79.0633ZM152.185 76.6443C153.428 86.8767 159.799 94.1506 162.866 103.849C165.96 95.8427 169.39 88.6483 173.989 81.7207C177.209 76.8771 180.167 72.3572 182.467 66.8719C183.103 65.3615 181.178 62.7665 180.406 61.5854L177.737 57.497L177.237 59.3936C177.112 59.8592 178.112 60.4327 178.691 60.9722C178.572 65.0833 175.415 79.739 172.394 81.698C170.423 82.9757 168.55 79.7674 165.052 81.8627C162.968 83.1119 160.651 84.2533 158.408 84.9744C155.302 82.7372 154.303 79.9889 152.185 76.6386V76.6443ZM83.7722 91.3114C84.4991 100.76 83.8063 101.379 80.1211 109.249C78.0996 109.266 76.0781 106.95 76.0668 104.945L75.9418 81.5504C75.9418 80.4886 77.0775 78.6545 77.4977 78.1377C76.7482 77.7573 75.1014 76.8885 75.0901 76.139L75.0503 72.3231L70.4736 74.1629C68.8269 74.8273 67.3335 74.4922 66.5045 73.0272L67.3449 83.0211L67.8559 88.8357L68.0206 106.756C68.0206 107.199 66.9587 108.386 66.6521 108.108C62.9498 104.792 56.0053 87.2798 53.944 81.8286C53.4216 80.4545 52.6039 77.7857 53.8191 76.9169C56.6015 74.9238 59.2192 73.6462 62.365 71.937L57.2772 72.431C54.8412 72.6695 53.0412 72.7717 50.1168 72.8285C52.7345 67.048 56.4936 64.0725 59.7643 58.0194C50.6165 58.5873 49.231 61.7501 45.2051 68.5925C52.7573 74.0323 52.0588 101.498 52.144 110.283L46.6076 113.644L51.9453 112.384L53.1093 113.866C53.3194 114.133 54.3642 113.332 54.7617 113.298L61.1385 112.724L75.7601 112.304C81.8927 112.128 87.9061 111.952 94.1409 111.941C95.5377 111.941 97.0993 112.469 98.2349 111.566C93.9648 110.374 80.581 112.298 82.7899 106.473C87.2701 94.673 95.3276 76.65 91.472 65.3842L91.0689 75.8664C88.1275 75.5087 86.6739 74.6229 84.3628 72.9364C82.7331 76.0935 82.8694 79.4267 83.1476 83.0495L83.7836 91.3285L83.7722 91.3114ZM171.724 81.3346L174.552 76.4683C175.784 71.6077 176.948 67.0196 177.487 61.9034C174.029 68.5073 170.185 74.3333 165.182 80.2728C167.476 80.0854 168.794 80.3296 171.724 81.3346ZM193.881 109.686C195.857 111.998 196.606 113.071 197.85 115.671C195.664 116.483 193.756 116.994 191.53 117.46C189.662 121.35 181.729 136.908 184.568 139.816C186.964 142.269 201.569 130.208 203.142 132.082C203.494 132.502 203.937 133.728 204.016 134.279L205.078 141.616C208.411 139.855 210.501 138.498 212.886 136.267C210.524 134.938 209.098 133.127 209.013 130.503L208.707 120.6C203.829 119.868 200.053 116.506 197.906 112.032C193.097 102.004 190.899 91.2206 189.656 80.0627C189.173 75.7415 190.303 71.3805 191.78 67.4682L184.012 63.5274C184.619 75.327 187.356 73.1351 185.556 88.7164L184.772 95.5077C184.409 98.6365 183.836 102.367 186.323 104.979C187.538 106.251 190.661 106.189 192.37 105.802L193.534 106.654C175.999 109.38 173.711 112.531 154.882 111.248L146.932 110.709C145.541 110.612 143.423 110.016 142.145 110.646C140.272 111.572 139.959 116.143 142.083 116.716C143.661 117.142 146.291 117.608 148.005 117.602L178.106 117.506L185.005 117.04C186.908 116.909 189.077 116.603 190.757 116.353L193.863 109.681L193.881 109.686ZM86.1855 106.626C93.0904 104.32 99.1094 101.765 105.583 99.0169C105.248 91.6976 105.293 85.1448 107.78 78.4444C108.342 76.9226 110.381 76.0311 112.062 75.679C108.899 70.5969 102.954 67.7237 96.8721 64.6744L102.704 75.2531L94.3453 77.8425C95.7989 80.0059 105.6 77.5926 102.318 82.1523L93.7774 94.0143C90.8701 98.0516 88.1956 101.601 86.1798 106.626H86.1855ZM33.2693 124.263C37.2157 112.991 40.0435 102.248 40.2877 89.8691C39.7255 82.6861 41.0145 76.1673 43.6663 69.3023C41.4858 67.6158 38.7716 66.2303 36.1027 65.8385C33.4339 65.4467 32.3096 67.383 31.4749 69.3079C28.0225 77.286 27.7556 86.6609 28.5052 95.309C29.3456 105.036 29.9872 114.411 33.2693 124.268V124.263ZM225.946 129.032L221.551 143.563C220.279 147.765 217.241 149.787 220.591 151.74L231.079 157.856C235.928 151.627 239.449 138.288 240.778 130.798C241.664 125.819 241.294 121.651 238.813 117.188C231.301 103.667 223.039 90.7152 212.948 78.9838C209.871 75.4008 198.787 63.3741 194.136 67.383C195.953 68.5016 198.378 69.8701 198.196 71.6133C196.254 72.9761 194.471 73.703 194.59 76.2071C194.681 78.1775 194.397 80.5567 194.704 82.4873C195.953 90.471 198.525 98.1765 202.756 105.03C208.468 114.28 217.037 117.784 223.584 126.699C225.236 124.371 226.128 122.633 227.837 120.771C227.661 124.019 226.775 126.324 225.957 129.027L225.946 129.032ZM163.763 80.2501C167.573 76.3604 170.492 72.4367 172.876 67.5363C164.739 73.4758 157.971 74.5888 150.072 67.2694C150.629 69.8303 151.185 71.7212 152.758 74.2538L152.469 69.7565C153.74 71.1136 154.859 72.7604 156.086 73.7938L163.763 80.2444V80.2501ZM149.016 159.917C152.639 158.35 156.602 159.417 159.93 159.565L164.359 159.758L164.671 156.005C162.241 155.846 160.049 155.897 157.579 156.061C151.759 156.453 146.364 156.288 140.362 156.084C138.244 160.462 141.714 168.156 138.097 172.148C137.54 168.054 138.437 164.272 138.386 160.223C138.347 156.589 137.478 152.677 138.023 149.06C138.182 148.004 140.8 147.561 141.776 147.578L146.398 147.646L165.057 147.811L166.244 145.409L167.42 147.856L185.868 147.549C192.433 147.442 198.525 145.278 204.033 142.059L202.937 133.081C200.144 131.798 187.975 143.444 183.898 140.622C181.536 138.987 184.648 130.656 185.715 128.13L190.144 117.642L183.211 118.022L171.093 118.55C165.733 118.783 160.333 118.942 154.882 118.641L146.881 118.198C144.905 118.09 141.85 118.533 140.601 116.637C139.505 114.962 140.05 111.844 141.015 109.914C144.462 109.522 147.949 109.874 151.429 110.135L159.43 110.731C168.021 111.373 178.311 108.982 187.254 106.751C182.24 104.968 183.858 95.3657 184.415 90.4199L185.232 83.163C185.687 79.1144 184.682 72.4764 183.319 68.2915L172.893 85.1391C168.016 93.0206 164.637 101.061 162.002 109.987C161.929 95.1727 153.167 90.5392 150.907 75.8778C146.183 77.5018 141.697 79.8128 137.466 82.7826C137.268 85.0255 137.29 87.859 137.421 89.9146C139.494 90.5165 141.271 90.9821 142.787 91.8054C143.485 92.4073 142.492 94.8263 142.037 95.8143L138.29 103.934C137.421 105.82 138.261 109.232 138.33 111.362L138.733 123.61C138.897 128.556 139.039 133.587 138.909 138.515C138.807 142.291 136.575 144.495 133.054 145.329C129.227 146.232 124.917 146.402 121.737 143.251C120.539 140.083 122.731 133.053 120.062 131.94C119.001 131.497 113.635 133.104 108.825 132.059L113.646 163.42C114.464 168.73 115.537 173.675 116.735 178.882C116.139 180.24 113.987 181.409 112.618 182.034L112.908 193.561L109.455 195.276C113.771 196.752 123.617 195.878 128.444 195.741L141.634 195.378C140.442 187.729 142.543 187.718 141.464 182.079C139.919 181.818 138.278 181.529 137.29 181.25C136.876 178.633 139.84 177.077 142.162 177.576L142.497 181.154L150.913 182.522C154.57 183.118 158.476 183.357 161.361 180.041C155.665 178.014 155.489 180.075 149.414 177.275C144.161 181.472 147.557 160.564 149.016 159.923V159.917ZM218.882 147.3C220.245 144.591 221.063 142.394 221.824 139.713L225.446 126.92C223.306 127.738 222.295 127.261 221.227 125.637C219.558 123.093 217.15 121.123 214.879 119.027L208.082 112.764C203.607 108.642 200.376 103.878 198.213 98.1538C195.828 91.8509 190.604 77.4223 195.465 72.1585L198.082 71.0114L192.904 68.036C186.891 76.6557 193.943 100.902 197.827 109.891C200.28 115.569 203.931 119.629 210.12 119.652C209.223 124.728 208.888 129.816 211.29 133.973L214.027 136.272C211.716 139.14 208.701 140.69 205.85 142.547C204.999 143.16 205.799 146.459 206.81 146.306L216.685 144.256L218.888 147.305L218.882 147.3ZM92.7894 112.986L66.8395 113.241L60.599 113.707C58.305 113.877 55.3636 113.866 53.6147 115.143C51.0083 117.046 50.3553 120.112 46.7155 121.265L51.4796 113.428C48.7995 114.212 46.1534 114.967 42.5931 115.217C45.2335 112.225 48.2657 111.657 51.5762 109.715C51.5364 105.814 51.3263 102.168 51.1333 98.4036L50.6903 89.6023C50.4746 85.3889 49.2083 72.1301 44.7281 69.7281C42.1899 74.7648 41.1281 79.6027 40.9634 84.9971L40.5602 98.2049C40.3161 106.223 35.4781 118.363 34.1381 126.88C34.0926 127.159 36.3923 135.267 40.1287 135.267C44.4272 135.267 48.419 135.477 52.5415 135.08C62.6319 134.109 78.5312 132.127 87.8152 128.238C88.8998 127.783 89.4733 125.177 89.5584 124.03L89.9559 118.698C90.1376 116.302 91.0518 114.03 92.7837 112.986H92.7894ZM150.447 74.7932C148.454 72.238 140.13 78.1888 138.295 80.4829L150.447 74.7932ZM157.727 83.1517C159.68 84.6451 162.354 82.5668 163.155 81.0734L155.762 74.7364C155.2 74.2538 154.041 73.9187 153.462 74.3616C151.901 75.5711 156.5 82.2091 157.727 83.1517ZM79.6895 108.284C83.8006 98.5172 83.4486 101.214 82.9205 92.7367L82.3527 83.6343L81.8132 77.1724C79.8372 77.6153 77.6169 78.6999 77.3841 80.1365C76.3109 86.7915 76.3109 89.4603 76.68 96.1039L77.157 104.627C77.2535 106.314 77.4409 107.881 79.6838 108.29L79.6895 108.284ZM136.393 89.7272L135.996 84.276C134.377 85.9511 133.827 86.7347 132.424 88.8981L136.393 89.7272ZM112.851 112.912C115.531 113.451 117.11 113.9 118.893 114.468L115.747 108.551C115.565 108.21 117.115 107.165 117.53 107.387C119.631 108.534 122.601 110.589 124.616 112.111C123.935 110.379 123.151 108.221 122.981 106.393C122.924 105.802 124.531 104.593 124.912 105.002L126.081 106.257L130.874 89.8237L117.149 87.6887C108.649 100.255 101.665 113.037 95.038 126.824C98.2576 129.555 102.147 129.606 106.009 130.316C109.319 130.923 117.467 132.82 119.489 129.527C115.798 128.822 105.855 116.722 112.215 118.204L116.741 119.26C114.685 117.42 112.993 115.921 112.851 112.923V112.912ZM136.388 91.1127C135.275 90.3688 133.094 89.96 131.811 90.454C129.602 96.0188 128.114 102.055 127.2 107.608L131.146 114.74C138.301 101.583 137.052 106.836 136.393 91.107L136.388 91.1127ZM142.605 92.6004L137.535 91.0105C137.16 94.8036 137.359 97.6598 138.091 101.901L142.605 92.5947V92.6004ZM132.447 119.663C133.696 119.073 135.087 118.579 135.581 119.061C137.58 120.992 134.644 128.612 132.566 131.048C130.158 133.87 126.303 133.689 122.867 133.456C122.09 135.926 121.306 139.543 122.396 142.257C123.975 146.187 134.974 145.908 137.767 141.309C137.875 132.934 138.034 124.592 137.597 116.273L137.069 106.285L131.158 116.097L126.922 109.175C125.86 110.992 126.167 112.702 127.211 114.576L125.349 114.905L124.247 122.514C126.286 120.93 129.165 118.806 130.863 118.045C131.459 117.778 132.776 119.805 132.458 119.663H132.447ZM120.04 128.289L122.629 124.694L124.685 113.673C122.203 111.475 119.591 109.522 116.831 108.011C117.683 112.707 121.226 113.877 123.043 118.068L113.867 113.428C114.452 117.244 117.581 117.449 119.506 121.168L111 118.783C111.091 121.656 116.951 128.215 120.045 128.289H120.04ZM196.748 115.217L193.824 110.816L192.279 116.251L196.748 115.217ZM69.5821 167.679C72.5235 161.257 75.0674 154.784 76.7822 147.754C77.3501 145.437 76.2371 142.592 77.4409 140.276C77.6964 139.787 79.1785 138.93 79.4454 139.395C79.6611 139.77 79.8712 140.753 79.769 141.178L78.0769 148.089C78.8094 158.724 81.8075 169.405 87.1963 178.332C90.0127 182.999 93.9308 183.834 98.6665 183.238L106.769 182.21L108.081 175.51C108.166 175.072 108.876 174.181 109.115 173.891C109.291 173.67 110.29 174.726 110.369 174.981L112.209 180.751C113.061 180.722 115.054 179.859 115.832 179.002C114.532 172.795 113.345 166.941 112.368 160.74L107.826 131.906C103.022 130.214 90.0014 130.549 91.3982 124.626L93.9137 113.979C90.4386 114.928 91.0405 118.369 90.6941 121.094L89.8083 128.016C80.8933 133.422 55.375 135.812 44.7338 136.482C37.3122 136.948 36.2163 134.154 33.5191 129.044C33.0876 131.764 32.9115 134.279 32.7696 136.971L32.4118 143.79L31.7872 152.836L31.2648 160.258L30.6629 168.752C30.4131 172.239 30.4301 175.186 30.9014 179.047C34.7456 175.544 53.0752 132.4 57.8564 144.824C60.0653 150.57 64.9997 163.443 69.5821 167.673V167.679ZM130.846 119.493C127.7 120.572 124.792 122.735 123.498 126.313C126.445 124.513 128.722 122.378 130.846 119.493ZM132.066 130.333C134.252 127.323 135.03 123.564 135.729 119.953C133.946 118.329 124.872 126.983 123.532 128.198C122.828 128.839 122.754 131.298 122.811 132.167C125.724 132.627 129.943 133.251 132.066 130.333ZM168.056 154.71C181.371 153.767 192.421 150.031 204.777 146.891C204.896 145.721 204.584 144.233 204.05 143.285C197.691 146.397 191.899 148.452 184.949 148.333C182.916 148.299 180.718 148.691 178.702 148.731L167.289 148.946L168.056 154.71ZM208.843 152.762C210.433 150.394 213.63 148.861 217.23 149.747C218.013 148.986 217.332 145.766 216.196 145.494C212.568 145.715 209.791 146.522 206.322 147.567L208.826 157.714L210.427 157.004C211.364 156.589 207.747 154.392 208.843 152.762ZM198.23 164.641L199.723 161.467C202.915 161.473 205.919 160.57 208.02 158.582L205.425 147.782L185.437 152.774C179.759 154.193 174.529 154.937 168.487 155.743C168.601 157.311 169.009 159.076 169.64 160.394L198.236 164.641H198.23ZM164.944 154.477L165.029 148.873L157.142 148.498C151.231 148.22 145.212 148.322 139.278 148.447C137.972 150.525 138.33 152.915 139 155.34C139.022 156.476 139.289 156.322 139.954 155.147H160.6C161.883 155.153 163.74 154.778 164.944 154.477ZM212.204 155.317L216.06 151.229C214.243 149.452 212.761 150.389 211.08 151.814C210.461 152.336 209.774 153.37 209.78 154.023C209.785 154.676 211.648 155.908 212.204 155.317ZM219.473 160.371C219.234 156.198 219.064 154.449 217.968 150.888L212.522 156.481C215.106 158.105 216.844 159.133 219.467 160.371H219.473ZM84.8227 184.731C84.0732 189.257 80.3766 191.108 78.145 194.35L106.202 194.305L106.27 183.448L100.784 183.919C93.6071 184.538 90.2115 184.794 86.4467 178.769C81.1829 170.337 79.116 161.388 77.0661 151.371L70.5247 168.361C71.2686 170.376 75.5046 171.132 76.5267 168.849L78.5709 162.449C80.9104 164.846 78.7356 166.532 78.1223 168.65C76.7765 173.272 73.6591 189.189 75.4137 193.839C78.639 190.648 81.2681 187.559 84.8171 184.731H84.8227ZM168.345 160.082L166.784 155.261C165.438 156.578 165.443 158.037 165.517 159.752L168.345 160.082ZM214.391 167.673C214.885 166.646 217.962 166.322 218.996 165.822C219.711 165.073 219.62 162.455 219.098 161.41L212.29 157.606C211.642 157.242 209.956 158.162 209.717 158.781C209.519 159.292 209.445 160.57 209.587 161.143L212.545 173.386C213.158 171.421 213.488 169.542 214.385 167.673H214.391ZM205.992 169.956L205.237 174.805L211.517 173.34L208.372 159.979C205.487 161.371 203.062 161.961 200.274 162.342L199.496 164.482C199.184 165.34 203.289 164.772 205.141 166.475C205.743 167.026 206.123 169.093 205.992 169.95V169.956ZM150.157 176.594C154.132 178.116 158.096 178.661 162.105 178.655C163.263 172.245 163.973 166.873 164.296 160.803C158.891 160.099 154.513 160.087 149.397 160.519C147.937 165.908 146.563 171.239 148.198 176.6C148.709 175.81 148.125 174.272 148.17 173.113C148.346 168.627 151.594 158.827 152.65 161.03C154.325 164.522 151.708 172.369 150.152 176.588L150.157 176.594ZM198.31 176.923L191.791 177.44L183.836 177.974C174.665 178.587 171.36 168.906 168.805 161.564L165.461 161.024L163.712 174.828L163.166 179.115L183.325 181.33C188.225 181.869 193.216 181.943 198.014 181.443C198.679 180.052 198.872 177.599 198.304 176.918L198.31 176.923ZM198.684 175.828L198.31 165.714L192.438 164.647L169.873 161.444C171.059 167.69 176.783 179.002 184.42 177.213L191.791 176.56L198.69 175.828H198.684ZM225.52 164.193L220.671 162.245L220.307 165.516C222.113 166.294 225.06 166.651 225.526 164.193H225.52ZM149.595 174.374C151.821 170.683 152.355 167.128 151.895 162.943L150.05 167.424C149.232 169.735 148.903 172.114 149.595 174.368V174.374ZM204.385 174.874L204.868 166.771L199.303 165.919C199.178 169.224 199.264 171.898 199.61 175.663L204.38 174.874H204.385ZM218.979 167.214C217.809 167.151 215.606 167.549 215.078 168.4C214.55 169.252 214.3 170.859 214.181 172.154C216.639 171.785 218.644 170.496 218.973 167.214H218.979ZM223.703 167.106C222.181 167.094 220.994 167.128 220.029 167.231C219.723 170.7 217.451 172.449 214.374 173.426C213.743 174.851 213.732 177.179 214.078 178.826C218.757 176.276 220.966 171.359 223.703 167.111V167.106ZM220.455 182.908L241.221 182.977C243.271 179.78 244.747 174.834 242.493 171.398C237.28 168.52 230.915 167.611 224.998 167.123L218.825 176.072C218.099 177.122 212 181.591 214.118 182.074C214.402 182.136 220.092 182.903 220.461 182.903L220.455 182.908ZM209.303 181.864C210.245 181.949 212.596 180.529 212.471 179.638L211.733 174.419L204.613 175.941L202.682 181.279L209.308 181.864H209.303ZM111.091 181.25C110.812 178.854 110.364 177.236 109.075 174.947C108.53 177.4 108.234 179.342 107.928 182L111.091 181.25ZM202.131 179.944L203.437 176.123L199.792 176.708L199.417 181.568C200.536 181.517 201.853 180.762 202.131 179.944ZM39.5381 187.61L40.2763 177.639C36.0744 178.803 32.4913 180.183 29.5727 183.715C32.4118 186.031 35.8927 186.889 39.5381 187.61ZM111.914 192.669C112.811 189.336 111.993 185.89 111.34 182.477C110.188 182.545 108.399 182.931 107.581 183.595C106.667 186.866 105.798 191 107.797 193.737C108.484 194.197 111.619 193.657 111.914 192.669ZM214.538 192.431C212.727 188.814 212.619 186.872 212.733 183.402C209.326 181.983 205.294 186.645 199.655 187.218L200.604 182.386C194.181 183.3 187.901 185.151 182.115 188.922L185.147 192.425C189.883 194.163 194.34 193.669 199.144 193.368L208.252 192.794L214.533 192.431H214.538ZM207.543 183.084C205.691 182.551 203.749 182.147 202.194 182.659C201.427 182.908 200.751 184.833 200.649 186.014C203.528 185.265 205.419 184.419 207.543 183.084ZM180.298 188.871C178.015 187.298 177.379 186.77 174.801 185.469L177.408 191.261L180.298 188.871Z" fill="white"/>
</svg>
